<svg width="24" height="24" viewBox="0 0 24 24" fill="none" xmlns="http://www.w3.org/2000/svg">
<g clip-path="url(#clip0_972_13896)">
<path fill-rule="evenodd" clip-rule="evenodd" d="M9.43845 10H12.1577C12.71 10 13.1577 10.4477 13.1577 11C13.1577 11.0818 13.1476 11.1632 13.1278 11.2425L11.688 17H13.4384V18H11C9.89543 18 9 17.1046 9 16C9 15.8365 9.02005 15.6736 9.05971 15.5149L10.188 11H9.43845V10ZM11.9384 6C12.7669 6 13.4384 6.67157 13.4384 7.5C13.4384 8.32843 12.7669 9 11.9384 9C11.11 9 10.4384 8.32843 10.4384 7.5C10.4384 6.67157 11.11 6 11.9384 6Z" fill="#512B2B"/>
<path d="M23.5 12C23.5 5.64873 18.3513 0.5 12 0.5C5.64873 0.5 0.5 5.64873 0.5 12C0.5 18.3513 5.64873 23.5 12 23.5C18.3513 23.5 23.5 18.3513 23.5 12Z" stroke="#EFB7B6"/>
</g>
<defs>
<clipPath id="clip0_972_13896">
<rect width="24" height="24" fill="white"/>
</clipPath>
</defs>
</svg>
