<svg xmlns="http://www.w3.org/2000/svg" width="213" height="439" fill="none" viewBox="0 0 213 439"><g clip-path="url(#clip0)"><path fill="#fff" d="M211.888-5.82H-.832V439.83h212.72V-5.82Z"/><path stroke="#222223" stroke-linecap="square" d="M34.109 163.393H8.113M176.947 163.32h25.996"/><path fill="#FAFAFC" stroke="#222223" stroke-linejoin="round" d="M176.948 51.701H34.388v27.923h142.56V51.701ZM176.948 107.547H34.388v27.923h142.56v-27.923ZM176.948 135.47H34.388v27.923h142.56V135.47ZM176.948 163.393H34.388v27.924h142.56v-27.924ZM176.948 23.778H34.388v27.923h142.56V23.778Z"/><path fill="#FFA65F" d="m47.94 142.507-3.4 1.215.77 2.699 2.182-.554v9.15h3.203v-12.51H47.94Zm9.912 12.778c3.327 0 5.188-2.645 5.188-6.523 0-3.878-1.86-6.523-5.188-6.523-3.328 0-5.188 2.645-5.188 6.523 0 3.878 1.86 6.523 5.188 6.523Zm0-3.11c-1.342 0-1.986-1.144-1.986-3.413 0-2.27.644-3.414 1.986-3.414 1.341 0 1.985 1.144 1.985 3.414 0 2.269-.644 3.413-1.985 3.413ZM50.087 183.766c3.327 0 5.188-2.645 5.188-6.523 0-3.878-1.86-6.523-5.188-6.523-3.328 0-5.188 2.645-5.188 6.523 0 3.878 1.86 6.523 5.188 6.523Zm0-3.109c-1.342 0-1.986-1.144-1.986-3.414 0-2.269.644-3.413 1.986-3.413s1.986 1.144 1.986 3.413c0 2.27-.644 3.414-1.986 3.414Zm15.74-5.522c0-2.592-1.878-4.415-4.74-4.415-2.845 0-4.74 1.823-4.74 4.415 0 2.358 1.573 4.074 4.006 4.378l-2.647 3.985h3.631l3.704-5.772c.5-.715.787-1.591.787-2.591Zm-6.279 0c0-.965.68-1.484 1.539-1.484.859 0 1.538.501 1.538 1.484 0 .982-.68 1.501-1.538 1.501-.859 0-1.539-.519-1.539-1.501ZM47.94 115.142l-3.4 1.216.77 2.698 2.182-.554v9.15h3.203v-12.51H47.94Zm7.678 0-3.4 1.216.77 2.698 2.182-.554v9.15h3.203v-12.51h-2.755Z"/><path fill="#FFF1E5" stroke="#FFA65F" stroke-width="1.5" d="M176.948 79.624H34.388v27.923h142.56V79.624Z"/><path fill="#FFA65F" d="m47.94 87.22-3.4 1.215.77 2.698 2.182-.554v9.15h3.203v-12.51H47.94Zm4.652 12.509h8.766v-3.092H57.44l1.7-1.769c1.145-1.197 2.003-2.377 2.003-3.95 0-2.555-2.093-3.967-4.347-3.967-1.825 0-3.56.912-4.4 2.878l2.754 1.537c.34-.787.895-1.305 1.682-1.305.715 0 1.11.447 1.11 1.036 0 .608-.502 1.18-1.2 1.93l-4.15 4.379v2.323ZM47.94 59.296l-3.4 1.216.77 2.698 2.182-.554v9.15h3.203v-12.51H47.94Zm10.95 5.094 2.092-2.574v-2.52h-8.14v3.056h4.205l-2.004 2.449 1.234 1.822h.68c.93 0 1.413.465 1.413 1.162 0 .697-.483 1.18-1.413 1.18-.966 0-1.467-.483-1.717-1.305l-2.791 1.59c.751 1.93 2.505 2.824 4.508 2.824 2.451 0 4.598-1.376 4.598-4.2 0-1.787-1.127-3.002-2.666-3.484ZM47.94 31.373l-3.4 1.216.77 2.698 2.182-.554v9.15h3.203v-12.51H47.94Zm14.474 7.685H61.16v-2.252h-3.184v2.252H55.99l3.775-7.685h-3.542l-3.74 7.685v2.913h5.493v1.912h3.184V41.97h1.252v-2.913Z"/><path stroke="#222223" stroke-linecap="square" d="m23.767 25.454 6.564-6.702h150.675l6.564 6.702"/><path fill="#EEEEF0" stroke="#222223" stroke-linejoin="round" d="M95.325 142.73v20.663h10.063V142.73H95.325ZM105.389 142.73v20.663h10.063V142.73h-10.063Z"/><path fill="#FAFAFC" stroke="#222223" stroke-linecap="square" d="M151.231 5.35h9.504v13.402h-9.504V5.35Z"/><path stroke="#FFA65F" stroke-width="3" d="M74.26 107.268v116.439h27.215-55.346"/><path fill="#FFA65F" d="m59.217 230.632-9.348 3.342 2.116 7.421 6.002-1.524v25.162h8.806v-34.401h-7.577Zm12.793 34.401h24.108v-8.502H85.343l4.674-4.865c3.149-3.293 5.51-6.536 5.51-10.861 0-7.028-5.756-10.91-11.955-10.91-5.018 0-9.79 2.506-12.103 7.912l7.577 4.227c.934-2.163 2.46-3.588 4.624-3.588 1.968 0 3.05 1.229 3.05 2.851 0 1.67-1.377 3.243-3.295 5.307L72.01 258.645v6.388Z"/><path fill="#51C8B4" d="M118.789 265.77c9.15 0 14.267-7.273 14.267-17.937 0-10.665-5.117-17.938-14.267-17.938-9.151 0-14.268 7.273-14.268 17.938 0 10.664 5.117 17.937 14.268 17.937Zm0-8.551c-3.69 0-5.461-3.145-5.461-9.386 0-6.242 1.771-9.387 5.461-9.387 3.689 0 5.46 3.145 5.46 9.387 0 6.241-1.771 9.386-5.46 9.386Zm33.576-12.581 5.756-7.076v-6.93h-22.385v8.404h11.562l-5.51 6.733 3.394 5.012h1.87c2.558 0 3.886 1.278 3.886 3.195 0 1.916-1.328 3.243-3.886 3.243-2.657 0-4.035-1.327-4.723-3.587l-7.675 4.374c2.066 5.307 6.888 7.764 12.398 7.764 6.74 0 12.643-3.784 12.643-11.548 0-4.915-3.099-8.257-7.33-9.584Z"/><path fill="#FAFAFC" stroke="#222223" stroke-linecap="round" stroke-linejoin="round" d="M12.166 305.242v120.069H198.89V305.242H12.166Z"/><path fill="#EEEEF0" stroke="#222223" stroke-linecap="round" d="M105.668 350.296H61.947v39.195H97.82v35.835h35.874v-36.395h15.695v-38.635h-43.721Z"/><path stroke="#FAFAFC" d="M74.278 389.491h12.3M61.947 355.895v12.286M149.389 368.181v-12.286M149.389 387.219v-12.287"/><path stroke="#222223" d="M61.803 373.933H12.166M149.134 371.699h49.756"/><path fill="#BEBEC0" stroke="#222223" d="M116.878 414.128v-5.6H97.82v5.6h19.058Z"/><path fill="#F5F5F7" stroke="#222223" d="M133.621 414.142v-5.584h-18.17v5.584h18.17Z"/><path fill="#767678" stroke="#222223" d="M116.878 419.727v-5.599H97.82v5.599h19.058Z"/><path fill="#FAFAFC" stroke="#222223" d="M133.621 419.727v-5.585h-18.17v5.585h18.17Z"/><path fill="#434344" stroke="#222223" d="M116.878 425.326v-5.599H97.82v5.599h19.058Z"/><path fill="#fff" stroke="#222223" d="M133.621 425.311v-5.584h-18.17v5.584h18.17Z"/><path fill="#51C8B4" d="M167.069 411.618c3.328 0 5.188-2.645 5.188-6.523 0-3.878-1.86-6.523-5.188-6.523-3.327 0-5.188 2.645-5.188 6.523 0 3.878 1.861 6.523 5.188 6.523Zm0-3.11c-1.341 0-1.985-1.143-1.985-3.413 0-2.269.644-3.413 1.985-3.413 1.342 0 1.986 1.144 1.986 3.413 0 2.27-.644 3.413-1.986 3.413Zm11.092-5.271h-.894l.089-1.341h4.419v-3.056h-7.371l-.519 7.345h4.008c.841 0 1.359.429 1.359 1.162 0 .697-.483 1.161-1.413 1.161-1.091 0-1.592-.482-1.843-1.304l-2.79 1.59c.751 1.93 2.504 2.824 4.633 2.824 2.469 0 4.616-1.43 4.616-4.271 0-2.752-1.968-4.11-4.294-4.11ZM31.777 411.618c3.328 0 5.188-2.645 5.188-6.523 0-3.878-1.86-6.523-5.188-6.523-3.327 0-5.188 2.645-5.188 6.523 0 3.878 1.86 6.523 5.188 6.523Zm0-3.11c-1.341 0-1.985-1.143-1.985-3.413 0-2.269.644-3.413 1.985-3.413 1.342 0 1.986 1.144 1.986 3.413 0 2.27-.644 3.413-1.986 3.413Zm9.218-9.668-3.4 1.216.77 2.698 2.183-.554v9.15h3.202v-12.51h-2.755ZM31.777 333.434c3.328 0 5.188-2.645 5.188-6.523 0-3.878-1.86-6.523-5.188-6.523-3.327 0-5.188 2.645-5.188 6.523 0 3.878 1.86 6.523 5.188 6.523Zm0-3.11c-1.341 0-1.985-1.144-1.985-3.413 0-2.27.644-3.414 1.985-3.414 1.342 0 1.986 1.144 1.986 3.414 0 2.269-.644 3.413-1.986 3.413Zm6.105 2.841h8.766v-3.091H42.73l1.7-1.769c1.145-1.198 2.003-2.377 2.003-3.95 0-2.555-2.093-3.967-4.347-3.967-1.825 0-3.56.911-4.4 2.877l2.754 1.537c.34-.786.895-1.305 1.682-1.305.715 0 1.109.447 1.109 1.037 0 .608-.5 1.179-1.199 1.93l-4.15 4.378v2.323Z"/><path fill="#ECF9F7" d="M149.389 305.501H76.521v44.795h72.868v-44.795Z"/><path fill="#51C8B4" d="M108.927 333.434c3.328 0 5.188-2.645 5.188-6.523 0-3.878-1.86-6.523-5.188-6.523-3.327 0-5.188 2.645-5.188 6.523 0 3.878 1.861 6.523 5.188 6.523Zm0-3.11c-1.341 0-1.985-1.144-1.985-3.413 0-2.27.644-3.414 1.985-3.414 1.342 0 1.986 1.144 1.986 3.414 0 2.269-.644 3.413-1.986 3.413Zm12.21-4.575 2.093-2.573v-2.52h-8.14v3.056h4.204l-2.003 2.448 1.234 1.823h.68c.93 0 1.413.465 1.413 1.162 0 .697-.483 1.179-1.413 1.179-.966 0-1.467-.482-1.717-1.305l-2.791 1.591c.751 1.93 2.504 2.824 4.508 2.824 2.451 0 4.598-1.376 4.598-4.2 0-1.787-1.127-3.002-2.666-3.485ZM169.864 333.434c3.328 0 5.188-2.645 5.188-6.523 0-3.878-1.86-6.523-5.188-6.523-3.327 0-5.188 2.645-5.188 6.523 0 3.878 1.861 6.523 5.188 6.523Zm0-3.11c-1.341 0-1.985-1.144-1.985-3.413 0-2.27.644-3.414 1.985-3.414 1.342 0 1.986 1.144 1.986 3.414 0 2.269-.644 3.413-1.986 3.413Zm16.276-1.984h-1.253v-2.251h-3.184v2.251h-1.986l3.775-7.684h-3.542l-3.739 7.684v2.913h5.492v1.912h3.184v-1.912h1.253v-2.913Z"/><path stroke="#51C8B4" stroke-width="1.5" d="M89.513 350.295H76.521v-45.122h72.868v45.122H101.11"/><path stroke="#626263" stroke-dasharray="1.5 3" stroke-linecap="square" d="M36.163 392.712v-52.495"/><path fill="#626263" stroke="#626263" d="m33.92 341.856 2.243-3.879 2.242 3.879h-4.484Z"/><path stroke="#626263" stroke-dasharray="1.5 3" stroke-linecap="square" d="M51.72 327.162h43.046"/><path fill="#626263" stroke="#626263" d="m93.718 324.623 3.883 2.239-3.883 2.24v-4.479Z"/><path stroke="#626263" stroke-dasharray="1.5 3" stroke-linecap="square" d="M128.869 327.162h26.835"/><path fill="#626263" stroke="#626263" d="m154.655 324.623 3.883 2.239-3.883 2.24v-4.479Z"/><path stroke="#626263" stroke-dasharray="1.5 3" stroke-linecap="square" d="M175.271 337.633v51.379"/><path fill="#626263" stroke="#626263" d="m177.415 387.251-2.242 3.879-2.242-3.879h4.484Z"/><path stroke="#626263" stroke-dasharray="1.5 3" stroke-linecap="square" d="M53.397 405.207H81.07v-24.572h24.878v22.617"/><path fill="#626263" stroke="#626263" d="m54.62 407.408-3.883-2.239 3.883-2.24v4.479Z"/><path stroke="#51C8B4" stroke-width="3" d="M133.359 305.522v-33.787h27.376-55.346"/><path fill="#ECF9F7" d="M89.027 348.373h13.313v3.326H89.027z"/></g><defs><clipPath id="clip0"><path fill="#fff" d="M0 0h213v439H0z"/></clipPath></defs></svg>