<svg xmlns="http://www.w3.org/2000/svg" width="36" height="36" fill="none" viewBox="0 0 36 36"><path fill="#FFDC60" d="m5.428 21.306 16.235-18.01c.696-.773 1.962-.096 1.706.912l-2.841 11.207h11.615c.892 0 1.335 1.08.7 1.706L14.626 35.085c-.706.697-1.886.045-1.673-.924L15.42 22.97H6.17c-.863 0-1.318-1.023-.74-1.664Z"/><path fill="#214766" fill-rule="evenodd" d="M17.638 4.952 5.333 18.841h8.974l-2.213 10.21 14.152-14.199H15.171l2.467-9.901Zm-1.091-3.293c1.784-2.015 5.073-.283 4.423 2.328l-1.96 7.866h8.264c2.29 0 3.44 2.767 1.823 4.39L13.192 32.202c-1.814 1.82-4.882.15-4.338-2.362l1.733-7.999H4.384c-2.218 0-3.397-2.619-1.926-4.28L16.547 1.66Z" clip-rule="evenodd"/></svg>