<svg xmlns="http://www.w3.org/2000/svg" width="255" height="215" fill="none" viewBox="0 0 255 215"><g clip-path="url(#clip0)"><path fill="url(#paint0_linear)" d="M199.457 68.818V49.967h16.781v34.94l-16.781-16.089Z"/><path fill="#214766" d="M201.448 70.125V53.658h12.515v31.25l-12.515-14.783Z"/><path fill="url(#paint1_linear)" d="M96.066 86.724a24.447 24.447 0 0 0 5.828-19.45c-.48-3.469-1.7-6.795-3.578-9.753a24.489 24.489 0 0 0-7.31-7.393 14.46 14.46 0 0 0 2.32-7.878c0-7.904-6.276-14.311-14.018-14.311-6.377 0-11.753 4.352-13.45 10.302C62.196 32.066 55.554 27.94 47.97 27.94c-11.54 0-20.891 9.547-20.891 21.326-.003 2.51.43 5 1.28 7.362a16.015 16.015 0 0 0-1.28-.065c-9.261 0-16.781 7.665-16.781 17.119 0 .582.028 1.158.085 1.729a21.304 21.304 0 0 0-9.196 7.9A21.248 21.248 0 0 0-2.2 94.94c0 11.739 9.324 21.258 20.823 21.258a20.444 20.444 0 0 0 3.604-.323c-.063.707-.1 1.419-.1 2.149 0 13.173 10.461 23.848 23.365 23.848a22.922 22.922 0 0 0 13.306-4.259 17.165 17.165 0 0 0 11.297 4.259c9.64 0 17.455-7.978 17.455-17.821 0-.426-.034-.852-.062-1.263h.062c10.325 0 18.693-8.543 18.693-19.081a19.102 19.102 0 0 0-2.718-9.907 19.144 19.144 0 0 0-7.46-7.076Z"/><path fill="#1F6156" d="M93.367 86.61a22.925 22.925 0 0 0 2.112-27.413 22.984 22.984 0 0 0-6.862-6.939 13.563 13.563 0 0 0 2.178-7.381c0-7.419-5.89-13.435-13.16-13.435-5.973 0-11.03 4.086-12.626 9.67a19.497 19.497 0 0 0-7.103-7.06 19.541 19.541 0 0 0-9.678-2.61c-10.83 0-19.61 8.963-19.61 20.018a20.349 20.349 0 0 0 1.2 6.91 15.315 15.315 0 0 0-1.2-.062c-8.704-.003-15.744 7.189-15.744 16.075 0 .548.029 1.087.08 1.62a19.997 19.997 0 0 0-8.637 7.415 19.943 19.943 0 0 0-3.184 10.917c0 11.022 8.752 19.953 19.546 19.953a19.176 19.176 0 0 0 3.382-.304 23.646 23.646 0 0 0-.094 2.016c0 12.364 9.818 22.389 21.932 22.389a21.522 21.522 0 0 0 12.489-3.975 16.111 16.111 0 0 0 10.603 3.975c9.048 0 16.386-7.49 16.386-16.728 0-.4-.031-.792-.06-1.187h.06c9.69 0 17.546-8.02 17.546-17.911a17.934 17.934 0 0 0-2.549-9.307 17.973 17.973 0 0 0-7.007-6.645Z"/><path fill="url(#paint2_linear)" d="M58.766 61.059h-5.094V187.54h5.094V61.059Z"/><path fill="#795548" d="M57.683 62.836H55.12V187.54h2.563V62.836Z"/><path fill="#795548" d="M75.915 76.918 54.887 99.584l1.88 1.738 21.028-22.666-1.88-1.738ZM34.789 102.753l-1.528 2.054 21.802 16.162 1.528-2.054-21.802-16.162Z"/><path fill="url(#paint3_linear)" d="M64.07 100.785a19.717 19.717 0 0 1-5.363-13.491c0-7.223 3.933-13.554 9.843-17.122a11.625 11.625 0 0 1-2.042-6.578c0-6.612 5.558-11.973 12.415-11.973 5.65 0 10.407 3.64 11.912 8.62a18.616 18.616 0 0 1 6.805-6.351 18.657 18.657 0 0 1 9.035-2.269c10.219 0 18.487 7.99 18.487 17.844 0 2.105-.385 4.191-1.137 6.158.375-.029.75-.054 1.137-.054 8.203 0 14.85 6.41 14.85 14.32-.001.483-.026.965-.077 1.445 6.559 2.725 11.153 9.014 11.153 16.339 0 9.823-8.249 17.783-18.443 17.783a19.08 19.08 0 0 1-3.191-.284c.054.594.088 1.19.088 1.797 0 11.022-9.263 19.956-20.691 19.956a21.126 21.126 0 0 1-11.767-3.554 15.727 15.727 0 0 1-10.006 3.554c-8.533 0-15.459-6.675-15.459-14.908 0-.357.029-.707.055-1.059h-.055c-9.141 0-16.553-7.148-16.553-15.964 0-6.194 3.666-11.563 9.005-14.209Z"/><path fill="#51C8B4" d="M65.752 100.721a18.873 18.873 0 0 1-5.12-12.915c0-6.913 3.766-12.972 9.423-16.387a11.114 11.114 0 0 1-1.965-6.308c0-6.329 5.321-11.462 11.883-11.462 5.404 0 9.955 3.484 11.403 8.25a17.82 17.82 0 0 1 6.508-6.07 17.858 17.858 0 0 1 8.637-2.171c9.782 0 17.708 7.645 17.708 17.077a16.506 16.506 0 0 1-1.083 5.896c.358-.025.717-.054 1.083-.054 7.851 0 14.222 6.138 14.222 13.707 0 .462-.024.924-.071 1.383 6.277 2.609 10.674 8.628 10.674 15.637 0 9.4-7.901 17.034-17.651 17.034a18.254 18.254 0 0 1-3.052-.272c.051.568.082 1.136.082 1.72 0 10.55-8.868 19.101-19.804 19.101a20.22 20.22 0 0 1-11.278-3.406 15.051 15.051 0 0 1-9.576 3.406c-8.172 0-14.79-6.387-14.79-14.269 0-.34.028-.675.054-1.013h-.054c-8.752 0-15.846-6.842-15.846-15.28-.014-5.933 3.493-11.072 8.613-13.604Z"/><path fill="url(#paint4_linear)" d="M102.127 80.742h-5.794V186.9h5.794V80.742Z"/><path fill="#795548" d="M100.926 80.742h-3.202V186.9h3.202V80.742Z"/><path fill="#795548" d="m81.8 92.082-2.287 2.237 18.991 19.337 2.287-2.237-18.99-19.337ZM118.416 114.053 98.73 127.844l1.839 2.616 19.687-13.79-1.84-2.617Z"/><path fill="url(#paint5_linear)" d="M229.097 99.366H86.256c-3.262 0-5.905 1.465-5.905 3.276v104.67H235.01v-104.67c0-1.811-2.651-3.276-5.913-3.276Z"/><path fill="#fff" d="M157.226 39.474 82.709 94.72V203.32h149.479V98.662l-74.962-59.188Z"/><path fill="url(#paint6_linear)" d="M157.374 105.87c9.164 0 16.593-7.416 16.593-16.563 0-9.147-7.429-16.563-16.593-16.563-9.165 0-16.594 7.416-16.594 16.563 0 9.147 7.429 16.563 16.594 16.563Z"/><path fill="url(#paint7_linear)" d="M126.263 121.249H96.93v29.279h29.333v-29.279Z"/><path fill="url(#paint8_linear)" d="M217.225 121.249h-29.333v29.279h29.333v-29.279Z"/><path fill="url(#paint9_linear)" d="m68.337 122.277-3.973-22.184 93.189-71.49 92.247 72.918-2.56 19.905-89.702-67.564-89.2 68.415Z"/><path fill="#214766" d="m68.52 117.823-2.734-15.328 91.744-71.459 90.848 71.464-2.751 15.314-88.111-69.312-88.997 69.321Z"/><path fill="url(#paint10_linear)" d="M175.153 154.372h-35.852v48.948h35.852v-48.948Z"/><path fill="#214766" d="M174.115 155.408h-33.779v47.912h33.779v-47.912ZM125.524 122.283h-27.26v9.613h27.26v-9.613Z"/><path fill="#214766" d="M125.524 131.896h-27.26v17.596h27.26v-17.596Z" opacity=".2"/><path fill="#214766" d="M216.19 122.283h-27.26v9.613h27.26v-9.613Z"/><path fill="#214766" d="M216.19 131.896h-27.26v17.596h27.26v-17.596Z" opacity=".2"/><path fill="#214766" d="M157.225 104.243a15.108 15.108 0 0 0 13.966-9.32 15.068 15.068 0 0 0 1.146-5.778h-30.223a15.068 15.068 0 0 0 4.421 10.675 15.108 15.108 0 0 0 10.69 4.423Z"/><path fill="#000" d="M157.225 104.095c4.008 0 7.852-1.589 10.686-4.417a15.07 15.07 0 0 0 4.426-10.666h-30.223c0 4 1.592 7.837 4.426 10.666a15.127 15.127 0 0 0 10.685 4.417Z" opacity=".2"/><path fill="#214766" d="M157.225 74.076a15.126 15.126 0 0 0-10.68 4.413 15.073 15.073 0 0 0-4.431 10.657h30.223a15.073 15.073 0 0 0-4.431-10.657 15.127 15.127 0 0 0-10.681-4.413Z" opacity=".2"/><path fill="#214766" d="M157.225 74.076a15.126 15.126 0 0 0-10.68 4.413 15.073 15.073 0 0 0-4.431 10.657h30.223a15.073 15.073 0 0 0-4.431-10.657 15.127 15.127 0 0 0-10.681-4.413Z" opacity=".2"/><path fill="url(#paint11_linear)" d="M166.262 182.766a3.552 3.552 0 0 0 3.555-3.549 3.552 3.552 0 0 0-3.555-3.549 3.552 3.552 0 0 0-3.556 3.549 3.552 3.552 0 0 0 3.556 3.549Z"/><path fill="#263238" d="M166.262 181.88a2.666 2.666 0 0 0 2.668-2.663 2.666 2.666 0 0 0-2.668-2.663 2.665 2.665 0 0 0-2.668 2.663 2.666 2.666 0 0 0 2.668 2.663Z"/><path fill="url(#paint12_linear)" d="M178.409 196.37h-43.554v14.195h43.554V196.37Z"/><path fill="#fff" d="M177.519 197.552h-41.776v12.125h41.776v-12.125Z"/><path fill="url(#paint13_linear)" d="M94.086 163.634a11.26 11.26 0 0 0 1.036-13.459 11.291 11.291 0 0 0-3.368-3.408 6.66 6.66 0 0 0 1.07-3.631 6.427 6.427 0 0 0-1.515-4.307 6.448 6.448 0 0 0-8.461-1.235 6.433 6.433 0 0 0-2.687 3.694 9.57 9.57 0 0 0-3.491-3.47 9.604 9.604 0 0 0-4.757-1.28c-5.32 0-9.631 4.401-9.631 9.832a9.995 9.995 0 0 0 .589 3.407c-.197-.015-.39-.032-.589-.032-4.266 0-7.73 3.532-7.73 7.89 0 .27 0 .534.04.798a9.824 9.824 0 0 0-4.242 3.641 9.795 9.795 0 0 0-1.564 5.361c0 5.411 4.298 9.798 9.6 9.798a9.442 9.442 0 0 0 1.66-.151 11.42 11.42 0 0 0-.045.991c0 6.073 4.835 10.996 10.771 10.996 2.199 0 4.342-.685 6.132-1.959a7.915 7.915 0 0 0 5.208 1.959c4.443 0 8.046-3.691 8.046-8.214 0-.195-.014-.389-.028-.582h.028c4.759 0 8.616-3.937 8.616-8.801a8.823 8.823 0 0 0-4.687-7.838Z"/><path fill="#00897B" d="M92.84 163.582a10.572 10.572 0 0 0-2.19-15.833 6.251 6.251 0 0 0 1.004-3.407 6.03 6.03 0 0 0-1.421-4.043 6.055 6.055 0 0 0-10.465 2.309 9.01 9.01 0 0 0-7.733-4.458c-4.992 0-9.04 4.131-9.04 9.227 0 1.086.188 2.164.555 3.186-.182 0-.366-.029-.554-.029-4.008 0-7.256 3.316-7.256 7.407 0 .253 0 .503.037.747a9.22 9.22 0 0 0-3.981 3.417 9.195 9.195 0 0 0-1.468 5.032c0 5.079 4.033 9.198 9.01 9.198.523 0 1.044-.047 1.559-.139-.026.307-.043.616-.043.929 0 5.7 4.525 10.32 10.109 10.32a9.921 9.921 0 0 0 5.756-1.84 7.436 7.436 0 0 0 4.89 1.84c4.172 0 7.551-3.453 7.551-7.711 0-.185-.014-.366-.028-.548h.028c4.465 0 8.089-3.691 8.089-8.256a8.262 8.262 0 0 0-1.178-4.287 8.287 8.287 0 0 0-3.23-3.061Z"/><path fill="url(#paint14_linear)" d="M76.893 151.806h-2.35v58.302h2.35v-58.302Z"/><path fill="#795548" d="M76.392 152.624h-1.18v57.485h1.18v-57.485Z"/><path fill="#795548" d="m84.8 159.104-9.693 10.449.866.8 9.693-10.449-.866-.8ZM65.839 171.029l-.704.946 10.05 7.449.703-.946-10.049-7.449Z"/><path fill="url(#paint15_linear)" d="M79.342 170.118a9.075 9.075 0 0 1-2.472-6.22 9.24 9.24 0 0 1 4.55-7.893 5.35 5.35 0 0 1-.946-3.037c0-3.049 2.56-5.519 5.722-5.519a5.68 5.68 0 0 1 5.492 3.974 8.582 8.582 0 0 1 7.302-3.974c4.71 0 8.532 3.69 8.532 8.233a7.92 7.92 0 0 1-.523 2.839c.173 0 .347-.026.523-.026 3.78 0 6.846 2.956 6.846 6.601.001.223-.011.446-.034.667a8.211 8.211 0 0 1 3.715 2.988 8.187 8.187 0 0 1 1.425 4.544c0 4.528-3.806 8.199-8.502 8.199-.492 0-.984-.042-1.47-.125.026.284.04.548.04.829 0 5.079-4.267 9.199-9.54 9.199a9.739 9.739 0 0 1-5.432-1.638 7.255 7.255 0 0 1-4.617 1.627c-3.936 0-7.124-3.078-7.124-6.874 0-.164 0-.326.025-.488h-.025c-4.215 0-7.631-3.296-7.631-7.359a7.324 7.324 0 0 1 4.144-6.547Z"/><path fill="#51C8B4" d="M80.112 170.086a8.697 8.697 0 0 1-2.366-5.962 8.825 8.825 0 0 1 4.343-7.554 5.124 5.124 0 0 1-.907-2.907c0-2.919 2.452-5.284 5.478-5.284a5.457 5.457 0 0 1 5.256 3.802 8.213 8.213 0 0 1 6.988-3.802c4.508 0 8.163 3.523 8.163 7.873a7.604 7.604 0 0 1-.5 2.717c.165 0 .33-.026.5-.026 3.618 0 6.542 2.839 6.542 6.32 0 .213-.012.426-.034.639a7.847 7.847 0 0 1 4.92 7.208c0 4.332-3.643 7.847-8.137 7.847-.476 0-.952-.039-1.422-.119.026.261.04.525.04.792 0 4.863-4.087 8.801-9.13 8.801a9.319 9.319 0 0 1-5.2-1.567 6.938 6.938 0 0 1-4.414 1.567c-3.766 0-6.826-2.944-6.826-6.578 0-.156 0-.312.026-.466h-.026c-4.033 0-7.304-3.154-7.304-7.043a7.01 7.01 0 0 1 1.108-3.702 7.029 7.029 0 0 1 2.902-2.556Z"/><path fill="url(#paint16_linear)" d="M96.88 160.877h-2.671v48.934h2.67v-48.934Z"/><path fill="#795548" d="M96.328 160.877H94.85v48.934h1.477v-48.934Z"/><path fill="#795548" d="m87.51 166.105-1.054 1.032 8.755 8.914 1.054-1.031-8.755-8.915ZM104.391 176.229l-9.075 6.357.848 1.206 9.075-6.357-.848-1.206Z"/><path fill="url(#paint17_linear)" d="M10.79 145.291a2.274 2.274 0 0 0 2.275-2.272 2.273 2.273 0 0 0-2.275-2.271 2.273 2.273 0 0 0-2.276 2.271 2.274 2.274 0 0 0 2.276 2.272Z"/><path fill="url(#paint18_linear)" d="M71.72 145.291a2.274 2.274 0 0 0 2.275-2.272 2.273 2.273 0 0 0-2.276-2.271 2.273 2.273 0 0 0-2.275 2.271 2.274 2.274 0 0 0 2.275 2.272Z"/><path fill="#E6E6E6" d="M10.79 144.785c.977 0 1.769-.791 1.769-1.766s-.792-1.766-1.77-1.766c-.976 0-1.768.791-1.768 1.766s.792 1.766 1.769 1.766Z"/><path fill="url(#paint19_linear)" d="M207.062 172.747a10.247 10.247 0 0 1-.939-12.233 10.277 10.277 0 0 1 3.061-3.098 6.055 6.055 0 0 1-.973-3.302 5.846 5.846 0 0 1 5.01-5.942 5.866 5.866 0 0 1 4.063.898 5.85 5.85 0 0 1 2.441 3.364 8.703 8.703 0 0 1 7.497-4.318c4.836 0 8.755 4.003 8.755 8.937a9.068 9.068 0 0 1-.535 3.086c.177 0 .356-.029.535-.029 3.882 0 7.028 3.211 7.028 7.175 0 .244 0 .485-.037.724a8.928 8.928 0 0 1 3.857 3.31 8.908 8.908 0 0 1 1.422 4.875c0 4.92-3.908 8.908-8.726 8.908a8.488 8.488 0 0 1-1.51-.136c.025.284.042.596.042.9 0 5.522-4.383 9.996-9.793 9.996a9.601 9.601 0 0 1-5.577-1.78 7.192 7.192 0 0 1-4.739 1.78c-4.038 0-7.315-3.344-7.315-7.469 0-.179 0-.355.026-.531h-.026c-4.326 0-7.833-3.58-7.833-7.998a8.004 8.004 0 0 1 1.139-4.152 8.03 8.03 0 0 1 3.127-2.965Z"/><path fill="#00897B" d="M208.194 172.701a9.611 9.611 0 0 1-.883-11.486 9.638 9.638 0 0 1 2.874-2.908 5.672 5.672 0 0 1-.913-3.097 5.493 5.493 0 0 1 4.703-5.575 5.514 5.514 0 0 1 3.813.841 5.494 5.494 0 0 1 2.293 3.155 8.187 8.187 0 0 1 7.036-4.054c4.551 0 8.217 3.756 8.217 8.39a8.529 8.529 0 0 1-.503 2.895c.168 0 .333-.025.503-.025 3.644 0 6.596 3.015 6.596 6.734 0 .23 0 .457-.034.679a8.364 8.364 0 0 1 4.955 7.682c0 4.619-3.667 8.361-8.192 8.361-.477 0-.953-.043-1.422-.128.026.284.04.568.04.852 0 5.181-4.116 9.383-9.193 9.383a9.019 9.019 0 0 1-5.233-1.672 6.758 6.758 0 0 1-4.443 1.672c-3.791 0-6.866-3.137-6.866-7.01 0-.167 0-.332.026-.496h-.026c-4.061 0-7.352-3.362-7.352-7.507a7.533 7.533 0 0 1 4.004-6.686Z"/><path fill="url(#paint20_linear)" d="M224.828 161.992h-2.136V215h2.136v-53.008Z"/><path fill="#795548" d="M224.222 162.736h-1.076V215h1.076v-52.264Z"/><path fill="#795548" d="m215.508 168.661-.789.73 8.812 9.499.789-.73-8.812-9.499ZM232.743 179.459l-9.138 6.774.641.862 9.138-6.774-.641-.862Z"/><path fill="url(#paint21_linear)" d="M220.464 178.641a8.262 8.262 0 0 0 2.247-5.656 8.383 8.383 0 0 0-4.124-7.185 4.86 4.86 0 0 0 .853-2.763c0-2.771-2.329-5.019-5.202-5.019a5.178 5.178 0 0 0-4.991 3.611 7.807 7.807 0 0 0-6.639-3.611c-4.283 0-7.753 3.347-7.753 7.478a7.21 7.21 0 0 0 .475 2.581c-.157 0-.316-.023-.475-.023-3.436 0-6.223 2.686-6.223 6.002 0 .202.01.403.031.604a7.464 7.464 0 0 0-3.378 2.716 7.437 7.437 0 0 0-1.295 4.132c0 4.117 3.461 7.452 7.728 7.452a7.97 7.97 0 0 0 1.336-.113c-.022.247-.037.5-.037.752 0 4.619 3.883 8.364 8.672 8.364a8.86 8.86 0 0 0 4.938-1.49 6.591 6.591 0 0 0 4.207 1.507c3.578 0 6.479-2.796 6.479-6.246 0-.15 0-.284-.023-.443h.023c3.831 0 6.937-2.995 6.937-6.691a6.658 6.658 0 0 0-3.786-5.959Z"/><path fill="#51C8B4" d="M219.765 178.614a7.903 7.903 0 0 0 2.161-5.414 8.025 8.025 0 0 0-3.947-6.867 4.658 4.658 0 0 0 .824-2.643c0-2.652-2.229-4.804-4.98-4.804a4.964 4.964 0 0 0-2.961.942 4.945 4.945 0 0 0-1.817 2.516 7.476 7.476 0 0 0-6.354-3.458c-4.099 0-7.421 3.205-7.421 7.157 0 .844.154 1.681.455 2.47-.151 0-.301-.023-.455-.023-3.291 0-5.956 2.573-5.956 5.744.001.189.012.379.032.568a7.142 7.142 0 0 0-3.233 2.598 7.118 7.118 0 0 0-1.241 3.954c0 3.941 3.31 7.135 7.395 7.135a7.842 7.842 0 0 0 1.28-.108 7.47 7.47 0 0 0-.035.721c0 4.42 3.718 8.006 8.3 8.006a8.472 8.472 0 0 0 4.727-1.42 6.306 6.306 0 0 0 4.013 1.42c3.413 0 6.201-2.677 6.201-5.979 0-.142 0-.284-.023-.423h.023c3.666 0 6.641-2.868 6.641-6.405a6.37 6.37 0 0 0-1.001-3.361 6.396 6.396 0 0 0-2.628-2.326Z"/><path fill="url(#paint22_linear)" d="M206.951 170.243h-2.429v44.491h2.429v-44.491Z"/><path fill="#795548" d="M206.366 170.243h-1.343v44.491h1.343v-44.491Z"/><path fill="#795548" d="m213.039 174.996-7.958 8.104.958.938 7.959-8.104-.959-.938ZM197.694 184.208l-.771 1.097 8.251 5.779.771-1.097-8.251-5.779Z"/><g clip-path="url(#clip1)"><path fill="#FFD15C" d="M235.613 39.112c.525-1.75 1.575-3.325 2.975-4.55a11.952 11.952 0 0 0 4.287-9.187c0-6.825-5.687-12.425-12.687-12.075-6.213.262-11.288 5.512-11.463 11.725-.087 3.85 1.575 7.262 4.288 9.537 1.487 1.225 2.537 2.8 3.062 4.55h9.538Z"/><path fill="#fff" d="M229.663 39.288h.787l-3.5-13.038h.263c.437 0 .875-.175 1.225-.525a.793.793 0 0 1 .612-.262c.263 0 .438.087.613.262.612.7 1.662.7 2.275 0a.794.794 0 0 1 .612-.262c.175 0 .438.087.613.262.35.35.7.525 1.225.525h.262l-3.412 13.038h.787l3.588-13.65c0-.175 0-.35-.175-.438-.175-.087-.35 0-.438.088-.175.175-.35.262-.525.262-.262 0-.437-.087-.7-.262-.35-.35-.7-.525-1.137-.525-.438 0-.788.175-1.138.525a.846.846 0 0 1-1.225 0c-.262-.35-.7-.525-1.137-.525-.438 0-.875.175-1.138.525-.175.175-.437.262-.7.262-.175 0-.437-.087-.525-.262-.087-.088-.262-.175-.437-.088-.175.088-.263.263-.175.438l3.5 13.65Z"/><path fill="#344A5E" d="M228.088 47.163c.437 1.05 1.487 1.837 2.712 1.837s2.275-.787 2.713-1.837h-5.425Z"/><path fill="#344A5E" d="M234.038 47.25h-6.388c-.875 0-1.575-.7-1.575-1.575v-6.65h9.538v6.65c0 .875-.7 1.575-1.575 1.575Z"/><path fill="#415A6B" d="M235.525 42.35h-9.45a.97.97 0 0 1-.962-.962.97.97 0 0 1 .962-.963h9.45a.97.97 0 0 1 .962.963.97.97 0 0 1-.962.962ZM235.525 45.413h-9.45a.97.97 0 0 1-.962-.963.97.97 0 0 1 .962-.962h9.45a.97.97 0 0 1 .962.962.97.97 0 0 1-.962.963Z"/><path fill="#FFD15C" d="M230.8 7a.877.877 0 0 0-.875.875v2.975c0 .438.35.875.875.875s.875-.35.875-.875V7.875A.877.877 0 0 0 230.8 7ZM219.075 12.337a.846.846 0 0 0-1.225 0 .846.846 0 0 0 0 1.225l2.1 2.1c.35.35.875.35 1.225 0a.846.846 0 0 0 0-1.225l-2.1-2.1ZM216.363 24.413h-2.975a.877.877 0 0 0-.875.875c0 .437.35.875.875.875h2.975c.437 0 .875-.35.875-.875 0-.438-.438-.875-.875-.875ZM219.95 34.913l-2.1 2.1a.846.846 0 0 0 0 1.225c.35.35.875.35 1.225 0l2.1-2.1a.846.846 0 0 0 0-1.225.846.846 0 0 0-1.225 0ZM241.65 34.912a.846.846 0 0 0-1.225 0 .846.846 0 0 0 0 1.225l2.1 2.1c.35.35.875.35 1.225 0a.846.846 0 0 0 0-1.225l-2.1-2.1ZM248.213 24.413h-2.975a.877.877 0 0 0-.875.875c0 .437.35.875.875.875h2.975c.437 0 .875-.35.875-.875a.877.877 0 0 0-.875-.875ZM242.525 12.338l-2.1 2.1a.846.846 0 0 0 0 1.225c.35.35.875.35 1.225 0l2.1-2.1a.846.846 0 0 0 0-1.225.846.846 0 0 0-1.225 0Z"/></g></g><defs><linearGradient id="paint0_linear" x1="199.457" x2="216.238" y1="67.438" y2="67.438" gradientUnits="userSpaceOnUse"><stop stop-color="gray" stop-opacity=".25"/><stop offset=".54" stop-color="gray" stop-opacity=".12"/><stop offset="1" stop-color="gray" stop-opacity=".1"/></linearGradient><linearGradient id="paint1_linear" x1="37696.9" x2="37696.9" y1="63799.8" y2="18077.2" gradientUnits="userSpaceOnUse"><stop stop-color="gray" stop-opacity=".25"/><stop offset=".54" stop-color="gray" stop-opacity=".12"/><stop offset="1" stop-color="gray" stop-opacity=".1"/></linearGradient><linearGradient id="paint2_linear" x1="1099.99" x2="1099.99" y1="83612.4" y2="27263.5" gradientUnits="userSpaceOnUse"><stop stop-color="gray" stop-opacity=".25"/><stop offset=".54" stop-color="gray" stop-opacity=".12"/><stop offset="1" stop-color="gray" stop-opacity=".1"/></linearGradient><linearGradient id="paint3_linear" x1="50674.8" x2="50674.8" y1="55092.5" y2="23094.2" gradientUnits="userSpaceOnUse"><stop stop-color="gray" stop-opacity=".25"/><stop offset=".54" stop-color="gray" stop-opacity=".12"/><stop offset="1" stop-color="gray" stop-opacity=".1"/></linearGradient><linearGradient id="paint4_linear" x1="2162.43" x2="2162.43" y1="69967.2" y2="30271.8" gradientUnits="userSpaceOnUse"><stop stop-color="gray" stop-opacity=".25"/><stop offset=".54" stop-color="gray" stop-opacity=".12"/><stop offset="1" stop-color="gray" stop-opacity=".1"/></linearGradient><linearGradient id="paint5_linear" x1="111292" x2="111292" y1="85400.2" y2="44357.1" gradientUnits="userSpaceOnUse"><stop stop-color="gray" stop-opacity=".25"/><stop offset=".54" stop-color="gray" stop-opacity=".12"/><stop offset="1" stop-color="gray" stop-opacity=".1"/></linearGradient><linearGradient id="paint6_linear" x1="18759.8" x2="18759.8" y1="12425.7" y2="8560.58" gradientUnits="userSpaceOnUse"><stop stop-color="gray" stop-opacity=".25"/><stop offset=".54" stop-color="gray" stop-opacity=".12"/><stop offset="1" stop-color="gray" stop-opacity=".1"/></linearGradient><linearGradient id="paint7_linear" x1="11832.6" x2="11832.6" y1="15645.3" y2="12625.7" gradientUnits="userSpaceOnUse"><stop stop-color="gray" stop-opacity=".25"/><stop offset=".54" stop-color="gray" stop-opacity=".12"/><stop offset="1" stop-color="gray" stop-opacity=".1"/></linearGradient><linearGradient id="paint8_linear" x1="21304.5" x2="21304.5" y1="15645.3" y2="12625.7" gradientUnits="userSpaceOnUse"><stop stop-color="gray" stop-opacity=".25"/><stop offset=".54" stop-color="gray" stop-opacity=".12"/><stop offset="1" stop-color="gray" stop-opacity=".1"/></linearGradient><linearGradient id="paint9_linear" x1="103910" x2="103910" y1="40373.9" y2="9466.25" gradientUnits="userSpaceOnUse"><stop stop-color="gray" stop-opacity=".25"/><stop offset=".54" stop-color="gray" stop-opacity=".12"/><stop offset="1" stop-color="gray" stop-opacity=".1"/></linearGradient><linearGradient id="paint10_linear" x1="20234.9" x2="20234.9" y1="35208.8" y2="26769.7" gradientUnits="userSpaceOnUse"><stop stop-color="gray" stop-opacity=".25"/><stop offset=".54" stop-color="gray" stop-opacity=".12"/><stop offset="1" stop-color="gray" stop-opacity=".1"/></linearGradient><linearGradient id="paint11_linear" x1="4374.26" x2="4374.26" y1="4744.81" y2="4567.37" gradientUnits="userSpaceOnUse"><stop stop-color="gray" stop-opacity=".25"/><stop offset=".54" stop-color="gray" stop-opacity=".12"/><stop offset="1" stop-color="gray" stop-opacity=".1"/></linearGradient><linearGradient id="paint12_linear" x1="24457.1" x2="24457.1" y1="10724.6" y2="10014.9" gradientUnits="userSpaceOnUse"><stop stop-color="gray" stop-opacity=".25"/><stop offset=".54" stop-color="gray" stop-opacity=".12"/><stop offset="1" stop-color="gray" stop-opacity=".1"/></linearGradient><linearGradient id="paint13_linear" x1="21251.2" x2="21251.2" y1="38269.6" y2="28551.9" gradientUnits="userSpaceOnUse"><stop stop-color="gray" stop-opacity=".25"/><stop offset=".54" stop-color="gray" stop-opacity=".12"/><stop offset="1" stop-color="gray" stop-opacity=".1"/></linearGradient><linearGradient id="paint14_linear" x1="718.144" x2="718.144" y1="43299.7" y2="31326.7" gradientUnits="userSpaceOnUse"><stop stop-color="gray" stop-opacity=".25"/><stop offset=".54" stop-color="gray" stop-opacity=".12"/><stop offset="1" stop-color="gray" stop-opacity=".1"/></linearGradient><linearGradient id="paint15_linear" x1="22519.3" x2="22519.3" y1="32411" y2="25609.5" gradientUnits="userSpaceOnUse"><stop stop-color="gray" stop-opacity=".25"/><stop offset=".54" stop-color="gray" stop-opacity=".12"/><stop offset="1" stop-color="gray" stop-opacity=".1"/></linearGradient><linearGradient id="paint16_linear" x1="1012.01" x2="1012.01" y1="36324.3" y2="27889.6" gradientUnits="userSpaceOnUse"><stop stop-color="gray" stop-opacity=".25"/><stop offset=".54" stop-color="gray" stop-opacity=".12"/><stop offset="1" stop-color="gray" stop-opacity=".1"/></linearGradient><linearGradient id="paint17_linear" x1="216.349" x2="216.349" y1="2465.42" y2="2392.74" gradientUnits="userSpaceOnUse"><stop stop-color="gray" stop-opacity=".25"/><stop offset=".54" stop-color="gray" stop-opacity=".12"/><stop offset="1" stop-color="gray" stop-opacity=".1"/></linearGradient><linearGradient id="paint18_linear" x1="1252.16" x2="1252.16" y1="2465.42" y2="2392.74" gradientUnits="userSpaceOnUse"><stop stop-color="gray" stop-opacity=".25"/><stop offset=".54" stop-color="gray" stop-opacity=".12"/><stop offset="1" stop-color="gray" stop-opacity=".1"/></linearGradient><linearGradient id="paint19_linear" x1="-22627.9" x2="-22627.9" y1="35956.9" y2="27925.5" gradientUnits="userSpaceOnUse"><stop stop-color="gray" stop-opacity=".25"/><stop offset=".54" stop-color="gray" stop-opacity=".12"/><stop offset="1" stop-color="gray" stop-opacity=".1"/></linearGradient><linearGradient id="paint20_linear" x1="-939.211" x2="-939.211" y1="43468.1" y2="33571" gradientUnits="userSpaceOnUse"><stop stop-color="gray" stop-opacity=".25"/><stop offset=".54" stop-color="gray" stop-opacity=".12"/><stop offset="1" stop-color="gray" stop-opacity=".1"/></linearGradient><linearGradient id="paint21_linear" x1="-23040.4" x2="-23040.4" y1="30423.6" y2="24800.5" gradientUnits="userSpaceOnUse"><stop stop-color="gray" stop-opacity=".25"/><stop offset=".54" stop-color="gray" stop-opacity=".12"/><stop offset="1" stop-color="gray" stop-opacity=".1"/></linearGradient><linearGradient id="paint22_linear" x1="-1223.4" x2="-1223.4" y1="36473.5" y2="29501.4" gradientUnits="userSpaceOnUse"><stop stop-color="gray" stop-opacity=".25"/><stop offset=".54" stop-color="gray" stop-opacity=".12"/><stop offset="1" stop-color="gray" stop-opacity=".1"/></linearGradient><clipPath id="clip0"><path fill="#fff" d="M0 0h254.291v215H0z"/></clipPath><clipPath id="clip1"><path fill="#fff" d="M209.8 7h42v42h-42z"/></clipPath></defs></svg>