<svg width="25" height="24" viewBox="0 0 25 24" fill="none" xmlns="http://www.w3.org/2000/svg">
<path d="M8 12.75H17" stroke="#3879AD" stroke-width="2" stroke-linecap="round" stroke-linejoin="round"/>
<path d="M5 9V6.75C5 5.95435 5.31607 5.19129 5.87868 4.62868C6.44129 4.06607 7.20435 3.75 8 3.75H17C17.7956 3.75 18.5587 4.06607 19.1213 4.62868C19.6839 5.19129 20 5.95435 20 6.75V9" stroke="#3879AD" stroke-width="2" stroke-linecap="round" stroke-linejoin="round"/>
<path d="M8 15.75V12C8 11.4067 7.82405 10.8266 7.49441 10.3333C7.16477 9.83994 6.69623 9.45543 6.14805 9.22836C5.59987 9.0013 4.99667 8.94189 4.41473 9.05765C3.83279 9.1734 3.29824 9.45912 2.87868 9.87868C2.45912 10.2982 2.1734 10.8328 2.05765 11.4147C1.94189 11.9967 2.0013 12.5999 2.22836 13.1481C2.45543 13.6962 2.83994 14.1648 3.33329 14.4944C3.82664 14.8241 4.40666 15 5 15V18.75C5 18.9489 5.07902 19.1397 5.21967 19.2803C5.36032 19.421 5.55109 19.5 5.75 19.5H19.25C19.4489 19.5 19.6397 19.421 19.7803 19.2803C19.921 19.1397 20 18.9489 20 18.75V15C20.5933 15 21.1734 14.8241 21.6667 14.4944C22.1601 14.1648 22.5446 13.6962 22.7716 13.1481C22.9987 12.5999 23.0581 11.9967 22.9424 11.4147C22.8266 10.8328 22.5409 10.2982 22.1213 9.87868C21.7018 9.45912 21.1672 9.1734 20.5853 9.05765C20.0033 8.94189 19.4001 9.0013 18.852 9.22836C18.3038 9.45543 17.8352 9.83994 17.5056 10.3333C17.1759 10.8266 17 11.4067 17 12V15.75" stroke="#3879AD" stroke-width="2" stroke-linecap="round" stroke-linejoin="round"/>
</svg>
