<svg width="25" height="24" viewBox="0 0 25 24" fill="none" xmlns="http://www.w3.org/2000/svg">
<path d="M7.25 18V20.25" stroke="#3879AD" stroke-width="2" stroke-linecap="round" stroke-linejoin="round"/>
<path d="M17.75 18V20.25" stroke="#3879AD" stroke-width="2" stroke-linecap="round" stroke-linejoin="round"/>
<path d="M5.75 9.75V4.875C5.75 4.37772 5.94754 3.90081 6.29917 3.54917C6.65081 3.19754 7.12772 3 7.625 3C8.12228 3 8.59919 3.19754 8.95083 3.54917C9.30246 3.90081 9.5 4.37772 9.5 4.875" stroke="#3879AD" stroke-width="2" stroke-linecap="round" stroke-linejoin="round"/>
<path d="M19.25 9H13.25V13.5H19.25V9Z" stroke="#3879AD" stroke-width="2" stroke-linecap="round" stroke-linejoin="round"/>
<path d="M19.25 9.75H22.25C22.4489 9.75 22.6397 9.82902 22.7803 9.96967C22.921 10.1103 23 10.3011 23 10.5V13.5C23 14.6935 22.5259 15.8381 21.682 16.682C20.8381 17.5259 19.6935 18 18.5 18H6.5C5.30653 18 4.16193 17.5259 3.31802 16.682C2.47411 15.8381 2 14.6935 2 13.5V10.5C2 10.3011 2.07902 10.1103 2.21967 9.96967C2.36032 9.82902 2.55109 9.75 2.75 9.75H13.25" stroke="#3879AD" stroke-width="2" stroke-linecap="round" stroke-linejoin="round"/>
</svg>
