<svg width="25" height="24" viewBox="0 0 25 24" fill="none" xmlns="http://www.w3.org/2000/svg">
<g clip-path="url(#clip0_267_4472)">
<path fill-rule="evenodd" clip-rule="evenodd" d="M7.45531 5.04094C6.9814 4.60114 6.28741 4.39161 5.56706 4.44118C7.6114 6.11426 5.18808 8.27532 3.83948 5.76235C3.28613 7.00688 3.86269 8.15192 5.01124 8.74114C5.553 9.01957 5.83847 9.18551 6.03499 9.40383C6.14398 9.52161 6.22097 9.65661 6.30816 9.83239L6.49976 10.623L4.66917 10.6793C4.2814 10.6793 3.96675 10.9939 3.96675 11.3817V17.3667C3.96675 17.975 3.95682 19.5821 4.62476 20.25C5.37476 21 6.01882 20.944 6.79366 20.944H17.8053C18.5812 20.944 19.4179 20.7615 19.9301 20.25C20.4445 19.7353 20.6326 19.5 20.6326 17.3667V11.3817C20.6326 10.9939 20.3183 10.6793 19.9301 10.6793H17.0923L18.5633 7.82426L16.6248 6.75L14.7498 10.623L13.2628 10.6793L13.2621 10.623C13.2617 10.6051 13.2557 10.5872 13.2434 10.5721C13.1862 10.5023 13.1278 10.4335 13.0684 10.3657L13.0662 10.3632C12.958 10.2384 12.9031 10.1755 12.9021 10.1333C12.901 10.0908 12.9548 10.0247 13.062 9.89215C13.1063 9.83766 13.1587 9.77332 13.2206 9.69282C13.2329 9.67875 13.2403 9.66012 13.2403 9.63973L13.2382 9.17672C13.238 9.1553 13.2294 9.13481 13.2142 9.11972C13.1989 9.10464 13.1784 9.09619 13.1569 9.09621H12.6095V5.29974L12.8884 5.11547C12.9309 5.05008 12.9555 4.97168 12.9551 4.88801L12.9523 4.16098C12.9509 3.93282 12.765 3.74895 12.5368 3.75L11.5384 3.75317C11.3098 3.75668 11.0971 3.93247 11.1003 4.16098L11.1116 4.97204C11.113 5.05184 11.1372 5.13235 11.1861 5.20266L11.3748 5.29974V9.09621L10.7621 9.10606C10.7175 9.10606 10.6816 9.14262 10.6819 9.18727L10.6837 9.64114C10.6837 9.66047 10.6907 9.67981 10.7044 9.69493C10.7719 9.77016 10.8314 9.83344 10.8816 9.88723C11.0286 10.0444 11.0996 10.1203 11.1003 10.1748C11.1007 10.2265 11.0412 10.3014 10.9266 10.4459C10.876 10.5095 10.8152 10.5854 10.7452 10.6793H8.88359L8.07722 9.15106C7.98089 8.92219 7.82937 8.76399 7.81425 8.59629C7.79984 8.44125 7.81425 8.27953 7.85433 8.0461C8.04909 6.90704 8.44671 5.95993 7.45531 5.04094ZM18.8748 12.375V17.25C18.8748 18.375 18.8748 19.125 17.7498 19.125L6.79366 19.0656C5.74976 19.0656 5.51965 18.75 5.51965 17.3667V12.375H18.8748ZM14.656 6.50872C14.8926 6.33434 15.1514 6.20778 15.4326 6.13219C15.8559 6.01899 16.2401 6.06082 16.585 6.25629L19.5705 7.97789L19.3912 8.29078L20.526 8.95137L21.7076 6.91055L20.5738 6.25629L20.3909 6.56075L17.4226 4.84829C17.0145 4.61415 16.5239 4.72102 16.154 4.82016C15.5332 4.98645 15.0343 5.54825 14.656 6.50872Z" fill="#3879AD"/>
<path d="M16.2503 14.2502C16.2503 14.2502 16.2503 16.4999 12.5 16.4999C8.74967 16.4999 8.74979 14.2497 8.74979 14.2497" stroke="#3879AD" stroke-width="2" stroke-linecap="round" stroke-linejoin="round"/>
</g>
<defs>
<clipPath id="clip0_267_4472">
<rect width="18.75" height="17.25" fill="white" transform="translate(3.5 3.75)"/>
</clipPath>
</defs>
</svg>
