<svg width="25" height="24" viewBox="0 0 25 24" fill="none" xmlns="http://www.w3.org/2000/svg">
<path d="M14.5344 18.3656L13.1469 20.6813C13.0789 20.7918 12.9838 20.883 12.8705 20.9463C12.7573 21.0096 12.6297 21.0429 12.5 21.0429C12.3703 21.0429 12.2427 21.0096 12.1295 20.9463C12.0162 20.883 11.9211 20.7918 11.8531 20.6813L10.4656 18.3656C10.4004 18.2545 10.3072 18.1623 10.1954 18.0982C10.0836 18.034 9.95701 18.0002 9.82812 18H4.25C4.05109 18 3.86032 17.921 3.71967 17.7803C3.57902 17.6397 3.5 17.4489 3.5 17.25V5.25C3.5 5.05109 3.57902 4.86032 3.71967 4.71967C3.86032 4.57902 4.05109 4.5 4.25 4.5H20.75C20.9489 4.5 21.1397 4.57902 21.2803 4.71967C21.421 4.86032 21.5 5.05109 21.5 5.25V17.25C21.5 17.4489 21.421 17.6397 21.2803 17.7803C21.1397 17.921 20.9489 18 20.75 18H15.1719C15.043 18.0002 14.9164 18.034 14.8046 18.0982C14.6928 18.1623 14.5996 18.2545 14.5344 18.3656V18.3656Z" stroke="#37AE9A" stroke-width="2" stroke-linecap="round" stroke-linejoin="round"/>
<path d="M12.25 11.25C12.25 11.1119 12.3619 11 12.5 11C12.6381 11 12.75 11.1119 12.75 11.25C12.75 11.3881 12.6381 11.5 12.5 11.5C12.3619 11.5 12.25 11.3881 12.25 11.25Z" fill="#37AE9A" stroke="#37AE9A" stroke-width="2"/>
<path d="M7.75 11.25C7.75 11.1119 7.86193 11 8 11C8.13807 11 8.25 11.1119 8.25 11.25C8.25 11.3881 8.13807 11.5 8 11.5C7.86193 11.5 7.75 11.3881 7.75 11.25Z" fill="#37AE9A" stroke="#37AE9A" stroke-width="2"/>
<path d="M17 12C17.4142 12 17.75 11.6642 17.75 11.25C17.75 10.8358 17.4142 10.5 17 10.5C16.5858 10.5 16.25 10.8358 16.25 11.25C16.25 11.6642 16.5858 12 17 12Z" fill="#37AE9A"/>
</svg>
