<svg width="25" height="24" viewBox="0 0 25 24" fill="none" xmlns="http://www.w3.org/2000/svg">
<path d="M21.5 16.6219V7.37812C21.4993 7.2446 21.4634 7.11362 21.3959 6.99841C21.3284 6.88319 21.2317 6.78781 21.1156 6.72187L12.8656 2.08125C12.7545 2.01706 12.6284 1.98328 12.5 1.98328C12.3716 1.98328 12.2455 2.01706 12.1344 2.08125L3.88437 6.72187C3.76827 6.78781 3.6716 6.88319 3.60411 6.99841C3.53663 7.11362 3.50072 7.2446 3.5 7.37812V16.6219C3.50072 16.7554 3.53663 16.8864 3.60411 17.0016C3.6716 17.1168 3.76827 17.2122 3.88437 17.2781L12.1344 21.9187C12.2455 21.9829 12.3716 22.0167 12.5 22.0167C12.6284 22.0167 12.7545 21.9829 12.8656 21.9187L21.1156 17.2781C21.2317 17.2122 21.3284 17.1168 21.3959 17.0016C21.4634 16.8864 21.4993 16.7554 21.5 16.6219V16.6219Z" stroke="#3879AD" stroke-width="2" stroke-linecap="round" stroke-linejoin="round"/>
<path d="M21.3968 6.99377L12.5843 12L3.60303 6.99377" stroke="#3879AD" stroke-width="2" stroke-linecap="round" stroke-linejoin="round"/>
<path d="M12.5844 12L12.5 22.0125" stroke="#3879AD" stroke-width="2" stroke-linecap="round" stroke-linejoin="round"/>
</svg>
