<svg width="25" height="24" viewBox="0 0 25 24" fill="none" xmlns="http://www.w3.org/2000/svg">
<path d="M16.25 10.5V9.375C16.25 8.87772 16.0524 8.40081 15.7008 8.04917C15.3492 7.69754 14.8722 7.5 14.375 7.5C13.8777 7.5 13.4008 7.69754 13.0491 8.04917C12.6975 8.40081 12.5 8.87772 12.5 9.375V3.375C12.5 2.87772 12.3024 2.40081 11.9508 2.04917C11.5992 1.69754 11.1222 1.5 10.625 1.5C10.1277 1.5 9.65076 1.69754 9.29913 2.04917C8.9475 2.40081 8.74996 2.87772 8.74996 3.375V14.7469L6.69683 11.1844C6.44819 10.753 6.03837 10.438 5.55751 10.3088C5.07666 10.1796 4.56416 10.2467 4.13277 10.4953C3.70138 10.744 3.38643 11.1538 3.2572 11.6346C3.12798 12.1155 3.19507 12.628 3.44371 13.0594C6.49996 19.5 8.35621 21.75 12.5 21.75C13.4849 21.75 14.4601 21.556 15.3701 21.1791C16.28 20.8022 17.1068 20.2497 17.8033 19.5533C18.4997 18.8569 19.0521 18.0301 19.4291 17.1201C19.806 16.2102 20 15.2349 20 14.25V10.5C20 10.0027 19.8024 9.52581 19.4508 9.17417C19.0992 8.82254 18.6222 8.625 18.125 8.625C17.6277 8.625 17.1508 8.82254 16.7991 9.17417C16.4475 9.52581 16.25 10.0027 16.25 10.5V10.5Z" stroke="#3879AD" stroke-width="2" stroke-linecap="round" stroke-linejoin="round"/>
</svg>
