<svg viewBox="0 0 25 24" fill="none" xmlns="http://www.w3.org/2000/svg">
<path d="M4.25 10.5H20.75" stroke="#3879AD" stroke-width="2" stroke-linecap="round" stroke-linejoin="round"/>
<path d="M10.1375 14.25H5.75C5.35218 14.25 4.97064 14.092 4.68934 13.8107C4.40804 13.5294 4.25 13.1478 4.25 12.75V6C4.25 5.20435 4.56607 4.44129 5.12868 3.87868C5.69129 3.31607 6.45435 3 7.25 3H20.75V12.75C20.75 13.1478 20.592 13.5294 20.3107 13.8107C20.0294 14.092 19.6478 14.25 19.25 14.25H14.8625C14.7555 14.2503 14.6498 14.2735 14.5525 14.3181C14.4552 14.3627 14.3685 14.4275 14.2984 14.5083C14.2282 14.5891 14.1762 14.684 14.1457 14.7866C14.1153 14.8892 14.1072 14.9971 14.1219 15.1031L14.75 19.5C14.75 20.0967 14.5129 20.669 14.091 21.091C13.669 21.5129 13.0967 21.75 12.5 21.75C11.9033 21.75 11.331 21.5129 10.909 21.091C10.4871 20.669 10.25 20.0967 10.25 19.5L10.8781 15.1031C10.8928 14.9971 10.8847 14.8892 10.8543 14.7866C10.8238 14.684 10.7718 14.5891 10.7016 14.5083C10.6315 14.4275 10.5448 14.3627 10.4475 14.3181C10.3502 14.2735 10.2445 14.2503 10.1375 14.25V14.25Z" stroke="#3879AD" stroke-width="2" stroke-linecap="round" stroke-linejoin="round"/>
<path d="M17.75 3V7.5" stroke="#3879AD" stroke-width="2" stroke-linecap="round" stroke-linejoin="round"/>
</svg>
