<svg width="25" height="24" viewBox="0 0 25 24" fill="none" xmlns="http://www.w3.org/2000/svg">
<path d="M20.375 12.375L14.9938 17.7562C14.7159 18.0352 14.3857 18.2565 14.0221 18.4075C13.6585 18.5585 13.2687 18.6363 12.875 18.6363C12.4813 18.6363 12.0915 18.5585 11.7279 18.4075C11.3643 18.2565 11.0341 18.0352 10.7563 17.7562L6.74377 13.7438C6.46485 13.4659 6.24353 13.1357 6.09252 12.7721C5.94151 12.4085 5.86377 12.0187 5.86377 11.625C5.86377 11.2313 5.94151 10.8415 6.09252 10.4779C6.24353 10.1143 6.46485 9.7841 6.74377 9.50625L12.125 4.125" stroke="#3879AD" stroke-width="2" stroke-linecap="round" stroke-linejoin="round"/>
<path d="M8.75 15.75L3.5 21" stroke="#3879AD" stroke-width="2" stroke-linecap="round" stroke-linejoin="round"/>
<path d="M14 6L17.75 2.25" stroke="#3879AD" stroke-width="2" stroke-linecap="round" stroke-linejoin="round"/>
<path d="M22.25 6.75L18.5 10.5" stroke="#3879AD" stroke-width="2" stroke-linecap="round" stroke-linejoin="round"/>
<path d="M21.5 13.5L11 3" stroke="#3879AD" stroke-width="2" stroke-linecap="round" stroke-linejoin="round"/>
</svg>
