<svg xmlns="http://www.w3.org/2000/svg" width="36" height="36" fill="none" viewBox="0 0 36 36"><g clip-path="url(#clip0_9473_82337)"><path fill="#FFBBE4" d="M27.91 27.716c-3.725 7.767-8.527 9.25-15.799 7.242 1.062-3.995-2.482-5.938-4.072-9.743 8.398.573 7.313-5.345 10.217-5.688 2.413-.285 5.941 2.6 8.837 4.918.982.785 1.36 2.137.816 3.27Z"/><path fill="#214766" d="M18.922-.036a3.802 3.802 0 0 1-3.799 3.798v1.9a3.802 3.802 0 0 1 3.799 3.798h1.9a3.802 3.802 0 0 1 3.798-3.798v-1.9A3.802 3.802 0 0 1 20.82-.036h-1.9Zm.95 6.35a5.755 5.755 0 0 0-1.602-1.602 5.755 5.755 0 0 0 1.602-1.602c.421.634.967 1.18 1.602 1.602a5.744 5.744 0 0 0-1.602 1.602ZM7.456 4.775a3.802 3.802 0 0 1-3.799 3.799v1.899a3.802 3.802 0 0 1 3.799 3.798h1.899a3.802 3.802 0 0 1 3.798-3.798v-1.9a3.802 3.802 0 0 1-3.798-3.798h-1.9Zm.95 6.35a5.757 5.757 0 0 0-1.603-1.602 5.757 5.757 0 0 0 1.602-1.602c.422.635.968 1.18 1.602 1.602a5.744 5.744 0 0 0-1.602 1.602Z"/><path fill="#214766" fill-rule="evenodd" d="m22.435 17.729-.26-.054c-.23-.048-.488.021-.77.201a2.23 2.23 0 0 0-.4.33l-.01.01-.607.721-.863-.396h-.001l-.007-.003a2.012 2.012 0 0 0-.025-.011l-.018-.008a8.172 8.172 0 0 0-.826-.297c-.557-.166-1.12-.263-1.515-.213-.03.004-.174.039-.447.311-.265.266-.547.651-.858 1.14-.188.295-.349.564-.516.844-.128.215-.26.436-.411.68-.305.492-.664 1.036-1.07 1.448-1.683 1.707-4.084 1.865-5.782 1.72a12.976 12.976 0 0 1-.87-.103c.306.732.65 1.33 1.075 1.846.755.917 1.855 1.683 3.73 2.398l.994.38-.407 1.964c1.199.35 2.158.49 3.05.459 1.124-.04 2.243-.357 3.69-1.044 1.531-.726 2.86-2.05 3.838-3.487.995-1.459 1.511-2.856 1.58-3.6.04-.423-.066-.688-.262-.926-.236-.286-.642-.577-1.277-.896l-1.09-.547.518-1.098v-.001c.001 0 0 0 0 0l.003-.004.016-.037c.015-.037.039-.096.066-.17a3.52 3.52 0 0 0 .152-.562c.039-.216.042-.39.021-.509a.372.372 0 0 0-.028-.1.048.048 0 0 0-.012-.017l-.4-.37Zm-16.72 3.408h.002l.031.011.14.046a11.452 11.452 0 0 0 2.373.468c1.488.126 2.912-.095 3.79-.985.19-.193.423-.523.724-1.009.102-.165.223-.366.35-.58.194-.322.405-.674.595-.972.337-.53.736-1.101 1.199-1.564.456-.456 1.087-.92 1.901-1.023.925-.117 1.897.104 2.543.297.15.045.29.09.419.135.085-.063.177-.128.276-.191.41-.262 1.002-.544 1.713-.6l.858-1.321 2.796-4.3c2.058-3.162 4.213-6.47 4.55-6.969.532-.786 1.594-1.407 2.647-1a1.74 1.74 0 0 1 1.099 1.4c.083.576-.096 1.138-.354 1.62l-.025.046-8.17 12.54c.295.732.229 1.502.145 1.974-.018.1-.038.197-.06.29.418.277.814.604 1.14 1 .607.738.925 1.655.822 2.749-.124 1.323-.88 3.126-2.004 4.775-1.14 1.672-2.779 3.363-4.832 4.337-1.633.775-3.096 1.228-4.675 1.283-1.568.055-3.145-.286-5-.931l-1.035-.36.431-2.083c-1.622-.73-2.843-1.598-3.78-2.736-1.105-1.342-1.724-2.952-2.24-4.842l-.635-2.324 2.263.818h.002Z" clip-rule="evenodd"/><path fill="#214766" fill-rule="evenodd" d="m24.189 26.051-9.494-6.181 1.091-1.676 9.494 6.181-1.091 1.676Z" clip-rule="evenodd"/><path fill="#214766" fill-rule="evenodd" d="M15.675 23.34c.529-.462.974-1.078 1.753-2.22a1 1 0 0 1 1.652 1.128c-.75 1.098-1.334 1.94-2.09 2.598-.782.683-1.69 1.125-3.011 1.587a1 1 0 0 1-.66-1.887c1.223-.428 1.854-.768 2.356-1.207ZM15.567 27.372c2.294-.802 3.8-2.139 4.748-4.423a1 1 0 1 1 1.847.767c-1.18 2.844-3.14 4.567-5.935 5.544a1 1 0 0 1-.66-1.888Z" clip-rule="evenodd"/></g><defs><clipPath id="clip0_9473_82337"><path fill="#fff" d="M0 0h36v36H0z"/></clipPath></defs></svg>