<svg width="25" height="24" viewBox="0 0 25 24" fill="none" xmlns="http://www.w3.org/2000/svg">
    <path d="M0.5 12C0.5 5.37258 5.87258 0 12.5 0C19.1274 0 24.5 5.37258 24.5 12C24.5 18.6274 19.1274 24 12.5 24C5.87258 24 0.5 18.6274 0.5 12Z" fill="#214766"/>
    <path d="M18.8234 15.7571C18.5864 16.3021 18.3059 16.8038 17.9808 17.2651C17.5378 17.8939 17.1751 18.3291 16.8955 18.5708C16.4622 18.9675 15.9978 19.1707 15.5006 19.1823C15.1437 19.1823 14.7132 19.0812 14.2122 18.8761C13.7095 18.6719 13.2475 18.5708 12.825 18.5708C12.382 18.5708 11.9069 18.6719 11.3986 18.8761C10.8896 19.0812 10.4796 19.188 10.1661 19.1986C9.68929 19.2189 9.21405 19.0099 8.73968 18.5708C8.43691 18.3079 8.0582 17.8573 7.60453 17.2188C7.11778 16.5371 6.7176 15.7465 6.40409 14.8452C6.06834 13.8717 5.90002 12.929 5.90002 12.0163C5.90002 10.9708 6.12696 10.0692 6.5815 9.31354C6.93873 8.70661 7.41397 8.22784 8.00877 7.87637C8.60358 7.5249 9.24626 7.34579 9.93838 7.33433C10.3171 7.33433 10.8137 7.45094 11.4309 7.68012C12.0463 7.91007 12.4414 8.02668 12.6147 8.02668C12.7442 8.02668 13.1831 7.89033 13.9273 7.61849C14.631 7.3664 15.225 7.26201 15.7115 7.30313C17.03 7.40905 18.0205 7.92644 18.6792 8.85856C17.5001 9.56978 16.9168 10.5659 16.9284 11.8438C16.939 12.8392 17.3018 13.6675 18.0147 14.3252C18.3378 14.6305 18.6986 14.8664 19.1 15.0339C19.013 15.2853 18.9211 15.526 18.8234 15.7571ZM15.7995 3.91206C15.7995 4.69224 15.5132 5.42069 14.9425 6.09494C14.2538 6.89648 13.4207 7.35966 12.5173 7.28657C12.5058 7.19297 12.4992 7.09446 12.4992 6.99095C12.4992 6.24198 12.8267 5.44043 13.4083 4.78506C13.6987 4.45323 14.068 4.17732 14.5159 3.95723C14.9628 3.74041 15.3855 3.62051 15.7831 3.59998C15.7947 3.70427 15.7995 3.80858 15.7995 3.91205V3.91206Z" fill="white"/>
</svg>
