<svg width="32" height="32" viewBox="0 0 32 32" fill="none" xmlns="http://www.w3.org/2000/svg">
<g id="Area">
<path id="Star 2" d="M23.1572 6.20023C23.1587 6.19562 23.1653 6.19562 23.1667 6.20023L24.1957 9.37681C24.1962 9.37834 24.1973 9.37954 24.1989 9.38003L27.3755 10.4089C27.3801 10.4104 27.3801 10.417 27.3755 10.4185L24.1989 11.4474C24.1973 11.4479 24.1962 11.4491 24.1957 11.4506L23.1667 14.6272C23.1653 14.6318 23.1587 14.6318 23.1572 14.6272L22.1283 11.4506C22.1278 11.4491 22.1266 11.4479 22.1251 11.4474L18.9485 10.4185C18.9439 10.417 18.9439 10.4104 18.9485 10.4089L22.1251 9.38003C22.1266 9.37954 22.1278 9.37834 22.1283 9.37681L23.1572 6.20023Z" fill="#3879AD" stroke="#3879AD" stroke-width="1.5" stroke-linejoin="round"/>
<path id="Star 3" d="M8.48643 5.67875C8.48792 5.67414 8.49445 5.67414 8.49594 5.67875L9.12232 7.61257C9.12281 7.6141 9.12401 7.6153 9.12554 7.61579L11.0594 8.24217C11.064 8.24366 11.064 8.25019 11.0594 8.25168L9.12554 8.87806C9.12401 8.87855 9.12281 8.87975 9.12232 8.88127L8.49594 10.8151C8.49445 10.8197 8.48792 10.8197 8.48643 10.8151L7.86005 8.88127C7.85956 8.87975 7.85836 8.87855 7.85684 8.87806L5.92301 8.25168C5.9184 8.25019 5.9184 8.24366 5.92301 8.24217L7.85684 7.61579C7.85836 7.6153 7.85956 7.6141 7.86005 7.61257L8.48643 5.67875Z" fill="#3879AD" stroke="#3879AD" stroke-width="1.5" stroke-linejoin="round"/>
<path id="Vector" d="M4.06982 20.4127C4.06982 20.2735 12.5505 16.617 15.211 15.4733C15.7146 15.2568 16.2842 15.2572 16.7876 15.4742C19.4478 16.6211 27.9301 20.2879 27.9301 20.4127M4.06982 20.4127L15.3179 24.4903C15.7582 24.6499 16.2407 24.6499 16.6811 24.4903L27.9301 20.4127M4.06982 20.4127V22.784C4.06982 23.2036 4.33176 23.5786 4.72572 23.7229L15.3113 27.6024C15.7556 27.7652 16.2433 27.7652 16.6876 27.6024L27.2742 23.7229C27.6682 23.5785 27.9301 23.2036 27.9301 22.784V20.4127" stroke="#3879AD" stroke-width="2"/>
<path id="Vector 544" d="M27.3902 20.3848L15.9609 24.6123L4.40063 20.3848V24.6123L15.9609 28.4638L27.3902 24.0304V20.3848Z" fill="#3879AD"/>
</g>
</svg>
