<svg width="16" height="17" viewBox="0 0 16 17" fill="none" xmlns="http://www.w3.org/2000/svg">
<g id="Area">
<path id="Star 2" d="M11.5761 3.60746C11.5776 3.60285 11.5841 3.60285 11.5856 3.60746L12.0973 5.18719C12.0978 5.18872 12.099 5.18991 12.1005 5.19041L13.6803 5.70209C13.6849 5.70359 13.6849 5.71011 13.6803 5.71161L12.1005 6.22329C12.099 6.22378 12.0978 6.22498 12.0973 6.22651L11.5856 7.80624C11.5841 7.81085 11.5776 7.81085 11.5761 7.80624L11.0644 6.22651C11.0639 6.22498 11.0627 6.22378 11.0612 6.22329L9.48148 5.71161C9.47687 5.71011 9.47687 5.70359 9.48148 5.70209L11.0612 5.19041C11.0627 5.18991 11.0639 5.18872 11.0644 5.18719L11.5761 3.60746Z" fill="white" stroke="white" stroke-width="1.5" stroke-linejoin="round"/>
<path id="Star 3" d="M4.24175 3.34672C4.24325 3.3421 4.24977 3.3421 4.25127 3.34672L4.56168 4.30507C4.56218 4.3066 4.56337 4.30779 4.5649 4.30829L5.52325 4.6187C5.52787 4.6202 5.52787 4.62672 5.52325 4.62822L4.5649 4.93863C4.56337 4.93913 4.56218 4.94033 4.56168 4.94185L4.25127 5.90021C4.24977 5.90482 4.24325 5.90482 4.24175 5.90021L3.93134 4.94185C3.93084 4.94033 3.92965 4.93913 3.92812 4.93863L2.96976 4.62822C2.96515 4.62672 2.96515 4.6202 2.96976 4.6187L3.92812 4.30829C3.92965 4.30779 3.93084 4.3066 3.93134 4.30507L4.24175 3.34672Z" fill="white" stroke="white" stroke-width="1.5" stroke-linejoin="round"/>
<path id="Vector" d="M2.03516 10.7063C2.03516 10.6426 5.59297 9.10327 7.21311 8.4056C7.7166 8.18878 8.28322 8.18912 8.78649 8.40644C10.4066 9.106 13.9653 10.6492 13.9653 10.7063M2.03516 10.7063L7.31838 12.6216C7.75876 12.7812 8.2412 12.7812 8.68158 12.6216L13.9653 10.7063M2.03516 10.7063V11.5427C2.03516 11.9623 2.29709 12.3373 2.69105 12.4817L7.3118 14.1751C7.75613 14.3379 8.24382 14.3379 8.68816 14.1751L13.3094 12.4816C13.7034 12.3373 13.9653 11.9623 13.9653 11.5427V10.7063" stroke="white" stroke-width="2"/>
<path id="Vector 544" d="M13.696 10.6924L7.98129 12.8062L2.20117 10.6924V12.8062L7.98129 14.7319L13.696 12.5152V10.6924Z" fill="white"/>
</g>
</svg>
