<svg viewBox="0 0 23 20" fill="none" xmlns="http://www.w3.org/2000/svg" aria-hidden="true">
<path fill-rule="evenodd" clip-rule="evenodd" d="M6.4972 16.9339C7.17047 16.9339 7.76311 17.1908 7.64936 17.8748L7.52091 18.6464C7.47554 18.919 7.48398 19.0007 7.80886 19.0067L7.47874 19.7315C6.90426 19.7674 6.62628 19.7109 6.48825 19.4792C6.18356 19.6546 5.84846 19.7418 5.48958 19.7418C4.83867 19.7418 4.61476 19.4284 4.67265 19.0786C4.69988 18.9134 4.80429 18.7493 4.97018 18.6154C5.32727 18.3274 6.21181 18.2858 6.55752 18.0652C6.58768 17.8183 6.48084 17.7308 6.15494 17.7308C5.7742 17.7308 5.45635 17.8493 4.91344 18.1937L5.04572 17.3959C5.51834 17.0777 5.97243 16.9338 6.4972 16.9338L6.4972 16.9339ZM10.591 16.9339C11.2163 16.9339 11.5077 17.3049 11.4099 17.9165L11.1185 19.7418L9.99726 19.7418L10.2387 18.2304C10.2824 17.9537 10.2003 17.8277 9.9795 17.8277C9.80159 17.8277 9.64094 17.9219 9.48464 18.1254L9.22634 19.7418L8.10549 19.7418L8.54591 16.9802L9.66727 16.9802L9.6095 17.3414C9.96378 17.0484 10.2352 16.9338 10.591 16.9338L10.591 16.9339ZM13.4102 16.017L13.1303 17.852L14.2009 16.8575L15.5821 16.8575L14.207 18.087L15.3093 19.7418L13.9069 19.7418L13.0563 18.409L13.0458 18.409L12.8428 19.7418L11.7249 19.7418L12.2921 16.017L13.41 16.017L13.4102 16.017ZM3.38553 16.1317C4.31403 16.1317 4.54191 16.5729 4.47507 16.977C4.42101 17.3055 4.18418 17.5463 3.77035 17.7053C4.29179 17.8897 4.49488 18.1816 4.42011 18.6326C4.32643 19.2018 3.7977 19.6272 3.10922 19.6272L0.628905 19.6272L1.20582 16.1317L3.38553 16.1317ZM20.1742 16.1317C21.6232 16.1317 22.0416 17.1157 21.9077 17.9255C21.776 18.7199 21.104 19.6272 19.8308 19.6272L17.7182 19.6272L18.2974 16.1317L20.1742 16.1317ZM17.6589 16.1317L17.077 19.6272L15.7601 19.6272L16.3421 16.1317L17.6589 16.1317ZM6.48212 18.5175C6.17641 18.6978 5.61304 18.6667 5.55157 19.037C5.52243 19.2121 5.63911 19.3404 5.82648 19.3404C6.00885 19.3404 6.23085 19.2685 6.40377 19.1554C6.39214 19.094 6.39776 19.0269 6.41821 18.9035L6.48212 18.5175ZM2.61001 18.1153L2.18416 18.1153L2.02249 19.0941L2.41562 19.0941C2.85284 19.0941 3.1096 18.9301 3.16609 18.5867C3.21465 18.2944 3.03611 18.1153 2.61001 18.1153ZM19.8224 16.9614L19.4709 16.9614L19.1669 18.7968L19.5129 18.7968C20.1491 18.7968 20.4996 18.5046 20.6037 17.8795C20.6797 17.4182 20.5304 16.9614 19.8224 16.9614ZM2.80044 16.6642L2.42341 16.6642L2.27197 17.5817L2.64899 17.5817C3.07509 17.5817 3.27383 17.3716 3.31511 17.1205C3.35907 16.8544 3.22667 16.6642 2.80044 16.6642ZM6.23571 2.03463C6.64967 2.03463 6.96931 2.11688 7.13546 2.26645C7.25138 2.37115 7.29457 2.50815 7.26032 2.6634C7.22709 2.81322 7.05072 3.00831 6.78616 3.18415C6.03646 3.68554 6.16631 4.20518 6.22421 4.35279C6.39777 4.79684 6.97723 5.03644 7.4335 5.03644L8.40226 5.03644L7.49868 10.4568L7.51414 10.4568C7.17776 12.4823 6.92752 14.0098 6.88112 14.2977L1.51894 14.2977C1.62169 13.6608 2.96377 5.56668 3.04876 5.03804L3.1312 5.03804L3.40969 5.03866L3.47384 5.03866L3.6906 5.03915L3.7476 5.03927L3.82684 5.0394L3.87426 5.0394L3.89624 5.03952L3.95388 5.03964L4.01829 5.03964L4.02571 5.03977L4.03542 5.03977C4.67994 5.03644 5.27385 4.75615 5.54914 4.32541C5.8183 3.90763 5.71593 3.45976 5.28382 3.15616C5.13978 3.05529 4.97402 2.89165 5.00648 2.68917C5.05096 2.41579 5.53956 2.03463 6.23558 2.03463L6.23571 2.03463ZM14.5749 0.2583C19.5111 0.2583 22.9531 2.327 22.0972 7.48876C21.4051 11.6559 17.8831 14.2979 13.5715 14.2979L12.5493 14.2979L13.2426 10.0924C14.9889 10.0737 16.4522 9.28963 16.7544 7.47014C17.0791 5.51181 16.0482 4.67106 14.1297 4.65676C14.1301 4.6538 14.1301 4.65219 14.1301 4.65219L12.7191 4.65219C12.3942 4.65219 11.9768 4.48017 11.8686 4.20321C11.8348 4.11738 11.7661 3.80787 12.2921 3.45495C12.4941 3.31918 12.8448 3.04222 12.9184 2.71087C12.9786 2.43317 12.8931 2.16472 12.6826 1.97507C12.4428 1.7584 12.0423 1.64335 11.5245 1.64335C10.6599 1.64335 9.99867 2.14178 9.92352 2.6068C9.91879 2.63701 9.91573 2.6724 9.91573 2.71112C9.91573 2.89609 9.99113 3.16849 10.3499 3.42177C10.4815 3.51463 10.6091 3.65114 10.6091 3.83376C10.6091 3.91749 10.5822 4.0101 10.5167 4.11331C10.3112 4.43541 9.83406 4.65318 9.32795 4.65589L8.40226 4.6538L9.13126 0.258301L14.5749 0.2583Z" fill="currentColor"/>
</svg>
