<svg viewBox="0 0 31 41" fill="none" xmlns="http://www.w3.org/2000/svg">
<path fill-rule="evenodd" clip-rule="evenodd" d="M30.5312 32.2066C30.5312 32.2066 12.155 30.1064 7.64009 25.4241C3.12518 20.7417 3.12518 13.1502 7.64009 8.46786C12.155 3.78545 19.4761 3.78545 23.991 8.46786C28.5059 13.1502 30.5312 32.2066 30.5312 32.2066ZM15.5839 22.051C12.7735 22.051 10.4963 19.689 10.4963 16.7754C10.4963 13.8619 12.7735 11.4999 15.5839 11.4999C18.3932 11.4999 20.6704 13.8619 20.6704 16.7754C20.6704 19.689 18.3932 22.051 15.5839 22.051Z" fill="#51C8B4"/>
<path fill-rule="evenodd" clip-rule="evenodd" d="M4.67984 13.7169C4.68712 13.755 4.69337 13.793 4.70065 13.8309C5.21566 11.9674 6.20301 10.2079 7.66063 8.74262C12.1719 4.20775 19.487 4.20775 23.9982 8.74262C25.2342 9.98547 26.284 12.2737 27.1559 14.9412C27.4524 13.9131 27.6116 12.8263 27.6116 11.7022C27.6116 5.28891 22.4397 0.0898438 16.0588 0.0898438C10.7871 0.0898438 6.33929 3.63976 4.9545 8.49131L0.361084 11.1845L4.67984 13.7169ZM21.1371 33.9732C16.7882 33.0768 12.0741 31.8497 8.61884 30.2685C11.9388 35.7976 16.0588 40.9656 16.0588 40.9656C16.0588 40.9656 18.4996 37.9043 21.1371 33.9732Z" fill="#214766"/>
</svg>
