<svg width="235" height="162" viewBox="0 0 235 162" fill="none" xmlns="http://www.w3.org/2000/svg">
<path fill-rule="evenodd" clip-rule="evenodd" d="M74.249 111.884C69.5795 120.789 59.0534 125.324 49.1476 122.154C38.0529 118.603 31.9377 106.73 35.4887 95.6355C39.0398 84.5408 50.9124 78.4256 62.0071 81.9766C71.1747 84.9109 76.9425 93.5272 76.666 102.691L83.1617 109.907L74.249 111.884Z" fill="#214766"/>
<path d="M62.7268 130.03C52.3708 135.364 19.3162 128.664 19.3162 128.664C19.3162 128.664 33.0543 97.8615 43.4103 92.5274C53.7664 87.1933 66.4858 91.2644 71.8199 101.62C77.154 111.977 73.0829 124.696 62.7268 130.03Z" fill="#51C8B4"/>
<path fill-rule="evenodd" clip-rule="evenodd" d="M58.2332 138.325C51.3499 139.138 42.4738 138.637 34.4147 137.767C36.8249 146.035 39.3741 152.689 39.3741 152.689C39.3741 152.689 49.4001 146.043 58.2332 138.325Z" fill="#214766"/>
<circle cx="53.5641" cy="111.123" r="9.2807" transform="rotate(17.7483 53.5641 111.123)" fill="white"/>
<g filter="url(#filter0_d)">
<path fill-rule="evenodd" clip-rule="evenodd" d="M111.358 79.2835C101.827 78.0041 94.4775 69.8393 94.4775 59.9579C94.4775 50.0876 101.811 41.93 111.326 40.6366C117.893 28.3555 130.841 20 145.741 20H171.477C193.017 20 210.478 37.4609 210.478 59V60.8604C210.478 82.3995 193.017 99.8604 171.478 99.8604H145.741C130.866 99.8604 117.935 91.532 111.358 79.2835Z" fill="white"/>
</g>
<g filter="url(#filter1_d)">
<circle cx="79.9775" cy="59.958" r="7.5" fill="white"/>
</g>
<path d="M147.765 73.6559C153.071 67.9842 170.135 51.2856 170.135 51.2856" stroke="#F25A43" stroke-width="8" stroke-linecap="round" stroke-linejoin="round"/>
<path d="M147.765 51.2856C153.437 56.5914 170.135 73.6559 170.135 73.6559" stroke="#F25A43" stroke-width="8" stroke-linecap="round" stroke-linejoin="round"/>
<path d="M98.2505 127.801L104.37 121.682L110.49 127.801L116.61 121.682L122.729 127.801L128.849 121.682" stroke="#FFD4B3" stroke-width="8" stroke-linecap="round" stroke-linejoin="round"/>
<defs>
<filter id="filter0_d" x="70.4775" y="0" width="164" height="127.86" filterUnits="userSpaceOnUse" color-interpolation-filters="sRGB">
<feFlood flood-opacity="0" result="BackgroundImageFix"/>
<feColorMatrix in="SourceAlpha" type="matrix" values="0 0 0 0 0 0 0 0 0 0 0 0 0 0 0 0 0 0 127 0"/>
<feOffset dy="4"/>
<feGaussianBlur stdDeviation="12"/>
<feColorMatrix type="matrix" values="0 0 0 0 0 0 0 0 0 0 0 0 0 0 0 0 0 0 0.09 0"/>
<feBlend mode="normal" in2="BackgroundImageFix" result="effect1_dropShadow"/>
<feBlend mode="normal" in="SourceGraphic" in2="effect1_dropShadow" result="shape"/>
</filter>
<filter id="filter1_d" x="60.4775" y="44.458" width="39" height="39" filterUnits="userSpaceOnUse" color-interpolation-filters="sRGB">
<feFlood flood-opacity="0" result="BackgroundImageFix"/>
<feColorMatrix in="SourceAlpha" type="matrix" values="0 0 0 0 0 0 0 0 0 0 0 0 0 0 0 0 0 0 127 0"/>
<feOffset dy="4"/>
<feGaussianBlur stdDeviation="6"/>
<feColorMatrix type="matrix" values="0 0 0 0 0 0 0 0 0 0 0 0 0 0 0 0 0 0 0.11 0"/>
<feBlend mode="normal" in2="BackgroundImageFix" result="effect1_dropShadow"/>
<feBlend mode="normal" in="SourceGraphic" in2="effect1_dropShadow" result="shape"/>
</filter>
</defs>
</svg>