<svg viewBox="0 0 190 147" fill="none" xmlns="http://www.w3.org/2000/svg">
<path fill-rule="evenodd" clip-rule="evenodd" d="M77.0037 94.7542C72.1885 103.938 61.3333 108.615 51.1177 105.346C39.6766 101.684 33.3703 89.4401 37.0323 77.9989C40.6942 66.5577 52.9377 60.2515 64.3789 63.9134C73.8326 66.9393 79.7805 75.8242 79.4957 85.2742L86.1946 92.7153L77.0037 94.7542Z" fill="#214766"/>
<path d="M65.1212 113.467C54.4417 118.968 20.3547 112.058 20.3547 112.058C20.3547 112.058 34.5218 80.2936 45.2013 74.7928C55.8809 69.2921 68.9976 73.4904 74.4983 84.1699C79.999 94.8494 75.8007 107.966 65.1212 113.467Z" fill="#51C8B4"/>
<path fill-rule="evenodd" clip-rule="evenodd" d="M60.4871 122.022C53.3887 122.859 44.235 122.343 35.9241 121.445C38.4096 129.972 41.0386 136.834 41.0386 136.834C41.0386 136.834 51.378 129.98 60.4871 122.022Z" fill="#214766"/>
<circle cx="55.673" cy="93.9699" r="9.57059" transform="rotate(17.7483 55.673 93.9699)" fill="white"/>
<mask id="path-5-inside-1" fill="white">
<path fill-rule="evenodd" clip-rule="evenodd" d="M120.454 0C99.5415 0 82.5886 16.9529 82.5886 37.8653V44.4896C82.5886 57.6834 89.3366 69.3011 99.5696 76.0798V89.732C99.5696 90.4456 100.314 90.9154 100.958 90.6086L118.405 82.3004C119.083 82.3366 119.767 82.3549 120.454 82.3549H151.7C172.612 82.3549 189.565 65.402 189.565 44.4896V37.8653C189.565 16.9529 172.612 0 151.7 0H120.454Z"/>
</mask>
<path fill-rule="evenodd" clip-rule="evenodd" d="M120.454 0C99.5415 0 82.5886 16.9529 82.5886 37.8653V44.4896C82.5886 57.6834 89.3366 69.3011 99.5696 76.0798V89.732C99.5696 90.4456 100.314 90.9154 100.958 90.6086L118.405 82.3004C119.083 82.3366 119.767 82.3549 120.454 82.3549H151.7C172.612 82.3549 189.565 65.402 189.565 44.4896V37.8653C189.565 16.9529 172.612 0 151.7 0H120.454Z" fill="white"/>
<path d="M99.5696 76.0798H103.57V73.9315L101.779 72.7451L99.5696 76.0798ZM100.958 90.6086L99.2382 86.9971H99.2382L100.958 90.6086ZM118.405 82.3004L118.618 78.3061L117.603 78.252L116.685 78.689L118.405 82.3004ZM86.5886 37.8653C86.5886 19.162 101.751 4 120.454 4V-4C97.3324 -4 78.5886 14.7437 78.5886 37.8653H86.5886ZM86.5886 44.4896V37.8653H78.5886V44.4896H86.5886ZM101.779 72.7451C92.6165 66.6758 86.5886 56.2857 86.5886 44.4896H78.5886C78.5886 59.0811 86.0567 71.9265 97.3606 79.4145L101.779 72.7451ZM103.57 89.732V76.0798H95.5696V89.732H103.57ZM99.2382 86.9971C101.248 86.0399 103.57 87.5056 103.57 89.732H95.5696C95.5696 93.3856 99.3789 95.7908 102.678 94.22L99.2382 86.9971ZM116.685 78.689L99.2382 86.9971L102.678 94.22L120.125 85.9118L116.685 78.689ZM120.454 78.3549C119.838 78.3549 119.225 78.3385 118.618 78.3061L118.192 86.2947C118.941 86.3347 119.695 86.3549 120.454 86.3549V78.3549ZM151.7 78.3549H120.454V86.3549H151.7V78.3549ZM185.565 44.4896C185.565 63.1929 170.403 78.3549 151.7 78.3549V86.3549C174.821 86.3549 193.565 67.6112 193.565 44.4896H185.565ZM185.565 37.8653V44.4896H193.565V37.8653H185.565ZM151.7 4C170.403 4 185.565 19.162 185.565 37.8653H193.565C193.565 14.7437 174.821 -4 151.7 -4V4ZM120.454 4H151.7V-4H120.454V4Z" fill="#E1E1E3" mask="url(#path-5-inside-1)"/>
<path d="M141.81 53.875C141.81 50.7812 139.279 48.25 136.185 48.25C133.021 48.25 130.56 50.7812 130.56 53.875C130.56 57.0391 133.021 59.5 136.185 59.5C139.279 59.5 141.81 57.0391 141.81 53.875ZM131.193 25.3281L132.107 44.4531C132.177 45.2969 132.95 46 133.794 46H138.505C139.349 46 140.122 45.2969 140.193 44.4531L141.107 25.3281C141.177 24.3438 140.404 23.5 139.419 23.5H132.88C131.896 23.5 131.122 24.3438 131.193 25.3281Z" fill="#F25A43"/>
<path d="M147.041 111.169L153.352 104.858L159.663 111.169L165.974 104.858L172.285 111.169L178.595 104.858" stroke="#FFD4B3" stroke-width="7.76724" stroke-linecap="round" stroke-linejoin="round"/>
</svg>
