<svg width="216" height="168" viewBox="0 0 216 168" fill="none" xmlns="http://www.w3.org/2000/svg">
<path fill-rule="evenodd" clip-rule="evenodd" d="M77.3687 115.771C72.5107 124.943 61.6235 129.623 51.3889 126.371C39.9098 122.724 33.5985 110.48 37.2921 99.0245C40.9857 87.5686 53.2855 81.2386 64.7645 84.8859C74.2495 87.8996 80.2062 96.7823 79.9058 106.24L86.6447 113.706L77.3687 115.771Z" fill="#214766"/>
<path d="M65.4701 134.438C54.7337 139.948 20.4921 133.078 20.4921 133.078C20.4921 133.078 34.7613 101.317 45.4976 95.8074C56.234 90.2981 69.4085 94.4799 74.9237 105.148C80.439 115.815 76.2064 128.929 65.4701 134.438Z" fill="#51C8B4"/>
<path fill-rule="evenodd" clip-rule="evenodd" d="M60.8316 142.98C53.6993 143.833 44.4969 143.332 36.1403 142.448C38.6233 150.987 41.256 157.862 41.256 157.862C41.256 157.862 51.6697 150.97 60.8316 142.98Z" fill="#214766"/>
<ellipse cx="9.60009" cy="9.58507" rx="9.60009" ry="9.58507" transform="matrix(0.952979 0.30304 -0.306641 0.951827 49.7812 102.938)" fill="white"/>
<g filter="url(#filter0_d_21482_87848)">
<path fill-rule="evenodd" clip-rule="evenodd" d="M120.897 21C99.9841 21 83.0312 37.9529 83.0312 58.8653V65.4896C83.0312 78.7169 89.8136 90.3602 100.09 97.1314V110.735C100.09 111.448 100.833 111.918 101.477 111.612L118.996 103.308C119.626 103.339 120.259 103.355 120.897 103.355H152.634C173.547 103.355 190.5 86.402 190.5 65.4896V58.8653C190.5 37.9529 173.547 21 152.634 21H120.897Z" fill="white"/>
</g>
<path d="M129.675 59.5128L129.828 58.7645C130.029 57.7768 131.447 57.7768 131.648 58.7645L131.8 59.5128C132.184 61.3982 133.665 62.8717 135.559 63.2539L136.311 63.4056C137.303 63.6059 137.303 65.0175 136.311 65.2177L135.559 65.3694C133.665 65.7517 132.184 67.2252 131.8 69.1105L131.648 69.8589C131.447 70.8465 130.029 70.8465 129.828 69.8589L129.675 69.1105C129.291 67.2252 127.811 65.7517 125.917 65.3694L125.165 65.2177C124.173 65.0175 124.173 63.6059 125.165 63.4056L125.917 63.2539C127.811 62.8717 129.291 61.3982 129.675 59.5128Z" fill="#FFD4B3"/>
<path d="M112.765 49.4264C112.765 49.9255 113.172 50.3301 113.673 50.3301L116.131 50.3301C116.633 50.3301 117.039 49.9255 117.039 49.4264C117.039 48.9273 116.633 48.5227 116.131 48.5227L113.673 48.5227C113.172 48.5227 112.765 48.9273 112.765 49.4264Z" fill="#FFD4B3"/>
<path d="M106.148 49.4264C106.148 49.9255 106.555 50.3301 107.056 50.3301L109.514 50.3301C110.015 50.3301 110.422 49.9255 110.422 49.4264C110.422 48.9273 110.015 48.5228 109.514 48.5228L107.056 48.5228C106.554 48.5228 106.148 48.9273 106.148 49.4264Z" fill="#FFD4B3"/>
<path d="M110.686 44.9151L110.686 47.362C110.686 47.861 111.093 48.2656 111.594 48.2656C112.096 48.2656 112.502 47.861 112.502 47.362L112.502 44.9151C112.502 44.416 112.096 44.0114 111.594 44.0114C111.093 44.0114 110.686 44.416 110.686 44.9151Z" fill="#FFD4B3"/>
<path d="M110.686 51.4971L110.686 53.944C110.686 54.4431 111.093 54.8477 111.594 54.8477C112.096 54.8477 112.502 54.4431 112.502 53.944L112.502 51.4971C112.502 50.998 112.096 50.5934 111.594 50.5934C111.093 50.5934 110.686 50.998 110.686 51.4971Z" fill="#FFD4B3"/>
<path d="M132.947 88.0065C132.947 88.5056 133.353 88.9102 133.855 88.9102L136.313 88.9102C136.814 88.9102 137.221 88.5056 137.221 88.0065C137.221 87.5074 136.814 87.1028 136.313 87.1028L133.855 87.1028C133.353 87.1028 132.947 87.5074 132.947 88.0065Z" fill="#51C8B4"/>
<path d="M126.328 88.0065C126.328 88.5056 126.734 88.9102 127.236 88.9102L129.694 88.9102C130.195 88.9102 130.602 88.5056 130.602 88.0065C130.602 87.5074 130.195 87.1028 129.694 87.1028L127.236 87.1028C126.734 87.1028 126.328 87.5074 126.328 88.0065Z" fill="#51C8B4"/>
<path d="M130.866 83.4815L130.866 85.9284C130.866 86.4275 131.272 86.832 131.774 86.832C132.275 86.832 132.682 86.4275 132.682 85.9284L132.682 83.4815C132.682 82.9824 132.275 82.5778 131.774 82.5778C131.272 82.5778 130.866 82.9824 130.866 83.4815Z" fill="#51C8B4"/>
<path d="M130.866 90.0733L130.866 92.5202C130.866 93.0192 131.272 93.4238 131.774 93.4238C132.275 93.4238 132.682 93.0192 132.682 92.5202L132.682 90.0733C132.682 89.5742 132.275 89.1696 131.774 89.1696C131.272 89.1696 130.866 89.5742 130.866 90.0733Z" fill="#51C8B4"/>
<path d="M159.695 49.3053C159.695 49.8044 160.101 50.209 160.603 50.209L163.061 50.209C163.562 50.209 163.969 49.8044 163.969 49.3053C163.969 48.8062 163.562 48.4017 163.061 48.4017L160.603 48.4017C160.102 48.4017 159.695 48.8061 159.695 49.3053Z" fill="#FFD4B3"/>
<path d="M153.078 49.3073C153.078 49.8064 153.484 50.2109 153.986 50.2109L156.444 50.2109C156.945 50.2109 157.352 49.8064 157.352 49.3073C157.352 48.8082 156.945 48.4036 156.444 48.4036L153.986 48.4036C153.484 48.4036 153.078 48.8081 153.078 49.3073Z" fill="#FFD4B3"/>
<path d="M157.614 44.7979L157.614 47.2448C157.614 47.7439 158.02 48.1484 158.522 48.1484C159.023 48.1484 159.43 47.7439 159.43 47.2448L159.43 44.7979C159.43 44.2988 159.023 43.8942 158.522 43.8942C158.02 43.8942 157.614 44.2988 157.614 44.7979Z" fill="#FFD4B3"/>
<path d="M157.614 51.3799L157.614 53.8268C157.614 54.3259 158.02 54.7305 158.522 54.7305C159.023 54.7305 159.43 54.3259 159.43 53.8268L159.43 51.3799C159.43 50.8808 159.023 50.4762 158.522 50.4762C158.02 50.4762 157.614 50.8808 157.614 51.3799Z" fill="#FFD4B3"/>
<path d="M147.653 63.8998L148.383 60.3176C148.727 58.6266 151.155 58.6266 151.5 60.3176L152.229 63.8998C152.948 67.4298 155.72 70.1886 159.266 70.9043L162.865 71.6305C164.563 71.9735 164.563 74.3903 162.865 74.7332L159.266 75.4595C155.72 76.1752 152.948 78.934 152.229 82.464L151.5 86.0462C151.155 87.7372 148.727 87.7372 148.383 86.0462L147.653 82.464C146.934 78.934 144.163 76.1752 140.616 75.4595L137.018 74.7332C135.319 74.3903 135.319 71.9735 137.018 71.6305L140.616 70.9043C144.163 70.1887 146.934 67.4298 147.653 63.8998Z" fill="#51C8B4"/>
<path d="M135.132 38.4341L135.693 35.6831C135.957 34.3843 137.822 34.3843 138.086 35.6831L138.647 38.4341C139.199 41.1451 141.327 43.2637 144.051 43.8134L146.814 44.3712C148.119 44.6344 148.119 46.4907 146.814 46.7538L144.051 47.3116C141.327 47.8614 139.199 49.9799 138.647 52.6909L138.086 55.4419C137.822 56.7407 135.957 56.7407 135.693 55.4419L135.132 52.6909C134.58 49.9799 132.452 47.8613 129.728 47.3116L126.965 46.7538C125.66 46.4906 125.66 44.6343 126.965 44.3712L129.728 43.8134C132.452 43.2636 134.58 41.1448 135.132 38.4341Z" fill="#51C8B4"/>
<path d="M147.781 132.168L154.121 125.857L160.461 132.168L166.801 125.857L173.141 132.168L179.481 125.857" stroke="#FFD4B3" stroke-width="7.76724" stroke-linecap="round" stroke-linejoin="round"/>
<defs>
<filter id="filter0_d_21482_87848" x="58.0312" y="0" width="157.469" height="140.707" filterUnits="userSpaceOnUse" color-interpolation-filters="sRGB">
<feFlood flood-opacity="0" result="BackgroundImageFix"/>
<feColorMatrix in="SourceAlpha" type="matrix" values="0 0 0 0 0 0 0 0 0 0 0 0 0 0 0 0 0 0 127 0" result="hardAlpha"/>
<feOffset dy="4"/>
<feGaussianBlur stdDeviation="12.5"/>
<feColorMatrix type="matrix" values="0 0 0 0 0 0 0 0 0 0 0 0 0 0 0 0 0 0 0.1 0"/>
<feBlend mode="normal" in2="BackgroundImageFix" result="effect1_dropShadow_21482_87848"/>
<feBlend mode="normal" in="SourceGraphic" in2="effect1_dropShadow_21482_87848" result="shape"/>
</filter>
</defs>
</svg>
