<svg width="26" height="16" viewBox="0 0 26 16" fill="none" xmlns="http://www.w3.org/2000/svg">
<path d="M25.3264 9.29639H16.7781C16.7781 9.29639 16.7617 11.1083 16.2833 11.413C15.8049 11.7177 15.2545 12.3108 14.7204 12.1797C14.1863 12.0487 13.459 11.8914 13.2722 11.6162C13.0854 11.3409 12.4269 10.2105 12.4269 10.2105C12.4269 10.2105 10.6739 10.8658 10.4282 11.934C10.4544 12.3108 10.6314 12.3534 10.6314 12.3534L21.7714 12.3108C21.7714 12.3108 24.0027 12.3566 25.3362 9.29639" fill="white"/>
<path d="M21.4139 12.0083H16.1256C16.664 11.5748 16.9786 10.9204 16.9808 10.2292V9.54114H25.0475C24.4526 11.0234 23.011 12.0022 21.4139 12.0083ZM10.7456 12.0083C10.8863 11.1892 11.5954 10.5796 12.4265 10.5634C12.5136 11.1327 12.812 11.6488 13.262 12.0083H10.7456ZM21.4139 1.09516e-05H14.72C12.3704 -0.00520636 10.402 1.85435 10.2738 4.20049V4.39706C10.1424 6.20801 8.61576 7.6279 6.80004 7.6279C5.16154 7.6279 3.73373 6.47162 3.39319 4.8689H6.49602V2.29686C6.48582 1.28846 5.65338 0.464396 4.64493 0.464396C3.88815 0.464396 3.20427 0.928463 2.92468 1.6317C2.62309 1.28704 2.18675 1.08905 1.72873 1.08905C0.856982 1.08905 0.139648 1.80639 0.139648 2.67814C0.139648 2.67992 0.139648 2.68171 0.139648 2.68345V4.8787H2.79686V8.09951C2.80048 10.5313 4.80145 12.5308 7.23322 12.5326H21.4139C21.4161 12.5326 21.4183 12.5326 21.4204 12.5326C23.8535 12.5326 25.8565 10.5325 25.8601 8.09951V4.43637C25.8583 2.00213 23.8547 1.09516e-05 21.4204 1.09516e-05C21.4193 1.09516e-05 21.4182 1.09516e-05 21.4172 1.09516e-05" fill="#0069FF"/>
<path d="M4.6411 0.962165C5.37083 0.962165 5.97133 1.56266 5.97133 2.29244V4.35332H3.31741V2.29244C3.31906 1.57067 3.90637 0.974567 4.62801 0.962165H4.6411ZM0.660156 4.35332V2.67902C0.660156 2.09487 1.14088 1.61419 1.72504 1.61419C2.30919 1.61419 2.78987 2.09487 2.78987 2.67902V4.35332H0.660156ZM3.32066 8.09509V6.19142C4.03415 7.43181 5.3604 8.19894 6.79132 8.19894C8.89604 8.19894 10.6598 6.53933 10.7878 4.43854V4.219C10.9091 2.1529 12.65 0.522263 14.7196 0.536222H21.4134C23.5494 0.546794 25.306 2.2961 25.3255 4.43195V8.09509C25.3213 8.40676 25.2806 8.71682 25.2043 9.01906H16.4561V10.2314C16.4563 10.2417 16.4564 10.2521 16.4564 10.2625C16.4564 11.2314 15.659 12.0288 14.6901 12.0288C13.7329 12.0288 12.9409 11.2506 12.924 10.2936V10.038H12.426C11.3202 10.0758 10.3915 10.9087 10.2341 12.0039H7.23277C5.09194 11.9932 3.33316 10.2359 3.32066 8.09509Z" fill="#85B8FF"/>
<path d="M18.5043 7.35141C18.5055 7.36281 18.506 7.3743 18.506 7.38578C18.506 7.57814 18.3478 7.73644 18.1554 7.73644C17.976 7.73644 17.8241 7.59873 17.8065 7.4202C17.8032 7.39736 17.8032 7.3742 17.8065 7.35141C17.8238 7.17265 17.9758 7.03467 18.1554 7.03467C18.335 7.03467 18.487 7.17265 18.5043 7.35141ZM16.8333 9.54991C15.982 9.54813 15.2821 8.84814 15.2803 7.99685H15.8012C15.8031 8.56238 16.2678 9.02717 16.8333 9.02896V9.54991Z" fill="#0069FF"/>
<path d="M0.139648 15.9625V15.677L0.392551 15.628V13.923L0.139648 13.874V13.5869H1.19528C1.47482 13.5869 1.69294 13.6413 1.84955 13.7501C2.00621 13.8589 2.08451 14.0215 2.08451 14.2379C2.08451 14.3478 2.05541 14.4459 1.99724 14.5324C1.93902 14.6189 1.85445 14.6839 1.74351 14.7274C1.83816 14.748 1.91729 14.7845 1.9809 14.8367C2.04451 14.8889 2.09211 14.9523 2.12364 15.0268C2.15522 15.1013 2.17097 15.1826 2.17097 15.2707C2.17097 15.4981 2.09591 15.6702 1.94584 15.7871C1.79573 15.904 1.58306 15.9625 1.30787 15.9625H0.139648ZM0.868973 15.597H1.30787C1.43404 15.597 1.53029 15.5696 1.59665 15.5146C1.66301 15.4597 1.69619 15.3784 1.69619 15.2707C1.69619 15.1924 1.6837 15.1266 1.65866 15.0733C1.63363 15.02 1.59532 14.9798 1.54365 14.9526C1.49198 14.9253 1.42535 14.9117 1.34375 14.9117H0.868973V15.597ZM0.868973 14.5822H1.21162C1.33885 14.5822 1.43674 14.5561 1.5053 14.5039C1.57381 14.4517 1.60809 14.3755 1.60809 14.2754C1.60809 14.1656 1.57354 14.0845 1.50448 14.0323C1.43542 13.9801 1.33235 13.954 1.19528 13.954H0.868973V14.5822Z" fill="#4F6588"/>
<path d="M2.34377 15.966V15.6805L2.57219 15.6315V14.5367L2.31934 14.4878V14.2006H3.01598L3.03397 14.4192L3.03722 14.4584C3.08074 14.3627 3.13456 14.2903 3.19873 14.2414C3.26294 14.1925 3.33959 14.168 3.42879 14.168C3.45708 14.168 3.48806 14.1704 3.52179 14.1753C3.55552 14.1802 3.58545 14.1865 3.61153 14.1941L3.56096 14.633L3.32435 14.6199C3.25694 14.6167 3.2023 14.6281 3.16042 14.6542C3.11855 14.6803 3.08129 14.7178 3.04861 14.7668V15.6315L3.27708 15.6805V15.966H2.34377Z" fill="#4F6588"/>
<path d="M4.51395 16.0003C4.34535 16.0003 4.19798 15.963 4.07181 15.8885C3.94563 15.814 3.84797 15.7115 3.77891 15.581C3.70985 15.4504 3.67529 15.3014 3.67529 15.1339V15.0686C3.67529 14.8935 3.70792 14.7382 3.77319 14.6028C3.83849 14.4674 3.93067 14.3608 4.04975 14.283C4.16888 14.2052 4.30947 14.1669 4.47153 14.168C4.63143 14.168 4.76576 14.1995 4.87454 14.2626C4.98333 14.3257 5.06598 14.4165 5.12255 14.5351C5.17911 14.6537 5.2074 14.7973 5.2074 14.9658V15.2253H4.1697L4.16641 15.2351C4.17295 15.3123 4.19226 15.3811 4.22435 15.4415C4.25643 15.5018 4.30183 15.5492 4.36059 15.5834C4.41931 15.6177 4.49057 15.6348 4.57432 15.6348C4.66132 15.6348 4.74264 15.6237 4.81825 15.6013C4.89385 15.579 4.96754 15.5461 5.03934 15.5027L5.16822 15.7963C5.09536 15.8551 5.00369 15.9038 4.8933 15.9423C4.78287 15.981 4.65642 16.0003 4.51395 16.0003ZM4.17295 14.9104H4.76196V14.8679C4.76196 14.7962 4.75244 14.7344 4.7334 14.6828C4.71436 14.6311 4.68393 14.5911 4.64205 14.5629C4.60017 14.5346 4.54603 14.5204 4.47967 14.5204C4.41661 14.5204 4.36329 14.537 4.31981 14.5702C4.27629 14.6034 4.24229 14.6488 4.2178 14.7064C4.19336 14.7641 4.17675 14.8294 4.16805 14.9022L4.17295 14.9104Z" fill="#4F6588"/>
<path d="M6.14047 15.9965C6.00015 15.9965 5.8797 15.9604 5.77906 15.888C5.67846 15.8157 5.60149 15.7145 5.54821 15.5846C5.4949 15.4546 5.46826 15.3026 5.46826 15.1285V15.0943C5.46826 14.9083 5.49517 14.7457 5.54899 14.6064C5.60286 14.4672 5.67979 14.3587 5.77988 14.2809C5.87997 14.2032 5.9996 14.1643 6.13882 14.1643C6.23562 14.1643 6.32047 14.1836 6.39337 14.2222C6.46623 14.2608 6.52934 14.3155 6.58261 14.3862V13.7531L6.32811 13.7042V13.417H7.05904V15.6278L7.28745 15.6768V15.9623H6.64627L6.61035 15.7469C6.55488 15.8285 6.48879 15.8905 6.41214 15.9329C6.33543 15.9753 6.24491 15.9965 6.14047 15.9965ZM6.28239 15.6262C6.34875 15.6262 6.40696 15.612 6.45699 15.5837C6.50701 15.5554 6.54888 15.5147 6.58261 15.4614V14.7125C6.54998 14.6559 6.50866 14.6121 6.45863 14.5811C6.40857 14.5502 6.35095 14.5346 6.28569 14.5346C6.20628 14.5346 6.14129 14.5583 6.09072 14.6056C6.04011 14.6529 6.00313 14.7185 5.97974 14.8022C5.95635 14.886 5.94468 14.9833 5.94468 15.0943V15.1285C5.94468 15.283 5.97077 15.4046 6.02299 15.4932C6.07521 15.5819 6.16166 15.6262 6.28239 15.6262Z" fill="#4F6588"/>
<path d="M8.48202 15.9965C8.37323 15.9965 8.28023 15.9751 8.20303 15.9321C8.12577 15.8891 8.06106 15.8268 8.00884 15.7453L7.97456 15.9623H7.5634V13.7531L7.31055 13.7042V13.417H8.03823V14.3845C8.08935 14.3138 8.15214 14.2594 8.22664 14.2214C8.3012 14.1833 8.38792 14.1643 8.48691 14.1643C8.62938 14.1643 8.75039 14.2026 8.84993 14.2793C8.94947 14.356 9.02535 14.4639 9.07752 14.6032C9.12974 14.7424 9.15587 14.9061 9.15587 15.0943V15.1285C9.15587 15.3036 9.12974 15.4562 9.07752 15.5862C9.02535 15.7162 8.94919 15.817 8.8491 15.8888C8.74906 15.9607 8.62668 15.9965 8.48202 15.9965ZM8.33845 15.6262C8.46023 15.6262 8.54783 15.583 8.6011 15.4965C8.65442 15.41 8.68105 15.2873 8.68105 15.1285V15.0943C8.68105 14.979 8.66938 14.8797 8.646 14.7965C8.62261 14.7133 8.58618 14.6488 8.53666 14.6032C8.48719 14.5575 8.42275 14.5346 8.34335 14.5346C8.27154 14.5346 8.21008 14.5515 8.15896 14.5852C8.10784 14.6189 8.06761 14.6646 8.03823 14.7223V15.4597C8.07086 15.5141 8.11246 15.5554 8.16303 15.5837C8.2136 15.612 8.27209 15.6262 8.33845 15.6262Z" fill="#4F6588"/>
<path d="M9.90816 16.0003C9.73302 16.0003 9.5938 15.9532 9.49046 15.8591C9.38712 15.765 9.33545 15.637 9.33545 15.4749C9.33545 15.3639 9.36565 15.2666 9.42602 15.1828C9.48639 15.0991 9.57558 15.0333 9.69361 14.9854C9.8116 14.9375 9.95709 14.9136 10.13 14.9136H10.3634V14.7831C10.3634 14.6983 10.3386 14.6294 10.2891 14.5767C10.2396 14.5239 10.1654 14.4976 10.0664 14.4976C10.0153 14.4976 9.96935 14.5038 9.92853 14.5163C9.88775 14.5288 9.85105 14.5465 9.81842 14.5693L9.78089 14.8027H9.43824L9.43174 14.3442C9.52419 14.292 9.62423 14.2496 9.73192 14.2169C9.83961 14.1843 9.95983 14.168 10.0925 14.168C10.3231 14.168 10.5053 14.2216 10.6391 14.3287C10.7729 14.4358 10.8398 14.5889 10.8398 14.788V15.5157C10.8398 15.5396 10.84 15.5633 10.8406 15.5867C10.8411 15.6101 10.8431 15.6326 10.8463 15.6544L11.0307 15.6805V15.966H10.4401C10.4281 15.9355 10.4161 15.9029 10.4042 15.8681C10.3922 15.8333 10.3835 15.7985 10.378 15.7637C10.3215 15.8354 10.2548 15.8928 10.1782 15.9358C10.1015 15.9788 10.0115 16.0003 9.90816 16.0003ZM10.0354 15.6478C10.1018 15.6478 10.1649 15.6329 10.2247 15.603C10.2845 15.5731 10.3307 15.5336 10.3634 15.4847V15.2057H10.1284C10.024 15.2057 9.94487 15.2296 9.891 15.2775C9.83718 15.3253 9.81027 15.383 9.81027 15.4504C9.81027 15.5135 9.83009 15.5622 9.86981 15.5964C9.90949 15.6307 9.96473 15.6478 10.0354 15.6478Z" fill="#4F6588"/>
<path d="M11.1466 15.966V15.6805L11.375 15.6315V14.5367L11.1221 14.4878V14.2006H11.8188L11.84 14.4535C11.8987 14.3632 11.9713 14.293 12.0578 14.243C12.1443 14.193 12.243 14.168 12.3539 14.168C12.529 14.168 12.6661 14.224 12.7651 14.336C12.8641 14.4481 12.9136 14.6238 12.9136 14.863V15.6315L13.142 15.6805V15.966H12.2315V15.6805L12.4355 15.6315V14.8647C12.4355 14.7461 12.4121 14.6621 12.3653 14.6126C12.3186 14.5631 12.249 14.5384 12.1565 14.5384C12.088 14.5384 12.0284 14.5528 11.9778 14.5816C11.9273 14.6104 11.8851 14.6515 11.8514 14.7048V15.6315L12.0439 15.6805V15.966H11.1466Z" fill="#4F6588"/>
<path d="M14.0179 15.9965C13.8776 15.9965 13.7571 15.9604 13.6565 15.888C13.5559 15.8157 13.4789 15.7145 13.4257 15.5846C13.3723 15.4546 13.3457 15.3026 13.3457 15.1285V15.0943C13.3457 14.9083 13.3726 14.7457 13.4265 14.6064C13.4803 14.4672 13.5573 14.3587 13.6573 14.2809C13.7574 14.2032 13.877 14.1643 14.0163 14.1643C14.1131 14.1643 14.198 14.1836 14.2708 14.2222C14.3437 14.2608 14.4068 14.3155 14.4601 14.3862V13.7531L14.2056 13.7042V13.417H14.9365V15.6278L15.1649 15.6768V15.9623H14.5237L14.4878 15.7469C14.4323 15.8285 14.3663 15.8905 14.2896 15.9329C14.2129 15.9753 14.1224 15.9965 14.0179 15.9965ZM14.1599 15.6262C14.2262 15.6262 14.2844 15.612 14.3344 15.5837C14.3845 15.5554 14.4264 15.5147 14.4601 15.4614V14.7125C14.4275 14.6559 14.3861 14.6121 14.3361 14.5811C14.2861 14.5502 14.2284 14.5346 14.1631 14.5346C14.0837 14.5346 14.0187 14.5583 13.9682 14.6056C13.9176 14.6529 13.8806 14.7185 13.8572 14.8022C13.8338 14.886 13.8221 14.9833 13.8221 15.0943V15.1285C13.8221 15.283 13.8482 15.4046 13.9004 15.4932C13.9526 15.5819 14.0391 15.6262 14.1599 15.6262Z" fill="#4F6588"/>
<path d="M16.0832 15.997C15.9516 15.997 15.829 15.9845 15.7153 15.9595C15.6017 15.9344 15.4926 15.8986 15.3882 15.8518L15.3833 15.3525H15.7145L15.7781 15.6071C15.8151 15.6256 15.8557 15.6402 15.8997 15.6511C15.9437 15.662 15.994 15.6674 16.0506 15.6674C16.1572 15.6674 16.2323 15.65 16.2758 15.6152C16.3193 15.5804 16.341 15.5369 16.341 15.4847C16.341 15.4357 16.3179 15.3925 16.2717 15.355C16.2255 15.3175 16.1333 15.2846 15.9951 15.2563C15.7863 15.2128 15.6324 15.1453 15.5334 15.054C15.4344 14.9626 15.3849 14.8456 15.3849 14.7032C15.3849 14.6053 15.4097 14.5161 15.4592 14.4356C15.5087 14.3551 15.5843 14.2903 15.6859 14.2414C15.7876 14.1925 15.9179 14.168 16.0767 14.168C16.2094 14.168 16.331 14.1808 16.4414 14.2063C16.5518 14.2319 16.6445 14.2654 16.7196 14.3067L16.7245 14.7896H16.3949L16.3443 14.5579C16.315 14.5362 16.2804 14.5199 16.2407 14.509C16.201 14.4981 16.1562 14.4927 16.1061 14.4927C16.0223 14.4927 15.9582 14.5095 15.9135 14.5432C15.869 14.577 15.8467 14.6205 15.8467 14.6738C15.8467 14.7043 15.8546 14.7325 15.8703 14.7586C15.8861 14.7848 15.9174 14.8092 15.9642 14.832C16.0109 14.8549 16.0789 14.8767 16.1681 14.8973C16.3867 14.9474 16.5461 15.014 16.6462 15.0972C16.7462 15.1804 16.7963 15.2971 16.7963 15.4472C16.7963 15.6114 16.7367 15.7441 16.6176 15.8453C16.4985 15.9464 16.3204 15.997 16.0832 15.997Z" fill="#4F6588"/>
<path d="M17.6512 15.9602L17.1176 14.5113L16.9268 14.482V14.1948H17.7833V14.4804L17.5973 14.513L17.8633 15.3141L17.904 15.4511H17.9138L17.9596 15.3141L18.2516 14.5146L18.0346 14.4804V14.1948H18.8896V14.482L18.6937 14.5146L18.1358 15.9602H17.6512Z" fill="#4F6588"/>
<path d="M19.5277 16.0003C19.3526 16.0003 19.2134 15.9532 19.11 15.8591C19.0067 15.765 18.9551 15.637 18.9551 15.4749C18.9551 15.3639 18.9852 15.2666 19.0456 15.1828C19.106 15.0991 19.1952 15.0333 19.3132 14.9854C19.4312 14.9375 19.5767 14.9136 19.7497 14.9136H19.983V14.7831C19.983 14.6983 19.9582 14.6294 19.9087 14.5767C19.8592 14.5239 19.785 14.4976 19.686 14.4976C19.6349 14.4976 19.5889 14.5038 19.5482 14.5163C19.5073 14.5288 19.4706 14.5465 19.438 14.5693L19.4005 14.8027H19.0579L19.0513 14.3442C19.1438 14.292 19.2439 14.2496 19.3515 14.2169C19.4592 14.1843 19.5794 14.168 19.7121 14.168C19.9427 14.168 20.1249 14.2216 20.2587 14.3287C20.3925 14.4358 20.4594 14.5889 20.4594 14.788V15.5157C20.4594 15.5396 20.4597 15.5633 20.4602 15.5867C20.4607 15.6101 20.4627 15.6326 20.4659 15.6544L20.6503 15.6805V15.966H20.0596C20.0477 15.9355 20.0357 15.9029 20.0238 15.8681C20.0118 15.8333 20.0031 15.7985 19.9977 15.7637C19.9411 15.8354 19.8745 15.8928 19.7978 15.9358C19.7211 15.9788 19.6311 16.0003 19.5277 16.0003ZM19.655 15.6478C19.7214 15.6478 19.7844 15.6329 19.8443 15.603C19.9041 15.5731 19.9503 15.5336 19.983 15.4847V15.2057H19.748C19.6436 15.2057 19.5645 15.2296 19.5106 15.2775C19.4568 15.3253 19.4299 15.383 19.4299 15.4504C19.4299 15.5135 19.4497 15.5622 19.4894 15.5964C19.5291 15.6307 19.5843 15.6478 19.655 15.6478Z" fill="#4F6588"/>
<path d="M20.7584 15.9623V15.6768L20.9884 15.6278V13.7531L20.7339 13.7042V13.417H21.4649V15.6278L21.6949 15.6768V15.9623H20.7584Z" fill="#4F6588"/>
<path d="M22.4318 15.5444H21.957V15.9621H22.4318V15.5444Z" fill="#4F6588"/>
<path d="M23.4109 15.997C23.2793 15.997 23.1567 15.9845 23.043 15.9595C22.9293 15.9344 22.8202 15.8986 22.7158 15.8518L22.7109 15.3525H23.0421L23.1058 15.6071C23.1427 15.6256 23.1833 15.6402 23.2273 15.6511C23.2714 15.662 23.3217 15.6674 23.3782 15.6674C23.4848 15.6674 23.5599 15.65 23.6034 15.6152C23.6469 15.5804 23.6687 15.5369 23.6687 15.4847C23.6687 15.4357 23.6456 15.3925 23.5993 15.355C23.5531 15.3175 23.4609 15.2846 23.3228 15.2563C23.114 15.2128 22.96 15.1453 22.8611 15.054C22.7621 14.9626 22.7126 14.8456 22.7126 14.7032C22.7126 14.6053 22.7373 14.5161 22.7868 14.4356C22.8363 14.3551 22.9119 14.2903 23.0136 14.2414C23.1153 14.1925 23.2455 14.168 23.4044 14.168C23.5371 14.168 23.6586 14.1808 23.769 14.2063C23.8794 14.2319 23.9722 14.2654 24.0472 14.3067L24.0521 14.7896H23.7225L23.6719 14.5579C23.6426 14.5362 23.608 14.5199 23.5683 14.509C23.5286 14.4981 23.4838 14.4927 23.4337 14.4927C23.35 14.4927 23.2858 14.5095 23.2412 14.5432C23.1966 14.577 23.1743 14.6205 23.1743 14.6738C23.1743 14.7043 23.1822 14.7325 23.198 14.7586C23.2137 14.7848 23.245 14.8092 23.2918 14.832C23.3386 14.8549 23.4065 14.8767 23.4957 14.8973C23.7144 14.9474 23.8737 15.014 23.9738 15.0972C24.0738 15.1804 24.1239 15.2971 24.1239 15.4472C24.1239 15.6114 24.0643 15.7441 23.9452 15.8453C23.8261 15.9464 23.648 15.997 23.4109 15.997Z" fill="#4F6588"/>
<path d="M25.1667 16.0003C24.9981 16.0003 24.8508 15.963 24.7246 15.8885C24.5984 15.814 24.5008 15.7115 24.4317 15.581C24.3626 15.4504 24.3281 15.3014 24.3281 15.1339V15.0686C24.3281 14.8935 24.3608 14.7382 24.426 14.6028C24.4913 14.4674 24.5835 14.3608 24.7026 14.283C24.8217 14.2052 24.9623 14.1669 25.1243 14.168C25.2842 14.168 25.4186 14.1995 25.5273 14.2626C25.6361 14.3257 25.7188 14.4165 25.7753 14.5351C25.8319 14.6537 25.8602 14.7973 25.8602 14.9658V15.2253H24.8225L24.8192 15.2351C24.8257 15.3123 24.845 15.3811 24.8771 15.4415C24.9093 15.5018 24.9547 15.5492 25.0134 15.5834C25.0721 15.6177 25.1434 15.6348 25.2271 15.6348C25.3142 15.6348 25.3954 15.6237 25.471 15.6013C25.5466 15.579 25.6203 15.5461 25.6921 15.5027L25.821 15.7963C25.7481 15.8551 25.6565 15.9038 25.5461 15.9423C25.4357 15.981 25.3093 16.0003 25.1667 16.0003ZM24.8257 14.9104H25.4147V14.8679C25.4147 14.7962 25.4052 14.7344 25.3862 14.6828C25.3672 14.6311 25.3367 14.5911 25.2948 14.5629C25.253 14.5346 25.1989 14.5204 25.1325 14.5204C25.0694 14.5204 25.0161 14.537 24.9726 14.5702C24.9291 14.6034 24.8951 14.6488 24.8706 14.7064C24.8461 14.7641 24.8296 14.8294 24.8208 14.9022L24.8257 14.9104Z" fill="#4F6588"/>
</svg>
