<svg width="32" height="32" viewBox="0 0 32 32" fill="none" xmlns="http://www.w3.org/2000/svg">
<g id="Activity icons - paths" clip-path="url(#clip0_25016_189166)">
<g id="Group 759">
<path id="Vector 147" d="M11.4616 18.9768C9.18545 21.285 4.66026 19.6504 4.66026 19.6504C5.55155 22.9118 6.657 24.647 10.2146 26.005L9.84266 27.8016C13.0097 28.9037 14.8618 28.8336 17.6008 27.5342C20.786 26.0231 22.8745 22.1724 23.0469 20.3345C23.1732 18.987 22.2934 18.2329 21.0707 17.6183C21.0707 17.6183 21.8846 15.893 21.0105 15.0875L28.6389 3.38036C29.3168 2.11698 28.1094 1.86699 27.5238 2.73314C26.9382 3.59928 19.8954 14.4403 19.8954 14.4403C18.6976 14.1923 17.7758 15.2877 17.7758 15.2877C17.7758 15.2877 16.2228 14.5749 15.0486 14.7231C13.55 14.9121 12.5222 17.9012 11.4616 18.9768Z" stroke="#214766"/>
<line id="Line 13" x1="13.2933" y1="17.0605" x2="21.7321" y2="22.5549" stroke="#214766"/>
<path id="Line 14" d="M16.1846 19.092C14.8263 21.0822 14.3533 21.6838 12.0909 22.4746" stroke="#214766" stroke-linecap="round"/>
<path id="Line 15" d="M18.8373 20.5577C17.8919 22.8367 16.3513 24.1966 14.089 24.9873" stroke="#214766" stroke-linecap="round"/>
</g>
</g>
<defs>
<clipPath id="clip0_25016_189166">
<rect width="32" height="32" fill="white"/>
</clipPath>
</defs>
</svg>
