<svg width="60" height="61" viewBox="0 0 60 61" fill="none" xmlns="http://www.w3.org/2000/svg">
    <circle cx="30" cy="30.1263" r="30" fill="#FFA65F"/>
    <g clip-path="url(#clip0_10550_8288)">
        <path fill-rule="evenodd" clip-rule="evenodd" d="M21.8333 28.6819C23.9074 32.83 27.463 36.2375 31.6111 38.4597L34.8704 35.2004C35.3148 34.756 35.9074 34.6078 36.3519 34.9041C37.9815 35.4967 39.7593 35.793 41.6852 35.793C42.5741 35.793 43.1667 36.3856 43.1667 37.2745V42.3115C43.1667 43.2004 42.5741 43.793 41.6852 43.793C27.7593 43.793 16.5 32.5337 16.5 18.6078C16.5 17.7189 17.0926 17.1263 17.9815 17.1263H23.1667C24.0556 17.1263 24.6481 17.7189 24.6481 18.6078C24.6481 20.3856 24.9444 22.1634 25.537 23.9412C25.6852 24.3856 25.537 24.9782 25.2407 25.4226L21.8333 28.6819Z" fill="white"/>
    </g>
    <defs>
        <clipPath id="clip0_10550_8288">
            <rect width="26.6667" height="26.6667" fill="white" transform="translate(16.5 17.1263)"/>
        </clipPath>
    </defs>
</svg>
