<svg width="53" height="52" viewBox="0 0 53 52" fill="none" xmlns="http://www.w3.org/2000/svg">
<path d="M22.5038 43.571C21.1429 32.9754 19.6178 30.313 16.1457 27.2811C12.9958 24.5309 9.29543 21.9483 7.34039 24.1978C5.38558 26.447 7.1204 27.3508 12.6689 33.3858" stroke="white" stroke-width="1.5" stroke-miterlimit="1.5" stroke-linecap="round" stroke-linejoin="round"/>
<path d="M6.57587 25.9752C5.63962 10.6314 5.22398 7.1539 2.31981 8.35451C0.094909 9.27429 0.691159 10.7417 1.85717 30.7087C2.05449 34.0879 12.8943 43.9567 13.3076 45.8814" stroke="white" stroke-width="1.5" stroke-miterlimit="1.5" stroke-linecap="round" stroke-linejoin="round"/>
<path fill-rule="evenodd" clip-rule="evenodd" d="M11.4792 46.8305C15.9593 46.935 20.2113 45.8306 24.2458 43.572L26.1142 47.7162C22.1311 49.6832 17.6539 50.8788 12.2564 50.6371L11.4792 46.8305Z" stroke="white" stroke-width="1.5" stroke-miterlimit="1.5" stroke-linecap="round" stroke-linejoin="round"/>
<path d="M22.5038 43.571C21.1429 32.9754 19.6178 30.313 16.1457 27.2811C12.9958 24.5309 9.29543 21.9483 7.34039 24.1978C5.38558 26.447 7.1204 27.3508 12.6689 33.3858" stroke="white" stroke-width="1.5" stroke-miterlimit="1.5" stroke-linecap="round" stroke-linejoin="round"/>
<path d="M30.4901 43.571C31.851 32.9754 33.3761 30.313 36.8482 27.2811C39.9981 24.5309 43.6985 21.9483 45.6535 24.1978C47.6083 26.447 45.8735 27.3508 40.325 33.3858" stroke="white" stroke-width="1.5" stroke-miterlimit="1.5" stroke-linecap="round" stroke-linejoin="round"/>
<path d="M6.57587 25.9752C5.63962 10.6314 5.22398 7.1539 2.31981 8.35451C0.094909 9.27429 0.691159 10.7417 1.85717 30.7087C2.05449 34.0879 12.8943 43.9567 13.3076 45.8814" stroke="white" stroke-width="1.5" stroke-miterlimit="1.5" stroke-linecap="round" stroke-linejoin="round"/>
<path d="M46.4241 25.9752C47.3604 10.6314 47.776 7.1539 50.6802 8.35451C52.9051 9.27429 52.3088 10.7417 51.1428 30.7087C50.9455 34.0879 40.1057 43.9567 39.6924 45.8814" stroke="white" stroke-width="1.5" stroke-miterlimit="1.5" stroke-linecap="round" stroke-linejoin="round"/>
<path fill-rule="evenodd" clip-rule="evenodd" d="M11.4792 46.8305C15.9593 46.935 20.2113 45.8306 24.2458 43.572L26.1142 47.7162C22.1311 49.6832 17.6539 50.8788 12.2564 50.6371L11.4792 46.8305Z" stroke="white" stroke-width="1.5" stroke-miterlimit="1.5" stroke-linecap="round" stroke-linejoin="round"/>
<path fill-rule="evenodd" clip-rule="evenodd" d="M41.5208 46.8305C37.0407 46.935 32.7887 45.8306 28.7542 43.572L26.8858 47.7162C30.8689 49.6832 35.3461 50.8788 40.7436 50.6371L41.5208 46.8305Z" stroke="white" stroke-width="1.5" stroke-miterlimit="1.5" stroke-linecap="round" stroke-linejoin="round"/>
<path d="M25.4695 15.4149C24.6582 13.9003 24.1318 12.2413 24.1318 10.4865C24.1318 3.7111 34.1219 4.31737 34.1219 10.4865L34.1222 10.4502C34.162 4.31499 44.1123 3.7247 44.1123 10.4865C44.1123 18.1306 34.1219 23.954 34.1219 23.954L34.0933 23.937C33.862 23.7994 32.2559 22.8252 30.3984 21.24" stroke="white" stroke-width="1.5" stroke-miterlimit="1.5" stroke-linecap="round" stroke-linejoin="round"/>
<path fill-rule="evenodd" clip-rule="evenodd" d="M16.7706 11.0146C16.4598 10.8295 11.4792 7.80368 11.4792 3.86989C11.4792 0.270952 16.7858 0.592989 16.7858 3.86989L16.7859 3.85063C16.8071 0.591722 22.0925 0.278176 22.0925 3.86989C22.0925 7.93029 16.7858 11.0235 16.7858 11.0235L16.7706 11.0146Z" stroke="white" stroke-width="1.5" stroke-miterlimit="1.5" stroke-linecap="round" stroke-linejoin="round"/>
<path fill-rule="evenodd" clip-rule="evenodd" d="M23.2243 28.5186C22.8055 28.2693 16.0935 24.1916 16.0935 18.8903C16.0935 14.0402 23.2448 14.4742 23.2448 18.8903L23.2449 18.8643C23.2734 14.4725 30.3962 14.05 30.3962 18.8903C30.3962 24.3622 23.2448 28.5308 23.2448 28.5308L23.2243 28.5186Z" stroke="white" stroke-width="1.5" stroke-miterlimit="1.5" stroke-linecap="round" stroke-linejoin="round"/>
</svg>
