<svg width="54" height="54" viewBox="0 0 54 54" fill="none" xmlns="http://www.w3.org/2000/svg">
<path fill-rule="evenodd" clip-rule="evenodd" d="M15.6431 44.4479C15.1396 44.5477 14.6345 44.6391 14.128 44.722C13.703 44.79 13.38 44.348 13.5479 43.9527C13.7366 43.5078 13.9095 43.0563 14.0664 42.5991L14.0727 42.5779C14.5997 41.0479 15.029 39.2884 15.1863 37.65C12.5789 35.0363 11 31.615 11 27.875C11 19.6597 18.6117 13 28 13C37.3883 13 45 19.6597 45 27.875C45 36.0903 37.3883 42.75 28 42.75C26.3163 42.7523 24.6395 42.5337 23.0126 42.0998C21.9076 42.6586 19.5298 43.6765 15.6431 44.4479Z" fill="#C5EDE6"/>
<path fill-rule="evenodd" clip-rule="evenodd" d="M14.6907 32.1498C14.9113 32.3712 15.0803 32.6385 15.1858 32.9327C15.2912 33.2269 15.3304 33.5408 15.3006 33.8519C15.1513 35.2917 14.8681 36.7145 14.4549 38.1019C17.4192 37.4155 19.2298 36.6208 20.0521 36.2043C20.5186 35.968 21.0557 35.912 21.5609 36.047C23.0089 36.433 24.5014 36.6274 26 36.625C34.4915 36.625 40.875 30.6601 40.875 23.875C40.875 17.092 34.4915 11.125 26 11.125C17.5085 11.125 11.125 17.092 11.125 23.875C11.125 26.9945 12.4361 29.8888 14.6907 32.1498ZM13.6431 40.4479C13.1396 40.5477 12.6345 40.6391 12.128 40.722C11.703 40.79 11.38 40.348 11.5479 39.9527C11.7366 39.5078 11.9095 39.0563 12.0664 38.5991L12.0727 38.5779C12.5997 37.0479 13.029 35.2884 13.1863 33.65C10.5789 31.0363 9 27.615 9 23.875C9 15.6598 16.6117 9 26 9C35.3883 9 43 15.6598 43 23.875C43 32.0902 35.3883 38.75 26 38.75C24.3163 38.7523 22.6395 38.5337 21.0126 38.0998C19.9076 38.6586 17.5297 39.6765 13.6431 40.4479V40.4479Z" fill="black"/>
<path d="M19.625 23.875C19.625 24.4386 19.4011 24.9791 19.0026 25.3776C18.6041 25.7761 18.0636 26 17.5 26C16.9364 26 16.3959 25.7761 15.9974 25.3776C15.5989 24.9791 15.375 24.4386 15.375 23.875C15.375 23.3114 15.5989 22.7709 15.9974 22.3724C16.3959 21.9739 16.9364 21.75 17.5 21.75C18.0636 21.75 18.6041 21.9739 19.0026 22.3724C19.4011 22.7709 19.625 23.3114 19.625 23.875V23.875ZM28.125 23.875C28.125 24.4386 27.9011 24.9791 27.5026 25.3776C27.1041 25.7761 26.5636 26 26 26C25.4364 26 24.8959 25.7761 24.4974 25.3776C24.0989 24.9791 23.875 24.4386 23.875 23.875C23.875 23.3114 24.0989 22.7709 24.4974 22.3724C24.8959 21.9739 25.4364 21.75 26 21.75C26.5636 21.75 27.1041 21.9739 27.5026 22.3724C27.9011 22.7709 28.125 23.3114 28.125 23.875ZM36.625 23.875C36.625 24.4386 36.4011 24.9791 36.0026 25.3776C35.6041 25.7761 35.0636 26 34.5 26C33.9364 26 33.3959 25.7761 32.9974 25.3776C32.5989 24.9791 32.375 24.4386 32.375 23.875C32.375 23.3114 32.5989 22.7709 32.9974 22.3724C33.3959 21.9739 33.9364 21.75 34.5 21.75C35.0636 21.75 35.6041 21.9739 36.0026 22.3724C36.4011 22.7709 36.625 23.3114 36.625 23.875Z" fill="black"/>
</svg>
