<svg width="17" height="17" viewBox="0 0 17 17" fill="none" xmlns="http://www.w3.org/2000/svg">
<path d="M3.58767 11.5625C2.84322 10.3066 2.58282 8.82202 2.85536 7.38764C3.1279 5.95326 3.91462 4.66768 5.06784 3.77225C6.22107 2.87682 7.66148 2.43312 9.11866 2.52444C10.5758 2.61576 11.9496 3.23583 12.982 4.26823C14.0144 5.30064 14.6345 6.67438 14.7258 8.13156C14.8171 9.58874 14.3734 11.0291 13.478 12.1824C12.5825 13.3356 11.297 14.1223 9.86258 14.3949C8.4282 14.6674 6.94366 14.407 5.68767 13.6625L3.61267 14.25C3.52765 14.2749 3.43752 14.2764 3.3517 14.2545C3.26589 14.2325 3.18756 14.1879 3.12493 14.1253C3.0623 14.0627 3.01767 13.9843 2.99572 13.8985C2.97377 13.8127 2.9753 13.7226 3.00017 13.6375L3.58767 11.5625Z" stroke="#214766" stroke-width="1.5" stroke-linecap="round" stroke-linejoin="round"/>
<path d="M8.75 9.25C9.16421 9.25 9.5 8.91421 9.5 8.5C9.5 8.08579 9.16421 7.75 8.75 7.75C8.33579 7.75 8 8.08579 8 8.5C8 8.91421 8.33579 9.25 8.75 9.25Z" fill="#214766"/>
<path d="M5.75 9.25C6.16421 9.25 6.5 8.91421 6.5 8.5C6.5 8.08579 6.16421 7.75 5.75 7.75C5.33579 7.75 5 8.08579 5 8.5C5 8.91421 5.33579 9.25 5.75 9.25Z" fill="#214766"/>
<path d="M11.75 9.25C12.1642 9.25 12.5 8.91421 12.5 8.5C12.5 8.08579 12.1642 7.75 11.75 7.75C11.3358 7.75 11 8.08579 11 8.5C11 8.91421 11.3358 9.25 11.75 9.25Z" fill="#214766"/>
</svg>
