<svg width="100%" height="100%" viewBox="0 0 25 24" fill="none" xmlns="http://www.w3.org/2000/svg">
<path d="M11.1221 15.8125C11.3329 15.8136 11.5361 15.7337 11.6897 15.5893L11.6901 15.5889L17.1838 10.3389L17.1838 10.339L17.1855 10.3373C17.3315 10.1868 17.4137 9.98577 17.4149 9.77611C17.4161 9.56646 17.3363 9.36445 17.192 9.21232C17.0477 9.06019 16.8503 8.96971 16.6408 8.9598C16.4314 8.94989 16.2263 9.02132 16.0683 9.15915L16.0683 9.15911L16.0663 9.16101L11.1219 13.873L8.93462 11.7868C8.8585 11.7087 8.76742 11.6466 8.66679 11.6044C8.56579 11.562 8.45726 11.5405 8.34772 11.5411C8.23819 11.5418 8.12992 11.5645 8.02941 11.6081C7.92891 11.6516 7.83824 11.715 7.76287 11.7945C7.6875 11.874 7.62898 11.9679 7.59083 12.0706C7.55267 12.1733 7.53567 12.2826 7.54085 12.392C7.54603 12.5014 7.57327 12.6087 7.62095 12.7073C7.66842 12.8054 7.73516 12.8931 7.8172 12.9649L10.5625 15.5884C10.5626 15.5885 10.5627 15.5886 10.5628 15.5887C10.6367 15.661 10.7242 15.7181 10.8202 15.7565C10.9162 15.7949 11.0188 15.8139 11.1221 15.8125ZM11.1221 15.8125C11.1223 15.8125 11.1226 15.8125 11.1228 15.8125L11.1219 15.75L11.1215 15.8125C11.1217 15.8125 11.1219 15.8125 11.1221 15.8125ZM7.11792 3.94514C8.711 2.88067 10.584 2.31251 12.4999 2.3125C15.0677 2.31744 17.5289 3.33968 19.3446 5.15538C21.1603 6.97109 22.1826 9.43232 22.1875 12.0001C22.1875 13.9161 21.6193 15.789 20.5549 17.3821C19.4904 18.9752 17.9774 20.2169 16.2072 20.9501C14.4371 21.6833 12.4893 21.8752 10.6101 21.5014C8.73088 21.1276 7.00473 20.2049 5.64991 18.8501C4.29509 17.4953 3.37244 15.7691 2.99865 13.8899C2.62485 12.0107 2.8167 10.0629 3.54992 8.29275C4.28315 6.52259 5.52482 5.00961 7.11792 3.94514Z" fill="white" stroke="black" stroke-width="0.125"/>
</svg>
