<svg width="17" height="16" viewBox="0 0 17 16" fill="none" xmlns="http://www.w3.org/2000/svg">
<g id="Check">
<path id="Vector" d="M6.99368 12.4985L6.99367 12.4987L7.00726 12.4985C7.26451 12.495 7.51117 12.3954 7.69881 12.2194L7.70463 12.214L7.71027 12.2083L14.7103 5.20832L14.7276 5.19096L14.7432 5.17197C14.9017 4.97888 14.9827 4.73374 14.9704 4.48423C14.9582 4.23473 14.8536 3.99871 14.6769 3.82207C14.5003 3.64543 14.2643 3.54081 14.0148 3.52856C13.7652 3.5163 13.5201 3.59729 13.327 3.75577L13.3079 3.77142L13.2905 3.78888L7.00065 10.0846L4.21062 7.28906L4.1931 7.27151L4.17393 7.25577C3.98083 7.09729 3.73569 7.0163 3.48619 7.02856C3.23668 7.04081 3.00066 7.14543 2.82402 7.32207C2.64738 7.49871 2.54276 7.73473 2.53051 7.98423C2.51825 8.23374 2.59924 8.47888 2.75772 8.67197L2.7733 8.69096L2.79067 8.70832L6.29067 12.2083L6.29631 12.214L6.30213 12.2194C6.48977 12.3954 6.73642 12.495 6.99368 12.4985Z" fill="#3879AD" stroke="#3879AD"/>
</g>
</svg>
