<svg width="17" height="16" viewBox="0 0 17 16" fill="none" xmlns="http://www.w3.org/2000/svg">
<path d="M6.99368 12.5004L6.99367 12.5006L7.00726 12.5004C7.26451 12.4969 7.51117 12.3974 7.69881 12.2214L7.70463 12.2159L7.71027 12.2103L14.7103 5.21027L14.7276 5.19291L14.7432 5.17393C14.9017 4.98083 14.9827 4.73569 14.9704 4.48619C14.9582 4.23668 14.8536 4.00066 14.6769 3.82402C14.5003 3.64738 14.2643 3.54276 14.0148 3.53051C13.7652 3.51825 13.5201 3.59924 13.327 3.75772L13.3079 3.77338L13.2905 3.79083L7.00065 10.0866L4.21062 7.29102L4.1931 7.27346L4.17393 7.25772C3.98083 7.09924 3.73569 7.01825 3.48619 7.03051C3.23668 7.04276 3.00066 7.14738 2.82402 7.32402C2.64738 7.50066 2.54276 7.73668 2.53051 7.98619C2.51825 8.23569 2.59924 8.48083 2.75772 8.67393L2.7733 8.69291L2.79067 8.71027L6.29067 12.2103L6.29631 12.2159L6.30213 12.2214C6.48977 12.3974 6.73642 12.4969 6.99368 12.5004Z" fill="#51C8B4" stroke="#51C8B4"/>
</svg>
