<svg width="24" height="24" viewBox="0 0 24 24" fill="none" xmlns="http://www.w3.org/2000/svg">
<g id="Check">
<path id="Vector" d="M9.74293 18.4997L9.74293 18.4999L9.75652 18.4997C10.08 18.4953 10.3902 18.3701 10.6262 18.1488L10.632 18.1433L10.6377 18.1377L21.1377 7.63766L21.155 7.62029L21.1706 7.60131C21.3689 7.35964 21.4703 7.05283 21.455 6.74057C21.4396 6.4283 21.3087 6.1329 21.0876 5.91183C20.8666 5.69076 20.5712 5.55982 20.2589 5.54449C19.9466 5.52915 19.6398 5.63051 19.3981 5.82886L19.3791 5.84451L19.3616 5.86197L9.74991 15.4827L5.38801 11.1122L5.37048 11.0946L5.35131 11.0789C5.10964 10.8805 4.80283 10.7791 4.49057 10.7945C4.1783 10.8098 3.8829 10.9408 3.66183 11.1618C3.44076 11.3829 3.30982 11.6783 3.29449 11.9906C3.27915 12.3028 3.38051 12.6096 3.57886 12.8513L3.59443 12.8703L3.6118 12.8877L8.8618 18.1377L8.86744 18.1433L8.87327 18.1488C9.10923 18.3701 9.41942 18.4953 9.74293 18.4997Z" fill="#51C8B4" stroke="#51C8B4"/>
</g>
</svg>
