<svg width="32" height="32" viewBox="0 0 32 32" fill="none" xmlns="http://www.w3.org/2000/svg">
<g id="Frame 3104">
<path id="Vector 322" d="M19.75 10.6667L20.5 8L21.25 10.6667L23 12L21.25 13.3333L20.5 16L19.75 13.3333L18 12L19.75 10.6667Z" stroke="#3879AD" stroke-width="1.5"/>
<path id="Vector 323" d="M26.4 18L27 16L27.6 18L29 19L27.6 20L27 22L26.4 20L25 19L26.4 18Z" stroke="#3879AD" stroke-width="1.5"/>
<path id="Vector 324" d="M4.7 11L5 10L5.3 11L6 11.5L5.3 12L5 13L4.7 12L4 11.5L4.7 11Z" stroke="#3879AD" stroke-width="1.5"/>
<path id="Vector 313" d="M11 26L11.4281 19.5801H3.83496L4.60902 27.5676H8.5" stroke="#3879AD" stroke-width="1.5" stroke-linecap="round" stroke-linejoin="round"/>
<path id="Vector 317" d="M3.89018 19.5749C-0.0899811 23.4652 3.78347 26.6099 11.3427 20.1073" stroke="#3879AD" stroke-width="1.5" stroke-linecap="round" stroke-linejoin="round"/>
<path id="Vector" d="M11.1734 26.3539C9.27918 26.3242 8.5283 28.5951 8.38965 29.2018L17.317 29.2761C18.6609 29.0161 21.2272 27.853 19.3203 25.0906C17.8499 22.9606 15.0345 23.2336 13.8932 25.0909C13.7759 25.4995 13.0677 26.3836 11.1734 26.3539Z" stroke="#3879AD" stroke-width="1.5" stroke-linecap="round" stroke-linejoin="round"/>
<path id="Vector 320" d="M15.4609 23.7403V22.2172L16.7408 21.7715L17.1568 22.9602" stroke="#3879AD" stroke-width="1.5" stroke-linecap="round" stroke-linejoin="round"/>
<path id="Vector 321" d="M11.5 2.5L15.7519 21.8082" stroke="#3879AD" stroke-width="1.5" stroke-linecap="round" stroke-linejoin="round"/>
</g>
</svg>
