<svg width="24" height="24" viewBox="0 0 24 24" fill="none" xmlns="http://www.w3.org/2000/svg">
<path d="M15.3125 7L15.875 5L16.4375 7L17.75 8L16.4375 9L15.875 11L15.3125 9L14 8L15.3125 7Z" stroke="currentColor" stroke-width="1.5"/>
<path d="M19.05 13.5L19.5 12L19.95 13.5L21 14.25L19.95 15L19.5 16.5L19.05 15L18 14.25L19.05 13.5Z" stroke="currentColor" stroke-width="1.5"/>
<path d="M5.525 7.75L5.75 7L5.975 7.75L6.5 8.125L5.975 8.5L5.75 9.25L5.525 8.5L5 8.125L5.525 7.75Z" stroke="currentColor" stroke-width="1.5"/>
<path d="M9.10531 18.6262L9.5 13H2.5L3.21359 20H6.80061" stroke="currentColor" stroke-width="1.5" stroke-linecap="round" stroke-linejoin="round"/>
<path d="M2.70363 13.1448C-0.884619 16.3101 2.60742 18.869 9.42235 13.578" stroke="currentColor" stroke-width="1.5" stroke-linecap="round" stroke-linejoin="round"/>
<path d="M8.63725 19.4287C6.84271 19.4025 6.13136 21.4007 6 21.9346L14.4574 22C15.7305 21.7712 18.1617 20.7477 16.3552 18.3171C14.9622 16.4429 12.295 16.6831 11.2139 18.3174C11.1027 18.6769 10.4318 19.4548 8.63725 19.4287Z" stroke="currentColor" stroke-width="1.5" stroke-linecap="round" stroke-linejoin="round"/>
<path d="M11.9707 16.9297V15.7874L12.9306 15.4531L13.2426 16.3447" stroke="currentColor" stroke-width="1.5" stroke-linecap="round" stroke-linejoin="round"/>
<path d="M9 1L12.1889 15.4812" stroke="currentColor" stroke-width="1.5" stroke-linecap="round" stroke-linejoin="round"/>
</svg>
