<svg width="132" height="153" viewBox="0 0 132 153" fill="none" xmlns="http://www.w3.org/2000/svg">
<g clip-path="url(#clip0)">
<path d="M59.5139 152.944C128.677 152.944 184.746 150.665 184.746 147.853C184.746 145.042 128.677 142.763 59.5139 142.763C-9.64965 142.763 -65.7178 145.042 -65.7178 147.853C-65.7178 150.665 -9.64965 152.944 59.5139 152.944Z" fill="#E6E6E6"/>
<path d="M63.7595 148.446C96.5502 148.446 123.132 121.792 123.132 88.9133C123.132 56.0345 96.5502 29.3809 63.7595 29.3809C30.9688 29.3809 4.38672 56.0345 4.38672 88.9133C4.38672 121.792 30.9688 148.446 63.7595 148.446Z" fill="#214766"/>
<path d="M63.7596 143.518C93.8358 143.518 118.217 119.07 118.217 88.9133C118.217 58.7562 93.8358 34.3091 63.7596 34.3091C33.6834 34.3091 9.30176 58.7562 9.30176 88.9133C9.30176 119.07 33.6834 143.518 63.7596 143.518Z" fill="white"/>
<path d="M63.5622 96.4043C67.5796 96.4043 70.8364 93.1388 70.8364 89.1106C70.8364 85.0824 67.5796 81.8169 63.5622 81.8169C59.5448 81.8169 56.2881 85.0824 56.2881 89.1106C56.2881 93.1388 59.5448 96.4043 63.5622 96.4043Z" fill="#214766"/>
<path d="M65.1358 37.0688H61.9902V42.9827H65.1358V37.0688Z" fill="#214766"/>
<path d="M65.1358 135.238H61.9902V141.152H65.1358V135.238Z" fill="#214766"/>
<path d="M17.5586 90.6877V87.5337H11.6606V90.6877H17.5586Z" fill="#214766"/>
<path d="M115.465 90.6877V87.5337H109.567V90.6877H115.465Z" fill="#214766"/>
<path d="M61.4658 92.277L64.154 86.1138L97.838 104.819L61.4658 92.277Z" fill="#214766"/>
<path d="M71.4265 14.9907H56.0918V32.7322H71.4265V14.9907Z" fill="#214766"/>
<path d="M63.7593 19.9189C73.5314 19.9189 81.4532 17.7124 81.4532 14.9907C81.4532 12.2689 73.5314 10.0625 63.7593 10.0625C53.9872 10.0625 46.0654 12.2689 46.0654 14.9907C46.0654 17.7124 53.9872 19.9189 63.7593 19.9189Z" fill="#214766"/>
</g>
<defs>
<clipPath id="clip0">
<rect width="132" height="153" fill="white"/>
</clipPath>
</defs>
</svg>
