
<svg viewBox="0 0 96 96" fill="none" xmlns="http://www.w3.org/2000/svg">
<circle cx="48" cy="48.0001" r="48" fill="#FFA65F"/>
<path d="M47.9981 57.0015C52.9692 57.0015 56.999 52.9716 56.999 48.0005C56.999 43.0294 52.9692 38.9995 47.9981 38.9995C43.0269 38.9995 38.9971 43.0294 38.9971 48.0005C38.9971 52.9716 43.0269 57.0015 47.9981 57.0015Z" stroke="white" stroke-width="5.4285" stroke-miterlimit="10"/>
<path d="M56.9985 36.0012V54.7669C56.9985 57.6583 59.3399 59.9997 62.2312 59.9997C64.1829 59.9997 66.0278 58.9405 66.8889 57.1869C68.5703 53.7612 69.3214 49.8013 68.872 45.6276C67.838 36.0421 60.0344 28.2197 50.452 27.1385C36.9066 25.6111 25.5956 36.9284 27.1419 50.4801C28.2796 60.4428 36.7211 68.3752 46.731 68.9629C49.902 69.1484 52.8877 68.6298 55.5905 67.5895" stroke="white" stroke-width="5.4285" stroke-miterlimit="10"/>
</svg>
