<svg width="60" height="61" viewBox="0 0 60 61" fill="none" xmlns="http://www.w3.org/2000/svg">
    <circle cx="30" cy="30.1263" r="30" fill="#FFDC60"/>
    <path d="M30.3321 36.1748C33.4884 36.1748 36.047 33.6162 36.047 30.4599C36.047 27.3036 33.4884 24.745 30.3321 24.745C27.1758 24.745 24.6172 27.3036 24.6172 30.4599C24.6172 33.6162 27.1758 36.1748 30.3321 36.1748Z" stroke="white" stroke-width="2.99996" stroke-miterlimit="10"/>
    <path d="M36.0467 22.8414V34.7561C36.0467 36.5919 37.5332 38.0785 39.369 38.0785C40.6082 38.0785 41.7795 37.4061 42.3263 36.2926C43.3938 34.1176 43.8707 31.6033 43.5854 28.9534C42.9289 22.8674 37.9742 17.9007 31.8902 17.2143C23.2899 16.2445 16.1083 23.4301 17.0901 32.0344C17.8124 38.3599 23.1721 43.3963 29.5276 43.7695C31.541 43.8872 33.4366 43.558 35.1527 42.8975" stroke="white" stroke-width="2.99996" stroke-miterlimit="10"/>
</svg>
