<svg width="17" height="17" viewBox="0 0 17 17" fill="none" xmlns="http://www.w3.org/2000/svg">
<rect x="1.75" y="2" width="13" height="13" rx="1.5" stroke="#FAFAFC"/>
<path fill-rule="evenodd" clip-rule="evenodd" d="M3.43072 4.5C3.33072 4.5 3.25 4.58072 3.25 4.68072V10.7048C3.25 10.8048 3.33072 10.8855 3.43072 10.8855H5.45482V11.9096C5.45482 12.0096 5.53554 12.0904 5.63554 12.0904H6.65964V13.1145C6.65964 13.2145 6.74036 13.2952 6.84036 13.2952H9.65964C9.75964 13.2952 9.84036 13.2145 9.84036 13.1145V12.0904H10.8645C10.9645 12.0904 11.0452 12.0096 11.0452 11.9096V10.8855H13.0693C13.1693 10.8855 13.25 10.8048 13.25 10.7048V4.68072C13.25 4.58072 13.1693 4.5 13.0693 4.5H3.43072ZM5.99096 6.24699C5.99096 6.04699 5.82952 5.88554 5.62952 5.88554H4.99699C4.79699 5.88554 4.63554 6.04699 4.63554 6.24699V7.93374C4.63554 8.13374 4.79699 8.29518 4.99699 8.29518H5.62952C5.82952 8.29518 5.99096 8.13374 5.99096 7.93374V6.24699ZM7.9488 6.24699C7.9488 6.04699 7.78735 5.88554 7.58735 5.88554H6.95482C6.75482 5.88554 6.59337 6.04699 6.59337 6.24699V7.93374C6.59337 8.13374 6.75482 8.29518 6.95482 8.29518H7.58735C7.78735 8.29518 7.9488 8.13374 7.9488 7.93374V6.24699ZM9.90663 6.24699C9.90663 6.04699 9.74518 5.88554 9.54518 5.88554H8.91265C8.71265 5.88554 8.55121 6.04699 8.55121 6.24699V7.93374C8.55121 8.13374 8.71265 8.29518 8.91265 8.29518H9.54518C9.74518 8.29518 9.90663 8.13374 9.90663 7.93374V6.24699ZM11.8645 6.24699C11.8645 6.04699 11.703 5.88554 11.503 5.88554H10.8705C10.6705 5.88554 10.509 6.04699 10.509 6.24699V7.93374C10.509 8.13374 10.6705 8.29518 10.8705 8.29518H11.503C11.703 8.29518 11.8645 8.13374 11.8645 7.93374V6.24699Z" fill="white"/>
</svg>
