<svg width="17" height="17" viewBox="0 0 17 17" fill="none" xmlns="http://www.w3.org/2000/svg">
<rect x="2.25" y="2" width="13" height="13" rx="1.5" stroke="#222223"/>
<path fill-rule="evenodd" clip-rule="evenodd" d="M3.93072 4.5C3.83072 4.5 3.75 4.58072 3.75 4.68072V10.7048C3.75 10.8048 3.83072 10.8855 3.93072 10.8855H5.95482V11.9096C5.95482 12.0096 6.03554 12.0904 6.13554 12.0904H7.15964V13.1145C7.15964 13.2145 7.24036 13.2952 7.34036 13.2952H10.1596C10.2596 13.2952 10.3404 13.2145 10.3404 13.1145V12.0904H11.3645C11.4645 12.0904 11.5452 12.0096 11.5452 11.9096V10.8855H13.5693C13.6693 10.8855 13.75 10.8048 13.75 10.7048V4.68072C13.75 4.58072 13.6693 4.5 13.5693 4.5H3.93072ZM6.49096 6.24699C6.49096 6.04699 6.32952 5.88554 6.12952 5.88554H5.49699C5.29699 5.88554 5.13554 6.04699 5.13554 6.24699V7.93374C5.13554 8.13374 5.29699 8.29518 5.49699 8.29518H6.12952C6.32952 8.29518 6.49096 8.13374 6.49096 7.93374V6.24699ZM8.4488 6.24699C8.4488 6.04699 8.28735 5.88554 8.08735 5.88554H7.45482C7.25482 5.88554 7.09337 6.04699 7.09337 6.24699V7.93374C7.09337 8.13374 7.25482 8.29518 7.45482 8.29518H8.08735C8.28735 8.29518 8.4488 8.13374 8.4488 7.93374V6.24699ZM10.4066 6.24699C10.4066 6.04699 10.2452 5.88554 10.0452 5.88554H9.41265C9.21265 5.88554 9.05121 6.04699 9.05121 6.24699V7.93374C9.05121 8.13374 9.21265 8.29518 9.41265 8.29518H10.0452C10.2452 8.29518 10.4066 8.13374 10.4066 7.93374V6.24699ZM12.3645 6.24699C12.3645 6.04699 12.203 5.88554 12.003 5.88554H11.3705C11.1705 5.88554 11.009 6.04699 11.009 6.24699V7.93374C11.009 8.13374 11.1705 8.29518 11.3705 8.29518H12.003C12.203 8.29518 12.3645 8.13374 12.3645 7.93374V6.24699Z" fill="#222223"/>
</svg>
