<svg width="59" height="33" viewBox="0 0 59 33" fill="none" xmlns="http://www.w3.org/2000/svg">
<g id="Fast truck">
<g id="Group 616">
<g id="Group">
<g id="Group_2">
<path id="Vector" d="M29.981 23.3702H37.0484H42.0929" stroke="currentColor" stroke-width="1.66305" stroke-miterlimit="1.5" stroke-linecap="round" stroke-linejoin="round"/>
<g id="Group_3">
<path id="Vector_2" d="M23.5459 22.5523C24.3302 22.0358 25.2717 21.7348 26.2843 21.7348C28.1004 21.7348 29.6882 22.7031 30.5496 24.1467C30.7436 24.5185 31.1317 25.3622 31.1317 25.7628" stroke="currentColor" stroke-width="1.66305" stroke-miterlimit="1.5" stroke-linecap="round" stroke-linejoin="round"/>
</g>
<g id="Group_4">
<path id="Vector_3" d="M50.0121 31.5377C52.7462 31.5377 54.9627 29.3432 54.9627 26.6362C54.9627 23.9293 52.7462 21.7348 50.0121 21.7348C47.278 21.7348 45.0615 23.9293 45.0615 26.6362C45.0615 27.5607 45.32 28.4255 45.7694 29.1634" stroke="currentColor" stroke-width="1.66305" stroke-miterlimit="1.5" stroke-linecap="round" stroke-linejoin="round"/>
</g>
<g id="Group_5">
<path id="Vector_4" d="M50.0113 29.0081C51.3365 29.0081 52.4108 27.9444 52.4108 26.6324C52.4108 25.3203 51.3365 24.2567 50.0113 24.2567C48.6861 24.2567 47.6118 25.3203 47.6118 26.6324C47.6118 27.9444 48.6861 29.0081 50.0113 29.0081Z" stroke="currentColor" stroke-width="1.66305" stroke-miterlimit="1.5" stroke-linecap="round" stroke-linejoin="round"/>
</g>
<path id="Vector_5" d="M54.9719 26.6349C54.9719 26.6349 57.9336 27.437 57.9336 25.2627V23.037L56.901 22.3955V15.6466C56.901 15.6466 55.9839 8.49409 50.5115 4.75604H44.4629" stroke="currentColor" stroke-width="1.66305" stroke-miterlimit="1.5" stroke-linecap="round" stroke-linejoin="round"/>
<path id="Vector_6" d="M56.9032 15.6466H50.6043L47.6948 13.4946L48.4305 4.75604" stroke="currentColor" stroke-width="1.66305" stroke-miterlimit="1.5" stroke-linecap="round" stroke-linejoin="round"/>
<g id="Group_6">
<path id="Vector_7" d="M20.512 20.7549L21.4607 12.3021L21.4966 11.9561M42.0674 23.3768L44.3605 1.22748H22.6073L22.464 2.61181" stroke="currentColor" stroke-width="1.66305" stroke-miterlimit="1.5" stroke-linecap="round" stroke-linejoin="round"/>
</g>
<path id="Vector_8" d="M56.8933 21.0945L53.4341 19.8573V18.0226H56.8933" stroke="currentColor" stroke-width="1.66305" stroke-miterlimit="1.5" stroke-linecap="round" stroke-linejoin="round"/>
<g id="Group_7">
<path id="Vector_9" d="M27.522 5.39185H18.9292" stroke="currentColor" stroke-width="1.66305" stroke-miterlimit="1.5" stroke-linecap="round" stroke-linejoin="round"/>
</g>
<g id="Group_8">
<path id="Vector_10" d="M14.5424 5.39185H13.5093" stroke="currentColor" stroke-width="1.66305" stroke-miterlimit="1.5" stroke-linecap="round" stroke-linejoin="round"/>
</g>
<g id="Group_9">
<path id="Vector_11" d="M25.5672 9.24185L3.31543 9.24182" stroke="currentColor" stroke-width="1.66305" stroke-miterlimit="1.5" stroke-linecap="round" stroke-linejoin="round"/>
</g>
<g id="Group_10">
<path id="Vector_12" d="M18.2325 13.2896H13.1753" stroke="currentColor" stroke-width="1.66305" stroke-miterlimit="1.5" stroke-linecap="round" stroke-linejoin="round"/>
</g>
<g id="Group_11">
<path id="Vector_13" d="M8.07934 13.2896H6.5918" stroke="currentColor" stroke-width="1.66305" stroke-miterlimit="1.5" stroke-linecap="round" stroke-linejoin="round"/>
</g>
</g>
</g>
<g id="Subtract">
<mask id="path-14-inside-1_22810_16704" fill="white">
<path fill-rule="evenodd" clip-rule="evenodd" d="M14.9653 22.2704C16.0768 21.0338 17.6966 20.2549 19.5001 20.2549C22.1619 20.2549 24.4234 21.9516 25.2416 24.3122C25.5148 24.2779 25.7932 24.2603 26.0757 24.2603C27.6038 24.2603 29.0102 24.7764 30.1266 25.6423C31.422 24.77 32.9865 24.2603 34.6712 24.2603C36.7819 24.2603 38.7039 25.0604 40.1445 26.371C40.5007 26.3002 40.8693 26.263 41.2466 26.263C43.049 26.263 44.6512 27.1116 45.6677 28.4274C46.0298 28.3221 46.413 28.2657 46.8095 28.2657C49.0438 28.2657 50.8551 30.0589 50.8553 32.2711H0.542066C0.374421 31.8013 0.283203 31.2959 0.283203 30.7693C0.283203 28.2805 2.32098 26.263 4.83471 26.263C5.6654 26.263 6.44412 26.4833 7.1145 26.8682C8.40559 24.142 11.2024 22.254 14.4447 22.254C14.6196 22.254 14.7931 22.2595 14.9653 22.2704Z"/>
</mask>
<path d="M14.9653 22.2704L14.8609 23.9301L15.6641 23.9806L16.2021 23.3821L14.9653 22.2704ZM25.2416 24.3122L23.6703 24.8568L24.1115 26.1299L25.4485 25.9623L25.2416 24.3122ZM30.1266 25.6423L29.1074 26.9564L30.0577 27.6935L31.0554 27.0218L30.1266 25.6423ZM40.1445 26.371L39.0254 27.6012L39.6461 28.1659L40.469 28.0021L40.1445 26.371ZM45.6677 28.4274L44.3517 29.4442L45.0443 30.3405L46.132 30.0243L45.6677 28.4274ZM50.8553 32.2711V33.9341H52.5184L52.5183 32.271L50.8553 32.2711ZM0.542066 32.2711L-1.02422 32.8301L-0.630187 33.9341H0.542066V32.2711ZM7.1145 26.8682L6.28651 28.3104L7.84722 29.2064L8.61751 27.58L7.1145 26.8682ZM19.5001 18.5918C17.2081 18.5918 15.1441 19.5837 13.7285 21.1586L16.2021 23.3821C17.0095 22.4839 18.185 21.9179 19.5001 21.9179V18.5918ZM26.813 23.7675C25.767 20.7498 22.8834 18.5918 19.5001 18.5918V21.9179C21.4404 21.9179 23.0799 23.1534 23.6703 24.8568L26.813 23.7675ZM26.0757 22.5972C25.7239 22.5972 25.3764 22.6192 25.0348 22.662L25.4485 25.9623C25.6532 25.9366 25.8625 25.9233 26.0757 25.9233V22.5972ZM31.1458 24.3281C29.7469 23.2432 27.9843 22.5972 26.0757 22.5972V25.9233C27.2234 25.9233 28.2734 26.3096 29.1074 26.9564L31.1458 24.3281ZM34.6712 22.5972C32.6463 22.5972 30.7599 23.2109 29.1977 24.2628L31.0554 27.0218C32.0841 26.3291 33.3266 25.9233 34.6712 25.9233V22.5972ZM41.2636 25.1409C39.5273 23.5612 37.2098 22.5972 34.6712 22.5972V25.9233C36.3541 25.9233 37.8804 26.5596 39.0254 27.6012L41.2636 25.1409ZM41.2466 24.5999C40.7597 24.5999 40.2825 24.6479 39.82 24.74L40.469 28.0021C40.719 27.9524 40.9788 27.926 41.2466 27.926V24.5999ZM46.9837 27.4106C45.6634 25.7017 43.5821 24.5999 41.2466 24.5999V27.926C42.5159 27.926 43.6389 28.5216 44.3517 29.4442L46.9837 27.4106ZM46.8095 26.6026C46.2544 26.6026 45.715 26.6818 45.2035 26.8305L46.132 30.0243C46.3447 29.9625 46.5716 29.9287 46.8095 29.9287V26.6026ZM52.5183 32.271C52.5181 29.1248 49.9466 26.6026 46.8095 26.6026V29.9287C48.1411 29.9287 49.1921 30.9931 49.1922 32.2712L52.5183 32.271ZM0.542066 33.9341H50.8553V30.608H0.542066V33.9341ZM-1.37985 30.7693C-1.37985 31.4892 -1.25493 32.1836 -1.02422 32.8301L2.10835 31.7121C2.00377 31.419 1.94625 31.1025 1.94625 30.7693H-1.37985ZM4.83471 24.5999C1.41818 24.5999 -1.37985 27.3464 -1.37985 30.7693H1.94625C1.94625 29.2146 3.22378 27.926 4.83471 27.926V24.5999ZM7.94249 25.4259C7.02625 24.8999 5.96291 24.5999 4.83471 24.5999V27.926C5.36789 27.926 5.86199 28.0667 6.28651 28.3104L7.94249 25.4259ZM14.4447 20.591C10.5427 20.591 7.17032 22.8649 5.61149 26.1563L8.61751 27.58C9.64087 25.4192 11.8622 23.9171 14.4447 23.9171V20.591ZM15.0696 20.6106C14.8628 20.5976 14.6544 20.591 14.4447 20.591V23.9171C14.5847 23.9171 14.7235 23.9215 14.8609 23.9301L15.0696 20.6106Z" fill="currentColor" mask="url(#path-14-inside-1_22810_16704)"/>
</g>
</g>
</g>
</svg>
