<svg width="32" height="32" viewBox="0 0 32 32" fill="none" xmlns="http://www.w3.org/2000/svg">
<path d="M6 12V27C6 27.2652 6.10536 27.5196 6.29289 27.7071C6.48043 27.8946 6.73478 28 7 28H25C25.2652 28 25.5196 27.8946 25.7071 27.7071C25.8946 27.5196 26 27.2652 26 27V11L19 4H13.5" stroke="#214766" stroke-width="1.5" stroke-linecap="round" stroke-linejoin="round"/>
<path d="M19 4V11H26" stroke="#214766" stroke-width="1.5" stroke-linecap="round" stroke-linejoin="round"/>
<path d="M16.9476 17.68L19.8453 16.9036L11.6803 10.6204L14.5776 16.5631L11.6799 17.3395L19.8453 24.1201L16.9476 17.68Z" stroke="#214766" stroke-width="1.5" stroke-linejoin="round"/>
<path d="M3.00098 1L10.001 8" stroke="#214766" stroke-width="1.5" stroke-linecap="round" stroke-linejoin="round"/>
<path d="M10 1L3 8" stroke="#214766" stroke-width="1.5" stroke-linecap="round" stroke-linejoin="round"/>
</svg>
