<svg width="63" height="73" viewBox="0 0 63 73" fill="none" xmlns="http://www.w3.org/2000/svg">
<g id="Group 3143">
<g id="Ellipse 143" filter="url(#filter0_d_14133_129711)">
<path d="M19.3711 23.625C19.3711 35.4789 29.0417 45.625 31.3711 45.625C33.7005 45.625 43.3711 35.559 43.3711 23.625C43.3711 16.9976 37.9985 11.625 31.3711 11.625C24.7437 11.625 19.3711 16.9976 19.3711 23.625Z" fill="#51C8B4"/>
<path d="M31.3711 47.125C30.6389 47.125 29.9294 46.7696 29.3993 46.4426C28.806 46.0767 28.1602 45.5683 27.4973 44.9579C26.1673 43.7332 24.6656 42.0029 23.2538 39.9087C20.44 35.7347 17.8711 29.9452 17.8711 23.625C17.8711 16.1692 23.9153 10.125 31.3711 10.125C38.8269 10.125 44.8711 16.1692 44.8711 23.625C44.8711 29.984 42.3031 35.7738 39.4874 39.9402C38.075 42.0301 36.5726 43.7534 35.2418 44.972C34.5785 45.5794 33.9325 46.0847 33.3391 46.4482C32.808 46.7736 32.1002 47.125 31.3711 47.125Z" stroke="white" stroke-width="3"/>
</g>
<path id="Ellipse 144" d="M26.1758 22.5478C26.1758 25.2104 28.3699 27.6426 30.919 27.6426C33.4682 27.6426 36.1758 25.9125 36.1758 22.5478C36.1758 19.1832 33.6311 17.6426 30.919 17.6426C28.2069 17.6426 26.1758 19.8853 26.1758 22.5478Z" fill="white"/>
</g>
<defs>
<filter id="filter0_d_14133_129711" x="0.371094" y="0.625" width="62" height="72" filterUnits="userSpaceOnUse" color-interpolation-filters="sRGB">
<feFlood flood-opacity="0" result="BackgroundImageFix"/>
<feColorMatrix in="SourceAlpha" type="matrix" values="0 0 0 0 0 0 0 0 0 0 0 0 0 0 0 0 0 0 127 0" result="hardAlpha"/>
<feOffset dy="8"/>
<feGaussianBlur stdDeviation="8"/>
<feColorMatrix type="matrix" values="0 0 0 0 0 0 0 0 0 0 0 0 0 0 0 0 0 0 0.5 0"/>
<feBlend mode="normal" in2="BackgroundImageFix" result="effect1_dropShadow_14133_129711"/>
<feBlend mode="normal" in="SourceGraphic" in2="effect1_dropShadow_14133_129711" result="shape"/>
</filter>
</defs>
</svg>
