<svg width="162" height="29" viewBox="0 0 162 29" fill="none" xmlns="http://www.w3.org/2000/svg">
<g clip-path="url(#clip0_4441_9844)">
<path fill-rule="evenodd" clip-rule="evenodd" d="M161.714 22.2358C161.714 22.2358 148.992 20.7818 145.866 17.54C142.74 14.2982 142.74 9.04227 145.866 5.80051C148.992 2.55868 154.06 2.55868 157.186 5.80051C160.312 9.04227 161.714 22.2358 161.714 22.2358ZM151.366 15.2047C149.42 15.2047 147.843 13.5694 147.843 11.5522C147.843 9.53501 149.42 7.89971 151.366 7.89971C153.311 7.89971 154.887 9.53501 154.887 11.5522C154.887 13.5694 153.311 15.2047 151.366 15.2047Z" fill="#214766"/>
<path fill-rule="evenodd" clip-rule="evenodd" d="M143.816 9.43461C143.821 9.46097 143.826 9.48725 143.831 9.51353C144.187 8.22333 144.871 7.00516 145.88 5.99068C149.003 2.851 154.068 2.851 157.191 5.99068C158.047 6.85116 158.774 8.43541 159.377 10.2822C159.583 9.57045 159.693 8.818 159.693 8.0397C159.693 3.59953 156.112 0 151.694 0C148.045 0 144.965 2.45776 144.006 5.81669L140.826 7.68129L143.816 9.43461ZM155.21 23.4588C152.199 22.8382 148.936 21.9887 146.543 20.8939C148.842 24.722 151.694 28.3 151.694 28.3C151.694 28.3 153.384 26.1805 155.21 23.4588Z" fill="#214766"/>
<path d="M63.2549 11.6219C63.2549 10.8214 64.0257 10.4063 64.9744 10.4063C66.0717 10.4063 66.9019 10.9696 67.3466 11.9183L70.6078 10.1395C69.4516 8.09379 67.3762 6.99683 64.9744 6.99683C61.9207 6.99683 59.3414 8.68674 59.3414 11.7108C59.3414 16.9288 66.9908 15.7429 66.9908 17.9072C66.9908 18.7669 66.1607 19.182 64.9448 19.182C63.4624 19.182 62.4544 18.4705 62.0393 17.2549L58.7188 19.1227C59.7861 21.4056 61.98 22.6508 64.9448 22.6508C68.1174 22.6508 70.9043 21.1091 70.9043 17.9072C70.9043 12.452 63.2549 13.8158 63.2549 11.6219ZM89.8229 6.99683C87.8068 6.99683 86.3244 7.79732 85.4054 9.13146C84.5752 7.76767 83.2114 6.99683 81.3733 6.99683C79.4758 6.99683 78.0824 7.73802 77.2523 8.98322V7.4119H73.4277V22.2357H77.2523V13.9047C77.2523 11.6812 78.4085 10.5545 80.0391 10.5545C81.6401 10.5545 82.5295 11.6219 82.5295 13.3711V22.2357H86.3541V13.9047C86.3541 11.6812 87.4214 10.5545 89.1113 10.5545C90.7123 10.5545 91.6017 11.6219 91.6017 13.3711V22.2357H95.4263V13.1042C95.4263 9.39829 93.2027 6.99683 89.8229 6.99683ZM109.859 7.4119V9.16111C108.792 7.82696 107.191 6.99683 105.027 6.99683C101.084 6.99683 97.8223 10.4063 97.8223 14.8238C97.8223 19.2413 101.084 22.6508 105.027 22.6508C107.191 22.6508 108.792 21.8206 109.859 20.4865V22.2357H113.684V7.4119H109.859ZM105.738 19.0041C103.396 19.0041 101.647 17.3142 101.647 14.8238C101.647 12.3334 103.396 10.6435 105.738 10.6435C108.11 10.6435 109.859 12.3334 109.859 14.8238C109.859 17.3142 108.11 19.0041 105.738 19.0041ZM120.896 9.96159V7.4119H117.071V22.2357H120.896V15.1499C120.896 12.0369 123.416 11.1475 125.402 11.3847V7.11542C123.534 7.11542 121.666 7.94555 120.896 9.96159ZM137.791 11.0882V7.4119H134.44V3.26123L130.616 4.41749V7.4119H128.037V11.0882H130.616V17.2549C130.616 21.2573 132.424 22.8287 137.791 22.2357V18.7669C135.597 18.8855 134.44 18.8559 134.44 17.2549V11.0882H137.791Z" fill="#214766"/>
<path fill-rule="evenodd" clip-rule="evenodd" d="M11.1179 0.378474V4.04284L8.81074 4.05365C6.85788 4.05365 5.95917 5.3482 5.95917 7.26365V7.41189H9.10182V11.0882H5.95917V22.2357H2.13463V11.0882H0V7.41189H2.13463V7.26365C2.13463 3.25741 4.1913 0.378475 8.81074 0.378474C10.9434 0.378474 11.0208 0.373203 11.0978 0.377278C11.1041 0.377612 11.1104 0.378008 11.1179 0.378474ZM16.9477 22.2357H13.1231V0.592935H16.9477V22.2357ZM26.7415 17.3735L30.0324 7.41189H34.1238L28.7279 22.2357C27.1863 26.505 24.6662 28.3728 20.901 28.1652V24.6075C23.0059 24.6372 24.0733 23.7477 24.7848 21.7613L18.707 7.41189H22.8874L26.7415 17.3735ZM45.0161 7.41189V11.0882H41.6659V17.2549C41.6659 18.8559 42.8221 18.8855 45.0161 18.7669V22.2357C39.6498 22.8286 37.8414 21.2573 37.8414 17.2549V11.0882H35.262V7.41189H37.8414V4.41748L41.6659 3.26122V7.41189H45.0161ZM56.2057 7.41189V11.0882H52.8555V17.2549C52.8555 18.8559 54.0118 18.8855 56.2057 18.7669V22.2357C50.8395 22.8286 49.031 21.2573 49.031 17.2549V11.0882H46.4516V7.41189H49.031V4.41748L52.8555 3.26122V7.41189H56.2057Z" fill="#214766"/>
</g>
<defs>
<clipPath id="clip0_4441_9844">
<rect width="161.714" height="28.3" fill="white"/>
</clipPath>
</defs>
</svg>
