<svg width="94" height="16" viewBox="0 0 94 16" fill="none" xmlns="http://www.w3.org/2000/svg">
<g clip-path="url(#clip0_6266_12256)">
<path fill-rule="evenodd" clip-rule="evenodd" d="M94.0008 12.5715C94.0008 12.5715 86.6055 11.7494 84.7885 9.9166C82.9715 8.08376 82.9715 5.11221 84.7885 3.27941C86.6055 1.44658 89.5518 1.44658 91.3688 3.27941C93.1857 5.11221 94.0008 12.5715 94.0008 12.5715ZM87.9854 8.59625C86.8544 8.59625 85.938 7.6717 85.938 6.53124C85.938 5.39079 86.8544 4.46623 87.9854 4.46623C89.116 4.46623 90.0324 5.39079 90.0324 6.53124C90.0324 7.6717 89.116 8.59625 87.9854 8.59625Z" fill="white"/>
<path fill-rule="evenodd" clip-rule="evenodd" d="M83.5955 5.33406C83.5984 5.34896 83.6009 5.36382 83.6038 5.37868C83.8111 4.64923 84.2084 3.96052 84.795 3.38696C86.6105 1.61187 89.5544 1.61187 91.3699 3.38696C91.8673 3.87345 92.2898 4.76913 92.6407 5.81326C92.76 5.41085 92.8241 4.98544 92.8241 4.54542C92.8241 2.03507 90.7427 0 88.1748 0C86.0532 0 84.2633 1.38955 83.706 3.28859L81.8574 4.34278L83.5955 5.33406ZM90.2185 13.2629C88.4683 12.9121 86.5712 12.4318 85.1807 11.8128C86.5167 13.9771 88.1748 16 88.1748 16C88.1748 16 89.1571 14.8017 90.2185 13.2629Z" fill="white"/>
<path d="M36.7676 6.57036C36.7676 6.11779 37.2156 5.88313 37.7671 5.88313C38.4049 5.88313 38.8875 6.2016 39.146 6.73798L41.0416 5.73227C40.3695 4.5757 39.1632 3.95551 37.7671 3.95551C35.9921 3.95551 34.4928 4.91093 34.4928 6.62065C34.4928 9.57074 38.9392 8.90027 38.9392 10.1239C38.9392 10.61 38.4566 10.8446 37.7499 10.8446C36.8882 10.8446 36.3023 10.4424 36.061 9.75513L34.1309 10.8111C34.7513 12.1018 36.0265 12.8058 37.7499 12.8058C39.594 12.8058 41.214 11.9342 41.214 10.1239C41.214 7.0397 36.7676 7.81074 36.7676 6.57036ZM52.2108 3.95551C51.0389 3.95551 50.1772 4.40808 49.643 5.16236C49.1605 4.39132 48.3677 3.95551 47.2993 3.95551C46.1963 3.95551 45.3864 4.37455 44.9038 5.07855V4.19017H42.6807V12.5711H44.9038V7.86103C44.9038 6.60389 45.5759 5.96693 46.5238 5.96693C47.4544 5.96693 47.9714 6.57036 47.9714 7.55932V12.5711H50.1945V7.86103C50.1945 6.60389 50.8149 5.96693 51.7972 5.96693C52.7278 5.96693 53.2448 6.57036 53.2448 7.55932V12.5711H55.4679V7.40846C55.4679 5.31322 54.1754 3.95551 52.2108 3.95551ZM63.8574 4.19017V5.17913C63.237 4.42484 62.3064 3.95551 61.0483 3.95551C58.7563 3.95551 56.8606 5.88313 56.8606 8.38065C56.8606 10.8782 58.7563 12.8058 61.0483 12.8058C62.3064 12.8058 63.237 12.3365 63.8574 11.5822V12.5711H66.0805V4.19017H63.8574ZM61.4619 10.7441C60.1005 10.7441 59.0837 9.78865 59.0837 8.38065C59.0837 6.97265 60.1005 6.01722 61.4619 6.01722C62.8406 6.01722 63.8574 6.97265 63.8574 8.38065C63.8574 9.78865 62.8406 10.7441 61.4619 10.7441ZM70.2725 5.6317V4.19017H68.0494V12.5711H70.2725V8.56503C70.2725 6.80503 71.7373 6.30217 72.8919 6.43627V4.02255C71.8062 4.02255 70.7206 4.49189 70.2725 5.6317ZM80.0931 6.26865V4.19017H78.1458V1.84351L75.9227 2.49722V4.19017H74.4234V6.26865H75.9227V9.75513C75.9227 12.018 76.9739 12.9064 80.0931 12.5711V10.61C78.8179 10.677 78.1458 10.6603 78.1458 9.75513V6.26865H80.0931Z" fill="white"/>
<path fill-rule="evenodd" clip-rule="evenodd" d="M6.4625 0.214197V2.28592L5.12144 2.29204C3.9863 2.29204 3.4639 3.02393 3.4639 4.10688V4.19068H5.29063V6.26916H3.4639V12.5716H1.2408V6.26916H0V4.19068H1.2408V4.10688C1.2408 1.84187 2.43629 0.214197 5.12144 0.214197C6.36108 0.214197 6.40611 0.211216 6.45087 0.213521C6.45453 0.213709 6.45819 0.213933 6.4625 0.214197ZM9.85122 12.572H7.62812V0.335836H9.85122V12.572ZM15.5441 9.82307L17.457 4.19107H19.8352L16.6988 12.572C15.8026 14.9857 14.3378 16.0417 12.1492 15.9244V13.913C13.3727 13.9297 13.9931 13.4269 14.4067 12.3038L10.8739 4.19107H13.3038L15.5441 9.82307ZM26.1666 4.19107V6.26955H24.2192V9.75603C24.2192 10.6612 24.8913 10.6779 26.1666 10.6109V12.572C23.0474 12.9073 21.9961 12.0189 21.9961 9.75603V6.26955H20.4968V4.19107H21.9961V2.49812L24.2192 1.84441V4.19107H26.1666ZM32.6708 4.19107V6.26955H30.7235V9.75603C30.7235 10.6612 31.3956 10.6779 32.6708 10.6109V12.572C29.5516 12.9073 28.5004 12.0189 28.5004 9.75603V6.26955H27.0011V4.19107H28.5004V2.49812L30.7235 1.84441V4.19107H32.6708Z" fill="white"/>
</g>
<defs>
<clipPath id="clip0_6266_12256">
<rect width="94" height="16" fill="white"/>
</clipPath>
</defs>
</svg>
