<svg width="100%" height="100%" viewBox="0 0 69 71" fill="none" xmlns="http://www.w3.org/2000/svg">
    <rect width="68" height="64" transform="translate(0.5 7)" fill="#5AC37C"/>
    <path d="M0.5 7H68.5V25H0.5V7Z" fill="#38796B"/>
    <path d="M16.5 2C16.5 0.89543 17.3954 0 18.5 0H21.5C22.6046 0 23.5 0.895431 23.5 2V7H16.5V2Z" fill="#5AC37C"/>
    <path d="M23.5 11C23.5 12.1046 22.6046 13 21.5 13L18.5 13C17.3954 13 16.5 12.1046 16.5 11L16.5 7L23.5 7L23.5 11Z" fill="#5AC37C"/>
    <path d="M46.5 2C46.5 0.89543 47.3954 0 48.5 0H51.5C52.6046 0 53.5 0.895431 53.5 2V7H46.5V2Z" fill="#5AC37C"/>
    <path d="M53.5 10.915C53.5 12.0196 52.6046 12.915 51.5 12.915L48.5 12.915C47.3954 12.915 46.5 12.0196 46.5 10.915L46.5 6.91504L53.5 6.91504L53.5 10.915Z" fill="#5AC37C"/>
</svg>
