<svg width="358" height="36" viewBox="0 0 358 36" fill="none" xmlns="http://www.w3.org/2000/svg">
<path fill-rule="evenodd" clip-rule="evenodd" d="M13.5627 6.17307C7.6512 9.57593 5.96219 17.1268 9.09183 22.5167C12.1966 27.9315 19.5736 30.2415 25.4852 26.8138L28.9377 32.7998C19.9462 38.0159 8.39635 34.9359 3.20512 25.9196C-1.9861 16.9033 1.09386 5.37824 10.1102 0.187012L14.8295 1.45377L13.5627 6.17307ZM24.7397 25.5717C19.5733 28.5772 13.0904 26.5404 10.3582 21.7963C7.62599 17.0521 9.09145 10.4203 14.2827 7.43968C19.4987 4.40939 25.9319 6.47098 28.6641 11.2151C31.3963 15.9593 29.9557 22.5663 24.7397 25.5717ZM45.6041 6.52078C43.7412 6.52078 42.5738 7.81238 42.5738 9.87397V13.1775H46.8212V17.7974H42.5738V33.4208H36.7865V17.7974H34.1039V13.1775H36.7865V10.3956C36.7865 6.12337 37.6558 1.42891 44.4118 1.42891C45.9584 1.42891 46.73 1.58845 48.1677 1.8857L48.3612 1.92568V6.89336C48.2748 6.87322 48.1898 6.85274 48.1049 6.83228C47.4567 6.67612 46.8119 6.52078 45.6041 6.52078ZM150.074 33.3711V21.6971C150.074 18.319 149.826 16.7045 149.106 15.4626C148.087 13.6742 145.926 12.5565 143.443 12.5565C140.412 12.5565 138.326 14.0468 136.91 17.3006C136.19 14.1462 134.401 12.5565 131.421 12.5565C128.341 12.5565 126.503 13.9971 124.963 17.1516V12.9788H119.349V33.3959H125.162V23.9077C125.162 22.5912 125.236 21.5977 125.46 20.8774C125.981 19.0393 127.273 17.8471 128.838 17.8471C130.03 17.8471 130.899 18.4432 131.321 19.5113C131.62 20.2813 131.744 21.2996 131.744 23.1874V33.3959H137.606V23.5599C137.606 19.859 138.847 17.8471 141.282 17.8471C142.697 17.8471 143.641 18.4681 143.989 19.8342C144.113 20.4303 144.213 21.548 144.213 22.8645V33.3711H150.074ZM117.139 23.4854V13.0036H111.327V23.4854C111.327 27.5838 110.557 28.9499 107.949 28.9499C105.266 28.9499 104.347 27.5838 104.347 23.8332V13.0036H98.5347V23.7586C98.5347 28.2295 99.2551 30.1918 101.292 31.9056C102.906 33.2221 105.216 33.9175 107.899 33.9175C111.053 33.9175 113.612 32.8992 115.226 31.0115C116.543 29.4466 117.139 27.3602 117.139 23.4854ZM96.5973 33.4208V28.8505C95.6535 29.0741 95.0574 29.0989 94.2129 29.0989C91.6048 29.0989 90.7852 28.1302 90.7852 25.2241V17.7974H96.349V13.1526H90.7852V6.47111L84.973 9.74978V26.2425C84.973 31.4834 87.3823 33.7934 92.7722 33.7934C94.1383 33.7934 95.1567 33.7188 96.5973 33.4208ZM83.0852 18.5923C82.0669 18.1203 81.4211 17.9961 80.4027 17.9961C77.1737 17.9961 75.3108 20.4303 75.3108 24.3548V33.4208H69.4986V13.0036H75.1121V17.6484C75.8324 14.5436 78.0431 12.7055 81.272 12.7055C81.8185 12.7055 82.3898 12.7801 83.1101 12.9291V18.5923H83.0852ZM57.4022 12.4076C63.7608 12.4076 67.4369 16.9033 67.4369 23.1626C67.4369 29.4964 63.3386 33.9673 57.5264 33.9425C51.2671 33.9425 47.293 29.7199 47.293 23.0633C47.293 17.0027 51.3416 12.4076 57.4022 12.4076ZM57.5015 28.9996C60.0599 28.9996 61.5751 26.7642 61.5751 23.1378C61.5751 19.5114 60.0102 17.3007 57.4022 17.3007C54.7942 17.3007 53.1548 19.5859 53.1548 23.0881C53.1548 26.6151 54.8687 28.9996 57.5015 28.9996Z" fill="#5AC37D"/>
<path d="M163.632 21.3636V22.5537C163.742 22.3774 163.891 22.2066 164.078 22.0413C164.266 21.876 164.475 21.7382 164.707 21.6281C164.949 21.5068 165.202 21.4132 165.467 21.3471C165.731 21.2699 165.99 21.2314 166.244 21.2314C166.729 21.2314 167.18 21.336 167.599 21.5454C168.029 21.7438 168.398 22.0192 168.707 22.3719C169.015 22.7245 169.257 23.1432 169.434 23.6281C169.61 24.1019 169.698 24.6198 169.698 25.1818C169.698 25.7438 169.61 26.2672 169.434 26.7521C169.257 27.2259 169.015 27.6391 168.707 27.9917C168.398 28.3443 168.029 28.6253 167.599 28.8347C167.18 29.0331 166.729 29.1322 166.244 29.1322C165.968 29.1322 165.693 29.0937 165.417 29.0165C165.153 28.9504 164.905 28.8567 164.673 28.7355C164.442 28.6033 164.233 28.4545 164.045 28.2893C163.869 28.1129 163.731 27.9256 163.632 27.7273V31.9752H162.558V21.3636H163.632ZM163.516 25.1818C163.516 25.6115 163.577 26.0082 163.698 26.3719C163.83 26.7245 164.007 27.033 164.227 27.2975C164.459 27.551 164.729 27.7493 165.037 27.8926C165.357 28.0358 165.698 28.1074 166.062 28.1074C166.426 28.1074 166.762 28.0358 167.07 27.8926C167.379 27.7493 167.649 27.551 167.88 27.2975C168.111 27.033 168.288 26.7245 168.409 26.3719C168.541 26.0082 168.607 25.6115 168.607 25.1818C168.607 24.752 168.541 24.3609 168.409 24.0082C168.288 23.6446 168.111 23.3361 167.88 23.0826C167.649 22.8181 167.379 22.6143 167.07 22.471C166.762 22.3278 166.426 22.2562 166.062 22.2562C165.698 22.2562 165.357 22.3278 165.037 22.471C164.729 22.6143 164.459 22.8181 164.227 23.0826C164.007 23.3361 163.83 23.6446 163.698 24.0082C163.577 24.3609 163.516 24.752 163.516 25.1818ZM171.478 25.1818C171.478 24.6088 171.566 24.0799 171.742 23.595C171.93 23.1102 172.183 22.6969 172.503 22.3553C172.833 22.0027 173.224 21.7272 173.676 21.5289C174.128 21.3305 174.618 21.2314 175.147 21.2314C175.676 21.2314 176.167 21.3305 176.618 21.5289C177.07 21.7272 177.456 22.0027 177.775 22.3553C178.106 22.6969 178.359 23.1102 178.536 23.595C178.723 24.0799 178.817 24.6088 178.817 25.1818C178.817 25.7548 178.723 26.2837 178.536 26.7686C178.359 27.2534 178.106 27.6722 177.775 28.0248C177.456 28.3664 177.07 28.6364 176.618 28.8347C176.167 29.0331 175.676 29.1322 175.147 29.1322C174.618 29.1322 174.128 29.0331 173.676 28.8347C173.224 28.6364 172.833 28.3664 172.503 28.0248C172.183 27.6722 171.93 27.2534 171.742 26.7686C171.566 26.2837 171.478 25.7548 171.478 25.1818ZM172.569 25.1818C172.569 25.6115 172.629 26.0082 172.751 26.3719C172.883 26.7245 173.059 27.033 173.28 27.2975C173.511 27.551 173.781 27.7493 174.089 27.8926C174.409 28.0358 174.762 28.1074 175.147 28.1074C175.522 28.1074 175.869 28.0358 176.189 27.8926C176.508 27.7493 176.778 27.551 176.999 27.2975C177.23 27.033 177.406 26.7245 177.527 26.3719C177.66 26.0082 177.726 25.6115 177.726 25.1818C177.726 24.752 177.66 24.3609 177.527 24.0082C177.406 23.6446 177.23 23.3361 176.999 23.0826C176.778 22.8181 176.508 22.6143 176.189 22.471C175.869 22.3278 175.522 22.2562 175.147 22.2562C174.762 22.2562 174.409 22.3278 174.089 22.471C173.781 22.6143 173.511 22.8181 173.28 23.0826C173.059 23.3361 172.883 23.6446 172.751 24.0082C172.629 24.3609 172.569 24.752 172.569 25.1818ZM183.071 27.8264L185.038 21.3636H186.311L188.261 27.8926L189.832 21.3636H190.922L188.972 29H187.633L185.666 22.3884L183.699 29H182.327L180.427 21.3636H181.534L183.071 27.8264ZM192.526 25.1818C192.526 24.6308 192.609 24.1184 192.774 23.6446C192.95 23.1597 193.193 22.741 193.501 22.3884C193.81 22.0247 194.179 21.7438 194.609 21.5454C195.049 21.336 195.529 21.2314 196.047 21.2314C196.542 21.2314 197 21.3195 197.418 21.4958C197.848 21.6721 198.217 21.9256 198.526 22.2562C198.845 22.5867 199.093 22.9889 199.27 23.4628C199.446 23.9256 199.534 24.4435 199.534 25.0165V25.5289H193.617C193.639 25.8815 193.716 26.2176 193.848 26.5372C193.98 26.8457 194.162 27.1157 194.394 27.3471C194.625 27.5785 194.901 27.7658 195.22 27.9091C195.54 28.0413 195.898 28.1074 196.295 28.1074C196.724 28.1074 197.132 28.0193 197.518 27.843C197.903 27.6667 198.25 27.4022 198.559 27.0496L199.104 27.9917C198.719 28.3774 198.284 28.6639 197.799 28.8512C197.325 29.0386 196.823 29.1322 196.295 29.1322C195.71 29.1322 195.187 29.0331 194.724 28.8347C194.261 28.6253 193.865 28.3443 193.534 27.9917C193.215 27.6391 192.967 27.2204 192.79 26.7355C192.614 26.2507 192.526 25.7328 192.526 25.1818ZM198.476 24.5867C198.443 24.2121 198.355 23.8815 198.212 23.595C198.069 23.2975 197.887 23.0495 197.666 22.8512C197.446 22.6529 197.193 22.5041 196.906 22.4049C196.631 22.2947 196.344 22.2396 196.047 22.2396C195.727 22.2396 195.424 22.3002 195.137 22.4214C194.862 22.5427 194.614 22.7079 194.394 22.9173C194.184 23.1267 194.014 23.3746 193.881 23.6611C193.749 23.9476 193.666 24.2562 193.633 24.5867H198.476ZM202.968 21.3636V23.0826C203.089 22.4765 203.354 22.0413 203.761 21.7768C204.18 21.5013 204.637 21.3636 205.133 21.3636H205.976V22.4545H204.918C204.654 22.4545 204.406 22.5151 204.175 22.6363C203.943 22.7465 203.734 22.9118 203.547 23.1322C203.37 23.3526 203.227 23.6281 203.117 23.9586C203.018 24.2892 202.968 24.6694 202.968 25.0991V29H201.894V21.3636H202.968ZM207.214 25.1818C207.214 24.6308 207.297 24.1184 207.462 23.6446C207.638 23.1597 207.881 22.741 208.189 22.3884C208.498 22.0247 208.867 21.7438 209.297 21.5454C209.738 21.336 210.217 21.2314 210.735 21.2314C211.231 21.2314 211.688 21.3195 212.107 21.4958C212.536 21.6721 212.906 21.9256 213.214 22.2562C213.534 22.5867 213.782 22.9889 213.958 23.4628C214.134 23.9256 214.222 24.4435 214.222 25.0165V25.5289H208.305C208.327 25.8815 208.404 26.2176 208.536 26.5372C208.669 26.8457 208.851 27.1157 209.082 27.3471C209.313 27.5785 209.589 27.7658 209.908 27.9091C210.228 28.0413 210.586 28.1074 210.983 28.1074C211.413 28.1074 211.82 28.0193 212.206 27.843C212.592 27.6667 212.939 27.4022 213.247 27.0496L213.793 27.9917C213.407 28.3774 212.972 28.6639 212.487 28.8512C212.013 29.0386 211.512 29.1322 210.983 29.1322C210.399 29.1322 209.875 29.0331 209.413 28.8347C208.95 28.6253 208.553 28.3443 208.222 27.9917C207.903 27.6391 207.655 27.2204 207.479 26.7355C207.302 26.2507 207.214 25.7328 207.214 25.1818ZM213.165 24.5867C213.132 24.2121 213.043 23.8815 212.9 23.595C212.757 23.2975 212.575 23.0495 212.355 22.8512C212.134 22.6529 211.881 22.5041 211.594 22.4049C211.319 22.2947 211.032 22.2396 210.735 22.2396C210.415 22.2396 210.112 22.3002 209.826 22.4214C209.55 22.5427 209.302 22.7079 209.082 22.9173C208.873 23.1267 208.702 23.3746 208.57 23.6611C208.437 23.9476 208.355 24.2562 208.322 24.5867H213.165ZM223.127 17.9255V29H222.053V27.7273C221.954 27.9256 221.811 28.1129 221.623 28.2893C221.447 28.4545 221.243 28.6033 221.012 28.7355C220.78 28.8567 220.527 28.9504 220.251 29.0165C219.987 29.0937 219.717 29.1322 219.441 29.1322C218.957 29.1322 218.499 29.0331 218.069 28.8347C217.651 28.6253 217.287 28.3443 216.979 27.9917C216.67 27.6391 216.428 27.2259 216.251 26.7521C216.075 26.2672 215.987 25.7438 215.987 25.1818C215.987 24.6198 216.075 24.1019 216.251 23.6281C216.428 23.1432 216.67 22.7245 216.979 22.3719C217.287 22.0192 217.651 21.7438 218.069 21.5454C218.499 21.336 218.957 21.2314 219.441 21.2314C219.717 21.2314 219.987 21.2699 220.251 21.3471C220.527 21.4132 220.78 21.5123 221.012 21.6446C221.243 21.7658 221.447 21.9146 221.623 22.0909C221.811 22.2562 221.954 22.438 222.053 22.6363V17.9255H223.127ZM222.169 25.1818C222.169 24.752 222.103 24.3609 221.97 24.0082C221.849 23.6446 221.673 23.3361 221.441 23.0826C221.221 22.8181 220.951 22.6143 220.631 22.471C220.323 22.3278 219.987 22.2562 219.623 22.2562C219.26 22.2562 218.923 22.3278 218.615 22.471C218.306 22.6143 218.036 22.8181 217.805 23.0826C217.574 23.3361 217.392 23.6446 217.26 24.0082C217.138 24.3609 217.078 24.752 217.078 25.1818C217.078 25.6115 217.138 26.0082 217.26 26.3719C217.392 26.7245 217.574 27.033 217.805 27.2975C218.036 27.551 218.306 27.7493 218.615 27.8926C218.923 28.0358 219.26 28.1074 219.623 28.1074C219.987 28.1074 220.323 28.0358 220.631 27.8926C220.951 27.7493 221.221 27.551 221.441 27.2975C221.673 27.033 221.849 26.7245 221.97 26.3719C222.103 26.0082 222.169 25.6115 222.169 25.1818ZM231.215 17.9255V22.6363C231.314 22.438 231.451 22.2562 231.628 22.0909C231.815 21.9146 232.024 21.7658 232.256 21.6446C232.487 21.5123 232.735 21.4132 233 21.3471C233.275 21.2699 233.551 21.2314 233.826 21.2314C234.311 21.2314 234.763 21.336 235.182 21.5454C235.611 21.7438 235.98 22.0192 236.289 22.3719C236.598 22.7245 236.84 23.1432 237.016 23.6281C237.193 24.1019 237.281 24.6198 237.281 25.1818C237.281 25.7438 237.193 26.2672 237.016 26.7521C236.84 27.2259 236.598 27.6391 236.289 27.9917C235.98 28.3443 235.611 28.6253 235.182 28.8347C234.763 29.0331 234.311 29.1322 233.826 29.1322C233.551 29.1322 233.275 29.0937 233 29.0165C232.735 28.9504 232.487 28.8567 232.256 28.7355C232.024 28.6033 231.815 28.4545 231.628 28.2893C231.451 28.1129 231.314 27.9256 231.215 27.7273V29H230.14V17.9255H231.215ZM231.099 25.1818C231.099 25.6115 231.159 26.0082 231.281 26.3719C231.413 26.7245 231.589 27.033 231.81 27.2975C232.041 27.551 232.311 27.7493 232.62 27.8926C232.939 28.0358 233.281 28.1074 233.644 28.1074C234.008 28.1074 234.344 28.0358 234.653 27.8926C234.961 27.7493 235.231 27.551 235.463 27.2975C235.694 27.033 235.87 26.7245 235.991 26.3719C236.124 26.0082 236.19 25.6115 236.19 25.1818C236.19 24.752 236.124 24.3609 235.991 24.0082C235.87 23.6446 235.694 23.3361 235.463 23.0826C235.231 22.8181 234.961 22.6143 234.653 22.471C234.344 22.3278 234.008 22.2562 233.644 22.2562C233.281 22.2562 232.939 22.3278 232.62 22.471C232.311 22.6143 232.041 22.8181 231.81 23.0826C231.589 23.3361 231.413 23.6446 231.281 24.0082C231.159 24.3609 231.099 24.752 231.099 25.1818ZM242.172 27.3636L244.601 21.3636H245.758L242.122 30.124C241.847 30.7962 241.499 31.2755 241.081 31.562C240.662 31.8485 240.172 31.9918 239.61 31.9918H238.667V30.967H239.61C239.962 30.967 240.26 30.8898 240.502 30.7355C240.745 30.5923 240.965 30.2782 241.163 29.7934L241.61 28.7355L238.486 21.3636H239.676L242.172 27.3636Z" fill="#011627"/>
<path fill-rule="evenodd" clip-rule="evenodd" d="M346.21 21.3119L346.209 21.308L344.358 20.1986L346.327 19.0188C346.921 16.8935 348.827 15.3384 351.086 15.3384C353.821 15.3384 356.038 17.6159 356.038 20.4254C356.038 20.9115 355.972 21.3817 355.848 21.827C356.836 25.0218 357.292 29.4077 357.292 29.4077C357.292 29.4077 349.415 28.4877 347.48 26.4365C346.171 25.0486 345.747 23.0772 346.21 21.3119ZM347.898 28.5587C349.379 29.2514 351.399 29.789 353.263 30.1817C352.133 31.9038 351.086 33.2448 351.086 33.2448C351.086 33.2448 349.321 30.9809 347.898 28.5587ZM348.704 22.6478C348.704 23.9241 349.68 24.9589 350.885 24.9589C352.089 24.9589 353.065 23.9241 353.065 22.6478C353.065 21.3715 352.089 20.3367 350.885 20.3367C349.68 20.3367 348.704 21.3715 348.704 22.6478ZM296.336 22.6919C296.336 22.1854 296.814 21.9228 297.401 21.9228C298.08 21.9228 298.594 22.2792 298.869 22.8795L300.888 21.7539C300.173 20.4596 298.888 19.7655 297.401 19.7655C295.51 19.7655 293.914 20.8347 293.914 22.7482C293.914 24.7564 295.666 25.2655 297.038 25.6644C297.922 25.9212 298.649 26.1324 298.649 26.6688C298.649 27.2128 298.135 27.4755 297.383 27.4755C296.465 27.4755 295.841 27.0253 295.584 26.2561L293.528 27.438C294.189 28.8824 295.547 29.6703 297.383 29.6703C299.347 29.6703 301.072 28.6948 301.072 26.6688C301.072 24.5566 299.299 24.0601 297.922 23.6747C297.05 23.4303 296.336 23.2306 296.336 22.6919ZM312.784 19.7655C311.536 19.7655 310.618 20.272 310.049 21.1161C309.535 20.2532 308.691 19.7655 307.553 19.7655C306.378 19.7655 305.516 20.2344 305.002 21.0223V20.0281H302.634V29.4077H305.002V24.1363C305.002 22.7294 305.718 22.0166 306.727 22.0166C307.718 22.0166 308.269 22.6919 308.269 23.7987V29.4077H310.637V24.1363C310.637 22.7294 311.297 22.0166 312.343 22.0166C313.335 22.0166 313.885 22.6919 313.885 23.7987V29.4077H316.253V23.6299C316.253 21.285 314.876 19.7655 312.784 19.7655ZM325.188 20.0281V21.1349C324.527 20.2907 323.536 19.7655 322.196 19.7655C319.755 19.7655 317.736 21.9228 317.736 24.7179C317.736 27.513 319.755 29.6703 322.196 29.6703C323.536 29.6703 324.527 29.145 325.188 28.3009V29.4077H327.556V20.0281H325.188ZM322.637 27.3629C321.187 27.3629 320.104 26.2936 320.104 24.7179C320.104 23.1421 321.187 22.0728 322.637 22.0728C324.105 22.0728 325.188 23.1421 325.188 24.7179C325.188 26.2936 324.105 27.3629 322.637 27.3629ZM332.02 21.6414V20.0281H329.653V29.4077H332.02V24.9242C332.02 22.9545 333.58 22.3917 334.81 22.5418V19.8405C333.654 19.8405 332.498 20.3658 332.02 21.6414ZM342.48 22.3542V20.0281H340.406V17.4018L338.038 18.1334V20.0281H336.441V22.3542H338.038V26.2561C338.038 28.7886 339.158 29.7828 342.48 29.4077V27.2128C341.121 27.2879 340.406 27.2691 340.406 26.2561V22.3542H342.48ZM264.06 17.8964V15.5779L264.048 15.5771C264.026 15.5759 264.004 15.576 263.859 15.5764C263.688 15.5769 263.346 15.5779 262.632 15.5779C259.772 15.5779 258.499 17.3995 258.499 19.9344V20.0282H257.177V22.3543H258.499V29.4077H260.866V22.3543H262.812V20.0282H260.866V19.9344C260.866 18.7224 261.423 17.9033 262.632 17.9033L264.06 17.8964ZM265.302 29.4079H267.67V15.7137H265.302V29.4079ZM275.77 20.0283L273.733 26.3314L271.347 20.0283H268.759L272.521 29.1077C272.081 30.3646 271.42 30.9274 270.117 30.9086V33.1597C272.448 33.291 274.008 32.1092 274.963 29.4079L278.303 20.0283H275.77ZM285.046 22.3545V20.0283H282.972V17.402L280.604 18.1336V20.0283H279.008V22.3545H280.604V26.2564C280.604 28.7888 281.724 29.7831 285.046 29.4079V27.2131C283.688 27.2881 282.972 27.2694 282.972 26.2564V22.3545H285.046ZM291.973 22.3545V20.0283H289.899V17.402L287.532 18.1336V20.0283H285.935V22.3545H287.532V26.2564C287.532 28.7888 288.651 29.7831 291.973 29.4079V27.2131C290.615 27.2881 289.899 27.2694 289.899 26.2564V22.3545H291.973Z" fill="#011627"/>
</svg>
