<svg width="25" height="24" viewBox="0 0 25 24" fill="none" xmlns="http://www.w3.org/2000/svg">
    <path d="M0.5 12C0.5 5.37258 5.87258 0 12.5 0C19.1274 0 24.5 5.37258 24.5 12C24.5 18.6274 19.1274 24 12.5 24C5.87258 24 0.5 18.6274 0.5 12Z" fill="#214766"/>
    <path fill-rule="evenodd" clip-rule="evenodd" d="M19.904 12.1773C19.904 11.6242 19.8543 11.0924 19.7621 10.5818H12.416V13.599H16.6138C16.433 14.574 15.8834 15.4001 15.0573 15.9532V17.9103H17.5781C19.053 16.5524 19.904 14.5528 19.904 12.1773Z" fill="white"/>
    <path fill-rule="evenodd" clip-rule="evenodd" d="M12.416 19.8C14.522 19.8 16.2876 19.1015 17.5782 17.9103L15.0573 15.9532C14.3589 16.4212 13.4654 16.6977 12.416 16.6977C10.3844 16.6977 8.66489 15.3256 8.05153 13.482H5.44562V15.5029C6.72907 18.0521 9.36689 19.8 12.416 19.8Z" fill="white"/>
    <path fill-rule="evenodd" clip-rule="evenodd" d="M8.05151 13.482C7.89551 13.014 7.80687 12.5141 7.80687 12C7.80687 11.4859 7.89551 10.986 8.05151 10.518V8.49713H5.4456C4.91733 9.55013 4.61597 10.7414 4.61597 12C4.61597 13.2587 4.91733 14.4499 5.4456 15.5029L8.05151 13.482Z" fill="white"/>
    <path fill-rule="evenodd" clip-rule="evenodd" d="M12.416 7.30228C13.5612 7.30228 14.5893 7.69583 15.3977 8.46874L17.6349 6.23156C16.2841 4.97292 14.5184 4.20001 12.416 4.20001C9.36689 4.20001 6.72907 5.94792 5.44562 8.4971L8.05153 10.518C8.66489 8.67438 10.3844 7.30228 12.416 7.30228Z" fill="white"/>
</svg>
