<svg width="50" height="44" viewBox="0 0 50 44" fill="none" xmlns="http://www.w3.org/2000/svg">
<path fill-rule="evenodd" clip-rule="evenodd" d="M0.94458 30.1739L4.99621 26.2122C8.23408 32.6898 19.2625 38.365 19.2625 38.365L15.5408 42.9713C9.42995 40.0013 4.5043 35.7984 0.94458 30.1739Z" stroke="currentColor" stroke-width="1.85042" stroke-miterlimit="1.5" stroke-linecap="round" stroke-linejoin="round"/>
<path d="M6.26465 27.2906L8.13163 25.1892" stroke="currentColor" stroke-width="1.85042" stroke-miterlimit="1.5" stroke-linecap="round" stroke-linejoin="round"/>
<path d="M18.0657 37.3442C18.0657 37.3442 20.3458 35.0029 22.1982 33.0682C24.0508 31.1332 34.5596 31.2718 38.6282 25.4089C41.1376 21.7928 41.8168 18.869 39.5461 17.4868" stroke="currentColor" stroke-width="1.85042" stroke-miterlimit="1.5" stroke-linecap="round" stroke-linejoin="round"/>
<path d="M39.6514 23.7947L43.1827 26.8456" stroke="currentColor" stroke-width="1.85042" stroke-miterlimit="1.5" stroke-linecap="round" stroke-linejoin="round"/>
<path d="M37.2871 19.5847C37.2871 19.5847 41.9449 14.7415 39.3372 11.8058" stroke="currentColor" stroke-width="1.85042" stroke-miterlimit="1.5" stroke-linecap="round" stroke-linejoin="round"/>
<path d="M35.5005 14.1249C35.5005 14.1249 42.3155 9.58144 37.1244 6.55737" stroke="currentColor" stroke-width="1.85042" stroke-miterlimit="1.5" stroke-linecap="round" stroke-linejoin="round"/>
<path d="M32.8075 8.83428C33.3813 8.49417 39.0081 6.58994 36.7981 3.44983C34.5884 0.309466 27.6583 3.30821 24.7924 5.06021C21.9262 6.81247 19.9035 8.4032 18.3232 8.95549C16.7426 9.50805 12.8315 9.05267 15.7974 5.70141C18.7632 2.35015 22.5016 -1.88137 26.766 3.85353" stroke="currentColor" stroke-width="1.85042" stroke-miterlimit="1.5" stroke-linecap="round" stroke-linejoin="round"/>
<path d="M15.3114 6.30463C15.3114 6.30463 10.9269 6.05704 12.0472 10.0673C13.0626 13.7024 18.8192 15.1192 19.7151 14.3149C20.5803 13.5385 21.0756 12.253 18.3202 9.15192" stroke="currentColor" stroke-width="1.85042" stroke-miterlimit="1.5" stroke-linecap="round" stroke-linejoin="round"/>
<path d="M12.1334 10.3445C12.1334 10.3445 5.66473 14.5597 13.9068 18.6171C21.372 22.2919 19.0862 14.8799 17.9722 14.538" stroke="currentColor" stroke-width="1.85042" stroke-miterlimit="1.5" stroke-linecap="round" stroke-linejoin="round"/>
<path d="M9.79796 14.7222C9.79796 14.7222 4.12061 19.384 14.7166 23.5414C17.9805 24.8222 19.1847 20.806 16.5632 19.6313" stroke="currentColor" stroke-width="1.85042" stroke-miterlimit="1.5" stroke-linecap="round" stroke-linejoin="round"/>
<path d="M8.58821 19.1246C8.58821 19.1246 5.84199 22.6868 8.27939 24.8952C11.3222 27.652 14.6338 24.7766 12.5952 22.6002" stroke="currentColor" stroke-width="1.85042" stroke-miterlimit="1.5" stroke-linecap="round" stroke-linejoin="round"/>
<path d="M23.9832 32.2461C23.9832 32.2461 27.4104 34.0418 29.914 34.7721C30.9664 35.0792 31.5512 36.2101 32.1091 36.8043" stroke="currentColor" stroke-width="1.85042" stroke-miterlimit="1.5" stroke-linecap="round" stroke-linejoin="round"/>
<path fill-rule="evenodd" clip-rule="evenodd" d="M45.0967 26.0295C41.4624 30.8211 36.7128 34.9738 30.821 38.4724L34.4911 42.9337C40.2657 40.1432 45.1723 35.8505 49.0555 29.7868L45.0967 26.0295Z" stroke="currentColor" stroke-width="1.85042" stroke-miterlimit="1.5" stroke-linecap="round" stroke-linejoin="round"/>
</svg>
