<svg width="16" height="17" viewBox="0 0 16 17" fill="none" xmlns="http://www.w3.org/2000/svg">
<path d="M15.0669 8.00673L13.5997 6.71098V3.29998C13.5997 3.19389 13.5575 3.09215 13.4825 3.01713C13.4075 2.94212 13.3058 2.89998 13.1997 2.89998H11.5997C11.4936 2.89998 11.3919 2.94212 11.3168 3.01713C11.2418 3.09215 11.1997 3.19389 11.1997 3.29998V4.59173L8.66869 2.35748C8.51169 2.21523 8.21244 2.09998 7.99969 2.09998C7.78694 2.09998 7.48844 2.21523 7.33144 2.35748L0.931438 8.00748C0.892361 8.0426 0.860586 8.08508 0.837929 8.13248C0.815272 8.17989 0.802177 8.23129 0.799391 8.28376C0.796605 8.33623 0.804183 8.38873 0.821693 8.43827C0.839202 8.48781 0.8663 8.53341 0.901438 8.57248L1.43644 9.16748C1.51633 9.2469 1.62269 9.29407 1.73519 9.29998C1.83289 9.29484 1.92646 9.25887 2.00244 9.19723L2.39994 8.84723V14.1C2.39994 14.3121 2.48422 14.5156 2.63425 14.6657C2.78428 14.8157 2.98777 14.9 3.19994 14.9H12.7997C13.0119 14.9 13.2153 14.8157 13.3654 14.6657C13.5154 14.5156 13.5997 14.3121 13.5997 14.1V8.84673L13.9974 9.19673C14.0737 9.25853 14.1675 9.29467 14.2654 9.29998C14.3774 9.29397 14.4831 9.24667 14.5622 9.16723L15.0974 8.57198C15.1588 8.49578 15.1946 8.40217 15.1997 8.30448C15.1937 8.19224 15.1464 8.08619 15.0669 8.00673ZM9.59969 9.56648C9.59936 9.70795 9.54298 9.84354 9.44289 9.94353C9.3428 10.0435 9.20717 10.0998 9.06569 10.1H6.93319C6.7918 10.0996 6.65629 10.0433 6.55631 9.94335C6.45633 9.84337 6.40002 9.70787 6.39969 9.56648V7.43298C6.40015 7.29167 6.45652 7.15629 6.55649 7.05642C6.65645 6.95655 6.79188 6.90031 6.93319 6.89998H9.06569C9.20708 6.90017 9.34264 6.95636 9.44271 7.05625C9.54279 7.15613 9.59923 7.29158 9.59969 7.43298V9.56648Z" fill="#214766"/>
</svg>
