<svg width="33" height="33" viewBox="0 0 33 33" fill="none" xmlns="http://www.w3.org/2000/svg">
<g id="HouseLine">
<path id="Vector" d="M30.4434 26.7379H28.4434V15.1754C28.444 14.8966 28.3853 14.6209 28.2711 14.3665C28.1568 14.1122 27.9897 13.8851 27.7809 13.7004L17.7809 4.61294C17.4142 4.2765 16.9347 4.08984 16.4371 4.08984C15.9395 4.08984 15.46 4.2765 15.0934 4.61294L5.09336 13.7004C4.88862 13.8877 4.72509 14.1156 4.61319 14.3696C4.50128 14.6235 4.44345 14.8979 4.44336 15.1754V26.7379H2.44336C2.17814 26.7379 1.92379 26.8433 1.73625 27.0308C1.54872 27.2184 1.44336 27.4727 1.44336 27.7379C1.44336 28.0032 1.54872 28.2575 1.73625 28.445C1.92379 28.6326 2.17814 28.7379 2.44336 28.7379H30.4434C30.7086 28.7379 30.9629 28.6326 31.1505 28.445C31.338 28.2575 31.4434 28.0032 31.4434 27.7379C31.4434 27.4727 31.338 27.2184 31.1505 27.0308C30.9629 26.8433 30.7086 26.7379 30.4434 26.7379ZM19.4434 26.7379H13.4434V20.7379C13.4434 20.4727 13.5487 20.2184 13.7363 20.0308C13.9238 19.8433 14.1781 19.7379 14.4434 19.7379H18.4434C18.7086 19.7379 18.9629 19.8433 19.1505 20.0308C19.338 20.2184 19.4434 20.4727 19.4434 20.7379V26.7379Z" fill="#3879AD"/>
</g>
</svg>
