<svg width="17" height="17" viewBox="0 0 17 17" fill="none" xmlns="http://www.w3.org/2000/svg">
<g id="HouseLine">
<path id="Vector" d="M15.9453 13.2381H14.9453V7.45686C14.9457 7.31745 14.9163 7.17957 14.8592 7.05241C14.8021 6.92524 14.7185 6.8117 14.6141 6.71936L9.61406 2.17561C9.43074 2.00739 9.19099 1.91406 8.94219 1.91406C8.69338 1.91406 8.45363 2.00739 8.27031 2.17561L3.27031 6.71936C3.16794 6.81301 3.08618 6.92695 3.03023 7.05392C2.97427 7.18089 2.94536 7.31811 2.94531 7.45686V13.2381H1.94531C1.8127 13.2381 1.68553 13.2908 1.59176 13.3846C1.49799 13.4783 1.44531 13.6055 1.44531 13.7381C1.44531 13.8707 1.49799 13.9979 1.59176 14.0917C1.68553 14.1854 1.8127 14.2381 1.94531 14.2381H15.9453C16.0779 14.2381 16.2051 14.1854 16.2989 14.0917C16.3926 13.9979 16.4453 13.8707 16.4453 13.7381C16.4453 13.6055 16.3926 13.4783 16.2989 13.3846C16.2051 13.2908 16.0779 13.2381 15.9453 13.2381ZM10.4453 13.2381H7.44531V10.2381C7.44531 10.1055 7.49799 9.97832 7.59176 9.88455C7.68553 9.79079 7.8127 9.73811 7.94531 9.73811H9.94531C10.0779 9.73811 10.2051 9.79079 10.2989 9.88455C10.3926 9.97832 10.4453 10.1055 10.4453 10.2381V13.2381Z" fill="white"/>
</g>
</svg>
