<svg width="201" height="176" viewBox="0 0 201 176" fill="none" xmlns="http://www.w3.org/2000/svg">
<path d="M184.811 50.0761C214.052 62.44 192.625 115.861 177.513 129.868C162.401 143.875 122.264 151.821 96.6292 160.54C70.994 169.26 47.744 153.874 37.1283 143.79C-4.14555 104.583 -12.9774 66.9015 27.4999 34.1657C102.547 -26.5283 95.8752 12.4718 184.811 50.0761Z" fill="#AFDCFF"/>
<path d="M184.811 50.0761C214.052 62.44 192.625 115.861 177.513 129.868C162.401 143.875 122.264 151.821 96.6292 160.54C70.994 169.26 47.744 153.874 37.1283 143.79C-4.14555 104.583 -12.9774 66.9015 27.4999 34.1657C102.547 -26.5283 95.8752 12.4718 184.811 50.0761Z" fill="url(#paint0_radial_24850_88791)"/>
<path d="M90.9887 116.454C90.9886 132.078 113.487 132.078 113.487 116.454V109.51C113.487 96.9248 90.9887 96.925 90.9887 109.51V116.454Z" fill="#F1F9FF" stroke="#214766" stroke-width="1.54592" stroke-linecap="round"/>
<path d="M96.1822 130.776V127.304" stroke="#214766" stroke-width="1.54592" stroke-linecap="round"/>
<path d="M108.296 130.776V127.304" stroke="#214766" stroke-width="1.54592" stroke-linecap="round"/>
<path d="M81.0386 144.664C81.0386 136.852 81.4712 137.286 91.8549 134.248L93.6799 131.894C94.319 131.07 95.5188 131.024 96.3925 131.592C97.7821 132.495 99.4928 132.946 102.239 132.946C104.984 132.946 106.695 132.495 108.085 131.592C108.958 131.024 110.158 131.07 110.797 131.894L112.622 134.248C123.006 137.286 123.439 136.852 123.439 144.664C102.157 141.638 101.198 155.119 81.0386 144.664Z" fill="#3879AD"/>
<path d="M91.8549 134.248C81.4712 137.286 81.0386 136.852 81.0386 144.664C101.198 155.119 102.157 141.638 123.439 144.664C123.439 136.852 123.006 137.286 112.622 134.248M91.8549 134.248C92.8644 135.695 96.3545 138.588 102.239 138.588C108.123 138.588 111.613 135.695 112.622 134.248M91.8549 134.248L93.6799 131.894C94.319 131.07 95.5188 131.024 96.3925 131.592C97.7821 132.495 99.4928 132.946 102.239 132.946C104.984 132.946 106.695 132.495 108.085 131.592C108.958 131.024 110.158 131.07 110.797 131.894L112.622 134.248" stroke="#214766" stroke-width="1.54592" stroke-linecap="round"/>
<path d="M113.37 111.788V120.454C114.074 120.454 114.688 120.314 115.213 120.069C118.809 118.388 118.195 111.788 113.37 111.788Z" fill="#214766"/>
<path d="M115.213 120.069C118.809 118.388 118.195 111.788 113.37 111.788V120.454C114.074 120.454 114.688 120.314 115.213 120.069ZM115.213 120.069V122.482C115.213 124.021 113.965 125.269 112.426 125.269H105.997" stroke="#214766" stroke-width="1.54592" stroke-linecap="round" stroke-linejoin="round"/>
<path d="M90.9456 111.788V120.454C90.2416 120.454 89.6272 120.314 89.1025 120.069C85.5059 118.388 86.1203 111.788 90.9456 111.788Z" fill="#214766" stroke="#214766" stroke-width="1.54592" stroke-linecap="round" stroke-linejoin="round"/>
<path d="M90.9889 110.812L88.393 112.548C87.9604 106.906 90.9889 96.2304 106.564 98.6607C106.6 98.9667 106.615 99.2556 106.611 99.5287L108.728 99.0947C111.324 100.541 116.342 105.257 115.65 112.548L113.487 112.114C110.747 110.579 105.18 106.598 104.834 102.954C101.595 105.363 94.7244 105.504 90.9889 110.812Z" fill="#3879AD"/>
<path d="M106.611 99.5287C106.615 99.2556 106.6 98.9667 106.564 98.6607C90.9889 96.2304 87.9604 106.906 88.393 112.548L90.9889 110.812C94.7244 105.504 101.595 105.363 104.834 102.954M106.611 99.5287L108.728 99.0947C111.324 100.541 116.342 105.257 115.65 112.548L113.487 112.114C110.747 110.579 105.18 106.598 104.834 102.954M106.611 99.5287C106.585 101.103 105.91 102.153 104.834 102.954" stroke="#214766" stroke-width="1.54592" stroke-linecap="round" stroke-linejoin="round"/>
<path d="M101.374 122.097C102.239 122.965 103.97 122.965 104.835 122.097" stroke="#214766" stroke-width="1.54592" stroke-linecap="round" stroke-linejoin="round"/>
<path d="M98.777 115.153V116.021" stroke="#214766" stroke-width="1.54592" stroke-linecap="round" stroke-linejoin="round"/>
<path d="M106.565 116.021V115.153" stroke="#214766" stroke-width="1.54592" stroke-linecap="round" stroke-linejoin="round"/>
<path d="M129.621 144.887C129.787 144.244 130.441 143.866 131.08 144.044L147.105 148.486C147.744 148.663 148.128 149.329 147.961 149.972L141.968 173.113C141.801 173.756 141.148 174.134 140.509 173.956L124.484 169.514C123.844 169.337 123.461 168.671 123.628 168.028L129.621 144.887Z" fill="white"/>
<path d="M95.0155 147.756C94.9097 147.1 95.3561 146.49 96.0126 146.395L112.372 144.017C113.028 143.922 113.646 144.376 113.752 145.032L117.54 168.5C117.646 169.156 117.2 169.766 116.543 169.861L100.184 172.239C99.5277 172.334 98.9096 171.88 98.8037 171.224L95.0155 147.756Z" fill="white"/>
<path d="M130.604 154.03L136.198 155.58M141.103 150.853L143.762 151.59M132.075 148.35L138.777 150.208M131.363 151.1L143.049 154.34M133.521 167.981L139.115 169.532M99.5647 155.684L105.28 154.853M107.857 148.58L110.574 148.185M98.6344 149.92L105.481 148.925M99.0848 152.711L111.024 150.975M107.797 167.221L113.512 166.391M124.484 169.514L140.509 173.956C141.148 174.134 141.801 173.756 141.968 173.113L147.961 149.972C148.128 149.329 147.744 148.663 147.105 148.486L131.08 144.044C130.441 143.866 129.787 144.244 129.621 144.887L123.628 168.028C123.461 168.671 123.844 169.337 124.484 169.514ZM100.184 172.239L116.543 169.861C117.2 169.766 117.646 169.156 117.54 168.5L113.752 145.032C113.646 144.376 113.028 143.922 112.372 144.017L96.0126 146.395C95.3561 146.49 94.9097 147.1 95.0155 147.756L98.8037 171.224C98.9096 171.88 99.5277 172.334 100.184 172.239Z" stroke="#214766" stroke-width="1.54245" stroke-linecap="round"/>
<path d="M115.065 147.728H121.75M125.854 140.951H129.032M115.065 140.951H123.074M115.065 144.233H129.032M122.346 162.36H129.032" stroke="#214766" stroke-width="1.54245" stroke-linecap="round"/>
<path d="M112.592 137.232H131.983C132.255 137.232 132.476 137.453 132.476 137.725V165.588C132.476 165.86 132.255 166.081 131.983 166.081H112.592C112.319 166.081 112.098 165.86 112.098 165.588V137.725C112.098 137.453 112.319 137.232 112.592 137.232Z" fill="white" stroke="#214766" stroke-width="1.54245"/>
<path d="M115.065 147.728H121.75M125.854 140.951H129.032M115.065 140.951H123.074M115.065 144.233H129.032M122.346 162.36H129.032" stroke="#214766" stroke-width="1.54245" stroke-linecap="round"/>
<path d="M65.663 53.0314V49.7373L89.5688 51.4232L105.889 48.3584L108.571 51.4232L102.671 53.0314L101.139 51.4232H99.9126L97.3075 54.5647L90.335 55.3309L65.663 53.0314Z" fill="#3879AD"/>
<path d="M64.6974 49.6179L77.7157 47.7016V40.9927L76.9172 39.9545L77.7157 32.9262L89.9354 33.4853V17.5928L64.6974 20.3075V49.6179Z" fill="#3879AD"/>
<path d="M64.4059 49.7772V21.301C64.4059 20.6538 64.8946 20.1112 65.5382 20.0436L89.8593 17.4893M64.4059 49.7772L65.6934 49.8574M64.4059 49.7772L78.0038 47.6977M89.8593 51.3611L111.841 47.6977V30.1675M89.8593 51.3611L65.6934 49.8574M89.8593 51.3611V45.7169V17.4893M89.8593 17.4893L110.939 23.8001C111.474 23.9603 111.841 24.4527 111.841 25.0113V30.1675M111.841 30.1675L114.719 31.289C115.064 31.4233 115.332 31.7018 115.454 32.0511L117.285 37.3062L119.973 40.8639V47.7519C119.973 48.9718 119.102 50.0177 117.902 50.2387L89.8593 55.4025L66.8392 53.2354C66.1897 53.1743 65.6934 52.629 65.6934 51.9767V49.8574M78.0038 47.6977V40.5502M78.0038 47.6977L85.3328 48.5891M78.0038 40.5502L77.079 40.2697V33.0397H83.4256M78.0038 40.5502L83.4256 41.2954M85.3328 48.5891V41.5428L83.4256 41.2954M85.3328 48.5891L90.0867 47.6977M83.4256 33.0397V41.2954M83.4256 33.0397L89.8593 33.4517M83.4256 41.2954L89.8593 40.8639" stroke="#214766" stroke-width="1.54245" stroke-linejoin="round"/>
<path d="M103.188 56.1403C103.188 57.6859 102.825 59.0472 102.278 59.9956C101.72 60.9646 101.064 61.3659 100.503 61.3659C99.9412 61.3659 99.2855 60.9646 98.727 59.9956C98.1805 59.0472 97.8178 57.6859 97.8178 56.1403C97.8178 54.5948 98.1805 53.2334 98.727 52.2851C99.2855 51.3161 99.9412 50.9148 100.503 50.9148C101.064 50.9148 101.72 51.3161 102.278 52.2851C102.825 53.2334 103.188 54.5948 103.188 56.1403Z" fill="white" stroke="#214766" stroke-width="1.54245"/>
<path d="M81.5832 54.2305C81.5832 56.3402 80.5975 58.0505 79.3816 58.0505C78.1656 58.0505 77.1799 56.3402 77.1799 54.2305" stroke="#214766" stroke-width="1.54245"/>
<path d="M116.411 52.3909C116.411 53.5682 116.179 54.5875 115.847 55.2771C115.483 56.0341 115.163 56.106 115.114 56.106C115.066 56.106 114.746 56.0341 114.381 55.2771C114.049 54.5875 113.818 53.5682 113.818 52.3909C113.818 51.2136 114.049 50.1943 114.381 49.5047C114.746 48.7476 115.066 48.6758 115.114 48.6758C115.163 48.6758 115.483 48.7476 115.847 49.5047C116.179 50.1943 116.411 51.2136 116.411 52.3909Z" fill="white" stroke="#214766" stroke-width="1.89645"/>
<path d="M79.0527 58.041L76.8927 57.5611M76.8927 57.5611C76.5993 57.3213 75.5644 56.7295 75.3724 54.3613M76.8927 57.5611L76.3257 54.6057" stroke="#214766" stroke-width="1.54245" stroke-linejoin="round"/>
<path d="M100.576 61.2C99.3716 61.2 97.7965 61.2 97.2264 60.603C96.7684 60.1235 95.7732 58.4868 96.2881 54.0127" stroke="#214766" stroke-width="2.02288" stroke-linejoin="round"/>
<path d="M115.241 56.1024C114.595 56.1024 113.749 56.1024 113.443 55.6683C113.197 55.3196 112.795 54.2063 112.882 50.9316" stroke="#214766" stroke-width="1.89645" stroke-linejoin="round"/>
<path d="M120.443 44.4857L120.158 39.8779L108.427 41.3985L105.72 44.0107L104.295 45.3406L104.865 47.1454L105.72 47.9053L106.86 50.5176L109.092 52.2749L109.424 54.7446L110.944 57.4519L114.459 58.5442C114.965 58.4018 116.064 58.0598 116.406 57.8318C116.748 57.6038 116.865 55.6787 116.881 54.7446L117.166 52.9873V51.515L119.398 50.5176L120.158 48.2378L121.393 47.1454V45.3406L120.443 44.4857Z" fill="white"/>
<path d="M120.09 41.3854C120.09 43.0735 120.09 43.3439 120.09 44.2619C120.09 44.2737 120.099 44.2836 120.111 44.2836V44.2836C120.84 44.2836 121.43 44.8743 121.43 45.603L121.43 46.5188C121.43 47.2251 120.858 47.7976 120.152 47.7976V47.7976C120.117 47.7976 120.09 47.8269 120.089 47.8611C119.997 54.3024 105.815 54.3025 105.723 47.8832C105.722 47.8489 105.695 47.8193 105.66 47.8187V47.8187C104.952 47.807 104.384 47.2294 104.384 46.5209V45.6005C104.384 44.8732 104.974 44.2836 105.701 44.2836V44.2836C105.713 44.2836 105.722 44.2741 105.722 44.2623V39.8711" stroke="#214766" stroke-width="1.54592" stroke-linecap="round" stroke-linejoin="round"/>
<path d="M116.901 55.5124L116.773 52.1338" stroke="#214766" stroke-width="1.54592" stroke-linecap="round"/>
<path d="M109.037 54.398V52.5215" stroke="#214766" stroke-width="1.54592" stroke-linecap="round"/>
<path d="M117.687 54.4223C117.876 54.4581 118.053 54.5367 118.203 54.661C118.326 54.7627 118.44 54.8777 118.574 54.9635L121.709 56.9632C126.231 58.2824 126.444 60.6157 126.444 64.9818C119.642 68.5031 116.642 68.1445 112.963 66.9495C109.679 65.8826 105.776 64.0721 99.3666 64.9818C99.3666 60.6871 99.5721 58.2941 103.883 57.0272L107.225 54.9661C107.367 54.8786 107.486 54.759 107.615 54.654C108.043 54.3074 108.686 54.3261 109.172 54.6409C109.801 55.0488 110.021 56.3208 111.019 57.0272L114.92 58.9944C115.399 58.0805 116.828 57.2854 116.835 55.7159C116.838 55.0722 117.055 54.3018 117.687 54.4223Z" fill="#3879AD"/>
<path d="M118.203 54.661L118.696 54.0654L118.696 54.0654L118.203 54.661ZM117.687 54.4223L117.832 53.663V53.663L117.687 54.4223ZM107.615 54.654L108.102 55.2546L108.102 55.2546L107.615 54.654ZM109.172 54.6409L108.751 55.2894V55.2894L109.172 54.6409ZM99.3666 64.9818L99.4752 65.7471L98.5936 65.8723V64.9818H99.3666ZM103.883 57.0272L104.288 57.6851L104.2 57.7395L104.1 57.7688L103.883 57.0272ZM126.444 64.9818H127.217V65.4521L126.799 65.6683L126.444 64.9818ZM121.709 56.9632L121.493 57.7053L121.387 57.6743L121.294 57.6149L121.709 56.9632ZM111.019 57.0272L110.67 57.7173L110.619 57.6913L110.572 57.6579L111.019 57.0272ZM112.963 66.9495L113.201 66.2143L112.963 66.9495ZM118.574 54.9635L118.158 55.6152V55.6152L118.574 54.9635ZM107.225 54.9661L107.631 55.624L107.631 55.624L107.225 54.9661ZM114.92 58.9944L115.604 59.3532L115.251 60.0272L114.572 59.6846L114.92 58.9944ZM116.835 55.7159L117.608 55.7195V55.7195L116.835 55.7159ZM117.711 55.2566C117.669 55.2223 117.614 55.1952 117.543 55.1815L117.832 53.663C118.137 53.721 118.437 53.851 118.696 54.0654L117.711 55.2566ZM107.129 54.0535C107.869 53.4534 108.887 53.5352 109.592 53.9924L108.751 55.2894C108.485 55.1169 108.217 55.1614 108.102 55.2546L107.129 54.0535ZM98.5936 64.9818C98.5936 62.8724 98.6324 61.0221 99.3049 59.5482C100.019 57.984 101.376 56.9581 103.665 56.2856L104.1 57.7688C102.078 58.3632 101.178 59.1673 100.711 60.19C100.203 61.303 100.14 62.7965 100.14 64.9818H98.5936ZM125.671 64.9818C125.671 62.7586 125.604 61.2705 125.075 60.1632C124.587 59.1419 123.637 58.3308 121.493 57.7053L121.926 56.2212C124.304 56.9148 125.721 57.93 126.47 59.4967C127.177 60.9773 127.217 62.8389 127.217 64.9818H125.671ZM109.592 53.9924C109.88 54.1791 110.082 54.4371 110.229 54.6587C110.374 54.877 110.514 55.1361 110.63 55.3418C110.885 55.7931 111.119 56.1511 111.465 56.3964L110.572 57.6579C109.921 57.1969 109.546 56.5657 109.284 56.1024C109.142 55.8508 109.046 55.6714 108.942 55.5144C108.839 55.3607 108.778 55.3068 108.751 55.2894L109.592 53.9924ZM99.258 64.2166C105.88 63.2767 109.966 65.1634 113.201 66.2143L112.724 67.6846C109.391 66.6018 105.673 64.8676 99.4752 65.7471L99.258 64.2166ZM113.201 66.2143C114.999 66.7981 116.551 67.1511 118.457 66.965C120.38 66.7772 122.731 66.0333 126.088 64.2954L126.799 65.6683C123.354 67.4517 120.804 68.2891 118.607 68.5036C116.393 68.7197 114.606 68.2959 112.724 67.6846L113.201 66.2143ZM121.294 57.6149L118.158 55.6152L118.99 54.3118L122.125 56.3116L121.294 57.6149ZM107.631 55.624L104.288 57.6851L103.477 56.3692L106.819 54.3082L107.631 55.624ZM114.572 59.6846L110.67 57.7173L111.367 56.337L115.268 58.3042L114.572 59.6846ZM117.608 55.7195C117.603 56.764 117.116 57.5258 116.652 58.0915C116.432 58.3589 116.172 58.6335 115.999 58.8297C115.803 59.0509 115.678 59.2131 115.604 59.3532L114.235 58.6356C114.401 58.3187 114.634 58.0389 114.841 57.8049C115.071 57.5459 115.258 57.3524 115.457 57.1105C115.829 56.6578 116.06 56.2373 116.062 55.7123L117.608 55.7195ZM108.102 55.2546C108.062 55.2867 107.826 55.5038 107.631 55.624L106.819 54.3082C106.908 54.2535 106.909 54.2312 107.129 54.0535L108.102 55.2546ZM117.543 55.1815C117.542 55.1815 117.547 55.1824 117.556 55.1826C117.565 55.1828 117.578 55.1823 117.593 55.1798C117.626 55.1745 117.658 55.1626 117.685 55.1465C117.735 55.1162 117.735 55.0925 117.712 55.138C117.689 55.1821 117.661 55.2587 117.64 55.3698C117.62 55.4781 117.609 55.5992 117.608 55.7195L116.062 55.7123C116.064 55.3305 116.126 54.8383 116.339 54.4271C116.449 54.2145 116.622 53.9806 116.891 53.8196C117.176 53.6491 117.504 53.6004 117.832 53.663L117.543 55.1815ZM118.696 54.0654C118.904 54.2373 118.906 54.2583 118.99 54.3118L118.158 55.6152C117.973 55.4971 117.749 55.288 117.711 55.2566L118.696 54.0654Z" fill="#214766"/>
<path d="M115.463 49.4814C114.91 50.0347 113.805 50.0347 113.253 49.4814" stroke="#214766" stroke-width="1.54592" stroke-linecap="round" stroke-linejoin="round"/>
<path d="M117.121 45.0551V45.6084" stroke="#214766" stroke-width="1.54592" stroke-linecap="round" stroke-linejoin="round"/>
<path d="M112.148 45.6084V45.0551" stroke="#214766" stroke-width="1.54592" stroke-linecap="round" stroke-linejoin="round"/>
<path d="M108.407 65.3211C108.407 61.9607 107.711 59.0518 105.722 55.912L107.685 55.124C110.025 58.8078 110.958 60.2805 112.049 66.1992L108.407 65.3211Z" fill="#214766"/>
<path d="M122.934 66.4461C123.042 62.2692 122.489 60.0374 121.005 56.13L118.498 55.126C119.808 59.9595 120.303 62.6525 119.926 67.4502L122.934 66.4461Z" fill="#214766"/>
<path d="M122.549 39.3329C123.751 39.6425 124.327 40.5779 124.327 42.7106C124.088 45.2625 121.598 43.8384 120.394 42.4394V39.6425C116.349 41.1788 113.433 47.3317 109.25 42.7106L108.733 42.1114C108.353 42.3945 107.958 42.7357 107.575 43.0926C106.711 43.8968 105.213 43.3164 105.335 42.1427C105.608 39.508 106.364 36.9895 108.388 35.8442C110.621 34.5801 112.821 34.1689 115.199 34.9973C117.101 35.6596 118.814 36.7812 119.832 38.8963L120.305 38.896C120.72 38.8665 121.751 38.9125 122.549 39.3329Z" fill="#3879AD"/>
<path d="M122.549 39.3329C123.751 39.6425 124.327 40.5779 124.327 42.7106C124.088 45.2625 121.598 43.8384 120.394 42.4394V39.6425M122.549 39.3329C121.791 39.2556 121.077 39.3834 120.394 39.6425M122.549 39.3329C121.751 38.9125 120.72 38.8665 120.305 38.896L119.832 38.8963M119.832 38.8963C118.814 36.7812 117.101 35.6596 115.199 34.9973C112.821 34.1689 110.621 34.5801 108.388 35.8442C106.364 36.9895 105.608 39.508 105.335 42.1427C105.213 43.3164 106.711 43.8968 107.575 43.0926C107.958 42.7357 108.353 42.3945 108.733 42.1114M119.832 38.8963L119.449 38.932C114.259 38.932 111.028 40.4001 108.733 42.1114M108.733 42.1114L109.25 42.7106C113.433 47.3317 116.349 41.1788 120.394 39.6425" stroke="#214766" stroke-width="1.89645" stroke-linecap="round"/>
<path d="M122.133 43.7743C122.025 43.7736 120.998 42.9854 120.498 42.5914L120.095 39.1721L121.439 38.957L123.521 39.1721L124.327 40.44V41.9898C124.327 42.1189 124.237 42.9578 124.215 43.0653C124.192 43.1729 123.207 43.7743 122.983 43.7743C122.76 43.7743 122.267 43.7752 122.133 43.7743Z" fill="#214766"/>
<path d="M139.217 90.2452V86.9511L163.123 88.6371L179.443 85.5723L182.125 88.6371L176.225 90.2452L174.692 88.6371H173.466L170.861 91.7785L163.889 92.5447L139.217 90.2452Z" fill="#3879AD"/>
<path d="M138.251 86.8317L151.27 84.9155V78.2066L150.471 77.1683L151.27 70.1401L163.489 70.6991V54.8066L138.251 57.5214V86.8317Z" fill="#3879AD"/>
<path d="M137.96 86.9911V58.5148C137.96 57.8677 138.448 57.325 139.092 57.2574L163.413 54.7031M137.96 86.9911L139.247 87.0712M137.96 86.9911L151.558 84.9116M163.413 88.575L185.395 84.9116V67.3814M163.413 88.575L139.247 87.0712M163.413 88.575V82.9308V54.7031M163.413 54.7031L184.493 61.0139C185.028 61.1741 185.395 61.6665 185.395 62.2251V67.3814M185.395 67.3814L188.273 68.5029C188.618 68.6372 188.886 68.9157 189.008 69.265L190.838 74.5201L193.527 78.0778V84.9657C193.527 86.1856 192.656 87.2316 191.456 87.4525L163.413 92.6164L140.393 90.4493C139.744 90.3882 139.247 89.8429 139.247 89.1906V87.0712M151.558 84.9116V77.7641M151.558 84.9116L158.887 85.8029M151.558 77.7641L150.633 77.4835V70.2536H156.979M151.558 77.7641L156.979 78.5093M158.887 85.8029V78.7567L156.979 78.5093M158.887 85.8029L163.641 84.9116M156.979 70.2536V78.5093M156.979 70.2536L163.413 70.6656M156.979 78.5093L163.413 78.0778" stroke="#214766" stroke-width="1.54245" stroke-linejoin="round"/>
<path d="M176.741 93.3542C176.741 94.8997 176.379 96.2611 175.832 97.2095C175.274 98.1784 174.618 98.5798 174.057 98.5798C173.495 98.5798 172.839 98.1784 172.281 97.2095C171.734 96.2611 171.372 94.8997 171.372 93.3542C171.372 91.8087 171.734 90.4473 172.281 89.4989C172.839 88.53 173.495 88.1286 174.057 88.1286C174.618 88.1286 175.274 88.53 175.832 89.4989C176.379 90.4473 176.741 91.8087 176.741 93.3542Z" fill="white" stroke="#214766" stroke-width="1.54245"/>
<path d="M155.137 91.4443C155.137 93.5541 154.151 95.2644 152.935 95.2644C151.719 95.2644 150.734 93.5541 150.734 91.4443" stroke="#214766" stroke-width="1.54245"/>
<path d="M189.965 89.6047C189.965 90.7821 189.733 91.8014 189.401 92.4909C189.037 93.248 188.716 93.3199 188.668 93.3199C188.62 93.3199 188.3 93.248 187.935 92.4909C187.603 91.8014 187.372 90.7821 187.372 89.6047C187.372 88.4274 187.603 87.4081 187.935 86.7186C188.3 85.9615 188.62 85.8896 188.668 85.8896C188.716 85.8896 189.037 85.9615 189.401 86.7186C189.733 87.4081 189.965 88.4274 189.965 89.6047Z" fill="white" stroke="#214766" stroke-width="1.89645"/>
<path d="M152.607 95.2549L150.447 94.775M150.447 94.775C150.153 94.5351 149.118 93.9433 148.926 91.5752M150.447 94.775L149.88 91.8195" stroke="#214766" stroke-width="1.54245" stroke-linejoin="round"/>
<path d="M174.13 98.4139C172.926 98.4139 171.35 98.4139 170.78 97.8169C170.322 97.3374 169.327 95.7007 169.842 91.2266" stroke="#214766" stroke-width="2.02288" stroke-linejoin="round"/>
<path d="M188.795 93.3163C188.148 93.3163 187.303 93.3163 186.997 92.8822C186.751 92.5334 186.349 91.4202 186.435 88.1455" stroke="#214766" stroke-width="1.89645" stroke-linejoin="round"/>
<path d="M193.996 81.6996L193.712 77.0918L181.98 78.6124L179.273 81.2246L177.848 82.5545L178.418 84.3593L179.273 85.1192L180.413 87.7314L182.645 89.4888L182.978 91.9585L184.498 94.6657L188.012 95.7581C188.519 95.6156 189.618 95.2737 189.96 95.0457C190.301 94.8177 190.419 92.8926 190.434 91.9585L190.719 90.2012V88.7288L192.952 87.7314L193.712 85.4517L194.947 84.3593V82.5545L193.996 81.6996Z" fill="white"/>
<path d="M193.643 78.5992C193.643 80.2873 193.643 80.5578 193.643 81.4758C193.643 81.4875 193.653 81.4974 193.665 81.4974V81.4974C194.393 81.4974 194.984 82.0882 194.984 82.8168L194.984 83.7327C194.984 84.4389 194.411 85.0114 193.705 85.0114V85.0114C193.671 85.0114 193.643 85.0408 193.643 85.075C193.55 91.5163 179.369 91.5164 179.276 85.097C179.276 85.0628 179.248 85.0332 179.214 85.0326V85.0326C178.506 85.0209 177.938 84.4433 177.938 83.7348V82.8144C177.938 82.0871 178.527 81.4974 179.255 81.4974V81.4974C179.266 81.4974 179.276 81.4879 179.276 81.4762V77.085" stroke="#214766" stroke-width="1.54592" stroke-linecap="round" stroke-linejoin="round"/>
<path d="M190.454 92.7262L190.327 89.3477" stroke="#214766" stroke-width="1.54592" stroke-linecap="round"/>
<path d="M182.591 91.6119V89.7353" stroke="#214766" stroke-width="1.54592" stroke-linecap="round"/>
<path d="M191.241 91.6361C191.429 91.672 191.607 91.7505 191.757 91.8748C191.88 91.9765 191.993 92.0916 192.128 92.1774L195.263 94.1771C199.785 95.4963 199.997 97.8296 199.997 102.196C193.195 105.717 190.195 105.358 186.516 104.163C183.232 103.096 179.33 101.286 172.92 102.196C172.92 97.901 173.126 95.508 177.436 94.241L180.779 92.18C180.92 92.0925 181.039 91.9728 181.169 91.8679C181.597 91.5213 182.24 91.5399 182.725 91.8548C183.354 92.2627 183.575 93.5347 184.572 94.241L188.473 96.2083C188.952 95.2944 190.382 94.4993 190.389 92.9298C190.392 92.2861 190.609 91.5156 191.241 91.6361Z" fill="#3879AD"/>
<path d="M191.757 91.8748L192.25 91.2793L192.25 91.2793L191.757 91.8748ZM191.241 91.6361L191.386 90.8768V90.8768L191.241 91.6361ZM181.169 91.8679L181.656 92.4684L181.656 92.4684L181.169 91.8679ZM182.725 91.8548L182.305 92.5033V92.5033L182.725 91.8548ZM172.92 102.196L173.029 102.961L172.147 103.086V102.196H172.92ZM177.436 94.241L177.842 94.899L177.754 94.9534L177.654 94.9826L177.436 94.241ZM199.997 102.196H200.77V102.666L200.353 102.882L199.997 102.196ZM195.263 94.1771L195.047 94.9191L194.941 94.8882L194.847 94.8288L195.263 94.1771ZM184.572 94.241L184.224 94.9312L184.172 94.9052L184.125 94.8718L184.572 94.241ZM186.516 104.163L186.755 103.428L186.516 104.163ZM192.128 92.1774L191.712 92.829V92.829L192.128 92.1774ZM180.779 92.18L181.184 92.8379L181.184 92.8379L180.779 92.18ZM188.473 96.2083L189.158 96.5671L188.805 97.2411L188.125 96.8984L188.473 96.2083ZM190.389 92.9298L191.162 92.9334V92.9334L190.389 92.9298ZM191.264 92.4704C191.223 92.4362 191.168 92.4091 191.096 92.3954L191.386 90.8768C191.691 90.9349 191.991 91.0649 192.25 91.2793L191.264 92.4704ZM180.682 91.2674C181.423 90.6673 182.441 90.749 183.146 91.2063L182.305 92.5033C182.039 92.3308 181.771 92.3753 181.656 92.4684L180.682 91.2674ZM172.147 102.196C172.147 100.086 172.186 98.236 172.859 96.7621C173.572 95.1979 174.93 94.172 177.218 93.4994L177.654 94.9826C175.632 95.577 174.732 96.3811 174.265 97.4038C173.757 98.5169 173.693 100.01 173.693 102.196H172.147ZM199.224 102.196C199.224 99.9725 199.158 98.4844 198.628 97.3771C198.14 96.3558 197.191 95.5447 195.047 94.9191L195.48 93.4351C197.857 94.1287 199.275 95.1438 200.023 96.7105C200.731 98.1912 200.77 100.053 200.77 102.196H199.224ZM183.146 91.2063C183.434 91.3929 183.635 91.651 183.783 91.8726C183.928 92.0908 184.067 92.35 184.184 92.5557C184.439 93.007 184.673 93.3649 185.019 93.6103L184.125 94.8718C183.474 94.4107 183.099 93.7795 182.838 93.3163C182.695 93.0647 182.6 92.8852 182.495 92.7282C182.393 92.5745 182.331 92.5206 182.305 92.5033L183.146 91.2063ZM172.812 101.43C179.434 100.491 183.52 102.377 186.755 103.428L186.277 104.898C182.944 103.816 179.226 102.081 173.029 102.961L172.812 101.43ZM186.755 103.428C188.552 104.012 190.104 104.365 192.011 104.179C193.934 103.991 196.285 103.247 199.642 101.509L200.353 102.882C196.908 104.666 194.358 105.503 192.161 105.717C189.947 105.934 188.159 105.51 186.277 104.898L186.755 103.428ZM194.847 94.8288L191.712 92.829L192.543 91.5257L195.679 93.5254L194.847 94.8288ZM181.184 92.8379L177.842 94.899L177.03 93.5831L180.373 91.5221L181.184 92.8379ZM188.125 96.8984L184.224 94.9312L184.92 93.5509L188.821 95.5181L188.125 96.8984ZM191.162 92.9334C191.157 93.9779 190.67 94.7397 190.205 95.3054C189.986 95.5727 189.726 95.8474 189.552 96.0435C189.356 96.2648 189.231 96.427 189.158 96.5671L187.789 95.8495C187.955 95.5326 188.188 95.2527 188.395 95.0188C188.624 94.7598 188.812 94.5662 189.011 94.3243C189.382 93.8717 189.613 93.4512 189.616 92.9262L191.162 92.9334ZM181.656 92.4684C181.616 92.5005 181.379 92.7177 181.184 92.8379L180.373 91.5221C180.462 91.4673 180.463 91.4451 180.682 91.2674L181.656 92.4684ZM191.096 92.3954C191.096 92.3954 191.101 92.3963 191.11 92.3965C191.119 92.3967 191.132 92.3961 191.147 92.3937C191.179 92.3884 191.211 92.3764 191.238 92.3603C191.289 92.3301 191.289 92.3063 191.265 92.3518C191.242 92.3959 191.215 92.4726 191.194 92.5837C191.173 92.692 191.162 92.8131 191.162 92.9334L189.616 92.9262C189.618 92.5443 189.68 92.0522 189.893 91.6409C190.003 91.4284 190.176 91.1944 190.445 91.0335C190.73 90.863 191.057 90.8142 191.386 90.8768L191.096 92.3954ZM192.25 91.2793C192.458 91.4512 192.459 91.4722 192.543 91.5257L191.712 92.829C191.527 92.711 191.302 92.5019 191.264 92.4704L192.25 91.2793Z" fill="#214766"/>
<path d="M189.016 86.6953C188.464 87.2486 187.359 87.2486 186.806 86.6953" stroke="#214766" stroke-width="1.54592" stroke-linecap="round" stroke-linejoin="round"/>
<path d="M190.675 82.2699V82.8232" stroke="#214766" stroke-width="1.54592" stroke-linecap="round" stroke-linejoin="round"/>
<path d="M185.701 82.8232V82.2699" stroke="#214766" stroke-width="1.54592" stroke-linecap="round" stroke-linejoin="round"/>
<path d="M181.96 102.536C181.96 99.1755 181.265 96.2666 179.276 93.1268L181.239 92.3389C183.579 96.0227 184.511 97.4953 185.603 103.414L181.96 102.536Z" fill="#214766"/>
<path d="M196.488 103.661C196.595 99.484 196.042 97.2522 194.559 93.3448L192.052 92.3408C193.362 97.1743 193.857 99.8674 193.48 104.665L196.488 103.661Z" fill="#214766"/>
<path d="M196.103 76.5467C197.305 76.8563 197.881 77.7917 197.881 79.9245C197.642 82.4764 195.151 81.0522 193.948 79.6533V76.8563C189.903 78.3927 186.987 84.5456 182.804 79.9245L182.287 79.3252C181.907 79.6083 181.512 79.9496 181.129 80.3064C180.265 81.1106 178.767 80.5303 178.889 79.3566C179.162 76.7219 179.918 74.2034 181.942 73.058C184.175 71.794 186.375 71.3827 188.753 72.2112C190.655 72.8735 192.368 73.9951 193.386 76.1102L193.859 76.1099C194.274 76.0804 195.304 76.1264 196.103 76.5467Z" fill="#3879AD"/>
<path d="M196.103 76.5467C197.305 76.8563 197.881 77.7917 197.881 79.9245C197.642 82.4764 195.151 81.0522 193.948 79.6533V76.8563M196.103 76.5467C195.345 76.4694 194.63 76.5972 193.948 76.8563M196.103 76.5467C195.304 76.1264 194.274 76.0804 193.859 76.1099L193.386 76.1102M193.386 76.1102C192.368 73.9951 190.655 72.8735 188.753 72.2112C186.375 71.3827 184.175 71.794 181.942 73.058C179.918 74.2034 179.162 76.7219 178.889 79.3566C178.767 80.5303 180.265 81.1106 181.129 80.3064C181.512 79.9496 181.907 79.6083 182.287 79.3252M193.386 76.1102L193.003 76.1459C187.813 76.1459 184.582 77.6139 182.287 79.3252M182.287 79.3252L182.804 79.9245C186.987 84.5456 189.903 78.3927 193.948 76.8563" stroke="#214766" stroke-width="1.89645" stroke-linecap="round"/>
<path d="M195.687 80.9882C195.579 80.9875 194.552 80.1993 194.052 79.8052L193.649 76.386L194.993 76.1709L197.075 76.386L197.881 77.6539V79.2037C197.881 79.3327 197.791 80.1716 197.769 80.2792C197.746 80.3867 196.761 80.9882 196.537 80.9882C196.313 80.9882 195.821 80.989 195.687 80.9882Z" fill="#214766"/>
<path d="M2.27576 83.9308V80.6367L26.1816 82.3226L42.5017 79.2578L45.1834 82.3226L39.2837 83.9308L37.7512 82.3226H36.5253L33.9202 85.4641L26.9478 86.2303L2.27576 83.9308Z" fill="#3879AD"/>
<path d="M1.3103 80.5163L14.3286 78.6001V71.8912L13.5301 70.8529L14.3286 63.8246L26.5483 64.3837V48.4912L1.3103 51.206V80.5163Z" fill="#3879AD"/>
<path d="M1.01904 80.6767V52.2004C1.01904 51.5532 1.5077 51.0106 2.15129 50.943L26.4724 48.3887M1.01904 80.6767L2.30648 80.7568M1.01904 80.6767L14.6169 78.5971M26.4724 82.2606L48.4541 78.5971V61.0669M26.4724 82.2606L2.30648 80.7568M26.4724 82.2606V76.6163V48.3887M26.4724 48.3887L47.5524 54.6995C48.0875 54.8597 48.4541 55.3521 48.4541 55.9107V61.0669M48.4541 61.0669L51.3322 62.1884C51.6769 62.3227 51.9455 62.6012 52.0671 62.9506L53.8976 68.2056L56.5862 71.7633V78.6513C56.5862 79.8712 55.7153 80.9172 54.5155 81.1381L26.4724 86.3019L3.45229 84.1348C2.80281 84.0737 2.30648 83.5285 2.30648 82.8761V80.7568M14.6169 78.5971V71.4496M14.6169 78.5971L21.9459 79.4885M14.6169 71.4496L13.6921 71.1691V63.9391H20.0387M14.6169 71.4496L20.0387 72.1948M21.9459 79.4885V72.4422L20.0387 72.1948M21.9459 79.4885L26.6998 78.5971M20.0387 63.9391V72.1948M20.0387 63.9391L26.4724 64.3511M20.0387 72.1948L26.4724 71.7633" stroke="#214766" stroke-width="1.54245" stroke-linejoin="round"/>
<path d="M39.8006 87.0398C39.8006 88.5853 39.4379 89.9467 38.8913 90.895C38.3329 91.864 37.6772 92.2653 37.1156 92.2653C36.5541 92.2653 35.8984 91.864 35.34 90.895C34.7934 89.9467 34.4307 88.5853 34.4307 87.0398C34.4307 85.4942 34.7934 84.1329 35.34 83.1845C35.8984 82.2155 36.5541 81.8142 37.1156 81.8142C37.6772 81.8142 38.3329 82.2155 38.8913 83.1845C39.4379 84.1329 39.8006 85.4942 39.8006 87.0398Z" fill="white" stroke="#214766" stroke-width="1.54245"/>
<path d="M18.196 85.1279C18.196 87.2377 17.2103 88.948 15.9944 88.948C14.7784 88.948 13.7927 87.2377 13.7927 85.1279" stroke="#214766" stroke-width="1.54245"/>
<path d="M53.0238 83.2903C53.0238 84.4676 52.7921 85.4869 52.4601 86.1765C52.0957 86.9335 51.7754 87.0054 51.7272 87.0054C51.6789 87.0054 51.3587 86.9335 50.9942 86.1765C50.6623 85.4869 50.4306 84.4676 50.4306 83.2903C50.4306 82.113 50.6623 81.0937 50.9942 80.4041C51.3587 79.647 51.6789 79.5752 51.7272 79.5752C51.7754 79.5752 52.0957 79.647 52.4601 80.4041C52.7921 81.0937 53.0238 82.113 53.0238 83.2903Z" fill="white" stroke="#214766" stroke-width="1.89645"/>
<path d="M15.6655 88.9395L13.5056 88.4596M13.5056 88.4596C13.2122 88.2197 12.1772 87.6279 11.9852 85.2598M13.5056 88.4596L12.9385 85.5041" stroke="#214766" stroke-width="1.54245" stroke-linejoin="round"/>
<path d="M37.189 92.0994C35.9845 92.0994 34.4095 92.0994 33.8394 91.5025C33.3814 91.0229 32.3862 89.3862 32.9011 84.9121" stroke="#214766" stroke-width="2.02288" stroke-linejoin="round"/>
<path d="M51.8542 87.0009C51.2074 87.0009 50.3616 87.0009 50.0555 86.5667C49.8096 86.218 49.408 85.1048 49.4943 81.8301" stroke="#214766" stroke-width="1.89645" stroke-linejoin="round"/>
<path d="M57.0556 75.3851L56.7707 70.7773L45.0394 72.2979L42.3322 74.9101L40.9073 76.24L41.4773 78.0448L42.3322 78.8047L43.4721 81.417L45.7043 83.1743L46.0368 85.644L47.5566 88.3513L51.0713 89.4437C51.5779 89.3012 52.6766 88.9592 53.0186 88.7312C53.3606 88.5033 53.4777 86.5781 53.4935 85.644L53.7785 83.8867V82.4144L56.0108 81.417L56.7707 79.1372L58.0056 78.0448V76.24L57.0556 75.3851Z" fill="white"/>
<path d="M56.7021 72.2838C56.7021 73.9719 56.7021 74.2424 56.7021 75.1604C56.7021 75.1721 56.7116 75.182 56.7234 75.182V75.182C57.4521 75.182 58.0428 75.7727 58.0428 76.5014L58.0427 77.4173C58.0427 78.1235 57.4702 78.696 56.764 78.696V78.696C56.7298 78.696 56.7021 78.7254 56.7016 78.7595C56.609 85.2008 42.4278 85.2009 42.3351 78.7816C42.3346 78.7473 42.3071 78.7178 42.2728 78.7172V78.7172C41.5645 78.7054 40.9964 78.1278 40.9964 77.4194V76.499C40.9964 75.7716 41.586 75.182 42.3134 75.182V75.182C42.3251 75.182 42.3346 75.1725 42.3346 75.1608V70.7695" stroke="#214766" stroke-width="1.54592" stroke-linecap="round" stroke-linejoin="round"/>
<path d="M53.5132 86.4108L53.3856 83.0322" stroke="#214766" stroke-width="1.54592" stroke-linecap="round"/>
<path d="M45.6496 85.2954V83.4189" stroke="#214766" stroke-width="1.54592" stroke-linecap="round"/>
<path d="M54.2997 85.3207C54.4879 85.3566 54.6654 85.4351 54.8157 85.5594C54.9386 85.6611 55.0518 85.7761 55.1863 85.8619L58.3217 87.8617C62.8436 89.1808 63.056 91.5142 63.056 95.8803C56.2541 99.4016 53.2539 99.043 49.5749 97.8479C46.2908 96.7811 42.3887 94.9706 35.9788 95.8803C35.9788 91.5855 36.1843 89.1926 40.4948 87.9256L43.8372 85.8646C43.9791 85.7771 44.0981 85.6574 44.2276 85.5525C44.6553 85.2058 45.2985 85.2245 45.784 85.5394C46.4129 85.9473 46.6335 87.2192 47.6308 87.9256L51.5319 89.8928C52.0108 88.9789 53.4402 88.1839 53.4475 86.6144C53.4506 85.9707 53.6673 85.2002 54.2997 85.3207Z" fill="#3879AD"/>
<path d="M54.8157 85.5594L55.3084 84.9638L55.3084 84.9638L54.8157 85.5594ZM54.2997 85.3207L54.4444 84.5614V84.5614L54.2997 85.3207ZM44.2276 85.5525L44.7142 86.153L44.7142 86.153L44.2276 85.5525ZM45.784 85.5394L45.3634 86.1879V86.1879L45.784 85.5394ZM35.9788 95.8803L36.0874 96.6456L35.2059 96.7707V95.8803H35.9788ZM40.4948 87.9256L40.9005 88.5835L40.8122 88.638L40.7127 88.6672L40.4948 87.9256ZM63.056 95.8803H63.8289V96.3505L63.4113 96.5667L63.056 95.8803ZM58.3217 87.8617L58.1052 88.6037L57.9992 88.5728L57.906 88.5134L58.3217 87.8617ZM47.6308 87.9256L47.2827 88.6158L47.2311 88.5898L47.184 88.5564L47.6308 87.9256ZM49.5749 97.8479L49.8137 97.1127L49.5749 97.8479ZM55.1863 85.8619L54.7707 86.5136V86.5136L55.1863 85.8619ZM43.8372 85.8646L44.2429 86.5225L44.2429 86.5225L43.8372 85.8646ZM51.5319 89.8928L52.2165 90.2516L51.8633 90.9256L51.1838 90.583L51.5319 89.8928ZM53.4475 86.6144L54.2205 86.618V86.618L53.4475 86.6144ZM54.323 86.155C54.2816 86.1208 54.2267 86.0936 54.155 86.08L54.4444 84.5614C54.7492 84.6195 55.0492 84.7494 55.3084 84.9638L54.323 86.155ZM43.7409 84.9519C44.4814 84.3519 45.4996 84.4336 46.2046 84.8909L45.3634 86.1879C45.0974 86.0154 44.8292 86.0598 44.7142 86.153L43.7409 84.9519ZM35.2059 95.8803C35.2059 93.7709 35.2446 91.9205 35.9172 90.4467C36.6309 88.8824 37.9886 87.8566 40.2768 87.184L40.7127 88.6672C38.6905 89.2616 37.7902 90.0657 37.3236 91.0884C36.8157 92.2014 36.7518 93.6949 36.7518 95.8803H35.2059ZM62.283 95.8803C62.283 93.6571 62.2162 92.169 61.6871 91.0616C61.1991 90.0404 60.2495 89.2293 58.1052 88.6037L58.5382 87.1197C60.9158 87.8133 62.3333 88.8284 63.082 90.3951C63.7895 91.8758 63.8289 93.7374 63.8289 95.8803H62.283ZM46.2046 84.8909C46.4923 85.0775 46.6941 85.3356 46.8414 85.5571C46.9865 85.7754 47.126 86.0346 47.2422 86.2403C47.4972 86.6916 47.7312 87.0495 48.0775 87.2949L47.184 88.5564C46.5331 88.0953 46.1581 87.4641 45.8963 87.0009C45.7542 86.7493 45.6582 86.5698 45.5539 86.4128C45.4517 86.2591 45.3901 86.2052 45.3634 86.1879L46.2046 84.8909ZM35.8702 95.115C42.4925 94.1751 46.5786 96.0619 49.8137 97.1127L49.3361 98.583C46.0029 97.5003 42.2849 95.766 36.0874 96.6456L35.8702 95.115ZM49.8137 97.1127C51.6109 97.6966 53.1629 98.0495 55.0693 97.8634C56.9925 97.6757 59.3436 96.9318 62.7006 95.1939L63.4113 96.5667C59.9664 98.3501 57.4165 99.1875 55.2195 99.402C53.0055 99.6182 51.2179 99.1943 49.3361 98.583L49.8137 97.1127ZM57.906 88.5134L54.7707 86.5136L55.602 85.2102L58.7373 87.21L57.906 88.5134ZM44.2429 86.5225L40.9005 88.5835L40.0891 87.2677L43.4315 85.2066L44.2429 86.5225ZM51.1838 90.583L47.2827 88.6158L47.9788 87.2354L51.8799 89.2027L51.1838 90.583ZM54.2205 86.618C54.2156 87.6625 53.7285 88.4243 53.2639 88.99C53.0444 89.2573 52.7846 89.532 52.611 89.7281C52.4151 89.9493 52.2899 90.1116 52.2165 90.2516L50.8472 89.534C51.0133 89.2172 51.2464 88.9373 51.4535 88.7034C51.6828 88.4443 51.8706 88.2508 52.0692 88.0089C52.4409 87.5562 52.6721 87.1357 52.6746 86.6107L54.2205 86.618ZM44.7142 86.153C44.6746 86.1851 44.4379 86.4023 44.2429 86.5225L43.4315 85.2066C43.5203 85.1519 43.5216 85.1297 43.7409 84.9519L44.7142 86.153ZM54.155 86.08C54.1547 86.0799 54.1594 86.0808 54.1685 86.0811C54.1777 86.0813 54.1903 86.0807 54.2056 86.0782C54.238 86.073 54.2699 86.061 54.2968 86.0449C54.3475 86.0146 54.3476 85.9909 54.324 86.0364C54.3012 86.0805 54.2735 86.1571 54.2524 86.2683C54.2317 86.3765 54.2211 86.4976 54.2205 86.618L52.6746 86.6107C52.6764 86.2289 52.7383 85.7368 52.9512 85.3255C53.0613 85.113 53.2343 84.879 53.5035 84.7181C53.7887 84.5476 54.1159 84.4988 54.4444 84.5614L54.155 86.08ZM55.3084 84.9638C55.5162 85.1358 55.5181 85.1567 55.602 85.2102L54.7707 86.5136C54.5856 86.3955 54.361 86.1864 54.323 86.155L55.3084 84.9638Z" fill="#214766"/>
<path d="M52.0754 80.3799C51.5228 80.9332 50.4176 80.9332 49.865 80.3799" stroke="#214766" stroke-width="1.54592" stroke-linecap="round" stroke-linejoin="round"/>
<path d="M53.7337 75.9555V76.5088" stroke="#214766" stroke-width="1.54592" stroke-linecap="round" stroke-linejoin="round"/>
<path d="M48.7601 76.5088V75.9555" stroke="#214766" stroke-width="1.54592" stroke-linecap="round" stroke-linejoin="round"/>
<path d="M45.0193 96.2195C45.0193 92.8591 44.3235 89.9502 42.3347 86.8104L44.2979 86.0225C46.6381 89.7063 47.5702 91.1789 48.662 97.0976L45.0193 96.2195Z" fill="#214766"/>
<path d="M59.547 97.3456C59.6542 93.1686 59.101 90.9368 57.6176 87.0294L55.1108 86.0254C56.4208 90.8589 56.9155 93.5519 56.5388 98.3496L59.547 97.3456Z" fill="#214766"/>
<path d="M59.1616 70.2332C60.3641 70.5429 60.9394 71.4783 60.9394 73.611C60.7007 76.1629 58.2103 74.7388 57.007 73.3398V70.5429C52.9614 72.0792 50.0455 78.2321 45.8628 73.611L45.3458 73.0118C44.9661 73.2949 44.5707 73.6361 44.1875 73.993C43.324 74.7972 41.8256 74.2168 41.9474 73.0431C42.2211 70.4084 42.9771 67.8899 45.0005 66.7446C47.2337 65.4805 49.4336 65.0692 51.812 65.8977C53.7133 66.56 55.4264 67.6816 56.4449 69.7967L56.9175 69.7964C57.3329 69.7669 58.3633 69.8129 59.1616 70.2332Z" fill="#3879AD"/>
<path d="M59.1616 70.2332C60.3641 70.5429 60.9394 71.4783 60.9394 73.611C60.7007 76.1629 58.2103 74.7388 57.007 73.3398V70.5429M59.1616 70.2332C58.4036 70.156 57.6893 70.2838 57.007 70.5429M59.1616 70.2332C58.3633 69.8129 57.3329 69.7669 56.9175 69.7964L56.4449 69.7967M56.4449 69.7967C55.4264 67.6816 53.7133 66.56 51.812 65.8977C49.4336 65.0692 47.2337 65.4805 45.0005 66.7446C42.9771 67.8899 42.2211 70.4084 41.9474 73.0431C41.8256 74.2168 43.324 74.7972 44.1875 73.993C44.5707 73.6361 44.9661 73.2949 45.3458 73.0118M56.4449 69.7967L56.0615 69.8324C50.8714 69.8324 47.6406 71.3005 45.3458 73.0118M45.3458 73.0118L45.8628 73.611C50.0455 78.2321 52.9614 72.0792 57.007 70.5429" stroke="#214766" stroke-width="1.89645" stroke-linecap="round"/>
<path d="M58.7452 74.6747C58.6377 74.674 57.6109 73.8858 57.1109 73.4917L56.7079 70.0725L58.0513 69.8574L60.1334 70.0725L60.9394 71.3404V72.8902C60.9394 73.0192 60.8499 73.8582 60.8275 73.9657C60.8051 74.0733 59.82 74.6747 59.5961 74.6747C59.3722 74.6747 58.8797 74.6756 58.7452 74.6747Z" fill="#214766"/>
<path d="M137.568 102.02C137.913 101.77 137.989 101.287 137.738 100.943C137.488 100.598 137.006 100.522 136.661 100.773L137.568 102.02ZM126.093 108.738C126.027 109.159 126.314 109.554 126.735 109.62L133.591 110.703C134.011 110.769 134.406 110.482 134.473 110.061C134.539 109.64 134.252 109.246 133.831 109.179L127.737 108.217L128.699 102.123C128.765 101.702 128.478 101.307 128.057 101.241C127.637 101.174 127.242 101.462 127.175 101.882L126.093 108.738ZM136.661 100.773L126.401 108.235L127.309 109.482L137.568 102.02L136.661 100.773Z" fill="#3879AD"/>
<path d="M68.0013 102.02C67.6568 101.77 67.5807 101.287 67.8312 100.943C68.0817 100.598 68.5641 100.522 68.9085 100.773L68.0013 102.02ZM79.4765 108.738C79.5429 109.159 79.2556 109.554 78.8349 109.62L71.9788 110.703C71.5581 110.769 71.1632 110.482 71.0968 110.061C71.0303 109.64 71.3176 109.246 71.7383 109.179L77.8326 108.217L76.8706 102.123C76.8041 101.702 77.0914 101.307 77.5121 101.241C77.9328 101.174 78.3277 101.462 78.3941 101.882L79.4765 108.738ZM68.9085 100.773L79.1683 108.235L78.261 109.482L68.0013 102.02L68.9085 100.773Z" fill="#3879AD"/>
<path d="M103.01 76.209C103.01 75.783 102.665 75.4378 102.239 75.4378C101.813 75.4378 101.468 75.7831 101.468 76.209L103.01 76.209ZM101.694 90.3575C101.995 90.6587 102.483 90.6587 102.784 90.3575L107.692 85.4494C107.994 85.1482 107.994 84.6599 107.692 84.3588C107.391 84.0576 106.903 84.0576 106.602 84.3588L102.239 88.7215L97.8763 84.3588C97.5751 84.0576 97.0868 84.0576 96.7856 84.3588C96.4845 84.66 96.4845 85.1483 96.7856 85.4495L101.694 90.3575ZM101.468 76.209L101.468 89.8122L103.01 89.8122L103.01 76.209L101.468 76.209Z" fill="#3879AD"/>
<defs>
<radialGradient id="paint0_radial_24850_88791" cx="0" cy="0" r="1" gradientUnits="userSpaceOnUse" gradientTransform="translate(100.279 114.128) rotate(-106.145) scale(172.949 189.715)">
<stop stop-color="white" stop-opacity="0"/>
<stop offset="1" stop-color="#DCEFFF"/>
</radialGradient>
</defs>
</svg>
