<svg xmlns="http://www.w3.org/2000/svg" viewBox="0 0 28 28" fill="none">
<path d="M13.997 10.3318C11.9772 10.3318 10.3289 11.9801 10.3289 14C10.3289 16.0199 11.9772 17.6682 13.997 17.6682C16.0169 17.6682 17.6652 16.0199 17.6652 14C17.6652 11.9801 16.0169 10.3318 13.997 10.3318ZM24.9988 14C24.9988 12.481 25.0125 10.9757 24.9272 9.45943C24.8419 7.69824 24.4402 6.13519 23.1523 4.84732C21.8617 3.55669 20.3014 3.15767 18.5403 3.07237C17.0213 2.98706 15.516 3.00082 13.9998 3.00082C12.4808 3.00082 10.9756 2.98706 9.45931 3.07237C7.69816 3.15767 6.13513 3.55945 4.84728 4.84732C3.55668 6.13794 3.15767 7.69824 3.07237 9.45943C2.98706 10.9785 3.00082 12.4837 3.00082 14C3.00082 15.5163 2.98706 17.0243 3.07237 18.5406C3.15767 20.3018 3.55944 21.8648 4.84728 23.1527C6.13788 24.4433 7.69816 24.8423 9.45931 24.9276C10.9783 25.0129 12.4835 24.9992 13.9998 24.9992C15.5188 24.9992 17.024 25.0129 18.5403 24.9276C20.3014 24.8423 21.8645 24.4406 23.1523 23.1527C24.4429 21.8621 24.8419 20.3018 24.9272 18.5406C25.0153 17.0243 24.9988 15.519 24.9988 14ZM13.997 19.6441C10.8737 19.6441 8.35309 17.1234 8.35309 14C8.35309 10.8766 10.8737 8.35594 13.997 8.35594C17.1203 8.35594 19.641 10.8766 19.641 14C19.641 17.1234 17.1203 19.6441 13.997 19.6441ZM19.8722 9.44292C19.1429 9.44292 18.554 8.85402 18.554 8.12478C18.554 7.39554 19.1429 6.80664 19.8722 6.80664C20.6014 6.80664 21.1903 7.39554 21.1903 8.12478C21.1905 8.29794 21.1565 8.46945 21.0904 8.62947C21.0242 8.78949 20.9271 8.93489 20.8047 9.05733C20.6822 9.17978 20.5369 9.27686 20.3768 9.34303C20.2168 9.40919 20.0453 9.44314 19.8722 9.44292Z" fill="#214766"/>
</svg>