<svg width="60" height="61" viewBox="0 0 60 61" fill="none" xmlns="http://www.w3.org/2000/svg">
    <circle cx="30" cy="30.1263" r="30" fill="#51C8B4"/>
    <path fill-rule="evenodd" clip-rule="evenodd" d="M17 18.1261C17 15.917 18.7909 14.1261 21 14.1261H38.9588C41.1679 14.1261 42.9588 15.917 42.9588 18.1261V37.9928C42.9588 38.0906 42.9553 38.1875 42.9484 38.2836L42.9411 45.5586L35.1177 41.9928H21C18.7909 41.9928 17 40.2019 17 37.9928V18.1261ZM20.7508 33.8611C20.975 33.5599 21.3991 33.1067 22.0776 33.7644C22.7562 34.4222 26.08 36.3721 30.0387 36.4106C33.5334 36.4446 36.7576 34.6825 37.8443 34.0886C37.9886 34.0097 38.0952 33.9515 38.1598 33.9207C38.2269 33.8888 38.2884 33.8582 38.3453 33.8298C38.7551 33.6257 38.929 33.5391 39.3021 33.9033C39.727 34.3181 39.6198 34.6452 39.3021 35.0991C38.9843 35.553 35.2057 38.0654 30.1171 38.0654C25.0285 38.0654 20.9388 35.4997 20.7368 35.0991C20.5349 34.6985 20.5266 34.1622 20.7508 33.8611Z" fill="white"/>
</svg>
