<svg width="321" height="655" viewBox="0 0 321 655" fill="none" xmlns="http://www.w3.org/2000/svg">
<g clip-path="url(#clip0_7568_55074)">
<rect x="17.7837" y="38.9829" width="285.432" height="599.322" rx="40" fill="#E8EDF0"/>
<g clip-path="url(#clip1_7568_55074)">
<g filter="url(#filter0_d_7568_55074)">
<g clip-path="url(#clip2_7568_55074)">
<rect x="23.022" y="74.0464" width="274.956" height="56.9086" rx="6.12716" fill="white"/>
<rect x="39.5467" y="95.6077" width="13.7861" height="13.7861" rx="2.29768" stroke="#9F9FA1" stroke-width="1.53179"/>
<path d="M69.1864 99.925V98.1644H63.6111V107.501H65.4517V103.9H69.0797V102.139H65.4517V99.925H69.1864ZM70.7143 107.501H72.4349V97.7643H70.7143V107.501ZM78.6246 100.832L77.1441 105.314L75.4102 100.832H73.5295L76.2638 107.288C75.9437 108.181 75.4635 108.581 74.5165 108.568V110.169C76.2105 110.262 77.3442 109.422 78.0378 107.501L80.4653 100.832H78.6246ZM85.3655 102.486V100.832H83.8583V98.9647L82.1377 99.4849V100.832H80.9773V102.486H82.1377V105.26C82.1377 107.061 82.9513 107.768 85.3655 107.501V105.94C84.3785 105.994 83.8583 105.98 83.8583 105.26V102.486H85.3655ZM90.3995 102.486V100.832H88.8924V98.9647L87.1718 99.4849V100.832H86.0114V102.486H87.1718V105.26C87.1718 107.061 87.9854 107.768 90.3995 107.501V105.94C89.4125 105.994 88.8924 105.98 88.8924 105.26V102.486H90.3995ZM96.7395 100.832V101.619C96.2593 101.019 95.539 100.645 94.5654 100.645C92.7914 100.645 91.3242 102.179 91.3242 104.166C91.3242 106.154 92.7914 107.688 94.5654 107.688C95.539 107.688 96.2593 107.314 96.7395 106.714V107.501H98.46V100.832H96.7395ZM94.8855 106.047C93.8318 106.047 93.0448 105.287 93.0448 104.166C93.0448 103.046 93.8318 102.286 94.8855 102.286C95.9525 102.286 96.7395 103.046 96.7395 104.166C96.7395 105.287 95.9525 106.047 94.8855 106.047ZM103.995 100.645C103.101 100.645 102.408 100.979 102.008 101.579V100.832H100.287V107.501H102.008V103.9C102.008 102.739 102.635 102.246 103.475 102.246C104.248 102.246 104.795 102.713 104.795 103.62V107.501H106.516V103.406C106.516 101.632 105.409 100.645 103.995 100.645ZM115.628 100.645C114.721 100.645 114.054 101.005 113.64 101.606C113.267 100.992 112.653 100.645 111.826 100.645C110.973 100.645 110.346 100.979 109.972 101.539V100.832H108.252V107.501H109.972V103.753C109.972 102.753 110.493 102.246 111.226 102.246C111.946 102.246 112.347 102.726 112.347 103.513V107.501H114.067V103.753C114.067 102.753 114.547 102.246 115.308 102.246C116.028 102.246 116.428 102.726 116.428 103.513V107.501H118.149V103.393C118.149 101.726 117.148 100.645 115.628 100.645ZM121.944 100.178C122.438 100.178 122.838 99.7783 122.838 99.2848C122.838 98.7913 122.438 98.3778 121.944 98.3778C121.451 98.3778 121.037 98.7913 121.037 99.2848C121.037 99.7783 121.451 100.178 121.944 100.178ZM124.478 100.178C124.972 100.178 125.372 99.7783 125.372 99.2848C125.372 98.7913 124.972 98.3778 124.478 98.3778C123.985 98.3778 123.571 98.7913 123.571 99.2848C123.571 99.7783 123.985 100.178 124.478 100.178ZM124.945 100.832V101.619C124.465 101.019 123.745 100.645 122.771 100.645C120.997 100.645 119.53 102.179 119.53 104.166C119.53 106.154 120.997 107.688 122.771 107.688C123.745 107.688 124.465 107.314 124.945 106.714V107.501H126.666V100.832H124.945ZM123.091 106.047C122.037 106.047 121.25 105.287 121.25 104.166C121.25 103.046 122.037 102.286 123.091 102.286C124.158 102.286 124.945 103.046 124.945 104.166C124.945 105.287 124.158 106.047 123.091 106.047ZM128.493 107.501H130.213V97.7643H128.493V107.501ZM137.123 100.832V101.619C136.643 101.019 135.923 100.645 134.949 100.645C133.175 100.645 131.708 102.179 131.708 104.166C131.708 106.154 133.175 107.688 134.949 107.688C135.923 107.688 136.643 107.314 137.123 106.714V107.501H138.844V100.832H137.123ZM135.269 106.047C134.216 106.047 133.429 105.287 133.429 104.166C133.429 103.046 134.216 102.286 135.269 102.286C136.336 102.286 137.123 103.046 137.123 104.166C137.123 105.287 136.336 106.047 135.269 106.047ZM144.379 100.645C143.485 100.645 142.792 100.979 142.391 101.579V100.832H140.671V107.501H142.391V103.9C142.391 102.739 143.018 102.246 143.859 102.246C144.632 102.246 145.179 102.713 145.179 103.62V107.501H146.9V103.406C146.9 101.632 145.793 100.645 144.379 100.645ZM156.051 102.486V100.832H154.544V98.9647L152.824 99.4849V100.832H151.663V102.486H152.824V105.26C152.824 107.061 153.637 107.768 156.051 107.501V105.94C155.064 105.994 154.544 105.98 154.544 105.26V102.486H156.051ZM158.385 100.032C158.972 100.032 159.452 99.5516 159.452 98.978C159.452 98.4045 158.972 97.911 158.385 97.911C157.811 97.911 157.331 98.4045 157.331 98.978C157.331 99.5516 157.811 100.032 158.385 100.032ZM157.531 107.501H159.252V100.832H157.531V107.501ZM161.093 107.501H162.814V97.7643H161.093V107.501ZM164.656 107.501H166.376V97.7643H164.656V107.501ZM175.087 107.688C177.074 107.688 178.475 106.621 178.475 104.873C178.475 102.966 176.901 102.473 175.42 102.006C174.007 101.579 173.646 101.272 173.646 100.699C173.646 100.165 174.1 99.765 174.873 99.765C175.82 99.765 176.327 100.258 176.661 100.965L178.208 100.072C177.581 98.7646 176.407 97.9777 174.873 97.9777C173.273 97.9777 171.806 98.9914 171.806 100.752C171.806 102.526 173.193 103.126 174.62 103.54C176.007 103.94 176.634 104.207 176.634 104.9C176.634 105.42 176.247 105.887 175.14 105.887C173.98 105.887 173.326 105.327 172.993 104.46L171.419 105.38C171.926 106.767 173.18 107.688 175.087 107.688ZM186.011 107.501L183.25 104.126L185.931 100.832H183.877L181.583 103.766V98.1644H179.862V107.501H181.583V104.473L184.01 107.501H186.011ZM191.723 100.832V101.619C191.243 101.019 190.522 100.645 189.549 100.645C187.775 100.645 186.308 102.179 186.308 104.166C186.308 106.154 187.775 107.688 189.549 107.688C190.522 107.688 191.243 107.314 191.723 106.714V107.501H193.443V100.832H191.723ZM189.869 106.047C188.815 106.047 188.028 105.287 188.028 104.166C188.028 103.046 188.815 102.286 189.869 102.286C190.936 102.286 191.723 103.046 191.723 104.166C191.723 105.287 190.936 106.047 189.869 106.047ZM199.085 102.486V100.832H197.578V98.9647L195.857 99.4849V100.832H194.697V102.486H195.857V105.26C195.857 107.061 196.671 107.768 199.085 107.501V105.94C198.098 105.994 197.578 105.98 197.578 105.26V102.486H199.085ZM204.119 102.486V100.832H202.612V98.9647L200.891 99.4849V100.832H199.731V102.486H200.891V105.26C200.891 107.061 201.705 107.768 204.119 107.501V105.94C203.132 105.994 202.612 105.98 202.612 105.26V102.486H204.119ZM206.844 104.873H211.873C211.913 104.647 211.94 104.42 211.94 104.166C211.94 102.206 210.539 100.645 208.565 100.645C206.471 100.645 205.044 102.179 205.044 104.166C205.044 106.154 206.458 107.688 208.698 107.688C209.979 107.688 210.979 107.168 211.606 106.261L210.219 105.46C209.926 105.847 209.392 106.127 208.725 106.127C207.818 106.127 207.085 105.754 206.844 104.873ZM206.818 103.54C207.018 102.686 207.645 102.192 208.565 102.192C209.285 102.192 210.006 102.579 210.219 103.54H206.818ZM217.535 100.832L215.908 105.5L214.294 100.832H212.4L214.934 107.501H216.895L219.429 100.832H217.535ZM221.719 104.873H226.747C226.787 104.647 226.814 104.42 226.814 104.166C226.814 102.206 225.413 100.645 223.439 100.645C221.345 100.645 219.918 102.179 219.918 104.166C219.918 106.154 221.332 107.688 223.573 107.688C224.853 107.688 225.854 107.168 226.481 106.261L225.093 105.46C224.8 105.847 224.266 106.127 223.6 106.127C222.693 106.127 221.959 105.754 221.719 104.873ZM221.692 103.54C221.892 102.686 222.519 102.192 223.439 102.192C224.16 102.192 224.88 102.579 225.093 103.54H221.692ZM230.002 101.979V100.832H228.282V107.501H230.002V104.313C230.002 102.913 231.136 102.513 232.03 102.619V100.699C231.19 100.699 230.349 101.072 230.002 101.979ZM239.452 107.501L236.691 104.126L239.372 100.832H237.318L235.023 103.766V98.1644H233.303V107.501H235.023V104.473L237.451 107.501H239.452ZM241.549 104.873H246.578C246.618 104.647 246.644 104.42 246.644 104.166C246.644 102.206 245.244 100.645 243.27 100.645C241.176 100.645 239.749 102.179 239.749 104.166C239.749 106.154 241.162 107.688 243.403 107.688C244.684 107.688 245.684 107.168 246.311 106.261L244.924 105.46C244.63 105.847 244.097 106.127 243.43 106.127C242.523 106.127 241.789 105.754 241.549 104.873ZM241.522 103.54C241.723 102.686 242.349 102.192 243.27 102.192C243.99 102.192 244.71 102.579 244.924 103.54H241.522ZM251.731 102.486V100.832H250.224V98.9647L248.504 99.4849V100.832H247.343V102.486H248.504V105.26C248.504 107.061 249.317 107.768 251.731 107.501V105.94C250.744 105.994 250.224 105.98 250.224 105.26V102.486H251.731Z" fill="#214766"/>
<path d="M271.396 92.2761C269.058 92.2761 266.817 93.2047 265.164 94.8575C263.511 96.5104 262.582 98.7521 262.582 101.09C262.582 104.091 264.498 107.155 266.3 109.399C268.061 111.59 269.873 113.191 270.217 113.463L270.27 113.508C270.917 114.066 271.875 114.066 272.522 113.508L272.575 113.463C272.918 113.191 274.731 111.59 276.491 109.399C278.294 107.155 280.209 104.091 280.209 101.09C280.209 98.7521 279.281 96.5104 277.628 94.8575C275.975 93.2047 273.733 92.2761 271.396 92.2761ZM271.396 104.243C270.772 104.243 270.162 104.058 269.644 103.711C269.125 103.365 268.721 102.872 268.483 102.296C268.244 101.72 268.181 101.086 268.303 100.474C268.425 99.8628 268.725 99.3009 269.166 98.8599C269.607 98.419 270.169 98.1187 270.781 97.997C271.392 97.8753 272.026 97.9378 272.602 98.1764C273.179 98.4151 273.671 98.8192 274.017 99.3378C274.364 99.8563 274.549 100.466 274.549 101.09C274.549 101.926 274.217 102.728 273.625 103.319C273.034 103.911 272.232 104.243 271.396 104.243Z" fill="#8EB4FF" stroke="#8EB4FF" stroke-width="1.67143"/>
<path d="M269.294 90.1206C266.942 90.1206 264.687 91.0548 263.024 92.7176C261.361 94.3805 260.427 96.6359 260.427 98.9875C260.427 102.009 262.353 105.086 264.157 107.33C265.916 109.52 267.728 111.122 268.081 111.402L268.133 111.447C268.8 112.022 269.787 112.022 270.454 111.447L270.507 111.402C270.859 111.122 272.671 109.52 274.431 107.33C276.234 105.086 278.161 102.009 278.161 98.9875C278.161 96.6359 277.226 94.3805 275.564 92.7176C273.901 91.0548 271.645 90.1206 269.294 90.1206ZM269.294 102.087C268.681 102.087 268.081 101.905 267.572 101.565C267.062 101.224 266.665 100.74 266.43 100.174C266.195 99.6073 266.134 98.9841 266.254 98.3828C266.373 97.7815 266.668 97.2292 267.102 96.7957C267.535 96.3622 268.088 96.067 268.689 95.9474C269.29 95.8278 269.913 95.8892 270.48 96.1238C271.046 96.3584 271.53 96.7557 271.871 97.2654C272.212 97.7752 272.393 98.3745 272.393 98.9875C272.393 99.8096 272.067 100.598 271.485 101.179C270.904 101.761 270.116 102.087 269.294 102.087Z" stroke="#214766" stroke-width="1.77839"/>
</g>
</g>
<g filter="url(#filter1_d_7568_55074)">
<g clip-path="url(#clip3_7568_55074)">
<rect x="23.022" y="137.082" width="274.956" height="56.9086" rx="6.12716" fill="white"/>
<rect x="39.5467" y="158.643" width="13.7861" height="13.7861" rx="2.29768" stroke="#9F9FA1" stroke-width="1.53179"/>
<path d="M69.1864 162.961V161.2H63.6111V170.537H65.4517V166.935H69.0797V165.175H65.4517V162.961H69.1864ZM70.7143 170.537H72.4349V160.8H70.7143V170.537ZM78.6246 163.868L77.1441 168.349L75.4102 163.868H73.5295L76.2638 170.323C75.9437 171.217 75.4635 171.617 74.5165 171.604V173.204C76.2105 173.298 77.3442 172.457 78.0378 170.537L80.4653 163.868H78.6246ZM85.3655 165.522V163.868H83.8583V162L82.1377 162.521V163.868H80.9773V165.522H82.1377V168.296C82.1377 170.096 82.9513 170.803 85.3655 170.537V168.976C84.3785 169.029 83.8583 169.016 83.8583 168.296V165.522H85.3655ZM90.3995 165.522V163.868H88.8924V162L87.1718 162.521V163.868H86.0114V165.522H87.1718V168.296C87.1718 170.096 87.9854 170.803 90.3995 170.537V168.976C89.4125 169.029 88.8924 169.016 88.8924 168.296V165.522H90.3995ZM95.5874 163.681C94.6937 163.681 94.0002 164.014 93.6 164.615V161.2H91.8794V170.537H93.6V166.935C93.6 165.775 94.2269 165.281 95.0672 165.281C95.8408 165.281 96.3877 165.748 96.3877 166.655V170.537H98.1083V166.442C98.1083 164.668 97.0012 163.681 95.5874 163.681ZM100.795 163.067C101.368 163.067 101.848 162.587 101.848 162.014C101.848 161.44 101.368 160.947 100.795 160.947C100.208 160.947 99.7276 161.44 99.7276 162.014C99.7276 162.587 100.208 163.067 100.795 163.067ZM99.9276 170.67C99.9276 171.484 99.5542 171.79 98.7406 171.737V173.391C100.715 173.511 101.648 172.631 101.648 170.67V163.868H99.9276V170.67ZM105.552 163.214C106.045 163.214 106.446 162.814 106.446 162.32C106.446 161.827 106.045 161.413 105.552 161.413C105.058 161.413 104.645 161.827 104.645 162.32C104.645 162.814 105.058 163.214 105.552 163.214ZM108.086 163.214C108.58 163.214 108.98 162.814 108.98 162.32C108.98 161.827 108.58 161.413 108.086 161.413C107.593 161.413 107.179 161.827 107.179 162.32C107.179 162.814 107.593 163.214 108.086 163.214ZM108.553 163.868V164.655C108.073 164.054 107.353 163.681 106.379 163.681C104.605 163.681 103.138 165.215 103.138 167.202C103.138 169.189 104.605 170.723 106.379 170.723C107.353 170.723 108.073 170.35 108.553 169.75V170.537H110.274V163.868H108.553ZM106.699 169.083C105.645 169.083 104.858 168.323 104.858 167.202C104.858 166.082 105.645 165.321 106.699 165.321C107.766 165.321 108.553 166.082 108.553 167.202C108.553 168.323 107.766 169.083 106.699 169.083ZM112.1 170.537H113.821V160.8H112.1V170.537ZM119.544 163.681C118.57 163.681 117.863 164.041 117.383 164.655V163.868H115.663V173.204H117.383V169.75C117.863 170.363 118.57 170.723 119.544 170.723C121.331 170.723 122.798 169.189 122.798 167.202C122.798 165.215 121.331 163.681 119.544 163.681ZM119.224 169.083C118.17 169.083 117.383 168.323 117.383 167.202C117.383 166.082 118.17 165.321 119.224 165.321C120.291 165.321 121.078 166.082 121.078 167.202C121.078 168.323 120.291 169.083 119.224 169.083Z" fill="#214766"/>
<ellipse cx="267.069" cy="172.738" rx="2.96546" ry="2.96546" stroke="#FFD4B3" stroke-width="1.95623" stroke-linejoin="round"/>
<circle cx="278.932" cy="172.738" r="2.96546" stroke="#FFD4B3" stroke-width="1.95623" stroke-linejoin="round"/>
<path d="M264.104 171.997H261.88V158.652H277.449V169.773M269.294 171.997H275.966" stroke="#FFD4B3" stroke-width="1.95623" stroke-linejoin="round"/>
<path d="M277.449 167.549V162.359H281.156L284.863 166.437V171.997H281.527" stroke="#FFD4B3" stroke-width="1.95623" stroke-linejoin="round"/>
<path d="M276.708 158.652H262.622L261.88 160.135V170.885L263.734 171.626L265.217 174.962L267.07 175.704C267.07 175.704 268.553 175.704 269.294 174.221C270.035 172.738 270.035 172.368 270.035 172.368L275.966 172.738C278.635 178.076 281.279 174.962 282.268 172.738L284.492 171.626L284.863 166.437L280.785 162.359H277.449V160.876L276.708 158.652Z" fill="#FFD4B3" stroke="#FFD4B3" stroke-width="1.95623"/>
<ellipse cx="264.599" cy="170.872" rx="3.28319" ry="2.87279" transform="rotate(-26.2456 264.599 170.872)" stroke="#214766" stroke-width="1.77839" stroke-linecap="round" stroke-linejoin="round"/>
<ellipse cx="277.732" cy="170.872" rx="3.28319" ry="2.87279" transform="rotate(-24.2649 277.732 170.872)" stroke="#214766" stroke-width="1.77839" stroke-linecap="round" stroke-linejoin="round"/>
<path d="M261.06 155.369H277.475L275.834 168.409M261.06 170.143H258.597L259.418 165.747M267.626 170.143H274.192" stroke="#214766" stroke-width="1.77839" stroke-linecap="round" stroke-linejoin="round"/>
<path d="M259.623 165.537L275.629 165.537M284.298 163.485H276.501" stroke="#214766" stroke-width="1.77839" stroke-linecap="round" stroke-linejoin="round"/>
<path d="M277.732 158.97H280.964L285.068 163.832L284.247 170.461H280.964" stroke="#214766" stroke-width="1.77839" stroke-linecap="round" stroke-linejoin="round"/>
<path d="M262.906 158.97H257.161" stroke="#214766" stroke-width="1.3338" stroke-linecap="round"/>
<path d="M253.98 162.253L255.673 162.253M266.292 162.253L258.135 162.253" stroke="#214766" stroke-width="1.3338" stroke-linecap="round"/>
</g>
</g>
<g filter="url(#filter2_d_7568_55074)">
<g clip-path="url(#clip4_7568_55074)">
<rect x="23.022" y="200.118" width="274.956" height="56.9086" rx="6.12716" fill="white"/>
<rect x="39.5467" y="221.679" width="13.7861" height="13.7861" rx="2.29768" stroke="#9F9FA1" stroke-width="1.53179"/>
<path d="M69.1864 225.996V224.236H63.6111V233.572H65.4517V229.971H69.0797V228.21H65.4517V225.996H69.1864ZM70.7143 233.572H72.4349V223.836H70.7143V233.572ZM78.6246 226.903L77.1441 231.385L75.4102 226.903H73.5295L76.2638 233.359C75.9437 234.253 75.4635 234.653 74.5165 234.639V236.24C76.2105 236.333 77.3442 235.493 78.0378 233.572L80.4653 226.903H78.6246ZM85.3655 228.557V226.903H83.8583V225.036L82.1377 225.556V226.903H80.9773V228.557H82.1377V231.331C82.1377 233.132 82.9513 233.839 85.3655 233.572V232.012C84.3785 232.065 83.8583 232.052 83.8583 231.331V228.557H85.3655ZM90.3995 228.557V226.903H88.8924V225.036L87.1718 225.556V226.903H86.0114V228.557H87.1718V231.331C87.1718 233.132 87.9854 233.839 90.3995 233.572V232.012C89.4125 232.065 88.8924 232.052 88.8924 231.331V228.557H90.3995ZM93.3234 228.797C93.3234 228.437 93.6702 228.25 94.097 228.25C94.5905 228.25 94.9639 228.504 95.164 228.931L96.6312 228.13C96.111 227.21 95.1773 226.717 94.097 226.717C92.7232 226.717 91.5628 227.477 91.5628 228.837C91.5628 231.185 95.004 230.651 95.004 231.625C95.004 232.012 94.6305 232.198 94.0836 232.198C93.4167 232.198 92.9632 231.878 92.7765 231.331L91.2827 232.172C91.7628 233.199 92.7498 233.759 94.0836 233.759C95.5108 233.759 96.7646 233.065 96.7646 231.625C96.7646 229.171 93.3234 229.784 93.3234 228.797ZM101.757 228.557V226.903H100.25V225.036L98.5293 225.556V226.903H97.3689V228.557H98.5293V231.331C98.5293 233.132 99.343 233.839 101.757 233.572V232.012C100.77 232.065 100.25 232.052 100.25 231.331V228.557H101.757ZM105.096 226.25C105.589 226.25 105.99 225.85 105.99 225.356C105.99 224.863 105.589 224.449 105.096 224.449C104.602 224.449 104.189 224.863 104.189 225.356C104.189 225.85 104.602 226.25 105.096 226.25ZM107.63 226.25C108.124 226.25 108.524 225.85 108.524 225.356C108.524 224.863 108.124 224.449 107.63 224.449C107.137 224.449 106.723 224.863 106.723 225.356C106.723 225.85 107.137 226.25 107.63 226.25ZM108.097 226.903V227.69C107.617 227.09 106.897 226.717 105.923 226.717C104.149 226.717 102.682 228.25 102.682 230.238C102.682 232.225 104.149 233.759 105.923 233.759C106.897 233.759 107.617 233.386 108.097 232.785V233.572H109.818V226.903H108.097ZM106.243 232.118C105.189 232.118 104.402 231.358 104.402 230.238C104.402 229.117 105.189 228.357 106.243 228.357C107.31 228.357 108.097 229.117 108.097 230.238C108.097 231.358 107.31 232.118 106.243 232.118ZM116.7 224.236V227.69C116.22 227.077 115.513 226.717 114.539 226.717C112.752 226.717 111.284 228.25 111.284 230.238C111.284 232.225 112.752 233.759 114.539 233.759C115.513 233.759 116.22 233.399 116.7 232.785V233.572H118.42V224.236H116.7ZM114.859 232.118C113.792 232.118 113.005 231.358 113.005 230.238C113.005 229.117 113.792 228.357 114.859 228.357C115.913 228.357 116.7 229.117 116.7 230.238C116.7 231.358 115.913 232.118 114.859 232.118ZM123.969 226.717C123.075 226.717 122.381 227.05 121.981 227.65V226.903H120.261V233.572H121.981V229.971C121.981 228.811 122.608 228.317 123.448 228.317C124.222 228.317 124.769 228.784 124.769 229.691V233.572H126.489V229.478C126.489 227.704 125.382 226.717 123.969 226.717ZM129.079 226.103C129.666 226.103 130.146 225.623 130.146 225.049C130.146 224.476 129.666 223.982 129.079 223.982C128.505 223.982 128.025 224.476 128.025 225.049C128.025 225.623 128.505 226.103 129.079 226.103ZM128.225 233.572H129.946V226.903H128.225V233.572ZM135.495 226.717C134.602 226.717 133.908 227.05 133.508 227.65V226.903H131.788V233.572H133.508V229.971C133.508 228.811 134.135 228.317 134.975 228.317C135.749 228.317 136.296 228.784 136.296 229.691V233.572H138.016V229.478C138.016 227.704 136.909 226.717 135.495 226.717ZM144.861 226.903V227.73C144.394 227.103 143.674 226.717 142.727 226.717C140.833 226.717 139.405 228.264 139.405 230.131C139.405 232.012 140.833 233.546 142.727 233.546C143.674 233.546 144.394 233.159 144.861 232.532V233.252C144.861 234.306 144.194 234.893 143.113 234.893C142.086 234.893 141.646 234.479 141.366 233.959L139.899 234.799C140.486 235.88 141.633 236.427 143.06 236.427C144.821 236.427 146.541 235.44 146.541 233.252V226.903H144.861ZM142.993 231.958C141.913 231.958 141.126 231.198 141.126 230.131C141.126 229.077 141.913 228.317 142.993 228.317C144.074 228.317 144.861 229.077 144.861 230.131C144.861 231.198 144.074 231.958 142.993 231.958Z" fill="#214766"/>
<path d="M282.247 233.43C280.609 242.35 276.63 244.893 269.422 244.422C269.626 240.759 266.197 239.708 264.13 236.687C271.532 235.674 271.153 229.634 271.662 229.156C272.17 228.677 279.144 231.964 282.247 233.43Z" fill="#FFBBE4"/>
<path d="M270.351 212.668C270.351 214.527 268.839 216.039 266.98 216.039V217.725C268.839 217.725 270.351 219.237 270.351 221.097L272.037 221.097C272.037 219.237 273.549 217.725 275.409 217.725V216.039C273.549 216.039 272.037 214.527 272.037 212.668L270.351 212.668ZM271.194 218.304C270.82 217.741 270.335 217.257 269.772 216.882C270.335 216.508 270.819 216.023 271.194 215.46C271.569 216.023 272.053 216.507 272.616 216.882C272.053 217.257 271.569 217.741 271.194 218.304Z" fill="#214766"/>
<path d="M260.173 216.739C260.173 218.598 258.661 220.11 256.802 220.11V221.796C258.661 221.796 260.173 223.308 260.173 225.167L261.859 225.167C261.859 223.308 263.371 221.796 265.23 221.796V220.11C263.371 220.11 261.859 218.598 261.859 216.739L260.173 216.739ZM261.016 222.375C260.642 221.812 260.157 221.328 259.594 220.953C260.157 220.579 260.641 220.094 261.016 219.531C261.39 220.094 261.875 220.578 262.438 220.953C261.875 221.327 261.39 221.812 261.016 222.375Z" fill="#214766"/>
<path d="M268.201 232.768C266.443 235.485 261.687 234.803 261.687 234.803C263.219 237.812 264.651 239.285 268.404 239.892V241.724C271.724 242.161 273.521 241.717 275.936 239.892C278.745 237.77 280.007 233.582 279.804 231.75C279.654 230.407 278.477 229.864 277.157 229.511C277.157 229.511 277.768 227.882 276.75 227.272L281.839 214.04C281.171 213.098 280.821 213.633 280.618 213.633C280.414 213.633 275.529 226.864 275.529 226.864C274.308 226.864 273.9 228.289 273.9 228.289C273.9 228.289 271.965 227.5 270.847 227.882C269.42 228.371 269.02 231.501 268.201 232.768Z" stroke="#214766" stroke-width="1.58775"/>
<line x1="269.663" y1="230.372" x2="279.027" y2="234.036" stroke="#214766" stroke-width="1.32312"/>
<path d="M272.842 231.924C271.917 234.145 270.44 235.059 268.404 235.873" stroke="#214766" stroke-width="1.32312" stroke-linecap="round"/>
<path d="M275.733 232.82C274.767 234.924 274.308 236.891 271.254 238.316" stroke="#214766" stroke-width="1.32312" stroke-linecap="round"/>
</g>
</g>
<g filter="url(#filter3_d_7568_55074)">
<g clip-path="url(#clip5_7568_55074)">
<rect x="23.022" y="263.154" width="274.956" height="56.9086" rx="6.12716" fill="white"/>
<rect x="39.5467" y="284.716" width="13.7861" height="13.7861" rx="2.29768" stroke="#9F9FA1" stroke-width="1.53179"/>
<path d="M65.4517 294.848V292.754H68.9863V291.02H65.4517V289.033H69.3198V287.272H63.6111V296.609H69.3864V294.848H65.4517ZM70.8706 296.609H72.5912V286.872H70.8706V296.609ZM79.5012 289.94V290.727C79.021 290.127 78.3008 289.753 77.3271 289.753C75.5532 289.753 74.086 291.287 74.086 293.274C74.086 295.262 75.5532 296.796 77.3271 296.796C78.3008 296.796 79.021 296.422 79.5012 295.822V296.609H81.2218V289.94H79.5012ZM77.6472 295.155C76.5935 295.155 75.8066 294.395 75.8066 293.274C75.8066 292.154 76.5935 291.394 77.6472 291.394C78.7143 291.394 79.5012 292.154 79.5012 293.274C79.5012 294.395 78.7143 295.155 77.6472 295.155ZM87.437 289.94L85.8097 294.608L84.1958 289.94H82.3018L84.8361 296.609H86.7967L89.3309 289.94H87.437ZM94.242 291.594V289.94H92.7348V288.073L91.0142 288.593V289.94H89.8538V291.594H91.0142V294.368C91.0142 296.169 91.8279 296.876 94.242 296.609V295.048C93.255 295.102 92.7348 295.088 92.7348 294.368V291.594H94.242ZM100.582 289.94V290.727C100.102 290.127 99.3815 289.753 98.4078 289.753C96.6339 289.753 95.1667 291.287 95.1667 293.274C95.1667 295.262 96.6339 296.796 98.4078 296.796C99.3815 296.796 100.102 296.422 100.582 295.822V296.609H102.303V289.94H100.582ZM98.728 295.155C97.6743 295.155 96.8873 294.395 96.8873 293.274C96.8873 292.154 97.6743 291.394 98.728 291.394C99.795 291.394 100.582 292.154 100.582 293.274C100.582 294.395 99.795 295.155 98.728 295.155ZM104.13 296.609H105.85V286.872H104.13V296.609Z" fill="#214766"/>
<path d="M258.648 295.274L272.688 279.698C273.355 278.958 274.567 279.606 274.322 280.571L271.884 290.189H281.971C282.825 290.189 283.249 291.224 282.642 291.823L266.844 307.402C266.167 308.069 265.037 307.445 265.242 306.517L267.369 296.867H259.357C258.53 296.867 258.095 295.888 258.648 295.274Z" fill="#FFDC60"/>
<path d="M257.797 292.957L270.226 278.927C270.888 278.18 272.107 278.822 271.866 279.791L269.729 288.367H278.717C279.566 288.367 279.992 289.393 279.393 289.995L265.358 304.077C264.685 304.752 263.548 304.133 263.749 303.201L265.625 294.544H258.511C257.689 294.544 257.252 293.572 257.797 292.957Z" stroke="#214766" stroke-width="1.77839"/>
</g>
</g>
<g filter="url(#filter4_d_7568_55074)">
<g clip-path="url(#clip6_7568_55074)">
<rect x="23.022" y="326.189" width="274.956" height="56.9086" rx="6.12716" fill="white"/>
<rect x="39.5467" y="347.751" width="13.7861" height="13.7861" rx="2.29768" stroke="#9F9FA1" stroke-width="1.53179"/>
<path d="M69.2531 354.802C69.7999 354.362 70.1334 353.735 70.1334 352.935C70.1334 351.375 68.8663 350.307 67.2924 350.307H63.6111V359.644H67.5725C69.1864 359.644 70.4802 358.537 70.4802 356.936C70.4802 355.963 70 355.229 69.2531 354.802ZM67.2924 352.028C67.8793 352.028 68.2927 352.468 68.2927 353.055C68.2927 353.642 67.8659 354.082 67.2924 354.082H65.4517V352.028H67.2924ZM67.5725 357.923H65.4517V355.723H67.5725C68.1994 355.723 68.6529 356.19 68.6529 356.816C68.6529 357.457 68.1994 357.923 67.5725 357.923ZM73.5941 354.122V352.975H71.8736V359.644H73.5941V356.456C73.5941 355.056 74.7279 354.656 75.6215 354.762V352.842C74.7812 352.842 73.9409 353.215 73.5941 354.122ZM78.1009 357.016H83.1293C83.1693 356.79 83.196 356.563 83.196 356.31C83.196 354.349 81.7955 352.788 79.8215 352.788C77.7275 352.788 76.3003 354.322 76.3003 356.31C76.3003 358.297 77.7141 359.831 79.9549 359.831C81.2353 359.831 82.2357 359.311 82.8626 358.404L81.4754 357.603C81.182 357.99 80.6485 358.27 79.9816 358.27C79.0746 358.27 78.341 357.897 78.1009 357.016ZM78.0742 355.683C78.2743 354.829 78.9012 354.336 79.8215 354.336C80.5418 354.336 81.262 354.722 81.4754 355.683H78.0742ZM89.6669 350.307V353.762C89.1867 353.148 88.4798 352.788 87.5062 352.788C85.7189 352.788 84.2517 354.322 84.2517 356.31C84.2517 358.297 85.7189 359.831 87.5062 359.831C88.4798 359.831 89.1867 359.471 89.6669 358.857V359.644H91.3875V350.307H89.6669ZM87.8263 358.19C86.7592 358.19 85.9723 357.43 85.9723 356.31C85.9723 355.189 86.7592 354.429 87.8263 354.429C88.88 354.429 89.6669 355.189 89.6669 356.31C89.6669 357.43 88.88 358.19 87.8263 358.19ZM97.1092 352.788C96.1355 352.788 95.4286 353.148 94.9484 353.762V350.307H93.2278V359.644H94.9484V358.857C95.4286 359.471 96.1355 359.831 97.1092 359.831C98.8964 359.831 100.364 358.297 100.364 356.31C100.364 354.322 98.8964 352.788 97.1092 352.788ZM96.7891 358.19C95.7354 358.19 94.9484 357.43 94.9484 356.31C94.9484 355.189 95.7354 354.429 96.7891 354.429C97.8561 354.429 98.643 355.189 98.643 356.31C98.643 357.43 97.8561 358.19 96.7891 358.19ZM106.912 352.975V353.762C106.432 353.162 105.712 352.788 104.738 352.788C102.964 352.788 101.497 354.322 101.497 356.31C101.497 358.297 102.964 359.831 104.738 359.831C105.712 359.831 106.432 359.457 106.912 358.857V359.644H108.633V352.975H106.912ZM105.058 358.19C104.005 358.19 103.218 357.43 103.218 356.31C103.218 355.189 104.005 354.429 105.058 354.429C106.125 354.429 106.912 355.189 106.912 356.31C106.912 357.43 106.125 358.19 105.058 358.19ZM114.168 352.788C113.274 352.788 112.581 353.122 112.18 353.722V352.975H110.46V359.644H112.18V356.043C112.18 354.882 112.807 354.389 113.648 354.389C114.421 354.389 114.968 354.856 114.968 355.763V359.644H116.689V355.549C116.689 353.775 115.582 352.788 114.168 352.788ZM123.48 350.307V353.762C122.999 353.148 122.293 352.788 121.319 352.788C119.532 352.788 118.064 354.322 118.064 356.31C118.064 358.297 119.532 359.831 121.319 359.831C122.293 359.831 122.999 359.471 123.48 358.857V359.644H125.2V350.307H123.48ZM121.639 358.19C120.572 358.19 119.785 357.43 119.785 356.31C119.785 355.189 120.572 354.429 121.639 354.429C122.693 354.429 123.48 355.189 123.48 356.31C123.48 357.43 122.693 358.19 121.639 358.19Z" fill="#214766"/>
<path fill-rule="evenodd" clip-rule="evenodd" d="M270.904 349.25C266.351 349.25 262.29 351.358 259.644 354.659C259.045 355.406 257.953 355.527 257.206 354.927C256.458 354.328 256.338 353.236 256.937 352.489C260.214 348.402 265.253 345.78 270.904 345.78C276.555 345.78 281.595 348.402 284.871 352.489C285.47 353.236 285.35 354.328 284.603 354.927C283.855 355.527 282.764 355.406 282.164 354.659C279.518 351.358 275.458 349.25 270.904 349.25ZM270.905 356.318C268.348 356.318 266.096 357.621 264.775 359.607C264.245 360.404 263.168 360.621 262.37 360.091C261.573 359.56 261.356 358.484 261.886 357.686C263.822 354.774 267.138 352.849 270.905 352.849C274.671 352.849 277.987 354.774 279.923 357.686C280.453 358.484 280.236 359.56 279.439 360.091C278.641 360.621 277.564 360.404 277.034 359.607C275.713 357.621 273.461 356.318 270.905 356.318ZM270.901 366.592C269.473 366.592 268.315 365.434 268.315 364.005C268.315 362.576 269.473 361.418 270.901 361.418C272.33 361.418 273.488 362.576 273.488 364.005C273.488 365.434 272.33 366.592 270.901 366.592Z" fill="#9EE0D5"/>
<path fill-rule="evenodd" clip-rule="evenodd" d="M268.964 346.686C264.213 346.686 259.977 348.887 257.218 352.329C256.834 352.808 256.135 352.885 255.656 352.501C255.177 352.117 255.1 351.418 255.484 350.939C258.646 346.993 263.51 344.463 268.964 344.463C274.418 344.463 279.282 346.993 282.445 350.939C282.829 351.418 282.752 352.117 282.273 352.501C281.794 352.885 281.094 352.808 280.71 352.329C277.951 348.887 273.715 346.686 268.964 346.686ZM268.964 353.755C266.19 353.755 263.747 355.17 262.316 357.322C261.976 357.833 261.286 357.972 260.775 357.632C260.264 357.292 260.125 356.602 260.465 356.091C262.29 353.346 265.415 351.532 268.964 351.532C272.513 351.532 275.638 353.346 277.463 356.091C277.803 356.602 277.664 357.292 277.153 357.632C276.642 357.972 275.952 357.833 275.612 357.322C274.181 355.17 271.738 353.755 268.964 353.755ZM268.961 364.652C267.532 364.652 266.374 363.494 266.374 362.065C266.374 360.637 267.532 359.479 268.961 359.479C270.389 359.479 271.547 360.637 271.547 362.065C271.547 363.494 270.389 364.652 268.961 364.652Z" fill="#214766"/>
</g>
</g>
<g filter="url(#filter5_d_7568_55074)">
<g clip-path="url(#clip7_7568_55074)">
<rect x="23.022" y="389.225" width="274.956" height="56.9086" rx="6.12716" fill="white"/>
<rect x="39.5467" y="410.786" width="13.7861" height="13.7861" rx="2.29768" stroke="#9F9FA1" stroke-width="1.53179"/>
<path d="M68.9196 413.343V417.051H65.4517V413.343H63.6111V422.68H65.4517V418.812H68.9196V422.68H70.7469V413.343H68.9196ZM74.1219 420.052H79.1503C79.1904 419.825 79.217 419.599 79.217 419.345C79.217 417.385 77.8165 415.824 75.8425 415.824C73.7485 415.824 72.3213 417.358 72.3213 419.345C72.3213 421.333 73.7351 422.866 75.9759 422.866C77.2564 422.866 78.2567 422.346 78.8836 421.439L77.4964 420.639C77.203 421.026 76.6695 421.306 76.0026 421.306C75.0956 421.306 74.362 420.932 74.1219 420.052ZM74.0953 418.718C74.2953 417.865 74.9222 417.371 75.8425 417.371C76.5628 417.371 77.283 417.758 77.4964 418.718H74.0953ZM88.0608 415.824C87.1538 415.824 86.4869 416.184 86.0735 416.784C85.7 416.171 85.0865 415.824 84.2595 415.824C83.4059 415.824 82.779 416.157 82.4055 416.718V416.011H80.6849V422.68H82.4055V418.932C82.4055 417.931 82.9257 417.425 83.6593 417.425C84.3795 417.425 84.7797 417.905 84.7797 418.692V422.68H86.5003V418.932C86.5003 417.931 86.9804 417.425 87.7407 417.425C88.461 417.425 88.8611 417.905 88.8611 418.692V422.68H90.5817V418.572C90.5817 416.904 89.5813 415.824 88.0608 415.824ZM95.8977 414.81V413.156C93.777 413.023 92.7633 414.103 92.7633 415.944V416.011H91.803V417.665H92.7633V422.68H94.4839V417.665H95.8977V416.011H94.4839V415.944C94.4839 415.037 95.0041 414.744 95.8977 414.81ZM98.6129 415.25C99.1064 415.25 99.5066 414.85 99.5066 414.357C99.5066 413.863 99.1064 413.45 98.6129 413.45C98.1194 413.45 97.7059 413.863 97.7059 414.357C97.7059 414.85 98.1194 415.25 98.6129 415.25ZM101.147 415.25C101.641 415.25 102.041 414.85 102.041 414.357C102.041 413.863 101.641 413.45 101.147 413.45C100.654 413.45 100.24 413.863 100.24 414.357C100.24 414.85 100.654 415.25 101.147 415.25ZM99.88 422.866C101.841 422.866 103.415 421.333 103.415 419.345C103.415 417.358 101.841 415.824 99.88 415.824C97.9193 415.824 96.3588 417.358 96.3588 419.345C96.3588 421.333 97.9193 422.866 99.88 422.866ZM99.88 421.186C98.8663 421.186 98.0794 420.426 98.0794 419.345C98.0794 418.265 98.8663 417.505 99.88 417.505C100.907 417.505 101.694 418.265 101.694 419.345C101.694 420.426 100.907 421.186 99.88 421.186ZM106.612 417.158V416.011H104.892V422.68H106.612V419.492C106.612 418.091 107.746 417.691 108.64 417.798V415.877C107.799 415.877 106.959 416.251 106.612 417.158ZM111.292 417.905C111.292 417.545 111.638 417.358 112.065 417.358C112.559 417.358 112.932 417.611 113.132 418.038L114.599 417.238C114.079 416.317 113.146 415.824 112.065 415.824C110.691 415.824 109.531 416.584 109.531 417.945C109.531 420.292 112.972 419.759 112.972 420.732C112.972 421.119 112.599 421.306 112.052 421.306C111.385 421.306 110.931 420.986 110.745 420.439L109.251 421.279C109.731 422.306 110.718 422.866 112.052 422.866C113.479 422.866 114.733 422.173 114.733 420.732C114.733 418.278 111.292 418.892 111.292 417.905ZM118.082 415.357C118.576 415.357 118.976 414.957 118.976 414.464C118.976 413.97 118.576 413.557 118.082 413.557C117.589 413.557 117.175 413.97 117.175 414.464C117.175 414.957 117.589 415.357 118.082 415.357ZM120.616 415.357C121.11 415.357 121.51 414.957 121.51 414.464C121.51 413.97 121.11 413.557 120.616 413.557C120.123 413.557 119.709 413.97 119.709 414.464C119.709 414.957 120.123 415.357 120.616 415.357ZM121.083 416.011V416.798C120.603 416.197 119.883 415.824 118.909 415.824C117.135 415.824 115.668 417.358 115.668 419.345C115.668 421.333 117.135 422.866 118.909 422.866C119.883 422.866 120.603 422.493 121.083 421.893V422.68H122.804V416.011H121.083ZM119.229 421.226C118.176 421.226 117.389 420.466 117.389 419.345C117.389 418.225 118.176 417.465 119.229 417.465C120.296 417.465 121.083 418.225 121.083 419.345C121.083 420.466 120.296 421.226 119.229 421.226ZM130.78 422.68L128.019 419.305L130.7 416.011H128.646L126.351 418.945V413.343H124.631V422.68H126.351V419.652L128.779 422.68H130.78ZM133.626 417.158V416.011H131.905V422.68H133.626V419.492C133.626 418.091 134.76 417.691 135.653 417.798V415.877C134.813 415.877 133.973 416.251 133.626 417.158ZM137.78 415.21C138.367 415.21 138.847 414.73 138.847 414.157C138.847 413.583 138.367 413.09 137.78 413.09C137.206 413.09 136.726 413.583 136.726 414.157C136.726 414.73 137.206 415.21 137.78 415.21ZM136.926 422.68H138.647V416.011H136.926V422.68ZM144.196 415.824C143.303 415.824 142.609 416.157 142.209 416.758V416.011H140.488V422.68H142.209V419.078C142.209 417.918 142.836 417.425 143.676 417.425C144.45 417.425 144.997 417.891 144.997 418.798V422.68H146.717V418.585C146.717 416.811 145.61 415.824 144.196 415.824ZM153.562 416.011V416.838C153.095 416.211 152.375 415.824 151.428 415.824C149.534 415.824 148.106 417.371 148.106 419.238C148.106 421.119 149.534 422.653 151.428 422.653C152.375 422.653 153.095 422.266 153.562 421.639V422.36C153.562 423.413 152.895 424 151.814 424C150.787 424 150.347 423.587 150.067 423.066L148.6 423.907C149.187 424.987 150.334 425.534 151.761 425.534C153.522 425.534 155.242 424.547 155.242 422.36V416.011H153.562ZM151.694 421.066C150.614 421.066 149.827 420.306 149.827 419.238C149.827 418.185 150.614 417.425 151.694 417.425C152.775 417.425 153.562 418.185 153.562 419.238C153.562 420.306 152.775 421.066 151.694 421.066Z" fill="#214766"/>
<path d="M281.543 418.5H259.967C259.397 418.5 258.989 417.976 259.19 417.442C260.085 415.057 263.008 409.472 270.755 409.472C278.502 409.472 281.425 415.057 282.32 417.442C282.521 417.976 282.113 418.5 281.543 418.5Z" fill="#D299F4" stroke="#D299F4" stroke-width="2.22299"/>
<path d="M279.08 416.038H257.505C256.934 416.038 256.527 415.514 256.728 414.979C257.623 412.595 260.546 407.009 268.293 407.009C276.04 407.009 278.963 412.595 279.858 414.979C280.058 415.514 279.651 416.038 279.08 416.038Z" stroke="#214766" stroke-width="1.77839"/>
<path d="M268.293 416.859C268.293 416.859 268.293 427.022 268.293 427.454C268.293 427.886 267.856 429.42 266.106 429.42C264.357 429.42 263.92 427.234 263.92 427.234" stroke="#214766" stroke-width="1.77839" stroke-linecap="round"/>
<path d="M268.293 405.368C268.293 405.368 268.293 405.682 268.293 406.113" stroke="#214766" stroke-width="2.66759" stroke-linecap="round"/>
</g>
</g>
<g filter="url(#filter6_d_7568_55074)">
<g clip-path="url(#clip8_7568_55074)">
<rect x="23.022" y="452.261" width="274.956" height="56.9086" rx="6.12716" fill="white"/>
<rect x="39.5467" y="473.822" width="13.7861" height="13.7861" rx="2.29768" stroke="#9F9FA1" stroke-width="1.53179"/>
<path d="M69.1864 478.139V476.379H63.6111V485.715H65.4517V482.114H69.0797V480.353H65.4517V478.139H69.1864ZM71.5679 478.246C72.1548 478.246 72.635 477.766 72.635 477.192C72.635 476.619 72.1548 476.125 71.5679 476.125C70.9944 476.125 70.5142 476.619 70.5142 477.192C70.5142 477.766 70.9944 478.246 71.5679 478.246ZM70.7143 485.715H72.4349V479.046H70.7143V485.715ZM80.4253 485.715L77.9844 482.301L80.3186 479.046H78.3445L76.9974 480.927L75.6503 479.046H73.6629L75.9971 482.314L73.5562 485.715H75.5436L76.9974 483.688L78.4379 485.715H80.4253ZM93.0615 485.182L91.8611 483.861C92.2479 483.248 92.5147 482.568 92.6747 481.901L91.1275 481.02C91.0208 481.607 90.8741 482.127 90.674 482.568L88.6733 480.38C88.2465 479.913 87.9131 479.527 87.9131 478.966C87.9131 478.393 88.3799 477.979 89.0201 477.979C89.687 477.979 90.1538 478.406 90.3939 479.1L91.9678 478.193C91.4343 476.872 90.3006 476.192 88.9934 476.192C87.3129 476.192 86.0724 477.299 86.0724 478.886C86.0724 479.527 86.2592 480.02 86.5259 480.447C85.4989 481.047 84.9654 482.047 84.9654 483.128C84.9654 484.848 86.3392 485.902 88.2332 485.902C89.2469 485.902 90.0738 485.595 90.7407 485.102L91.5943 486.022L93.0615 485.182ZM88.3532 484.208C87.3262 484.208 86.8194 483.688 86.8194 482.941C86.8194 482.474 87.0194 481.981 87.5529 481.647C87.5529 481.661 87.5663 481.674 87.5796 481.687L89.5936 483.875C89.2469 484.088 88.8334 484.208 88.3532 484.208ZM103.196 485.715H105.184L103.116 482.194C104.183 481.701 104.917 480.647 104.917 479.473C104.917 477.766 103.53 476.379 101.809 476.379H98.0746V485.715H99.9152V482.474H101.316L103.196 485.715ZM99.9152 478.099H101.809C102.503 478.099 103.076 478.7 103.076 479.473C103.076 480.247 102.503 480.86 101.809 480.86H99.9152V478.099ZM107.569 483.088H112.598C112.638 482.861 112.665 482.634 112.665 482.381C112.665 480.42 111.264 478.86 109.29 478.86C107.196 478.86 105.769 480.393 105.769 482.381C105.769 484.368 107.183 485.902 109.423 485.902C110.704 485.902 111.704 485.382 112.331 484.475L110.944 483.675C110.651 484.061 110.117 484.342 109.45 484.342C108.543 484.342 107.81 483.968 107.569 483.088ZM107.543 481.754C107.743 480.9 108.37 480.407 109.29 480.407C110.01 480.407 110.731 480.794 110.944 481.754H107.543ZM117.84 478.86C116.947 478.86 116.253 479.193 115.853 479.793V479.046H114.132V485.715H115.853V482.114C115.853 480.954 116.48 480.46 117.32 480.46C118.094 480.46 118.641 480.927 118.641 481.834V485.715H120.361V481.621C120.361 479.847 119.254 478.86 117.84 478.86ZM125.272 485.902C127.232 485.902 128.806 484.368 128.806 482.381C128.806 480.393 127.232 478.86 125.272 478.86C123.311 478.86 121.75 480.393 121.75 482.381C121.75 484.368 123.311 485.902 125.272 485.902ZM125.272 484.221C124.258 484.221 123.471 483.461 123.471 482.381C123.471 481.3 124.258 480.54 125.272 480.54C126.299 480.54 127.086 481.3 127.086 482.381C127.086 483.461 126.299 484.221 125.272 484.221ZM134.411 479.046L132.784 483.715L131.17 479.046H129.276L131.81 485.715H133.771L136.305 479.046H134.411ZM138.595 483.088H143.623C143.663 482.861 143.69 482.634 143.69 482.381C143.69 480.42 142.289 478.86 140.315 478.86C138.221 478.86 136.794 480.393 136.794 482.381C136.794 484.368 138.208 485.902 140.449 485.902C141.729 485.902 142.73 485.382 143.356 484.475L141.969 483.675C141.676 484.061 141.142 484.342 140.475 484.342C139.568 484.342 138.835 483.968 138.595 483.088ZM138.568 481.754C138.768 480.9 139.395 480.407 140.315 480.407C141.036 480.407 141.756 480.794 141.969 481.754H138.568ZM146.878 480.193V479.046H145.158V485.715H146.878V482.528C146.878 481.127 148.012 480.727 148.906 480.834V478.913C148.065 478.913 147.225 479.286 146.878 480.193ZM151.032 478.246C151.619 478.246 152.099 477.766 152.099 477.192C152.099 476.619 151.619 476.125 151.032 476.125C150.459 476.125 149.979 476.619 149.979 477.192C149.979 477.766 150.459 478.246 151.032 478.246ZM150.179 485.715H151.899V479.046H150.179V485.715ZM157.449 478.86C156.555 478.86 155.862 479.193 155.462 479.793V479.046H153.741V485.715H155.462V482.114C155.462 480.954 156.088 480.46 156.929 480.46C157.702 480.46 158.249 480.927 158.249 481.834V485.715H159.97V481.621C159.97 479.847 158.863 478.86 157.449 478.86ZM166.814 479.046V479.873C166.347 479.246 165.627 478.86 164.68 478.86C162.786 478.86 161.359 480.407 161.359 482.274C161.359 484.155 162.786 485.689 164.68 485.689C165.627 485.689 166.347 485.302 166.814 484.675V485.395C166.814 486.449 166.147 487.036 165.067 487.036C164.04 487.036 163.6 486.622 163.32 486.102L161.852 486.942C162.439 488.023 163.586 488.57 165.014 488.57C166.774 488.57 168.495 487.583 168.495 485.395V479.046H166.814ZM164.947 484.101C163.866 484.101 163.08 483.341 163.08 482.274C163.08 481.22 163.866 480.46 164.947 480.46C166.027 480.46 166.814 481.22 166.814 482.274C166.814 483.341 166.027 484.101 164.947 484.101Z" fill="#214766"/>
<path d="M265.066 477.036C264.796 476.783 264.436 476.65 264.065 476.65H263.301C263.2 476.65 263.097 476.657 263.007 476.701C262.729 476.835 262.37 477.176 262.307 477.409L262.048 478.368C261.902 478.906 261.232 479.114 260.856 478.738L259.378 477.26C258.99 476.871 259.224 476.179 259.784 476.059L260.486 475.908C260.887 475.822 261.377 475.207 261.412 474.802C261.461 474.237 261.829 473.745 262.827 472.748C265.28 470.294 271.57 471.57 271.053 472.087C270.587 472.554 265.539 473.652 266.262 474.375C268.116 476.56 277.476 486.552 280.902 490.202C281.557 490.9 281.419 492.021 280.603 492.52C280.433 492.623 280.266 492.724 280.112 492.815C279.8 492.999 279.427 493.059 279.109 492.886C276.076 491.236 269.401 481.107 265.066 477.036Z" fill="#9EE0D5" stroke="#9EE0D5" stroke-width="1.47607" stroke-linecap="round" stroke-linejoin="round"/>
<path d="M264.639 489.236C264.713 489.857 261.862 492.014 261.862 492.014C261.862 492.014 264.824 493.124 266.881 491.067C268.938 489.01 267.884 486.463 267.884 486.463C270.895 483.538 273.773 480.933 276.752 478.039C276.752 478.039 278.855 479.093 280.912 477.035C282.97 474.978 281.859 472.017 281.859 472.017C281.859 472.017 279.788 474.794 279.082 474.794C278.377 474.794 277.127 473.895 277.337 473.048C277.547 472.202 280.114 470.271 280.114 470.271C280.114 470.271 277.152 469.161 275.095 471.218C273.038 473.275 274.092 475.822 274.092 475.822C271.436 478.287 267.908 481.55 265.224 484.246C265.224 484.246 263.121 483.192 261.064 485.25C259.007 487.307 260.117 490.268 260.117 490.268C260.117 490.268 262.052 487.64 262.894 487.491C263.736 487.343 264.566 488.616 264.639 489.236Z" fill="#9EE0D5" stroke="#9EE0D5" stroke-width="1.47607" stroke-linejoin="round"/>
<path d="M268.653 477.931C270.028 476.64 271.38 475.387 272.561 474.291C272.561 474.291 271.507 471.744 273.564 469.687C275.621 467.63 278.583 468.741 278.583 468.741C278.583 468.741 276.015 470.671 275.806 471.518C275.596 472.364 276.845 473.263 277.551 473.263C278.256 473.263 280.328 470.486 280.328 470.486C280.328 470.486 281.438 473.448 279.381 475.505C277.324 477.562 275.221 476.508 275.221 476.508C273.831 477.858 272.463 479.146 271.093 480.432M268.885 482.51C268.048 483.301 267.206 484.104 266.353 484.932C266.353 484.932 267.407 487.479 265.35 489.536C263.293 491.593 260.331 490.483 260.331 490.483C260.331 490.483 263.181 488.326 263.108 487.706C263.035 487.085 262.205 485.812 261.363 485.961C260.521 486.109 258.586 488.738 258.586 488.738C258.586 488.738 257.475 485.776 259.533 483.719C261.59 481.662 263.693 482.715 263.693 482.715C264.587 481.817 265.576 480.855 266.594 479.881" stroke="#214766" stroke-width="1.47607" stroke-linejoin="round"/>
<path d="M262.77 475.506C262.499 475.252 262.14 475.119 261.769 475.119H261.004C260.903 475.119 260.801 475.126 260.71 475.17C260.432 475.304 260.074 475.645 260.011 475.878L259.751 476.837C259.606 477.376 258.936 477.583 258.559 477.207L257.081 475.729C256.693 475.341 256.928 474.648 257.488 474.528L258.19 474.377C258.59 474.291 259.081 473.676 259.116 473.271C259.165 472.707 259.533 472.214 260.53 471.217C262.984 468.763 269.274 470.039 268.757 470.556C268.29 471.023 263.242 472.121 263.965 472.844C265.694 474.882 270.328 480.483 274.921 485.076C276.586 486.741 277.648 487.803 278.324 488.479C278.963 489.118 278.975 490.236 278.296 490.832C278.127 490.981 277.955 491.125 277.793 491.249C277.506 491.469 277.131 491.528 276.813 491.356C273.779 489.705 267.105 479.576 262.77 475.506Z" stroke="#214766" stroke-width="1.47607" stroke-linecap="round" stroke-linejoin="round"/>
<path d="M262.291 475.125C263.334 474.414 263.696 473.887 264.205 472.828" stroke="#214766" stroke-width="1.47607"/>
</g>
</g>
<g filter="url(#filter7_d_7568_55074)">
<g clip-path="url(#clip9_7568_55074)">
<rect x="23.022" y="515.296" width="274.956" height="56.9086" rx="6.12716" fill="white"/>
<rect x="39.5467" y="536.858" width="13.7861" height="13.7861" rx="2.29768" stroke="#9F9FA1" stroke-width="1.53179"/>
<path d="M69.1864 541.175V539.414H63.6111V548.75H65.4517V545.149H69.0797V543.389H65.4517V541.175H69.1864ZM72.6216 541.321C73.1151 541.321 73.5153 540.921 73.5153 540.428C73.5153 539.934 73.1151 539.521 72.6216 539.521C72.1281 539.521 71.7146 539.934 71.7146 540.428C71.7146 540.921 72.1281 541.321 72.6216 541.321ZM75.1558 541.321C75.6493 541.321 76.0495 540.921 76.0495 540.428C76.0495 539.934 75.6493 539.521 75.1558 539.521C74.6623 539.521 74.2489 539.934 74.2489 540.428C74.2489 540.921 74.6623 541.321 75.1558 541.321ZM73.8887 548.937C75.8494 548.937 77.4233 547.403 77.4233 545.416C77.4233 543.429 75.8494 541.895 73.8887 541.895C71.928 541.895 70.3675 543.429 70.3675 545.416C70.3675 547.403 71.928 548.937 73.8887 548.937ZM73.8887 547.257C72.875 547.257 72.0881 546.496 72.0881 545.416C72.0881 544.336 72.875 543.575 73.8887 543.575C74.9157 543.575 75.7027 544.336 75.7027 545.416C75.7027 546.496 74.9157 547.257 73.8887 547.257ZM80.6211 543.229V542.082H78.9005V548.75H80.6211V545.563C80.6211 544.162 81.7548 543.762 82.6484 543.869V541.948C81.8081 541.948 80.9678 542.322 80.6211 543.229ZM85.3003 543.976C85.3003 543.615 85.6471 543.429 86.0739 543.429C86.5674 543.429 86.9409 543.682 87.1409 544.109L88.6081 543.309C88.0879 542.388 87.1543 541.895 86.0739 541.895C84.7001 541.895 83.5397 542.655 83.5397 544.016C83.5397 546.363 86.9809 545.829 86.9809 546.803C86.9809 547.19 86.6074 547.377 86.0605 547.377C85.3936 547.377 84.9402 547.057 84.7534 546.51L83.2596 547.35C83.7397 548.377 84.7267 548.937 86.0605 548.937C87.4877 548.937 88.7415 548.244 88.7415 546.803C88.7415 544.349 85.3003 544.963 85.3003 543.976ZM96.2636 548.75L93.5026 545.376L96.1835 542.082H94.1295L91.8354 545.016V539.414H90.1148V548.75H91.8354V545.723L94.2629 548.75H96.2636ZM100.082 548.937C102.042 548.937 103.616 547.403 103.616 545.416C103.616 543.429 102.042 541.895 100.082 541.895C98.121 541.895 96.5604 543.429 96.5604 545.416C96.5604 547.403 98.121 548.937 100.082 548.937ZM100.082 547.257C99.068 547.257 98.281 546.496 98.281 545.416C98.281 544.336 99.068 543.575 100.082 543.575C101.109 543.575 101.896 544.336 101.896 545.416C101.896 546.496 101.109 547.257 100.082 547.257ZM105.093 548.75H106.814V539.014H105.093V548.75ZM113.724 542.082V542.868C113.244 542.268 112.524 541.895 111.55 541.895C109.776 541.895 108.309 543.429 108.309 545.416C108.309 547.403 109.776 548.937 111.55 548.937C112.524 548.937 113.244 548.564 113.724 547.964V548.75H115.445V542.082H113.724ZM111.87 547.297C110.816 547.297 110.029 546.536 110.029 545.416C110.029 544.296 110.816 543.535 111.87 543.535C112.937 543.535 113.724 544.296 113.724 545.416C113.724 546.536 112.937 547.297 111.87 547.297ZM128.782 548.217L127.582 546.897C127.969 546.283 128.235 545.603 128.395 544.936L126.848 544.056C126.742 544.642 126.595 545.163 126.395 545.603L124.394 543.415C123.967 542.948 123.634 542.562 123.634 542.001C123.634 541.428 124.101 541.014 124.741 541.014C125.408 541.014 125.875 541.441 126.115 542.135L127.688 541.228C127.155 539.907 126.021 539.227 124.714 539.227C123.034 539.227 121.793 540.334 121.793 541.921C121.793 542.562 121.98 543.055 122.247 543.482C121.22 544.082 120.686 545.083 120.686 546.163C120.686 547.884 122.06 548.937 123.954 548.937C124.968 548.937 125.795 548.63 126.461 548.137L127.315 549.057L128.782 548.217ZM124.074 547.243C123.047 547.243 122.54 546.723 122.54 545.976C122.54 545.509 122.74 545.016 123.274 544.682C123.274 544.696 123.287 544.709 123.3 544.722L125.314 546.91C124.968 547.123 124.554 547.243 124.074 547.243ZM136.983 548.937C138.97 548.937 140.371 547.87 140.371 546.123C140.371 544.216 138.797 543.722 137.317 543.255C135.903 542.828 135.543 542.522 135.543 541.948C135.543 541.415 135.996 541.014 136.77 541.014C137.717 541.014 138.223 541.508 138.557 542.215L140.104 541.321C139.477 540.014 138.304 539.227 136.77 539.227C135.169 539.227 133.702 540.241 133.702 542.001C133.702 543.775 135.089 544.376 136.516 544.789C137.903 545.189 138.53 545.456 138.53 546.15C138.53 546.67 138.143 547.137 137.036 547.137C135.876 547.137 135.222 546.576 134.889 545.709L133.315 546.63C133.822 548.017 135.076 548.937 136.983 548.937ZM147.907 548.75L145.146 545.376L147.827 542.082H145.773L143.479 545.016V539.414H141.758V548.75H143.479V545.723L145.906 548.75H147.907ZM151.725 548.937C153.686 548.937 155.26 547.403 155.26 545.416C155.26 543.429 153.686 541.895 151.725 541.895C149.764 541.895 148.204 543.429 148.204 545.416C148.204 547.403 149.764 548.937 151.725 548.937ZM151.725 547.257C150.711 547.257 149.924 546.496 149.924 545.416C149.924 544.336 150.711 543.575 151.725 543.575C152.752 543.575 153.539 544.336 153.539 545.416C153.539 546.496 152.752 547.257 151.725 547.257ZM156.737 548.75H158.457V539.014H156.737V548.75ZM165.367 542.082V542.868C164.887 542.268 164.167 541.895 163.193 541.895C161.419 541.895 159.952 543.429 159.952 545.416C159.952 547.403 161.419 548.937 163.193 548.937C164.167 548.937 164.887 548.564 165.367 547.964V548.75H167.088V542.082H165.367ZM163.513 547.297C162.46 547.297 161.673 546.536 161.673 545.416C161.673 544.296 162.46 543.535 163.513 543.535C164.58 543.535 165.367 544.296 165.367 545.416C165.367 546.536 164.58 547.297 163.513 547.297Z" fill="#214766"/>
<rect x="263.904" y="532.621" width="11.8068" height="11.8068" rx="1.71976" fill="#FFA65F"/>
<rect x="270.849" y="545.817" width="11.8068" height="11.8068" rx="1.71976" fill="#FFE794"/>
<rect x="257.653" y="545.817" width="11.8068" height="11.8068" rx="1.71976" fill="#9EE0D5"/>
<mask id="path-64-inside-1_7568_55074" fill="white">
<rect x="261.82" y="530.538" width="11.8068" height="11.8068" rx="1.71976"/>
</mask>
<rect x="261.82" y="530.538" width="11.8068" height="11.8068" rx="1.71976" stroke="#214766" stroke-width="3.55679" mask="url(#path-64-inside-1_7568_55074)"/>
<path d="M268.771 538.468C268.85 538.709 269.075 538.872 269.328 538.872V538.872C269.732 538.872 270.015 538.473 269.882 538.092L268.629 534.514C268.524 534.212 268.239 534.01 267.919 534.01L267.528 534.01C267.209 534.01 266.924 534.212 266.818 534.514L265.566 538.092C265.433 538.473 265.715 538.872 266.119 538.872V538.872C266.373 538.872 266.597 538.709 266.676 538.468L266.794 538.108L268.653 538.108L268.771 538.468ZM267.138 537.066L267.724 535.281L268.31 537.066L267.138 537.066Z" fill="#214766"/>
<mask id="path-66-inside-2_7568_55074" fill="white">
<rect x="255.57" y="543.733" width="11.8068" height="11.8068" rx="1.71976"/>
</mask>
<rect x="255.57" y="543.733" width="11.8068" height="11.8068" rx="1.71976" stroke="#214766" stroke-width="3.55679" mask="url(#path-66-inside-2_7568_55074)"/>
<path d="M262.636 549.547C262.889 549.317 263.043 548.998 263.043 548.595C263.043 547.755 262.382 547.206 261.567 547.206H260.49C260.074 547.206 259.737 547.543 259.737 547.958V551.315C259.737 551.731 260.074 552.068 260.49 552.068H261.701C262.535 552.068 263.21 551.505 263.21 550.644C263.21 550.151 262.983 549.776 262.636 549.547ZM261.567 548.248C261.814 548.248 261.974 548.428 261.974 548.678C261.974 548.928 261.808 549.109 261.567 549.109H260.806V548.248H261.567ZM261.701 551.026H260.806V550.095H261.701C261.968 550.095 262.141 550.29 262.141 550.561C262.141 550.831 261.968 551.026 261.701 551.026Z" fill="#214766"/>
<mask id="path-68-inside-3_7568_55074" fill="white">
<rect x="268.766" y="543.733" width="11.8068" height="11.8068" rx="1.71976"/>
</mask>
<rect x="268.766" y="543.733" width="11.8068" height="11.8068" rx="1.71976" stroke="#214766" stroke-width="3.55679" mask="url(#path-68-inside-3_7568_55074)"/>
<path d="M274.904 552.068C275.601 552.068 276.232 551.835 276.691 551.445C276.943 551.231 276.847 550.852 276.555 550.697V550.697C276.294 550.559 275.971 550.663 275.718 550.815C275.494 550.951 275.212 551.026 274.904 551.026C273.996 551.026 273.411 550.472 273.411 549.637C273.411 548.802 273.996 548.248 274.904 548.248C275.215 548.248 275.497 548.324 275.722 548.463C275.972 548.616 276.291 548.716 276.55 548.579V548.579C276.844 548.424 276.939 548.041 276.684 547.826C276.223 547.437 275.594 547.206 274.904 547.206C273.359 547.206 272.239 548.261 272.239 549.637C272.239 551.013 273.359 552.068 274.904 552.068Z" fill="#214766"/>
</g>
</g>
<g filter="url(#filter8_d_7568_55074)">
<g clip-path="url(#clip10_7568_55074)">
<rect x="23.022" y="578.333" width="274.956" height="56.9086" rx="6.12716" fill="white"/>
<rect x="39.5467" y="599.894" width="13.7861" height="13.7861" rx="2.29768" stroke="#9F9FA1" stroke-width="1.53179"/>
<path d="M67.0923 602.45H63.6111V611.787H65.4517V608.719H67.0923C68.8929 608.719 70.2801 607.332 70.2801 605.584C70.2801 603.837 68.8929 602.45 67.0923 602.45ZM67.0923 606.998H65.4517V604.171H67.0923C67.8793 604.171 68.4528 604.771 68.4528 605.584C68.4528 606.385 67.8793 606.998 67.0923 606.998ZM76.2907 605.118V605.905C75.8105 605.304 75.0903 604.931 74.1166 604.931C72.3427 604.931 70.8755 606.465 70.8755 608.452C70.8755 610.439 72.3427 611.973 74.1166 611.973C75.0903 611.973 75.8105 611.6 76.2907 611V611.787H78.0113V605.118H76.2907ZM74.4367 610.333C73.383 610.333 72.5961 609.573 72.5961 608.452C72.5961 607.332 73.383 606.571 74.4367 606.571C75.5038 606.571 76.2907 607.332 76.2907 608.452C76.2907 609.573 75.5038 610.333 74.4367 610.333ZM81.5589 606.265V605.118H79.8383V611.787H81.5589V608.599C81.5589 607.198 82.6926 606.798 83.5863 606.905V604.984C82.746 604.984 81.9057 605.358 81.5589 606.265ZM91.0081 611.787L88.2471 608.412L90.9281 605.118H88.874L86.5799 608.052V602.45H84.8593V611.787H86.5799V608.759L89.0074 611.787H91.0081ZM93.1056 609.159H98.134C98.174 608.932 98.2007 608.706 98.2007 608.452C98.2007 606.491 96.8002 604.931 94.8262 604.931C92.7321 604.931 91.305 606.465 91.305 608.452C91.305 610.439 92.7188 611.973 94.9596 611.973C96.24 611.973 97.2404 611.453 97.8672 610.546L96.4801 609.746C96.1867 610.133 95.6531 610.413 94.9862 610.413C94.0793 610.413 93.3457 610.039 93.1056 609.159ZM93.0789 607.825C93.279 606.972 93.9059 606.478 94.8262 606.478C95.5464 606.478 96.2667 606.865 96.4801 607.825H93.0789ZM101.389 606.265V605.118H99.6686V611.787H101.389V608.599C101.389 607.198 102.523 606.798 103.417 606.905V604.984C102.576 604.984 101.736 605.358 101.389 606.265ZM105.543 604.317C106.13 604.317 106.61 603.837 106.61 603.264C106.61 602.69 106.13 602.197 105.543 602.197C104.97 602.197 104.49 602.69 104.49 603.264C104.49 603.837 104.97 604.317 105.543 604.317ZM104.69 611.787H106.41V605.118H104.69V611.787ZM111.96 604.931C111.066 604.931 110.373 605.264 109.972 605.865V605.118H108.252V611.787H109.972V608.185C109.972 607.025 110.599 606.531 111.44 606.531C112.213 606.531 112.76 606.998 112.76 607.905V611.787H114.481V607.692C114.481 605.918 113.374 604.931 111.96 604.931ZM121.325 605.118V605.945C120.858 605.318 120.138 604.931 119.191 604.931C117.297 604.931 115.87 606.478 115.87 608.345C115.87 610.226 117.297 611.76 119.191 611.76C120.138 611.76 120.858 611.373 121.325 610.746V611.467C121.325 612.52 120.658 613.107 119.578 613.107C118.551 613.107 118.11 612.694 117.83 612.173L116.363 613.014C116.95 614.094 118.097 614.641 119.524 614.641C121.285 614.641 123.006 613.654 123.006 611.467V605.118H121.325ZM119.458 610.173C118.377 610.173 117.59 609.412 117.59 608.345C117.59 607.292 118.377 606.531 119.458 606.531C120.538 606.531 121.325 607.292 121.325 608.345C121.325 609.412 120.538 610.173 119.458 610.173Z" fill="#214766"/>
<rect x="259.147" y="596.411" width="24.3293" height="24.3293" rx="6.20158" fill="#8EB4FF"/>
<rect x="256.593" y="593.856" width="22.2841" height="22.2841" rx="5.179" stroke="#214766" stroke-width="2.04515"/>
<path d="M267.949 599.989H264.816C264.452 599.989 264.157 600.284 264.157 600.648V609.348C264.157 609.712 264.452 610.007 264.816 610.007H265.788C266.152 610.007 266.447 609.712 266.447 609.348V606.859H267.949C269.924 606.859 271.456 605.327 271.456 603.424C271.456 601.521 269.924 599.989 267.949 599.989ZM267.949 604.712H266.447V602.136H267.949C268.65 602.136 269.166 602.694 269.166 603.424C269.166 604.154 268.65 604.712 267.949 604.712Z" fill="#214766"/>
</g>
</g>
</g>
</g>
<rect width="287.211" height="36.7629" transform="translate(16.8945 31.8696)" fill="#214766"/>
<g clip-path="url(#clip11_7568_55074)">
<path fill-rule="evenodd" clip-rule="evenodd" d="M101.143 53.7526C101.143 53.7526 95.4793 53.1229 94.0877 51.7192C92.696 50.3155 92.696 48.0396 94.0877 46.6358C95.4793 45.2321 97.7358 45.2321 99.1274 46.6358C100.519 48.0396 101.143 53.7526 101.143 53.7526ZM96.5361 50.708C95.6699 50.708 94.968 49.9999 94.968 49.1264C94.968 48.2529 95.6699 47.5448 96.5361 47.5448C97.402 47.5448 98.1039 48.2529 98.1039 49.1264C98.1039 49.9999 97.402 50.708 96.5361 50.708Z" fill="white"/>
<path fill-rule="evenodd" clip-rule="evenodd" d="M93.1749 48.2093C93.1771 48.2208 93.1791 48.2321 93.1813 48.2435C93.3401 47.6848 93.6444 47.1574 94.0937 46.7181C95.4841 45.3585 97.7389 45.3585 99.1293 46.7181C99.5103 47.0907 99.8339 47.7767 100.103 48.5764C100.194 48.2682 100.243 47.9423 100.243 47.6053C100.243 45.6827 98.6489 44.124 96.6822 44.124C95.0573 44.124 93.6864 45.1883 93.2596 46.6427L91.8438 47.4501L93.1749 48.2093ZM98.2475 54.282C96.907 54.0133 95.454 53.6455 94.389 53.1714C95.4123 54.829 96.6822 56.3783 96.6822 56.3783C96.6822 56.3783 97.4345 55.4606 98.2475 54.282Z" fill="white"/>
<path d="M57.3095 49.1564C57.3095 48.8098 57.6526 48.6301 58.075 48.6301C58.5635 48.6301 58.9331 48.874 59.1311 49.2848L60.583 48.5145C60.0682 47.6287 59.1443 47.1537 58.075 47.1537C56.7155 47.1537 55.5672 47.8855 55.5672 49.1949C55.5672 51.4544 58.9727 50.9409 58.9727 51.878C58.9727 52.2503 58.6031 52.4301 58.0618 52.4301C57.4019 52.4301 56.9531 52.122 56.7683 51.5956L55.29 52.4044C55.7652 53.3929 56.7419 53.9321 58.0618 53.9321C59.4742 53.9321 60.7149 53.2645 60.7149 51.878C60.7149 49.5159 57.3095 50.1064 57.3095 49.1564ZM69.1374 47.1537C68.2398 47.1537 67.5799 47.5003 67.1707 48.078C66.8011 47.4875 66.194 47.1537 65.3757 47.1537C64.5309 47.1537 63.9106 47.4746 63.541 48.0138V47.3334H61.8384V53.7524H63.541V50.1449C63.541 49.1821 64.0558 48.6942 64.7817 48.6942C65.4945 48.6942 65.8904 49.1564 65.8904 49.9138V53.7524H67.5931V50.1449C67.5931 49.1821 68.0682 48.6942 68.8206 48.6942C69.5333 48.6942 69.9293 49.1564 69.9293 49.9138V53.7524H71.6319V49.7983C71.6319 48.1936 70.642 47.1537 69.1374 47.1537ZM78.0574 47.3334V48.0909C77.5823 47.5132 76.8695 47.1537 75.906 47.1537C74.1505 47.1537 72.6987 48.6301 72.6987 50.5429C72.6987 52.4557 74.1505 53.9321 75.906 53.9321C76.8695 53.9321 77.5823 53.5726 78.0574 52.9949V53.7524H79.7601V47.3334H78.0574ZM76.2228 52.353C75.1801 52.353 74.4013 51.6213 74.4013 50.5429C74.4013 49.4645 75.1801 48.7328 76.2228 48.7328C77.2787 48.7328 78.0574 49.4645 78.0574 50.5429C78.0574 51.6213 77.2787 52.353 76.2228 52.353ZM82.9707 48.4375V47.3334H81.2681V53.7524H82.9707V50.6841C82.9707 49.3361 84.0926 48.951 84.977 49.0537V47.2051C84.1454 47.2051 83.3139 47.5645 82.9707 48.4375ZM90.4923 48.9253V47.3334H89.0008V45.5361L87.2982 46.0368V47.3334H86.1499V48.9253H87.2982V51.5956C87.2982 53.3287 88.1033 54.0091 90.4923 53.7524V52.2503C89.5156 52.3017 89.0008 52.2888 89.0008 51.5956V48.9253H90.4923Z" fill="white"/>
<path fill-rule="evenodd" clip-rule="evenodd" d="M34.0985 44.2878V45.8745L33.0714 45.8792C32.202 45.8792 31.8019 46.4398 31.8019 47.2692V47.3334H33.201V48.9253H31.8019V53.7523H30.0992V48.9253H29.1489V47.3334H30.0992V47.2692C30.0992 45.5344 31.0149 44.2878 33.0714 44.2878C34.0208 44.2878 34.0553 44.2855 34.0896 44.2873C34.0924 44.2874 34.0952 44.2876 34.0985 44.2878ZM36.6939 53.7523H34.9913V44.3807H36.6939V53.7523ZM41.0541 51.6469L42.5192 47.3334H44.3406L41.9384 53.7523C41.2521 55.601 40.1302 56.4098 38.4539 56.3199V54.7794C39.391 54.7922 39.8662 54.4071 40.183 53.5469L37.4772 47.3334H39.3382L41.0541 51.6469ZM49.1898 47.3334V48.9253H47.6983V51.5956C47.6983 52.2888 48.2131 52.3017 49.1898 52.2503V53.7523C46.8008 54.0091 45.9957 53.3287 45.9957 51.5956V48.9253H44.8473V47.3334H45.9957V46.0368L47.6983 45.5361V47.3334H49.1898ZM54.1713 47.3334V48.9253H52.6799V51.5956C52.6799 52.2888 53.1946 52.3017 54.1713 52.2503V53.7523C51.7823 54.0091 50.9772 53.3287 50.9772 51.5956V48.9253H49.8289V47.3334H50.9772V46.0368L52.6799 45.5361V47.3334H54.1713Z" fill="white"/>
</g>
<circle cx="278.831" cy="50.2512" r="13.0202" fill="white"/>
<path d="M281.401 47.769V46.2525H276.599V54.2944H278.184V51.1926H281.309V49.6761H278.184V47.769H281.401Z" fill="#214766"/>
<path d="M14.2271 35.4264C14.2271 21.1848 25.7721 9.63965 40.0137 9.63965H279.208C293.449 9.63965 304.994 21.1848 304.994 35.4264V35.4264H14.2271V35.4264Z" fill="#214766"/>
<path d="M321 168.75C321 167.922 320.328 167.25 319.5 167.25H318V243.247H319.5C320.328 243.247 321 242.576 321 241.747V168.75Z" fill="url(#paint0_linear_7568_55074)"/>
<path d="M321 178.334C320.999 166.834 320.723 167.249 318 167.249V189.737C317.992 192.474 321.001 196.407 321 178.334Z" fill="url(#paint1_linear_7568_55074)"/>
<path d="M321 231.692C320.999 243.191 320.723 242.776 318 242.776V220.288C317.992 217.551 321.001 213.618 321 231.692Z" fill="url(#paint2_linear_7568_55074)"/>
<rect x="4.25" y="2.49756" width="312.5" height="650.5" rx="50.75" stroke="black" stroke-width="3.5"/>
<rect x="4.5" y="2.74756" width="312" height="650" rx="50.5" stroke="#B5B3AA" stroke-width="3"/>
<rect x="5" y="3.24756" width="311" height="649" rx="50" stroke="#51504B" stroke-width="2"/>
<rect x="12" y="10.2476" width="297" height="635" rx="43" stroke="black" stroke-width="12"/>
<rect x="12" y="10.2476" width="297" height="635" rx="43" stroke="black" stroke-opacity="0.2" stroke-width="12"/>
<path d="M252.996 16.2476C240.902 16.2476 237.516 16.2476 237.516 25.2472C237.516 36.7457 227.839 39.2466 220.097 39.2466L105.903 39.2476C98.1613 39.2476 88.4839 36.7467 88.4839 25.2482C88.4839 16.2486 85.0976 16.2486 73.0044 16.2485L73.0044 14.2476H252.996V16.2476Z" fill="black"/>
<circle cx="194.86" cy="25.2476" r="6" fill="#0C0C0C"/>
<mask id="mask0_7568_55074" style="mask-type:alpha" maskUnits="userSpaceOnUse" x="191" y="22" width="7" height="7">
<circle cx="194.86" cy="25.2476" r="3" fill="#D9D9D9"/>
</mask>
<g mask="url(#mask0_7568_55074)">
<path d="M193.86 27.7482C195.36 30.7485 191.36 27.2483 191.36 25.248C191.36 23.2478 192.36 21.7486 194.86 22.2482C197.36 22.7478 192.36 24.7479 193.86 27.7482Z" fill="url(#paint3_radial_7568_55074)"/>
<path d="M196.677 22.4464C195.235 19.4181 199.167 22.9938 199.129 24.9937C199.091 26.9936 198.063 28.4735 195.573 27.9264C193.083 27.3792 198.12 25.4747 196.677 22.4464Z" fill="url(#paint4_radial_7568_55074)"/>
</g>
<circle cx="195.861" cy="27.2476" r="2" fill="url(#paint5_radial_7568_55074)" fill-opacity="0.7"/>
<circle cx="194.858" cy="23.248" r="2" fill="url(#paint6_radial_7568_55074)" fill-opacity="0.5"/>
<g clip-path="url(#clip12_7568_55074)">
<rect x="145" y="22.2476" width="34" height="5" rx="2.5" fill="#1D1C1C"/>
<line x1="146.197" y1="22.2476" x2="146.197" y2="26.8629" stroke="black" stroke-width="0.33"/>
<line x1="147.226" y1="22.2476" x2="147.226" y2="26.8629" stroke="black" stroke-width="0.33"/>
<line x1="148.257" y1="22.2476" x2="148.257" y2="26.8629" stroke="black" stroke-width="0.33"/>
<line x1="149.286" y1="22.2476" x2="149.286" y2="26.8629" stroke="black" stroke-width="0.33"/>
<line x1="150.318" y1="22.2476" x2="150.318" y2="26.8629" stroke="black" stroke-width="0.33"/>
<line x1="151.346" y1="22.2476" x2="151.346" y2="26.8629" stroke="#111110" stroke-width="0.33"/>
<line x1="152.378" y1="22.2476" x2="152.378" y2="26.8629" stroke="black" stroke-width="0.33"/>
<line x1="153.407" y1="22.2476" x2="153.407" y2="26.8629" stroke="#111110" stroke-width="0.33"/>
<line x1="154.439" y1="22.2476" x2="154.439" y2="26.8629" stroke="black" stroke-width="0.33"/>
<line x1="155.467" y1="22.2476" x2="155.467" y2="26.8629" stroke="#161616" stroke-width="0.33"/>
<line x1="156.499" y1="22.2476" x2="156.499" y2="26.8629" stroke="black" stroke-width="0.33"/>
<line x1="157.528" y1="22.2476" x2="157.528" y2="26.8629" stroke="#161616" stroke-width="0.33"/>
<line x1="158.56" y1="22.2476" x2="158.56" y2="26.8629" stroke="black" stroke-width="0.33"/>
<line x1="159.588" y1="22.2476" x2="159.588" y2="26.8629" stroke="black" stroke-width="0.33"/>
<line x1="160.62" y1="22.2476" x2="160.62" y2="26.8629" stroke="#161616" stroke-width="0.33"/>
<line x1="162.681" y1="22.2476" x2="162.681" y2="26.8629" stroke="#111110" stroke-width="0.33"/>
<line x1="161.649" y1="22.2476" x2="161.649" y2="26.8629" stroke="black" stroke-width="0.33"/>
<line x1="163.709" y1="22.2476" x2="163.709" y2="26.8629" stroke="black" stroke-width="0.33"/>
<line x1="164.742" y1="22.2476" x2="164.742" y2="26.8629" stroke="black" stroke-width="0.33"/>
<line x1="165.769" y1="22.2476" x2="165.769" y2="26.8629" stroke="black" stroke-width="0.33"/>
<line x1="166.802" y1="22.2476" x2="166.802" y2="26.8629" stroke="black" stroke-width="0.33"/>
<line x1="167.83" y1="22.2476" x2="167.83" y2="26.8629" stroke="black" stroke-width="0.33"/>
<line x1="179" y1="23.1821" x2="145" y2="23.1821" stroke="black" stroke-width="0.33"/>
<line x1="179" y1="23.1821" x2="145" y2="23.1821" stroke="#111110" stroke-width="0.33"/>
<line x1="179" y1="25.4897" x2="145" y2="25.4897" stroke="#111110" stroke-width="0.33"/>
<line x1="179" y1="24.7202" x2="145" y2="24.7202" stroke="#111110" stroke-width="0.33"/>
<line x1="179" y1="23.9506" x2="145" y2="23.9506" stroke="#161616" stroke-width="0.33"/>
<line x1="179" y1="26.2588" x2="145" y2="26.2588" stroke="#161616" stroke-width="0.33"/>
<line x1="168.862" y1="22.2476" x2="168.862" y2="26.8629" stroke="#161616" stroke-width="0.33"/>
<line x1="169.891" y1="22.2476" x2="169.891" y2="26.8629" stroke="black" stroke-width="0.33"/>
<line x1="170.923" y1="22.2476" x2="170.923" y2="26.8629" stroke="#111110" stroke-width="0.33"/>
<line x1="171.952" y1="22.2476" x2="171.952" y2="26.8629" stroke="black" stroke-width="0.33"/>
<line x1="172.983" y1="22.2476" x2="172.983" y2="26.8629" stroke="black" stroke-width="0.33"/>
<line x1="174.012" y1="22.2476" x2="174.012" y2="26.8629" stroke="#111110" stroke-width="0.33"/>
<line x1="175.044" y1="22.2476" x2="175.044" y2="26.8629" stroke="#111110" stroke-width="0.33"/>
<line x1="176.072" y1="22.2476" x2="176.072" y2="26.8629" stroke="black" stroke-width="0.33"/>
<line x1="177.104" y1="22.2476" x2="177.104" y2="26.8629" stroke="#111110" stroke-width="0.33"/>
<line x1="178.132" y1="22.2476" x2="178.132" y2="26.8629" stroke="black" stroke-width="0.33"/>
</g>
<path d="M145 22.2476H179H145ZM179 24.7476C179 26.4044 177.657 27.7476 176 27.7476H148C146.343 27.7476 145 26.4044 145 24.7476V24.7476C145 25.8521 146.119 26.7476 147.5 26.7476H176.5C177.881 26.7476 179 25.8521 179 24.7476V24.7476ZM145 27.2476V22.2476V27.2476ZM179 22.2476V27.2476V22.2476Z" fill="#292929" mask="url(#path-97-inside-4_7568_55074)"/>
<rect x="318.5" y="582.248" width="5" height="3.5" transform="rotate(90 318.5 582.248)" fill="url(#paint7_linear_7568_55074)" fill-opacity="0.74"/>
<path d="M0 105.749C0 104.92 0.671573 104.249 1.5 104.249H2.5V128.249H1.5C0.671573 128.249 0 127.577 0 126.749V105.749Z" fill="url(#paint8_linear_7568_55074)"/>
<path d="M0 107.749C0.000613458 104.117 0.230799 104.248 2.49999 104.248V111.35C2.50627 112.214 -0.00096418 113.456 0 107.749Z" fill="url(#paint9_linear_7568_55074)"/>
<path d="M0 124.6C0.000613458 128.231 0.230799 128.1 2.49999 128.1V120.998C2.50627 120.134 -0.00096418 118.892 0 124.6Z" fill="url(#paint10_linear_7568_55074)"/>
<path d="M0 151.75C0 150.921 0.671573 150.25 1.5 150.25H2.5V199.248H1.5C0.671573 199.248 0 198.576 0 197.748V151.75Z" fill="url(#paint11_linear_7568_55074)"/>
<path d="M0 157.395C0.000613458 149.981 0.230799 150.249 2.49999 150.249V164.747C2.50627 166.512 -0.00096418 169.048 0 157.395Z" fill="url(#paint12_linear_7568_55074)"/>
<path d="M0 191.797C0.000613458 199.211 0.230799 198.944 2.49999 198.944V184.445C2.50627 182.68 -0.00096418 180.145 0 191.797Z" fill="url(#paint13_linear_7568_55074)"/>
<path d="M0 213.749C0 212.921 0.671573 212.249 1.5 212.249H2.5V261.247H1.5C0.671573 261.247 0 260.575 0 259.747V213.749Z" fill="url(#paint14_linear_7568_55074)"/>
<path d="M0 219.395C0.000613458 211.981 0.230799 212.249 2.49999 212.249V226.747C2.50627 228.512 -0.00096418 231.048 0 219.395Z" fill="url(#paint15_linear_7568_55074)"/>
<path d="M0 253.797C0.000613458 261.211 0.230799 260.943 2.49999 260.943V246.444C2.50627 244.68 -0.00096418 242.144 0 253.797Z" fill="url(#paint16_linear_7568_55074)"/>
<rect x="318.5" y="69.2476" width="5" height="3.5" transform="rotate(90 318.5 69.2476)" fill="url(#paint17_linear_7568_55074)" fill-opacity="0.74"/>
<path d="M247 0.747559L252 0.747559V4.24756L247 4.24756V0.747559Z" fill="url(#paint18_linear_7568_55074)" fill-opacity="0.74"/>
<path d="M2.5 74.2476L2.5 69.2476L6 69.2476L6 74.2476L2.5 74.2476Z" fill="url(#paint19_linear_7568_55074)" fill-opacity="0.74"/>
<path d="M2.5 587.248L2.5 582.248L6 582.248L6 587.248L2.5 587.248Z" fill="url(#paint20_linear_7568_55074)" fill-opacity="0.74"/>
<path d="M67 654.748L62 654.748L62 651.248L67 651.248L67 654.748Z" fill="url(#paint21_linear_7568_55074)" fill-opacity="0.74"/>
<defs>
<filter id="filter0_d_7568_55074" x="16.8948" y="70.9828" width="287.21" height="69.163" filterUnits="userSpaceOnUse" color-interpolation-filters="sRGB">
<feFlood flood-opacity="0" result="BackgroundImageFix"/>
<feColorMatrix in="SourceAlpha" type="matrix" values="0 0 0 0 0 0 0 0 0 0 0 0 0 0 0 0 0 0 127 0" result="hardAlpha"/>
<feOffset dy="3.06358"/>
<feGaussianBlur stdDeviation="3.06358"/>
<feComposite in2="hardAlpha" operator="out"/>
<feColorMatrix type="matrix" values="0 0 0 0 0 0 0 0 0 0 0 0 0 0 0 0 0 0 0.08 0"/>
<feBlend mode="normal" in2="BackgroundImageFix" result="effect1_dropShadow_7568_55074"/>
<feBlend mode="normal" in="SourceGraphic" in2="effect1_dropShadow_7568_55074" result="shape"/>
</filter>
<filter id="filter1_d_7568_55074" x="16.8948" y="134.018" width="287.21" height="69.163" filterUnits="userSpaceOnUse" color-interpolation-filters="sRGB">
<feFlood flood-opacity="0" result="BackgroundImageFix"/>
<feColorMatrix in="SourceAlpha" type="matrix" values="0 0 0 0 0 0 0 0 0 0 0 0 0 0 0 0 0 0 127 0" result="hardAlpha"/>
<feOffset dy="3.06358"/>
<feGaussianBlur stdDeviation="3.06358"/>
<feComposite in2="hardAlpha" operator="out"/>
<feColorMatrix type="matrix" values="0 0 0 0 0 0 0 0 0 0 0 0 0 0 0 0 0 0 0.08 0"/>
<feBlend mode="normal" in2="BackgroundImageFix" result="effect1_dropShadow_7568_55074"/>
<feBlend mode="normal" in="SourceGraphic" in2="effect1_dropShadow_7568_55074" result="shape"/>
</filter>
<filter id="filter2_d_7568_55074" x="16.8948" y="197.054" width="287.21" height="69.163" filterUnits="userSpaceOnUse" color-interpolation-filters="sRGB">
<feFlood flood-opacity="0" result="BackgroundImageFix"/>
<feColorMatrix in="SourceAlpha" type="matrix" values="0 0 0 0 0 0 0 0 0 0 0 0 0 0 0 0 0 0 127 0" result="hardAlpha"/>
<feOffset dy="3.06358"/>
<feGaussianBlur stdDeviation="3.06358"/>
<feComposite in2="hardAlpha" operator="out"/>
<feColorMatrix type="matrix" values="0 0 0 0 0 0 0 0 0 0 0 0 0 0 0 0 0 0 0.08 0"/>
<feBlend mode="normal" in2="BackgroundImageFix" result="effect1_dropShadow_7568_55074"/>
<feBlend mode="normal" in="SourceGraphic" in2="effect1_dropShadow_7568_55074" result="shape"/>
</filter>
<filter id="filter3_d_7568_55074" x="16.8948" y="260.091" width="287.21" height="69.163" filterUnits="userSpaceOnUse" color-interpolation-filters="sRGB">
<feFlood flood-opacity="0" result="BackgroundImageFix"/>
<feColorMatrix in="SourceAlpha" type="matrix" values="0 0 0 0 0 0 0 0 0 0 0 0 0 0 0 0 0 0 127 0" result="hardAlpha"/>
<feOffset dy="3.06358"/>
<feGaussianBlur stdDeviation="3.06358"/>
<feComposite in2="hardAlpha" operator="out"/>
<feColorMatrix type="matrix" values="0 0 0 0 0 0 0 0 0 0 0 0 0 0 0 0 0 0 0.08 0"/>
<feBlend mode="normal" in2="BackgroundImageFix" result="effect1_dropShadow_7568_55074"/>
<feBlend mode="normal" in="SourceGraphic" in2="effect1_dropShadow_7568_55074" result="shape"/>
</filter>
<filter id="filter4_d_7568_55074" x="16.8948" y="323.126" width="287.21" height="69.163" filterUnits="userSpaceOnUse" color-interpolation-filters="sRGB">
<feFlood flood-opacity="0" result="BackgroundImageFix"/>
<feColorMatrix in="SourceAlpha" type="matrix" values="0 0 0 0 0 0 0 0 0 0 0 0 0 0 0 0 0 0 127 0" result="hardAlpha"/>
<feOffset dy="3.06358"/>
<feGaussianBlur stdDeviation="3.06358"/>
<feComposite in2="hardAlpha" operator="out"/>
<feColorMatrix type="matrix" values="0 0 0 0 0 0 0 0 0 0 0 0 0 0 0 0 0 0 0.08 0"/>
<feBlend mode="normal" in2="BackgroundImageFix" result="effect1_dropShadow_7568_55074"/>
<feBlend mode="normal" in="SourceGraphic" in2="effect1_dropShadow_7568_55074" result="shape"/>
</filter>
<filter id="filter5_d_7568_55074" x="16.8948" y="386.162" width="287.21" height="69.163" filterUnits="userSpaceOnUse" color-interpolation-filters="sRGB">
<feFlood flood-opacity="0" result="BackgroundImageFix"/>
<feColorMatrix in="SourceAlpha" type="matrix" values="0 0 0 0 0 0 0 0 0 0 0 0 0 0 0 0 0 0 127 0" result="hardAlpha"/>
<feOffset dy="3.06358"/>
<feGaussianBlur stdDeviation="3.06358"/>
<feComposite in2="hardAlpha" operator="out"/>
<feColorMatrix type="matrix" values="0 0 0 0 0 0 0 0 0 0 0 0 0 0 0 0 0 0 0.08 0"/>
<feBlend mode="normal" in2="BackgroundImageFix" result="effect1_dropShadow_7568_55074"/>
<feBlend mode="normal" in="SourceGraphic" in2="effect1_dropShadow_7568_55074" result="shape"/>
</filter>
<filter id="filter6_d_7568_55074" x="16.8948" y="449.197" width="287.21" height="69.163" filterUnits="userSpaceOnUse" color-interpolation-filters="sRGB">
<feFlood flood-opacity="0" result="BackgroundImageFix"/>
<feColorMatrix in="SourceAlpha" type="matrix" values="0 0 0 0 0 0 0 0 0 0 0 0 0 0 0 0 0 0 127 0" result="hardAlpha"/>
<feOffset dy="3.06358"/>
<feGaussianBlur stdDeviation="3.06358"/>
<feComposite in2="hardAlpha" operator="out"/>
<feColorMatrix type="matrix" values="0 0 0 0 0 0 0 0 0 0 0 0 0 0 0 0 0 0 0.08 0"/>
<feBlend mode="normal" in2="BackgroundImageFix" result="effect1_dropShadow_7568_55074"/>
<feBlend mode="normal" in="SourceGraphic" in2="effect1_dropShadow_7568_55074" result="shape"/>
</filter>
<filter id="filter7_d_7568_55074" x="16.8948" y="512.233" width="287.21" height="69.163" filterUnits="userSpaceOnUse" color-interpolation-filters="sRGB">
<feFlood flood-opacity="0" result="BackgroundImageFix"/>
<feColorMatrix in="SourceAlpha" type="matrix" values="0 0 0 0 0 0 0 0 0 0 0 0 0 0 0 0 0 0 127 0" result="hardAlpha"/>
<feOffset dy="3.06358"/>
<feGaussianBlur stdDeviation="3.06358"/>
<feComposite in2="hardAlpha" operator="out"/>
<feColorMatrix type="matrix" values="0 0 0 0 0 0 0 0 0 0 0 0 0 0 0 0 0 0 0.08 0"/>
<feBlend mode="normal" in2="BackgroundImageFix" result="effect1_dropShadow_7568_55074"/>
<feBlend mode="normal" in="SourceGraphic" in2="effect1_dropShadow_7568_55074" result="shape"/>
</filter>
<filter id="filter8_d_7568_55074" x="16.8948" y="575.269" width="287.21" height="69.163" filterUnits="userSpaceOnUse" color-interpolation-filters="sRGB">
<feFlood flood-opacity="0" result="BackgroundImageFix"/>
<feColorMatrix in="SourceAlpha" type="matrix" values="0 0 0 0 0 0 0 0 0 0 0 0 0 0 0 0 0 0 127 0" result="hardAlpha"/>
<feOffset dy="3.06358"/>
<feGaussianBlur stdDeviation="3.06358"/>
<feComposite in2="hardAlpha" operator="out"/>
<feColorMatrix type="matrix" values="0 0 0 0 0 0 0 0 0 0 0 0 0 0 0 0 0 0 0.08 0"/>
<feBlend mode="normal" in2="BackgroundImageFix" result="effect1_dropShadow_7568_55074"/>
<feBlend mode="normal" in="SourceGraphic" in2="effect1_dropShadow_7568_55074" result="shape"/>
</filter>
<linearGradient id="paint0_linear_7568_55074" x1="318" y1="209.999" x2="320.5" y2="209.999" gradientUnits="userSpaceOnUse">
<stop/>
<stop offset="1" stop-color="#CECECD"/>
</linearGradient>
<linearGradient id="paint1_linear_7568_55074" x1="319.771" y1="167.258" x2="314.591" y2="185.773" gradientUnits="userSpaceOnUse">
<stop/>
<stop offset="0.166667" stop-color="#D5D3C8"/>
<stop offset="0.411458" stop-color="white" stop-opacity="0"/>
</linearGradient>
<linearGradient id="paint2_linear_7568_55074" x1="319.771" y1="242.767" x2="314.591" y2="224.252" gradientUnits="userSpaceOnUse">
<stop/>
<stop offset="0.166667" stop-color="#D5D3C8"/>
<stop offset="0.411458" stop-color="white" stop-opacity="0"/>
</linearGradient>
<radialGradient id="paint3_radial_7568_55074" cx="0" cy="0" r="1" gradientUnits="userSpaceOnUse" gradientTransform="translate(194.86 23.248) rotate(103.817) scale(5.83593 3.63472)">
<stop stop-color="#0D6590"/>
<stop offset="1" stop-color="#082C51"/>
</radialGradient>
<radialGradient id="paint4_radial_7568_55074" cx="0" cy="0" r="1" gradientUnits="userSpaceOnUse" gradientTransform="translate(195.859 27.2471) rotate(-69.444) scale(4.272 2.66067)">
<stop stop-color="#368ABB"/>
<stop offset="1" stop-color="#030B53"/>
</radialGradient>
<radialGradient id="paint5_radial_7568_55074" cx="0" cy="0" r="1" gradientUnits="userSpaceOnUse" gradientTransform="translate(195.861 27.2476) rotate(90) scale(2)">
<stop stop-color="white"/>
<stop offset="0.71875" stop-color="white" stop-opacity="0"/>
</radialGradient>
<radialGradient id="paint6_radial_7568_55074" cx="0" cy="0" r="1" gradientUnits="userSpaceOnUse" gradientTransform="translate(194.858 23.248) rotate(90) scale(2)">
<stop stop-color="white"/>
<stop offset="1" stop-color="white" stop-opacity="0"/>
</radialGradient>
<linearGradient id="paint7_linear_7568_55074" x1="321" y1="585.748" x2="321" y2="582.248" gradientUnits="userSpaceOnUse">
<stop stop-color="#575550"/>
<stop offset="0.453125" stop-color="#989690"/>
<stop offset="1" stop-color="#B9B7B1" stop-opacity="0.61"/>
</linearGradient>
<linearGradient id="paint8_linear_7568_55074" x1="2.5" y1="117.749" x2="0.416666" y2="117.749" gradientUnits="userSpaceOnUse">
<stop/>
<stop offset="1" stop-color="#CECECD"/>
</linearGradient>
<linearGradient id="paint9_linear_7568_55074" x1="1.02446" y1="104.251" x2="1.68543" y2="110.485" gradientUnits="userSpaceOnUse">
<stop/>
<stop offset="0.166667" stop-color="#D5D3C8"/>
<stop offset="0.411458" stop-color="white" stop-opacity="0"/>
</linearGradient>
<linearGradient id="paint10_linear_7568_55074" x1="1.02446" y1="128.097" x2="1.68543" y2="121.863" gradientUnits="userSpaceOnUse">
<stop/>
<stop offset="0.166667" stop-color="#D5D3C8"/>
<stop offset="0.411458" stop-color="white" stop-opacity="0"/>
</linearGradient>
<linearGradient id="paint11_linear_7568_55074" x1="2.5" y1="177.811" x2="0.416666" y2="177.811" gradientUnits="userSpaceOnUse">
<stop/>
<stop offset="1" stop-color="#CECECD"/>
</linearGradient>
<linearGradient id="paint12_linear_7568_55074" x1="1.02446" y1="150.255" x2="3.68572" y2="162.55" gradientUnits="userSpaceOnUse">
<stop/>
<stop offset="0.166667" stop-color="#D5D3C8"/>
<stop offset="0.411458" stop-color="white" stop-opacity="0"/>
</linearGradient>
<linearGradient id="paint13_linear_7568_55074" x1="1.02446" y1="198.938" x2="3.68572" y2="186.643" gradientUnits="userSpaceOnUse">
<stop/>
<stop offset="0.166667" stop-color="#D5D3C8"/>
<stop offset="0.411458" stop-color="white" stop-opacity="0"/>
</linearGradient>
<linearGradient id="paint14_linear_7568_55074" x1="2.5" y1="239.81" x2="0.416666" y2="239.81" gradientUnits="userSpaceOnUse">
<stop/>
<stop offset="1" stop-color="#CECECD"/>
</linearGradient>
<linearGradient id="paint15_linear_7568_55074" x1="1.02446" y1="212.255" x2="3.68572" y2="224.55" gradientUnits="userSpaceOnUse">
<stop/>
<stop offset="0.166667" stop-color="#D5D3C8"/>
<stop offset="0.411458" stop-color="white" stop-opacity="0"/>
</linearGradient>
<linearGradient id="paint16_linear_7568_55074" x1="1.02446" y1="260.937" x2="3.68572" y2="248.642" gradientUnits="userSpaceOnUse">
<stop/>
<stop offset="0.166667" stop-color="#D5D3C8"/>
<stop offset="0.411458" stop-color="white" stop-opacity="0"/>
</linearGradient>
<linearGradient id="paint17_linear_7568_55074" x1="321" y1="72.7476" x2="321" y2="69.2476" gradientUnits="userSpaceOnUse">
<stop stop-color="#575550"/>
<stop offset="0.453125" stop-color="#989690"/>
<stop offset="1" stop-color="#B9B7B1" stop-opacity="0.61"/>
</linearGradient>
<linearGradient id="paint18_linear_7568_55074" x1="249.5" y1="4.24756" x2="249.5" y2="0.247559" gradientUnits="userSpaceOnUse">
<stop stop-color="#575550"/>
<stop offset="0.453125" stop-color="#989690"/>
<stop offset="1" stop-color="#B9B7B1" stop-opacity="0.61"/>
</linearGradient>
<linearGradient id="paint19_linear_7568_55074" x1="5.5" y1="71.7476" x2="1.5" y2="71.7476" gradientUnits="userSpaceOnUse">
<stop stop-color="#575550"/>
<stop offset="0.453125" stop-color="#989690"/>
<stop offset="1" stop-color="#B9B7B1" stop-opacity="0.61"/>
</linearGradient>
<linearGradient id="paint20_linear_7568_55074" x1="6" y1="584.748" x2="2" y2="584.748" gradientUnits="userSpaceOnUse">
<stop stop-color="#575550"/>
<stop offset="0.453125" stop-color="#989690"/>
<stop offset="1" stop-color="#B9B7B1" stop-opacity="0.61"/>
</linearGradient>
<linearGradient id="paint21_linear_7568_55074" x1="64.5" y1="651.248" x2="64.5" y2="655.248" gradientUnits="userSpaceOnUse">
<stop stop-color="#575550"/>
<stop offset="0.453125" stop-color="#989690"/>
<stop offset="1" stop-color="#B9B7B1" stop-opacity="0.61"/>
</linearGradient>
<clipPath id="clip0_7568_55074">
<rect x="17.7837" y="38.9829" width="285.432" height="599.322" rx="40" fill="white"/>
</clipPath>
<clipPath id="clip1_7568_55074">
<path d="M17.7837 70.9829H303.216V620.521C303.216 630.342 295.254 638.305 285.432 638.305H35.5677C25.7459 638.305 17.7837 630.342 17.7837 620.521V70.9829Z" fill="white"/>
</clipPath>
<clipPath id="clip2_7568_55074">
<rect x="23.022" y="74.0464" width="274.956" height="56.9086" rx="6.12716" fill="white"/>
</clipPath>
<clipPath id="clip3_7568_55074">
<rect x="23.022" y="137.082" width="274.956" height="56.9086" rx="6.12716" fill="white"/>
</clipPath>
<clipPath id="clip4_7568_55074">
<rect x="23.022" y="200.118" width="274.956" height="56.9086" rx="6.12716" fill="white"/>
</clipPath>
<clipPath id="clip5_7568_55074">
<rect x="23.022" y="263.154" width="274.956" height="56.9086" rx="6.12716" fill="white"/>
</clipPath>
<clipPath id="clip6_7568_55074">
<rect x="23.022" y="326.189" width="274.956" height="56.9086" rx="6.12716" fill="white"/>
</clipPath>
<clipPath id="clip7_7568_55074">
<rect x="23.022" y="389.225" width="274.956" height="56.9086" rx="6.12716" fill="white"/>
</clipPath>
<clipPath id="clip8_7568_55074">
<rect x="23.022" y="452.261" width="274.956" height="56.9086" rx="6.12716" fill="white"/>
</clipPath>
<clipPath id="clip9_7568_55074">
<rect x="23.022" y="515.296" width="274.956" height="56.9086" rx="6.12716" fill="white"/>
</clipPath>
<clipPath id="clip10_7568_55074">
<rect x="23.022" y="578.333" width="274.956" height="56.9086" rx="6.12716" fill="white"/>
</clipPath>
<clipPath id="clip11_7568_55074">
<rect width="71.9941" height="12.2543" fill="white" transform="translate(29.1489 44.124)"/>
</clipPath>
<clipPath id="clip12_7568_55074">
<path d="M145 24.7476C145 23.3668 146.119 22.2476 147.5 22.2476H176.5C177.881 22.2476 179 23.3668 179 24.7476V24.7476C179 26.1283 177.881 27.2476 176.5 27.2476H147.5C146.119 27.2476 145 26.1283 145 24.7476V24.7476Z" fill="white"/>
</clipPath>
</defs>
</svg>
