<svg width="101" height="89" viewBox="0 0 101 89" fill="none" xmlns="http://www.w3.org/2000/svg">
<path d="M14.0105 51.4639L32.3375 87.3517M14.0105 51.4639L57.5371 62.6789M14.0105 51.4639L22.0286 45.8564M72.4278 50.3424L98.7728 76.1368M72.4278 50.3424L66.7006 61.8632M72.4278 50.3424L63.2643 45.8564M98.7728 76.1368L32.3375 87.3517M98.7728 76.1368L60.9734 59.3144L32.3375 87.3517" stroke="#214766" stroke-width="2" stroke-linejoin="round"/>
<path d="M23.174 53.7074C21.265 46.9784 19.2795 29.7074 26.6103 14.4551C48.3736 18.9411 66.7006 14.4551 66.7006 14.4551C62.5007 25.67 57.3081 49.4457 70.1369 54.8289" stroke="#214766" stroke-width="2"/>
<path d="M56.3916 29.0345C46.5462 31.2709 40.5705 31.2007 28.9011 29.0345" stroke="#214766" stroke-width="2" stroke-linecap="round"/>
<path d="M9.79025 36.8625L15.0359 38.3756L9.79025 39.8886L8.35962 45.4367L6.92899 39.8886L1.68335 38.3756L6.92899 36.8625L8.35962 31.3145L9.79025 36.8625Z" stroke="#214766" stroke-width="2" stroke-linecap="round" stroke-linejoin="round"/>
<path d="M57.3535 8.12331L63.9666 9.88918L57.3535 11.6551L55.55 18.1299L53.7464 11.6551L47.1333 9.88918L53.7464 8.12331L55.55 1.64844L57.3535 8.12331Z" stroke="#214766" stroke-width="2" stroke-linecap="round" stroke-linejoin="round"/>
<path d="M87.7137 35.0824L97.6333 37.9078L87.7137 40.7332L85.0083 51.093L82.3029 40.7332L72.3833 37.9078L82.3029 35.0824L85.0083 24.7227L87.7137 35.0824Z" stroke="#214766" stroke-width="2" stroke-linecap="round" stroke-linejoin="round"/>
<path d="M56.3916 34.6106C54.5535 35.208 52.5144 35.6379 50.4999 35.9229M28.6166 34.6106C33.8134 35.9863 39.5583 36.2588 44.6083 36.2588" stroke="#214766" stroke-width="2" stroke-linecap="round"/>
</svg>
