<svg width="214" height="96" viewBox="0 0 214 96" fill="none" xmlns="http://www.w3.org/2000/svg">
<g id="Group">
<path id="Vector" d="M24.0914 94.9042L23.7256 94.8251C27.8046 77.4532 38.0556 61.678 52.5902 50.4052C63.5788 41.8959 76.6482 36.2049 90.5672 33.8678C104.487 31.5309 118.798 32.6249 132.154 37.0469C145.51 41.4689 157.471 49.0734 166.911 59.1443C176.351 69.2152 182.959 81.4212 186.114 94.6129L185.748 94.6928C177.114 58.3855 143.886 33.0281 104.945 33.0281C66.5137 33.0281 32.5101 59.0506 24.0914 94.9042Z" fill="#3F3D56"/>
<path id="Vector_2" d="M197.635 86.6339L198.197 90.5841L194.26 90.9435L194.822 86.0957L197.635 86.6339Z" fill="#A0616A"/>
<path id="Vector_3" d="M179.073 32.4092C179.073 32.4092 179.448 37.2572 179.448 37.4367C179.448 37.6162 176.823 50.0054 176.823 50.0054C176.823 50.0054 173.073 56.8284 176.823 56.6489C180.573 56.4693 179.448 50.185 179.448 50.185L183.385 39.7709L181.698 32.4092H179.073Z" fill="#A0616A"/>
<path id="Vector_4" d="M185.26 86.6339L184.697 90.5841L188.635 90.9435L188.072 86.0957L185.26 86.6339Z" fill="#A0616A"/>
<path id="Vector_5" d="M180.948 49.6463L180.01 50.9031C180.01 50.9031 179.448 56.2897 180.01 58.0852C180.573 59.8808 181.697 68.1402 181.697 68.6789C181.697 69.2175 181.885 69.5766 181.697 69.7562C181.51 69.9357 180.948 69.9357 181.322 70.2949C181.697 70.654 181.697 71.7313 181.697 71.7313V72.6291L184.135 85.916C184.135 85.916 182.635 87.5322 183.76 87.5322C184.885 87.5322 189.01 87.5322 188.822 85.7363L188.447 85.5567C188.447 85.5567 187.885 73.7063 188.072 73.1677C188.26 72.6291 188.072 71.5517 188.072 71.5517C188.072 71.5517 187.697 71.0131 188.072 70.8336C188.447 70.654 188.447 69.2175 188.447 69.2175L190.135 58.2648C190.135 58.2648 191.635 65.6265 192.572 66.3447C193.509 67.0629 193.322 68.8584 193.322 68.8584L194.072 84.6591C194.072 84.6591 193.322 86.455 194.072 86.8135C194.822 87.1728 198.009 88.4297 198.197 86.6339C198.384 84.8388 199.322 69.2175 199.322 68.4994C199.322 67.7811 199.134 67.422 199.322 66.8833C199.509 66.3447 199.134 66.3447 199.322 66.3447C199.509 66.3447 198.947 65.806 198.947 65.4469V56.6488C198.947 56.6488 199.134 54.8533 199.322 54.4942C199.509 54.1351 199.134 53.776 199.322 53.2373C199.509 52.6987 198.947 50.9031 198.947 50.9031L190.51 48.7485L180.948 49.6463Z" fill="#2F2E41"/>
<path id="Vector_6" d="M187.51 89.8668C187.51 89.8668 188.447 88.9692 187.135 88.9692C186.292 88.9855 185.463 89.1689 184.698 89.5075L183.76 92.7398C183.76 92.7398 179.916 95.7023 184.229 95.343C188.541 94.9844 187.885 95.2535 187.885 95.2535C187.885 95.2535 189.198 94.8942 189.384 94.5349C189.572 94.1763 189.01 88.9692 189.01 88.9692C189.01 88.9692 188.447 90.4057 187.51 89.8668Z" fill="#2F2E41"/>
<path id="Vector_7" d="M195.572 89.8668C195.572 89.8668 194.635 88.9692 195.947 88.9692C196.79 88.9855 197.619 89.1689 198.384 89.5075L199.322 92.7398C199.322 92.7398 203.165 95.7023 198.853 95.343C194.541 94.9844 194.635 95.2535 194.635 95.2535C194.635 95.2535 193.322 94.8942 193.135 94.5349C192.947 94.1763 194.072 88.9692 194.072 88.9692C194.072 88.9692 194.635 90.4057 195.572 89.8668Z" fill="#2F2E41"/>
<path id="Vector_8" d="M55.8048 31.8584H54.1356V94.9987H55.8048V31.8584Z" fill="#3F3D56"/>
<path id="Vector_9" d="M71.2095 39.9049C71.3158 61.9835 55.0954 79.9535 55.0954 79.9535C55.0954 79.9535 38.7029 62.1275 38.5966 40.0489C38.4903 17.9702 54.7106 0 54.7106 0C54.7106 0 71.1032 17.8263 71.2095 39.9049Z" fill="#51C8B4"/>
<path id="Vector_10" d="M171.948 68.8584H42.7661V95.0732H171.948V68.8584Z" fill="#F2F2F2"/>
<path id="Vector_11" d="M38.6412 71.7313L52.7032 43.5415H165.011L175.511 71.7313H38.6412Z" fill="#214766"/>
<path id="Vector_12" d="M125.825 45.3374H73.7021V61.8563H125.825V45.3374Z" fill="#F2F2F2"/>
<path id="Vector_13" d="M77.0771 31.8706L68.8274 48.3895H130.7L125.825 31.8706H77.0771Z" fill="#214766"/>
<path id="Vector_14" d="M119.45 74.0654H78.2959V95.0733H119.45V74.0654Z" fill="#CCCCCC"/>
<path id="Vector_15" d="M69.7649 74.7842H47.8283V95.0735H69.7649V74.7842Z" fill="#CCCCCC"/>
<path id="Vector_16" d="M137.918 76.041H126.575V95.0734H137.918V76.041Z" fill="#3F3D56"/>
<path id="Vector_17" d="M213.665 94.9834H0.486542V95.3427H213.665V94.9834Z" fill="#3F3D56"/>
<path id="Vector_18" d="M35.3187 53.3379H34.2173V95.004H35.3187V53.3379Z" fill="#3F3D56"/>
<path id="Vector_19" d="M45.4842 58.6479C45.5543 73.2175 34.8507 85.0757 34.8507 85.0757C34.8507 85.0757 24.0333 73.3124 23.9632 58.7429C23.893 44.1733 34.5967 32.3149 34.5967 32.3149C34.5967 32.3149 45.4141 44.0784 45.4842 58.6479Z" fill="#51C8B4"/>
<path id="Vector_20" opacity="0.1" d="M45.5531 58.6479C45.6232 73.2175 34.9195 85.0757 34.9195 85.0757C34.9195 85.0757 24.1021 73.3124 24.0321 58.7429C23.9619 44.1733 34.6655 32.3149 34.6655 32.3149C34.6655 32.3149 45.4829 44.0784 45.5531 58.6479Z" fill="black"/>
<path id="Vector_21" d="M20.9996 53.3379H19.8982V95.004H20.9996V53.3379Z" fill="#3F3D56"/>
<path id="Vector_22" d="M31.1651 58.6479C31.2352 73.2175 20.5316 85.0757 20.5316 85.0757C20.5316 85.0757 9.71419 73.3124 9.64411 58.7429C9.57403 44.1733 20.2777 32.3149 20.2777 32.3149C20.2777 32.3149 31.095 44.0784 31.1651 58.6479Z" fill="#9EE0D5"/>
<path id="Vector_23" d="M155.73 77.1182H150.199V82.0561H155.73V77.1182Z" fill="#3F3D56"/>
<path id="Vector_24" d="M163.136 77.1182H157.605V82.0561H163.136V77.1182Z" fill="#3F3D56"/>
<path id="Vector_25" d="M155.73 83.8516H150.199V88.9692H155.73V83.8516Z" fill="#3F3D56"/>
<path id="Vector_26" d="M163.136 83.8516H157.605V88.9692H163.136V83.8516Z" fill="#3F3D56"/>
<path id="Vector_27" d="M82.8122 49.8574H78.4835V53.7217H82.8122V49.8574Z" fill="#3F3D56"/>
<path id="Vector_28" d="M88.6075 49.8574H84.2788V53.7217H88.6075V49.8574Z" fill="#3F3D56"/>
<path id="Vector_29" d="M82.8122 55.1265H78.4835V59.1312H82.8122V55.1265Z" fill="#3F3D56"/>
<path id="Vector_30" d="M88.6075 55.1265H84.2788V59.1312H88.6075V55.1265Z" fill="#3F3D56"/>
<path id="Vector_31" d="M115.248 49.8574H110.919V53.7217H115.248V49.8574Z" fill="#3F3D56"/>
<path id="Vector_32" d="M121.044 49.8574H116.715V53.7217H121.044V49.8574Z" fill="#3F3D56"/>
<path id="Vector_33" d="M115.248 55.1265H110.919V59.1312H115.248V55.1265Z" fill="#3F3D56"/>
<path id="Vector_34" d="M121.044 55.1265H116.715V59.1312H121.044V55.1265Z" fill="#3F3D56"/>
<path id="Vector_35" d="M99.1239 49.8574H94.7952V53.7217H99.1239V49.8574Z" fill="#3F3D56"/>
<path id="Vector_36" d="M104.92 49.8574H100.591V53.7217H104.92V49.8574Z" fill="#3F3D56"/>
<path id="Vector_37" d="M99.1239 55.1265H94.7952V59.1312H99.1239V55.1265Z" fill="#3F3D56"/>
<path id="Vector_38" d="M104.92 55.1265H100.591V59.1312H104.92V55.1265Z" fill="#3F3D56"/>
<path id="Vector_39" d="M131.832 77.9692H129.106V80.4024H131.832V77.9692Z" fill="#F2F2F2"/>
<path id="Vector_40" d="M135.481 77.9692H132.756V80.4024H135.481V77.9692Z" fill="#F2F2F2"/>
<path id="Vector_41" d="M131.832 81.2866H129.106V83.8085H131.832V81.2866Z" fill="#F2F2F2"/>
<path id="Vector_42" d="M135.481 81.2866H132.756V83.8085H135.481V81.2866Z" fill="#F2F2F2"/>
<path id="Vector_43" d="M136.418 87.6216C136.832 87.6216 137.168 87.3 137.168 86.9037C137.168 86.5067 136.832 86.1851 136.418 86.1851C136.004 86.1851 135.668 86.5067 135.668 86.9037C135.668 87.3 136.004 87.6216 136.418 87.6216Z" fill="#F2F2F2"/>
<path id="Vector_44" d="M119.544 76.3101H78.2959V76.6694H119.544V76.3101Z" fill="#F2F2F2"/>
<path id="Vector_45" d="M119.544 77.9263H78.2959V78.2848H119.544V77.9263Z" fill="#F2F2F2"/>
<path id="Vector_46" d="M119.544 79.542H78.2959V79.9013H119.544V79.542Z" fill="#F2F2F2"/>
<path id="Vector_47" d="M119.544 81.1577H78.2959V81.517H119.544V81.1577Z" fill="#F2F2F2"/>
<path id="Vector_48" d="M119.544 82.7739H78.2959V83.1332H119.544V82.7739Z" fill="#F2F2F2"/>
<path id="Vector_49" d="M119.544 84.3901H78.2959V84.7487H119.544V84.3901Z" fill="#F2F2F2"/>
<path id="Vector_50" d="M119.544 86.0054H78.2959V86.3647H119.544V86.0054Z" fill="#F2F2F2"/>
<path id="Vector_51" d="M119.544 87.6216H78.2959V87.9809H119.544V87.6216Z" fill="#F2F2F2"/>
<path id="Vector_52" d="M119.544 89.2378H78.2959V89.5971H119.544V89.2378Z" fill="#F2F2F2"/>
<path id="Vector_53" d="M119.544 90.854H78.2959V91.2126H119.544V90.854Z" fill="#F2F2F2"/>
<path id="Vector_54" d="M119.544 92.4697H78.2959V92.829H119.544V92.4697Z" fill="#F2F2F2"/>
<path id="Vector_55" d="M69.7649 76.3101H47.8283V76.6694H69.7649V76.3101Z" fill="#F2F2F2"/>
<path id="Vector_56" d="M69.7649 77.9263H47.8283V78.2848H69.7649V77.9263Z" fill="#F2F2F2"/>
<path id="Vector_57" d="M69.7649 79.542H47.8283V79.9013H69.7649V79.542Z" fill="#F2F2F2"/>
<path id="Vector_58" d="M69.7649 81.1577H47.8283V81.517H69.7649V81.1577Z" fill="#F2F2F2"/>
<path id="Vector_59" d="M69.7649 82.7739H47.8283V83.1332H69.7649V82.7739Z" fill="#F2F2F2"/>
<path id="Vector_60" d="M69.7649 84.3901H47.8283V84.7487H69.7649V84.3901Z" fill="#F2F2F2"/>
<path id="Vector_61" d="M69.7649 86.0054H47.8283V86.3647H69.7649V86.0054Z" fill="#F2F2F2"/>
<path id="Vector_62" d="M69.7649 87.6216H47.8283V87.9809H69.7649V87.6216Z" fill="#F2F2F2"/>
<path id="Vector_63" d="M69.7649 89.2378H47.8283V89.5971H69.7649V89.2378Z" fill="#F2F2F2"/>
<path id="Vector_64" d="M69.7649 90.854H47.8283V91.2126H69.7649V90.854Z" fill="#F2F2F2"/>
<path id="Vector_65" d="M69.7649 92.4697H47.8283V92.829H69.7649V92.4697Z" fill="#F2F2F2"/>
<path id="Vector_66" d="M183.385 18.2245C186.077 18.2245 188.26 16.1344 188.26 13.5561C188.26 10.9778 186.077 8.8877 183.385 8.8877C180.693 8.8877 178.51 10.9778 178.51 13.5561C178.51 16.1344 180.693 18.2245 183.385 18.2245Z" fill="#A0616A"/>
<path id="Vector_67" d="M181.697 16.9674C181.697 16.9674 182.448 20.5585 182.448 21.0971C182.448 21.6358 185.635 23.2518 185.635 23.2518L189.198 18.9425C189.198 18.9425 186.947 15.8901 186.947 15.1719L181.697 16.9674Z" fill="#A0616A"/>
<path id="Vector_68" d="M184.51 21.636C184.51 21.636 182.876 21.2195 182.38 20.53C182.38 20.53 177.197 25.4067 177.197 26.3044L181.322 33.3069C181.322 33.3069 181.322 35.8207 181.697 36.0003C182.073 36.1798 181.697 36.0003 181.697 36.7185C181.697 37.4367 180.573 42.105 180.948 42.8233C181.322 43.5415 181.697 43.0028 181.322 44.0802C180.948 45.1575 180.01 50.9032 180.01 50.9032C180.01 50.9032 183.385 49.8259 188.26 51.6214C193.135 53.4169 198.947 50.9032 198.947 50.9032C198.947 50.9032 197.447 47.6712 197.822 46.5939C198.197 45.5166 196.884 43.5415 196.884 43.5415L195.947 27.0226C195.947 27.0226 197.26 19.6609 196.322 19.3019L194.447 18.5837L188.442 17.877C188.442 17.877 186.947 21.4565 184.51 21.636Z" fill="#9EE0D5"/>
<path id="Vector_69" d="M179.073 25.0479L177.198 26.3047C177.198 26.3047 176.26 28.998 177.198 30.2548C178.136 31.5117 178.51 33.3073 178.51 33.3073L182.26 32.9481L179.073 25.0479Z" fill="#9EE0D5"/>
<path id="Vector_70" d="M192.947 26.6636C192.947 26.6636 191.861 29.3373 192.088 31.9826C192.129 32.4563 192.296 32.912 192.572 33.3071L179.27 39.3546C179.27 39.3546 173.26 39.9506 174.76 42.4643C176.26 44.978 181.697 41.2074 181.697 41.2074C181.697 41.2074 195.947 39.2323 197.072 37.2572C198.197 35.2822 198.947 27.0227 198.947 27.0227L192.947 26.6636Z" fill="#A0616A"/>
<path id="Vector_71" d="M179.663 8.62247L178.818 8.29828C178.818 8.29828 180.586 6.43419 183.046 6.59629L182.353 5.86685C182.353 5.86685 184.045 5.21847 185.582 6.92047C186.39 7.81521 187.325 8.86682 187.908 10.0516H188.814L188.436 10.8485L189.759 11.6455L188.401 11.5024C188.53 12.1904 188.486 12.8978 188.273 13.5664L188.309 14.1963C188.309 14.1963 186.735 11.8644 186.735 11.5402V12.3507C186.735 12.3507 185.89 11.6212 185.89 11.135L185.428 11.7023L185.198 10.8108L182.353 11.7023L182.815 10.9729L181.047 11.216L181.739 10.3245C181.739 10.3245 179.74 11.3781 179.663 12.2696C179.587 13.1612 178.587 14.2958 178.587 14.2958L178.125 13.4854C178.125 13.4854 177.434 9.83822 179.663 8.62247Z" fill="#2F2E41"/>
<path id="Vector_72" d="M193.51 19.3018H196.322C196.322 19.3018 198.384 19.6608 198.947 23.252C199.509 26.843 200.072 27.7408 199.509 27.7408C198.947 27.7408 192.197 27.5612 192.197 27.3817C192.197 27.2021 193.51 19.3018 193.51 19.3018Z" fill="#9EE0D5"/>
<path id="Vector_73" d="M151.242 71.6817L169.959 51.3712C171.328 50.0434 172.408 48.4728 173.138 46.749C173.867 45.0252 174.232 43.182 174.21 41.3247C174.188 39.4674 173.781 37.6323 173.012 35.9242C172.243 34.2161 171.127 32.6684 169.727 31.3696C168.327 30.0707 166.671 29.0461 164.854 28.3542C163.037 27.6624 161.094 27.3168 159.135 27.3373C157.177 27.3577 155.243 27.7438 153.442 28.4735C151.642 29.2032 150.01 30.2621 148.641 31.59C147.241 30.291 145.585 29.2665 143.768 28.5746C141.951 27.8828 140.008 27.5372 138.049 27.5576C136.091 27.5781 134.157 27.9642 132.356 28.6939C130.556 29.4235 128.924 30.4825 127.555 31.8103C126.185 33.1381 125.105 34.7087 124.376 36.4325C123.646 38.1563 123.282 39.9994 123.304 41.8567C123.325 43.7141 123.732 45.5492 124.501 47.2573C125.271 48.9654 126.387 50.5131 127.787 51.8119L148.611 71.6817" fill="#FFD4B3"/>
</g>
</svg>
