<svg width="97" height="96" viewBox="0 0 97 96" fill="none" xmlns="http://www.w3.org/2000/svg">
<g id="CheckCircle">
<path id="Vector" d="M48.5 9C40.7865 9 33.2463 11.2873 26.8328 15.5727C20.4193 19.8581 15.4205 25.949 12.4687 33.0753C9.5169 40.2017 8.74457 48.0433 10.2494 55.6085C11.7542 63.1738 15.4686 70.1229 20.9229 75.5772C26.3771 81.0314 33.3262 84.7458 40.8915 86.2506C48.4568 87.7554 56.2984 86.9831 63.4247 84.0313C70.551 81.0795 76.642 76.0808 80.9273 69.6672C85.2127 63.2537 87.5 55.7135 87.5 48C87.4802 37.6626 83.3649 27.7544 76.0553 20.4447C68.7457 13.1351 58.8374 9.01982 48.5 9ZM67.0625 41.175L45.0875 62.175C44.5194 62.7094 43.7675 63.0048 42.9875 63C42.6063 63.0055 42.2278 62.9354 41.8738 62.7938C41.5198 62.6522 41.1973 62.4419 40.925 62.175L29.9375 51.675C29.6328 51.4091 29.3849 51.0844 29.2089 50.7202C29.0328 50.3561 28.9322 49.9602 28.9131 49.5562C28.894 49.1522 28.9568 48.7485 29.0977 48.3694C29.2385 47.9903 29.4546 47.6436 29.7329 47.3501C30.0112 47.0567 30.3459 46.8225 30.717 46.6617C31.0881 46.5009 31.4879 46.4168 31.8923 46.4145C32.2968 46.4121 32.6975 46.4916 33.0704 46.648C33.4434 46.8045 33.7808 47.0348 34.0625 47.325L42.9875 55.8375L62.9375 36.825C63.5208 36.3161 64.2783 36.0523 65.0516 36.0889C65.8248 36.1255 66.554 36.4596 67.0866 37.0213C67.6193 37.583 67.9142 38.3289 67.9097 39.103C67.9052 39.8771 67.6017 40.6195 67.0625 41.175Z" fill="#51C8B4"/>
</g>
</svg>
