<svg width="33" height="33" viewBox="0 0 33 33" fill="none" xmlns="http://www.w3.org/2000/svg">
<g id="Lightning">
<path id="Vector" d="M27.9199 15.5135C27.8827 15.3523 27.8062 15.2029 27.6971 15.0785C27.588 14.9542 27.4498 14.8588 27.2949 14.801L20.0949 12.101L21.9199 2.93852C21.9618 2.72629 21.9347 2.50618 21.8425 2.31048C21.7502 2.11477 21.5978 1.95375 21.4074 1.85102C21.2151 1.74874 20.9944 1.7129 20.7796 1.74907C20.5648 1.78524 20.368 1.8914 20.2199 2.05102L6.21985 17.051C6.10514 17.17 6.02214 17.316 5.97846 17.4754C5.93478 17.6348 5.93182 17.8027 5.96985 17.9635C6.00899 18.1238 6.08624 18.2723 6.19506 18.3964C6.30387 18.5204 6.44102 18.6163 6.59485 18.676L13.7949 21.376L11.9699 30.5385C11.9279 30.7508 11.955 30.9709 12.0472 31.1666C12.1395 31.3623 12.2919 31.5233 12.4824 31.626C12.6259 31.6984 12.7841 31.7369 12.9449 31.7385C13.0807 31.7391 13.2152 31.7116 13.3399 31.6579C13.4647 31.6041 13.577 31.5252 13.6699 31.426L27.6699 16.426C27.7846 16.307 27.8676 16.1611 27.9112 16.0017C27.9549 15.8422 27.9579 15.6744 27.9199 15.5135Z" fill="#3879AD"/>
</g>
</svg>
