<svg width="13" height="13" xmlns="http://www.w3.org/2000/svg" fill="none">

 <g>
  <title>Layer 1</title>
  <path id="svg_1" stroke-linejoin="round" stroke-linecap="round" stroke-width="1.5" stroke="#214766" d="m6.65834,9.83854l-1.2375,1.2375c-0.52394,0.47755 -1.21175,0.73485 -1.92048,0.71844c-0.70873,-0.0164 -1.38388,-0.30526 -1.88517,-0.80654c-0.50128,-0.50129 -0.79014,-1.17644 -0.80654,-1.88517c-0.01641,-0.70873 0.24089,-1.39654 0.71844,-1.92048l1.76875,-1.7625c0.25491,-0.25587 0.55784,-0.45889 0.89139,-0.59742c0.33356,-0.13853 0.69118,-0.20984 1.05236,-0.20984c0.36118,0 0.7188,0.07131 1.05236,0.20984c0.33355,0.13853 0.63648,0.34155 0.89139,0.59742"/>
  <path id="svg_2" stroke-linejoin="round" stroke-linecap="round" stroke-width="1.5" stroke="#214766" d="m6.26365,2.74869l1.2375,-1.2375c0.52394,-0.47755 1.21174,-0.73485 1.92047,-0.71844c0.70873,0.01641 1.38389,0.30526 1.88517,0.80655c0.50129,0.50128 0.79014,1.17644 0.80655,1.88517c0.01641,0.70873 -0.2409,1.39653 -0.71844,1.92047l-1.76875,1.7625c-0.25492,0.25587 -0.55784,0.45889 -0.89139,0.59742c-0.33356,0.13853 -0.69118,0.20984 -1.05236,0.20984c-0.36118,0 -0.7188,-0.07131 -1.05236,-0.20984c-0.33356,-0.13853 -0.63648,-0.34155 -0.89139,-0.59742"/>
 </g>
</svg>