
<svg viewBox="0 0 183 33" fill="none" xmlns="http://www.w3.org/2000/svg">
<g clip-path="url(#clip0)">
<path fill-rule="evenodd" clip-rule="evenodd" d="M183 25.1625C183 25.1625 168.602 23.5171 165.065 19.8486C161.528 16.1801 161.528 10.2324 165.065 6.5639C168.602 2.89537 174.338 2.89537 177.876 6.5639C181.413 10.2324 183 25.1625 183 25.1625ZM171.289 17.2059C169.087 17.2059 167.303 15.3553 167.303 13.0726C167.303 10.79 169.087 8.9394 171.289 8.9394C173.49 8.9394 175.274 10.79 175.274 13.0726C175.274 15.3553 173.49 17.2059 171.289 17.2059Z" fill="#214766"/>
<path fill-rule="evenodd" clip-rule="evenodd" d="M162.746 10.6764C162.752 10.7063 162.757 10.736 162.762 10.7658C163.166 9.30573 163.939 7.92722 165.081 6.77921C168.616 3.22626 174.347 3.22626 177.881 6.77921C178.85 7.75294 179.672 9.54572 180.355 11.6356C180.588 10.8302 180.712 9.97867 180.712 9.09793C180.712 4.07332 176.66 0 171.661 0C167.531 0 164.046 2.78126 162.961 6.58231L159.362 8.69235L162.746 10.6764ZM175.64 26.5466C172.232 25.8443 168.539 24.883 165.832 23.6441C168.433 27.976 171.661 32.025 171.661 32.025C171.661 32.025 173.573 29.6265 175.64 26.5466Z" fill="#214766"/>
<path d="M71.5804 13.1515C71.5804 12.2457 72.4527 11.776 73.5263 11.776C74.768 11.776 75.7074 12.4134 76.2107 13.487L79.9012 11.474C78.5927 9.15908 76.2442 7.91773 73.5263 7.91773C70.0707 7.91773 67.1518 9.83008 67.1518 13.2522C67.1518 19.157 75.8081 17.815 75.8081 20.2641C75.8081 21.2371 74.8687 21.7068 73.4928 21.7068C71.8153 21.7068 70.6746 20.9016 70.2049 19.526L66.4473 21.6397C67.6551 24.223 70.1378 25.6321 73.4928 25.6321C77.083 25.6321 80.2367 23.8875 80.2367 20.2641C80.2367 14.0909 71.5804 15.6342 71.5804 13.1515ZM101.645 7.91773C99.364 7.91773 97.6865 8.82358 96.6465 10.3333C95.7071 8.79003 94.1638 7.91773 92.0837 7.91773C89.9365 7.91773 88.3596 8.75648 87.4202 10.1656V8.38743H83.0923V25.1624H87.4202V15.7349C87.4202 13.2186 88.7287 11.9437 90.5739 11.9437C92.3856 11.9437 93.3921 13.1515 93.3921 15.131V25.1624H97.7201V15.7349C97.7201 13.2186 98.9279 11.9437 100.84 11.9437C102.652 11.9437 103.658 13.1515 103.658 15.131V25.1624H107.986V14.829C107.986 10.6353 105.47 7.91773 101.645 7.91773ZM124.319 8.38743V10.3669C123.111 8.85713 121.3 7.91773 118.85 7.91773C114.388 7.91773 110.698 11.776 110.698 16.7749C110.698 21.7739 114.388 25.6321 118.85 25.6321C121.3 25.6321 123.111 24.6927 124.319 23.183V25.1624H128.647V8.38743H124.319ZM119.656 21.5055C117.005 21.5055 115.026 19.5931 115.026 16.7749C115.026 13.9567 117.005 12.0444 119.656 12.0444C122.34 12.0444 124.319 13.9567 124.319 16.7749C124.319 19.5931 122.34 21.5055 119.656 21.5055ZM136.808 11.2727V8.38743H132.48V25.1624H136.808V17.144C136.808 13.6212 139.66 12.6147 141.908 12.8831V8.05193C139.794 8.05193 137.68 8.99133 136.808 11.2727ZM155.927 12.5476V8.38743H152.136V3.69043L147.808 4.99888V8.38743H144.889V12.5476H147.808V19.526C147.808 24.0553 149.854 25.8334 155.927 25.1624V21.2371C153.444 21.3713 152.136 21.3377 152.136 19.526V12.5476H155.927Z" fill="#214766"/>
<path fill-rule="evenodd" clip-rule="evenodd" d="M12.5813 0.427908V4.5746L9.97045 4.58683C7.76055 4.58683 6.74355 6.05177 6.74355 8.21935V8.3871H10.2999V12.5473H6.74355V25.1621H2.4156V12.5473H0V8.3871H2.4156V8.21935C2.4156 3.68579 4.74298 0.427908 9.97045 0.427908C12.3838 0.427907 12.4715 0.421942 12.5586 0.426554C12.5657 0.426931 12.5729 0.42738 12.5813 0.427908ZM19.1781 25.1621H14.8501V0.670637H19.1781V25.1621ZM30.2611 19.6599L33.9851 8.38714H38.615L32.5089 25.1621C30.7643 29.9933 27.9126 32.107 23.6517 31.8721V27.8461C26.0338 27.8797 27.2416 26.8732 28.0468 24.6253L21.169 8.38714H25.8996L30.2611 19.6599ZM50.941 8.38714V12.5473H47.1499V19.5257C47.1499 21.3374 48.4583 21.371 50.941 21.2368V25.1621C44.8685 25.8331 42.8219 24.055 42.8219 19.5257V12.5473H39.9031V8.38714H42.8219V4.99859L47.1499 3.69014V8.38714H50.941ZM63.6035 8.38714V12.5473H59.8123V19.5257C59.8123 21.3374 61.1208 21.371 63.6035 21.2368V25.1621C57.5309 25.8331 55.4844 24.055 55.4844 19.5257V12.5473H52.5655V8.38714H55.4844V4.99859L59.8123 3.69014V8.38714H63.6035Z" fill="#214766"/>
</g>
<defs>
<clipPath id="clip0">
<rect width="183" height="32.025" fill="white"/>
</clipPath>
</defs>
</svg>
