<svg xmlns="http://www.w3.org/2000/svg" viewBox="0 0 240 42" fill="none">
<path fill-rule="evenodd" clip-rule="evenodd" d="M240 33C240 33 221.118 30.8421 216.479 26.031C211.84 21.2198 211.84 13.4195 216.479 8.6084C221.118 3.7972 228.641 3.7972 233.28 8.6084C237.919 13.4195 240 33 240 33ZM224.642 22.5651C221.754 22.5651 219.414 20.1382 219.414 17.1445C219.414 14.1508 221.754 11.7238 224.642 11.7238C227.528 11.7238 229.868 14.1508 229.868 17.1445C229.868 20.1382 227.528 22.5651 224.642 22.5651Z" fill="#51C8B4"/>
<path fill-rule="evenodd" clip-rule="evenodd" d="M213.438 14.0019C213.445 14.041 213.451 14.08 213.459 14.119C213.988 12.2042 215.003 10.3964 216.5 8.89076C221.136 4.23116 228.652 4.23116 233.287 8.89076C234.557 10.1678 235.636 12.519 236.532 15.2598C236.836 14.2035 237 13.0868 237 11.9317C237 5.34206 231.686 0 225.13 0C219.713 0 215.143 3.64756 213.72 8.63254L209 11.3998L213.438 14.0019ZM230.347 34.8152C225.879 33.8942 221.035 32.6334 217.485 31.0086C220.896 36.6898 225.13 42 225.13 42C225.13 42 227.637 38.8545 230.347 34.8152Z" fill="#214766"/>
<path d="M93.8765 17.2478C93.8765 16.0598 95.0205 15.4438 96.4285 15.4438C98.057 15.4438 99.289 16.2798 99.949 17.6878L104.789 15.0478C103.073 12.0118 99.993 10.3838 96.4285 10.3838C91.8965 10.3838 88.0685 12.8918 88.0685 17.3798C88.0685 25.1238 99.421 23.3638 99.421 26.5758C99.421 27.8518 98.189 28.4678 96.3845 28.4678C94.1845 28.4678 92.6885 27.4118 92.0725 25.6078L87.1445 28.3798C88.7285 31.7678 91.9845 33.6158 96.3845 33.6158C101.093 33.6158 105.229 31.3278 105.229 26.5758C105.229 18.4798 93.8765 20.5038 93.8765 17.2478ZM133.306 10.3838C130.314 10.3838 128.114 11.5718 126.75 13.5518C125.518 11.5278 123.494 10.3838 120.766 10.3838C117.95 10.3838 115.882 11.4838 114.65 13.3318V10.9998H108.974V32.9998H114.65V20.6358C114.65 17.3358 116.366 15.6638 118.786 15.6638C121.162 15.6638 122.482 17.2478 122.482 19.8438V32.9998H128.158V20.6358C128.158 17.3358 129.742 15.6638 132.25 15.6638C134.626 15.6638 135.946 17.2478 135.946 19.8438V32.9998H141.622V19.4478C141.622 13.9478 138.322 10.3838 133.306 10.3838ZM163.042 10.9998V13.5958C161.458 11.6158 159.082 10.3838 155.87 10.3838C150.018 10.3838 145.178 15.4438 145.178 21.9998C145.178 28.5558 150.018 33.6158 155.87 33.6158C159.082 33.6158 161.458 32.3838 163.042 30.4038V32.9998H168.718V10.9998H163.042ZM156.926 28.2038C153.45 28.2038 150.854 25.6958 150.854 21.9998C150.854 18.3038 153.45 15.7958 156.926 15.7958C160.446 15.7958 163.042 18.3038 163.042 21.9998C163.042 25.6958 160.446 28.2038 156.926 28.2038ZM179.421 14.7838V10.9998H173.745V32.9998H179.421V22.4838C179.421 17.8638 183.161 16.5438 186.109 16.8958V10.5598C183.337 10.5598 180.565 11.7918 179.421 14.7838ZM204.495 16.4558V10.9998H199.523V4.83984L193.847 6.55584V10.9998H190.019V16.4558H193.847V25.6078C193.847 31.5478 196.531 33.8798 204.495 32.9998V27.8518C201.239 28.0278 199.523 27.9838 199.523 25.6078V16.4558H204.495Z" fill="#51C8B4"/>
<path fill-rule="evenodd" clip-rule="evenodd" d="M16.5 0.561687V5.99997L13.076 6.01601C10.1778 6.01601 8.844 7.93725 8.844 10.78V11H13.508V16.456H8.844V33H3.168V16.456H0V11H3.168V10.78C3.168 4.83432 6.22031 0.561687 13.076 0.561687C16.241 0.561686 16.356 0.553863 16.4703 0.559911C16.4796 0.560406 16.489 0.560994 16.5 0.561687ZM25.152 33H19.476V0.879967H25.152V33ZM39.6871 25.784L44.5711 11H50.6431L42.6351 33C40.3471 39.336 36.6071 42.108 31.0191 41.8V36.52C34.1431 36.564 35.7271 35.244 36.7831 32.296L27.7631 11H33.9671L39.6871 25.784ZM66.8083 11V16.456H61.8363V25.608C61.8363 27.984 63.5523 28.028 66.8083 27.852V33C58.8443 33.88 56.1603 31.548 56.1603 25.608V16.456H52.3323V11H56.1603V6.55597L61.8363 4.83997V11H66.8083ZM83.4148 11V16.456H78.4428V25.608C78.4428 27.984 80.1588 28.028 83.4148 27.852V33C75.4508 33.88 72.7668 31.548 72.7668 25.608V16.456H68.9388V11H72.7668V6.55597L78.4428 4.83997V11H83.4148Z" fill="#214766"/>
</svg>