<svg width="17" height="17" viewBox="0 0 17 17" fill="none" xmlns="http://www.w3.org/2000/svg">
<g id="MapPin">
<path id="Vector" d="M4.65693 3.37959C5.67631 2.36022 7.05839 1.78681 8.5 1.78516C9.94161 1.78681 11.3237 2.36022 12.3431 3.37959C13.3625 4.39898 13.9359 5.7811 13.9375 7.22273C13.9375 9.55402 12.6985 11.6055 11.4259 13.0969C10.1569 14.5841 8.86145 15.5064 8.75216 15.5836C8.67741 15.6332 8.5897 15.6596 8.5 15.6596C8.4103 15.6596 8.32259 15.6332 8.24784 15.5836C8.13855 15.5064 6.84306 14.5841 5.57411 13.0969C4.30147 11.6054 3.06251 9.554 3.0625 7.22269C3.06414 5.78107 3.63755 4.39897 4.65693 3.37959ZM9.64586 5.50775C9.30669 5.28112 8.90792 5.16016 8.5 5.16016C7.95299 5.16016 7.42839 5.37745 7.04159 5.76425C6.6548 6.15104 6.4375 6.67565 6.4375 7.22266C6.4375 7.63058 6.55846 8.02934 6.78509 8.36852C7.01172 8.7077 7.33384 8.97205 7.71072 9.12816C8.08759 9.28426 8.50229 9.32511 8.90237 9.24553C9.30246 9.16594 9.66996 8.96951 9.95841 8.68106C10.2469 8.39262 10.4433 8.02512 10.5229 7.62503C10.6025 7.22494 10.5616 6.81024 10.4055 6.43337C10.2494 6.0565 9.98504 5.73438 9.64586 5.50775Z" fill="#214766" stroke="#214766" stroke-width="0.125"/>
</g>
</svg>
