<svg width="44" height="47" viewBox="0 0 44 47" fill="none" xmlns="http://www.w3.org/2000/svg">
<path d="M19.6975 27.6269C25.0636 27.6269 29.4136 23.3543 29.4136 18.0838C29.4136 12.8132 25.0636 8.54065 19.6975 8.54065C14.3315 8.54065 9.98145 12.8132 9.98145 18.0838C9.98145 23.3543 14.3315 27.6269 19.6975 27.6269Z" stroke="currentColor" stroke-width="1.66365" stroke-miterlimit="1.5" stroke-linecap="round" stroke-linejoin="round"/>
<path fill-rule="evenodd" clip-rule="evenodd" d="M16.4148 5.52814C17.2207 4.8225 18.4607 4.31445 19.7975 4.31445C21.1361 4.31445 22.3743 4.8225 23.182 5.52814C24.24 5.31323 25.5711 5.48177 26.7296 6.13862C27.8881 6.79547 28.7034 7.84415 29.041 8.85149C30.0667 9.18485 31.1342 9.98492 31.8036 11.1226C32.4729 12.2603 32.6435 13.5686 32.4255 14.6076C33.1441 15.3999 33.6618 16.6173 33.6618 17.9308C33.6618 19.2445 33.1441 20.4619 32.4255 21.2541C32.6435 22.2931 32.4729 23.6014 31.8036 24.7391C31.1342 25.8767 30.0667 26.6769 29.041 27.0103C28.7034 28.0176 27.8881 29.0663 26.7296 29.7231C25.5711 30.3798 24.24 30.5485 23.182 30.3336C22.3743 31.0393 21.1361 31.5473 19.7975 31.5473C18.4607 31.5473 17.2207 31.0393 16.4148 30.3336C15.3568 30.5485 14.0238 30.3798 12.8672 29.7231C11.7087 29.0663 10.8934 28.0176 10.554 27.0103C9.52817 26.6769 8.46065 25.8767 7.79133 24.7391C7.1239 23.6014 6.95137 22.2931 7.17132 21.2541C6.4527 20.4619 5.93506 19.2445 5.93506 17.9308C5.93506 16.6173 6.4527 15.3999 7.17132 14.6076C6.95137 13.5686 7.1239 12.2603 7.79133 11.1226C8.46065 9.98492 9.52817 9.18485 10.554 8.85149C10.8934 7.84415 11.7087 6.79547 12.8672 6.13862C14.0238 5.48177 15.3568 5.31323 16.4148 5.52814Z" stroke="currentColor" stroke-width="1.66365" stroke-miterlimit="1.5" stroke-linecap="round" stroke-linejoin="round"/>
<path d="M12.6313 30.0214L8.57983 42.9219L13.6613 41.8952L17.4563 45.1821L21.225 31.3541" stroke="currentColor" stroke-width="1.66365" stroke-miterlimit="1.5" stroke-linecap="round" stroke-linejoin="round"/>
<path d="M26.7173 30.0214L30.7688 42.9219L25.6873 41.8952L21.8923 45.1821L19.6989 36.9615" stroke="currentColor" stroke-width="1.66365" stroke-miterlimit="1.5" stroke-linecap="round" stroke-linejoin="round"/>
<path d="M17.5207 15.0564L19.7973 13.0229V22.4636H17.1931H22.6764" stroke="currentColor" stroke-width="1.66365" stroke-miterlimit="1.5" stroke-linecap="round" stroke-linejoin="round"/>
<path fill-rule="evenodd" clip-rule="evenodd" d="M42.5183 30.9289C41.2245 30.934 39.6265 30.0469 38.4232 28.8072C37.3863 27.7391 36.6431 26.4073 36.6431 25.1582C36.6431 27.8569 33.0649 30.9289 30.7678 30.9289C33.0649 30.9289 36.6431 34.1208 36.6431 36.6995C36.6431 34.1208 40.1118 30.9289 42.5183 30.9289Z" stroke="currentColor" stroke-width="1.66365" stroke-miterlimit="1.5" stroke-linecap="round" stroke-linejoin="round"/>
<path fill-rule="evenodd" clip-rule="evenodd" d="M9.68081 4.84452C8.0009 4.85101 5.5813 2.70103 5.5813 0.817993C5.5813 2.70103 3.08457 4.84452 1.48179 4.84452C3.08457 4.84452 5.5813 7.07169 5.5813 8.87104C5.5813 7.07169 8.00163 4.84452 9.68081 4.84452Z" stroke="currentColor" stroke-width="1.66365" stroke-miterlimit="1.5" stroke-linecap="round" stroke-linejoin="round"/>
</svg>
