<?xml version="1.0" encoding="UTF-8"?><svg id="Lager_1" xmlns="http://www.w3.org/2000/svg" viewBox="0 0 1463.22 259.01"><path d="m368.88,198.72v58.38h78.04v-58.38l-39.02-47.04-39.02,47.04ZM223.46,0h-58.38L0,198.72v58.38h58.38L223.46,58.38V0Zm184.44,0h-58.38l-165.08,198.72v58.38h58.38L407.9,58.38V0Zm338.14,128.55h-14.9v22.03h14.9v-22.03Zm-23.7,31.63c-21.19,0-36.21,11.56-38.29,29.46l-.16,1.43h14.41l.12-1.15c1.39-13.64,13.75-18.48,23.92-18.48,17.76,0,24.09,12.89,24.09,24.95v1.11l-24.59,2.66c-14.18,1.68-40.58,4.82-40.58,28.38,0,17.38,14.07,30.48,32.73,30.48,19.72,0,28.92-12.61,32.43-19.36v17.45h14.03v-61.58c0-16.3-9.98-35.34-38.12-35.34Zm24.09,60.86c0,14.86-13.18,27.41-28.78,27.41-10.6,0-22-6.23-22-19.92s13.82-16.12,31.88-18.18l18.91-2.1v12.79Zm-94.93,36.06h14.38v-128.55h-14.38v128.55Zm-146.08,0h14.56v-128.55h-14.56v128.55Zm208.13-128.55h-14.9v22.03h14.9v-22.03Zm-189.38,0l44.84,128.11.15.43h15.22l-44.82-128.55h-15.39Zm63.52,126.84l-.6,1.71h15.23l44.82-128.55h-15.23l-44.22,126.84Zm191.53,1.71h14.03v-128.55h-14.03v128.55Zm500.48-54.49l-10.77-2.26c-13.62-2.9-20.53-5.9-20.53-14.21,0-9.65,10.98-14.7,21.83-14.7,9.41,0,19.98,4.69,22.38,15.16l.23,1h14.42l-.32-1.55c-3.31-15.71-17.71-25.87-36.7-25.87-20.44,0-35.86,11.61-35.86,27,0,17.14,16.35,22.61,28.65,25.24l10.77,2.26c15.94,3.4,21.05,7.4,21.05,16.47,0,8.27-7.29,16.61-23.56,16.61-6.33,0-21.45-1.86-24.98-19.13l-.21-1.02h-14.37l.24,1.48c2.96,18.46,18.03,29.93,39.32,29.93s37.6-11.96,37.6-29.09c0-14.87-8.72-23.04-29.17-27.32Zm81.34-42.43c-26.54,0-44.38,19.86-44.38,49.42s18.04,49.42,44.9,49.42c21.49,0,36.25-10.64,41.55-29.96l.44-1.62h-14.44l-.28.9c-4.06,12.89-13.24,19.43-27.27,19.43-17.54,0-29.23-12.98-30.62-33.92h73.67l.11-1.17c.04-.46.08-.87.12-1.25l.02-.24c.11-1.1.2-1.98.2-3.14,0-28.17-18.11-47.85-44.03-47.85Zm-29.85,42.23c2.22-19.41,13.34-30.97,29.85-30.97s28.04,12.7,29.56,30.97h-59.41Zm106.31,29.95v-58.84h23.11v-11.43h-23.11v-21.89h-14.04v21.89h-18.25v11.43h18.25v58.84c0,15.72,9.78,24.74,26.83,24.74h12.92v-11.43h-11.88c-9.83,0-13.83-3.86-13.83-13.31Zm-576.96-70.27h-18.38l-44.9,42.06,46.66,52.55.38.39h17.66l-46.71-52.78,45.3-42.23Zm78.26-1.91c-21.19,0-36.21,11.56-38.29,29.46l-.16,1.43h14.41l.12-1.15c1.39-13.64,13.76-18.48,23.92-18.48,17.76,0,24.09,12.89,24.09,24.95v1.11l-24.58,2.66c-14.18,1.68-40.58,4.82-40.58,28.38,0,17.38,14.07,30.48,32.74,30.48,19.71,0,28.92-12.61,32.42-19.36v17.44h14.03v-61.58c0-16.3-9.98-35.34-38.12-35.34Zm24.09,60.86c0,14.86-13.18,27.41-28.78,27.41-10.6,0-22-6.23-22-19.92s13.82-16.12,31.88-18.18l18.9-2.1v12.79Zm-92.96,36.06h14.03v-128.55h-14.03v128.55Zm138.79-77.79v-17.21h-14.03v95.01s14.03,0,14.03,0v-57.58c0-17.14,8.96-25.48,27.39-25.48h4.59v-13.86h-1.28c-18.66,0-27.34,12.35-30.69,19.12Zm86.29-19.12c-9.17,0-21.74,4.91-28.43,18.51v-50.14h-14.03v128.55h14.03v-56.89c0-18.02,9.07-28.78,24.26-28.78s24.26,10.69,24.26,28.6v57.06h14.03v-58.97c0-22.7-13.71-37.95-34.12-37.95Zm111.83,58.26c0,18.08-9.09,29.31-23.74,29.31s-23.91-10.69-23.91-28.6v-57.06h-14.03v58.97c0,22.34,13.89,37.95,33.78,37.95,7.51,0,20.72-2.49,27.91-18.51v16.59h14.03v-95.01h-14.03v56.35Z"/></svg>