<svg width="36" height="37" viewBox="0 0 36 37" fill="none" xmlns="http://www.w3.org/2000/svg">
<path d="M22.45 7.5L23.5 3.5L24.55 7.5L27 9.5L24.55 11.5L23.5 15.5L22.45 11.5L20 9.5L22.45 7.5Z" fill="#3879AD" stroke="#214766" stroke-width="1.5"/>
<path d="M29.1 19.5L30 16.5L30.9 19.5L33 21L30.9 22.5L30 25.5L29.1 22.5L27 21L29.1 19.5Z" fill="#3879AD" stroke="#214766" stroke-width="1.5"/>
<path d="M8.2875 12.125L8.625 11L8.9625 12.125L9.75 12.6875L8.9625 13.25L8.625 14.375L8.2875 13.25L7.5 12.6875L8.2875 12.125Z" stroke="#214766" stroke-width="1.5"/>
<path d="M3.75 20H14.25L13.5 29.5C11.9 29.5 10.8333 30.1667 10.5 30.5H4.82039L3.75 20Z" fill="#3879AD" stroke="#214766" stroke-width="1.5" stroke-linecap="round" stroke-linejoin="round"/>
<path d="M4.05495 20.2171C-1.32742 24.9652 3.91065 28.8034 14.133 20.867" stroke="#214766" stroke-width="1.5" stroke-linecap="round" stroke-linejoin="round"/>
<path d="M12.9559 29.643C10.2641 29.6038 9.19704 32.6011 9 33.4019L21.6861 33.5C23.5958 33.1568 27.2426 31.6216 24.5328 27.9757C22.4434 25.1643 18.4426 25.5246 16.8208 27.9761C16.6541 28.5154 15.6477 29.6823 12.9559 29.643Z" stroke="#214766" stroke-width="1.5" stroke-linecap="round" stroke-linejoin="round"/>
<path d="M18 26.5L17.5 24.5L19.3959 23.6801L20.5 26" stroke="#214766" stroke-width="1.5" stroke-linecap="round" stroke-linejoin="round"/>
<path d="M13.5 2L18.2834 23.7218" stroke="#214766" stroke-width="1.5" stroke-linecap="round" stroke-linejoin="round"/>
</svg>
