<svg width="22" height="16" viewBox="0 0 22 16" fill="none" xmlns="http://www.w3.org/2000/svg">
<g id="Group 3083">
<path id="Vector" d="M16.8125 14.6655C17.7445 14.6655 18.5 13.91 18.5 12.978C18.5 12.046 17.7445 11.2905 16.8125 11.2905C15.8805 11.2905 15.125 12.046 15.125 12.978C15.125 13.91 15.8805 14.6655 16.8125 14.6655Z" stroke="currentColor" stroke-width="1.5" stroke-linecap="round" stroke-linejoin="round"/>
<path id="Vector_2" d="M5.9375 14.6655C6.86948 14.6655 7.625 13.91 7.625 12.978C7.625 12.046 6.86948 11.2905 5.9375 11.2905C5.00552 11.2905 4.25 12.046 4.25 12.978C4.25 13.91 5.00552 14.6655 5.9375 14.6655Z" stroke="currentColor" stroke-width="1.5" stroke-linecap="round" stroke-linejoin="round"/>
<path id="Vector_3" d="M4.0125 12.7905H2.38758C1.84017 12.7905 1.3945 12.3504 1.38766 11.803L1.26266 1.80303C1.25569 1.2459 1.70541 0.790527 2.26258 0.790527H13C13.5523 0.790527 14 1.23824 14 1.79053V11.7905C14 12.3428 13.5523 12.7905 13 12.7905H8.05" stroke="currentColor" stroke-width="1.5" stroke-linecap="round" stroke-linejoin="round"/>
<path id="Vector 347" d="M12.875 12.7905H15.125" stroke="currentColor" stroke-width="1.5" stroke-linejoin="round"/>
<path id="Vector_4" d="M18.5 12.7905C19.0055 12.7905 19.4206 12.7905 19.7506 12.7905C20.3029 12.7905 20.75 12.3428 20.75 11.7905V9.47106C20.75 9.09229 20.536 8.74603 20.1972 8.57663L19.6033 8.27969C19.3763 8.16618 19.201 7.9706 19.1128 7.73258L17.6167 3.69321C17.4714 3.30092 17.0973 3.04053 16.679 3.04053H14.375" stroke="currentColor" stroke-width="1.5" stroke-linecap="round" stroke-linejoin="round"/>
<path id="Vector 348" d="M19.25 8.10303H16.75C16.4739 8.10303 16.25 7.87917 16.25 7.60303V5.41553C16.25 5.13938 16.4739 4.91553 16.75 4.91553H18.125" stroke="currentColor" stroke-width="1.5" stroke-linejoin="round"/>
</g>
</svg>
