<svg width="24" height="25" viewBox="0 0 24 25" fill="none" xmlns="http://www.w3.org/2000/svg">
<g id="Cleaning">
<path id="Vector 322" d="M15.3125 7.54053L15.875 5.54053L16.4375 7.54053L17.75 8.54053L16.4375 9.54053L15.875 11.5405L15.3125 9.54053L14 8.54053L15.3125 7.54053Z" stroke="currentColor" stroke-width="1.5"/>
<path id="Vector 323" d="M19.05 14.0405L19.5 12.5405L19.95 14.0405L21 14.7905L19.95 15.5405L19.5 17.0405L19.05 15.5405L18 14.7905L19.05 14.0405Z" stroke="currentColor" stroke-width="1.5"/>
<path id="Vector 324" d="M5.525 8.29053L5.75 7.54053L5.975 8.29053L6.5 8.66553L5.975 9.04053L5.75 9.79053L5.525 9.04053L5 8.66553L5.525 8.29053Z" stroke="currentColor" stroke-width="1.5"/>
<path id="Vector 313" d="M9.10531 19.1667L9.5 13.5405H2.5L3.21359 20.5405H6.80061" stroke="currentColor" stroke-width="1.5" stroke-linecap="round" stroke-linejoin="round"/>
<path id="Vector 317" d="M2.70363 13.6853C-0.884619 16.8507 2.60742 19.4095 9.42235 14.1185" stroke="currentColor" stroke-width="1.5" stroke-linecap="round" stroke-linejoin="round"/>
<path id="Vector" d="M8.63725 19.9692C6.84271 19.9431 6.13136 21.9413 6 22.4751L14.4574 22.5405C15.7305 22.3117 18.1617 21.2883 16.3552 18.8576C14.9622 16.9834 12.295 17.2236 11.2139 18.8579C11.1027 19.2174 10.4318 19.9954 8.63725 19.9692Z" stroke="currentColor" stroke-width="1.5" stroke-linecap="round" stroke-linejoin="round"/>
<path id="Vector 320" d="M11.9707 17.4707V16.3285L12.9306 15.9941L13.2426 16.8857" stroke="currentColor" stroke-width="1.5" stroke-linecap="round" stroke-linejoin="round"/>
<path id="Vector 321" d="M9 1.54053L12.1889 16.0217" stroke="currentColor" stroke-width="1.5" stroke-linecap="round" stroke-linejoin="round"/>
</g>
</svg>
