<svg width="36" height="37" viewBox="0 0 36 37" fill="none" xmlns="http://www.w3.org/2000/svg">
<rect width="7.75627" height="2.32692" transform="matrix(0.9754 -0.220442 0.220435 0.975402 6.85156 13.2446)" fill="white" stroke="#214766" stroke-width="1.5" stroke-linejoin="round"/>
<path d="M9.90498 19.7113L14.4443 18.6855L14.1749 13.9751L8.12257 15.343L9.90498 19.7113Z" fill="white" stroke="#214766" stroke-width="1.5" stroke-linejoin="round"/>
<path fill-rule="evenodd" clip-rule="evenodd" d="M10.6932 11.6281C11.6634 10.9981 12.432 10.044 12.8177 8.85822C13.2033 7.67278 13.1431 6.44936 12.7295 5.36935C11.7594 5.99939 10.9907 6.95349 10.6051 8.13922C10.2195 9.32465 10.2797 10.5481 10.6932 11.6281Z" fill="white"/>
<path d="M12.8177 8.85822L13.5309 9.0902L12.8177 8.85822ZM10.6932 11.6281L9.99285 11.8963L10.3243 12.762L11.1017 12.2571L10.6932 11.6281ZM12.7295 5.36935L13.4299 5.10114L13.0984 4.23549L12.321 4.74036L12.7295 5.36935ZM10.6051 8.13922L9.89183 7.90723L10.6051 8.13922ZM12.1045 8.62624C11.7738 9.64279 11.1161 10.4592 10.2848 10.9991L11.1017 12.2571C12.2107 11.5369 13.0902 10.4451 13.5309 9.0902L12.1045 8.62624ZM12.0291 5.63757C12.3835 6.56307 12.435 7.60994 12.1045 8.62624L13.5309 9.0902C13.9715 7.73563 13.9027 6.33565 13.4299 5.10114L12.0291 5.63757ZM11.3183 8.3712C11.6489 7.35465 12.3067 6.53825 13.138 5.99835L12.321 4.74036C11.2121 5.46053 10.3325 6.55232 9.89183 7.90723L11.3183 8.3712ZM11.3936 11.3599C11.0392 10.4344 10.9877 9.3875 11.3183 8.3712L9.89183 7.90723C9.45125 9.26181 9.5201 10.6618 9.99285 11.8963L11.3936 11.3599Z" fill="#214766"/>
<path fill-rule="evenodd" clip-rule="evenodd" d="M9.85159 10.2285C8.70489 10.0768 7.6007 9.54603 6.74267 8.64144C5.88462 7.73683 5.41283 6.60614 5.32193 5.453C6.46864 5.60464 7.57282 6.13545 8.43086 7.04004C9.28891 7.94465 9.76069 9.07534 9.85159 10.2285Z" fill="white"/>
<path d="M6.74267 8.64144L7.28681 8.1253L6.74267 8.64144ZM9.85159 10.2285L10.5993 10.1695L10.6721 11.0935L9.75327 10.972L9.85159 10.2285ZM5.32193 5.453L4.57425 5.51194L4.50141 4.58796L5.42025 4.70947L5.32193 5.453ZM8.43086 7.04004L7.88671 7.55619L8.43086 7.04004ZM7.28681 8.1253C8.02242 8.90082 8.96726 9.35501 9.94992 9.48496L9.75327 10.972C8.44251 10.7987 7.17898 10.1912 6.19852 9.15758L7.28681 8.1253ZM6.06961 5.39406C6.14751 6.38224 6.5512 7.34976 7.28681 8.1253L6.19852 9.15758C5.21804 8.1239 4.67816 6.83005 4.57425 5.51194L6.06961 5.39406ZM7.88671 7.55619C7.1511 6.78066 6.20626 6.32647 5.22361 6.19653L5.42025 4.70947C6.73102 4.88281 7.99455 5.49024 8.97501 6.5239L7.88671 7.55619ZM9.10391 10.2874C9.02601 9.29924 8.62233 8.33172 7.88671 7.55619L8.97501 6.5239C9.95548 7.55758 10.4954 8.85143 10.5993 10.1695L9.10391 10.2874Z" fill="#214766"/>
<path fill-rule="evenodd" clip-rule="evenodd" d="M10.2536 8.96216C10.8497 7.97077 11.1227 6.77632 10.9499 5.54144C10.7772 4.30672 10.1869 3.23319 9.34183 2.4435C8.74574 3.43489 8.47272 4.62934 8.6455 5.86422C8.81825 7.09894 9.40846 8.17247 10.2536 8.96216Z" fill="white"/>
<path d="M10.9499 5.54144L11.6927 5.43752L11.6927 5.43752L10.9499 5.54144ZM10.2536 8.96216L9.74151 9.51015L10.4187 10.143L10.8963 9.34863L10.2536 8.96216ZM9.34183 2.4435L9.85389 1.89551L9.17668 1.26271L8.69907 2.05703L9.34183 2.4435ZM8.6455 5.86422L9.38826 5.7603L8.6455 5.86422ZM10.2071 5.64536C10.3553 6.70405 10.1216 7.72613 9.61081 8.57569L10.8963 9.34863C11.5777 8.21542 11.8901 6.84859 11.6927 5.43752L10.2071 5.64536ZM8.82978 2.9915C9.55398 3.66821 10.059 4.58681 10.2071 5.64536L11.6927 5.43752C11.4953 4.02663 10.8199 2.79817 9.85389 1.89551L8.82978 2.9915ZM9.38826 5.7603C9.24014 4.70161 9.47378 3.67954 9.98459 2.82998L8.69907 2.05703C8.01771 3.19024 7.70531 4.55707 7.90273 5.96814L9.38826 5.7603ZM10.7656 8.41417C10.0414 7.73745 9.53636 6.81885 9.38826 5.7603L7.90273 5.96814C8.10013 7.37903 8.77551 8.6075 9.74151 9.51015L10.7656 8.41417Z" fill="#214766"/>
<rect width="10.9999" height="3.05548" transform="matrix(-0.261776 0.965129 -0.965126 -0.261785 19.6582 10.9221)" fill="white" stroke="#214766" stroke-width="1.5" stroke-linejoin="round"/>
<rect width="10.9999" height="3.05548" transform="matrix(-0.261776 0.965129 -0.965126 -0.261785 23.0859 9.95264)" fill="white" stroke="#214766" stroke-width="1.5" stroke-linejoin="round"/>
<rect width="10.9999" height="3.05548" transform="matrix(-0.261776 0.965129 -0.965126 -0.261785 25.3945 13.1115)" fill="white" stroke="#214766" stroke-width="1.5" stroke-linejoin="round"/>
<path d="M7.64648 18.9376C7.64648 18.3853 8.0942 17.9376 8.64648 17.9376H24.5003C25.0526 17.9376 25.5003 18.3853 25.5003 18.9376V22.6528V33.7648C25.5003 34.3171 25.0526 34.7648 24.5003 34.7648H8.64648C8.0942 34.7648 7.64648 34.3171 7.64648 33.7648V22.6528V18.9376Z" fill="#3879AD" stroke="#214766" stroke-width="1.5" stroke-linecap="square" stroke-linejoin="round"/>
<path d="M18.4062 21.4518H14.7398" stroke="#214766" stroke-width="1.5" stroke-linecap="round"/>
<rect x="19.0996" y="29.2273" width="13.1504" height="6.22924" fill="white" stroke="#214766" stroke-width="1.5" stroke-linejoin="round"/>
<path d="M15.6387 25.767H28.6386V29.2277H15.6387V25.767Z" fill="white" stroke="#214766" stroke-width="1.5" stroke-linejoin="round"/>
</svg>
