<svg width="18" height="18" viewBox="0 0 18 18" fill="none" xmlns="http://www.w3.org/2000/svg">
<path d="M9 14.5764V10.4236C8.99968 10.3636 8.98372 10.3048 8.95373 10.253C8.92374 10.2013 8.88077 10.1584 8.82917 10.1288L5.1625 8.04401C5.11309 8.01518 5.05705 8 5 8C4.94295 8 4.88691 8.01518 4.8375 8.04401L1.17083 10.1288C1.11923 10.1584 1.07626 10.2013 1.04627 10.253C1.01628 10.3048 1.00032 10.3636 1 10.4236V14.5764C1.00032 14.6364 1.01628 14.6952 1.04627 14.747C1.07626 14.7987 1.11923 14.8416 1.17083 14.8712L4.8375 16.956C4.88691 16.9848 4.94295 17 5 17C5.05705 17 5.11309 16.9848 5.1625 16.956L8.82917 14.8712C8.88077 14.8416 8.92374 14.7987 8.95373 14.747C8.98372 14.6952 8.99968 14.6364 9 14.5764V14.5764Z" stroke="#214766" stroke-width="1.5" stroke-linecap="round" stroke-linejoin="round"/>
<path d="M17 14.5764V10.4236C16.9997 10.3636 16.9837 10.3048 16.9537 10.253C16.9237 10.2013 16.8808 10.1584 16.8292 10.1288L13.1625 8.04401C13.1131 8.01518 13.057 8 13 8C12.943 8 12.8869 8.01518 12.8375 8.04401L9.17083 10.1288C9.11923 10.1584 9.07626 10.2013 9.04627 10.253C9.01628 10.3048 9.00032 10.3636 9 10.4236V14.5764C9.00032 14.6364 9.01628 14.6952 9.04627 14.747C9.07626 14.7987 9.11923 14.8416 9.17083 14.8712L12.8375 16.956C12.8869 16.9848 12.943 17 13 17C13.057 17 13.1131 16.9848 13.1625 16.956L16.8292 14.8712C16.8808 14.8416 16.9237 14.7987 16.9537 14.747C16.9837 14.6952 16.9997 14.6364 17 14.5764V14.5764Z" stroke="#214766" stroke-width="1.5" stroke-linecap="round" stroke-linejoin="round"/>
<path d="M13 7.57637V3.42363C12.9997 3.36364 12.9837 3.3048 12.9537 3.25304C12.9237 3.20128 12.8808 3.15843 12.8292 3.12881L9.1625 1.04401C9.11309 1.01518 9.05705 1 9 1C8.94295 1 8.88691 1.01518 8.8375 1.04401L5.17083 3.12881C5.11923 3.15843 5.07626 3.20128 5.04627 3.25304C5.01628 3.3048 5.00032 3.36364 5 3.42363V7.57637C5.00032 7.63636 5.01628 7.6952 5.04627 7.74696C5.07626 7.79872 5.11923 7.84157 5.17083 7.87119L8.8375 9.95599C8.88691 9.98482 8.94295 10 9 10C9.05705 10 9.11309 9.98482 9.1625 9.95599L12.8292 7.87119C12.8808 7.84157 12.9237 7.79872 12.9537 7.74696C12.9837 7.6952 12.9997 7.63636 13 7.57637V7.57637Z" stroke="#214766" stroke-width="1.5" stroke-linecap="round" stroke-linejoin="round"/>
<path d="M9 10.5L5.03793 12.5L1 10.5" stroke="#214766" stroke-width="1.5" stroke-linecap="round" stroke-linejoin="round"/>
<path d="M17 10.5L13.0379 12.5L9 10.5" stroke="#214766" stroke-width="1.5" stroke-linecap="round" stroke-linejoin="round"/>
<path d="M13 4L9.03793 6L5 4" stroke="#214766" stroke-width="1.5" stroke-linecap="round" stroke-linejoin="round"/>
<path d="M5 13V17" stroke="#214766" stroke-width="1.5" stroke-linecap="round" stroke-linejoin="round"/>
<path d="M13 13V17" stroke="#214766" stroke-width="1.5" stroke-linecap="round" stroke-linejoin="round"/>
<path d="M9 6V10" stroke="#214766" stroke-width="1.5" stroke-linecap="round" stroke-linejoin="round"/>
</svg>
