<svg width="17" height="16" viewBox="0 0 17 16" fill="none" xmlns="http://www.w3.org/2000/svg">
<path d="M13.25 14C14.0784 14 14.75 13.3284 14.75 12.5C14.75 11.6716 14.0784 11 13.25 11C12.4216 11 11.75 11.6716 11.75 12.5C11.75 13.3284 12.4216 14 13.25 14Z" stroke="currentColor" stroke-width="0.792508" stroke-linecap="round" stroke-linejoin="round"/>
<path d="M5.25 3.5H11.25C11.7804 3.5 12.2891 3.71071 12.6642 4.08579C13.0393 4.46086 13.25 4.96957 13.25 5.5C13.25 6.03043 13.0393 6.53914 12.6642 6.91421C12.2891 7.28929 11.7804 7.5 11.25 7.5H5.25C4.58696 7.5 3.95107 7.76339 3.48223 8.23223C3.01339 8.70107 2.75 9.33696 2.75 10C2.75 10.663 3.01339 11.2989 3.48223 11.7678C3.95107 12.2366 4.58696 12.5 5.25 12.5H11.75" stroke="currentColor" stroke-linecap="round" stroke-linejoin="round"/>
</svg>
