<svg width="19" height="19" viewBox="0 0 19 19" fill="none" xmlns="http://www.w3.org/2000/svg">
<g clip-path="url(#clip0_4048_18479)">
<path d="M17.9215 5.71876L16.3414 7.29895C16.1803 7.46005 15.9198 7.46005 15.7587 7.29895L11.9541 3.49416C11.793 3.33306 11.793 3.07255 11.9541 2.91145L13.5342 1.33126C14.1752 0.690278 15.2172 0.690278 15.8615 1.33126L17.9215 3.39133C18.5659 4.03232 18.5659 5.07435 17.9215 5.71876ZM10.5968 4.26883L1.59599 13.2701L0.869343 17.4348C0.769944 17.9969 1.26009 18.4836 1.82221 18.3877L5.98671 17.6576L14.9875 8.65633C15.1486 8.49523 15.1486 8.23472 14.9875 8.07362L11.1829 4.26883C11.0184 4.10773 10.7579 4.10773 10.5968 4.26883ZM5.10925 12.4988C4.92073 12.3103 4.92073 12.0087 5.10925 11.8201L10.3877 6.54142C10.5762 6.3529 10.8779 6.3529 11.0664 6.54142C11.2549 6.72995 11.2549 7.03159 11.0664 7.22011L5.78791 12.4988C5.59939 12.6873 5.29776 12.6873 5.10925 12.4988ZM3.8719 15.3815H5.51713V16.6258L3.30635 17.0131L2.24037 15.9471L2.62769 13.7362H3.8719V15.3815Z" fill="#FFA65F"/>
</g>
<defs>
<clipPath id="clip0_4048_18479">
<rect width="17.5492" height="17.55" fill="white" transform="translate(0.855469 0.846924)"/>
</clipPath>
</defs>
</svg>
