<svg width="19" height="19" viewBox="0 0 19 19" fill="none" xmlns="http://www.w3.org/2000/svg">
<g id="PencilSimple">
<path id="Vector" d="M6.88008 16.0314H3.5625C3.40503 16.0314 3.25401 15.9689 3.14266 15.8575C3.03131 15.7462 2.96875 15.5952 2.96875 15.4377V12.1201C2.96848 12.043 2.98342 11.9666 3.01271 11.8953C3.042 11.824 3.08507 11.7591 3.13946 11.7045L12.0457 2.79823C12.101 2.74213 12.1668 2.69757 12.2394 2.66716C12.3121 2.63675 12.39 2.62109 12.4688 2.62109C12.5475 2.62109 12.6254 2.63675 12.6981 2.66716C12.7707 2.69757 12.8366 2.74213 12.8918 2.79823L16.202 6.10838C16.2581 6.16363 16.3026 6.22948 16.333 6.30211C16.3634 6.37474 16.3791 6.45269 16.3791 6.53143C16.3791 6.61017 16.3634 6.68812 16.333 6.76075C16.3026 6.83337 16.2581 6.89923 16.202 6.95448L7.29571 15.8607C7.24105 15.9151 7.17621 15.9582 7.10489 15.9875C7.03358 16.0168 6.95718 16.0317 6.88008 16.0314V16.0314Z" stroke="currentColor" stroke-width="2" stroke-linecap="round" stroke-linejoin="round"/>
<path id="Vector_2" d="M10.0938 4.75L14.25 8.90625" stroke="currentColor" stroke-width="2" stroke-linecap="round" stroke-linejoin="round"/>
</g>
</svg>
