
<svg viewBox="0 0 96 96" fill="none" xmlns="http://www.w3.org/2000/svg">
<circle cx="48" cy="48.0001" r="48" fill="#FFA65F"/>
<g clip-path="url(#clip0)">
<path fill-rule="evenodd" clip-rule="evenodd" d="M34.8 45.0668C38.2222 51.9112 44.0889 57.5335 50.9333 61.2001L56.3111 55.8223C57.0444 55.089 58.0222 54.8446 58.7556 55.3335C61.4444 56.3112 64.3778 56.8001 67.5556 56.8001C69.0222 56.8001 70 57.7779 70 59.2446V67.5557C70 69.0223 69.0222 70.0001 67.5556 70.0001C44.5778 70.0001 26 51.4223 26 28.4446C26 26.9779 26.9778 26.0001 28.4444 26.0001H37C38.4667 26.0001 39.4444 26.9779 39.4444 28.4446C39.4444 31.3779 39.9333 34.3112 40.9111 37.2446C41.1556 37.9779 40.9111 38.9557 40.4222 39.689L34.8 45.0668Z" fill="white"/>
</g>
<defs>
<clipPath id="clip0">
<rect width="44" height="44" fill="white" transform="translate(26 26.0001)"/>
</clipPath>
</defs>
</svg>
