<svg viewBox="0 0 22 21" fill="none" xmlns="http://www.w3.org/2000/svg">
<path d="M16.7324 13.57L16.1874 15.9324C16.1109 16.2663 15.8173 16.5 15.4734 16.5C9.55983 16.4995 4.75 11.6904 4.75 5.77742C4.75 5.43384 4.98367 5.13995 5.31771 5.06378L7.68043 4.51889C8.02453 4.43916 8.37612 4.61774 8.51911 4.94355L9.60952 7.48639C9.73699 7.78591 9.65101 8.13488 9.39903 8.34065L8.13704 9.3538C8.93352 10.9761 10.2527 12.2951 11.8757 13.0919L12.9089 11.831C13.1125 11.5784 13.4642 11.491 13.7637 11.6207L16.307 12.7107C16.6128 12.8716 16.8121 13.2278 16.7324 13.57Z" fill="currentColor"/>
</svg>