<svg width="25" height="24" viewBox="0 0 25 24" fill="none" xmlns="http://www.w3.org/2000/svg">
<path d="M9.00684 11.6998C9.7786 13.2935 11.0673 14.579 12.6631 15.3467C12.7808 15.4024 12.911 15.4265 13.0409 15.4167C13.1707 15.4068 13.2958 15.3633 13.4037 15.2904L15.7475 13.7248C15.851 13.6546 15.9707 13.6117 16.0953 13.6002C16.2199 13.5887 16.3453 13.609 16.46 13.6592L20.8475 15.5435C20.9974 15.6059 21.1227 15.7159 21.204 15.8565C21.2853 15.9971 21.3182 16.1606 21.2975 16.3217C21.1584 17.407 20.6286 18.4046 19.8073 19.1276C18.9859 19.8506 17.9292 20.2495 16.835 20.2498C13.4534 20.2498 10.2104 18.9065 7.81935 16.5154C5.42826 14.1243 4.08496 10.8813 4.08496 7.49979C4.08521 6.40553 4.48416 5.34886 5.20717 4.5275C5.93018 3.70613 6.92771 3.17635 8.01309 3.03729C8.17418 3.01659 8.33762 3.04943 8.47822 3.13074C8.61882 3.21206 8.7288 3.33733 8.79121 3.48729L10.6756 7.88416C10.7246 7.99699 10.7451 8.12013 10.7353 8.24275C10.7255 8.36537 10.6857 8.48369 10.6193 8.58729L9.05371 10.9685C8.98401 11.0762 8.9431 11.2 8.93489 11.328C8.92668 11.4561 8.95146 11.5841 9.00684 11.6998V11.6998Z" stroke="#214766" stroke-width="1.5" stroke-linecap="round" stroke-linejoin="round"/>
</svg>
