<svg viewBox="0 0 16 16" xmlns="http://www.w3.org/2000/svg" fill="none" aria-hidden="true">
<path stroke="currentColor" stroke-linecap="round" stroke-linejoin="round" d="M9.96 2.5a5.006 5.006 0 0 1 3.538 3.537M9.445 4.431a2.994 2.994 0 0 1 2.125 2.125M5.781 7.8a5.225 5.225 0 0 0 2.438 2.431.5.5 0 0 0 .494-.037l1.562-1.044a.494.494 0 0 1 .475-.044l2.925 1.257a.494.494 0 0 1 .3.518A3 3 0 0 1 11 13.5 8.5 8.5 0 0 1 2.5 5a3 3 0 0 1 2.619-2.975.494.494 0 0 1 .519.3l1.256 2.931a.5.5 0 0 1-.038.469L5.813 7.312a.5.5 0 0 0-.032.488v0Z"/>
</svg>