<svg width="57" height="50" viewBox="0 0 57 50" fill="none" xmlns="http://www.w3.org/2000/svg">
<path d="M7.79505 31.1315C7.79505 31.1315 8.4624 28.0909 6.37012 25.54" stroke="#3879AD" stroke-width="1.9" stroke-miterlimit="1.5" stroke-linecap="round" stroke-linejoin="round"/>
<path d="M9.39062 19.8415C10.0718 18.563 10.9294 17.3637 11.94 16.2651" stroke="#3879AD" stroke-width="2.05769" stroke-miterlimit="1.5" stroke-linecap="round" stroke-linejoin="round"/>
<path d="M19.376 11.1507C21.2053 10.3906 23.1828 9.84248 25.2648 9.54443" stroke="#3879AD" stroke-width="2.05769" stroke-miterlimit="1.5" stroke-linecap="round" stroke-linejoin="round"/>
<path d="M36.0635 10.3066C44.3209 12.7445 50.2364 19.283 50.2364 26.9578C50.2364 32.3351 47.3333 37.1547 42.754 40.3968" stroke="#3879AD" stroke-width="2.05769" stroke-miterlimit="1.5" stroke-linecap="round" stroke-linejoin="round"/>
<path d="M35.7189 43.7071C33.581 44.3043 31.2926 44.628 28.9118 44.628C26.4387 44.628 24.0603 44.2779 21.8496 43.634" stroke="#3879AD" stroke-width="2.05769" stroke-miterlimit="1.5" stroke-linecap="round" stroke-linejoin="round"/>
<path d="M16.6587 41.4161C13.5782 39.6195 11.0979 37.1646 9.51367 34.2993" stroke="#3879AD" stroke-width="2.05769" stroke-miterlimit="1.5" stroke-linecap="round" stroke-linejoin="round"/>
<path d="M13.1461 17.3374C13.1461 17.3374 9.04732 14.1538 8.53613 10.7926C12.0308 7.42384 19.4779 8.86287 20.4608 13.1647" stroke="#3879AD" stroke-width="2.05769" stroke-miterlimit="1.5" stroke-linecap="round" stroke-linejoin="round"/>
<path d="M9.39212 19.8403C9.39212 19.8403 3.24156 23.5023 2.54448 24.3088C0.230178 26.9945 3.36238 32.6674 6.92678 34.2125C8.63463 34.3236 10.2356 34.3345 11.7041 34.2125" stroke="#3879AD" stroke-width="2.05769" stroke-miterlimit="1.5" stroke-linecap="round" stroke-linejoin="round"/>
<path d="M13.6987 39.3337C13.6987 39.3337 13.55 44.969 13.3432 46.0925C13.1364 47.216 19.0337 49.329 21.5478 48.2356C24.062 47.1419 24.8915 44.3136 24.8915 44.3136" stroke="#3879AD" stroke-width="2.05769" stroke-miterlimit="1.5" stroke-linecap="round" stroke-linejoin="round"/>
<path d="M32.6455 44.3577L33.4076 47.2846C33.4076 47.2846 35.2293 49.2963 41.4729 48.0234C45.0814 47.2874 46.3571 37.1191 46.3571 37.1191" stroke="#3879AD" stroke-width="2.05769" stroke-miterlimit="1.5" stroke-linecap="round" stroke-linejoin="round"/>
<path d="M24.5693 12.78C24.5693 12.78 31.2032 11.4313 36.6799 13.7559" stroke="#3879AD" stroke-width="2.05769" stroke-miterlimit="1.5" stroke-linecap="round" stroke-linejoin="round"/>
<path d="M48.0781 19.2054C48.0781 19.2054 50.7038 16.9444 52.6068 17.4618C53.1459 15.8824 54.8537 15.4448 54.8537 15.4448" stroke="#3879AD" stroke-width="2.05769" stroke-miterlimit="1.5" stroke-linecap="round" stroke-linejoin="round"/>
<path d="M53.3574 21.9851C54.4026 21.9851 55.25 21.0545 55.25 19.9066C55.25 18.7587 54.4026 17.8281 53.3574 17.8281C52.3122 17.8281 51.4648 18.7587 51.4648 19.9066C51.4648 21.0545 52.3122 21.9851 53.3574 21.9851Z" stroke="#3879AD" stroke-width="2.05769" stroke-miterlimit="1.5" stroke-linecap="round" stroke-linejoin="round"/>
<path d="M27.1848 12.4614C25.865 11.3735 25.0215 9.70397 25.0215 7.83356C25.0215 4.55845 27.6123 1.89941 30.8049 1.89941C33.9999 1.89941 36.5907 4.55845 36.5907 7.83356C36.5907 9.95993 35.4986 11.8265 33.8581 12.8745" stroke="#3879AD" stroke-width="2.05769" stroke-miterlimit="1.5" stroke-linecap="round" stroke-linejoin="round"/>
<path d="M29.8027 6.05671L30.8065 5.69287V8.98116" stroke="#3879AD" stroke-width="2.05769" stroke-miterlimit="1.5" stroke-linecap="round" stroke-linejoin="round"/>
<mask id="path-16-inside-1_22908_4125" fill="white">
<ellipse cx="14.1218" cy="23.8182" rx="1.12473" ry="1.15362"/>
</mask>
<ellipse cx="14.1218" cy="23.8182" rx="1.12473" ry="1.15362" fill="#3879AD"/>
<path d="M13.1888 23.8182C13.1888 23.3684 13.5576 22.9141 14.1218 22.9141V27.0295C15.9283 27.0295 17.3042 25.5422 17.3042 23.8182H13.1888ZM14.1218 22.9141C14.6859 22.9141 15.0548 23.3684 15.0548 23.8182H10.9394C10.9394 25.5422 12.3153 27.0295 14.1218 27.0295V22.9141ZM15.0548 23.8182C15.0548 24.268 14.6859 24.7222 14.1218 24.7222V20.6069C12.3153 20.6069 10.9394 22.0941 10.9394 23.8182H15.0548ZM14.1218 24.7222C13.5576 24.7222 13.1888 24.268 13.1888 23.8182H17.3042C17.3042 22.0941 15.9283 20.6069 14.1218 20.6069V24.7222Z" fill="#3879AD" mask="url(#path-16-inside-1_22908_4125)"/>
</svg>
