<svg width="53" height="45" viewBox="0 0 53 45" fill="none" xmlns="http://www.w3.org/2000/svg">
<path d="M7.1463 27.7402C7.1463 27.7402 7.77096 24.9359 5.82129 22.5852" stroke="white" stroke-width="1.5" stroke-miterlimit="1.5" stroke-linecap="round" stroke-linejoin="round"/>
<path d="M8.64062 17.3313C9.27726 16.1526 10.0787 15.047 11.0232 14.0342" stroke="white" stroke-width="1.5" stroke-miterlimit="1.5" stroke-linecap="round" stroke-linejoin="round"/>
<path d="M17.9724 9.31898C19.6821 8.61822 21.5302 8.11292 23.476 7.83813" stroke="white" stroke-width="1.5" stroke-miterlimit="1.5" stroke-linecap="round" stroke-linejoin="round"/>
<path d="M33.5688 8.54077C41.2861 10.7883 46.8146 16.8163 46.8146 23.8921C46.8146 28.8496 44.1014 33.2929 39.8216 36.282" stroke="white" stroke-width="1.5" stroke-miterlimit="1.5" stroke-linecap="round" stroke-linejoin="round"/>
<path d="M33.2471 39.334C31.2491 39.8846 29.1103 40.183 26.8853 40.183C24.574 40.183 22.3513 39.8602 20.2852 39.2666" stroke="white" stroke-width="1.5" stroke-miterlimit="1.5" stroke-linecap="round" stroke-linejoin="round"/>
<path d="M15.4337 37.2219C12.5548 35.5655 10.2367 33.3023 8.7561 30.6606" stroke="white" stroke-width="1.5" stroke-miterlimit="1.5" stroke-linecap="round" stroke-linejoin="round"/>
<path d="M12.1505 15.0229C12.1505 15.0229 8.31979 12.0879 7.84204 8.98911C11.1081 5.88332 18.068 7.21001 18.9866 11.176" stroke="white" stroke-width="1.5" stroke-miterlimit="1.5" stroke-linecap="round" stroke-linejoin="round"/>
<path d="M8.64216 17.3303C8.64216 17.3303 2.89398 20.7064 2.24251 21.4499C0.079606 23.926 3.0069 29.1561 6.33812 30.5805C7.93423 30.6829 9.43047 30.693 10.8029 30.5805" stroke="white" stroke-width="1.5" stroke-miterlimit="1.5" stroke-linecap="round" stroke-linejoin="round"/>
<path d="M12.6668 35.302C12.6668 35.302 12.5278 40.4974 12.3345 41.5331C12.1413 42.5689 17.6528 44.517 20.0024 43.5089C22.3521 42.5006 23.1273 39.8931 23.1273 39.8931" stroke="white" stroke-width="1.5" stroke-miterlimit="1.5" stroke-linecap="round" stroke-linejoin="round"/>
<path d="M30.3738 39.9339L31.086 42.6324C31.086 42.6324 32.7886 44.4871 38.6236 43.3135C41.9961 42.635 43.1883 33.2605 43.1883 33.2605" stroke="white" stroke-width="1.5" stroke-miterlimit="1.5" stroke-linecap="round" stroke-linejoin="round"/>
<path d="M22.8257 10.8211C22.8257 10.8211 29.0256 9.5777 34.144 11.7209" stroke="white" stroke-width="1.5" stroke-miterlimit="1.5" stroke-linecap="round" stroke-linejoin="round"/>
<path d="M44.7964 16.7451C44.7964 16.7451 47.2503 14.6606 49.0288 15.1376C49.5326 13.6815 51.1287 13.2781 51.1287 13.2781" stroke="white" stroke-width="1.5" stroke-miterlimit="1.5" stroke-linecap="round" stroke-linejoin="round"/>
<path d="M49.7312 19.3078C50.708 19.3078 51.4999 18.4498 51.4999 17.3916C51.4999 16.3333 50.708 15.4753 49.7312 15.4753C48.7543 15.4753 47.9624 16.3333 47.9624 17.3916C47.9624 18.4498 48.7543 19.3078 49.7312 19.3078Z" stroke="white" stroke-width="1.5" stroke-miterlimit="1.5" stroke-linecap="round" stroke-linejoin="round"/>
<path d="M25.271 10.5275C24.0376 9.52449 23.2493 7.98533 23.2493 6.26094C23.2493 3.2415 25.6706 0.790039 28.6543 0.790039C31.6403 0.790039 34.0616 3.2415 34.0616 6.26094C34.0616 8.22131 33.041 9.94219 31.5078 10.9083" stroke="white" stroke-width="1.5" stroke-miterlimit="1.5" stroke-linecap="round" stroke-linejoin="round"/>
<path d="M27.7178 4.62279L28.6559 4.28735V7.31895" stroke="white" stroke-width="1.5" stroke-miterlimit="1.5" stroke-linecap="round" stroke-linejoin="round"/>
<mask id="path-16-inside-1_5771_29273" fill="white">
<ellipse cx="13.0626" cy="20.9979" rx="1.05115" ry="1.06356"/>
</mask>
<ellipse cx="13.0626" cy="20.9979" rx="1.05115" ry="1.06356" fill="white"/>
<path d="M12.6138 20.9979C12.6138 20.7735 12.7982 20.5615 13.0626 20.5615V23.5615C14.4881 23.5615 15.6138 22.3971 15.6138 20.9979H12.6138ZM13.0626 20.5615C13.3271 20.5615 13.5115 20.7735 13.5115 20.9979H10.5115C10.5115 22.3971 11.6371 23.5615 13.0626 23.5615V20.5615ZM13.5115 20.9979C13.5115 21.2223 13.3271 21.4343 13.0626 21.4343V18.4343C11.6371 18.4343 10.5115 19.5987 10.5115 20.9979H13.5115ZM13.0626 21.4343C12.7982 21.4343 12.6138 21.2223 12.6138 20.9979H15.6138C15.6138 19.5987 14.4881 18.4343 13.0626 18.4343V21.4343Z" fill="white" mask="url(#path-16-inside-1_5771_29273)"/>
</svg>
