<svg width="57" height="50" viewBox="0 0 57 50" fill="none" xmlns="http://www.w3.org/2000/svg">
<path fill-rule="evenodd" clip-rule="evenodd" d="M1.75 34.3095L6.25548 29.9041C9.85603 37.1073 22.1198 43.4182 22.1198 43.4182L17.9812 48.5405C11.1859 45.2377 5.70846 40.5641 1.75 34.3095Z" stroke="#3879AD" stroke-width="2.05769" stroke-miterlimit="1.5" stroke-linecap="round" stroke-linejoin="round"/>
<path d="M7.66602 31.1032L9.74212 28.7664" stroke="#3879AD" stroke-width="2.05769" stroke-miterlimit="1.5" stroke-linecap="round" stroke-linejoin="round"/>
<path d="M20.7891 42.2829C20.7891 42.2829 23.3246 39.6794 25.3845 37.5279C27.4446 35.3762 39.1306 35.5302 43.6549 29.0107C46.4454 24.9895 47.2007 21.7382 44.6756 20.2012" stroke="#3879AD" stroke-width="2.05769" stroke-miterlimit="1.5" stroke-linecap="round" stroke-linejoin="round"/>
<path d="M44.793 27.2156L48.7198 30.6083" stroke="#3879AD" stroke-width="2.05769" stroke-miterlimit="1.5" stroke-linecap="round" stroke-linejoin="round"/>
<path d="M42.1631 22.5341C42.1631 22.5341 47.3426 17.1483 44.4428 13.8838" stroke="#3879AD" stroke-width="2.05769" stroke-miterlimit="1.5" stroke-linecap="round" stroke-linejoin="round"/>
<path d="M40.1768 16.4626C40.1768 16.4626 47.7552 11.4102 41.9825 8.04736" stroke="#3879AD" stroke-width="2.05769" stroke-miterlimit="1.5" stroke-linecap="round" stroke-linejoin="round"/>
<path d="M37.1816 10.5795C37.8197 10.2013 44.0767 8.08375 41.6192 4.5919C39.162 1.09977 31.4556 4.43441 28.2687 6.38266C25.0814 8.3312 22.8322 10.1001 21.0748 10.7143C19.3172 11.3287 14.968 10.8223 18.2661 7.09569C21.5641 3.36904 25.7212 -1.33648 30.4634 5.04082" stroke="#3879AD" stroke-width="2.05769" stroke-miterlimit="1.5" stroke-linecap="round" stroke-linejoin="round"/>
<path d="M17.7261 7.76627C17.7261 7.76627 12.8505 7.49094 14.0963 11.9504C15.2254 15.9927 21.6269 17.5682 22.6231 16.6738C23.5852 15.8105 24.136 14.3809 21.072 10.9325" stroke="#3879AD" stroke-width="2.05769" stroke-miterlimit="1.5" stroke-linecap="round" stroke-linejoin="round"/>
<path d="M14.1919 12.2588C14.1919 12.2588 6.99859 16.9462 16.1639 21.458C24.4654 25.5445 21.9235 17.3023 20.6847 16.9221" stroke="#3879AD" stroke-width="2.05769" stroke-miterlimit="1.5" stroke-linecap="round" stroke-linejoin="round"/>
<path d="M11.5946 17.1272C11.5946 17.1272 5.2813 22.3112 17.0642 26.9343C20.6937 28.3586 22.0328 23.8925 19.1177 22.5863" stroke="#3879AD" stroke-width="2.05769" stroke-miterlimit="1.5" stroke-linecap="round" stroke-linejoin="round"/>
<path d="M10.2492 22.0225C10.2492 22.0225 7.19538 25.9836 9.9058 28.4394C13.2894 31.5051 16.972 28.3075 14.7051 25.8873" stroke="#3879AD" stroke-width="2.05769" stroke-miterlimit="1.5" stroke-linecap="round" stroke-linejoin="round"/>
<path d="M27.3691 36.614C27.3691 36.614 31.1803 38.6108 33.9644 39.423C35.1347 39.7644 35.7849 41.0221 36.4053 41.6828" stroke="#3879AD" stroke-width="2.05769" stroke-miterlimit="1.5" stroke-linecap="round" stroke-linejoin="round"/>
<path fill-rule="evenodd" clip-rule="evenodd" d="M50.8484 29.7009C46.807 35.0292 41.5253 39.6471 34.9736 43.5376L39.0548 48.4986C45.4763 45.3956 50.9325 40.6219 55.2506 33.8791L50.8484 29.7009Z" stroke="#3879AD" stroke-width="2.05769" stroke-miterlimit="1.5" stroke-linecap="round" stroke-linejoin="round"/>
</svg>
