<svg width="191" height="147" viewBox="0 0 191 147" fill="none" xmlns="http://www.w3.org/2000/svg">
<path fill-rule="evenodd" clip-rule="evenodd" d="M77.5029 94.7541C72.6878 103.938 61.8326 108.615 51.617 105.345C40.1758 101.683 33.8696 89.44 37.5315 77.9988C41.1935 66.5576 53.437 60.2513 64.8782 63.9133C74.3319 66.9391 80.2797 75.824 79.995 85.2741L86.6939 92.7152L77.5029 94.7541Z" fill="#214766"/>
<path d="M65.621 113.466C54.9414 118.967 20.8544 112.057 20.8544 112.057C20.8544 112.057 35.0215 80.2932 45.7011 74.7925C56.3806 69.2917 69.4973 73.49 74.998 84.1695C80.4988 94.8491 76.3005 107.966 65.621 113.466Z" fill="#51C8B4"/>
<path fill-rule="evenodd" clip-rule="evenodd" d="M60.987 122.021C53.8885 122.859 44.7349 122.342 36.4239 121.445C38.9094 129.972 41.5384 136.834 41.5384 136.834C41.5384 136.834 51.8778 129.98 60.987 122.021Z" fill="#214766"/>
<circle cx="56.1722" cy="93.9695" r="9.57059" transform="rotate(17.7483 56.1722 93.9695)" fill="white"/>
<mask id="path-5-inside-1_13893_185550" fill="white">
<path fill-rule="evenodd" clip-rule="evenodd" d="M120.953 0C100.041 0 83.0879 16.9529 83.0879 37.8653V44.4896C83.0879 57.6834 89.8359 69.3011 100.069 76.0798V89.732C100.069 90.4456 100.813 90.9154 101.457 90.6086L118.904 82.3004C119.583 82.3366 120.266 82.3549 120.953 82.3549H152.199C173.111 82.3549 190.064 65.402 190.064 44.4896V37.8653C190.064 16.9529 173.112 0 152.199 0H120.953Z"/>
</mask>
<path fill-rule="evenodd" clip-rule="evenodd" d="M120.953 0C100.041 0 83.0879 16.9529 83.0879 37.8653V44.4896C83.0879 57.6834 89.8359 69.3011 100.069 76.0798V89.732C100.069 90.4456 100.813 90.9154 101.457 90.6086L118.904 82.3004C119.583 82.3366 120.266 82.3549 120.953 82.3549H152.199C173.111 82.3549 190.064 65.402 190.064 44.4896V37.8653C190.064 16.9529 173.112 0 152.199 0H120.953Z" fill="white"/>
<path d="M100.069 76.0798H104.069V73.9315L102.278 72.7451L100.069 76.0798ZM101.457 90.6086L99.7374 86.9971H99.7374L101.457 90.6086ZM118.904 82.3004L119.117 78.3061L118.102 78.252L117.185 78.689L118.904 82.3004ZM87.0879 37.8653C87.0879 19.162 102.25 4 120.953 4V-4C97.8316 -4 79.0879 14.7437 79.0879 37.8653H87.0879ZM87.0879 44.4896V37.8653H79.0879V44.4896H87.0879ZM102.278 72.7451C93.1157 66.6758 87.0879 56.2857 87.0879 44.4896H79.0879C79.0879 59.0811 86.556 71.9265 97.8598 79.4145L102.278 72.7451ZM104.069 89.732V76.0798H96.0688V89.732H104.069ZM99.7374 86.9971C101.748 86.0399 104.069 87.5056 104.069 89.732H96.0688C96.0688 93.3856 99.8782 95.7908 103.177 94.22L99.7374 86.9971ZM117.185 78.689L99.7374 86.9971L103.177 94.22L120.624 85.9118L117.185 78.689ZM120.953 78.3549C120.337 78.3549 119.725 78.3385 119.117 78.3061L118.691 86.2947C119.441 86.3347 120.195 86.3549 120.953 86.3549V78.3549ZM152.199 78.3549H120.953V86.3549H152.199V78.3549ZM186.064 44.4896C186.064 63.1929 170.902 78.3549 152.199 78.3549V86.3549C175.321 86.3549 194.064 67.6112 194.064 44.4896H186.064ZM186.064 37.8653V44.4896H194.064V37.8653H186.064ZM152.199 4C170.902 4 186.064 19.162 186.064 37.8653H194.064C194.064 14.7437 175.321 -4 152.199 -4V4ZM120.953 4H152.199V-4H120.953V4Z" fill="#E1E1E3" mask="url(#path-5-inside-1_13893_185550)"/>
<path d="M111 45.9795L118.7 53.0654L133 31.0327" stroke="#51C8B4" stroke-width="8" stroke-linecap="round" stroke-linejoin="round"/>
<path d="M146.001 31.8838C145.932 28.7772 148.785 26.1939 152.374 26.1139C155.963 26.0339 158.929 28.4875 158.998 31.5941C159.035 33.2267 158.264 34.7149 157.003 35.771C154.993 37.4548 152.672 39.4888 152.731 42.11V42.11" stroke="#3879AD" stroke-width="8" stroke-linecap="round"/>
<circle cx="153.453" cy="52.0964" r="4" transform="rotate(-1.27694 153.453 52.0964)" fill="#3879AD"/>
</svg>
