<svg width="33" height="33" viewBox="0 0 33 33" fill="none" xmlns="http://www.w3.org/2000/svg">
<g id="Question">
<path id="Vector" d="M16.335 28.5C22.9624 28.5 28.335 23.1274 28.335 16.5C28.335 9.87258 22.9624 4.5 16.335 4.5C9.70754 4.5 4.33496 9.87258 4.33496 16.5C4.33496 23.1274 9.70754 28.5 16.335 28.5Z" stroke="#9F9FA1" stroke-width="1.5" stroke-linecap="round" stroke-linejoin="round"/>
<path id="Vector_2" d="M16.335 24C16.8872 24 17.335 23.5523 17.335 23C17.335 22.4477 16.8872 22 16.335 22C15.7827 22 15.335 22.4477 15.335 23C15.335 23.5523 15.7827 24 16.335 24Z" fill="#9F9FA1"/>
<path id="Vector_3" d="M16.335 18.5V17.5C17.0272 17.5 17.7039 17.2947 18.2795 16.9101C18.855 16.5256 19.3036 15.9789 19.5685 15.3394C19.8334 14.6999 19.9028 13.9961 19.7677 13.3172C19.6327 12.6383 19.2993 12.0146 18.8098 11.5251C18.3204 11.0356 17.6967 10.7023 17.0178 10.5673C16.3388 10.4322 15.6351 10.5015 14.9956 10.7664C14.356 11.0313 13.8094 11.4799 13.4248 12.0555C13.0402 12.6311 12.835 13.3078 12.835 14" stroke="#9F9FA1" stroke-width="1.5" stroke-linecap="round" stroke-linejoin="round"/>
</g>
</svg>
