<svg width="67" height="48" viewBox="0 0 67 48" fill="none" xmlns="http://www.w3.org/2000/svg">
<path d="M46.5594 45.0742C48.2001 45.0742 49.53 44.7571 50.549 44.123C51.5681 43.4889 52.0776 42.6903 52.0776 41.7272C52.0776 40.4421 51.5855 39.3041 50.6012 38.3133C49.617 37.3226 48.2714 36.5417 46.5643 35.9709C44.8572 35.3999 42.9108 35.1145 40.725 35.1145C40.0628 35.1145 39.4945 35.1328 39.0201 35.1696C38.5456 35.2063 38.1194 35.2522 37.7415 35.3071C37.3636 35.3622 36.9978 35.4258 36.6443 35.4981L35.2255 32.4227C33.8414 29.4591 32.353 27.165 30.7604 25.5406C29.1678 23.9162 27.5005 22.7876 25.7585 22.1549C24.0164 21.5221 22.232 21.2057 20.4051 21.2057C19.984 21.2057 19.5261 21.2241 19.0313 21.261C18.5365 21.2979 18.1479 21.3556 17.8655 21.4341C17.6267 21.4965 17.4407 21.583 17.3077 21.6934C17.1746 21.8039 17.1081 21.9446 17.1081 22.1156C17.1081 22.3083 17.1814 22.4588 17.328 22.5672C17.4745 22.6756 17.6448 22.7026 17.8387 22.6482C18.1592 22.5952 18.5574 22.5494 19.0333 22.5105C19.5092 22.4717 19.9619 22.4523 20.3913 22.4523C22.0674 22.4523 23.6961 22.7418 25.2772 23.3208C26.8583 23.8997 28.3832 24.9484 29.8518 26.4668C31.3205 27.9852 32.719 30.1632 34.0476 33.0008L35.9021 36.9503C36.6185 36.779 37.3016 36.6404 37.9516 36.5344C38.6016 36.4284 39.5288 36.3754 40.733 36.3754C42.6215 36.3754 44.3298 36.6097 45.858 37.0783C47.3862 37.547 48.5928 38.1825 49.4777 38.9848C50.3626 39.7872 50.8051 40.6941 50.8051 41.7053C50.8051 42.2938 50.4092 42.791 49.6175 43.1969C48.8258 43.6027 47.8065 43.8057 46.5594 43.8057C45.6489 43.8057 44.7172 43.689 43.7642 43.4558C42.8112 43.2225 41.814 43.1059 40.7727 43.1059C39.9791 43.1059 39.2691 43.1609 38.6427 43.2711C38.0163 43.3813 37.4187 43.4963 36.8497 43.6161C36.2807 43.7359 35.6909 43.7959 35.0801 43.7959C34.2886 43.7959 33.499 43.6557 32.7115 43.3753C31.924 43.0949 31.1405 42.665 30.3612 42.0858L21.3877 35.5177C18.1424 35.6714 15.1904 35.2892 12.5315 34.371C9.87258 33.4528 7.71309 31.7163 6.05299 29.1614C4.66614 29.1912 3.57978 28.9137 2.7939 28.3289C2.008 27.7442 1.61505 26.9243 1.61505 25.8693C1.61505 24.9256 1.96712 24.1791 2.67125 23.6298C3.37536 23.0807 4.32819 22.8354 5.52976 22.8939C6.89908 19.0198 8.87185 16.0963 11.4481 14.1235C14.0243 12.1508 17.1237 11.1644 20.7463 11.1644C22.4331 11.1644 24.0504 11.3739 25.5981 11.7929C27.1458 12.2118 28.6643 12.784 30.1536 13.5096C31.6428 14.2351 33.1387 15.0589 34.6412 15.981C36.1437 16.9031 37.7014 17.8672 39.3142 18.8734C40.597 19.6421 41.6493 20.1863 42.4711 20.5059C43.293 20.8255 44.1024 20.9854 44.8993 20.9854C45.6813 20.9854 46.4674 20.6868 47.2574 20.0898C48.0475 19.4927 49.0805 18.51 50.3564 17.1415L36.6854 9.20417C35.4374 8.48042 34.3962 7.83017 33.5618 7.25344C32.7275 6.67674 32.1057 6.1668 31.6966 5.72363C31.2874 5.28042 31.0829 4.91133 31.0829 4.61638C31.0829 4.0737 31.4079 3.54806 32.0579 3.03945C32.7079 2.53084 33.5384 2.1112 34.5494 1.78055C35.5603 1.44989 36.5941 1.28456 37.6505 1.28456C39.6805 1.28456 41.6086 1.80968 43.4348 2.85991C45.261 3.91015 46.8327 5.38426 48.1499 7.28226L54.0079 15.7384C55.4487 15.488 56.8488 15.6245 58.2082 16.1478C59.5672 16.6712 60.7902 17.4793 61.8772 18.5724C62.9638 19.6654 63.8267 20.9608 64.4659 22.4583C65.105 23.956 65.4246 25.5544 65.4246 27.2538C65.4246 29.3201 64.8901 30.7543 63.821 31.5566C62.7516 32.3588 60.8199 32.7599 58.0258 32.7599C56.2634 32.7599 54.524 32.3842 52.8075 31.6326C51.0911 30.8811 49.686 29.8667 48.5924 28.5896C46.4446 29.8022 44.4879 30.9867 42.7223 32.1431C40.9566 33.2995 39.3979 34.3611 38.0462 35.3281L38.8361 36.2612C40.2 35.307 41.7313 34.2766 43.4299 33.17C45.1285 32.0635 46.7463 31.0408 48.2833 30.1021C49.1777 30.9355 50.1631 31.6447 51.2395 32.2296C52.3159 32.8145 53.4285 33.2561 54.5773 33.5545C55.7262 33.8529 56.8722 34.0015 58.0153 34.0003C60.0844 33.9991 61.755 33.7818 63.0271 33.3482C64.2993 32.9147 65.2253 32.204 65.8052 31.216C66.3851 30.2281 66.6751 28.9067 66.6751 27.252C66.6751 25.4361 66.3466 23.7235 65.6895 22.1141C65.0324 20.5047 64.1319 19.1001 62.988 17.9005C61.8441 16.7008 60.5503 15.7895 59.1067 15.1664C57.6635 14.5433 56.1645 14.3005 54.6096 14.4382L49.2337 6.61633C47.7869 4.50604 46.0573 2.87576 44.045 1.72548C42.0326 0.575159 39.8998 0 37.6465 0C36.657 0 35.6937 0.124071 34.7567 0.372219C33.8198 0.620367 32.976 0.956071 32.2254 1.37933C31.4747 1.80263 30.8783 2.28976 30.4361 2.84074C29.994 3.39172 29.7729 3.97021 29.7729 4.57621C29.7729 5.11947 30.0019 5.66548 30.4598 6.21423C30.9177 6.76299 31.6112 7.36467 32.5405 8.01928C33.4697 8.67389 34.6286 9.41868 36.0172 10.2537C37.0273 10.8561 38.0439 11.4516 39.0669 12.0402C40.0899 12.6288 41.1159 13.2235 42.1449 13.8243C43.1739 14.4251 44.1997 15.0218 45.2224 15.6144C46.2452 16.207 47.2711 16.7995 48.3002 17.3918C47.4578 18.214 46.7958 18.8047 46.3141 19.1641C45.8324 19.5234 45.3617 19.7031 44.902 19.7031C44.2106 19.7031 43.5148 19.565 42.8144 19.2889C42.1139 19.0128 41.1548 18.5027 39.9368 17.7584C38.2824 16.7447 36.6837 15.764 35.1408 14.8162C33.5978 13.8684 32.0595 13.0235 30.5258 12.2815C28.9921 11.5394 27.4209 10.9523 25.8122 10.5201C24.2035 10.0879 22.5156 9.87185 20.7485 9.87185C16.9838 9.87185 13.7277 10.8797 10.9802 12.8954C8.23269 14.9111 6.11942 17.8428 4.6404 21.6905C3.32077 21.8017 2.27159 22.2345 1.49284 22.9887C0.714085 23.7429 0.324707 24.711 0.324707 25.893C0.324707 26.7746 0.535303 27.5447 0.956496 28.2031C1.37769 28.8616 1.96465 29.3825 2.71738 29.7658C3.47012 30.1491 4.35703 30.3685 5.37812 30.4241C6.51935 32.0384 7.88931 33.3308 9.48799 34.3014C11.0867 35.2719 12.8592 35.9535 14.8055 36.3462C16.7518 36.7388 18.7991 36.8828 20.9475 36.7781L29.6373 43.1572C30.5118 43.795 31.4039 44.2739 32.3136 44.594C33.2234 44.9141 34.1436 45.0742 35.0743 45.0742C35.7805 45.0742 36.619 44.9566 37.5899 44.7214C38.5607 44.4862 39.6251 44.3686 40.7829 44.3686C42.0009 44.3686 43.0081 44.4862 43.8047 44.7214C44.6013 44.9566 45.5195 45.0742 46.5594 45.0742ZM19.7909 47.29C21.0041 47.29 22.2297 47.1728 23.4677 46.9385C24.7057 46.7042 25.9152 46.295 27.0961 45.7109C28.277 45.1267 29.3942 44.3121 30.4477 43.2669L29.454 42.4288C28.0627 43.8757 26.5307 44.8396 24.8579 45.3204C23.1852 45.8012 21.4929 46.0416 19.7811 46.0416C17.8026 46.0416 16.2639 45.7013 15.1652 45.0206C14.0665 44.34 13.5172 43.4136 13.5172 42.2415C13.5172 41.5763 13.7348 41.0305 14.1701 40.6041C14.6054 40.1777 15.2773 39.9645 16.1857 39.9645C16.9198 39.9645 17.7084 40.1043 18.5514 40.384C19.3944 40.6637 20.3975 40.8035 21.5607 40.8035C22.6136 40.8035 23.496 40.7149 24.2079 40.5377C24.9197 40.3604 25.5383 40.1392 26.0637 39.874L24.8671 38.9097C24.3304 39.1143 23.8122 39.276 23.3125 39.3947C22.8128 39.5135 22.236 39.5729 21.5821 39.5729C20.4912 39.5717 19.5225 39.4296 18.6761 39.1465C17.8297 38.8634 17.0049 38.7219 16.2018 38.7219C14.9559 38.7219 13.9862 39.0487 13.2928 39.7022C12.5994 40.3558 12.2527 41.2015 12.2527 42.2392C12.2527 43.8113 12.928 45.0461 14.2788 45.9437C15.6294 46.8412 17.4668 47.29 19.7909 47.29ZM57.0624 25.2525C57.493 25.2525 57.8643 25.0918 58.176 24.7705C58.4878 24.4493 58.6437 24.0739 58.6437 23.6446C58.6437 23.2152 58.4878 22.8399 58.176 22.5186C57.8643 22.1973 57.493 22.0367 57.0624 22.0367C56.6149 22.0367 56.2351 22.1973 55.923 22.5186C55.6108 22.8399 55.4547 23.2152 55.4547 23.6446C55.4547 24.0739 55.6108 24.4493 55.923 24.7705C56.2351 25.0918 56.6149 25.2525 57.0624 25.2525Z" fill="white"/>
</svg>
