<svg width="92" height="16" viewBox="0 0 92 16" fill="none" xmlns="http://www.w3.org/2000/svg">
<path d="M4.27598 15.8832C3.54464 16.2682 2.68454 15.6457 2.82581 14.8306L3.60715 10.2825L0.303001 7.06337C-0.290819 6.4858 0.0379615 5.47567 0.856808 5.3569L5.42236 4.69432L7.46384 0.556327C7.64761 0.185032 8.00392 0 8.36021 0L8.37768 0.001259C8.72772 0.00625961 9.07653 0.191282 9.2578 0.556327L11.298 4.69432L15.8648 5.3569C16.6837 5.47567 17.0112 6.4858 16.4174 7.06337L13.1145 10.2825L13.8958 14.8306C14.0359 15.6457 13.177 16.2682 12.4457 15.8832L8.36021 13.7392L4.27598 15.8832Z" fill="#EEEEEE"/>
<path d="M22.9962 15.8832C22.2649 16.2682 21.4048 15.6457 21.546 14.8306L22.3274 10.2825L19.0232 7.06337C18.4294 6.4858 18.7582 5.47567 19.577 5.3569L24.1426 4.69432L26.1841 0.556327C26.3678 0.185032 26.7241 0 27.0804 0L27.0979 0.001259C27.4479 0.00625961 27.7967 0.191282 27.978 0.556327L30.0182 4.69432L34.585 5.3569C35.4039 5.47567 35.7314 6.4858 35.1376 7.06337L31.8347 10.2825L32.6161 14.8306C32.7561 15.6457 31.8972 16.2682 31.1659 15.8832L27.0804 13.7392L22.9962 15.8832Z" fill="#EEEEEE"/>
<path d="M41.7159 15.8832C40.9846 16.2682 40.1245 15.6457 40.2657 14.8306L41.0471 10.2825L37.7429 7.06337C37.1491 6.4858 37.4779 5.47567 38.2967 5.3569L42.8623 4.69432L44.9038 0.556327C45.0876 0.185032 45.4439 0 45.8002 0L45.8176 0.001259C46.1677 0.00625961 46.5165 0.191282 46.6977 0.556327L48.738 4.69432L53.3048 5.3569C54.1236 5.47567 54.4511 6.4858 53.8573 7.06337L50.5544 10.2825L51.3358 14.8306C51.4758 15.6457 50.6169 16.2682 49.8856 15.8832L45.8002 13.7392L41.7159 15.8832Z" fill="#EEEEEE"/>
<path d="M60.4361 15.8832C59.7048 16.2682 58.8447 15.6457 58.986 14.8306L59.7673 10.2825L56.4632 7.06337C55.8693 6.4858 56.1981 5.47567 57.017 5.3569L61.5825 4.69432L63.624 0.556327C63.8078 0.185032 64.1641 0 64.5204 0L64.5378 0.001259C64.8879 0.00625961 65.2367 0.191282 65.418 0.556327L67.4582 4.69432L72.025 5.3569C72.8438 5.47567 73.1714 6.4858 72.5775 7.06337L69.2746 10.2825L70.056 14.8306C70.196 15.6457 69.3372 16.2682 68.6058 15.8832L64.5204 13.7392L60.4361 15.8832Z" fill="#EEEEEE"/>
<path d="M79.156 15.8832C78.4246 16.2682 77.5645 15.6457 77.7058 14.8306L78.4872 10.2825L75.183 7.06337C74.5892 6.4858 74.918 5.47567 75.7368 5.3569L80.3024 4.69432L82.3438 0.556327C82.5276 0.185032 82.8839 0 83.2402 0L83.2577 0.001259C83.6077 0.00625961 83.9565 0.191282 84.1378 0.556327L86.178 4.69432L90.7448 5.3569C91.5637 5.47567 91.8912 6.4858 91.2974 7.06337L87.9945 10.2825L88.7758 14.8306C88.9159 15.6457 88.057 16.2682 87.3257 15.8832L83.2402 13.7392L79.156 15.8832Z" fill="#EEEEEE"/>
</svg>
