<svg width="9" height="10" viewBox="0 0 9 10" fill="none" xmlns="http://www.w3.org/2000/svg">
<path d="M2.98857 2.94507H0.828815L0.611328 0.711914M0.828895 2.91451C1.24199 2.21819 1.85232 1.66002 2.58268 1.31063C3.31305 0.961231 4.13063 0.8363 4.93201 0.951639C5.73339 1.06698 6.48255 1.4174 7.08474 1.95859C7.68692 2.49977 8.11508 3.20739 8.31503 3.99195C8.51499 4.77651 8.47776 5.60274 8.20806 6.36614C7.93837 7.12953 7.44832 7.79579 6.7999 8.28063C6.15149 8.76547 5.37385 9.0471 4.56534 9.08991C3.75684 9.13271 3.06668 9.01154 2.37069 8.59788C2.02647 8.39329 1.06854 7.74954 0.828895 7.24974" stroke="#214766" stroke-linecap="round" stroke-linejoin="round"/>
</svg>
