<svg width="54" height="53" viewBox="0 0 54 53" fill="none" xmlns="http://www.w3.org/2000/svg">
<path d="M27.0024 31.5411C33.1155 31.5411 38.0712 26.6736 38.0712 20.6693C38.0712 14.665 33.1155 9.79761 27.0024 9.79761C20.8893 9.79761 15.9336 14.665 15.9336 20.6693C15.9336 26.6736 20.8893 31.5411 27.0024 31.5411Z" stroke="#3879AD" stroke-width="1.89527" stroke-miterlimit="1.5" stroke-linecap="round" stroke-linejoin="round"/>
<path fill-rule="evenodd" clip-rule="evenodd" d="M23.262 6.36582C24.1801 5.56193 25.5927 4.98315 27.1156 4.98315C28.6406 4.98315 30.0511 5.56193 30.9713 6.36582C32.1767 6.12098 33.693 6.31299 35.0129 7.06129C36.3327 7.80958 37.2615 9.00427 37.646 10.1519C38.8146 10.5316 40.0307 11.4431 40.7932 12.7392C41.5557 14.0353 41.7502 15.5257 41.5017 16.7094C42.3204 17.6119 42.9101 18.9988 42.9101 20.4952C42.9101 21.9918 42.3204 23.3787 41.5017 24.2812C41.7502 25.4649 41.5557 26.9553 40.7932 28.2514C40.0307 29.5473 38.8146 30.459 37.646 30.8388C37.2615 31.9863 36.3327 33.181 35.0129 33.9293C33.693 34.6774 32.1767 34.8696 30.9713 34.6248C30.0511 35.4287 28.6406 36.0075 27.1156 36.0075C25.5927 36.0075 24.1801 35.4287 23.262 34.6248C22.0567 34.8696 20.5381 34.6774 19.2205 33.9293C17.9007 33.181 16.9719 31.9863 16.5852 30.8388C15.4166 30.459 14.2005 29.5473 13.4379 28.2514C12.6776 26.9553 12.4811 25.4649 12.7316 24.2812C11.9129 23.3787 11.3232 21.9918 11.3232 20.4952C11.3232 18.9988 11.9129 17.6119 12.7316 16.7094C12.4811 15.5257 12.6776 14.0353 13.4379 12.7392C14.2005 11.4431 15.4166 10.5316 16.5852 10.1519C16.9719 9.00427 17.9007 7.80958 19.2205 7.06129C20.5381 6.31299 22.0567 6.12098 23.262 6.36582Z" stroke="#3879AD" stroke-width="1.89527" stroke-miterlimit="1.5" stroke-linecap="round" stroke-linejoin="round"/>
<path d="M18.9515 34.269L14.3359 48.9657L20.1249 47.796L24.4482 51.5405L28.7417 35.7873" stroke="#3879AD" stroke-width="1.89527" stroke-miterlimit="1.5" stroke-linecap="round" stroke-linejoin="round"/>
<path d="M34.9997 34.269L39.6152 48.9657L33.8263 47.796L29.5029 51.5405L27.0042 42.1754" stroke="#3879AD" stroke-width="1.89527" stroke-miterlimit="1.5" stroke-linecap="round" stroke-linejoin="round"/>
<path d="M24.5227 17.2209L27.1162 14.9043V25.6593H24.1494H30.3961" stroke="#3879AD" stroke-width="1.89527" stroke-miterlimit="1.5" stroke-linecap="round" stroke-linejoin="round"/>
<path fill-rule="evenodd" clip-rule="evenodd" d="M53.0009 35.3028C51.5269 35.3087 49.7064 34.2981 48.3356 32.8857C47.1543 31.6689 46.3076 30.1517 46.3076 28.7288C46.3076 31.8032 42.2312 35.3028 39.6144 35.3028C42.2312 35.3028 46.3076 38.9391 46.3076 41.8769C46.3076 38.9391 50.2593 35.3028 53.0009 35.3028Z" stroke="#3879AD" stroke-width="1.89527" stroke-miterlimit="1.5" stroke-linecap="round" stroke-linejoin="round"/>
<path fill-rule="evenodd" clip-rule="evenodd" d="M15.5912 5.58711C13.6774 5.59451 10.9209 3.1452 10.9209 1C10.9209 3.1452 8.07657 5.58711 6.25064 5.58711C8.07657 5.58711 10.9209 8.12436 10.9209 10.1742C10.9209 8.12436 13.6782 5.58711 15.5912 5.58711Z" stroke="#3879AD" stroke-width="1.89527" stroke-miterlimit="1.5" stroke-linecap="round" stroke-linejoin="round"/>
</svg>
