<svg width="16" height="17" viewBox="0 0 16 17" fill="none" xmlns="http://www.w3.org/2000/svg">
<path d="M6.80281 1.57167L7.59558 0.758301C7.93126 0.4139 8.47405 0.4139 8.80616 0.758301L15.7482 7.87715C16.0839 8.22155 16.0839 8.77845 15.7482 9.11919L8.80616 16.2417C8.47048 16.5861 7.92769 16.5861 7.59558 16.2417L6.80281 15.4283C6.46356 15.0803 6.47071 14.5124 6.8171 14.1716L11.1202 9.96554H0.857047C0.3821 9.96554 0 9.57351 0 9.08622V7.91379C0 7.4265 0.3821 7.03446 0.857047 7.03446H11.1202L6.8171 2.82837C6.46714 2.48763 6.45999 1.91974 6.80281 1.57167Z" fill="#214766"/>
</svg>
