<svg width="23" height="22" viewBox="0 0 23 22" fill="none" xmlns="http://www.w3.org/2000/svg">
<path id="Vector" d="M10.8895 18.6606C11.2283 18.4548 11.6536 18.4548 11.9924 18.6606L17.039 21.7275C17.8423 22.2157 18.837 21.4962 18.6248 20.5804L17.2805 14.778C17.1919 14.3959 17.3213 13.996 17.6169 13.7382L22.1003 9.82751C22.8066 9.21142 22.4266 8.04913 21.4927 7.96936L15.6056 7.46646C15.2124 7.43288 14.8704 7.18409 14.7173 6.82045L12.4196 1.36201C12.0549 0.495527 10.8271 0.495527 10.4623 1.36201L8.16463 6.82045C8.01156 7.18409 7.66948 7.43288 7.27636 7.46646L1.38919 7.96936C0.455335 8.04913 0.07528 9.21142 0.7816 9.82751L5.26501 13.7382C5.56064 13.996 5.69001 14.3959 5.60146 14.778L4.25708 20.5804C4.0449 21.4962 5.03961 22.2157 5.84293 21.7275L10.8895 18.6606Z" fill="#FFA65F"/>
</svg>
