<svg width="64" height="64" viewBox="0 0 64 64" fill="none" xmlns="http://www.w3.org/2000/svg">
<path d="M32 45C37.5228 45 42 40.5228 42 35C42 29.4772 37.5228 25 32 25C26.4772 25 22 29.4772 22 35C22 40.5228 26.4772 45 32 45Z" stroke="#214766" stroke-width="3" stroke-linecap="round" stroke-linejoin="round"/>
<path d="M49 29C51.3294 28.9961 53.6274 29.5366 55.7109 30.5783C57.7943 31.62 59.6055 33.1342 61 35" stroke="#214766" stroke-width="3" stroke-linecap="round" stroke-linejoin="round"/>
<path d="M3 35C4.3945 33.1342 6.2057 31.62 8.28915 30.5783C10.3726 29.5366 12.6706 28.9961 15 29" stroke="#214766" stroke-width="3" stroke-linecap="round" stroke-linejoin="round"/>
<path d="M17.5996 53.9995C18.9167 51.3022 20.9648 49.029 23.5107 47.439C26.0566 45.8489 28.998 45.0059 31.9996 45.0059C35.0013 45.0059 37.9426 45.8489 40.4885 47.439C43.0344 49.029 45.0826 51.3022 46.3996 53.9995" stroke="#214766" stroke-width="3" stroke-linecap="round" stroke-linejoin="round"/>
<path d="M15.0003 29C13.4819 29.0015 11.9944 28.5709 10.7117 27.7585C9.42892 26.9461 8.40386 25.7853 7.75627 24.412C7.10868 23.0386 6.86531 21.5093 7.0546 20.0027C7.24388 18.4962 7.85799 17.0746 8.82519 15.9041C9.79239 14.7336 11.0727 13.8625 12.5166 13.3927C13.9604 12.9228 15.5082 12.8735 16.979 13.2506C18.4499 13.6278 19.783 14.4156 20.8227 15.5223C21.8623 16.6289 22.5656 18.0085 22.8503 19.5" stroke="#214766" stroke-width="3" stroke-linecap="round" stroke-linejoin="round"/>
<path d="M41.1504 19.5C41.4351 18.0085 42.1384 16.6289 43.178 15.5223C44.2177 14.4156 45.5508 13.6278 47.0217 13.2506C48.4925 12.8735 50.0402 12.9228 51.4841 13.3927C52.928 13.8625 54.2083 14.7336 55.1755 15.9041C56.1427 17.0746 56.7568 18.4962 56.9461 20.0027C57.1354 21.5093 56.892 23.0386 56.2444 24.412C55.5968 25.7853 54.5718 26.9461 53.289 27.7585C52.0063 28.5709 50.5188 29.0015 49.0004 29" stroke="#214766" stroke-width="3" stroke-linecap="round" stroke-linejoin="round"/>
</svg>
