<svg width="64" height="64" viewBox="0 0 64 64" fill="none" xmlns="http://www.w3.org/2000/svg">
<path d="M12.9494 30.4746C12.6539 29.9624 12.2604 29.5135 11.7915 29.1534C11.3225 28.7933 10.7872 28.5291 10.2161 28.3759C9.64502 28.2226 9.04935 28.1834 8.46311 28.2604C7.87687 28.3374 7.31153 28.5291 6.79937 28.8246C6.28722 29.12 5.83828 29.5135 5.47818 29.9825C5.11808 30.4514 4.85388 30.9868 4.70067 31.5578C4.54745 32.1289 4.50822 32.7246 4.58521 33.3108C4.6622 33.8971 4.8539 34.4624 5.14937 34.9746L14.3994 50.9996C16.8108 55.0849 20.7375 58.0532 25.3257 59.2589C29.9139 60.4646 34.7926 59.8103 38.9009 57.4382C43.0092 55.0661 46.015 51.168 47.2647 46.5916C48.5144 42.0152 47.9069 37.1305 45.5744 32.9996L41.3244 25.6246C40.691 24.6693 39.717 23.9918 38.6012 23.7302C37.4853 23.4685 36.3117 23.6425 35.3197 24.2166C34.3278 24.7908 33.5923 25.7217 33.2633 26.8196C32.9343 27.9175 33.0366 29.0995 33.5494 30.1246" stroke="#214766" stroke-width="3" stroke-linecap="round" stroke-linejoin="round"/>
<path d="M26.7502 36.3744L17.2502 19.9244C16.9547 19.4122 16.5612 18.9633 16.0922 18.6032C15.6233 18.2431 15.088 17.9789 14.5169 17.8257C13.9458 17.6725 13.3501 17.6332 12.7639 17.7102C12.1776 17.7872 11.6123 17.9789 11.1002 18.2744C10.588 18.5698 10.1391 18.9633 9.77896 19.4323C9.41886 19.9013 9.15467 20.4366 9.00145 21.0076C8.84823 21.5787 8.809 22.1744 8.88599 22.7606C8.96298 23.3469 9.15468 23.9122 9.45016 24.4244L18.9502 40.8744" stroke="#214766" stroke-width="3" stroke-linecap="round" stroke-linejoin="round"/>
<path d="M37.5509 37.0756L27.0509 18.8756C26.4542 17.8412 25.471 17.0863 24.3177 16.7769C23.1643 16.4674 21.9353 16.6288 20.9009 17.2256C19.8666 17.8223 19.1117 18.8055 18.8022 19.9588C18.4928 21.1122 18.6542 22.3412 19.2509 23.3756" stroke="#214766" stroke-width="3" stroke-linecap="round" stroke-linejoin="round"/>
<path d="M24.7509 16.9248L22.1759 12.4498C21.5792 11.4154 20.596 10.6605 19.4427 10.3511C18.2893 10.0416 17.0603 10.203 16.0259 10.7998C14.9916 11.3965 14.2367 12.3797 13.9272 13.533C13.6178 14.6864 13.7792 15.9154 14.3759 16.9498L14.9759 17.9748" stroke="#214766" stroke-width="3" stroke-linecap="round" stroke-linejoin="round"/>
<path d="M47.0005 47.8744C50.0518 45.1114 52.0654 41.3874 52.7067 37.3214C53.348 33.2553 52.5783 29.0923 50.5255 25.5244L46.2755 18.1744C45.9801 17.6622 45.5866 17.2133 45.1176 16.8532C44.6487 16.4931 44.1134 16.2289 43.5423 16.0757C42.9712 15.9225 42.3755 15.8832 41.7893 15.9602C41.203 16.0372 40.6377 16.2289 40.1255 16.5244C39.6134 16.8198 39.1644 17.2133 38.8044 17.6823C38.4443 18.1513 38.1801 18.6866 38.0268 19.2576C37.8736 19.8287 37.8344 20.4244 37.9114 21.0106C37.9884 21.5969 38.1801 22.1622 38.4755 22.6744" stroke="#214766" stroke-width="3" stroke-linecap="round" stroke-linejoin="round"/>
<path d="M39.0498 23.6744L31.9748 11.4244C31.378 10.39 30.3949 9.63511 29.2415 9.32568C28.0882 9.01624 26.8591 9.17765 25.8248 9.77439C24.7904 10.3711 24.0355 11.3543 23.7261 12.5077C23.4166 13.661 23.578 14.89 24.1748 15.9244" stroke="#214766" stroke-width="3" stroke-linecap="round" stroke-linejoin="round"/>
<path d="M44.2008 2.82422L43.1758 6.67422" stroke="#214766" stroke-width="3" stroke-linecap="round" stroke-linejoin="round"/>
<path d="M51.7746 6.34961L49.4746 9.62461" stroke="#214766" stroke-width="3" stroke-linecap="round" stroke-linejoin="round"/>
<path d="M57.65 12.2246L54.375 14.5246" stroke="#214766" stroke-width="3" stroke-linecap="round" stroke-linejoin="round"/>
</svg>
