<svg width="29" height="34" viewBox="0 0 29 34" fill="none" xmlns="http://www.w3.org/2000/svg">
<path d="M9.34632 6.53545L9.14912 8.5075C9.06439 9.3548 8.18845 10 7.33691 10L7.33692 7.11339C7.33692 -0.999948 21.6654 -0.877497 21.6654 7.11339V10C20.8139 10 19.9353 9.3548 19.8506 8.5075L19.6534 6.53545C19.5607 5.60856 18.9118 4.83205 18.0162 4.57614L17.0557 4.30172C16.4593 4.13133 15.8321 4.44748 15.6143 5.02823C15.2281 6.05797 13.7716 6.05797 13.3854 5.02823C13.1676 4.44748 12.5404 4.13133 11.944 4.30172L10.9835 4.57614C10.0879 4.83205 9.43901 5.60856 9.34632 6.53545Z" fill="#3879AD" stroke="#214766" stroke-width="1.22274" stroke-linecap="round" stroke-linejoin="round"/>
<path d="M7.33705 13.4258C7.33706 19.9258 21.6655 19.9258 21.6655 13.4479C22.4062 13.4357 23.0001 12.8318 23.0001 12.091V11.2604C23.0001 10.5233 22.4026 9.92582 21.6655 9.92582V7.03917C21.6655 -0.951715 7.33705 -1.07417 7.33705 7.03917L7.33705 9.92582C6.59862 9.92582 6.00001 10.5244 6.00002 11.2629L6.00004 12.0888C6.00005 12.8272 6.59865 13.4258 7.33705 13.4258Z" stroke="#214766" stroke-width="1.22274" stroke-linecap="round" stroke-linejoin="round"/>
<path d="M10.6445 19.9998V17.7461" stroke="#214766" stroke-width="1.22274" stroke-linecap="round"/>
<path d="M18.3594 19.9999V18.1308" stroke="#214766" stroke-width="1.22274" stroke-linecap="round"/>
<path fill-rule="evenodd" clip-rule="evenodd" d="M10.7786 20.2406C10.2767 19.9155 9.60582 19.9074 9.18044 20.293C9.16405 20.3078 9.14775 20.3228 9.13144 20.3379C9.05477 20.4085 8.97794 20.4792 8.89019 20.5351L5.72144 22.5536C1.21183 23.8675 1 26.1915 1 30.5402C7.78343 34.0475 10.7755 33.6903 14.4445 32.5C14.8662 32.3632 15.2981 32.2141 15.7443 32.0601C18.7633 31.018 22.4343 29.7508 28.0037 30.5402C28.0037 26.2626 27.7987 23.8792 23.5 22.6173L20.1224 20.5372C20.03 20.4803 19.9492 20.407 19.8687 20.334L19.8685 20.3338C19.8513 20.3182 19.8341 20.3026 19.8168 20.2872C19.3911 19.9075 18.7245 19.9171 18.2251 20.2406C17.962 20.411 17.6152 20.5362 17.2277 20.6761C16.6914 20.8698 16.0774 21.0915 15.5 21.5L14.5 23.5L13.5 21.5C12.9372 21.0772 12.2999 20.8517 11.7473 20.6562C11.367 20.5217 11.0268 20.4013 10.7786 20.2406ZM20.7322 26.9999C18.6488 30.6084 15.8792 27.4056 15.8792 27.4056L18.657 22.5943C18.657 22.5943 22.8155 23.3915 20.7322 26.9999ZM13.1208 27.4056C13.1208 27.4056 10.3512 30.6084 8.26783 26.9999C6.18449 23.3915 10.343 22.5943 10.343 22.5943L13.1208 27.4056Z" fill="#3879AD"/>
<path d="M9.18044 20.293L9.59103 20.7459L9.59103 20.7459L9.18044 20.293ZM10.7786 20.2406L10.4462 20.7537V20.7537L10.7786 20.2406ZM9.13144 20.3379L9.54563 20.7875L9.54563 20.7875L9.13144 20.3379ZM8.89019 20.5351L9.21865 21.0508V21.0508L8.89019 20.5351ZM5.72144 22.5536L5.89245 23.1406L5.97627 23.1162L6.0499 23.0693L5.72144 22.5536ZM1 30.5402H0.388628V30.9124L0.719211 31.0833L1 30.5402ZM14.4445 32.5L14.6332 33.0815H14.6332L14.4445 32.5ZM15.7443 32.0601L15.5448 31.4822L15.7443 32.0601ZM28.0037 30.5402L27.9179 31.1456L28.6151 31.2444V30.5402H28.0037ZM23.5 22.6173L23.1794 23.1379L23.2492 23.1808L23.3278 23.2039L23.5 22.6173ZM20.1224 20.5372L19.8018 21.0578L19.8018 21.0578L20.1224 20.5372ZM19.8687 20.334L20.2795 19.8812L20.2765 19.8785L19.8687 20.334ZM19.8685 20.3338L19.4577 20.7866L19.4607 20.7893L19.8685 20.3338ZM19.8168 20.2872L20.2238 19.8309L20.2238 19.8309L19.8168 20.2872ZM18.2251 20.2406L18.5575 20.7537V20.7537L18.2251 20.2406ZM17.2277 20.6761L17.0201 20.1011V20.1011L17.2277 20.6761ZM15.5 21.5L15.1469 21.0009L15.0217 21.0894L14.9532 21.2266L15.5 21.5ZM14.5 23.5L13.9532 23.7734L14.5 24.8671L15.0468 23.7734L14.5 23.5ZM13.5 21.5L14.0468 21.2266L13.9824 21.0977L13.8672 21.0112L13.5 21.5ZM11.7473 20.6562L11.9512 20.0799V20.0799L11.7473 20.6562ZM15.8792 27.4056L15.3497 27.0999L15.1323 27.4765L15.4167 27.8055L15.8792 27.4056ZM20.7322 26.9999L21.2616 27.3056V27.3056L20.7322 26.9999ZM18.657 22.5943L18.7721 21.9939L18.3449 21.912L18.1275 22.2886L18.657 22.5943ZM8.26783 26.9999L8.7973 26.6942H8.7973L8.26783 26.9999ZM13.1208 27.4056L13.5833 27.8055L13.8677 27.4765L13.6503 27.0999L13.1208 27.4056ZM10.343 22.5943L10.8725 22.2886L10.6551 21.912L10.2279 21.9939L10.343 22.5943ZM9.59103 20.7459C9.76625 20.5871 10.122 20.5437 10.4462 20.7537L11.1109 19.7274C10.4313 19.2872 9.44538 19.2277 8.76985 19.84L9.59103 20.7459ZM9.54563 20.7875C9.56223 20.7723 9.57674 20.7589 9.59103 20.7459L8.76986 19.84C8.75135 19.8568 8.73326 19.8734 8.71724 19.8882L9.54563 20.7875ZM9.21865 21.0508C9.35988 20.9608 9.47586 20.8518 9.54563 20.7875L8.71724 19.8882C8.63368 19.9651 8.59601 19.9977 8.56173 20.0195L9.21865 21.0508ZM6.0499 23.0693L9.21865 21.0508L8.56173 20.0195L5.39298 22.038L6.0499 23.0693ZM1.61137 30.5402C1.61137 28.3341 1.67516 26.8138 2.22111 25.6727C2.73455 24.5996 3.72972 23.7707 5.89245 23.1406L5.55042 21.9666C3.20354 22.6504 1.838 23.6404 1.11812 25.145C0.430754 26.5816 0.388628 28.3977 0.388628 30.5402H1.61137ZM14.2558 31.9185C12.4547 32.5028 10.8826 32.8617 8.94947 32.6732C7.00304 32.4834 4.63775 31.7328 1.28079 29.9972L0.719211 31.0833C4.14568 32.8549 6.66812 33.6793 8.83082 33.8902C11.0068 34.1024 12.7652 33.6875 14.6332 33.0815L14.2558 31.9185ZM15.5448 31.4822C15.0976 31.6365 14.6711 31.7837 14.2558 31.9185L14.6332 33.0815C15.0612 32.9426 15.4987 32.7916 15.9438 32.638L15.5448 31.4822ZM28.0895 29.9349C22.3703 29.1243 18.5842 30.433 15.5448 31.4822L15.9438 32.638C18.9423 31.6029 22.4983 30.3774 27.9179 31.1456L28.0895 29.9349ZM23.3278 23.2039C25.3722 23.804 26.3171 24.6278 26.8078 25.7019C27.3311 26.8474 27.3923 28.3714 27.3923 30.5402H28.6151C28.6151 28.4315 28.5738 26.6249 27.92 25.1938C27.2335 23.6913 25.9265 22.6924 23.6722 22.0307L23.3278 23.2039ZM19.8018 21.0578L23.1794 23.1379L23.8206 22.0967L20.443 20.0166L19.8018 21.0578ZM19.4579 20.7868C19.5312 20.8532 19.653 20.9662 19.8018 21.0578L20.443 20.0166C20.4069 19.9944 20.3673 19.9608 20.2795 19.8812L19.4579 20.7868ZM19.4607 20.7893L19.4609 20.7895L20.2765 19.8785L20.2763 19.8783L19.4607 20.7893ZM19.4099 20.7434C19.4249 20.7569 19.4402 20.7707 19.4577 20.7866L20.2793 19.881C20.2624 19.8657 20.2433 19.8484 20.2238 19.8309L19.4099 20.7434ZM18.5575 20.7537C18.8797 20.545 19.234 20.5866 19.4099 20.7434L20.2238 19.8309C19.5482 19.2284 18.5692 19.2892 17.8927 19.7274L18.5575 20.7537ZM17.4354 21.2512C17.8018 21.1188 18.2232 20.9702 18.5575 20.7537L17.8927 19.7274C17.7009 19.8517 17.4286 19.9536 17.0201 20.1011L17.4354 21.2512ZM15.8531 21.9991C16.3538 21.6449 16.8928 21.4471 17.4354 21.2512L17.0201 20.1011C16.4901 20.2925 15.8009 20.5382 15.1469 21.0009L15.8531 21.9991ZM15.0468 23.7734L16.0468 21.7734L14.9532 21.2266L13.9532 23.2266L15.0468 23.7734ZM12.9532 21.7734L13.9532 23.7734L15.0468 23.2266L14.0468 21.2266L12.9532 21.7734ZM11.5434 21.2326C12.1059 21.4316 12.6558 21.6304 13.1328 21.9888L13.8672 21.0112C13.2186 20.5239 12.4939 20.2718 11.9512 20.0799L11.5434 21.2326ZM10.4462 20.7537C10.7681 20.9622 11.1866 21.1063 11.5434 21.2326L11.9512 20.0799C11.5474 19.937 11.2854 19.8404 11.1109 19.7274L10.4462 20.7537ZM15.8792 27.4056C15.4167 27.8055 15.4169 27.8057 15.4171 27.8059C15.4172 27.806 15.4174 27.8062 15.4176 27.8064C15.4179 27.8068 15.4183 27.8072 15.4187 27.8077C15.4195 27.8087 15.4205 27.8098 15.4217 27.8112C15.4241 27.8138 15.4271 27.8173 15.4308 27.8215C15.4382 27.8298 15.4484 27.841 15.4611 27.8548C15.4865 27.8824 15.5224 27.9205 15.568 27.9665C15.6589 28.0582 15.7894 28.1826 15.9527 28.319C16.2746 28.5876 16.7472 28.9219 17.3138 29.1299C17.8869 29.3402 18.5842 29.43 19.3096 29.1581C20.0326 28.8871 20.693 28.2904 21.2616 27.3056L20.2027 26.6942C19.7296 27.5136 19.2627 27.8698 18.8804 28.0132C18.5005 28.1556 18.1148 28.1213 17.735 27.982C17.3488 27.8402 16.9988 27.5994 16.7362 27.3802C16.6074 27.2727 16.5052 27.1751 16.4365 27.1058C16.4023 27.0712 16.3767 27.044 16.3605 27.0265C16.3524 27.0177 16.3467 27.0114 16.3436 27.0078C16.342 27.006 16.341 27.0049 16.3407 27.0046C16.3405 27.0044 16.3405 27.0044 16.3407 27.0045C16.3407 27.0046 16.3409 27.0048 16.341 27.005C16.3411 27.005 16.3413 27.0052 16.3413 27.0053C16.3415 27.0055 16.3416 27.0057 15.8792 27.4056ZM18.1275 22.2886L15.3497 27.0999L16.4086 27.7112L19.1864 22.9L18.1275 22.2886ZM21.2616 27.3056C21.8302 26.3208 22.0167 25.4505 21.8899 24.6889C21.7627 23.9247 21.3362 23.3657 20.8676 22.9746C20.4042 22.5878 19.8784 22.3457 19.4848 22.2013C19.285 22.128 19.112 22.0772 18.9871 22.0444C18.9245 22.0279 18.8736 22.0158 18.837 22.0076C18.8187 22.0035 18.8039 22.0003 18.793 21.9981C18.7875 21.9969 18.783 21.996 18.7795 21.9953C18.7777 21.995 18.7763 21.9947 18.775 21.9944C18.7744 21.9943 18.7738 21.9942 18.7733 21.9941C18.7731 21.9941 18.7728 21.994 18.7726 21.994C18.7723 21.9939 18.7721 21.9939 18.657 22.5943C18.5419 23.1948 18.5416 23.1947 18.5414 23.1947C18.5413 23.1946 18.5411 23.1946 18.5409 23.1946C18.5407 23.1945 18.5405 23.1945 18.5404 23.1945C18.5402 23.1944 18.5402 23.1944 18.5404 23.1945C18.5409 23.1946 18.5423 23.1949 18.5447 23.1953C18.5494 23.1963 18.5577 23.1981 18.5693 23.2007C18.5926 23.2059 18.629 23.2145 18.676 23.2269C18.7704 23.2517 18.906 23.2914 19.0636 23.3492C19.3846 23.467 19.7682 23.6497 20.0841 23.9133C20.3946 24.1725 20.6171 24.4894 20.6838 24.8896C20.7508 25.2923 20.6758 25.8748 20.2027 26.6942L21.2616 27.3056ZM7.73837 27.3056C8.30696 28.2904 8.96745 28.8871 9.69041 29.1581C10.4158 29.43 11.1131 29.3402 11.6862 29.1299C12.2528 28.9219 12.7254 28.5876 13.0473 28.319C13.2106 28.1826 13.3411 28.0582 13.432 27.9665C13.4776 27.9205 13.5135 27.8824 13.5389 27.8548C13.5516 27.841 13.5618 27.8298 13.5692 27.8215C13.5729 27.8173 13.5759 27.8138 13.5783 27.8112C13.5795 27.8098 13.5805 27.8087 13.5813 27.8077C13.5817 27.8072 13.5821 27.8068 13.5824 27.8064C13.5826 27.8062 13.5828 27.806 13.5829 27.8059C13.5831 27.8057 13.5833 27.8055 13.1208 27.4056C12.6584 27.0057 12.6585 27.0055 12.6587 27.0053C12.6587 27.0052 12.6589 27.005 12.659 27.005C12.6591 27.0048 12.6593 27.0046 12.6593 27.0045C12.6595 27.0044 12.6595 27.0044 12.6593 27.0046C12.659 27.0049 12.658 27.006 12.6564 27.0078C12.6533 27.0114 12.6476 27.0177 12.6395 27.0265C12.6233 27.044 12.5977 27.0712 12.5635 27.1058C12.4948 27.1751 12.3926 27.2727 12.2638 27.3802C12.0012 27.5994 11.6512 27.8402 11.265 27.982C10.8852 28.1213 10.4995 28.1556 10.1196 28.0132C9.73735 27.8698 9.27038 27.5136 8.7973 26.6942L7.73837 27.3056ZM10.343 22.5943C10.2279 21.9939 10.2277 21.9939 10.2274 21.994C10.2272 21.994 10.2269 21.9941 10.2267 21.9941C10.2262 21.9942 10.2256 21.9943 10.225 21.9944C10.2238 21.9947 10.2223 21.995 10.2205 21.9953C10.217 21.996 10.2125 21.9969 10.207 21.9981C10.1961 22.0003 10.1813 22.0035 10.163 22.0076C10.1264 22.0158 10.0755 22.0279 10.0129 22.0444C9.88802 22.0772 9.71497 22.128 9.51521 22.2013C9.12161 22.3457 8.59581 22.5878 8.13244 22.9746C7.66378 23.3657 7.23728 23.9247 7.1101 24.6889C6.98334 25.4505 7.16978 26.3208 7.73837 27.3056L8.7973 26.6942C8.32421 25.8748 8.24922 25.2923 8.31625 24.8896C8.38285 24.4894 8.60537 24.1725 8.91593 23.9133C9.23178 23.6497 9.61541 23.467 9.93644 23.3492C10.094 23.2914 10.2296 23.2517 10.324 23.2269C10.371 23.2145 10.4074 23.2059 10.4307 23.2007C10.4423 23.1981 10.4506 23.1963 10.4553 23.1953C10.4577 23.1949 10.4591 23.1946 10.4596 23.1945C10.4598 23.1944 10.4598 23.1944 10.4596 23.1945C10.4595 23.1945 10.4593 23.1945 10.4591 23.1946C10.4589 23.1946 10.4587 23.1946 10.4586 23.1947C10.4584 23.1947 10.4581 23.1948 10.343 22.5943ZM13.6503 27.0999L10.8725 22.2886L9.81359 22.9L12.5914 27.7112L13.6503 27.0999Z" fill="#214766"/>
<path d="M13.9512 15.1045C14.5023 15.6556 15.6045 15.6556 16.1556 15.1045" stroke="#214766" stroke-width="1.22274" stroke-linecap="round" stroke-linejoin="round"/>
<path d="M12.2969 10.696V11.2471" stroke="#214766" stroke-width="1.22274" stroke-linecap="round" stroke-linejoin="round"/>
<path d="M17.2578 11.2471V10.696" stroke="#214766" stroke-width="1.22274" stroke-linecap="round" stroke-linejoin="round"/>
<path d="M24.5 30.5L25 23L22.5 22L21.5 30.5H24.5Z" fill="#214766"/>
<path d="M4.5 32L4 23L6.5 22L7.5 33L4.5 32Z" fill="#214766"/>
<path d="M20.7317 27.0004C18.6483 30.6089 15.8787 27.406 15.8787 27.406L18.6565 22.5948C18.6565 22.5948 22.815 23.392 20.7317 27.0004Z" stroke="#214766" stroke-width="1.22"/>
<path d="M18.7676 22.4023L15.7676 27.5985" stroke="#214766" stroke-width="2.5" stroke-linecap="round" stroke-linejoin="round"/>
<path d="M8.26832 27.0004C10.3517 30.6089 13.1213 27.406 13.1213 27.406L10.3435 22.5948C10.3435 22.5948 6.18498 23.392 8.26832 27.0004Z" stroke="#214766" stroke-width="1.22"/>
<path d="M10.2324 22.4023L13.2324 27.5985" stroke="#214766" stroke-width="2.5" stroke-linecap="round" stroke-linejoin="round"/>
<path d="M9 23C7.99323 21.3194 8 18.5 11 18.5" stroke="#214766" stroke-width="1.22"/>
<path d="M7.07698 20.0257C6.815 20.8116 7.23974 21.6611 8.02566 21.923C8.81157 22.185 9.66105 21.7603 9.92302 20.9743L7.07698 20.0257ZM9.92302 20.9743C10.0264 20.6644 10.1093 20.4953 10.165 20.4035C10.2124 20.3253 10.2389 20.3048 10.2495 20.2963C10.2733 20.2773 10.3252 20.2415 10.485 20.1648C10.5681 20.1249 10.6523 20.0868 10.7745 20.0306C10.8895 19.9777 11.024 19.915 11.1708 19.8416L9.82918 17.1584C9.56436 17.2908 9.48471 17.3172 9.18684 17.4602C8.95603 17.571 8.66416 17.7227 8.37545 17.9537C7.74527 18.4578 7.37226 19.1398 7.07698 20.0257L9.92302 20.9743Z" fill="#214766"/>
<path d="M20 23.5C21.0068 21.8194 21 19 18.5 18.5" stroke="#214766" stroke-width="1.22"/>
<path d="M21.923 20.0257C22.185 20.8116 21.7603 21.6611 20.9743 21.923C20.1884 22.185 19.3389 21.7603 19.077 20.9743L21.923 20.0257ZM19.077 20.9743C18.9736 20.6644 18.8907 20.4953 18.835 20.4035C18.7876 20.3253 18.7611 20.3048 18.7505 20.2963C18.7267 20.2773 18.6748 20.2415 18.515 20.1648C18.4319 20.1249 18.3477 20.0868 18.2255 20.0306C18.1105 19.9777 17.976 19.915 17.8292 19.8416L19.1708 17.1584C19.4356 17.2908 19.5153 17.3172 19.8132 17.4602C20.044 17.571 20.3358 17.7227 20.6245 17.9537C21.2547 18.4578 21.6277 19.1398 21.923 20.0257L19.077 20.9743Z" fill="#214766"/>
<path d="M5.5 6.86621L6.75 9.03127" stroke="#214766" stroke-width="1.22" stroke-linecap="round"/>
<path d="M5.24999 6.43329L5.125 6.2168" stroke="#214766" stroke-width="0.8" stroke-linecap="round"/>
</svg>
