<svg width="39" height="45" viewBox="0 0 39 45" fill="none" xmlns="http://www.w3.org/2000/svg">
<path d="M9.68359 12.3293C9.68359 23.0669 9.68359 16.7761 9.68359 16.7761C9.68352 30.1057 29.3162 30.1057 29.3162 16.7761V13.8518" stroke="white" stroke-width="1.5" stroke-linecap="round"/>
<path d="M14.2148 28.9951V26.033" stroke="white" stroke-width="1.5" stroke-linecap="round"/>
<path d="M24.7852 28.9951V26.033" stroke="white" stroke-width="1.5" stroke-linecap="round"/>
<path d="M1 40.8436C1 34.1788 1.37755 34.5491 10.4388 31.9572M10.4388 31.9572C11.3197 33.1914 14.3653 35.6599 19.5 35.6599C24.6347 35.6599 27.6803 33.1914 28.5612 31.9572M10.4388 31.9572L12.0313 29.9491C12.589 29.2459 13.636 29.2066 14.3984 29.6909C15.6111 30.4612 17.1039 30.8464 19.5 30.8464C21.8961 30.8464 23.3889 30.4612 24.6016 29.6909C25.364 29.2066 26.411 29.2459 26.9687 29.9491L28.5612 31.9572M38 40.8436C38 34.1788 37.6224 34.5491 28.5612 31.9572" stroke="white" stroke-width="1.5" stroke-linecap="round"/>
<path d="M29.2128 12.7947V20.1885C29.8271 20.1885 30.3632 20.0686 30.8211 19.8594C33.9596 18.4255 33.4235 12.7947 29.2128 12.7947Z" fill="white"/>
<path d="M30.8211 19.8594C33.9596 18.4255 33.4235 12.7947 29.2128 12.7947V20.1885C29.8271 20.1885 30.3632 20.0686 30.8211 19.8594ZM30.8211 19.8594V22.0917C30.8211 23.3092 29.8342 24.2961 28.6167 24.2961H22.7793" stroke="white" stroke-width="1.5" stroke-linecap="round" stroke-linejoin="round"/>
<path d="M9.64453 12.7947V20.1885C9.03019 20.1885 8.49407 20.0686 8.03616 19.8594C4.89765 18.4255 5.43377 12.7947 9.64453 12.7947Z" fill="white" stroke="white" stroke-width="1.5" stroke-linecap="round" stroke-linejoin="round"/>
<path d="M23.3161 2.33581C23.32 2.10281 23.3069 1.85637 23.2756 1.59528C9.68374 -0.478215 7.04088 8.63036 7.41843 13.4438L9.68374 11.9628C12.9434 7.43396 18.9393 7.31357 21.7654 5.25805M23.3161 2.33581L25.1634 1.96554C27.4287 3.19977 31.8083 7.22335 31.2042 13.4438L29.3165 13.0736C26.9253 11.7638 22.0675 8.36701 21.7654 5.25805M23.3161 2.33581C23.2935 3.67859 22.7044 4.57512 21.7654 5.25805" stroke="white" stroke-width="1.5" stroke-linecap="round" stroke-linejoin="round"/>
<path d="M18.7461 21.5896C19.5012 22.3301 21.0114 22.3301 21.7665 21.5896" stroke="white" stroke-width="1.5" stroke-linecap="round" stroke-linejoin="round"/>
<path d="M16.4785 15.6655V16.406" stroke="white" stroke-width="1.5" stroke-linecap="round" stroke-linejoin="round"/>
<path d="M23.2754 16.406V15.6655" stroke="white" stroke-width="1.5" stroke-linecap="round" stroke-linejoin="round"/>
</svg>
