<svg width="16" height="17" viewBox="0 0 16 17" fill="none" xmlns="http://www.w3.org/2000/svg">
<g id="ThumbsUp">
<path id="Vector" d="M2 7H5V13.5H2C1.86739 13.5 1.74021 13.4473 1.64645 13.3536C1.55268 13.2598 1.5 13.1326 1.5 13V7.5C1.5 7.36739 1.55268 7.24021 1.64645 7.14645C1.74021 7.05268 1.86739 7 2 7V7Z" stroke="#1F6156" stroke-width="1.5" stroke-linecap="round" stroke-linejoin="round"/>
<path id="Vector_2" d="M5 7L7.5 2C8.03043 2 8.53914 2.21071 8.91421 2.58579C9.28929 2.96086 9.5 3.46957 9.5 4V5.5H13.3687C13.5105 5.49965 13.6508 5.52965 13.78 5.58798C13.9092 5.64631 14.0245 5.73162 14.118 5.83818C14.2116 5.94475 14.2812 6.07009 14.3223 6.20581C14.3634 6.34152 14.375 6.48445 14.3562 6.625L13.6062 12.625C13.5759 12.8659 13.459 13.0875 13.2773 13.2485C13.0956 13.4095 12.8615 13.4989 12.6187 13.5H5" stroke="#1F6156" stroke-width="1.5" stroke-linecap="round" stroke-linejoin="round"/>
</g>
</svg>
