<svg width="78" height="99" viewBox="0 0 78 99" fill="none" xmlns="http://www.w3.org/2000/svg">
<g id="Vector 543">
<path d="M37.1368 1.54001C52.2384 2.88337 41.8349 15.2958 46.8684 27.0392C49.2563 32.6102 54.3627 35.3873 57.9245 39.4543C81.4328 43.4805 85.4594 81.3948 57.2374 84.7501C52.0108 93.0491 43.8305 94.1306 39.0803 93.1382C36.1124 95.6655 31.7323 97.3695 25.7272 97.5C5.26256 97.5 3.80392 82.364 6.93748 76.4736C-2.60437 70.0022 0.830185 59.2175 6.93748 57.2371C-5.14113 44.1516 14.3197 33.0567 28.4128 33.0567C21.6746 20.6708 25.2379 0.48154 37.1368 1.54001Z" fill="#DCEFFF"/>
<path d="M58.2771 63.2758C60.4487 58.1867 61.4812 54.1543 61.7049 50.8621M36.1312 40.7957C32.7865 39.159 30.2265 36.3906 28.4128 33.0567M28.4128 33.0567C21.6746 20.6708 25.2379 0.48154 37.1368 1.54001C52.2384 2.88337 41.8349 15.2958 46.8684 27.0392C49.2563 32.6102 54.3627 35.3873 57.9245 39.4542M28.4128 33.0567C14.3197 33.0567 -5.14113 44.1516 6.93748 57.2371M6.93748 57.2371C15.672 66.6996 36.3357 64.5822 42.6684 58.2436M6.93748 57.2371C0.830185 59.2175 -2.60437 70.0022 6.93748 76.4736M17.6739 50.8621C22.0361 46.3425 23.0925 45.9406 25.7272 45.1582M15.9962 42.474C20.6939 40.4615 25.1903 41.5425 25.7272 45.1582M25.7272 45.1582C33.4755 42.8571 39.9124 47.2665 42.166 49.52C45.4167 52.7713 45.0929 55.8168 42.6684 58.2436M42.6684 58.2436C48.8923 59.8482 54.8107 71.9775 43.4365 78.0396M6.93748 76.4736C11.2001 79.3646 18.0523 81.3948 28.4128 81.3948C35.2176 81.089 40.08 79.8285 43.4365 78.0396M6.93748 76.4736C3.80392 82.364 5.26256 97.5 25.7272 97.5C31.7323 97.3695 36.1124 95.6655 39.0803 93.1382M43.4365 78.0396C44.92 83.1651 43.743 89.1677 39.0803 93.1382M39.0803 93.1382C43.8305 94.1306 52.0108 93.0491 57.2374 84.7501M61.9708 67.9738C61.4596 75.4713 59.6678 80.891 57.2374 84.7501M57.9245 39.4542C81.4328 43.4805 85.4595 81.3948 57.2374 84.7501M57.9245 39.4542C60.3524 42.2264 62.0626 45.5979 61.7049 50.8621M61.7049 50.8621C66.5031 53.1734 74.2134 61.5315 66.6685 76.4736" stroke="#3879AD" stroke-width="1.5" stroke-linecap="round" stroke-linejoin="round"/>
</g>
</svg>
