<svg width="32" height="32" viewBox="0 0 32 32" fill="none" xmlns="http://www.w3.org/2000/svg">
<g clip-path="url(#clip0_24369_11160)">
<path d="M11.6463 9H13.5039V18H4.50391V9H6.08486" stroke="#3879AD" stroke-width="1.5" stroke-linecap="round" stroke-linejoin="round"/>
<path d="M13.5039 18V9H22.5039V18H13.5039Z" stroke="#3879AD" stroke-width="1.5" stroke-linejoin="round"/>
<path d="M9.50391 27V18H18.5039V27H9.50391Z" stroke="#3879AD" stroke-width="1.5" stroke-linejoin="round"/>
<path d="M21.7447 27H18.5039V18H27.5039V21.8563" stroke="#3879AD" stroke-width="1.5" stroke-linecap="round" stroke-linejoin="round"/>
<path d="M24.6656 24.3066L25.2656 22.3066L25.8656 24.3066L27.2656 25.3066L25.8656 26.3066L25.2656 28.3066L24.6656 26.3066L23.2656 25.3066L24.6656 24.3066Z" stroke="#3879AD" stroke-width="1.5"/>
<path d="M8.13281 4.66667L8.88281 2L9.63281 4.66667L11.3828 6L9.63281 7.33333L8.88281 10L8.13281 7.33333L6.38281 6L8.13281 4.66667Z" stroke="#3879AD" stroke-width="1.5"/>
<path d="M26.3211 11.7422L26.6211 10.7422L26.9211 11.7422L27.6211 12.2422L26.9211 12.7422L26.6211 13.7422L26.3211 12.7422L25.6211 12.2422L26.3211 11.7422Z" stroke="#3879AD" stroke-width="1.5"/>
</g>
<defs>
<clipPath id="clip0_24369_11160">
<rect width="32" height="32" fill="white"/>
</clipPath>
</defs>
</svg>
