 <svg width="100%" height="100%" viewBox="0 0 54 56" fill="none" xmlns="http://www.w3.org/2000/svg">
      <rect y="7" width="54" height="49" rx="6" fill="#2C5F89" />
      <path d="M0 13C0 9.68629 2.68629 7 6 7H48C51.3137 7 54 9.68629 54 13V23H0V13Z" fill="#3879AD" />
      <path d="M12 2.08496C12 0.980391 12.8954 0.0849609 14 0.0849609H17C18.1046 0.0849609 19 0.980392 19 2.08496V7.08496H12V2.08496Z" fill="#306490" />
      <path d="M19 11C19 12.1046 18.1046 13 17 13L14 13C12.8954 13 12 12.1046 12 11L12 7L19 7L19 11Z" fill="#2C5F89" />
      <path d="M35 2.08496C35 0.980391 35.8954 0.0849609 37 0.0849609H40C41.1046 0.0849609 42 0.980392 42 2.08496V7.08496H35V2.08496Z" fill="#306490" />
      <path d="M42 11C42 12.1046 41.1046 13 40 13L37 13C35.8954 13 35 12.1046 35 11L35 7L42 7L42 11Z" fill="#2C5F89" />
    </svg>