<svg width="33" height="24" viewBox="0 0 33 24" fill="none" xmlns="http://www.w3.org/2000/svg">
<path d="M25.4609 22.4844C26.8977 22.4844 28.0625 21.3196 28.0625 19.8828C28.0625 18.446 26.8977 17.2812 25.4609 17.2812C24.0241 17.2812 22.8594 18.446 22.8594 19.8828C22.8594 21.3196 24.0241 22.4844 25.4609 22.4844Z" stroke="#3879AD" stroke-width="2" stroke-linecap="round" stroke-linejoin="round"/>
<path d="M8.69531 22.4844C10.1321 22.4844 11.2969 21.3196 11.2969 19.8828C11.2969 18.446 10.1321 17.2812 8.69531 17.2812C7.25851 17.2812 6.09375 18.446 6.09375 19.8828C6.09375 21.3196 7.25851 22.4844 8.69531 22.4844Z" stroke="#3879AD" stroke-width="2" stroke-linecap="round" stroke-linejoin="round"/>
<path d="M5.7276 19.5937H2.68758C2.14017 19.5937 1.6945 19.1536 1.68766 18.6063L1.48141 2.10625C1.47444 1.54912 1.92416 1.09375 2.48133 1.09375H20.125C20.6773 1.09375 21.125 1.54147 21.125 2.09375V18.5937C21.125 19.146 20.6773 19.5937 20.125 19.5937H11.9521" stroke="#3879AD" stroke-width="2" stroke-linecap="round" stroke-linejoin="round"/>
<path d="M19.3906 19.5938H22.8594" stroke="#3879AD" stroke-width="2" stroke-linejoin="round"/>
<path d="M28.0625 19.5938C29.1496 19.5938 29.9656 19.5938 30.5321 19.5938C31.0844 19.5938 31.5312 19.146 31.5312 18.5938V14.1415C31.5312 13.7627 31.3172 13.4164 30.9785 13.247L29.5721 12.5439C29.3451 12.4303 29.1697 12.2348 29.0815 11.9967L26.5699 5.21519C26.4246 4.82289 26.0504 4.5625 25.6321 4.5625H21.7031" stroke="#3879AD" stroke-width="2" stroke-linecap="round" stroke-linejoin="round"/>
<path d="M29.2188 12.3672H25.0937C24.8176 12.3672 24.5938 12.1433 24.5938 11.8672V7.95313C24.5938 7.67698 24.8176 7.45312 25.0938 7.45312H27.4844" stroke="#3879AD" stroke-width="2" stroke-linejoin="round"/>
</svg>
