<svg viewBox="0 0 17 17" fill="none"
    xmlns="http://www.w3.org/2000/svg">
    <path d="M11.1641 5.50001L13.4932 5.50001C13.5928 5.49936 13.6903 5.52886 13.7729 5.58463C13.8554 5.64041 13.9192 5.71984 13.9557 5.81251L14.8307 8.00001" stroke-linecap="round" stroke-linejoin="round"/>
    <path d="M11.5859 14C12.4144 14 13.0859 13.3284 13.0859 12.5C13.0859 11.6716 12.4144 11 11.5859 11C10.7575 11 10.0859 11.6716 10.0859 12.5C10.0859 13.3284 10.7575 14 11.5859 14Z" stroke-miterlimit="10"/>
    <path d="M5.41406 14C6.24249 14 6.91406 13.3284 6.91406 12.5C6.91406 11.6716 6.24249 11 5.41406 11C4.58564 11 3.91406 11.6716 3.91406 12.5C3.91406 13.3284 4.58564 14 5.41406 14Z" stroke-miterlimit="10"/>
    <path d="M10.0807 12.5H7.16406" stroke-linecap="round" stroke-linejoin="round"/>
    <path d="M3.83333 12.5H2.93333C2.81841 12.5 2.70819 12.4473 2.62692 12.3536C2.54565 12.2598 2.5 12.1326 2.5 12V5C2.5 4.86739 2.54565 4.74021 2.62692 4.64645C2.70819 4.55268 2.81841 4.5 2.93333 4.5H11.1667V10.8333" stroke-linecap="round" stroke-linejoin="round"/>
    <path d="M11.1641 8H14.8307V12C14.8307 12.1326 14.7781 12.2598 14.6843 12.3536C14.5905 12.4473 14.4633 12.5 14.3307 12.5H13.0807" stroke-linecap="round" stroke-linejoin="round"/>
</svg>
