<svg width="17" height="17" viewBox="0 0 17 17" fill="none" xmlns="http://www.w3.org/2000/svg">
<path d="M16.35 5.46001H12.75V11.54H16.35C16.4561 11.54 16.5578 11.5 16.6328 11.4287C16.7079 11.3574 16.75 11.2608 16.75 11.16V5.84001C16.75 5.73923 16.7079 5.64258 16.6328 5.57131C16.5578 5.50005 16.4561 5.46001 16.35 5.46001ZM15.35 9.83001C15.35 9.93079 15.3079 10.0274 15.2328 10.0987C15.1578 10.17 15.0561 10.21 14.95 10.21H14.55C14.4439 10.21 14.3422 10.17 14.2672 10.0987C14.1921 10.0274 14.15 9.93079 14.15 9.83001V9.45001C14.15 9.34923 14.1921 9.25257 14.2672 9.18131C14.3422 9.11005 14.4439 9.07001 14.55 9.07001H14.95C15.0561 9.07001 15.1578 9.11005 15.2328 9.18131C15.3079 9.25257 15.35 9.34923 15.35 9.45001V9.83001ZM15.35 7.55001C15.35 7.65079 15.3079 7.74745 15.2328 7.81871C15.1578 7.88998 15.0561 7.93001 14.95 7.93001H14.55C14.4439 7.93001 14.3422 7.88998 14.2672 7.81871C14.1921 7.74745 14.15 7.65079 14.15 7.55001V7.17001C14.15 7.06923 14.1921 6.97258 14.2672 6.90131C14.3422 6.83005 14.4439 6.79001 14.55 6.79001H14.95C15.0561 6.79001 15.1578 6.83005 15.2328 6.90131C15.3079 6.97258 15.35 7.06923 15.35 7.17001V7.55001ZM11.55 4.70001H2.35C1.92565 4.70001 1.51869 4.86015 1.21863 5.14521C0.918571 5.43027 0.75 5.81688 0.75 6.22001L0.75 10.78C0.75 11.1831 0.918571 11.5698 1.21863 11.8548C1.51869 12.1399 1.92565 12.3 2.35 12.3H11.55C11.6561 12.3 11.7578 12.26 11.8328 12.1887C11.9079 12.1174 11.95 12.0208 11.95 11.92V5.08001C11.95 4.97923 11.9079 4.88258 11.8328 4.81131C11.7578 4.74005 11.6561 4.70001 11.55 4.70001Z" fill="black"/>
</svg>
