<svg width="17" height="17" viewBox="0 0 17 17" fill="none" xmlns="http://www.w3.org/2000/svg">
<path d="M15.85 5.45995H12.25V11.54H15.85C15.9561 11.54 16.0578 11.4999 16.1328 11.4287C16.2079 11.3574 16.25 11.2607 16.25 11.16V5.83995C16.25 5.73917 16.2079 5.64251 16.1328 5.57125C16.0578 5.49999 15.9561 5.45995 15.85 5.45995ZM14.85 9.82995C14.85 9.93073 14.8079 10.0274 14.7328 10.0987C14.6578 10.1699 14.5561 10.21 14.45 10.21H14.05C13.9439 10.21 13.8422 10.1699 13.7672 10.0987C13.6921 10.0274 13.65 9.93073 13.65 9.82995V9.44995C13.65 9.34917 13.6921 9.25251 13.7672 9.18125C13.8422 9.10999 13.9439 9.06995 14.05 9.06995H14.45C14.5561 9.06995 14.6578 9.10999 14.7328 9.18125C14.8079 9.25251 14.85 9.34917 14.85 9.44995V9.82995ZM14.85 7.54995C14.85 7.65073 14.8079 7.74739 14.7328 7.81865C14.6578 7.88992 14.5561 7.92995 14.45 7.92995H14.05C13.9439 7.92995 13.8422 7.88992 13.7672 7.81865C13.6921 7.74739 13.65 7.65073 13.65 7.54995V7.16995C13.65 7.06917 13.6921 6.97251 13.7672 6.90125C13.8422 6.82999 13.9439 6.78995 14.05 6.78995H14.45C14.5561 6.78995 14.6578 6.82999 14.7328 6.90125C14.8079 6.97251 14.85 7.06917 14.85 7.16995V7.54995ZM11.05 4.69995H1.85C1.42565 4.69995 1.01869 4.86009 0.718629 5.14515C0.418571 5.4302 0.25 5.81682 0.25 6.21995L0.25 10.78C0.25 11.1831 0.418571 11.5697 0.718629 11.8548C1.01869 12.1398 1.42565 12.3 1.85 12.3H11.05C11.1561 12.3 11.2578 12.2599 11.3328 12.1887C11.4079 12.1174 11.45 12.0207 11.45 11.92V5.07995C11.45 4.97917 11.4079 4.88251 11.3328 4.81125C11.2578 4.73999 11.1561 4.69995 11.05 4.69995Z" fill="white"/>
</svg>
