<svg width="24" height="24" viewBox="0 0 24 24" fill="none" xmlns="http://www.w3.org/2000/svg">
<path d="M12 9.75V13.5" stroke="#B34F00" stroke-width="1.5" stroke-linecap="round" stroke-linejoin="round"/>
<path d="M10.7068 3.75024L2.45683 18.0002C2.3254 18.2279 2.25609 18.4861 2.25586 18.7489C2.25563 19.0118 2.32447 19.2701 2.4555 19.498C2.58653 19.7258 2.77513 19.9153 3.00243 20.0473C3.22972 20.1793 3.48772 20.2493 3.75058 20.2502H20.2506C20.5134 20.2493 20.7714 20.1793 20.9987 20.0473C21.226 19.9153 21.4146 19.7258 21.5457 19.498C21.6767 19.2701 21.7455 19.0118 21.7453 18.7489C21.7451 18.4861 21.6758 18.2279 21.5443 18.0002L13.2943 3.75024C13.1639 3.5223 12.9755 3.33287 12.7483 3.20113C12.5212 3.06938 12.2632 3 12.0006 3C11.738 3 11.48 3.06938 11.2528 3.20113C11.0256 3.33287 10.8373 3.5223 10.7068 3.75024V3.75024Z" stroke="#B34F00" stroke-width="1.5" stroke-linecap="round" stroke-linejoin="round"/>
<path d="M12 17.8125C12.5178 17.8125 12.9375 17.3928 12.9375 16.875C12.9375 16.3572 12.5178 15.9375 12 15.9375C11.4822 15.9375 11.0625 16.3572 11.0625 16.875C11.0625 17.3928 11.4822 17.8125 12 17.8125Z" fill="#B34F00"/>
</svg>
