<svg width="32" height="33" viewBox="0 0 32 33" fill="none" xmlns="http://www.w3.org/2000/svg">
<g id="WifiHigh">
<path id="Vector" d="M11.6125 21.1639C12.7926 20.0317 14.3647 19.3995 16 19.3995C17.6354 19.3995 19.2075 20.0317 20.3875 21.1639" stroke="#3879AD" stroke-width="3" stroke-linecap="round" stroke-linejoin="round"/>
<path id="Vector_2" d="M7.375 16.9139C9.68176 14.663 12.777 13.4031 16 13.4031C19.223 13.4031 22.3182 14.663 24.625 16.9139" stroke="#3879AD" stroke-width="3" stroke-linecap="round" stroke-linejoin="round"/>
<path id="Vector_3" d="M3.13745 12.6764C6.56602 9.29765 11.1863 7.40364 16 7.40364C20.8136 7.40364 25.4339 9.29765 28.8624 12.6764" stroke="#3879AD" stroke-width="3" stroke-linecap="round" stroke-linejoin="round"/>
<path id="Vector_4" d="M16.0007 27.6499C17.1053 27.6499 18.0007 26.7545 18.0007 25.6499C18.0007 24.5453 17.1053 23.6499 16.0007 23.6499C14.8962 23.6499 14.0007 24.5453 14.0007 25.6499C14.0007 26.7545 14.8962 27.6499 16.0007 27.6499Z" fill="#3879AD"/>
</g>
</svg>
