<svg width="17" height="16" viewBox="0 0 17 16" fill="none" xmlns="http://www.w3.org/2000/svg">
<path d="M8.14258 5.88022C8.73262 5.31413 9.51865 4.99805 10.3363 4.99805C11.154 4.99805 11.94 5.31413 12.5301 5.88022" stroke="black" stroke-linecap="round" stroke-linejoin="round"/>
<path d="M6.02344 3.75539C7.17682 2.62996 8.72446 2 10.3359 2C11.9474 2 13.4951 2.62996 14.6484 3.75539" stroke="black" stroke-linecap="round" stroke-linejoin="round"/>
<path d="M4.96094 11.749C5.30612 11.749 5.58594 11.4692 5.58594 11.124C5.58594 10.7788 5.30612 10.499 4.96094 10.499C4.61576 10.499 4.33594 10.7788 4.33594 11.124C4.33594 11.4692 4.61576 11.749 4.96094 11.749Z" fill="black"/>
<path d="M6.96094 11.749C7.30612 11.749 7.58594 11.4692 7.58594 11.124C7.58594 10.7788 7.30612 10.499 6.96094 10.499C6.61576 10.499 6.33594 10.7788 6.33594 11.124C6.33594 11.4692 6.61576 11.749 6.96094 11.749Z" fill="black"/>
<rect x="2.83594" y="8.99902" width="11" height="4" rx="0.5" stroke="black" stroke-linejoin="round"/>
<path d="M10.8359 7.49902C10.8359 7.22288 10.6121 6.99902 10.3359 6.99902C10.0598 6.99902 9.83594 7.22288 9.83594 7.49902H10.8359ZM9.83594 7.49902V8.49902H10.8359V7.49902H9.83594Z" fill="black"/>
</svg>
