<svg width="17" height="16" viewBox="0 0 17 16" fill="none" xmlns="http://www.w3.org/2000/svg">
<path d="M6.14258 10.3812C6.73262 9.81511 7.51865 9.49902 8.33633 9.49902C9.15401 9.49902 9.94004 9.81511 10.5301 10.3812" stroke="black" stroke-linecap="round" stroke-linejoin="round"/>
<path d="M4.02344 8.25637C5.17682 7.13094 6.72446 6.50098 8.33594 6.50098C9.94742 6.50098 11.4951 7.13094 12.6484 8.25637" stroke="black" stroke-linecap="round" stroke-linejoin="round"/>
<path d="M1.9043 6.13734C3.61858 4.44798 5.92874 3.50098 8.33555 3.50098C10.7424 3.50098 13.0525 4.44798 14.7668 6.13734" stroke="black" stroke-linecap="round" stroke-linejoin="round"/>
<path d="M8.33594 13.125C8.68112 13.125 8.96094 12.8452 8.96094 12.5C8.96094 12.1548 8.68112 11.875 8.33594 11.875C7.99076 11.875 7.71094 12.1548 7.71094 12.5C7.71094 12.8452 7.99076 13.125 8.33594 13.125Z" fill="black"/>
</svg>
