<svg width="97" height="97" viewBox="0 0 97 97" fill="none" xmlns="http://www.w3.org/2000/svg">
<g id="XCircle">
<path id="Subtract" fill-rule="evenodd" clip-rule="evenodd" d="M48.5 9.5C40.7865 9.5 33.2463 11.7873 26.8328 16.0727C20.4193 20.3581 15.4205 26.449 12.4687 33.5753C9.5169 40.7017 8.74457 48.5433 10.2494 56.1085C11.7542 63.6738 15.4686 70.6229 20.9229 76.0772C26.3771 81.5314 33.3262 85.2458 40.8915 86.7506C48.4568 88.2554 56.2983 87.4831 63.4247 84.5313C70.551 81.5795 76.642 76.5807 80.9273 70.1672C85.2127 63.7537 87.5 56.2135 87.5 48.5C87.4802 38.1626 83.3649 28.2544 76.0553 20.9447C68.7457 13.6351 58.8374 9.51982 48.5 9.5ZM45.1989 31.889C48.4849 31.2343 51.8911 31.5689 54.9869 32.8505C58.0826 34.132 60.7287 36.3029 62.5904 39.0886C64.4521 41.8743 65.4459 45.1495 65.4459 48.5C65.4459 51.8505 64.4521 55.1258 62.5904 57.9114C60.7287 60.6971 58.0826 62.868 54.9869 64.1495C51.8911 65.4311 48.4849 65.7657 45.1989 65.111C41.913 64.4564 38.895 62.8419 36.5268 60.4717C35.5509 59.495 35.5516 57.9121 36.5283 56.9362C37.505 55.9603 39.0879 55.9609 40.0638 56.9377C41.7329 58.6081 43.86 59.746 46.1759 60.2074C48.4918 60.6688 50.8925 60.433 53.0744 59.5298C55.2562 58.6265 57.1212 57.0965 58.4333 55.1331C59.7455 53.1698 60.4459 50.8614 60.4459 48.5C60.4459 46.1386 59.7455 43.8302 58.4333 41.8669C57.1212 39.9036 55.2562 38.3735 53.0744 37.4703C50.8925 36.567 48.4918 36.3312 46.1759 36.7926C43.86 37.254 41.7329 38.3919 40.0638 40.0624L40.0605 40.0657L38.765 41.3574H40.5922C41.9729 41.3574 43.0922 42.4767 43.0922 43.8574C43.0922 45.2381 41.9729 46.3574 40.5922 46.3574H32.7172C31.8475 46.3574 31.0815 45.9133 30.6336 45.2395C30.5967 45.184 30.5623 45.1273 30.5302 45.0696C30.3308 44.7106 30.2172 44.2966 30.2172 43.8568V35.9824C30.2172 34.6017 31.3365 33.4824 32.7172 33.4824C34.0979 33.4824 35.2172 34.6017 35.2172 35.9824V37.8341L36.5268 36.5283L36.5286 36.5266C38.8965 34.1574 41.9138 32.5435 45.1989 31.889Z" fill="#9F9FA1"/>
</g>
</svg>
