<svg xmlns="http://www.w3.org/2000/svg" width="36" height="36" fill="none" viewBox="0 0 36 36"><g fill-rule="evenodd" clip-path="url(#clip0_9473_82235)" clip-rule="evenodd"><path fill="#9EE0D5" d="M19.003 11.557c-5.468 0-10.344 2.532-13.52 6.495a1.95 1.95 0 1 1-3.045-2.44c3.886-4.847 9.863-7.957 16.565-7.957 6.703 0 12.68 3.11 16.566 7.957a1.95 1.95 0 0 1-3.045 2.44c-3.177-3.963-8.052-6.495-13.52-6.495Zm0 8.43a8.878 8.878 0 0 0-7.408 3.975 1.95 1.95 0 1 1-3.249-2.16 12.78 12.78 0 0 1 10.657-5.716 12.78 12.78 0 0 1 10.657 5.716 1.95 1.95 0 1 1-3.249 2.16 8.878 8.878 0 0 0-7.408-3.975ZM19 32.357a3.085 3.085 0 1 1 0-6.17 3.085 3.085 0 0 1 0 6.17Z"/><path fill="#214766" d="M16.69 8.942c-5.564 0-10.524 2.577-13.756 6.608a1.65 1.65 0 1 1-2.575-2.064c3.831-4.779 9.724-7.844 16.33-7.844 6.608 0 12.5 3.065 16.331 7.844a1.65 1.65 0 1 1-2.575 2.064c-3.231-4.031-8.192-6.608-13.755-6.608Zm0 8.43a9.179 9.179 0 0 0-7.659 4.11 1.65 1.65 0 1 1-2.748-1.827 12.479 12.479 0 0 1 10.406-5.582c4.346 0 8.172 2.22 10.407 5.582a1.65 1.65 0 1 1-2.748 1.827 9.179 9.179 0 0 0-7.659-4.11Zm-.005 12.672a3.085 3.085 0 1 1 0-6.17 3.085 3.085 0 0 1 0 6.17Z"/></g><defs><clipPath id="clip0_9473_82235"><path fill="#fff" d="M0 0h36v36H0z"/></clipPath></defs></svg>