<svg xmlns="http://www.w3.org/2000/svg" width="403" height="216" fill="none" viewBox="0 0 403 216"><path fill="#51C8B4" d="M185.923 38.953c-20.514-.705-40.053-7.26-58.711-14.433-18.657-7.172-37.138-15.118-57.161-18.919-12.879-2.444-27.607-2.79-37.984 4.045-9.986 6.577-13.212 17.93-14.947 28.466-1.305 7.926-2.073 16.268 1.504 23.688 2.483 5.152 6.891 9.482 9.94 14.416 10.608 17.17 3.11 38.342-8.386 55.107-5.393 7.864-11.647 15.366-15.808 23.738-4.162 8.371-6.087 17.964-2.446 26.503 3.609 8.465 12.208 14.823 21.523 19.294 18.92 9.082 41.215 11.682 62.955 13.154 48.125 3.259 96.507 1.848 144.759.435 17.858-.523 35.793-1.053 53.36-3.786 9.756-1.518 19.827-3.927 26.91-9.743 8.99-7.383 11.219-19.885 5.194-29.142-10.105-15.528-38.046-19.385-45.109-36.05-3.888-9.173.105-19.391 5.755-27.898 12.121-18.25 32.436-34.26 33.506-55.12.735-14.327-9.031-28.675-24.131-35.454-15.829-7.105-37.778-6.211-49.455 5.55-12.024 12.112-33.154 16.772-51.268 16.15Z" opacity=".1"/><g clip-path="url(#clip0)"><path fill="#E6E6E6" d="M403 75.168H286.987v3.397H403v-3.397Z"/><path fill="#E6E6E6" d="M325.967 46.755h-29.39v29.34h29.39v-29.34Z"/><path fill="#CCC" d="M320.089 52.623h-17.634v17.604h17.634V52.623Z"/><path fill="#E6E6E6" d="M369.897 46.755h-7.424v29.34h7.424v-29.34Z"/><path fill="#CCC" d="M369.897 51.388h-7.424v3.397h7.424v-3.397ZM369.897 66.212h-7.424v3.397h7.424v-3.397Z"/><path fill="#E6E6E6" d="M358.451 46.755h-7.425v29.34h7.425v-29.34Z"/><path fill="#CCC" d="M358.451 51.388h-7.425v3.397h7.425v-3.397ZM358.451 66.212h-7.425v3.397h7.425v-3.397Z"/><path fill="#E6E6E6" d="m376.295 46.634-6.654 3.288 13.04 26.294 6.654-3.29-13.04-26.292Z"/><path fill="#CCC" d="m378.354 50.786-6.654 3.288 1.51 3.045 6.654-3.289-1.51-3.044ZM384.943 64.07l-6.654 3.29 1.509 3.044 6.654-3.289-1.509-3.044Z"/><path fill="#E6E6E6" d="m307.56 58.532 3.739 6.465 3.739 6.465h-14.956l3.739-6.465 3.739-6.465Z"/><path fill="#E6E6E6" d="m314.057 59.767 3.738 6.465 3.74 6.465h-14.956l3.739-6.465 3.739-6.465ZM316.686 57.873a2.164 2.164 0 0 0 2.166-2.162c0-1.194-.97-2.161-2.166-2.161a2.163 2.163 0 0 0-2.165 2.161c0 1.194.969 2.162 2.165 2.162ZM286.987 31.931H403v-3.397H286.987v3.397Z"/><path fill="#E6E6E6" d="M364.02 29.46h29.39V.121h-29.39v29.34Z"/><path fill="#CCC" d="M369.897 23.593h17.634V5.989h-17.634v17.604Z"/><path fill="#E6E6E6" d="M320.09 29.46h7.425V.121h-7.425v29.34Z"/><path fill="#CCC" d="M320.09 8.15h7.425V4.755h-7.425V8.15ZM320.09 22.975h7.425v-3.397h-7.425v3.397Z"/><path fill="#E6E6E6" d="M331.536 29.46h7.425V.121h-7.425v29.34Z"/><path fill="#CCC" d="M331.536 8.15h7.425V4.755h-7.425V8.15ZM331.536 22.975h7.425v-3.397h-7.425v3.397Z"/><path fill="#E6E6E6" d="m300.652 26.293 6.654 3.289 13.04-26.293L313.692 0l-13.04 26.293Z"/><path fill="#CCC" d="m310.123 7.196 6.654 3.289 1.51-3.045-6.654-3.288-1.51 3.044ZM303.535 20.481l6.653 3.289 1.51-3.045-6.654-3.288-1.509 3.044Z"/><path fill="#E6E6E6" d="m382.427 11.898-3.739 6.465-3.739 6.465h14.956l-3.739-6.465-3.739-6.465Z"/><path fill="#E6E6E6" d="m375.931 13.133-3.739 6.465-3.739 6.465h14.956l-3.739-6.465-3.739-6.465ZM373.3 11.24a2.164 2.164 0 0 0 2.166-2.162c0-1.194-.97-2.162-2.166-2.162a2.163 2.163 0 0 0-2.165 2.162c0 1.194.969 2.161 2.165 2.161ZM286.987 125.199H403v-3.397H286.987v3.397Z"/><path fill="#E6E6E6" d="M364.02 122.729h29.39v-29.34h-29.39v29.34Z"/><path fill="#CCC" d="M369.897 116.861h17.634V99.257h-17.634v17.604Z"/><path fill="#E6E6E6" d="M320.09 122.729h7.425v-29.34h-7.425v29.34Z"/><path fill="#CCC" d="M320.09 101.419h7.425v-3.397h-7.425v3.397ZM320.09 116.243h7.425v-3.397h-7.425v3.397Z"/><path fill="#E6E6E6" d="M331.536 122.729h7.425v-29.34h-7.425v29.34Z"/><path fill="#CCC" d="M331.536 101.419h7.425v-3.397h-7.425v3.397ZM331.536 116.243h7.425v-3.397h-7.425v3.397Z"/><path fill="#E6E6E6" d="m300.652 119.561 6.654 3.289 13.04-26.293-6.654-3.289-13.04 26.293Z"/><path fill="#CCC" d="m310.123 100.464 6.654 3.289 1.51-3.045-6.654-3.288-1.51 3.044ZM303.535 113.749l6.653 3.289 1.51-3.045-6.654-3.289-1.509 3.045Z"/><path fill="#E6E6E6" d="m382.427 105.166-3.739 6.465-3.739 6.465h14.956l-3.739-6.465-3.739-6.465Z"/><path fill="#E6E6E6" d="m375.931 106.401-3.739 6.465-3.739 6.465h14.956l-3.739-6.465-3.739-6.465ZM373.3 104.507a2.164 2.164 0 0 0 2.166-2.162c0-1.194-.97-2.161-2.166-2.161a2.162 2.162 0 1 0 0 4.323ZM263.663 203c75.477 0 136.664-4.338 136.664-9.689 0-5.352-61.187-9.69-136.664-9.69-75.477 0-136.663 4.338-136.663 9.69 0 5.351 61.186 9.689 136.663 9.689Z"/><path fill="#1F6156" d="M370.431 198.737c-22.284-3.96-46.652-3.301-72.214 0 11.651-9.819 21.706-19.638 10.055-29.456 22.726 4.68 25.91 4.206 51.19 0-5.864 9.818 5.106 19.637 10.969 29.456Z"/><path fill="#51C8B4" d="M364.996 194.548c-18.929-3.161-39.63-2.635-61.343 0 9.897-7.838 18.438-15.675 8.541-23.513 19.305 3.736 22.009 3.358 43.484 0-4.981 7.838 4.337 15.675 9.318 23.513Z"/><path fill="#2F2E41" d="M357.786 181.92c5.571 0 10.086-4.508 10.086-10.069 0-5.561-4.515-10.069-10.086-10.069-5.57 0-10.086 4.508-10.086 10.069 0 5.561 4.516 10.069 10.086 10.069Z"/><path fill="#A0616A" d="m312 160.173 6.988 1.162 3.495 10.077-10.095 6.202-11.647-17.441H312Z"/><path fill="#A0616A" d="M331.801 175.676c9.006 0 16.306-7.288 16.306-16.279 0-8.99-7.3-16.278-16.306-16.278s-16.306 7.288-16.306 16.278c0 8.991 7.3 16.279 16.306 16.279Z"/><path fill="#2F2E41" d="M241.727 100.098s-39.601 4.263-46.59 3.488c-6.988-.775-10.094-1.55-10.094-1.55s-4.659 6.201-2.33 8.914a16.814 16.814 0 0 0 4.659 3.876s4.271-1.163 7.377 0 34.554 6.201 39.99 1.55c5.435-4.651 6.988-16.278 6.988-16.278Z"/><path fill="#2F2E41" d="M244.445 186.528s-26.012-7.364-30.671-39.921v-3.1s-5.147 9.013-6.989 10.852c-2.135 2.132-9.706 21.317-9.318 23.255.388 1.938 0 2.713 0 2.713l-11.259-1.163v-3.488s6.018-18.023 6.406-22.286c.388-4.263 14.948-33.913 14.948-33.913s5.435-11.24 14.753 0c9.318 11.24 10.095 18.991 10.095 18.991l12.035 23.255v24.805ZM186.208 100.873l-12.424-4.263s-11.647-8.527-8.93 0c2.718 8.526 15.142 27.13 18.636 25.192 3.495-1.938 7.697-6.748 6.761-7.443-.937-.696-7.149-5.734-4.043-13.486Z"/><path fill="#2F2E41" d="m187.71 173.388-10.029 4.889s-12.129 1.863-5.365 5.355c6.764 3.493 25.423 7.218 26.356 3.959.933-3.26.563-8.67-.418-8.526-.982.144-7.745.842-10.544-5.677Z"/><path fill="#FFD4B3" d="M239.398 160.948s-5.047 21.704 3.494 26.355c8.542 4.651 68.332 5.426 72.991-3.101 4.659-8.526 2.329-8.526 2.329-8.526l-12.424-13.953 10.095-.775s0-3.101-3.494-3.488c-3.495-.388-14.366-4.264-23.684-1.551-9.318 2.713-14.753-5.426-14.753-5.426l-34.554 10.465Z"/><path fill="#3F3D56" d="m232.798 93.121-6.601 36.045 45.426-5.426 8.153-32.556-46.978 1.938Z"/><path fill="#fff" d="m234.157 94.478-5.436 32.169 41.349-4.844 7.959-29.263-43.872 1.938Z"/><path fill="#B3B3B3" d="m227.75 129.554-1.553-.387-.776 1.55 12.424 34.494 1.168-.446.385-2.267-11.648-32.944Z"/><path fill="#E6E6E2" d="m226.197 128.779 12.424 36.044 46.978-6.976-13.976-34.107-45.426 5.039Z"/><path fill="#3F3D56" d="M232.41 127.616v1.938l34.554-3.876-.389-1.938-34.165 3.876ZM233.186 131.492l5.435 15.115 35.331-4.263-6.212-14.34-34.554 3.488Z"/><path fill="#A0616A" d="m277.446 152.809-1.165-3.101s-8.93-15.503-13.589-12.402c-4.659 3.1 9.707 18.216 9.707 18.216h4.659l.388-2.713ZM247.939 155.134l-1.164-4.651s-3.106-14.34 2.329-13.565c5.436.775 6.989 14.34 6.989 14.34l-.389 3.101-7.765.775Z"/><path fill="#FFD4B3" d="M257.258 153.196s-10.095-1.55-10.483.775c-.388 2.326-2.33 37.208 7.377 38.371 9.706 1.162 57.849 6.201 52.801-5.814-5.047-12.015-12.812-10.465-12.812-10.465l-33.001 3.489-3.882-26.356ZM287.734 157.653l-10.288-7.17-6.795 5.233 8.542 9.301 8.541-7.364Z"/><path fill="#000" d="m260.169 164.63 1.553 14.728 26.789-1.55-23.295-.388-5.047-12.79Z" opacity=".2"/><path fill="#2F2E41" d="M339.85 181.734c10.722 0 19.413-8.676 19.413-19.379 0-10.702-8.691-19.379-19.413-19.379-10.721 0-19.412 8.677-19.412 19.379 0 10.703 8.691 19.379 19.412 19.379Z"/><path fill="#214766" d="m239.98 105.718 24.072-.837 2.329-8.853-24.847.749-1.554 8.941Z"/><path fill="#E6E6E6" d="m233.769 110.756 36.495-1.162.388-1.551-36.495 1.283-.388 1.43ZM232.992 114.632l36.495-1.163.388-1.55-36.495 1.283-.388 1.43ZM232.604 117.733l36.495-1.163.388-1.55-36.495 1.282-.388 1.431Z"/></g><defs><clipPath id="clip0"><path fill="#fff" d="M127 0h276v203H127z"/></clipPath></defs></svg>