<svg xmlns="http://www.w3.org/2000/svg" width="142" height="108" fill="none" viewBox="0 0 142 108"><g clip-path="url(#clip0)"><path fill="#E6E8EC" d="M107.779 3.282H40.937v86.074h66.842V3.282Z"/><path fill="#3F3D56" d="M90.748 18.863H56.623v.384h34.125v-.384ZM90.748 21.551H56.623v.384h34.125v-.384ZM90.748 24.238H56.623v.384h34.125v-.384Z"/><path fill="#3879AD" d="M90.748 38.878H56.623v.384h34.125v-.384ZM90.748 41.566H56.623v.384h34.125v-.384Z"/><path fill="#3F3D56" d="M90.748 44.253H56.623v.384h34.125v-.384ZM90.748 51.047H56.623v.384h34.125v-.384ZM90.748 53.735H56.623v.384h34.125v-.384ZM90.748 56.422H56.623v.384h34.125v-.384ZM90.748 63.216H56.623v.384h34.125v-.384Z"/><path fill="#3879AD" d="M90.748 65.904H56.623v.384h34.125v-.384Z"/><path fill="#3F3D56" d="M90.748 68.591H56.623v.384h34.125v-.384ZM90.748 75.385H56.623v.384h34.125v-.384ZM90.748 78.073H56.623v.384h34.125v-.384ZM90.748 80.76H56.623v.384h34.125v-.384Z"/><path fill="#3F3D56" d="M112.497 95.59h-71.8V0h71.8v95.59Zm-71.48-.32h71.16V.32h-71.16v94.95Z"/><path fill="#3F3D56" d="M96.585 7.446a2.08 2.08 0 0 1 1.04-1.801 2.077 2.077 0 0 0-3.122 1.8 2.083 2.083 0 0 0 2.082 2.082c.365 0 .724-.097 1.04-.28a2.078 2.078 0 0 1-1.04-1.801Z"/><path fill="#3879AD" d="M99.304 7.446a2.08 2.08 0 0 1 1.039-1.801 2.075 2.075 0 0 0-2.842.759 2.083 2.083 0 0 0 1.802 3.123c.366 0 .724-.097 1.04-.28a2.076 2.076 0 0 1-1.039-1.801Z"/><path fill="#3F3D56" d="M102.022 9.527a2.08 2.08 0 0 0 2.079-2.081 2.08 2.08 0 1 0-4.157 0c0 1.15.93 2.081 2.078 2.081ZM100.072 95.759l-.172-.065c-.037-.014-3.79-1.454-5.55-4.72-1.757-3.264-.896-7.196-.888-7.235l.041-.179.171.064c.038.015 3.792 1.455 5.55 4.72 1.758 3.265.897 7.196.889 7.236l-.041.179Zm-5.44-4.936c1.487 2.76 4.453 4.176 5.205 4.499.143-.807.591-4.068-.895-6.826-1.485-2.758-4.452-4.175-5.204-4.5-.143.808-.59 4.07.894 6.827Z"/><path fill="#51C8B4" d="M95.695 89.83c3.16 1.903 4.377 5.684 4.377 5.684s-3.907.695-7.066-1.209c-3.16-1.903-4.377-5.684-4.377-5.684s3.906-.695 7.066 1.209Z"/><path fill="#214766" d="M54.21 25.7c-.001 3.125-.848 6.193-2.45 8.876a17.292 17.292 0 0 1-7.28 6.683 17.278 17.278 0 0 1-16.326-.67 17.29 17.29 0 0 1-6.818-7.478 17.315 17.315 0 0 1 1.228-16.997A17.281 17.281 0 0 1 33.97 8.661a17.267 17.267 0 0 1 4.025-.223 17.156 17.156 0 0 1 6.216 1.574 17.274 17.274 0 0 1 7.286 6.382 17.306 17.306 0 0 1 2.712 9.305Z"/><path fill="#2F2E41" d="M43.68 8.015c-1.571-3.712-5.57-4.413-5.57-4.413s-3.852-1.029-7.068 3.87c-2.998 4.567-6.864 8.846-1.961 10.669l1.295-2.724.155 3.134c.713.15 1.434.259 2.159.328 5.438.553 10.564 1.473 10.659-.495.126-2.615 1.843-6.797.331-10.369Z"/><path fill="#FFB8B8" d="m29.714 38.27-.128 1.028-.243 1.934a16.369 16.369 0 0 1-1.19-.644c-.393-.23-.775-.479-1.146-.741l.038-.998.044-1.106 1.775.357.85.17ZM47.581 39.32a17.279 17.279 0 0 1-2.472 1.618l-.838-2.907-.11-.382-.275-.956.296-.046 3.028-.48.098.825.273 2.328ZM38.112 15.67a4.727 4.727 0 0 0 4.724-4.73 4.727 4.727 0 0 0-4.724-4.73 4.727 4.727 0 0 0-4.724 4.73 4.727 4.727 0 0 0 4.724 4.73Z"/><path fill="#FFB8B8" d="M34.875 12.78s.35 5.956-.7 6.307c-1.05.35 5.424 0 5.424 0s-.875-3.68 0-4.73c.875-1.052-4.724-1.577-4.724-1.577Z"/><path fill="#FFF1E5" d="M39.687 18.123s-4.55-.35-5.424 0c-.875.35-3.324 2.102-3.324 2.102l1.224 11.037 9.973 2.102 1.575-2.277 1.574-3.329-.7-4.204-.175-2.453-4.723-2.978Z"/><path fill="#FFF1E5" d="M30.064 20.926s-2.275.526-2.45 2.277c-.175 1.752-.175 6.132 0 6.833.175.7 0 1.05-.175 1.226-.175.175-.524-.175-.175.35.35.526.35.526.175 1.052-.175.525-.7-.176-.35.7.35.876.525 1.051.35 1.227-.175.175-.7 4.204-.7 4.204l2.975.526 2.974-10.336-2.624-8.059ZM43.71 20.926a1.864 1.864 0 0 1 1.575 1.051c.525 1.051 1.924 7.883 1.75 8.41-.175.525-.525-.176-.175.875.35 1.051 0 .876.175 1.577.174.7-.7 0 0 .7.7.701 1.05.876.7 1.227-.35.35-.876-.35-.35.35.524.7.524 1.752.524 1.752l-4.199.876-1.224-9.81 1.224-7.008Z"/><path fill="#3879AD" d="m44.271 38.031.21 3.228a17.277 17.277 0 0 1-16.327-.67c.134-.495.27-.989.41-1.472.098-.344.198-.683.3-1.017.785-2.573 1.63-4.762 2.424-5.612 0 0 0-1.926.35-2.102.169-.133.297-.309.371-.51.13-.289.24-.587.33-.892l-.58-1.348-2.59-6.04a.739.739 0 0 1 .347-.949l.859-.43a.737.737 0 0 1 .99.336l3.948 8.08 4.373 2.805 3.068-1.366.081-.037s2.276-3.503 1.575-5.255c-.299-.748-.628-1.747-.911-2.649-.165-.531-.312-1.03-.427-1.42a.316.316 0 0 1 .295-.403.314.314 0 0 1 .181.052l.597.4a.868.868 0 0 1 .37.548l1.294 6.276-1.749 3.677v3.504l.122 1.881.063.985.026.4Z"/><path fill="#2F2E41" d="m42.792 6.667-4.009-2.102-5.535.86-1.145 5.065 2.85-.11.797-1.861v1.83l1.315-.05.764-2.963.477 3.154 4.677-.096-.191-3.727Z"/><path fill="#FFB8B8" d="M33.3 11.86c.29 0 .525-.412.525-.92s-.235-.92-.525-.92c-.29 0-.524.412-.524.92s.235.92.524.92Z"/><path fill="#3879AD" d="M137.936 54.37c0 7.675-5.178 14.17-12.313 16.344a17.52 17.52 0 0 1-3.23.666 18 18 0 0 1-2.76.095h-.003a17.772 17.772 0 0 1-7.222-1.845 17.609 17.609 0 0 1-4.311-3.025 16.848 16.848 0 0 1-5.275-12.235c0-7.256 4.628-13.458 11.163-15.95.782-.3 1.585-.543 2.401-.727a18.07 18.07 0 0 1 9.769.505l.005.001c.528.178 1.046.382 1.554.612.174.076.348.157.518.243.342.164.677.341 1.005.53a17.468 17.468 0 0 1 5.521 4.958 16.832 16.832 0 0 1 2.682 5.778c.331 1.324.497 2.685.496 4.05Z"/><path fill="#2F2E41" d="m139.322 26.593 2.404-.73.207-2.065s-5.846-2.154-7.715 1.656c-.66 1.345-1.491 2.152-2.291 2.634a4.32 4.32 0 0 1-3.677.31c-4.051-1.444-5.005 2.66-5.005 2.66s.35.584 2.847.728c1.243.071 2.26.983 2.968 1.882 1.517 1.923 4.631 1.367 5.396-.941l.036-.114c1.195-3.816 6.634-.777 6.634-.777l.347-3.457-2.151-1.786Z"/><path fill="#2F2E41" d="M122.946 35.936c1.625 0 2.943-1.286 2.943-2.871 0-1.586-1.318-2.871-2.943-2.871-1.626 0-2.944 1.285-2.944 2.87 0 1.586 1.318 2.872 2.944 2.872Z"/><path fill="#2F2E41" d="M121.474 48.376c4.335 0 7.85-3.427 7.85-7.656 0-4.228-3.515-7.655-7.85-7.655-4.335 0-7.85 3.427-7.85 7.655 0 4.229 3.515 7.656 7.85 7.656Z"/><path fill="#A0616A" d="M121.228 48.775c2.981 0 5.397-2.357 5.397-5.263 0-2.907-2.416-5.264-5.397-5.264-2.98 0-5.396 2.357-5.396 5.264 0 2.906 2.416 5.263 5.396 5.263Z"/><path fill="#A0616A" d="m119.103 47.499.981 5.104 4.906-.638s-.818-3.988-.327-5.104l-5.56.638ZM128.751 36.334s-3.925-2.87-5.56-1.754c-1.635 1.116 4.416 4.785 5.07 4.466.654-.32.49-2.712.49-2.712Z"/><path fill="#FFD4B3" d="m132.513 58.025-.003.08c-.101 2.28-4.404 9.258-6.887 12.61a17.52 17.52 0 0 1-3.23.665 17.977 17.977 0 0 1-2.76.096h-.003a146.801 146.801 0 0 1-6.981-2.41 42.707 42.707 0 0 1-2.188-.88 3.175 3.175 0 0 1-.517-.271c-.818-.64.982-1.118 1.8-1.277.817-.16-.327-1.913-.327-1.913-2.944-3.031.653-5.582.653-5.582s1.472-3.032 1.472-3.83a.29.29 0 0 1 .063-.161c.616-.85 5.498-2.39 5.498-2.39V50.21l.505-.082 4.975-.809.406-.066.818 1.276 3.599.479s3.107 4.147 3.107 7.017Z"/><path fill="#FFD4B3" d="M116.977 58.025s-2.156 5.828-4.125 10.551l-.203.49-.24.564a17.595 17.595 0 0 1-4.312-3.025c.885-2.804 2.288-7.26 2.829-9.057.597-1.98 1.977-2.343 2.679-2.396.142-.013.286-.012.428.003l2.944 2.87ZM128.915 51.486l.49-.478s6.215-6.54 6.051-8.134c0 0-3.27-3.988-7.359-2.871 0 0-1.799-4.307.981-4.147 2.781.16 13.084-.479 12.92 4.147-.164 4.625-9.976 18.82-9.976 18.82l-3.107-7.337Z"/><path fill="#2F2E41" d="M122.393 71.38a17.977 17.977 0 0 1-2.76.095h-.003a17.774 17.774 0 0 1-9.288-3.055l.119-.234v-.002l.138-.27 2.253.662 9.541 2.804ZM126.6 41.088c.565-1.767-1.273-3.934-4.104-4.842-2.831-.907-5.584-.211-6.149 1.555-.565 1.766 1.273 3.934 4.104 4.842 2.831.907 5.584.211 6.149-1.555Z"/><path fill="#214766" d="M0 90.707c0 .889.067 1.776.201 2.655a17.316 17.316 0 0 0 7.705 11.877 17.277 17.277 0 0 0 16.678 1.136 17.119 17.119 0 0 0 3.345-2.061l.004-.002a17.337 17.337 0 0 0 5.6-7.77v-.002a17.337 17.337 0 0 0 .08-11.42 17.312 17.312 0 0 0-7.04-8.985 13.63 13.63 0 0 0-.46-.282 17.11 17.11 0 0 0-7.697-2.4 17.006 17.006 0 0 0-1.146-.039c-.019 0-.038 0-.057.002a17.261 17.261 0 0 0-12.705 5.64A17.305 17.305 0 0 0 0 90.708Z"/><path fill="#FFB8B8" d="M35.07 96.646s5.044-5.22 6.39-2.02c1.344 3.198-5.045 4.882-5.045 4.882l-1.345-2.862Z"/><path fill="#2F2E41" d="M6.467 104.199c.188.152.38.3.575.443a17.288 17.288 0 0 0 16.973 1.989c.192-.082.38-.166.57-.256l-.443-.637a4.96 4.96 0 0 0-1.07-.764c-3.03-1.648-8.738-1.597-12.6-1.326-.55.038-1.061.082-1.522.125-.288.026-.556.053-.8.078-.1.012-.194.021-.284.031-.862.096-1.378.171-1.378.171l-.021.146Z"/><path fill="#FFB8B8" d="M21.287 80.855a4.835 4.835 0 0 0 4.832-4.838 4.835 4.835 0 0 0-4.832-4.838 4.835 4.835 0 0 0-4.832 4.838 4.835 4.835 0 0 0 4.832 4.838Z"/><path fill="#FFB8B8" d="m18.089 77.622-3.531 3.704-1.009 5.724 8.911 1.515-.672-5.219s.168-2.525.84-3.03c.673-.505-4.54-2.694-4.54-2.694Z"/><path fill="#3879AD" d="M7.664 104.559a8.97 8.97 0 0 1 .897-.239 13.39 13.39 0 0 1 2.318-.296c1.844-.097 3.685.26 5.36 1.039 2.45 1.177 5.357 1.497 7.355 1.558.146.005.287.008.421.01.192-.082.38-.167.57-.256.477-.223.944-.468 1.399-.735l-.007-.593-.105-11.72v-.002l-.05-5.603-3.193-3.703-.82-.926-.39.351-2.321 2.091-3.382-3.136-1.158-1.073-5.554 18.719-.716 2.415-.422 1.422-.066.217v.002l-.136.458Z"/><path fill="#9EE0D5" d="M20.567 88.243c.009.841.08 1.68.212 2.51.575 3.682 1.07 9.802 2.293 14.221.16.583.334 1.133.523 1.647l.057.159a15.172 15.172 0 0 0 .932-.405 17.119 17.119 0 0 0 2.758-1.619l-.05-.202v-.001l-.797-3.193s.512-2.672.921-5.662v-.001c.47-3.422.806-7.255.088-7.974l-5.633-5.161-.002.002c-.175.28-.326.574-.45.88-.385.911-.87 2.519-.852 4.799ZM3.04 100.507a17.304 17.304 0 0 0 4.866 4.733 194.673 194.673 0 0 0 1.729-2.452c.256-.37.508-.741.755-1.111 1.816-2.717 3.322-5.325 3.495-6.883.208-1.866.629-4.751 1.056-7.507.275-1.79.553-3.526.775-4.888.269-1.656.454-2.764.454-2.764s-8.81-.882-10.045-.016h-.002a.289.289 0 0 0-.139.192c-.134.939.585 9.659.883 13.181v.002c.076.903.126 1.463.126 1.463s-.504.675-1.242 1.755a67.18 67.18 0 0 0-2.711 4.295Z"/><path fill="#9EE0D5" d="m27 92.437.84 6.566 7.398-3.199 2.354 4.882-12.105 4.546S23.3 93.615 27 92.437Z"/><path fill="#2F2E41" d="M26.114 76.902s.657-.71.59-1.599a5.074 5.074 0 0 1 .096-1.51s-.205-1.455-.509-2.299c-.303-.843-.047-1.136-1.352-1.597-1.304-.46-.474-2.124-4.32-.798a1.05 1.05 0 0 1-1.143.235c-.71-.26-1.138.716-1.138.716s-.443-.364-.692.014c-.248.379-1.45-.483-1.89 2.268-.441 2.752 1.072 5.206 1.072 5.206s.212-4.403 2.71-4.483c2.497-.08 5.321-1.027 5.671.827.183 1.038.487 2.052.905 3.02Z"/><path fill="#FFB8B8" d="M6.198 103.979a15.949 15.949 0 0 0 .844.663 17.127 17.127 0 0 0 5.447 2.685c.397-1.018-.553-2.284-1.61-3.303-.134-.13-.272-.256-.406-.376-.32-.284-.635-.54-.912-.754l-.035-.027c-.523-.404-.902-.652-.902-.652l-.336.245-2.09 1.519Z"/><path fill="#9EE0D5" d="M.202 93.362a17.315 17.315 0 0 0 6.84 11.28l.759-.541v-.001l.348-.249 1.377-.984.109-.079 1.057-.756-.303-.355-1.384-1.632-3.254-3.833-.776-.913 1.892-2.305v-.002l1.975-2.407L7.16 79.811a1.786 1.786 0 0 0-1.036-.192h-.002c-.38.066-.769.328-.98 1.033-.382 1.276-3.469 9.03-4.941 12.71Z"/></g><defs><clipPath id="clip0"><path fill="#fff" d="M0 0h142v108H0z"/></clipPath></defs></svg>