<svg viewBox="0 0 38 38" fill="none" xmlns="http://www.w3.org/2000/svg">
<g clip-path="url(#clip0)">
<path d="M16.7734 29.0198C16.1586 29.0198 15.6602 28.5213 15.6602 27.9065C15.6602 27.2916 16.1586 26.7932 16.7734 26.7932C17.3883 26.7932 17.8867 27.2916 17.8867 27.9065C17.8867 28.5213 17.3883 29.0198 16.7734 29.0198Z" fill="black"/>
<path d="M12.3203 29.0198C11.7055 29.0198 11.207 28.5213 11.207 27.9065C11.207 27.2916 11.7055 26.7932 12.3203 26.7932C12.9352 26.7932 13.4336 27.2916 13.4336 27.9065C13.4336 28.5213 12.9352 29.0198 12.3203 29.0198Z" fill="black"/>
<path d="M7.86719 29.0198C7.25234 29.0198 6.75391 28.5213 6.75391 27.9065C6.75391 27.2916 7.25234 26.7932 7.86719 26.7932C8.48204 26.7932 8.98047 27.2916 8.98047 27.9065C8.98047 28.5213 8.48204 29.0198 7.86719 29.0198Z" fill="black"/>
<path d="M12.0026 10.8321C11.577 10.3885 11.5916 9.68375 12.0352 9.2581C14.3284 7.05789 17.3375 5.84619 20.5082 5.84619C23.6789 5.84619 26.688 7.05789 28.9812 9.25803C29.4249 9.68367 29.4395 10.3884 29.0138 10.8321C28.588 11.2757 27.8833 11.2903 27.4397 10.8646C25.5631 9.06424 23.1015 8.07275 20.5082 8.07275C17.9149 8.07275 15.4533 9.06424 13.5767 10.8647C13.1333 11.2901 12.4286 11.276 12.0026 10.8321Z" fill="#FFD4B3"/>
<path d="M15.089 14.0365C14.664 13.5922 14.6796 12.8875 15.1239 12.4625C16.5819 11.0676 18.4941 10.2993 20.508 10.2993C22.522 10.2993 24.4341 11.0676 25.8922 12.4625C26.3364 12.8875 26.352 13.5922 25.927 14.0365C25.5019 14.4808 24.7973 14.4963 24.353 14.0714C23.3112 13.0747 21.9457 12.5259 20.508 12.5259C19.0703 12.5259 17.7048 13.0747 16.663 14.0713C16.2189 14.4962 15.5143 14.4809 15.089 14.0365Z" fill="#FFD4B3"/>
<path d="M22.7989 15.662C23.2463 16.0838 23.267 16.7884 22.8451 17.2357C22.4232 17.683 21.7188 17.7038 21.2714 17.282C21.0642 17.0866 20.7931 16.979 20.508 16.979C20.2228 16.979 19.9518 17.0866 19.7445 17.282C19.2985 17.7026 18.5937 17.6845 18.1708 17.2358C17.7489 16.7885 17.7697 16.0839 18.217 15.6621C18.8391 15.0755 19.6527 14.7524 20.508 14.7524C21.3632 14.7524 22.1768 15.0755 22.7989 15.662Z" fill="#FFD4B3"/>
<path d="M3.33984 22.3399H12.5537L0.283146 8.60902C-0.126541 8.15057 -0.0869827 7.44676 0.371391 7.03707C0.829765 6.62738 1.53366 6.66694 1.94334 7.12532L15.5398 22.3399H22.4602L36.0566 7.12539C36.4663 6.66687 37.1701 6.62746 37.6285 7.03714C38.087 7.44683 38.1265 8.15057 37.7168 8.6091L25.4462 22.3399H34.6602C36.5017 22.3399 38 23.8381 38 25.6797V30.1328C38 31.9744 36.5017 33.4727 34.6602 33.4727H3.33984C1.49825 33.4727 0 31.9744 0 30.1328V25.6797C0 23.8381 1.49818 22.3399 3.33984 22.3399ZM2.22656 30.1328C2.22656 30.7467 2.72598 31.2461 3.33984 31.2461H34.6602C35.274 31.2461 35.7734 30.7467 35.7734 30.1328V25.6797C35.7734 25.0658 35.274 24.5664 34.6602 24.5664H3.33984C2.72598 24.5664 2.22656 25.0658 2.22656 25.6797V30.1328Z" fill="black"/>
<path d="M10.4943 9.51329C10.0687 9.06961 10.0833 8.3649 10.5269 7.93925C12.8201 5.73904 15.8292 4.52734 18.9999 4.52734C22.1706 4.52734 25.1797 5.73904 27.4729 7.93918C27.9166 8.36482 27.9312 9.06953 27.5055 9.51321C27.0797 9.95689 26.375 9.97144 25.9314 9.54579C24.0548 7.74539 21.5932 6.75391 18.9999 6.75391C16.4066 6.75391 13.945 7.74539 12.0684 9.54587C11.625 9.97129 10.9203 9.95719 10.4943 9.51329Z" fill="black"/>
<path d="M13.5807 12.7177C13.1557 12.2734 13.1713 11.5687 13.6156 11.1436C15.0736 9.74871 16.9858 8.98047 18.9997 8.98047C21.0137 8.98047 22.9258 9.74871 24.3839 11.1436C24.8281 11.5687 24.8437 12.2734 24.4187 12.7177C23.9936 13.1619 23.289 13.1775 22.8447 12.7526C21.8029 11.7559 20.4374 11.207 18.9997 11.207C17.562 11.207 16.1965 11.7559 15.1547 12.7525C14.7106 13.1774 14.006 13.1621 13.5807 12.7177Z" fill="black"/>
<path d="M21.2906 14.3431C21.738 14.7649 21.7587 15.4696 21.3368 15.9169C20.9149 16.3642 20.2105 16.385 19.7631 15.9631C19.5559 15.7678 19.2848 15.6602 18.9997 15.6602C18.7145 15.6602 18.4435 15.7678 18.2362 15.9632C17.7902 16.3838 17.0854 16.3656 16.6625 15.917C16.2406 15.4696 16.2614 14.765 16.7087 14.3432C17.3308 13.7567 18.1444 13.4336 18.9997 13.4336C19.8549 13.4336 20.6685 13.7567 21.2906 14.3431Z" fill="black"/>
</g>
<defs>
<clipPath id="clip0">
<path d="M38 0H0V38H38V0Z" fill="white"/>
</clipPath>
</defs>
</svg>
