<svg viewBox="0 0 41 36" fill="none" xmlns="http://www.w3.org/2000/svg">
<path fill-rule="evenodd" clip-rule="evenodd" d="M17.0212 10.4421C12.6401 10.4421 8.73381 12.4709 6.18849 15.6461C5.67034 16.2925 4.72629 16.3964 4.07992 15.8782C3.43354 15.3601 3.32959 14.4161 3.84775 13.7697C6.93795 9.91478 11.6913 7.44214 17.0212 7.44214C22.351 7.44214 27.1044 9.91478 30.1946 13.7697C30.7128 14.4161 30.6088 15.3601 29.9624 15.8782C29.3161 16.3964 28.372 16.2925 27.8539 15.6461C25.3086 12.4709 21.4023 10.4421 17.0212 10.4421ZM17.0212 17.1688C14.5361 17.1688 12.3463 18.4356 11.0631 20.3656C10.6044 21.0554 9.67335 21.2428 8.98349 20.7842C8.29363 20.3255 8.10622 19.3944 8.5649 18.7045C10.3805 15.9738 13.4897 14.1688 17.0212 14.1688C20.5526 14.1688 23.6618 15.9738 25.4775 18.7045C25.9361 19.3944 25.7487 20.3255 25.0589 20.7842C24.369 21.2428 23.4379 21.0554 22.9793 20.3656C21.696 18.4356 19.5062 17.1688 17.0212 17.1688ZM17.1133 25.2689C16.2637 25.2689 15.5749 24.5802 15.5749 23.7305C15.5749 22.8808 16.2637 22.192 17.1133 22.192C17.963 22.192 18.6518 22.8808 18.6518 23.7305C18.6518 24.5802 17.963 25.2689 17.1133 25.2689Z" fill="#51C8B4"/>
<path fill-rule="evenodd" clip-rule="evenodd" d="M15.3879 9.19238C11.0068 9.19238 7.10051 11.2212 4.55519 14.3963C4.03704 15.0427 3.09299 15.1467 2.44661 14.6285C1.80024 14.1103 1.69629 13.1663 2.21445 12.5199C5.30465 8.66502 10.058 6.19238 15.3879 6.19238C20.7177 6.19238 25.4711 8.66502 28.5613 12.5199C29.0795 13.1663 28.9755 14.1103 28.3291 14.6285C27.6828 15.1467 26.7387 15.0427 26.2206 14.3963C23.6753 11.2212 19.769 9.19238 15.3879 9.19238ZM15.3879 15.9191C12.9028 15.9191 10.713 17.1858 9.4298 19.1158C8.97112 19.8057 8.04005 19.9931 7.35019 19.5344C6.66033 19.0757 6.47292 18.1446 6.9316 17.4548C8.74724 14.724 11.8564 12.9191 15.3879 12.9191C18.9193 12.9191 22.0285 14.724 23.8442 17.4548C24.3028 18.1446 24.1154 19.0757 23.4256 19.5344C22.7357 19.9931 21.8046 19.8057 21.346 19.1158C20.0627 17.1858 17.8729 15.9191 15.3879 15.9191ZM15.48 24.0192C14.6304 24.0192 13.9416 23.3304 13.9416 22.4807C13.9416 21.6311 14.6304 20.9423 15.48 20.9423C16.3297 20.9423 17.0185 21.6311 17.0185 22.4807C17.0185 23.3304 16.3297 24.0192 15.48 24.0192Z" fill="#214766"/>
<g clip-path="url(#clip0)">
<path d="M40.8313 23.5665L34.3189 16.5585C34.1984 16.429 34.0294 16.355 33.8524 16.355H31.0539C30.4974 16.355 30.2084 17.0185 30.5874 17.426L36.7014 24L30.5874 30.574C30.2084 30.9815 30.4974 31.645 31.0539 31.645H33.8524C34.0294 31.645 34.1984 31.5715 34.3189 31.4415L40.8313 24.4335C41.0583 24.189 41.0583 23.811 40.8313 23.5665Z" fill="#FFA65F"/>
<path d="M33.9535 23.567L27.441 16.5595C27.3205 16.4295 27.1515 16.356 26.9745 16.356H24.176C23.6195 16.356 23.3305 17.0195 23.7095 17.427L27.1955 21.1755H17.998C17.446 21.1755 16.998 21.6235 16.998 22.1755V25.827C16.998 26.379 17.446 26.827 17.998 26.827H27.195L23.709 30.575C23.33 30.9825 23.619 31.646 24.1755 31.646H26.974C27.151 31.646 27.32 31.5725 27.4405 31.4425L33.953 24.4345C34.1805 24.19 34.1805 23.8115 33.9535 23.567Z" fill="#FFA65F"/>
</g>
<defs>
<clipPath id="clip0">
<rect x="17" y="12" width="24" height="24" fill="white"/>
</clipPath>
</defs>
</svg>
