<svg viewBox="0 0 52 52" fill="none" xmlns="http://www.w3.org/2000/svg">
<path fill-rule="evenodd" clip-rule="evenodd" d="M27.6598 16.0312C20.244 16.0312 13.6316 19.4667 9.32521 24.8388C8.80705 25.4852 7.86301 25.5891 7.21663 25.0709C6.57026 24.5528 6.46631 23.6087 6.98447 22.9624C11.8358 16.9106 19.2953 13.0312 27.6598 13.0312C36.0244 13.0312 43.4839 16.9106 48.3352 22.9624C48.8533 23.6087 48.7494 24.5528 48.103 25.0709C47.4566 25.5891 46.5126 25.4852 45.9944 24.8388C41.688 19.4667 35.0756 16.0312 27.6598 16.0312ZM27.6598 26.9621C23.2946 26.9621 19.4489 29.1888 17.1972 32.5752C16.7386 33.2651 15.8075 33.4525 15.1176 32.9938C14.4278 32.5352 14.2404 31.6041 14.699 30.9142C17.4831 26.727 22.2482 23.9621 27.6598 23.9621C33.0714 23.9621 37.8365 26.727 40.6206 30.9142C41.0792 31.6041 40.8918 32.5352 40.202 32.9938C39.5121 33.4525 38.581 33.2651 38.1224 32.5752C35.8707 29.1888 32.025 26.9621 27.6598 26.9621ZM27.8096 41.0623C26.4289 41.0623 25.3096 39.943 25.3096 38.5623C25.3096 37.1816 26.4289 36.0623 27.8096 36.0623C29.1903 36.0623 30.3096 37.1816 30.3096 38.5623C30.3096 39.943 29.1903 41.0623 27.8096 41.0623Z" fill="#77D4C5"/>
<path fill-rule="evenodd" clip-rule="evenodd" d="M25.005 14C17.5892 14 10.9768 17.4355 6.67043 22.8075C6.15227 23.4539 5.20823 23.5579 4.56185 23.0397C3.91547 22.5215 3.81153 21.5775 4.32968 20.9311C9.18098 14.8793 16.6405 11 25.005 11C33.3696 11 40.8291 14.8793 45.6804 20.9311C46.1985 21.5775 46.0946 22.5215 45.4482 23.0397C44.8018 23.5579 43.8578 23.4539 43.3396 22.8075C39.0332 17.4355 32.4208 14 25.005 14ZM25.005 24.9309C20.6398 24.9309 16.7941 27.1575 14.5425 30.544C14.0838 31.2339 13.1527 31.4213 12.4629 30.9626C11.773 30.5039 11.5856 29.5728 12.0443 28.883C14.8283 24.6958 19.5934 21.9309 25.005 21.9309C30.4166 21.9309 35.1817 24.6958 37.9658 28.883C38.4245 29.5728 38.237 30.5039 37.5472 30.9626C36.8573 31.4213 35.9263 31.2339 35.4676 30.544C33.216 27.1575 29.3702 24.9309 25.005 24.9309ZM25.1548 39.0311C23.7741 39.0311 22.6548 37.9118 22.6548 36.5311C22.6548 35.1504 23.7741 34.0311 25.1548 34.0311C26.5355 34.0311 27.6548 35.1504 27.6548 36.5311C27.6548 37.9118 26.5355 39.0311 25.1548 39.0311Z" fill="#214766"/>
</svg>
