<svg xmlns="http://www.w3.org/2000/svg" width="36" height="36" fill="none" viewBox="0 0 36 36"><path fill="#8EB4FF" d="M21.07 7.13a10.432 10.432 0 0 0-7.318 2.983c-1.94 1.91-3.03 4.5-3.03 7.202 0 6.875 9.054 14.641 9.507 14.972l.194.165a1 1 0 0 0 1.293 0l.194-.165c.453-.331 9.508-8.097 9.508-14.972 0-2.701-1.09-5.292-3.031-7.202A10.432 10.432 0 0 0 21.07 7.13Zm0 15.277a5.233 5.233 0 0 1-2.875-.858 5.111 5.111 0 0 1-1.905-2.285 5.019 5.019 0 0 1-.295-2.943c.2-.988.693-1.895 1.416-2.607a5.2 5.2 0 0 1 2.65-1.394 5.251 5.251 0 0 1 2.989.29 5.158 5.158 0 0 1 2.322 1.876c.568.837.872 1.822.872 2.829 0 1.35-.545 2.646-1.516 3.6a5.216 5.216 0 0 1-3.658 1.492Z"/><path fill="#8EB4FF" fill-rule="evenodd" d="M11.648 7.975A13.433 13.433 0 0 1 21.07 4.13c3.525 0 6.915 1.377 9.421 3.845a13.104 13.104 0 0 1 3.927 9.34c0 4.563-2.893 8.938-5.26 11.837-2.273 2.784-4.633 4.884-5.34 5.45l-.161.138a4 4 0 0 1-5.174 0l-.162-.138c-.707-.566-3.067-2.666-5.34-5.45-2.367-2.9-5.26-7.274-5.26-11.837 0-3.513 1.419-6.871 3.927-9.34Zm8.58 24.312c-.452-.331-9.506-8.097-9.506-14.972 0-2.701 1.09-5.292 3.03-7.202A10.432 10.432 0 0 1 21.07 7.13c2.744 0 5.376 1.073 7.317 2.983 1.94 1.91 3.03 4.5 3.03 7.202 0 6.875-9.054 14.641-9.507 14.972l-.194.165a1 1 0 0 1-1.293 0l-.194-.165Zm-.384-13.244c.358.236.785.364 1.226.364.591 0 1.15-.231 1.554-.63.402-.396.62-.923.62-1.462 0-.403-.122-.801-.354-1.144a2.157 2.157 0 0 0-.973-.783 2.252 2.252 0 0 0-1.28-.124 2.2 2.2 0 0 0-1.122.588c-.3.296-.5.667-.58 1.064-.08.396-.039.808.12 1.184.158.377.43.707.789.943Zm-1.649 2.506c.851.56 1.851.858 2.875.858a5.216 5.216 0 0 0 3.658-1.491 5.052 5.052 0 0 0 1.516-3.601 5.036 5.036 0 0 0-.872-2.83 5.158 5.158 0 0 0-2.322-1.875 5.251 5.251 0 0 0-2.99-.29 5.2 5.2 0 0 0-2.649 1.394 5.069 5.069 0 0 0-1.416 2.607c-.2.988-.097 2.012.295 2.943a5.111 5.111 0 0 0 1.905 2.285Z" clip-rule="evenodd"/><path fill="#214766" fill-rule="evenodd" d="M7.675 4.367a13.972 13.972 0 0 1 23.852 9.88c0 4.812-3.012 9.463-5.522 12.587-2.408 2.997-4.907 5.252-5.634 5.843l-.206.177a4 4 0 0 1-5.221 0l-.206-.177c-.727-.591-3.226-2.846-5.634-5.843-2.51-3.124-5.522-7.775-5.522-12.587 0-3.706 1.472-7.26 4.093-9.88Zm8.988 26.009c-.48-.357-10.08-8.723-10.08-16.13a10.972 10.972 0 1 1 21.944 0c0 7.407-9.601 15.773-10.081 16.13l-.239.205a1 1 0 0 1-1.305 0l-.239-.205Zm-.49-14.062a2.486 2.486 0 1 0 2.763-4.135 2.486 2.486 0 0 0-2.763 4.135Zm-1.666 2.494a5.486 5.486 0 1 0 6.095-9.123 5.486 5.486 0 0 0-6.095 9.123Z" clip-rule="evenodd"/></svg>