<svg xmlns="http://www.w3.org/2000/svg" width="179" height="130" fill="none" viewBox="0 0 179 130"><g clip-path="url(#clip0)"><path fill="#51C8B4" d="M139.216 28.28c1.049 6.85-1.862 12.97-1.862 12.97s-4.62-4.986-5.669-11.836c-1.049-6.85 1.87-12.97 1.87-12.97s4.612 4.987 5.661 11.837ZM158.723 39.198c3.807-.041 6.915 1.98 6.915 1.98s-3.063 2.09-6.87 2.131c-3.806.041-6.915-1.981-6.915-1.981s3.064-2.09 6.87-2.13ZM148.019 28.785c-3.543 3.857-4.293 8.897-4.293 8.897s4.994-1.214 8.535-5.073c3.542-3.858 4.293-8.897 4.293-8.897s-4.993 1.214-8.535 5.073Z"/><path fill="#214766" d="M153.074 33.769H49.68c-1.403 0-2.54 1.126-2.54 2.516v91.199c0 1.389 1.137 2.516 2.54 2.516h103.394c1.404 0 2.541-1.127 2.541-2.516V36.285c0-1.39-1.137-2.516-2.541-2.516Z"/><path fill="#000" d="m143.172 83.685-2.728 1.3-22.037 10.524-1.944.922a1.091 1.091 0 0 1-1.47-.564 1.045 1.045 0 0 1-.077-.398v-6.216c0-.285-.114-.557-.316-.759a1.09 1.09 0 0 0-.763-.318H60.049c-.286 0-.561-.112-.765-.312a1.071 1.071 0 0 1-.32-.756V78.33c0-.285.114-.559.317-.76.204-.202.48-.316.769-.316h53.787c.286-.002.559-.115.761-.315.201-.2.316-.47.318-.753V69.83a1.045 1.045 0 0 1 .323-.758 1.078 1.078 0 0 1 .801-.306c.148.006.293.042.426.105l1.941.936 22.037 10.635 2.733 1.314a1.08 1.08 0 0 1 .601.965 1.073 1.073 0 0 1-.606.963Z" opacity=".1"/><path fill="#FFD4B3" d="m143.172 82.916-2.728 1.3-22.037 10.525-1.944.922a1.095 1.095 0 0 1-1.47-.564 1.045 1.045 0 0 1-.077-.398v-6.217c0-.284-.114-.557-.316-.758a1.09 1.09 0 0 0-.763-.318H60.049c-.286 0-.561-.112-.765-.313a1.07 1.07 0 0 1-.32-.755v-8.778c0-.286.114-.56.317-.761.204-.202.48-.315.769-.315h53.787c.286-.002.559-.115.761-.315.201-.2.316-.47.318-.754v-6.355a1.045 1.045 0 0 1 .323-.758 1.08 1.08 0 0 1 .801-.305c.148.006.293.041.426.104l1.941.936 22.037 10.635 2.733 1.314a1.08 1.08 0 0 1 .601.966 1.074 1.074 0 0 1-.606.962Z"/><path fill="#EFB7B9" d="M27.131 103.913c.053 1.285-.776 2.424-1.552 3.448-.352.48-.671.983-.954 1.506-.854 1.507-2.688 2.223-3.681 3.644-.24.344-.427.722-.636 1.086a14.536 14.536 0 0 1-2.682 3.382l-1.795 1.667c-.511.473-1.032.96-1.335 1.586-.346.721-.365 1.537-.345 2.344v.448c.031.976.076 1.957.31 2.902.078.308.175.63.054.922-.13.308-.466.478-.793.586-.351.115-.736.194-1.087.072-.35-.121-.592-.421-.808-.716-1.048-1.43-1.473-3.194-2.097-4.85-.13-.344.01-.738.24-1.025.248-.272.523-.52.819-.741 1.241-1.076 1.814-2.69 2.289-4.249.475-1.559.93-3.19 2.01-4.414.7-.794 1.621-1.363 2.403-2.08 1.948-1.786 2.92-4.393 3.43-6.976a5.4 5.4 0 0 1 1.815-.023l3.202.422c.346.046.725.109.95.372.154.196.24.437.243.687ZM40.797 106.533a3.351 3.351 0 0 1-.501 1.346 12.093 12.093 0 0 1-1.313 1.653c-1.223 1.383-1.43 3.369-2.208 5.043-.253.545-.567 1.058-.823 1.599-.672 1.424-.919 2.99-1.064 4.564-.02.203-.036.406-.052.608-.021.25-.038.501-.057.75-.048.659-.09 1.352.19 1.952.145.307.381.563.39.902-.48.462-1.306.409-1.862.034s-.902-.984-1.182-1.591a14.537 14.537 0 0 1-1.11-3.491c-.085-.461-.124-.995.206-1.327.166-.166.398-.249.584-.393.408-.317.526-.87.62-1.384.31-1.742.625-3.484.943-5.226.07-.426.161-.849.274-1.265.266-.921.67-1.956 1.433-2.571a.782.782 0 0 0 .24-.721 2.177 2.177 0 0 0-.298-.731c-.57-1.009-1.25-2.02-2.273-2.574a11.785 11.785 0 0 1 3.58-2.032c.23-.106.484-.149.737-.124.135.03.264.081.382.153.703.391 1.241 1.006 1.756 1.621.769.925 1.537 2.013 1.408 3.205Z"/><path fill="#464353" d="M15.885 127.119a3.834 3.834 0 0 0-1.086-.715.75.75 0 0 0-.295-.096c-.25-.013-.438.21-.652.339a1.215 1.215 0 0 1-1.14 0 2.316 2.316 0 0 1-.848-.805c-.456-.667-.546-1.333-.736-2.065l1.99-.372a4.23 4.23 0 0 0 1.04-.387v-.447c-.368.109-1.149.461-1.333.508-.6.136-1.207.231-1.82.286-.094-.186-.23-.347-.34-.53a3.007 3.007 0 0 1-.415-1.204 1.511 1.511 0 0 0-.098-.492.39.39 0 0 0-.167-.193.39.39 0 0 0-.252-.051.54.54 0 0 0-.178.088 3.43 3.43 0 0 0-1.242 1.537c-.374.922-.32 1.958-.465 2.944-.112.738-.342 1.469-.301 2.215a.152.152 0 0 0 .09.16.16.16 0 0 0 .065.014c.414.09.89.169 1.227-.087.337-.255.385-.737.45-1.157a5.65 5.65 0 0 1 .51-1.614c.514.623.783 1.41.758 2.215 0 .444-.056.948.252 1.273.15.144.334.249.535.307.409.142.833.234 1.263.274.776.074 1.566-.023 2.344-.12.245-.031.492-.062.735-.115a.781.781 0 0 0 .343-.142.622.622 0 0 0 .202-.389 1.408 1.408 0 0 0-.436-1.179ZM36.413 124.646a2.56 2.56 0 0 0-.636-.418 1.444 1.444 0 0 0-.621-.208c-.253 0-.484.123-.719.218-.234.096-.509.154-.729.031a.98.98 0 0 1-.361-.509c-.28-.661-.49-1.349-.735-2.023a.515.515 0 0 1 .241-.198.782.782 0 0 1 .236-.028c.31 0 1.254 0 1.755-.172.015-.201.033-.404.051-.607-.388-.08-1.053.058-1.229.106-.287.072-.58.178-.87.117-.202-.042-.393-.163-.59-.189-.093-.171-.194-.335-.29-.503-.246-.43-.322-.931-.56-1.348a.465.465 0 0 0-.385-.257.674.674 0 0 0-.438.255c-.396.399-.802.811-1.029 1.322a4.023 4.023 0 0 0-.223.717 17.315 17.315 0 0 0-.466 4.199c.36.114.742.15 1.117.105.193-.951.428-1.892.707-2.824a.138.138 0 0 1 .054-.087c.06-.033.124.033.155.092.339.499.613 1.039.816 1.606.126.404.183.843.42 1.195.255.346.623.593 1.042.697.416.103.843.158 1.271.163l.636.031c.345.04.694.013 1.028-.08.326-.112.62-.387.645-.728a.887.887 0 0 0-.293-.675Z"/><path fill="#3879AD" d="M39.397 102.829c-.26.265-.644.365-1.007.452l-1.103.266a.461.461 0 0 0-.31.174c-.064.114-.02.257-.05.383a.322.322 0 0 1-.07.135.804.804 0 0 1-.568.201 1.476 1.476 0 0 0-.535.079.434.434 0 0 0-.18.144c-.056.08-.08.179-.139.255a.639.639 0 0 1-.381.197 3.445 3.445 0 0 1-2.25-.263.643.643 0 0 0-.448-.106.434.434 0 0 0-.221.177 2.76 2.76 0 0 1-.185.252c-.286.308-.776.225-1.187.139-.253-.054-.508-.1-.762-.142-1.521-.246-3.071-.295-4.62-.34-2.002-.06-4.004-.113-5.942-.582-.422-.102-.931-.341-.911-.769.014-.244.21-.461.208-.701 0-.418-.517-.642-.931-.712.155-2.284 1.534-4.284 2.256-6.456.18-.54.31-1.093.514-1.626.878-2.405 2.807-4.25 4.412-6.25.245-.282.447-.597.599-.937.137-.408.21-.835.212-1.265l.089-1.505c2.379-.11 4.69-.066 7.017.432a.48.48 0 0 1 .45.28c.025.057.04.119.04.181.09.55.154 1.103.19 1.659.001.123.019.245.053.362a1.5 1.5 0 0 0 .251.411c1.347 1.75 2.173 3.843 2.825 5.94.651 2.097 1.17 4.252 1.99 6.303.281.707.65 1.501.725 2.259.295.217.23.707-.03.973Z"/><path fill="#000" d="M30.002 105.172c-1.52-.246-3.071-.295-4.62-.339l.13-4.243c.029-.941.056-1.883.17-2.817.155-1.328.487-2.63.652-3.956.093-.76.136-1.525.128-2.29-.007-.78-.063-1.564.066-2.333.105-.632.384-1.526.974-1.872.394.535-.21 2.029-.282 2.668-.146 1.332.217 2.658.529 3.96.375 1.564.683 3.142.988 4.721.423 2.167.844 4.334 1.265 6.501ZM34.59 105.186a3.445 3.445 0 0 1-1.785-.334.643.643 0 0 0-.447-.106.43.43 0 0 0-.222.177c-.525-2.468-.497-5.035-.91-7.533-.156-.888-.355-1.795-.18-2.68.185-.943.786-1.762 1.02-2.695.155-.615.143-1.25.132-1.879-.01-.629-.197-1.051-.405-1.613.553.091 1.003.628 1.224 1.112.272.59.323 1.253.359 1.901.087 1.567.1 3.135.078 4.703-.03.731-.014 1.464.05 2.194.08.717.258 1.423.317 2.142.069.864-.034 1.748.179 2.589.17.678.541 1.354.59 2.022ZM36.854 104.239a.804.804 0 0 1-.568.201 1.476 1.476 0 0 0-.536.079c-.31-1.876-.617-3.75-.92-5.623a18.91 18.91 0 0 1-.267-2.086c-.04-.81.023-1.622-.034-2.43-.07-.995-.321-1.964-.562-2.922-.142-.573-.797-2.282-.431-2.767.57.366.919 1.149 1.112 1.773.2.721.328 1.46.38 2.207l.438 4.338c.242 2.4.492 4.83 1.338 7.093.017.046.034.099.05.137Z" opacity=".1"/><path fill="#EFB7B9" d="M41.658 77.621c.41-.342.82-.687 1.195-1.065.53-.556 1.02-1.149 1.465-1.774.475-.64.947-1.297 1.242-2.038.333-.849.436-1.814 1.016-2.518a.58.58 0 0 1 .262-.203c.33-.103.578.307.641.647.31 1.663-.43 3.324-1.15 4.858-.237.506-.485 1.025-.897 1.408-.217.201-.465.357-.706.536a7.36 7.36 0 0 0-1 .975 27.618 27.618 0 0 0-1.475 1.81c-.579.768-1.122 1.573-1.808 2.251-.686.678-1.544 1.23-2.505 1.364.275-.037.185-1.634.156-1.835-.042-.293-.244-.637-.25-.923-.008-.35.136-.401.428-.647l3.386-2.846Z"/><path fill="#000" d="M41.658 77.621c.41-.342.82-.687 1.195-1.065.53-.556 1.02-1.149 1.465-1.774.475-.64.947-1.297 1.242-2.038.333-.849.436-1.814 1.016-2.518a.58.58 0 0 1 .262-.203c.33-.103.578.307.641.647.31 1.663-.43 3.324-1.15 4.858-.237.506-.485 1.025-.897 1.408-.217.201-.465.357-.706.536a7.36 7.36 0 0 0-1 .975 27.618 27.618 0 0 0-1.475 1.81c-.579.768-1.122 1.573-1.808 2.251-.686.678-1.544 1.23-2.505 1.364.275-.037.185-1.634.156-1.835-.042-.293-.244-.637-.25-.923-.008-.35.136-.401.428-.647l3.386-2.846Z" opacity=".1"/><path fill="#EFB7B9" d="M30.14 67.562s-.93 4.612-2.017 5.38c-1.086.769 5.897 1.691 5.897 1.691s.155-3.69 2.017-5.38c1.863-1.691-5.897-1.691-5.897-1.691Z"/><path fill="#51C8B4" d="M28.287 72.489c-.46.062-.883.285-1.191.63-.733.78-.879 1.969-.621 3.005.257 1.036.849 1.954 1.463 2.829.801 1.14 1.662 2.264 2.775 3.111.602.432 1.227.832 1.871 1.198a30.588 30.588 0 0 1 3.084 2.152c.215.193.462.349.73.46.23.072.47.104.712.093a5.63 5.63 0 0 0 2.352-.543.434.434 0 0 0 .177-.126.467.467 0 0 0 .008-.376c-.438-1.753.407-3.74-.431-5.342-.911.294-1.91.615-2.822.9-.14.057-.29.082-.44.075a.934.934 0 0 1-.475-.257c-.987-.846-1.61-2.023-2.173-3.187-.563-1.164-1.116-2.364-2.003-3.311-.888-.947-1.718-1.448-3.016-1.311Z"/><path fill="#000" d="M28.327 72.489c-.46.062-.883.285-1.192.63-.732.78-.878 1.969-.62 3.005.257 1.036.848 1.954 1.463 2.829.8 1.14 1.662 2.264 2.774 3.111.602.432 1.227.832 1.872 1.198a30.588 30.588 0 0 1 3.084 2.152c.215.193.462.349.729.46.23.072.471.104.712.093a5.63 5.63 0 0 0 2.353-.543.434.434 0 0 0 .177-.126.467.467 0 0 0 .008-.376c-.438-1.753.406-3.74-.432-5.342-.91.294-1.91.615-2.821.9-.14.057-.29.082-.44.075a.934.934 0 0 1-.476-.257c-.987-.846-1.609-2.023-2.172-3.187-.564-1.164-1.116-2.364-2.004-3.311-.887-.947-1.718-1.448-3.015-1.311Z" opacity=".1"/><path fill="#EFB7B9" d="M33.787 71.02c2.572 0 4.656-2.064 4.656-4.61 0-2.548-2.084-4.613-4.656-4.613-2.571 0-4.655 2.065-4.655 4.612s2.084 4.612 4.655 4.612Z"/><path fill="#51C8B4" d="m35.65 79.681-.011.02c-.269.494-.67.909-.947 1.4-.31.557-.455 1.192-.579 1.818a50.2 50.2 0 0 0-.445 2.547c-1.406-.472-2.964.32-4.42.03-.436-.085-.853-.267-1.297-.287-.325-.015-.65.057-.975.026-.538-.05-1.072-.385-1.586-.215-.23.077-.514.24-.678.063a.486.486 0 0 1-.084-.153c-.133-.365-.27-.757-.174-1.132.083-.32.32-.573.485-.86.284-.5.341-1.092.378-1.666.095-1.482.092-2.974.337-4.44.245-1.464.762-2.92 1.761-4.033.49-.544 1.132-1.007 1.863-1.067 2.689-.215 4.865 1.255 6.04 3.588.682 1.353 1.045 3.022.332 4.361Z"/><path fill="#EFB7B9" d="M43.52 78.236c.41-.343.82-.687 1.195-1.065.53-.556 1.02-1.15 1.465-1.774.475-.641.947-1.297 1.242-2.038.334-.849.436-1.814 1.016-2.518a.582.582 0 0 1 .263-.203c.33-.103.577.307.64.647.31 1.663-.43 3.323-1.15 4.858-.237.505-.485 1.025-.896 1.408-.218.201-.466.356-.706.536a7.36 7.36 0 0 0-1 .975 27.591 27.591 0 0 0-1.476 1.81c-.578.768-1.122 1.573-1.808 2.251-.685.678-1.544 1.23-2.504 1.364.274-.037.184-1.634.155-1.836-.042-.292-.244-.636-.25-.922-.008-.35.137-.401.428-.647l3.386-2.846Z"/><path fill="#000" d="m35.184 79.835-.011.02c-.269.493-.67.908-.947 1.4-.31.557-.454 1.192-.578 1.817-.086.42-.166.841-.238 1.263a17.14 17.14 0 0 1-1.614-1.041c-1.113-.847-1.974-1.971-2.775-3.113-.62-.875-1.21-1.793-1.463-2.827-.253-1.035-.105-2.225.62-3.005a1.956 1.956 0 0 1 1.193-.632c1.297-.137 2.116.36 3.004 1.305.888.945 1.437 2.152 2.004 3.311.25.503.509 1.018.805 1.502Z" opacity=".1"/><path fill="#51C8B4" d="M30.15 73.104c-.46.062-.884.286-1.192.63-.733.781-.878 1.97-.62 3.005.257 1.036.848 1.954 1.462 2.829.801 1.14 1.662 2.264 2.775 3.111.602.432 1.227.832 1.872 1.198a30.558 30.558 0 0 1 3.083 2.152c.216.193.462.349.73.461a2.1 2.1 0 0 0 .712.092 5.632 5.632 0 0 0 2.353-.542.433.433 0 0 0 .177-.126.468.468 0 0 0 .007-.377c-.437-1.753.407-3.74-.431-5.342-.911.294-1.91.615-2.821.9a1.04 1.04 0 0 1-.441.075.934.934 0 0 1-.475-.257c-.987-.846-1.61-2.023-2.173-3.187-.563-1.163-1.115-2.364-2.003-3.31-.888-.948-1.718-1.449-3.015-1.312Z"/><path fill="#464353" d="M36.798 63.188c.451-.508.355-1.33-.039-1.883-.394-.553-1.015-.9-1.618-1.217-.961-.506-2.066-.995-3.104-.661-.405.13-.76.378-1.132.584-.686.378-1.441.615-2.14.968-.698.354-1.365.858-1.666 1.576-.301.718-.202 1.491-.125 2.246.119 1.168.187 2.354.022 3.517-.164 1.164-.572 2.315-1.322 3.228-.524.64-1.22 1.172-1.535 1.934a4.554 4.554 0 0 0-.257 1.364l-.17 1.981c-.066.79-.167 1.654-.743 2.205.739-.17 1.498-.348 2.122-.769.37-.274.708-.59 1.007-.94.59-.645 1.202-1.332 1.38-2.183.131-.637.021-1.36.412-1.88.466-.615 1.439-.615 2.092-.214s1.052 1.105 1.397 1.785c.344.679.701 1.394 1.303 1.87a3.716 3.716 0 0 0 1.689.704c.412.076.881.097 1.207-.164.445-.357.4-1.036.256-1.585-.19-.727-.487-1.485-.28-2.209.067-.241.19-.461.266-.704.091-.347.133-.705.126-1.064.043-1.803.126-3.745-.466-5.479-.189-.554-.697-1.083-.436-1.69.325-.737 1.26-.763 1.754-1.32Z"/><g fill="#000" opacity=".1"><path d="M27.085 66.272c.024-.85-.011-1.702-.107-2.547-.018-.166-.036-.334-.05-.503a7.007 7.007 0 0 0 .05 1.579c.05.489.088.98.107 1.471ZM35.578 76.163c-.326.261-.795.24-1.207.164a3.715 3.715 0 0 1-1.689-.704c-.597-.483-.943-1.196-1.294-1.877-.35-.68-.75-1.383-1.397-1.784-.647-.402-1.635-.4-2.1.213-.392.521-.282 1.244-.414 1.88-.177.852-.79 1.537-1.38 2.183-.298.35-.636.666-1.006.94a4.77 4.77 0 0 1-1.509.627c-.074.461-.288.89-.613 1.23.739-.17 1.498-.348 2.122-.77.37-.274.708-.59 1.007-.94.59-.644 1.202-1.331 1.38-2.183.131-.636.021-1.359.412-1.88.466-.615 1.439-.615 2.092-.214.653.402 1.052 1.106 1.397 1.785.344.68.701 1.39 1.303 1.866a3.716 3.716 0 0 0 1.689.704c.412.076.881.097 1.207-.164.417-.334.404-.953.281-1.48a.87.87 0 0 1-.28.404ZM36.798 62.112c-.494.557-1.43.585-1.75 1.326-.142.324-.058.628.078.922.376-.598 1.214-.66 1.672-1.176.334-.377.368-.922.203-1.407a1.129 1.129 0 0 1-.203.335ZM35.946 70.601c.007.359-.035.717-.126 1.064-.076.24-.199.461-.267.704a2.349 2.349 0 0 0 0 1.108v-.032c.069-.241.191-.461.267-.704.091-.347.133-.705.126-1.064.017-.718.04-1.456.025-2.195-.011.377-.011.746-.025 1.119Z" opacity=".1"/></g></g><defs><clipPath id="clip0"><path fill="#fff" d="M0 0h179v130H0z"/></clipPath></defs></svg>