<svg xmlns="http://www.w3.org/2000/svg" width="36" height="36" fill="none" viewBox="0 0 36 36"><g clip-path="url(#clip0_9473_82422)"><path fill="#FFD4B3" fill-rule="evenodd" d="M15.714 16.867c-1.241.235-2.227-.215-2.772-1.498Z" clip-rule="evenodd"/><path fill="#FFD4B3" d="M27.92 31.761c1.083-.062 3.858-1.878 3.858 1.27-.364 1.697-4.151 2.744-5.526 2.404-1.1-.271-1.617-3.674-1.572-4.096.046-.423.029-1.378 1.382-1.456 1.353-.078 1.342.652 1.859 1.878ZM33.17 20.145l2.237-1.343c1.396-.838 2.394 5.026 0 5.026-1.596 0-2.38-1.552-2.673-2.715-.096-.382.097-.766.435-.968Z"/><path fill="#FFD4B3" fill-rule="evenodd" d="M18.95 11.6c2.545 0 2.29 3.6-.255 3.6Z" clip-rule="evenodd"/><path fill="#FFD4B3" d="M19.173 12.637c0 4.164-3.215 7.54-7.181 7.54-3.967 0-7.182-3.376-7.182-7.54s3.215-7.54 7.182-7.54c3.966 0 7.181 3.376 7.181 7.54Z"/><path fill="#FFD4B3" d="M31.142 25.622c0 5.783-5.18 10.471-11.57 10.471-6.39 0-11.57-4.688-11.57-10.471 0-5.784 5.18-10.472 11.57-10.472 6.39 0 11.57 4.688 11.57 10.472Z"/><path fill="#FFD4B3" d="M16.78 14.475a1 1 0 0 1 1-1h17.15a1 1 0 0 1 1 1v17.267a1 1 0 0 1-1 1H17.78a1 1 0 0 1-1-1V14.475Z"/><path fill="#214766" fill-rule="evenodd" d="M10.754 12.448a1 1 0 0 1 1.32.506c.197.44.432.657.655.767.23.114.559.168 1.026.083a1 1 0 1 1 .356 1.968c-.774.14-1.559.092-2.267-.258-.717-.354-1.247-.963-1.596-1.745a1 1 0 0 1 .506-1.32ZM12.158 8.6a1 1 0 0 1 1.178.782l.352 1.736a1 1 0 1 1-1.96.397l-.352-1.736a1 1 0 0 1 .782-1.179Z" clip-rule="evenodd"/><path fill="#214766" fill-rule="evenodd" d="M16.53.8a1.25 1.25 0 0 1 .855 1.547c-.44 1.523-1.157 2.746-2.235 4.043-.33.397-.953.965-1.696 1.581a50.253 50.253 0 0 1-2.813 2.153c-2.137 1.526-4.765 3.18-7.13 4.196a1.25 1.25 0 0 1-.986-2.297c2.127-.914 4.588-2.451 6.664-3.934a47.737 47.737 0 0 0 2.669-2.042c.742-.616 1.203-1.054 1.37-1.255.91-1.097 1.432-2.02 1.755-3.139A1.25 1.25 0 0 1 16.53.799ZM20.932 14.351a1 1 0 0 1 1.016-.983l4.075.068a1 1 0 1 1-.033 2l-4.075-.068a1 1 0 0 1-.983-1.017ZM24.049 28.17c.07.178.157.402.254.62l.28.632.69-.038c.378-.02.84-.161 1.178-.264l.113-.034c.424-.127.774-.222 1.066-.245a.91.91 0 0 1 .274.01c.022.006.033.01.036.012l.002.001.004.004a.498.498 0 0 1 .057.121c.03.094.06.24.069.458-.047.091-.16.24-.415.429-.323.239-.776.464-1.299.649a7.889 7.889 0 0 1-1.548.375c-.45.06-.78.055-.968.025a1.108 1.108 0 0 1-.146-.206c-.144-.247-.283-.602-.403-1.011a9.824 9.824 0 0 1-.257-1.142 6.222 6.222 0 0 1-.054-.403l-.007-.104.006-.063.001-.012.007-.07c.005-.052.01-.092.017-.128a.361.361 0 0 1 .031-.108.12.12 0 0 1 .016-.01c.03-.016.132-.06.36-.073.247-.013.352.012.383.022a1.765 1.765 0 0 1 .178.362l.075.191Zm.445-2.427c-.373-.138-.776-.167-1.19-.145-.93.051-1.608.422-1.986 1.058-.28.47-.32 1.016-.331 1.177l-.003.038c-.02.164-.005.352.007.478.014.155.038.338.07.538.066.398.169.89.313 1.382.14.483.335 1.012.595 1.459.235.401.657.968 1.35 1.131.517.121 1.151.103 1.753.024a9.88 9.88 0 0 0 1.952-.472c.641-.227 1.29-.533 1.821-.926.516-.38 1.039-.929 1.205-1.67l.025-.108v-.111c0-.874-.199-1.662-.768-2.194-.575-.537-1.298-.597-1.833-.555-.537.042-1.083.203-1.484.323l-.167.05a3.557 3.557 0 0 0-.419-.792 1.963 1.963 0 0 0-.91-.685Z" clip-rule="evenodd"/><path fill="#214766" fill-rule="evenodd" d="M11.855 21.025c.567-.096 1.035.255 1.046.783.021 1.065.25 2.38 1.37 3.317 1.117.934 3.305 1.647 7.677 1.048.567-.077 1.02.29 1.01.822-.008.53-.475 1.024-1.042 1.102-4.682.641-7.5-.058-9.137-1.427-1.633-1.367-1.906-3.25-1.932-4.515-.01-.528.44-1.034 1.008-1.13Z" clip-rule="evenodd"/><path fill="#214766" fill-rule="evenodd" d="M6.193 16.317c.682.043 1.137.633 1.015 1.32-1.188 6.707.355 10.451 2.965 12.265 2.677 1.86 6.853 1.966 11.579.474.679-.214 1.342.141 1.481.795.14.653-.298 1.356-.977 1.57-5.103 1.612-10.176 1.685-13.675-.746-3.566-2.478-5.124-7.286-3.844-14.512.122-.686.774-1.208 1.456-1.166Z" clip-rule="evenodd"/><path fill="#214766" fill-rule="evenodd" d="M33.268 9.995c.235.236.365.556.363.89l-.04 5.487-2.5-.018.03-4.229H17.943v-2.5h14.439c.333 0 .652.133.887.37Zm-19.235 16.94V13.97h2.5v12.966h-2.5Zm16.964.61.134-6.818 2.5.05-.159 8.044a1.25 1.25 0 0 1-1.25 1.225l-3.908-.004.002-2.5 2.68.003Z" clip-rule="evenodd"/><path fill="#214766" fill-rule="evenodd" d="M34.617 20.948c-.262.792-.884 1.783-2.127 1.783-1.316 0-2.185-.857-2.7-1.702-.516-.846-.799-1.86-.935-2.64-.133-.757.213-1.46.76-1.868l2.277-1.7a1.45 1.45 0 0 1 .803-.296 1.4 1.4 0 0 1 .82.225c.394.252.635.656.784.973.317.675.51 1.602.576 2.499.066.897.015 1.902-.258 2.726Zm-2.035-4.146-1.746 1.304c.117.633.336 1.347.662 1.883.338.555.67.742.992.742h.004c.002.002.002.002.019-.014.044-.045.127-.16.206-.398.159-.48.217-1.194.162-1.95-.046-.622-.162-1.18-.3-1.567ZM9.165 4.447a5.931 5.931 0 1 0 5.64 7.776l.28-.862h.907c.341 0 .521-.108.616-.197a.557.557 0 0 0 .174-.36c.01-.127-.03-.204-.065-.243-.022-.023-.128-.13-.47-.13h-1.058l-.175-1.043a5.933 5.933 0 0 0-5.85-4.941ZM.733 10.378a8.431 8.431 0 0 1 16.545-2.3c.5.151.938.418 1.283.795.553.605.768 1.385.714 2.116-.093 1.249-.966 2.415-2.382 2.765a8.431 8.431 0 0 1-16.16-3.376Z" clip-rule="evenodd"/></g><defs><clipPath id="clip0_9473_82422"><path fill="#fff" d="M0 0h36v36H0z"/></clipPath></defs></svg>