<svg width="29" height="34" viewBox="0 0 29 34" fill="none" xmlns="http://www.w3.org/2000/svg">
<path d="M7.33691 12.522C7.33686 22.4417 21.6654 22.4417 21.6654 12.522V8.11322C21.6654 0.122338 7.33691 0.122492 7.33691 8.11322V12.522Z" stroke="#214766" stroke-width="1.22274" stroke-linecap="round"/>
<path d="M10.6445 21.6155V19.4111" stroke="#214766" stroke-width="1.22274" stroke-linecap="round"/>
<path d="M18.3594 21.6155V19.4111" stroke="#214766" stroke-width="1.22274" stroke-linecap="round"/>
<path d="M1 30.4328C1 25.473 1.27555 25.7485 7.8887 23.8197L9.051 22.3253C9.45802 21.802 10.2221 21.7727 10.7786 22.1331C11.6636 22.7064 12.7531 22.993 14.5018 22.993C16.2506 22.993 17.3401 22.7064 18.2251 22.1331C18.7815 21.7727 19.5457 21.802 19.9527 22.3253L21.115 23.8197C27.7281 25.7485 28.0037 25.473 28.0037 30.4328C14.4502 28.5117 13.8388 37.0709 1 30.4328Z" fill="#3879AD"/>
<path d="M7.8887 23.8197C1.27555 25.7485 1 25.473 1 30.4328C13.8388 37.0709 14.4502 28.5117 28.0037 30.4328C28.0037 25.473 27.7281 25.7485 21.115 23.8197M7.8887 23.8197C8.53164 24.7382 10.7544 26.5751 14.5018 26.5751C18.2493 26.5751 20.472 24.7382 21.115 23.8197M7.8887 23.8197L9.051 22.3253C9.45802 21.802 10.2221 21.7727 10.7786 22.1331C11.6636 22.7064 12.7531 22.993 14.5018 22.993C16.2506 22.993 17.3401 22.7064 18.2251 22.1331C18.7815 21.7727 19.5457 21.802 19.9527 22.3253L21.115 23.8197" stroke="#214766" stroke-width="1.22274" stroke-linecap="round"/>
<path d="M21.5908 9.55908V15.0614C22.0392 15.0614 22.4305 14.9722 22.7647 14.8165C25.0553 13.7495 24.664 9.55908 21.5908 9.55908Z" fill="#214766"/>
<path d="M22.7647 14.8165C25.0553 13.7495 24.664 9.55908 21.5908 9.55908V15.0614C22.0392 15.0614 22.4305 14.9722 22.7647 14.8165ZM22.7647 14.8165V15.9139C22.7647 17.1314 21.7777 18.1183 20.5603 18.1183H16.8955" stroke="#214766" stroke-width="1.22274" stroke-linecap="round" stroke-linejoin="round"/>
<path d="M7.30957 9.55908V15.0614C6.86121 15.0614 6.46993 14.9722 6.13574 14.8165C3.84516 13.7495 4.23643 9.55908 7.30957 9.55908Z" fill="#214766" stroke="#214766" stroke-width="1.22274" stroke-linecap="round" stroke-linejoin="round"/>
<path d="M7.33704 8.94014L5.68375 10.0423C5.4082 6.46021 7.33704 -0.318272 17.2568 1.2248C17.2796 1.41909 17.2892 1.60249 17.2863 1.77589L18.6346 1.50034C20.2878 2.41884 23.4842 5.41313 23.0433 10.0423L21.6656 9.76677C19.9204 8.79206 16.3751 6.26422 16.1546 3.95058C14.092 5.48026 9.71605 5.56986 7.33704 8.94014Z" fill="#3879AD"/>
<path d="M17.2863 1.77589C17.2892 1.60249 17.2796 1.41909 17.2568 1.2248C7.33704 -0.318272 5.4082 6.46021 5.68375 10.0423L7.33704 8.94014C9.71605 5.56986 14.092 5.48026 16.1546 3.95058M17.2863 1.77589L18.6346 1.50034C20.2878 2.41884 23.4842 5.41313 23.0433 10.0423L21.6656 9.76677C19.9204 8.79206 16.3751 6.26422 16.1546 3.95058M17.2863 1.77589C17.2698 2.77517 16.8399 3.44235 16.1546 3.95058" stroke="#214766" stroke-width="1.22274" stroke-linecap="round" stroke-linejoin="round"/>
<path d="M13.9512 16.1045C14.5023 16.6556 15.6045 16.6556 16.1556 16.1045" stroke="#214766" stroke-width="1.22274" stroke-linecap="round" stroke-linejoin="round"/>
<path d="M12.2969 11.6955V12.2466" stroke="#214766" stroke-width="1.22274" stroke-linecap="round" stroke-linejoin="round"/>
<path d="M17.2578 12.2466V11.6955" stroke="#214766" stroke-width="1.22274" stroke-linecap="round" stroke-linejoin="round"/>
</svg>
