<svg width="20" height="20" viewBox="0 0 20 20" fill="none" xmlns="http://www.w3.org/2000/svg">
<path d="M10 18.9729C14.9706 18.9729 19 14.9435 19 9.9729C19 5.00234 14.9706 0.9729 10 0.9729C5.02944 0.9729 1 5.00234 1 9.9729C1 14.9435 5.02944 18.9729 10 18.9729Z" stroke="#214766" stroke-width="1.5" stroke-linecap="round" stroke-linejoin="round"/>
<path d="M10 16C10.6213 16 11.125 15.4963 11.125 14.875C11.125 14.2537 10.6213 13.75 10 13.75C9.37868 13.75 8.875 14.2537 8.875 14.875C8.875 15.4963 9.37868 16 10 16Z" fill="#214766"/>
<path d="M10 11.5V10.75C10.5192 10.75 11.0267 10.596 11.4584 10.3076C11.8901 10.0192 12.2265 9.6092 12.4252 9.12955C12.6239 8.64989 12.6758 8.12209 12.5746 7.61289C12.4733 7.10369 12.2233 6.63596 11.8562 6.26885C11.489 5.90173 11.0213 5.65173 10.5121 5.55044C10.0029 5.44915 9.47511 5.50114 8.99546 5.69982C8.5158 5.8985 8.10583 6.23495 7.81739 6.66663C7.52895 7.09831 7.375 7.60583 7.375 8.125" stroke="#214766" stroke-width="1.5" stroke-linecap="round" stroke-linejoin="round"/>
</svg>
