<svg width="36" height="32" viewBox="0 0 36 32" fill="none" xmlns="http://www.w3.org/2000/svg">
<path fill-rule="evenodd" clip-rule="evenodd" d="M14.5693 17.5446L3.42767 19.4439L2.59542 14.5618L1.88206 10.3771L1.04981 5.49501L12.1914 3.5957L12.8805 7.63826C12.4993 7.84872 12.0195 7.76304 11.7351 7.42806C11.505 7.15714 11.1395 7.04295 10.7961 7.13476L10.6219 7.18135C10.5255 7.20713 10.4326 7.24479 10.3455 7.29346L10.2928 7.32293C9.73141 7.6365 9.39672 8.24154 9.42939 8.88371L9.47604 9.80065C9.48976 10.0703 9.53792 10.3371 9.61934 10.5946L9.83324 11.2709C10.0101 11.8303 10.4235 12.2838 10.964 12.5117L11.178 12.6019C11.331 12.6664 11.4973 12.6935 11.6629 12.6808L11.7406 12.6748C12.0949 12.6477 12.402 12.4189 12.5293 12.087C12.6867 11.6767 13.111 11.4369 13.5404 11.5092L14.5693 17.5446Z" fill="#DCEFFF"/>
<path d="M3.42767 19.4439L2.82634 19.5464L2.92885 20.1477L3.53018 20.0452L3.42767 19.4439ZM14.5693 17.5446L14.6718 18.1459L15.2731 18.0434L15.1706 17.4421L14.5693 17.5446ZM2.59542 14.5618L3.19674 14.4593L2.59542 14.5618ZM1.88206 10.3771L2.48338 10.2746L1.88206 10.3771ZM1.04981 5.49501L0.947299 4.89368L0.345974 4.99619L0.448482 5.59752L1.04981 5.49501ZM12.1914 3.5957L12.7927 3.4932L12.6902 2.89187L12.0889 2.99438L12.1914 3.5957ZM12.8805 7.63826L13.1753 8.17229L13.5547 7.96289L13.4819 7.53575L12.8805 7.63826ZM11.7351 7.42806L12.2001 7.03325L12.2001 7.03325L11.7351 7.42806ZM10.7961 7.13476L10.6386 6.54546L10.6386 6.54546L10.7961 7.13476ZM10.6219 7.18135L10.7795 7.77065L10.7795 7.77065L10.6219 7.18135ZM10.3455 7.29346L10.048 6.76092L10.048 6.76092L10.3455 7.29346ZM10.2928 7.32293L10.5902 7.85547L10.5902 7.85547L10.2928 7.32293ZM9.42939 8.88371L10.0386 8.85272L10.0386 8.85272L9.42939 8.88371ZM9.47604 9.80065L10.0853 9.76965L9.47604 9.80065ZM9.61934 10.5946L10.2009 10.4106L9.61934 10.5946ZM9.83324 11.2709L9.25163 11.4549L9.83324 11.2709ZM10.964 12.5117L10.7271 13.0738L10.7271 13.0738L10.964 12.5117ZM11.178 12.6019L10.941 13.164L10.941 13.164L11.178 12.6019ZM11.6629 12.6808L11.7094 13.289L11.7094 13.289L11.6629 12.6808ZM11.7406 12.6748L11.694 12.0666L11.694 12.0666L11.7406 12.6748ZM12.5293 12.087L11.9597 11.8686L12.5293 12.087ZM13.5404 11.5092L14.1417 11.4067L14.0689 10.9796L13.6416 10.9077L13.5404 11.5092ZM3.53018 20.0452L14.6718 18.1459L14.4668 16.9433L3.32516 18.8426L3.53018 20.0452ZM1.99409 14.6643L2.82634 19.5464L4.02899 19.3414L3.19674 14.4593L1.99409 14.6643ZM1.28073 10.4796L1.99409 14.6643L3.19674 14.4593L2.48338 10.2746L1.28073 10.4796ZM0.448482 5.59752L1.28073 10.4796L2.48338 10.2746L1.65113 5.3925L0.448482 5.59752ZM12.0889 2.99438L0.947299 4.89368L1.15231 6.09633L12.2939 4.19703L12.0889 2.99438ZM13.4819 7.53575L12.7927 3.4932L11.5901 3.69821L12.2792 7.74077L13.4819 7.53575ZM11.2701 7.82288C11.7432 8.38005 12.541 8.52246 13.1753 8.17229L12.5857 7.10422C12.4576 7.17498 12.2958 7.14603 12.2001 7.03325L11.2701 7.82288ZM10.9537 7.72406C11.0694 7.69313 11.1926 7.7316 11.2701 7.82288L12.2001 7.03325C11.8175 6.58268 11.2096 6.39278 10.6386 6.54546L10.9537 7.72406ZM10.7795 7.77065L10.9537 7.72406L10.6386 6.54546L10.4643 6.59205L10.7795 7.77065ZM10.643 7.82601C10.686 7.80197 10.7319 7.78338 10.7795 7.77065L10.4643 6.59205C10.3191 6.63088 10.1793 6.6876 10.048 6.76092L10.643 7.82601ZM10.5902 7.85547L10.643 7.82601L10.048 6.76092L9.99528 6.79038L10.5902 7.85547ZM10.0386 8.85272C10.0177 8.44241 10.2316 8.05583 10.5902 7.85547L9.99528 6.79038C9.23124 7.21717 8.77571 8.04068 8.82018 8.91471L10.0386 8.85272ZM10.0853 9.76965L10.0386 8.85272L8.82018 8.91471L8.86683 9.83164L10.0853 9.76965ZM10.2009 10.4106C10.1352 10.2028 10.0963 9.98737 10.0853 9.76965L8.86683 9.83164C8.8832 10.1533 8.94063 10.4715 9.03773 10.7785L10.2009 10.4106ZM10.4148 11.087L10.2009 10.4106L9.03773 10.7785L9.25163 11.4549L10.4148 11.087ZM11.201 11.9496C10.8252 11.7912 10.5378 11.4759 10.4148 11.087L9.25163 11.4549C9.48243 12.1847 10.0218 12.7765 10.7271 13.0738L11.201 11.9496ZM11.415 12.0398L11.201 11.9496L10.7271 13.0738L10.941 13.164L11.415 12.0398ZM11.6163 12.0726C11.5475 12.0778 11.4785 12.0666 11.415 12.0398L10.941 13.164C11.1836 13.2662 11.447 13.3091 11.7094 13.289L11.6163 12.0726ZM11.694 12.0666L11.6163 12.0726L11.7094 13.289L11.7871 13.2831L11.694 12.0666ZM11.9597 11.8686C11.9168 11.9804 11.8134 12.0575 11.694 12.0666L11.7871 13.2831C12.3765 13.2379 12.8871 12.8574 13.0988 12.3055L11.9597 11.8686ZM13.6416 10.9077C12.9271 10.7874 12.2215 11.1861 11.9597 11.8686L13.0988 12.3055C13.1518 12.1673 13.2948 12.0864 13.4392 12.1107L13.6416 10.9077ZM15.1706 17.4421L14.1417 11.4067L12.9391 11.6117L13.9679 17.6471L15.1706 17.4421Z" fill="#214766"/>
<path fill-rule="evenodd" clip-rule="evenodd" d="M14.5149 17.2316L10.7373 17.8756L10.6091 17.6868C10.3678 17.3314 10.4311 16.8516 10.7563 16.571C11.0016 16.3594 11.1045 16.0263 11.0214 15.7133L10.9715 15.5257C10.9473 15.4346 10.9121 15.3469 10.8666 15.2644L10.8404 15.2168C10.5457 14.6823 9.97237 14.3622 9.36272 14.392L8.53119 14.4325C8.27696 14.4449 8.02542 14.4904 7.78291 14.5677L7.17355 14.7621C6.6426 14.9314 6.21354 15.3266 6.0012 15.8418L5.92037 16.038C5.86049 16.1833 5.8358 16.3423 5.84805 16.4989C5.87765 16.8774 6.12106 17.2099 6.47437 17.3486C6.84774 17.4952 7.09596 17.8524 7.1032 18.2534L7.10755 18.4944L3.37332 19.1309L3.39677 19.2685L3.57815 20.3325L5.375 30.873L16.5166 28.9737L15.816 24.864L15.9689 24.7785C16.3359 24.5732 16.7954 24.6429 17.085 24.9478C17.3146 25.1896 17.6571 25.2882 17.9801 25.2056L18.1992 25.1495C18.2928 25.1255 18.3835 25.0912 18.4695 25.0473L18.5052 25.029C19.0809 24.7348 19.4341 24.1339 19.4112 23.4877L19.388 22.8355C19.3788 22.5765 19.3322 22.3202 19.2497 22.0745L19.0972 21.6207C18.9084 21.0586 18.4726 20.6137 17.9145 20.4134L17.7477 20.3535C17.594 20.2984 17.4301 20.2771 17.2674 20.2914L17.1442 20.3021C16.812 20.3311 16.5216 20.5376 16.385 20.8418C16.2128 21.2255 15.8024 21.4435 15.3881 21.3714L15.2155 21.3414L14.5149 17.2316Z" fill="#DCEFFF"/>
<path d="M10.7373 17.8756L10.2327 18.2183L10.4531 18.5428L10.8398 18.4769L10.7373 17.8756ZM14.5149 17.2316L15.1162 17.1291L15.0137 16.5278L14.4124 16.6303L14.5149 17.2316ZM10.6091 17.6868L11.1137 17.3441L11.1137 17.3441L10.6091 17.6868ZM10.7563 16.571L11.1548 17.0329L10.7563 16.571ZM11.0214 15.7133L10.4318 15.8699L10.4318 15.8699L11.0214 15.7133ZM10.9715 15.5257L11.5611 15.3691L11.5611 15.3691L10.9715 15.5257ZM10.8666 15.2644L10.3324 15.5589L10.3324 15.5589L10.8666 15.2644ZM10.8404 15.2168L11.3746 14.9223L11.3746 14.9223L10.8404 15.2168ZM9.36272 14.392L9.39244 15.0013L9.39244 15.0013L9.36272 14.392ZM8.53119 14.4325L8.50148 13.8233L8.50148 13.8233L8.53119 14.4325ZM7.78291 14.5677L7.96827 15.1489L7.96827 15.1489L7.78291 14.5677ZM7.17355 14.7621L7.3589 15.3432L7.17355 14.7621ZM6.0012 15.8418L6.56518 16.0743L6.0012 15.8418ZM5.92037 16.038L6.48435 16.2704L6.48435 16.2704L5.92037 16.038ZM5.84805 16.4989L6.45619 16.4514L5.84805 16.4989ZM6.47437 17.3486L6.25143 17.9164L6.25143 17.9164L6.47437 17.3486ZM7.1032 18.2534L7.7131 18.2424L7.1032 18.2534ZM7.10755 18.4944L7.21006 19.0957L7.72692 19.0076L7.71745 18.4833L7.10755 18.4944ZM3.37332 19.1309L3.27082 18.5296L2.66949 18.6321L2.772 19.2334L3.37332 19.1309ZM3.39677 19.2685L2.79544 19.371L3.39677 19.2685ZM3.57815 20.3325L4.17947 20.23L3.57815 20.3325ZM5.375 30.873L4.77367 30.9756L4.87618 31.5769L5.47751 31.4744L5.375 30.873ZM16.5166 28.9737L16.6191 29.5751L17.2204 29.4726L17.1179 28.8712L16.5166 28.9737ZM15.816 24.864L15.5182 24.3316L15.1423 24.5419L15.2147 24.9665L15.816 24.864ZM15.9689 24.7785L15.6711 24.2461L15.6711 24.2461L15.9689 24.7785ZM17.085 24.9478L17.5273 24.5278L17.5273 24.5278L17.085 24.9478ZM17.9801 25.2056L18.1314 25.7965L18.1314 25.7965L17.9801 25.2056ZM18.1992 25.1495L18.048 24.5585L18.048 24.5585L18.1992 25.1495ZM18.4695 25.0473L18.7471 25.5904L18.7471 25.5904L18.4695 25.0473ZM18.5052 25.029L18.2276 24.4859L18.2276 24.4859L18.5052 25.029ZM19.4112 23.4877L20.0208 23.4661L20.0208 23.4661L19.4112 23.4877ZM19.388 22.8355L18.7784 22.8571L18.7784 22.8571L19.388 22.8355ZM19.2497 22.0745L19.8279 21.8803L19.8279 21.8803L19.2497 22.0745ZM19.0972 21.6207L18.519 21.815L19.0972 21.6207ZM17.9145 20.4134L18.1205 19.8393L18.1205 19.8393L17.9145 20.4134ZM17.7477 20.3535L17.5416 20.9277L17.5416 20.9277L17.7477 20.3535ZM17.2674 20.2914L17.3205 20.899L17.3205 20.899L17.2674 20.2914ZM17.1442 20.3021L17.0912 19.6944L17.0912 19.6944L17.1442 20.3021ZM16.385 20.8418L15.8285 20.5921L15.8285 20.5921L16.385 20.8418ZM15.3881 21.3714L15.2835 21.9724L15.2835 21.9724L15.3881 21.3714ZM15.2155 21.3414L14.6142 21.4439L14.6866 21.8685L15.1109 21.9423L15.2155 21.3414ZM10.8398 18.4769L14.6174 17.8329L14.4124 16.6303L10.6348 17.2743L10.8398 18.4769ZM10.1045 18.0295L10.2327 18.2183L11.2419 17.5329L11.1137 17.3441L10.1045 18.0295ZM10.3579 16.1091C9.79809 16.5921 9.68911 17.4179 10.1045 18.0295L11.1137 17.3441C11.0464 17.245 11.0641 17.1112 11.1548 17.0329L10.3579 16.1091ZM10.4318 15.8699C10.455 15.9572 10.4263 16.0501 10.3579 16.1091L11.1548 17.0329C11.5769 16.6687 11.754 16.0955 11.6109 15.5567L10.4318 15.8699ZM10.382 15.6823L10.4318 15.8699L11.6109 15.5567L11.5611 15.3691L10.382 15.6823ZM10.3324 15.5589C10.3539 15.5978 10.3706 15.6393 10.382 15.6823L11.5611 15.3691C11.5241 15.23 11.4703 15.0959 11.4008 14.9699L10.3324 15.5589ZM10.3062 15.5113L10.3324 15.5589L11.4008 14.9699L11.3746 14.9223L10.3062 15.5113ZM9.39244 15.0013C9.76943 14.9829 10.124 15.1808 10.3062 15.5113L11.3746 14.9223C10.9675 14.1838 10.1753 13.7416 9.33301 13.7827L9.39244 15.0013ZM8.56091 15.0418L9.39244 15.0013L9.33301 13.7827L8.50148 13.8233L8.56091 15.0418ZM7.96827 15.1489C8.16033 15.0876 8.35955 15.0516 8.56091 15.0418L8.50148 13.8233C8.19436 13.8382 7.8905 13.8931 7.59756 13.9866L7.96827 15.1489ZM7.3589 15.3432L7.96827 15.1489L7.59756 13.9866L6.98819 14.1809L7.3589 15.3432ZM6.56518 16.0743C6.70894 15.7254 6.99943 15.4579 7.3589 15.3432L6.98819 14.1809C6.28577 14.4049 5.71814 14.9277 5.43721 15.6094L6.56518 16.0743ZM6.48435 16.2704L6.56518 16.0743L5.43721 15.6094L5.35639 15.8055L6.48435 16.2704ZM6.45619 16.4514C6.45133 16.3892 6.46136 16.3262 6.48435 16.2704L5.35639 15.8055C5.25962 16.0403 5.22026 16.2954 5.23991 16.5465L6.45619 16.4514ZM6.6973 16.7808C6.56417 16.7286 6.46781 16.5999 6.45619 16.4514L5.23991 16.5465C5.28748 17.1548 5.67795 17.6913 6.25143 17.9164L6.6973 16.7808ZM7.7131 18.2424C7.70141 17.5946 7.30043 17.0176 6.6973 16.7808L6.25143 17.9164C6.39504 17.9728 6.49052 18.1102 6.4933 18.2645L7.7131 18.2424ZM7.71745 18.4833L7.7131 18.2424L6.4933 18.2645L6.49765 18.5054L7.71745 18.4833ZM3.47583 19.7323L7.21006 19.0957L7.00505 17.893L3.27082 18.5296L3.47583 19.7323ZM3.99809 19.1659L3.97465 19.0284L2.772 19.2334L2.79544 19.371L3.99809 19.1659ZM4.17947 20.23L3.99809 19.1659L2.79544 19.371L2.97682 20.435L4.17947 20.23ZM5.97633 30.7705L4.17947 20.23L2.97682 20.435L4.77367 30.9756L5.97633 30.7705ZM16.4141 28.3724L5.27249 30.2717L5.47751 31.4744L16.6191 29.5751L16.4141 28.3724ZM15.2147 24.9665L15.9153 29.0762L17.1179 28.8712L16.4173 24.7615L15.2147 24.9665ZM15.6711 24.2461L15.5182 24.3316L16.1138 25.3964L16.2667 25.3108L15.6711 24.2461ZM17.5273 24.5278C17.0457 24.0206 16.2815 23.9047 15.6711 24.2461L16.2667 25.3108C16.3903 25.2417 16.5451 25.2652 16.6427 25.3679L17.5273 24.5278ZM17.8288 24.6146C17.72 24.6425 17.6047 24.6092 17.5273 24.5278L16.6427 25.3679C17.0245 25.77 17.5941 25.934 18.1314 25.7965L17.8288 24.6146ZM18.048 24.5585L17.8288 24.6146L18.1314 25.7965L18.3505 25.7404L18.048 24.5585ZM18.1919 24.5041C18.1461 24.5275 18.0978 24.5458 18.048 24.5585L18.3505 25.7404C18.4878 25.7053 18.6209 25.655 18.7471 25.5904L18.1919 24.5041ZM18.2276 24.4859L18.1919 24.5041L18.7471 25.5904L18.7827 25.5722L18.2276 24.4859ZM18.8015 23.5094C18.8161 23.9187 18.5923 24.2995 18.2276 24.4859L18.7827 25.5722C19.5694 25.1702 20.0522 24.349 20.0208 23.4661L18.8015 23.5094ZM18.7784 22.8571L18.8015 23.5094L20.0208 23.4661L19.9976 22.8138L18.7784 22.8571ZM18.6714 22.2688C18.7352 22.4587 18.7712 22.6569 18.7784 22.8571L19.9976 22.8138C19.9863 22.4961 19.9292 22.1817 19.8279 21.8803L18.6714 22.2688ZM18.519 21.815L18.6714 22.2688L19.8279 21.8803L19.6755 21.4265L18.519 21.815ZM17.7084 20.9875C18.0909 21.1248 18.3896 21.4297 18.519 21.815L19.6755 21.4265C19.4272 20.6874 18.8544 20.1026 18.1205 19.8393L17.7084 20.9875ZM17.5416 20.9277L17.7084 20.9875L18.1205 19.8393L17.9538 19.7794L17.5416 20.9277ZM17.3205 20.899C17.3954 20.8925 17.4708 20.9023 17.5416 20.9277L17.9538 19.7794C17.7171 19.6945 17.4649 19.6618 17.2144 19.6837L17.3205 20.899ZM17.1973 20.9098L17.3205 20.899L17.2144 19.6837L17.0912 19.6944L17.1973 20.9098ZM16.9415 21.0916C16.9875 20.9891 17.0854 20.9196 17.1973 20.9098L17.0912 19.6944C16.5387 19.7427 16.0556 20.0861 15.8285 20.5921L16.9415 21.0916ZM15.2835 21.9724C15.9725 22.0923 16.6552 21.7297 16.9416 21.0916L15.8285 20.5921C15.7705 20.7213 15.6323 20.7947 15.4927 20.7704L15.2835 21.9724ZM15.1109 21.9423L15.2835 21.9724L15.4927 20.7704L15.3201 20.7404L15.1109 21.9423ZM13.9136 17.3341L14.6142 21.4439L15.8168 21.2389L15.1162 17.1291L13.9136 17.3341Z" fill="#214766"/>
<path fill-rule="evenodd" clip-rule="evenodd" d="M28.3025 17.5221L27.8205 18.3919L27.8204 18.3918L27.7581 18.5042L24.604 16.756L24.4767 16.9194C24.2446 17.2172 24.2212 17.6309 24.4141 17.9554C24.5936 18.2576 24.5837 18.6401 24.3853 18.9302C24.3032 19.0502 24.1933 19.1486 24.065 19.217L23.8803 19.3156C23.4286 19.5565 22.8943 19.5884 22.4171 19.403L21.815 19.169C21.5939 19.0831 21.3846 18.9696 21.1918 18.8313L20.5155 18.3461C20.0593 18.0187 19.8277 17.4613 19.9176 16.9071L19.9265 16.8526C19.9405 16.7662 19.9653 16.6818 20.0004 16.6016L20.0678 16.4475C20.1894 16.1695 20.4613 15.9873 20.7646 15.9805C21.1685 15.9714 21.4985 15.6554 21.5251 15.2523L21.5381 15.0566L18.3471 13.288L20.2091 9.92864L20.0883 9.79459C19.8254 9.50299 19.4007 9.42167 19.0486 9.59551C18.7686 9.73379 18.4362 9.71273 18.1758 9.54021L18.0687 9.46923C17.9397 9.38373 17.8302 9.27197 17.7473 9.14126L17.6636 9.00934C17.3604 8.53111 17.2952 7.93954 17.4872 7.40679L17.6233 7.02907C17.7061 6.79934 17.8227 6.58325 17.9692 6.38795L18.3049 5.94075C18.6749 5.4477 19.2979 5.21491 19.9006 5.34447L19.9334 5.35151C20.0225 5.37068 20.1094 5.3994 20.1924 5.43718L20.3982 5.5308C20.6824 5.66014 20.8765 5.93088 20.9076 6.24163C20.9467 6.6323 21.2408 6.94936 21.6274 7.01778L21.8051 7.04924L23.6671 3.68993L33.078 8.9062L28.3024 17.5221L28.3025 17.5221Z" fill="#3879AD"/>
<path d="M27.8205 18.3919L27.5247 18.9254L28.0583 19.2211L28.354 18.6876L27.8205 18.3919ZM28.3025 17.5221L28.836 17.8179L29.1318 17.2843L28.5982 16.9886L28.3025 17.5221ZM27.8204 18.3918L28.1161 17.8583L27.5826 17.5626L27.2868 18.0961L27.8204 18.3918ZM27.7581 18.5042L27.4623 19.0377L27.9959 19.3335L28.2916 18.7999L27.7581 18.5042ZM24.604 16.756L24.8997 16.2225L24.4434 15.9695L24.1228 16.3811L24.604 16.756ZM24.4767 16.9194L24.9579 17.2943L24.4767 16.9194ZM24.4141 17.9554L23.8896 18.267L23.8896 18.267L24.4141 17.9554ZM24.3853 18.9302L24.8887 19.2746L24.8887 19.2746L24.3853 18.9302ZM24.065 19.217L24.3521 19.7553L24.3521 19.7553L24.065 19.217ZM23.8803 19.3156L24.1674 19.8538L23.8803 19.3156ZM22.4171 19.403L22.6381 18.8344L22.6381 18.8344L22.4171 19.403ZM21.815 19.169L21.594 19.7376L21.815 19.169ZM21.1918 18.8313L20.8362 19.3269L20.8362 19.3269L21.1918 18.8313ZM20.5155 18.3461L20.8712 17.8505L20.5155 18.3461ZM19.9176 16.9071L19.3155 16.8094L19.3155 16.8094L19.9176 16.9071ZM19.9265 16.8526L20.5286 16.9503L20.5286 16.9503L19.9265 16.8526ZM20.0004 16.6016L20.5593 16.846L20.5593 16.846L20.0004 16.6016ZM20.0678 16.4475L20.6267 16.692L20.0678 16.4475ZM20.7646 15.9805L20.7783 16.5903L20.7783 16.5903L20.7646 15.9805ZM21.5251 15.2523L20.9165 15.2122L21.5251 15.2523ZM21.5381 15.0566L22.1467 15.0968L22.1722 14.7107L21.8338 14.5231L21.5381 15.0566ZM18.3471 13.288L17.8136 12.9922L17.5179 13.5258L18.0514 13.8215L18.3471 13.288ZM20.2091 9.92864L20.7427 10.2244L20.9537 9.84354L20.6622 9.52017L20.2091 9.92864ZM20.0883 9.79459L20.5413 9.38611L20.5413 9.38611L20.0883 9.79459ZM19.0486 9.59551L19.3187 10.1425L19.0486 9.59551ZM18.1758 9.54021L17.8389 10.0487L18.1758 9.54021ZM18.0687 9.46923L18.4057 8.96075L18.0687 9.46923ZM17.7473 9.14126L17.2321 9.46793L17.2321 9.46793L17.7473 9.14126ZM17.6636 9.00934L18.1788 8.68267L18.1788 8.68267L17.6636 9.00934ZM17.4872 7.40679L18.0611 7.61356L18.0611 7.61356L17.4872 7.40679ZM17.6233 7.02907L17.0494 6.8223L17.0494 6.8223L17.6233 7.02907ZM17.9692 6.38795L18.4571 6.75412L18.4571 6.75412L17.9692 6.38795ZM18.3049 5.94075L17.817 5.57459L17.817 5.57459L18.3049 5.94075ZM19.9006 5.34447L20.0288 4.7481L20.0288 4.7481L19.9006 5.34447ZM19.9334 5.35151L19.8051 5.94789L19.8051 5.94789L19.9334 5.35151ZM20.1924 5.43718L20.445 4.88195L20.445 4.88194L20.1924 5.43718ZM20.3982 5.5308L20.1455 6.08603L20.1455 6.08603L20.3982 5.5308ZM20.9076 6.24163L21.5146 6.18082L21.5146 6.18082L20.9076 6.24163ZM21.6274 7.01778L21.5211 7.61845L21.5211 7.61845L21.6274 7.01778ZM21.8051 7.04924L21.6988 7.6499L22.1276 7.72578L22.3387 7.34496L21.8051 7.04924ZM23.6671 3.68993L23.9628 3.15641L23.4293 2.86069L23.1336 3.39421L23.6671 3.68993ZM33.078 8.9062L33.6116 9.20192L33.9073 8.6684L33.3738 8.37268L33.078 8.9062ZM28.3024 17.5221L27.7689 17.2264L27.4732 17.7599L28.0067 18.0556L28.3024 17.5221ZM28.354 18.6876L28.836 17.8179L27.769 17.2264L27.2869 18.0961L28.354 18.6876ZM27.5246 18.9253L27.5247 18.9254L28.1162 17.8583L28.1161 17.8583L27.5246 18.9253ZM28.2916 18.7999L28.3539 18.6875L27.2868 18.0961L27.2245 18.2085L28.2916 18.7999ZM24.3083 17.2895L27.4623 19.0377L28.0538 17.9707L24.8997 16.2225L24.3083 17.2895ZM24.9579 17.2943L25.0852 17.1309L24.1228 16.3811L23.9955 16.5445L24.9579 17.2943ZM24.9385 17.6439C24.8721 17.5321 24.8824 17.3912 24.9579 17.2943L23.9955 16.5445C23.6069 17.0432 23.5704 17.7296 23.8896 18.267L24.9385 17.6439ZM24.8887 19.2746C25.2231 18.7858 25.2376 18.1472 24.9385 17.6439L23.8896 18.267C23.9496 18.3679 23.9443 18.4944 23.8818 18.5858L24.8887 19.2746ZM24.3521 19.7553C24.5671 19.6406 24.7512 19.4757 24.8887 19.2746L23.8818 18.5858C23.8552 18.6247 23.8195 18.6566 23.7779 18.6788L24.3521 19.7553ZM24.1674 19.8538L24.3521 19.7553L23.7779 18.6788L23.5932 18.7774L24.1674 19.8538ZM22.1961 19.9716C22.839 20.2214 23.5589 20.1784 24.1674 19.8538L23.5932 18.7774C23.2984 18.9346 22.9496 18.9555 22.6381 18.8344L22.1961 19.9716ZM21.594 19.7376L22.1961 19.9716L22.6381 18.8344L22.036 18.6004L21.594 19.7376ZM20.8362 19.3269C21.0706 19.4951 21.3252 19.6331 21.594 19.7376L22.036 18.6004C21.8627 18.5331 21.6985 18.4441 21.5475 18.3357L20.8362 19.3269ZM20.1599 18.8417L20.8362 19.3269L21.5475 18.3357L20.8712 17.8505L20.1599 18.8417ZM19.3155 16.8094C19.1885 17.5922 19.5156 18.3794 20.1599 18.8417L20.8712 17.8505C20.603 17.6581 20.4669 17.3305 20.5198 17.0047L19.3155 16.8094ZM19.3243 16.7549L19.3155 16.8094L20.5198 17.0047L20.5286 16.9503L19.3243 16.7549ZM19.4415 16.3571C19.3859 16.4843 19.3466 16.6179 19.3243 16.7549L20.5286 16.9503C20.5344 16.9144 20.5447 16.8794 20.5593 16.846L19.4415 16.3571ZM19.5089 16.2031L19.4415 16.3571L20.5593 16.846L20.6267 16.692L19.5089 16.2031ZM20.751 15.3706C20.2102 15.3828 19.7257 15.7076 19.5089 16.2031L20.6267 16.692C20.6532 16.6315 20.7123 16.5918 20.7783 16.5903L20.751 15.3706ZM20.9165 15.2122C20.9107 15.2999 20.8388 15.3687 20.751 15.3706L20.7783 16.5903C21.4981 16.5742 22.0864 16.0109 22.1338 15.2925L20.9165 15.2122ZM20.9294 15.0164L20.9165 15.2122L22.1338 15.2925L22.1467 15.0968L20.9294 15.0164ZM18.0514 13.8215L21.2423 15.5901L21.8338 14.5231L18.6429 12.7544L18.0514 13.8215ZM19.6756 9.63292L17.8136 12.9922L18.8807 13.5837L20.7427 10.2244L19.6756 9.63292ZM19.6352 10.2031L19.7561 10.3371L20.6622 9.52017L20.5413 9.38611L19.6352 10.2031ZM19.3187 10.1425C19.4259 10.0895 19.5552 10.1143 19.6352 10.2031L20.5413 9.38611C20.0955 8.89169 19.3754 8.7538 18.7785 9.04857L19.3187 10.1425ZM17.8389 10.0487C18.2803 10.3412 18.8439 10.3769 19.3187 10.1425L18.7785 9.04857C18.6933 9.09067 18.5921 9.08425 18.5128 9.03173L17.8389 10.0487ZM17.7318 9.97771L17.8389 10.0487L18.5128 9.03173L18.4057 8.96075L17.7318 9.97771ZM17.2321 9.46793C17.361 9.6711 17.5312 9.84481 17.7318 9.97771L18.4057 8.96075C18.3482 8.92264 18.2994 8.87284 18.2624 8.81458L17.2321 9.46793ZM17.1485 9.33601L17.2321 9.46793L18.2624 8.81459L18.1788 8.68267L17.1485 9.33601ZM16.9133 7.20002C16.6575 7.91011 16.7443 8.69859 17.1485 9.33601L18.1788 8.68267C17.9765 8.36362 17.933 7.96897 18.0611 7.61356L16.9133 7.20002ZM17.0494 6.8223L16.9133 7.20002L18.0611 7.61356L18.1972 7.23584L17.0494 6.8223ZM17.4814 6.02179C17.2983 6.26564 17.1527 6.53546 17.0494 6.8223L18.1972 7.23584C18.2594 7.06323 18.347 6.90086 18.4571 6.75412L17.4814 6.02179ZM17.817 5.57459L17.4814 6.02179L18.4571 6.75412L18.7927 6.30692L17.817 5.57459ZM20.0288 4.7481C19.1934 4.56851 18.3299 4.89119 17.817 5.57459L18.7927 6.30692C19.0199 6.00422 19.4024 5.8613 19.7724 5.94085L20.0288 4.7481ZM20.0616 4.75514L20.0288 4.7481L19.7724 5.94085L19.8051 5.94789L20.0616 4.75514ZM20.445 4.88194C20.3221 4.82603 20.1936 4.78352 20.0616 4.75514L19.8051 5.94789C19.8515 5.95785 19.8966 5.97278 19.9398 5.99241L20.445 4.88194ZM20.6508 4.97557L20.445 4.88195L19.9398 5.99241L20.1455 6.08603L20.6508 4.97557ZM21.5146 6.18082C21.4618 5.65393 21.1328 5.19487 20.6508 4.97557L20.1455 6.08603C20.2321 6.12541 20.2912 6.20784 20.3006 6.30244L21.5146 6.18082ZM21.7337 6.41712C21.616 6.39629 21.5265 6.29976 21.5146 6.18082L20.3006 6.30244C20.367 6.96485 20.8656 7.50243 21.5211 7.61845L21.7337 6.41712ZM21.9114 6.44857L21.7337 6.41712L21.5211 7.61845L21.6988 7.6499L21.9114 6.44857ZM23.1336 3.39421L21.2716 6.75352L22.3387 7.34496L24.2006 3.98565L23.1336 3.39421ZM33.3738 8.37268L23.9628 3.15641L23.3714 4.22346L32.7823 9.43973L33.3738 8.37268ZM28.836 17.8178L33.6116 9.20192L32.5445 8.61048L27.7689 17.2264L28.836 17.8178ZM28.5982 16.9886L28.5982 16.9886L28.0067 18.0556L28.0068 18.0557L28.5982 16.9886Z" fill="#214766"/>
</svg>
