<?xml version="1.0" standalone="no"?>
<!DOCTYPE svg PUBLIC "-//W3C//DTD SVG 1.1//EN" "http://www.w3.org/Graphics/SVG/1.1/DTD/svg11.dtd" >
<svg xmlns="http://www.w3.org/2000/svg">
<metadata></metadata>
<defs>
<font id="swedbank_headlineblack" horiz-adv-x="596" >
<font-face units-per-em="1000" ascent="750" descent="-250" />
<missing-glyph horiz-adv-x="245" />
<glyph unicode="fi" horiz-adv-x="668" d="M456 0v374h-211v-374h-161v374h-59v130h59v36q0 46 14 81.5t39 59t60 35.5t76 12q59 0 114 -23l-33 -121q-29 12 -54 12q-30 0 -42.5 -15.5t-12.5 -41.5v-35h372v-504h-161zM627 645q0 -38 -26.5 -64t-64.5 -26t-64 26t-26 64t26 64.5t64 26.5t64.5 -26.5t26.5 -64.5z " />
<glyph unicode="fl" horiz-adv-x="677" d="M457 0v595l-157 1q-30 0 -42.5 -15.5t-12.5 -41.5v-35h99v-130h-99v-374h-161v374h-59v130h59v36q0 46 14 81.5t39 59t60 35.5t76 12h345v-728h-161z" />
<glyph horiz-adv-x="0" d="M0 0z" />
<glyph horiz-adv-x="0" d="M0 0z" />
<glyph unicode=" " horiz-adv-x="245" d="M0 0z" />
<glyph unicode="!" horiz-adv-x="335" d="M104 254l-24 293v153h178v-153l-24 -293h-130zM169 -8q-40 0 -67.5 27.5t-27.5 67.5q0 19 7.5 36.5t20 30.5t30 20.5t37.5 7.5q19 0 36.5 -7.5t30.5 -20.5t20.5 -30.5t7.5 -36.5q0 -20 -7.5 -37.5t-20.5 -30t-30.5 -20t-36.5 -7.5z" />
<glyph unicode="&#x22;" horiz-adv-x="489" d="M94 449l-34 259h162l-35 -259h-93zM302 449l-35 259h162l-34 -259h-93z" />
<glyph unicode="#" horiz-adv-x="720" d="M423 405h-104l-22 -110h104zM341 0l37 186h-103l-39 -186h-112l39 186h-114v109h136l23 110h-118v109h140l38 186h111l-37 -186h103l39 186h112l-39 -186h114v-109h-136l-23 -110h118v-109h-140l-38 -186h-111z" />
<glyph unicode="$" horiz-adv-x="496" d="M199 -110v108q-72 16 -115 66.5t-57 118.5l118 83q6 -26 16 -49.5t23.5 -41.5t31.5 -28.5t41 -10.5q25 0 42.5 14t17.5 46q0 26 -12 42.5t-30 30.5q-9 6 -21 13.5t-24.5 15t-23.5 13.5q-12 6 -19 10q-22 12 -44 28.5t-40 40t-29 54t-11 69.5q0 69 35 119t101 68v90h110 v-86q97 -18 148 -122l-114 -83q-17 34 -35.5 51.5t-46.5 17.5q-24 0 -39 -12.5t-15 -35.5q0 -22 13 -37t31 -27q22 -16 41 -25t49 -25q25 -14 48 -31t40.5 -39.5t28 -53t10.5 -72.5q0 -85 -42 -141.5t-117 -71.5v-107h-110z" />
<glyph unicode="%" horiz-adv-x="837" d="M373 544q0 -40 -14 -70t-37 -50t-53 -30t-63 -10q-32 0 -62.5 10t-53.5 30t-37 50t-14 70q0 41 14 71t37.5 50t53.5 29.5t62 9.5t62 -10t53.5 -29.5t37.5 -50t14 -70.5zM207 477q24 0 41 17.5t17 49.5q0 33 -17 50t-41 17q-25 0 -42.5 -17t-17.5 -50q0 -32 17.5 -49.5 t42.5 -17.5zM798 156q0 -40 -14 -70t-37 -50t-53 -30t-63 -10q-32 0 -62.5 10t-53.5 30t-37 50t-14 70q0 41 14 71t37.5 50t53.5 29.5t62 9.5t62 -10t53.5 -29.5t37.5 -50t14 -70.5zM632 89q24 0 41 17.5t17 49.5q0 33 -17 50t-41 17q-25 0 -42.5 -17t-17.5 -50 q0 -32 17.5 -49.5t42.5 -17.5zM110 23l541 720l78 -63l-541 -720z" />
<glyph unicode="&#x26;" horiz-adv-x="671" d="M475 0l-34 44q-37 -24 -82 -38t-96 -14t-93.5 14.5t-73 41.5t-47.5 66t-17 89q0 75 35.5 128.5t89.5 88.5q-48 63 -48 128q0 34 12.5 63.5t36 51t57 33.5t76.5 12q40 0 73.5 -11t57 -31.5t36.5 -49.5t13 -64q0 -49 -27 -90t-84 -78l110 -142l90 69l85 -108l-92 -70 l104 -133h-182zM237 311q-22 -18 -35.5 -43t-13.5 -55q0 -37 22 -65t62 -28q22 0 44 9t41 24zM278 488q23 11 38.5 28.5t15.5 37.5q0 17 -11 27.5t-29 10.5q-17 0 -28.5 -10t-11.5 -31q0 -16 7.5 -32t18.5 -31z" />
<glyph unicode="'" horiz-adv-x="287" d="M96 449l-36 259h167l-36 -259h-95z" />
<glyph unicode="(" horiz-adv-x="307" d="M180 -89q-20 34 -43 79t-42.5 100t-33 120t-13.5 140t13.5 140t33 120t42.5 99.5t43 79.5l106 -39q-50 -84 -77.5 -183t-27.5 -217t27.5 -217t77.5 -183z" />
<glyph unicode=")" horiz-adv-x="307" d="M21 -50q50 84 77.5 183t27.5 217t-27.5 217t-77.5 183l106 39q19 -35 42.5 -79.5t43 -99.5t33 -120t13.5 -140t-13.5 -140t-33 -120t-43 -100t-42.5 -79z" />
<glyph unicode="*" horiz-adv-x="474" d="M308 330l-71 98l-71 -98l-85 62l70 97l-113 36l33 101l114 -37v119h104v-119l114 37l33 -101l-113 -36l70 -97z" />
<glyph unicode="+" horiz-adv-x="578" d="M355 251v-182h-132v182h-182v132h182v182h132v-182h182v-132h-182z" />
<glyph unicode="," horiz-adv-x="343" d="M55 -122q31 20 53.5 49t30.5 66q-39 6 -58 32t-19 59q0 19 7 36t19.5 30t30.5 20.5t39 7.5q24 0 42 -9t30 -23.5t18 -33.5t6 -40q0 -37 -16.5 -73.5t-42.5 -68t-57.5 -56t-62.5 -37.5z" />
<glyph unicode="-" horiz-adv-x="388" d="M49 187v140h290v-140h-290z" />
<glyph unicode="." horiz-adv-x="310" d="M155 -8q-40 0 -67.5 27.5t-27.5 67.5q0 19 7.5 36.5t20 30.5t30 20.5t37.5 7.5q19 0 36.5 -7.5t30.5 -20.5t20.5 -30.5t7.5 -36.5q0 -20 -7.5 -37.5t-20.5 -30t-30.5 -20t-36.5 -7.5z" />
<glyph unicode="/" horiz-adv-x="571" d="M9 -50l438 800h138l-438 -800h-138z" />
<glyph unicode="0" horiz-adv-x="658" d="M329 -8q-56 0 -108.5 22t-93 66t-65 111.5t-24.5 158.5t24.5 158.5t65 111.5t93 66t108.5 22t108.5 -22t93 -66t65 -111.5t24.5 -158.5t-24.5 -158.5t-65 -111.5t-93 -66t-108.5 -22zM329 140q48 0 82.5 51.5t34.5 158.5t-34.5 158.5t-82.5 51.5t-82.5 -51.5 t-34.5 -158.5t34.5 -158.5t82.5 -51.5z" />
<glyph unicode="1" horiz-adv-x="416" d="M182 0v488l-97 -40l-52 131l227 121h92v-700h-170z" />
<glyph unicode="2" horiz-adv-x="610" d="M58 0v83l244 271q36 41 53 68.5t17 57.5t-19 55t-65 25q-44 0 -66.5 -26t-22.5 -74h-140q0 49 13.5 94t42.5 79.5t74.5 54.5t108.5 20q52 0 97.5 -14.5t79 -42.5t52.5 -68.5t19 -91.5q0 -61 -26 -109.5t-71 -92.5l-149 -145h248v-144h-490z" />
<glyph unicode="3" horiz-adv-x="608" d="M266 297v132h29q42 0 62.5 19.5t20.5 45.5t-20.5 46t-64.5 20q-43 0 -65 -19.5t-36 -46.5l-135 55q25 69 85.5 114t158.5 45q58 0 104.5 -16t79 -44t50 -64.5t17.5 -76.5q0 -44 -22.5 -81t-76.5 -64q53 -26 81 -65.5t28 -93.5q0 -44 -19 -82t-53.5 -67t-82.5 -45.5 t-107 -16.5t-104.5 16.5t-78 44t-51 64t-23.5 77.5l152 22q9 -36 33.5 -56t66.5 -20q45 0 69 21.5t24 55.5t-23.5 57t-68.5 23h-30z" />
<glyph unicode="4" horiz-adv-x="642" d="M359 0v116h-314v110l334 474h140v-434h85v-150h-85v-116h-160zM359 474l-147 -208h147v208z" />
<glyph unicode="5" horiz-adv-x="606" d="M260 556l-24 -104q22 10 44.5 15t50.5 5q54 0 97 -19t73 -51.5t46 -75.5t16 -90q0 -50 -18 -94t-52 -77.5t-84 -53t-113 -19.5q-86 0 -151.5 37t-101.5 111l132 72q19 -34 45.5 -53t66.5 -19q49 0 75.5 27t26.5 69q0 43 -28 70.5t-82 27.5q-29 0 -56 -8.5t-53 -22.5 l-90 34l74 363h372v-144h-266z" />
<glyph unicode="6" horiz-adv-x="605" d="M405 230q0 41 -25 67.5t-72 26.5t-72 -26.5t-25 -67.5t25 -68t72 -27t72 27t25 68zM318 455q11 2 23 1.5t23 -2.5q41 -6 77.5 -23.5t63.5 -45.5t43 -66t16 -86q0 -49 -17 -93t-50 -77t-80.5 -52t-108.5 -19t-108.5 19.5t-80.5 52t-50 75.5t-17 91q0 32 10.5 67.5 t41.5 86.5l191 316h177l-131 -211q-10 -16 -14.5 -22t-9.5 -10z" />
<glyph unicode="7" horiz-adv-x="545" d="M71 0l265 556h-299v144h490v-85l-284 -615h-172z" />
<glyph unicode="8" horiz-adv-x="608" d="M447 374q53 -20 81 -67t28 -102q0 -43 -17.5 -81.5t-50.5 -68t-79.5 -46.5t-104.5 -17t-104.5 17t-79.5 46.5t-50.5 68t-17.5 81.5q0 55 28 102t81 67q-43 22 -61 59.5t-18 77.5q0 39 15.5 75t44 63t70 43t92.5 16t92.5 -16t70 -43t44 -63t15.5 -75q0 -40 -18 -77 t-61 -60zM392 215q0 35 -23 61.5t-65 26.5t-65 -26.5t-23 -61.5t23 -61.5t65 -26.5t65 26.5t23 61.5zM372 507q0 28 -18 49t-50 21t-50 -21t-18 -49q0 -26 16.5 -47t51.5 -21t51.5 21t16.5 47z" />
<glyph unicode="9" horiz-adv-x="606" d="M406 470q0 41 -25 68t-72 27t-72 -27t-25 -68t25 -67.5t72 -26.5t72 26.5t25 67.5zM145 0l131 211q10 16 14.5 22t9.5 10l-1 2q-11 -2 -23 -1.5t-23 2.5q-41 6 -77.5 23.5t-63.5 45.5t-43 66t-16 86q0 49 17 93t50 77t80.5 52t108.5 19t108.5 -19.5t80.5 -52t50 -75.5 t17 -91q0 -32 -10.5 -67.5t-41.5 -86.5l-191 -316h-177z" />
<glyph unicode=":" horiz-adv-x="318" d="M157 -8q-40 0 -67.5 27.5t-27.5 67.5q0 19 7.5 36.5t20 30.5t30 20.5t37.5 7.5q19 0 36.5 -7.5t30.5 -20.5t20.5 -30.5t7.5 -36.5q0 -20 -7.5 -37.5t-20.5 -30t-30.5 -20t-36.5 -7.5zM157 322q-40 0 -67.5 27.5t-27.5 67.5q0 19 7.5 36.5t20 30.5t30 20.5t37.5 7.5 q19 0 36.5 -7.5t30.5 -20.5t20.5 -30.5t7.5 -36.5q0 -20 -7.5 -37.5t-20.5 -30t-30.5 -20t-36.5 -7.5z" />
<glyph unicode=";" horiz-adv-x="327" d="M55 -122q31 20 53.5 49t30.5 66q-39 6 -58 32t-19 59q0 19 7 36t19.5 30t30.5 20.5t39 7.5q24 0 42 -9t30 -23.5t18 -33.5t6 -40q0 -37 -16.5 -73.5t-42.5 -68t-57.5 -56t-62.5 -37.5zM159 322q-40 0 -67.5 27.5t-27.5 67.5q0 19 7.5 36.5t20 30.5t30 20.5t37.5 7.5 q19 0 36.5 -7.5t30.5 -20.5t20.5 -30.5t7.5 -36.5q0 -20 -7.5 -37.5t-20.5 -30t-30.5 -20t-36.5 -7.5z" />
<glyph unicode="&#x3c;" horiz-adv-x="578" d="M41 259v116l496 195v-140l-286 -113l286 -113v-140z" />
<glyph unicode="=" horiz-adv-x="578" d="M41 142v132h496v-132h-496zM41 360v132h496v-132h-496z" />
<glyph unicode="&#x3e;" horiz-adv-x="578" d="M41 64v140l286 113l-286 113v140l496 -195v-116z" />
<glyph unicode="?" horiz-adv-x="515" d="M186 254v9q0 28 17 61t63 81q26 27 41.5 44t15.5 42t-18 47.5t-58 22.5q-38 0 -62.5 -22.5t-42.5 -59.5l-132 72q38 82 102 120t145 38q55 0 99.5 -16t75.5 -43.5t48 -64t17 -77.5q0 -48 -22 -82.5t-61 -71.5q-22 -21 -37 -36t-24 -25.5t-12.5 -18.5t-3.5 -15v-5h-151z M261 -8q-40 0 -67.5 27.5t-27.5 67.5q0 19 7.5 36.5t20 30.5t30 20.5t37.5 7.5q19 0 36.5 -7.5t30.5 -20.5t20.5 -30.5t7.5 -36.5q0 -20 -7.5 -37.5t-20.5 -30t-30.5 -20t-36.5 -7.5z" />
<glyph unicode="@" horiz-adv-x="891" d="M514 254q-10 11 -25 18.5t-35 7.5q-39 0 -64 -29.5t-25 -72.5q0 -38 19 -56t48 -18q22 0 41 9t30 22zM736 -152q-74 -32 -137 -47t-131 -15q-101 0 -180 30t-133 83t-82 126t-28 160q0 93 31.5 169.5t88.5 130.5t135.5 83.5t171.5 29.5q90 0 161.5 -27t120.5 -75.5 t75 -115t26 -145.5q0 -60 -14.5 -106t-40.5 -76.5t-61.5 -46t-76.5 -15.5q-47 0 -80 17.5t-50 43.5q-23 -34 -51 -47.5t-66 -13.5q-42 0 -75.5 13.5t-57 38.5t-36 59t-12.5 75q0 43 14 82.5t40.5 69t63.5 47t83 17.5q26 0 50.5 -7.5t48.5 -27.5l12 28h107l-20 -216 q-1 -9 -1 -11v-5q0 -28 9.5 -44t30.5 -16q32 0 51 37t19 101q0 69 -22.5 120t-60 84t-87 49t-103.5 16q-62 0 -118.5 -21t-99.5 -61t-68 -98.5t-25 -134.5q0 -79 27 -136t72.5 -94t104.5 -55t122 -18q57 0 115 13t107 36z" />
<glyph unicode="A" horiz-adv-x="624" d="M448 0l-39 138h-194l-39 -138h-169l223 700h164l223 -700h-169zM312 492l-59 -219h118z" />
<glyph unicode="B" horiz-adv-x="628" d="M66 0v700h286q44 0 82 -12.5t66.5 -36t44.5 -58t16 -78.5q0 -54 -24 -89t-54 -54q53 -25 83 -65t30 -105q0 -46 -18 -83.5t-50 -63.5t-75.5 -40.5t-95.5 -14.5h-291zM313 425q42 0 60.5 19t18.5 47q0 31 -18 48t-63 17h-75v-131h77zM311 144q62 0 86.5 19.5t24.5 54.5 q0 38 -23.5 60.5t-87.5 22.5h-75v-157h75z" />
<glyph unicode="C" horiz-adv-x="662" d="M629 182q-17 -50 -45 -86t-64 -59t-78 -34t-88 -11q-67 0 -126 22.5t-103.5 67t-70.5 111.5t-26 156q0 91 26.5 158.5t71.5 112t104 66.5t124 22q41 0 79.5 -9t72.5 -27.5t62 -48t47 -69.5l-139 -76q-20 37 -49.5 59.5t-74.5 22.5q-31 0 -58.5 -13t-47.5 -39t-32 -65.5 t-12 -92.5q0 -54 12 -93.5t32.5 -65.5t48 -38.5t58.5 -12.5q28 0 49.5 9t37.5 24t28 34.5t20 39.5z" />
<glyph unicode="D" horiz-adv-x="660" d="M66 0v700h228q64 0 124 -20t106.5 -63t74.5 -109t28 -158t-28 -158t-74.5 -109t-106.5 -63t-124 -20h-228zM279 144q33 0 64.5 10t55.5 34t39 63.5t15 98.5q0 58 -15 97.5t-39 63.5t-55.5 34.5t-64.5 10.5h-43v-412h43z" />
<glyph unicode="E" horiz-adv-x="568" d="M66 0v700h460v-144h-290v-111h218v-144h-218v-157h300v-144h-470z" />
<glyph unicode="F" horiz-adv-x="554" d="M66 0v700h465v-144h-295v-111h226v-144h-226v-301h-170z" />
<glyph unicode="G" horiz-adv-x="696" d="M555 0l-13 62q-27 -26 -71.5 -48t-114.5 -22q-62 0 -120.5 21.5t-103.5 66t-72 111.5t-27 158t27.5 159t74 112t106.5 66t126 22q85 0 154.5 -37t107.5 -117l-139 -76q-20 37 -49.5 59.5t-74.5 22.5q-33 0 -62 -13.5t-50.5 -39.5t-34 -66t-12.5 -92q0 -53 12.5 -92.5 t35 -65.5t53.5 -38.5t67 -12.5q32 0 65 13.5t56 56.5v45h-120v141h270v-396h-91z" />
<glyph unicode="H" horiz-adv-x="698" d="M462 0v301h-226v-301h-170v700h170v-255h226v255h170v-700h-170z" />
<glyph unicode="I" horiz-adv-x="302" d="M66 0v700h170v-700h-170z" />
<glyph unicode="J" horiz-adv-x="556" d="M320 700h170v-556q0 -69 -18 -119.5t-49.5 -83t-75 -48t-94.5 -15.5q-82 0 -145 40.5t-90 129.5l135 62q17 -44 38 -66t54 -22q41 0 58 31.5t17 80.5v566z" />
<glyph unicode="K" horiz-adv-x="678" d="M459 0l-223 281v-281h-170v700h170v-265l209 265h205l-270 -339l289 -361h-210z" />
<glyph unicode="L" horiz-adv-x="527" d="M66 0v700h170v-556h280v-144h-450z" />
<glyph unicode="M" horiz-adv-x="800" d="M614 0l-37 349l-110 -349h-134l-111 349l-36 -349h-152l73 700h152l141 -444l141 444h152l73 -700h-152z" />
<glyph unicode="N" horiz-adv-x="676" d="M458 0l-240 407v-407h-152v700h152l240 -407v407h152v-700h-152z" />
<glyph unicode="O" horiz-adv-x="728" d="M364 -8q-64 0 -123.5 22t-105.5 66t-74 111.5t-28 158.5t28 158.5t74 111.5t105.5 66t123.5 22t123.5 -22t105.5 -66t74 -111.5t28 -158.5t-28 -158.5t-74 -111.5t-105.5 -66t-123.5 -22zM364 140q33 0 61.5 12.5t50 38.5t33.5 65.5t12 93.5t-12 93.5t-33.5 65.5 t-50 38.5t-61.5 12.5t-61.5 -12.5t-50 -38.5t-33.5 -65.5t-12 -93.5t12 -93.5t33.5 -65.5t50 -38.5t61.5 -12.5z" />
<glyph unicode="P" d="M66 0v700h279q56 0 99.5 -15.5t73.5 -44t46 -68.5t16 -89q0 -97 -61.5 -154.5t-173.5 -57.5h-109v-271h-170zM323 415q45 0 64 20t19 51q0 33 -18.5 51.5t-66.5 18.5h-85v-141h87z" />
<glyph unicode="Q" horiz-adv-x="733" d="M621 -68l-98 98q-37 -20 -76.5 -29t-81.5 -9q-64 0 -124 22t-106 66t-74 111.5t-28 158.5t28 158.5t74 111.5t105.5 66t123.5 22t123.5 -22t105.5 -66t74 -111.5t28 -158.5q0 -70 -17 -125.5t-46 -98.5l92 -91zM322 231l103 103l82 -83q14 44 14 99q0 54 -12 93.5 t-33.5 65.5t-50 38.5t-61.5 12.5t-61.5 -12.5t-50 -38.5t-33.5 -65.5t-12 -93.5t12 -93.5t33.5 -65.5t50 -38.5t61.5 -12.5q22 0 43 6z" />
<glyph unicode="R" horiz-adv-x="631" d="M443 0l-154 291h-53v-291h-170v700h269q56 0 99.5 -14.5t73.5 -41.5t46 -65t16 -84q0 -63 -28 -109.5t-82 -70.5l165 -315h-182zM313 435q45 0 64 18t19 45t-18.5 42.5t-66.5 15.5h-75v-121h77z" />
<glyph unicode="S" horiz-adv-x="556" d="M351 515q-15 25 -32 39t-41 14q-23 0 -36.5 -12.5t-13.5 -34.5t13 -35.5t35 -25.5q13 -7 32 -15q18 -9 37 -18t35.5 -16.5t25.5 -11.5q23 -11 44 -28t37.5 -40.5t26.5 -53.5t10 -67q0 -49 -17.5 -89t-49 -68.5t-76 -44.5t-98.5 -16q-85 0 -151.5 39t-104.5 125l135 72 q18 -42 45.5 -67t72.5 -25q29 0 52.5 14.5t23.5 49.5q0 47 -53 75q-9 4 -24 12q-15 7 -30.5 14t-27.5 13q-13 5 -16 7q-27 12 -51.5 29.5t-44 41t-31 53.5t-11.5 69q0 41 14 76.5t41 61.5t67 41t91 15q71 0 122 -30.5t83 -95.5z" />
<glyph unicode="T" horiz-adv-x="538" d="M184 0v556h-175v144h520v-144h-175v-556h-170z" />
<glyph unicode="U" horiz-adv-x="630" d="M410 700h170v-435q0 -70 -19 -121.5t-54 -85t-84 -50t-108 -16.5t-108 16.5t-84 50t-54 85t-19 121.5v435h170v-443q0 -62 27 -89.5t68 -27.5q40 0 67.5 27.5t27.5 89.5v443z" />
<glyph unicode="V" horiz-adv-x="616" d="M226 0l-223 700h169l136 -471l136 471h169l-223 -700h-164z" />
<glyph unicode="W" horiz-adv-x="911" d="M558 0l-103 352l-102 -352h-164l-173 700h169l93 -444l107 379h141l106 -379l94 444h169l-173 -700h-164z" />
<glyph unicode="X" horiz-adv-x="598" d="M411 0l-112 215l-112 -215h-178l203 383l-176 317h173l90 -164l90 164h174l-175 -317l201 -383h-178z" />
<glyph unicode="Y" horiz-adv-x="565" d="M198 0v296l-195 404h178l103 -242l101 242h177l-194 -404v-296h-170z" />
<glyph unicode="Z" horiz-adv-x="531" d="M25 0v83l271 473h-246v144h450v-85l-266 -471h272v-144h-481z" />
<glyph unicode="[" horiz-adv-x="345" d="M66 -90v880h254v-116h-122v-648h122v-116h-254z" />
<glyph unicode="\" horiz-adv-x="571" d="M424 -50l-438 800h138l438 -800h-138z" />
<glyph unicode="]" horiz-adv-x="345" d="M25 -90v116h122v648h-122v116h254v-880h-254z" />
<glyph unicode="^" horiz-adv-x="604" d="M414 403l-112 169l-112 -169h-149l194 297h134l194 -297h-149z" />
<glyph unicode="_" horiz-adv-x="513" d="M19 -126v126h475v-126h-475z" />
<glyph unicode="`" horiz-adv-x="290" d="M169 566l-150 192h181l73 -192h-104z" />
<glyph unicode="a" horiz-adv-x="496" d="M290 206h-50q-32 0 -48 -15t-16 -41q0 -28 16.5 -39t33.5 -11q31 0 47.5 24.5t16.5 55.5v26zM307 0q-5 16 -6.5 30.5t-2.5 27.5q-15 -31 -46.5 -49t-73.5 -18q-30 0 -58 9.5t-50 28.5t-35.5 48t-13.5 67q0 75 53.5 115.5t159.5 40.5h56v10q0 71 -72 71q-29 0 -60.5 -10 t-61.5 -30l-46 107q43 32 89 48t101 16q45 0 83.5 -11.5t67 -37t44.5 -67.5t16 -102v-294h-144z" />
<glyph unicode="b" d="M307 127q48 0 69.5 35t21.5 90t-21.5 90t-69.5 35t-71.5 -35t-23.5 -90t23.5 -90t71.5 -35zM59 0v718h161v-266q21 35 51.5 47.5t69.5 12.5q54 0 95 -21t69.5 -57t43 -83t14.5 -99q0 -53 -15 -100t-43 -82.5t-68.5 -56.5t-91.5 -21q-49 0 -81 18.5t-44 57.5 q-2 -32 -11 -68h-150z" />
<glyph unicode="c" horiz-adv-x="559" d="M534 130q-35 -72 -99 -105t-139 -33q-63 0 -112 20.5t-82.5 56t-51 83t-17.5 100.5t17.5 100.5t50.5 83t81.5 56t110.5 20.5q75 0 137.5 -33t97.5 -105l-125 -69q-16 33 -41 52.5t-63 19.5q-53 0 -78 -36t-25 -89q0 -54 25 -89.5t78 -35.5q39 0 66 19.5t44 52.5z" />
<glyph unicode="d" d="M289 127q48 0 71.5 35t23.5 90t-23.5 90t-71.5 35t-69.5 -35t-21.5 -90t21.5 -90t69.5 -35zM387 0q-9 36 -11 68q-12 -39 -44 -57.5t-81 -18.5q-51 0 -91.5 21t-68.5 56.5t-43 82.5t-15 100q0 52 14.5 99t43 83t69.5 57t95 21q39 0 69.5 -12.5t51.5 -47.5v266h161v-718 h-150z" />
<glyph unicode="e" horiz-adv-x="563" d="M194 210q8 -41 38.5 -67t75.5 -26q31 0 59 12.5t54 33.5l79 -89q-41 -36 -88 -59t-118 -23q-72 0 -122 23.5t-81 61t-44.5 84t-13.5 91.5q0 46 14 92t44.5 83.5t80 61t120.5 23.5q69 0 116 -23t75.5 -61.5t40.5 -89t12 -106.5v-22h-342zM379 310q-2 40 -26.5 65.5 t-62.5 25.5q-32 0 -60.5 -21.5t-33.5 -69.5h183z" />
<glyph unicode="f" horiz-adv-x="396" d="M84 0v374h-59v130h59v36q0 46 14 81.5t39 59t60 35.5t76 12q59 0 114 -23l-33 -121q-29 12 -54 12q-30 0 -42.5 -15.5t-12.5 -41.5v-35h109v-130h-109v-374h-161z" />
<glyph unicode="g" horiz-adv-x="548" d="M316 104q91 0 140.5 -39.5t49.5 -111.5q0 -45 -18.5 -77t-51.5 -51.5t-77 -28.5t-95 -9q-117 0 -180 40t-63 108q0 38 19 61.5t45 44.5q-13 15 -22.5 34.5t-9.5 45.5q0 33 14 55.5t40 36.5q-28 24 -41.5 56.5t-13.5 68.5q0 35 13.5 66.5t40 55.5t66.5 38t94 14 q64 0 109 -21l125 54l40 -102l-80 -29q10 -18 14.5 -37.5t4.5 -39.5q0 -35 -13.5 -66.5t-40.5 -55.5t-67 -38.5t-92 -14.5q-39 0 -69 9q-15 -8 -20.5 -16.5t-5.5 -17.5q0 -14 13 -23.5t31 -9.5h101zM234 -10q-12 0 -26 1.5t-22 3.5q-8 -9 -9.5 -19t-1.5 -17q0 -32 28 -47.5 t68 -15.5q34 0 57.5 12.5t23.5 39.5q0 25 -20.5 33.5t-44.5 8.5h-53zM333 335q0 27 -16.5 43.5t-51.5 16.5t-51.5 -16t-16.5 -44q0 -29 16.5 -46t51.5 -17t51.5 17.5t16.5 45.5z" />
<glyph unicode="h" horiz-adv-x="584" d="M369 0v303q0 35 -18 54.5t-46 19.5q-41 0 -63 -40t-22 -113v-224h-161v718h161v-282q46 76 147 76q80 0 121.5 -43t41.5 -121v-348h-161z" />
<glyph unicode="i" horiz-adv-x="263" d="M51 0v504h161v-504h-161zM222 645q0 -38 -26.5 -64t-64.5 -26t-64 26t-26 64t26 64.5t64 26.5t64.5 -26.5t26.5 -64.5z" />
<glyph unicode="j" horiz-adv-x="277" d="M-41 -84q25 5 44.5 13.5t33 22.5t21 35.5t7.5 53.5v463h161v-452q0 -62 -17 -108t-47 -78.5t-72 -51.5t-93 -26zM236 645q0 -38 -26.5 -64t-64.5 -26t-64 26t-26 64t26 64.5t64 26.5t64.5 -26.5t26.5 -64.5z" />
<glyph unicode="k" horiz-adv-x="556" d="M365 0l-145 188v-188h-161v718h161v-370l113 156h183l-168 -233l200 -271h-183z" />
<glyph unicode="l" horiz-adv-x="279" d="M59 0v718h161v-718h-161z" />
<glyph unicode="m" horiz-adv-x="854" d="M639 0v303q0 34 -15 54t-40 20q-33 0 -53.5 -36t-20.5 -103v-238h-161v303q0 34 -15 54t-40 20q-35 0 -54.5 -39.5t-19.5 -113.5v-224h-161v504h150q5 -19 7.5 -36t3.5 -32q22 39 53 57.5t81 18.5q56 0 90.5 -21.5t51.5 -63.5q26 42 62.5 63.5t88.5 21.5q75 0 114 -43 t39 -121v-348h-161z" />
<glyph unicode="n" horiz-adv-x="584" d="M369 0v303q0 35 -18 54.5t-46 19.5q-41 0 -63 -40t-22 -113v-224h-161v504h150q5 -19 7.5 -36t3.5 -32q22 37 55 56.5t89 19.5q83 0 124.5 -43t41.5 -121v-348h-161z" />
<glyph unicode="o" d="M563 252q0 -52 -16.5 -99t-50 -83t-83 -57t-115.5 -21t-115.5 21t-83 57t-50 83t-16.5 99t16.5 99t50 83t83 57t115.5 21t115.5 -21t83 -57t50 -83t16.5 -99zM298 127q51 0 75.5 35t24.5 90t-24.5 90t-75.5 35t-75.5 -35t-24.5 -90t24.5 -90t75.5 -35z" />
<glyph unicode="p" horiz-adv-x="598" d="M309 127q48 0 69.5 35t21.5 90t-21.5 90t-69.5 35t-71.5 -35t-23.5 -90t23.5 -90t71.5 -35zM61 -204v708h150q9 -36 11 -68q12 39 44 57.5t81 18.5q51 0 91.5 -21t68.5 -56.5t43 -83t15 -99.5t-14.5 -99t-43 -83t-69.5 -57t-95 -21q-39 0 -69.5 12.5t-51.5 47.5v-256 h-161z" />
<glyph unicode="q" horiz-adv-x="598" d="M289 127q48 0 71.5 35t23.5 90t-23.5 90t-71.5 35t-69.5 -35t-21.5 -90t21.5 -90t69.5 -35zM376 -204v256q-21 -35 -51.5 -47.5t-69.5 -12.5q-54 0 -95 21t-69.5 57t-43 83t-14.5 99t15 99.5t43 83t68.5 56.5t91.5 21q49 0 81 -18.5t44 -57.5q2 32 11 68h150v-708h-161z " />
<glyph unicode="r" horiz-adv-x="426" d="M51 0v504h150q5 -22 7.5 -41.5t3.5 -36.5q20 45 51.5 65.5t75.5 20.5q21 0 45 -3t38 -6l-28 -150q-21 6 -37 8t-27 2q-27 0 -48.5 -10.5t-37 -34.5t-24 -63.5t-8.5 -97.5v-157h-161z" />
<glyph unicode="s" horiz-adv-x="463" d="M174 213q-54 20 -88.5 59t-34.5 92q0 32 14 59.5t39.5 47t61 30.5t77.5 11q60 0 103.5 -22t72.5 -60l-91 -74q-18 21 -36.5 33t-43.5 12q-26 0 -37 -11.5t-11 -23.5q0 -21 24.5 -33.5t59.5 -25.5l27 -10q57 -21 91 -54t34 -90q0 -38 -16 -68t-44 -50.5t-66 -31.5t-82 -11 q-74 0 -121.5 29t-79.5 79l91 74q22 -32 48 -51.5t60 -19.5q32 0 44 14t12 27q0 22 -25 34.5t-59 25.5z" />
<glyph unicode="t" horiz-adv-x="413" d="M389 15q-55 -23 -116 -23q-40 0 -74.5 11.5t-59.5 34t-39 57t-14 81.5v198h-71v130h71v144l161 20v-164h124v-130h-124v-167q0 -32 12.5 -55.5t44.5 -23.5q23 0 52 12z" />
<glyph unicode="u" horiz-adv-x="576" d="M365 0q-5 19 -7.5 36t-3.5 32q-20 -37 -51 -56.5t-85 -19.5q-81 0 -122.5 43t-41.5 121v348h161v-303q0 -35 18.5 -54.5t44.5 -19.5q38 0 57 40.5t19 112.5v224h161v-504h-150z" />
<glyph unicode="v" horiz-adv-x="488" d="M173 0l-166 504h156l81 -287l81 287h156l-167 -504h-141z" />
<glyph unicode="w" horiz-adv-x="756" d="M448 0l-71 289l-69 -289h-135l-152 504h155l65 -286l66 286h142l66 -285l65 285h155l-152 -504h-135z" />
<glyph unicode="x" horiz-adv-x="504" d="M326 0l-74 135l-74 -135h-168l158 269l-139 235h163l60 -104l60 104h163l-139 -235l158 -269h-168z" />
<glyph unicode="y" horiz-adv-x="495" d="M25 -84q34 4 57.5 11.5t40.5 19.5t28.5 30t20.5 44l6 17l-173 466h161l88 -247l86 247h151l-171 -483q-19 -54 -39.5 -94.5t-49 -69t-69 -45.5t-99.5 -24z" />
<glyph unicode="z" horiz-adv-x="462" d="M31 0v71l196 304h-180v129h372v-71l-194 -304h208v-129h-402z" />
<glyph unicode="{" horiz-adv-x="342" d="M215 -90q-45 0 -71.5 26t-26.5 70v208q0 42 -17.5 65.5t-57.5 24.5v92q40 1 57.5 24.5t17.5 65.5v208q0 44 26.5 70t71.5 26h110v-116h-30q-27 0 -37 -14t-10 -46v-165q0 -24 -5 -41t-17 -28.5t-32 -18.5t-49 -11q29 -4 49 -11t32 -18.5t17 -28.5t5 -41v-165 q0 -32 10 -46t37 -14h30v-116h-110z" />
<glyph unicode="|" horiz-adv-x="262" d="M66 -150v900h130v-900h-130z" />
<glyph unicode="}" horiz-adv-x="342" d="M17 -90v116h30q27 0 37 14t10 46v165q0 24 5 41t17 28.5t32 18.5t49 11q-29 4 -49 11t-32 18.5t-17 28.5t-5 41v165q0 32 -10 46t-37 14h-30v116h110q45 0 71.5 -26t26.5 -70v-208q0 -42 17.5 -65.5t57.5 -24.5v-92q-40 -1 -57.5 -24.5t-17.5 -65.5v-208q0 -44 -26.5 -70 t-71.5 -26h-110z" />
<glyph unicode="~" horiz-adv-x="648" d="M592 345q-8 -23 -23.5 -43.5t-36.5 -37t-46.5 -26t-54.5 -9.5q-30 0 -57 9.5t-52 21.5q-25 11 -49 20.5t-48 9.5q-29 0 -49 -14.5t-39 -40.5l-81 88q8 22 23.5 43t36.5 37.5t46.5 26t54.5 9.5q30 0 57 -9.5t52 -20.5q25 -12 49 -21.5t48 -9.5q29 0 49 14.5t39 40.5z" />
<glyph unicode="&#xa0;" horiz-adv-x="245" d="M0 0z" />
<glyph unicode="&#xa1;" horiz-adv-x="335" d="M80 -204v153l24 293h130l24 -293v-153h-178zM169 314q-20 0 -37.5 7.5t-30 20.5t-20 30t-7.5 37q0 40 27.5 67.5t67.5 27.5q19 0 36.5 -7.5t30.5 -20t20.5 -30t7.5 -37.5t-7.5 -37t-20.5 -30t-30.5 -20.5t-36.5 -7.5z" />
<glyph unicode="&#xa2;" horiz-adv-x="584" d="M248 -50v111q-50 9 -88.5 32t-65 57t-40 76.5t-13.5 89.5t13.5 90t40 76.5t65 57t88.5 31.5v101h110v-101q57 -11 103.5 -43t74.5 -90l-125 -69q-16 33 -41 52.5t-63 19.5q-53 0 -78 -36t-25 -89q0 -54 25 -89.5t78 -35.5q39 0 66 19.5t44 52.5l125 -69q-29 -60 -77 -92 t-107 -42v-110h-110z" />
<glyph unicode="&#xa3;" horiz-adv-x="562" d="M158 0h-19q-15 0 -32.5 -0.5t-34.5 -1.5t-26 -2l-16 76q19 17 39 36.5t36 42t26.5 47.5t10.5 52q0 14 -2.5 29.5t-6.5 28.5h-90v101h55l-3 11q-8 25 -11.5 44.5t-3.5 40.5q0 43 15.5 80t44.5 64.5t70.5 43t93.5 15.5q80 0 135.5 -36.5t78.5 -96.5l-124 -60 q-15 29 -36.5 46t-56.5 17q-31 0 -55.5 -18t-24.5 -67q0 -22 5 -43t13 -41h168v-101h-130q3 -11 5 -23t2 -23q0 -33 -17.5 -70t-59.5 -69l338 21v-144h-387z" />
<glyph unicode="&#xa4;" horiz-adv-x="560" d="M374 130q-45 -24 -94 -24t-94 24l-81 -82l-84 84l82 81q-24 44 -24 94q0 49 24 94l-82 81l84 84l81 -82q45 23 94 23t94 -23l81 82l84 -84l-82 -81q24 -45 24 -94q0 -50 -24 -94l82 -81l-84 -84zM356 307q0 32 -22 54t-54 22t-54 -22t-22 -54t22 -54t54 -22t54 22t22 54z " />
<glyph unicode="&#xa5;" horiz-adv-x="577" d="M374 114v-114h-170v114h-140v96h140v66h-140v96h103l-158 328h178l103 -242l101 242h177l-158 -328h104v-96h-140v-66h140v-96h-140z" />
<glyph unicode="&#xa6;" horiz-adv-x="288" d="M66 356v394h130v-394h-130zM66 -150v392h130v-392h-130z" />
<glyph unicode="&#xa7;" horiz-adv-x="575" d="M189 88q-32 16 -58 34t-45.5 40.5t-30 49.5t-10.5 62q0 88 66 139q-32 46 -32 107q0 41 14 75.5t41.5 59.5t67 39t90.5 14q70 0 122 -31.5t87 -108.5l-125 -66q-32 66 -85 66q-23 0 -37 -12.5t-14 -35.5q0 -11 4 -20.5t13.5 -19t25.5 -20t41 -22.5l62 -31 q31 -16 57.5 -34t46 -40.5t30 -50t10.5 -61.5q0 -44 -17 -79.5t-49 -60.5q15 -22 23.5 -48.5t8.5 -58.5q0 -41 -14.5 -75.5t-42 -59t-68 -38.5t-92.5 -14q-71 0 -125 31.5t-90 108.5l125 66q35 -66 91 -66q25 0 40 12.5t15 36.5q0 22 -17.5 39t-66.5 42zM363 163q7 9 11 20 t4 25q0 28 -17.5 45.5t-62.5 37.5l-87 40q-14 -17 -14 -44q0 -14 4 -24.5t13 -20t24.5 -18.5t38.5 -20z" />
<glyph unicode="&#xa8;" horiz-adv-x="389" d="M169 634q0 -30 -21 -50.5t-51 -20.5t-50.5 20.5t-20.5 50.5t20.5 51t50.5 21t51 -21t21 -51zM363 634q0 -30 -21 -50.5t-51 -20.5t-50.5 20.5t-20.5 50.5t20.5 51t50.5 21t51 -21t21 -51z" />
<glyph unicode="&#xa9;" horiz-adv-x="870" d="M435 -40q-81 0 -152 30.5t-124 83.5t-83.5 124t-30.5 152t30.5 152t83.5 124t124 83.5t152 30.5t152 -30.5t124 -83.5t83.5 -124t30.5 -152t-30.5 -152t-83.5 -124t-124 -83.5t-152 -30.5zM435 51q62 0 116 23.5t94.5 64t64 95t23.5 116.5t-23.5 116t-64 94.5t-94.5 64 t-116 23.5t-116.5 -23.5t-95 -64t-64 -94.5t-23.5 -116t23.5 -116.5t64 -95t95 -64t116.5 -23.5zM607 249q-20 -60 -65 -86.5t-99 -26.5q-41 0 -76.5 13.5t-62 40t-42 66.5t-15.5 93q0 55 16 95.5t43 67t62.5 39.5t74.5 13q49 0 90.5 -22t64.5 -70l-83 -46 q-12 23 -29.5 36.5t-44.5 13.5q-38 -1 -64 -31.5t-26 -95.5q0 -64 26.5 -94.5t64.5 -30.5q33 0 51.5 20t29.5 44z" />
<glyph unicode="&#xaa;" horiz-adv-x="426" d="M255 456h-39q-51 0 -51 -39q0 -20 13 -28t27 -8q24 0 37 19.5t13 43.5v12zM268 303q-4 12 -5 24q-1 11 -2 21q-12 -24 -36.5 -38t-57.5 -14q-23 0 -45.5 7.5t-39.5 22t-27.5 36t-10.5 50.5q0 57 41.5 87.5t125.5 30.5h44v16q0 28 -14 41.5t-40 13.5q-43 0 -87 -39l-58 78 q34 32 73 48t87 16q35 0 65.5 -9t52.5 -29.5t34.5 -53t12.5 -79.5v-230h-113z" />
<glyph unicode="&#xab;" horiz-adv-x="713" d="M33 265v90l333 226v-154l-178 -117l178 -117v-154zM343 265v90l333 226v-154l-178 -117l178 -117v-154z" />
<glyph unicode="&#xad;" horiz-adv-x="388" d="M49 187v140h290v-140h-290z" />
<glyph unicode="&#xae;" horiz-adv-x="870" d="M506 139l-92 176h-32v-176h-102v420h161q68 0 104.5 -33t36.5 -89q0 -38 -17 -66t-49 -42l99 -190h-109zM428 401q26 0 38 10.5t12 26.5q0 17 -11.5 26t-39.5 9h-45v-72h46zM435 -40q-81 0 -152 30.5t-124 83.5t-83.5 124t-30.5 152t30.5 152t83.5 124t124 83.5t152 30.5 t152 -30.5t124 -83.5t83.5 -124t30.5 -152t-30.5 -152t-83.5 -124t-124 -83.5t-152 -30.5zM435 51q62 0 116 23.5t94.5 64t64 95t23.5 116.5t-23.5 116t-64 94.5t-94.5 64t-116 23.5t-116.5 -23.5t-95 -64t-64 -94.5t-23.5 -116t23.5 -116.5t64 -95t95 -64t116.5 -23.5z" />
<glyph unicode="&#xaf;" horiz-adv-x="295" d="M9 594v112h277v-112h-277z" />
<glyph unicode="&#xb0;" horiz-adv-x="374" d="M187 430q-29 0 -55 11t-45.5 30.5t-30.5 45.5t-11 55t11 55t30.5 45.5t45.5 30.5t55 11t55 -11t45.5 -30.5t30.5 -45.5t11 -55t-11 -55t-30.5 -45.5t-45.5 -30.5t-55 -11zM250 572q0 26 -18.5 44.5t-44.5 18.5t-44.5 -18.5t-18.5 -44.5t18.5 -44.5t44.5 -18.5t44.5 18.5 t18.5 44.5z" />
<glyph unicode="&#xb1;" horiz-adv-x="578" d="M355 319v-120h-132v120h-182v132h182v181h132v-181h182v-132h-182zM41 0v132h496v-132h-496z" />
<glyph unicode="&#xb2;" horiz-adv-x="329" d="M25 300v54l137 149q20 22 29.5 37.5t9.5 29.5q0 15 -9.5 27.5t-32.5 12.5q-21 0 -32.5 -15.5t-11.5 -41.5h-89q0 30 8 57t24.5 48t43 33.5t63.5 12.5q31 0 57.5 -8.5t46 -25t30.5 -40.5t11 -54q0 -35 -15 -64t-41 -53l-73 -67h130v-92h-286z" />
<glyph unicode="&#xb3;" horiz-adv-x="342" d="M149 464v85h22q20 0 30.5 8.5t10.5 21.5q0 12 -10 21.5t-32 9.5q-19 0 -30 -10t-18 -26l-86 35q14 41 48 68t91 27q33 0 60 -9.5t46 -25.5t29.5 -37t10.5 -45t-11 -45t-37 -37q26 -14 40 -36t14 -51q0 -25 -11 -47.5t-31 -39t-48.5 -26t-63.5 -9.5q-34 0 -61 10 t-45.5 26.5t-29.5 39t-14 46.5l97 15q9 -43 51 -43q22 0 34.5 10t12.5 26q0 17 -12 27.5t-35 10.5h-22z" />
<glyph unicode="&#xb4;" horiz-adv-x="290" d="M19 566l73 192h181l-150 -192h-104z" />
<glyph unicode="&#xb5;" horiz-adv-x="576" d="M365 0q-5 19 -7.5 36t-3.5 32q-20 -37 -51 -56.5t-85 -19.5q-10 0 -15 1l12 -197h-161v708h161v-303q0 -35 18.5 -54.5t44.5 -19.5q38 0 57 40.5t19 112.5v224h161v-504h-150z" />
<glyph unicode="&#xb6;" horiz-adv-x="752" d="M522 -204v789h-112v-789h-122v423q-52 0 -97 19t-78.5 51.5t-52.5 76t-19 93.5t19 94t52 76.5t77 51.5t94 19h424v-115h-63v-789h-122z" />
<glyph unicode="&#xb7;" horiz-adv-x="308" d="M154 280q-40 0 -67.5 27.5t-27.5 67.5q0 19 7.5 36.5t20 30.5t30 20.5t37.5 7.5q19 0 36.5 -7.5t30.5 -20.5t20.5 -30.5t7.5 -36.5q0 -20 -7.5 -37.5t-20.5 -30t-30.5 -20t-36.5 -7.5z" />
<glyph unicode="&#xb8;" horiz-adv-x="268" d="M69 -144q12 -14 25 -22t30 -8t27 9.5t10 27.5q0 12 -4 24t-10 23.5t-12 20.5q-7 9 -11 15h95q17 -20 28 -46t11 -61q0 -54 -28.5 -84.5t-81.5 -30.5q-42 0 -76 20.5t-62 65.5z" />
<glyph unicode="&#xb9;" horiz-adv-x="230" d="M97 300v267l-52 -21l-33 81l133 72h58v-399h-106z" />
<glyph unicode="&#xba;" horiz-adv-x="505" d="M460 500q0 -41 -13 -78t-39 -65t-64.5 -44.5t-90.5 -16.5t-91 16.5t-65 44.5t-39 65t-13 78t13 78t39 65t65 44.5t91 16.5t90.5 -16.5t64.5 -44.5t39 -65t13 -78zM253 402q40 0 59 27.5t19 70.5t-19 70.5t-59 27.5q-41 0 -60 -27.5t-19 -70.5t19 -70.5t60 -27.5z" />
<glyph unicode="&#xbb;" horiz-adv-x="713" d="M347 39v154l178 117l-178 117v154l333 -226v-90zM37 39v154l178 117l-178 117v154l333 -226v-90z" />
<glyph unicode="&#xbc;" horiz-adv-x="749" d="M81 23l541 720l78 -63l-541 -720zM97 300v267l-52 -21l-33 81l133 72h58v-399h-106zM584 0v65h-173v69l188 265h85v-240h47v-94h-47v-65h-100zM584 251l-63 -92h63v92z" />
<glyph unicode="&#xbd;" horiz-adv-x="821" d="M81 23l541 720l78 -63l-541 -720zM97 300v267l-52 -21l-33 81l133 72h58v-399h-106zM517 0v54l137 149q20 22 29.5 37.5t9.5 29.5q0 15 -9.5 27.5t-32.5 12.5q-21 0 -32.5 -15.5t-11.5 -41.5h-89q0 30 8 57t24.5 48t43 33.5t63.5 12.5q31 0 57.5 -8.5t46 -25t30.5 -40.5 t11 -54q0 -35 -15 -64t-41 -53l-73 -67h130v-92h-286z" />
<glyph unicode="&#xbe;" horiz-adv-x="809" d="M141 23l541 720l78 -63l-541 -720zM644 0v65h-173v69l188 265h85v-240h47v-94h-47v-65h-100zM644 251l-63 -92h63v92zM149 464v85h22q20 0 30.5 8.5t10.5 21.5q0 12 -10 21.5t-32 9.5q-19 0 -30 -10t-18 -26l-86 35q14 41 48 68t91 27q33 0 60 -9.5t46 -25.5t29.5 -37 t10.5 -45t-11 -45t-37 -37q26 -14 40 -36t14 -51q0 -25 -11 -47.5t-31 -39t-48.5 -26t-63.5 -9.5q-34 0 -61 10t-45.5 26.5t-29.5 39t-14 46.5l97 15q9 -43 51 -43q22 0 34.5 10t12.5 26q0 17 -12 27.5t-35 10.5h-22z" />
<glyph unicode="&#xbf;" horiz-adv-x="546" d="M528 -54q-38 -82 -102 -120t-145 -38q-55 0 -99.5 16t-75.5 43.5t-48 64t-17 77.5q0 24 5.5 44t16.5 38t26 35.5t35 36.5q22 21 37 36t24 25.5t12.5 18t3.5 15.5v5h151v-9q0 -28 -17 -61t-63 -81q-26 -27 -41.5 -44t-15.5 -42q0 -12 4.5 -24.5t13.5 -22.5t23.5 -16.5 t34.5 -6.5q38 0 62.5 22.5t42.5 59.5zM372 410q0 -20 -7.5 -37t-20 -30t-30 -20.5t-37.5 -7.5t-37 7.5t-30 20.5t-20.5 30t-7.5 37t7.5 37.5t20.5 30t30 20t37 7.5q40 0 67.5 -27.5t27.5 -67.5z" />
<glyph unicode="&#xc0;" horiz-adv-x="624" d="M448 0l-39 138h-194l-39 -138h-169l223 700h164l223 -700h-169zM312 492l-59 -219h118zM335 762l-150 192h181l73 -192h-104z" />
<glyph unicode="&#xc1;" horiz-adv-x="624" d="M448 0l-39 138h-194l-39 -138h-169l223 700h164l223 -700h-169zM312 492l-59 -219h118zM188 762l73 192h181l-150 -192h-104z" />
<glyph unicode="&#xc2;" horiz-adv-x="624" d="M448 0l-39 138h-194l-39 -138h-169l223 700h164l223 -700h-169zM312 492l-59 -219h118zM370 762l-58 61l-58 -61h-132l171 192h38l171 -192h-132z" />
<glyph unicode="&#xc3;" horiz-adv-x="624" d="M448 0l-39 138h-194l-39 -138h-169l223 700h164l223 -700h-169zM312 492l-59 -219h118zM515 854q-18 -42 -53.5 -68.5t-80.5 -26.5q-22 0 -39.5 6t-31.5 13q-15 8 -30 15.5t-33 7.5q-20 0 -35 -11t-30 -33l-74 63q18 42 53.5 68.5t80.5 26.5q22 0 39.5 -6t31.5 -13 q15 -8 30 -15.5t33 -7.5q20 0 35 11t30 33z" />
<glyph unicode="&#xc4;" horiz-adv-x="624" d="M448 0l-39 138h-194l-39 -138h-169l223 700h164l223 -700h-169zM312 492l-59 -219h118zM286 830q0 -30 -21 -50.5t-51 -20.5t-50.5 20.5t-20.5 50.5t20.5 51t50.5 21t51 -21t21 -51zM480 830q0 -30 -21 -50.5t-51 -20.5t-50.5 20.5t-20.5 50.5t20.5 51t50.5 21t51 -21 t21 -51z" />
<glyph unicode="&#xc5;" horiz-adv-x="624" d="M448 0l-39 138h-194l-39 -138h-169l224 703q-20 17 -31.5 41.5t-11.5 52.5q0 25 10 48t26.5 39.5t39 26.5t48.5 10q25 0 48 -10t39.5 -26.5t26.5 -39.5t10 -48q0 -28 -11.5 -52.5t-31.5 -41.5l224 -703h-169zM312 502l-59 -229h118zM371 797q0 25 -17 42t-42 17t-42 -17 t-17 -42t17 -42t42 -17t42 17t17 42z" />
<glyph unicode="&#xc6;" horiz-adv-x="893" d="M401 0v156h-156l-62 -156h-175l298 700h545v-144h-280v-121h218v-144h-218v-147h290v-144h-460zM401 544l-102 -253h102v253z" />
<glyph unicode="&#xc7;" horiz-adv-x="676" d="M629 182q-17 -50 -45 -86t-64 -59t-78 -34t-88 -11q-67 0 -126 22.5t-103.5 67t-70.5 111.5t-26 156q0 91 26.5 158.5t71.5 112t104 66.5t124 22q41 0 79.5 -9t72.5 -27.5t62 -48t47 -69.5l-139 -76q-20 37 -49.5 59.5t-74.5 22.5q-31 0 -58.5 -13t-47.5 -39t-32 -65.5 t-12 -92.5q0 -54 12 -93.5t32.5 -65.5t48 -38.5t58.5 -12.5q28 0 49.5 9t37.5 24t28 34.5t20 39.5zM275 -144q12 -14 25 -22t30 -8t27 9.5t10 27.5q0 12 -4 24t-10 23.5t-12 20.5q-7 9 -11 15h95q17 -20 28 -46t11 -61q0 -54 -28.5 -84.5t-81.5 -30.5q-42 0 -76 20.5 t-62 65.5z" />
<glyph unicode="&#xc8;" horiz-adv-x="568" d="M66 0v700h460v-144h-290v-111h218v-144h-218v-157h300v-144h-470zM302 762l-150 192h181l73 -192h-104z" />
<glyph unicode="&#xc9;" horiz-adv-x="568" d="M66 0v700h460v-144h-290v-111h218v-144h-218v-157h300v-144h-470zM155 762l73 192h181l-150 -192h-104z" />
<glyph unicode="&#xca;" horiz-adv-x="568" d="M66 0v700h460v-144h-290v-111h218v-144h-218v-157h300v-144h-470zM337 762l-58 61l-58 -61h-132l171 192h38l171 -192h-132z" />
<glyph unicode="&#xcb;" horiz-adv-x="568" d="M66 0v700h460v-144h-290v-111h218v-144h-218v-157h300v-144h-470zM254 830q0 -30 -21 -50.5t-51 -20.5t-50.5 20.5t-20.5 50.5t20.5 51t50.5 21t51 -21t21 -51zM448 830q0 -30 -21 -50.5t-51 -20.5t-50.5 20.5t-20.5 50.5t20.5 51t50.5 21t51 -21t21 -51z" />
<glyph unicode="&#xcc;" horiz-adv-x="320" d="M75 0v700h170v-700h-170zM183 762l-150 192h181l73 -192h-104z" />
<glyph unicode="&#xcd;" horiz-adv-x="320" d="M75 0v700h170v-700h-170zM33 762l73 192h181l-150 -192h-104z" />
<glyph unicode="&#xce;" horiz-adv-x="324" d="M77 0v700h170v-700h-170zM220 762l-58 61l-58 -61h-132l171 192h38l171 -192h-132z" />
<glyph unicode="&#xcf;" horiz-adv-x="332" d="M81 0v700h170v-700h-170zM141 830q0 -30 -21 -50.5t-51 -20.5t-50.5 20.5t-20.5 50.5t20.5 51t50.5 21t51 -21t21 -51zM335 830q0 -30 -21 -50.5t-51 -20.5t-50.5 20.5t-20.5 50.5t20.5 51t50.5 21t51 -21t21 -51z" />
<glyph unicode="&#xd0;" horiz-adv-x="684" d="M90 0v293h-73v114h73v293h228q64 0 124 -20t106.5 -63t74.5 -109t28 -158t-28 -158t-74.5 -109t-106.5 -63t-124 -20h-228zM303 144q33 0 64.5 10t55.5 34t39 63.5t15 98.5q0 58 -15 97.5t-39 63.5t-55.5 34.5t-64.5 10.5h-43v-149h92v-114h-92v-149h43z" />
<glyph unicode="&#xd1;" horiz-adv-x="676" d="M458 0l-240 407v-407h-152v700h152l240 -407v407h152v-700h-152zM541 854q-18 -42 -53.5 -68.5t-80.5 -26.5q-22 0 -39.5 6t-31.5 13q-15 8 -30 15.5t-33 7.5q-20 0 -35 -11t-30 -33l-74 63q18 42 53.5 68.5t80.5 26.5q22 0 39.5 -6t31.5 -13q15 -8 30 -15.5t33 -7.5 q20 0 35 11t30 33z" />
<glyph unicode="&#xd2;" horiz-adv-x="728" d="M364 -8q-64 0 -123.5 22t-105.5 66t-74 111.5t-28 158.5t28 158.5t74 111.5t105.5 66t123.5 22t123.5 -22t105.5 -66t74 -111.5t28 -158.5t-28 -158.5t-74 -111.5t-105.5 -66t-123.5 -22zM364 140q33 0 61.5 12.5t50 38.5t33.5 65.5t12 93.5t-12 93.5t-33.5 65.5 t-50 38.5t-61.5 12.5t-61.5 -12.5t-50 -38.5t-33.5 -65.5t-12 -93.5t12 -93.5t33.5 -65.5t50 -38.5t61.5 -12.5zM387 762l-150 192h181l73 -192h-104z" />
<glyph unicode="&#xd3;" horiz-adv-x="728" d="M364 -8q-64 0 -123.5 22t-105.5 66t-74 111.5t-28 158.5t28 158.5t74 111.5t105.5 66t123.5 22t123.5 -22t105.5 -66t74 -111.5t28 -158.5t-28 -158.5t-74 -111.5t-105.5 -66t-123.5 -22zM364 140q33 0 61.5 12.5t50 38.5t33.5 65.5t12 93.5t-12 93.5t-33.5 65.5 t-50 38.5t-61.5 12.5t-61.5 -12.5t-50 -38.5t-33.5 -65.5t-12 -93.5t12 -93.5t33.5 -65.5t50 -38.5t61.5 -12.5zM237 762l73 192h181l-150 -192h-104z" />
<glyph unicode="&#xd4;" horiz-adv-x="728" d="M364 -8q-64 0 -123.5 22t-105.5 66t-74 111.5t-28 158.5t28 158.5t74 111.5t105.5 66t123.5 22t123.5 -22t105.5 -66t74 -111.5t28 -158.5t-28 -158.5t-74 -111.5t-105.5 -66t-123.5 -22zM364 140q33 0 61.5 12.5t50 38.5t33.5 65.5t12 93.5t-12 93.5t-33.5 65.5 t-50 38.5t-61.5 12.5t-61.5 -12.5t-50 -38.5t-33.5 -65.5t-12 -93.5t12 -93.5t33.5 -65.5t50 -38.5t61.5 -12.5zM422 762l-58 61l-58 -61h-132l171 192h38l171 -192h-132z" />
<glyph unicode="&#xd5;" horiz-adv-x="728" d="M364 -8q-64 0 -123.5 22t-105.5 66t-74 111.5t-28 158.5t28 158.5t74 111.5t105.5 66t123.5 22t123.5 -22t105.5 -66t74 -111.5t28 -158.5t-28 -158.5t-74 -111.5t-105.5 -66t-123.5 -22zM364 140q33 0 61.5 12.5t50 38.5t33.5 65.5t12 93.5t-12 93.5t-33.5 65.5 t-50 38.5t-61.5 12.5t-61.5 -12.5t-50 -38.5t-33.5 -65.5t-12 -93.5t12 -93.5t33.5 -65.5t50 -38.5t61.5 -12.5zM567 854q-18 -42 -53.5 -68.5t-80.5 -26.5q-22 0 -39.5 6t-31.5 13q-15 8 -30 15.5t-33 7.5q-20 0 -35 -11t-30 -33l-74 63q18 42 53.5 68.5t80.5 26.5 q22 0 39.5 -6t31.5 -13q15 -8 30 -15.5t33 -7.5q20 0 35 11t30 33z" />
<glyph unicode="&#xd6;" horiz-adv-x="728" d="M364 -8q-64 0 -123.5 22t-105.5 66t-74 111.5t-28 158.5t28 158.5t74 111.5t105.5 66t123.5 22t123.5 -22t105.5 -66t74 -111.5t28 -158.5t-28 -158.5t-74 -111.5t-105.5 -66t-123.5 -22zM364 140q33 0 61.5 12.5t50 38.5t33.5 65.5t12 93.5t-12 93.5t-33.5 65.5 t-50 38.5t-61.5 12.5t-61.5 -12.5t-50 -38.5t-33.5 -65.5t-12 -93.5t12 -93.5t33.5 -65.5t50 -38.5t61.5 -12.5zM338 830q0 -30 -21 -50.5t-51 -20.5t-50.5 20.5t-20.5 50.5t20.5 51t50.5 21t51 -21t21 -51zM532 830q0 -30 -21 -50.5t-51 -20.5t-50.5 20.5t-20.5 50.5 t20.5 51t50.5 21t51 -21t21 -51z" />
<glyph unicode="&#xd7;" horiz-adv-x="582" d="M291 224l-157 -157l-93 93l157 157l-157 157l93 93l157 -157l157 157l93 -93l-157 -157l157 -157l-93 -93z" />
<glyph unicode="&#xd8;" horiz-adv-x="728" d="M39 27l66 85q-33 44 -52.5 103t-19.5 135q0 91 28 158.5t74 111.5t105.5 66t123.5 22q45 0 88.5 -11t82.5 -34l64 83l93 -68l-70 -90q34 -44 53.5 -103t19.5 -135q0 -91 -28 -158.5t-74 -111.5t-105.5 -66t-123.5 -22q-46 0 -89.5 10.5t-82.5 33.5l-60 -77zM288 160 q33 -20 76 -20q33 0 61.5 12.5t50 38.5t33.5 65.5t12 93.5q0 52 -12 93zM439 540q-34 20 -75 20q-33 0 -61.5 -12.5t-50 -38.5t-33.5 -65.5t-12 -93.5q0 -53 12 -92z" />
<glyph unicode="&#xd9;" horiz-adv-x="630" d="M410 700h170v-435q0 -70 -19 -121.5t-54 -85t-84 -50t-108 -16.5t-108 16.5t-84 50t-54 85t-19 121.5v435h170v-443q0 -62 27 -89.5t68 -27.5q40 0 67.5 27.5t27.5 89.5v443zM338 762l-150 192h181l73 -192h-104z" />
<glyph unicode="&#xda;" horiz-adv-x="630" d="M410 700h170v-435q0 -70 -19 -121.5t-54 -85t-84 -50t-108 -16.5t-108 16.5t-84 50t-54 85t-19 121.5v435h170v-443q0 -62 27 -89.5t68 -27.5q40 0 67.5 27.5t27.5 89.5v443zM188 762l73 192h181l-150 -192h-104z" />
<glyph unicode="&#xdb;" horiz-adv-x="630" d="M410 700h170v-435q0 -70 -19 -121.5t-54 -85t-84 -50t-108 -16.5t-108 16.5t-84 50t-54 85t-19 121.5v435h170v-443q0 -62 27 -89.5t68 -27.5q40 0 67.5 27.5t27.5 89.5v443zM373 762l-58 61l-58 -61h-132l171 192h38l171 -192h-132z" />
<glyph unicode="&#xdc;" horiz-adv-x="630" d="M410 700h170v-435q0 -70 -19 -121.5t-54 -85t-84 -50t-108 -16.5t-108 16.5t-84 50t-54 85t-19 121.5v435h170v-443q0 -62 27 -89.5t68 -27.5q40 0 67.5 27.5t27.5 89.5v443zM289 830q0 -30 -21 -50.5t-51 -20.5t-50.5 20.5t-20.5 50.5t20.5 51t50.5 21t51 -21t21 -51z M483 830q0 -30 -21 -50.5t-51 -20.5t-50.5 20.5t-20.5 50.5t20.5 51t50.5 21t51 -21t21 -51z" />
<glyph unicode="&#xdd;" horiz-adv-x="565" d="M198 0v296l-195 404h178l103 -242l101 242h177l-194 -404v-296h-170zM155 762l73 192h181l-150 -192h-104z" />
<glyph unicode="&#xde;" d="M66 0v728h170v-148h109q56 0 99.5 -15.5t73.5 -44t46 -68.5t16 -89q0 -97 -61.5 -154.5t-173.5 -57.5h-109v-151h-170zM323 295q45 0 64 20t19 51q0 33 -18.5 51.5t-66.5 18.5h-85v-141h87z" />
<glyph unicode="&#xdf;" horiz-adv-x="606" d="M269 122q27 -9 54 -9q46 0 73.5 28t27.5 73q0 47 -31.5 76t-90.5 29h-20v127h13q38 0 62.5 20.5t24.5 58.5q0 31 -19.5 53t-62.5 22q-47 0 -67.5 -27.5t-20.5 -73.5v-499h-153v510q0 54 17.5 95t49 68.5t74.5 41t95 13.5q57 0 99.5 -15t70.5 -41t42 -60t14 -72 q0 -57 -26.5 -91.5t-68.5 -47.5q73 -23 110 -67t37 -125q0 -54 -16.5 -94.5t-46 -68t-71.5 -41t-93 -13.5q-21 0 -42.5 2t-34.5 5v123z" />
<glyph unicode="&#xe0;" horiz-adv-x="508" d="M306 206h-50q-32 0 -48 -15t-16 -41q0 -28 16.5 -39t33.5 -11q31 0 47.5 24.5t16.5 55.5v26zM323 0q-5 16 -6.5 30.5t-2.5 27.5q-15 -31 -46.5 -49t-73.5 -18q-30 0 -58 9.5t-50 28.5t-35.5 48t-13.5 67q0 75 53.5 115.5t159.5 40.5h56v10q0 71 -72 71q-29 0 -60.5 -10 t-61.5 -30l-46 107q43 32 89 48t101 16q45 0 83.5 -11.5t67 -37t44.5 -67.5t16 -102v-294h-144zM277 566l-150 192h181l73 -192h-104z" />
<glyph unicode="&#xe1;" horiz-adv-x="508" d="M306 206h-50q-32 0 -48 -15t-16 -41q0 -28 16.5 -39t33.5 -11q31 0 47.5 24.5t16.5 55.5v26zM323 0q-5 16 -6.5 30.5t-2.5 27.5q-15 -31 -46.5 -49t-73.5 -18q-30 0 -58 9.5t-50 28.5t-35.5 48t-13.5 67q0 75 53.5 115.5t159.5 40.5h56v10q0 71 -72 71q-29 0 -60.5 -10 t-61.5 -30l-46 107q43 32 89 48t101 16q45 0 83.5 -11.5t67 -37t44.5 -67.5t16 -102v-294h-144zM127 566l73 192h181l-150 -192h-104z" />
<glyph unicode="&#xe2;" horiz-adv-x="508" d="M306 206h-50q-32 0 -48 -15t-16 -41q0 -28 16.5 -39t33.5 -11q31 0 47.5 24.5t16.5 55.5v26zM323 0q-5 16 -6.5 30.5t-2.5 27.5q-15 -31 -46.5 -49t-73.5 -18q-30 0 -58 9.5t-50 28.5t-35.5 48t-13.5 67q0 75 53.5 115.5t159.5 40.5h56v10q0 71 -72 71q-29 0 -60.5 -10 t-61.5 -30l-46 107q43 32 89 48t101 16q45 0 83.5 -11.5t67 -37t44.5 -67.5t16 -102v-294h-144zM312 566l-58 61l-58 -61h-132l171 192h38l171 -192h-132z" />
<glyph unicode="&#xe3;" horiz-adv-x="508" d="M306 206h-50q-32 0 -48 -15t-16 -41q0 -28 16.5 -39t33.5 -11q31 0 47.5 24.5t16.5 55.5v26zM323 0q-5 16 -6.5 30.5t-2.5 27.5q-15 -31 -46.5 -49t-73.5 -18q-30 0 -58 9.5t-50 28.5t-35.5 48t-13.5 67q0 75 53.5 115.5t159.5 40.5h56v10q0 71 -72 71q-29 0 -60.5 -10 t-61.5 -30l-46 107q43 32 89 48t101 16q45 0 83.5 -11.5t67 -37t44.5 -67.5t16 -102v-294h-144zM458 658q-18 -42 -53.5 -68.5t-80.5 -26.5q-22 0 -39.5 6t-31.5 13q-15 8 -30 15.5t-33 7.5q-20 0 -35 -11t-30 -33l-74 63q18 42 53.5 68.5t80.5 26.5q22 0 39.5 -6t31.5 -13 q15 -8 30 -15.5t33 -7.5q20 0 35 11t30 33z" />
<glyph unicode="&#xe4;" horiz-adv-x="508" d="M306 206h-50q-32 0 -48 -15t-16 -41q0 -28 16.5 -39t33.5 -11q31 0 47.5 24.5t16.5 55.5v26zM323 0q-5 16 -6.5 30.5t-2.5 27.5q-15 -31 -46.5 -49t-73.5 -18q-30 0 -58 9.5t-50 28.5t-35.5 48t-13.5 67q0 75 53.5 115.5t159.5 40.5h56v10q0 71 -72 71q-29 0 -60.5 -10 t-61.5 -30l-46 107q43 32 89 48t101 16q45 0 83.5 -11.5t67 -37t44.5 -67.5t16 -102v-294h-144zM229 634q0 -30 -21 -50.5t-51 -20.5t-50.5 20.5t-20.5 50.5t20.5 51t50.5 21t51 -21t21 -51zM423 634q0 -30 -21 -50.5t-51 -20.5t-50.5 20.5t-20.5 50.5t20.5 51t50.5 21 t51 -21t21 -51z" />
<glyph unicode="&#xe5;" horiz-adv-x="508" d="M306 206h-50q-32 0 -48 -15t-16 -41q0 -28 16.5 -39t33.5 -11q31 0 47.5 24.5t16.5 55.5v26zM323 0q-5 16 -6.5 30.5t-2.5 27.5q-15 -31 -46.5 -49t-73.5 -18q-30 0 -58 9.5t-50 28.5t-35.5 48t-13.5 67q0 75 53.5 115.5t159.5 40.5h56v10q0 71 -72 71q-29 0 -60.5 -10 t-61.5 -30l-46 107q43 32 89 48t101 16q45 0 83.5 -11.5t67 -37t44.5 -67.5t16 -102v-294h-144zM254 547q-23 0 -42.5 8.5t-34 23t-23 34t-8.5 42.5q0 22 8.5 42t23 34.5t34 23t42.5 8.5q22 0 42 -8.5t34.5 -23t23 -34.5t8.5 -42q0 -23 -8.5 -42.5t-23 -34t-34.5 -23 t-42 -8.5zM303 655q0 20 -14.5 34.5t-34.5 14.5t-34.5 -14.5t-14.5 -34.5t14.5 -34.5t34.5 -14.5t34.5 14.5t14.5 34.5z" />
<glyph unicode="&#xe6;" horiz-adv-x="846" d="M477 210q8 -42 35.5 -67.5t72.5 -25.5q28 0 49 11.5t40 34.5l97 -88q-41 -48 -89 -65.5t-102 -17.5q-77 0 -127 27t-79 69q-26 -46 -74.5 -71.5t-105.5 -25.5q-34 0 -64 9.5t-52.5 28t-35.5 47t-13 66.5q0 79 61 123.5t182 44.5h56v20q0 36 -24 53.5t-60 17.5 q-32 0 -59 -14t-57 -46l-74 89q86 82 202 82q98 0 154 -56q29 26 69.5 41t97.5 15q68 0 114.5 -23t75 -61.5t40.5 -89t12 -106.5v-22h-342zM662 310q-5 40 -28 65.5t-61 25.5q-32 0 -56.5 -21.5t-37.5 -69.5h183zM328 206h-50q-94 0 -94 -52q0 -20 14.5 -33t41.5 -13 q20 0 36.5 7.5t28 20.5t17.5 29t6 33v8z" />
<glyph unicode="&#xe7;" horiz-adv-x="572" d="M534 130q-35 -72 -99 -105t-139 -33q-63 0 -112 20.5t-82.5 56t-51 83t-17.5 100.5t17.5 100.5t50.5 83t81.5 56t110.5 20.5q75 0 137.5 -33t97.5 -105l-125 -69q-16 33 -41 52.5t-63 19.5q-53 0 -78 -36t-25 -89q0 -54 25 -89.5t78 -35.5q39 0 66 19.5t44 52.5z M222 -144q12 -14 25 -22t30 -8t27 9.5t10 27.5q0 12 -4 24t-10 23.5t-12 20.5q-7 9 -11 15h95q17 -20 28 -46t11 -61q0 -54 -28.5 -84.5t-81.5 -30.5q-42 0 -76 20.5t-62 65.5z" />
<glyph unicode="&#xe8;" horiz-adv-x="563" d="M194 210q8 -41 38.5 -67t75.5 -26q31 0 59 12.5t54 33.5l79 -89q-41 -36 -88 -59t-118 -23q-72 0 -122 23.5t-81 61t-44.5 84t-13.5 91.5q0 46 14 92t44.5 83.5t80 61t120.5 23.5q69 0 116 -23t75.5 -61.5t40.5 -89t12 -106.5v-22h-342zM379 310q-2 40 -26.5 65.5 t-62.5 25.5q-32 0 -60.5 -21.5t-33.5 -69.5h183zM304 566l-150 192h181l73 -192h-104z" />
<glyph unicode="&#xe9;" horiz-adv-x="563" d="M194 210q8 -41 38.5 -67t75.5 -26q31 0 59 12.5t54 33.5l79 -89q-41 -36 -88 -59t-118 -23q-72 0 -122 23.5t-81 61t-44.5 84t-13.5 91.5q0 46 14 92t44.5 83.5t80 61t120.5 23.5q69 0 116 -23t75.5 -61.5t40.5 -89t12 -106.5v-22h-342zM379 310q-2 40 -26.5 65.5 t-62.5 25.5q-32 0 -60.5 -21.5t-33.5 -69.5h183zM154 566l73 192h181l-150 -192h-104z" />
<glyph unicode="&#xea;" horiz-adv-x="563" d="M194 210q8 -41 38.5 -67t75.5 -26q31 0 59 12.5t54 33.5l79 -89q-41 -36 -88 -59t-118 -23q-72 0 -122 23.5t-81 61t-44.5 84t-13.5 91.5q0 46 14 92t44.5 83.5t80 61t120.5 23.5q69 0 116 -23t75.5 -61.5t40.5 -89t12 -106.5v-22h-342zM379 310q-2 40 -26.5 65.5 t-62.5 25.5q-32 0 -60.5 -21.5t-33.5 -69.5h183zM339 566l-58 61l-58 -61h-132l171 192h38l171 -192h-132z" />
<glyph unicode="&#xeb;" horiz-adv-x="563" d="M194 210q8 -41 38.5 -67t75.5 -26q31 0 59 12.5t54 33.5l79 -89q-41 -36 -88 -59t-118 -23q-72 0 -122 23.5t-81 61t-44.5 84t-13.5 91.5q0 46 14 92t44.5 83.5t80 61t120.5 23.5q69 0 116 -23t75.5 -61.5t40.5 -89t12 -106.5v-22h-342zM379 310q-2 40 -26.5 65.5 t-62.5 25.5q-32 0 -60.5 -21.5t-33.5 -69.5h183zM256 634q0 -30 -21 -50.5t-51 -20.5t-50.5 20.5t-20.5 50.5t20.5 51t50.5 21t51 -21t21 -51zM450 634q0 -30 -21 -50.5t-51 -20.5t-50.5 20.5t-20.5 50.5t20.5 51t50.5 21t51 -21t21 -51z" />
<glyph unicode="&#xec;" horiz-adv-x="277" d="M58 0v504h161v-504h-161zM162 566l-150 192h181l73 -192h-104z" />
<glyph unicode="&#xed;" horiz-adv-x="277" d="M58 0v504h161v-504h-161zM12 566l73 192h181l-150 -192h-104z" />
<glyph unicode="&#xee;" horiz-adv-x="262" d="M51 0v504h161v-504h-161zM190 566l-58 61l-58 -61h-132l171 192h38l171 -192h-132z" />
<glyph unicode="&#xef;" horiz-adv-x="269" d="M54 0v504h161v-504h-161zM109 634q0 -30 -21 -50.5t-51 -20.5t-50.5 20.5t-20.5 50.5t20.5 51t50.5 21t51 -21t21 -51zM303 634q0 -30 -21 -50.5t-51 -20.5t-50.5 20.5t-20.5 50.5t20.5 51t50.5 21t51 -21t21 -51z" />
<glyph unicode="&#xf0;" d="M179 596l25 27q-20 10 -40.5 18.5t-42.5 16.5l42 119q35 -13 67.5 -26.5t61.5 -29.5l55 60l70 -61l-45 -49q24 -20 57 -50t63 -74.5t50.5 -105t20.5 -140.5q0 -69 -17.5 -126t-51 -97.5t-83.5 -63t-116 -22.5q-65 0 -114 21t-82 57t-49.5 83t-16.5 99t16.5 99t48.5 83 t77.5 57t104.5 21q44 0 83 -14q-19 23 -38.5 42t-39.5 35l-37 -41zM298 127q51 0 75.5 35t24.5 90t-24.5 90t-75.5 35t-75.5 -35t-24.5 -90t24.5 -90t75.5 -35z" />
<glyph unicode="&#xf1;" horiz-adv-x="584" d="M369 0v303q0 35 -18 54.5t-46 19.5q-41 0 -63 -40t-22 -113v-224h-161v504h150q5 -19 7.5 -36t3.5 -32q22 37 55 56.5t89 19.5q83 0 124.5 -43t41.5 -121v-348h-161zM494 658q-18 -42 -53.5 -68.5t-80.5 -26.5q-22 0 -39.5 6t-31.5 13q-15 8 -30 15.5t-33 7.5 q-20 0 -35 -11t-30 -33l-74 63q18 42 53.5 68.5t80.5 26.5q22 0 39.5 -6t31.5 -13q15 -8 30 -15.5t33 -7.5q20 0 35 11t30 33z" />
<glyph unicode="&#xf2;" d="M563 252q0 -52 -16.5 -99t-50 -83t-83 -57t-115.5 -21t-115.5 21t-83 57t-50 83t-16.5 99t16.5 99t50 83t83 57t115.5 21t115.5 -21t83 -57t50 -83t16.5 -99zM298 127q51 0 75.5 35t24.5 90t-24.5 90t-75.5 35t-75.5 -35t-24.5 -90t24.5 -90t75.5 -35zM321 566l-150 192 h181l73 -192h-104z" />
<glyph unicode="&#xf3;" d="M563 252q0 -52 -16.5 -99t-50 -83t-83 -57t-115.5 -21t-115.5 21t-83 57t-50 83t-16.5 99t16.5 99t50 83t83 57t115.5 21t115.5 -21t83 -57t50 -83t16.5 -99zM298 127q51 0 75.5 35t24.5 90t-24.5 90t-75.5 35t-75.5 -35t-24.5 -90t24.5 -90t75.5 -35zM171 566l73 192 h181l-150 -192h-104z" />
<glyph unicode="&#xf4;" d="M563 252q0 -52 -16.5 -99t-50 -83t-83 -57t-115.5 -21t-115.5 21t-83 57t-50 83t-16.5 99t16.5 99t50 83t83 57t115.5 21t115.5 -21t83 -57t50 -83t16.5 -99zM298 127q51 0 75.5 35t24.5 90t-24.5 90t-75.5 35t-75.5 -35t-24.5 -90t24.5 -90t75.5 -35zM356 566l-58 61 l-58 -61h-132l171 192h38l171 -192h-132z" />
<glyph unicode="&#xf5;" d="M563 252q0 -52 -16.5 -99t-50 -83t-83 -57t-115.5 -21t-115.5 21t-83 57t-50 83t-16.5 99t16.5 99t50 83t83 57t115.5 21t115.5 -21t83 -57t50 -83t16.5 -99zM298 127q51 0 75.5 35t24.5 90t-24.5 90t-75.5 35t-75.5 -35t-24.5 -90t24.5 -90t75.5 -35zM501 658 q-18 -42 -53.5 -68.5t-80.5 -26.5q-22 0 -39.5 6t-31.5 13q-15 8 -30 15.5t-33 7.5q-20 0 -35 -11t-30 -33l-74 63q18 42 53.5 68.5t80.5 26.5q22 0 39.5 -6t31.5 -13q15 -8 30 -15.5t33 -7.5q20 0 35 11t30 33z" />
<glyph unicode="&#xf6;" d="M563 252q0 -52 -16.5 -99t-50 -83t-83 -57t-115.5 -21t-115.5 21t-83 57t-50 83t-16.5 99t16.5 99t50 83t83 57t115.5 21t115.5 -21t83 -57t50 -83t16.5 -99zM298 127q51 0 75.5 35t24.5 90t-24.5 90t-75.5 35t-75.5 -35t-24.5 -90t24.5 -90t75.5 -35zM272 634 q0 -30 -21 -50.5t-51 -20.5t-50.5 20.5t-20.5 50.5t20.5 51t50.5 21t51 -21t21 -51zM466 634q0 -30 -21 -50.5t-51 -20.5t-50.5 20.5t-20.5 50.5t20.5 51t50.5 21t51 -21t21 -51z" />
<glyph unicode="&#xf7;" horiz-adv-x="578" d="M41 251v132h496v-132h-496zM375 513q0 -35 -25 -60t-61 -25q-35 0 -60 25t-25 60q0 36 25 61t60 25q36 0 61 -25t25 -61zM375 120q0 -35 -25 -60t-61 -25q-35 0 -60 25t-25 60q0 36 25 61t60 25q36 0 61 -25t25 -61z" />
<glyph unicode="&#xf8;" horiz-adv-x="602" d="M33 8l57 72q-29 35 -43 79t-14 93q0 52 16.5 99t50 83t83 57t115.5 21q33 0 61.5 -5.5t53.5 -15.5l62 79l94 -69l-62 -79q28 -35 42 -78.5t14 -91.5q0 -52 -16.5 -99t-50 -83t-83 -57t-115.5 -21q-63 0 -114 20l-57 -73zM321 374q-11 3 -23 3q-51 0 -75.5 -35t-24.5 -90 v-16t2 -16zM276 129q5 -1 10.5 -1.5t11.5 -0.5q51 0 75.5 35t24.5 90q0 8 -0.5 15t-1.5 14z" />
<glyph unicode="&#xf9;" horiz-adv-x="576" d="M365 0q-5 19 -7.5 36t-3.5 32q-20 -37 -51 -56.5t-85 -19.5q-81 0 -122.5 43t-41.5 121v348h161v-303q0 -35 18.5 -54.5t44.5 -19.5q38 0 57 40.5t19 112.5v224h161v-504h-150zM312 566l-150 192h181l73 -192h-104z" />
<glyph unicode="&#xfa;" horiz-adv-x="576" d="M365 0q-5 19 -7.5 36t-3.5 32q-20 -37 -51 -56.5t-85 -19.5q-81 0 -122.5 43t-41.5 121v348h161v-303q0 -35 18.5 -54.5t44.5 -19.5q38 0 57 40.5t19 112.5v224h161v-504h-150zM162 566l73 192h181l-150 -192h-104z" />
<glyph unicode="&#xfb;" horiz-adv-x="576" d="M365 0q-5 19 -7.5 36t-3.5 32q-20 -37 -51 -56.5t-85 -19.5q-81 0 -122.5 43t-41.5 121v348h161v-303q0 -35 18.5 -54.5t44.5 -19.5q38 0 57 40.5t19 112.5v224h161v-504h-150zM347 566l-58 61l-58 -61h-132l171 192h38l171 -192h-132z" />
<glyph unicode="&#xfc;" horiz-adv-x="576" d="M365 0q-5 19 -7.5 36t-3.5 32q-20 -37 -51 -56.5t-85 -19.5q-81 0 -122.5 43t-41.5 121v348h161v-303q0 -35 18.5 -54.5t44.5 -19.5q38 0 57 40.5t19 112.5v224h161v-504h-150zM263 634q0 -30 -21 -50.5t-51 -20.5t-50.5 20.5t-20.5 50.5t20.5 51t50.5 21t51 -21t21 -51z M457 634q0 -30 -21 -50.5t-51 -20.5t-50.5 20.5t-20.5 50.5t20.5 51t50.5 21t51 -21t21 -51z" />
<glyph unicode="&#xfd;" horiz-adv-x="495" d="M25 -84q34 4 57.5 11.5t40.5 19.5t28.5 30t20.5 44l6 17l-173 466h161l88 -247l86 247h151l-171 -483q-19 -54 -39.5 -94.5t-49 -69t-69 -45.5t-99.5 -24zM120 566l73 192h181l-150 -192h-104z" />
<glyph unicode="&#xfe;" horiz-adv-x="598" d="M61 -204v922h161v-279v-3q12 39 44 57.5t81 18.5q51 0 91.5 -21t68.5 -56.5t43 -83t15 -99.5t-14.5 -99t-43 -83t-69.5 -57t-95 -21q-39 0 -69.5 12.5t-51.5 47.5v-256h-161zM309 127q48 0 69.5 35t21.5 90t-21.5 90t-69.5 35t-71.5 -35t-23.5 -90t23.5 -90t71.5 -35z " />
<glyph unicode="&#xff;" horiz-adv-x="495" d="M25 -84q34 4 57.5 11.5t40.5 19.5t28.5 30t20.5 44l6 17l-173 466h161l88 -247l86 247h151l-171 -483q-19 -54 -39.5 -94.5t-49 -69t-69 -45.5t-99.5 -24zM222 634q0 -30 -21 -50.5t-51 -20.5t-50.5 20.5t-20.5 50.5t20.5 51t50.5 21t51 -21t21 -51zM416 634 q0 -30 -21 -50.5t-51 -20.5t-50.5 20.5t-20.5 50.5t20.5 51t50.5 21t51 -21t21 -51z" />
<glyph unicode="&#x100;" horiz-adv-x="624" d="M448 0l-39 138h-194l-39 -138h-169l223 700h164l223 -700h-169zM312 492l-59 -219h118zM173 790v112h277v-112h-277z" />
<glyph unicode="&#x101;" horiz-adv-x="508" d="M306 206h-50q-32 0 -48 -15t-16 -41q0 -28 16.5 -39t33.5 -11q31 0 47.5 24.5t16.5 55.5v26zM323 0q-5 16 -6.5 30.5t-2.5 27.5q-15 -31 -46.5 -49t-73.5 -18q-30 0 -58 9.5t-50 28.5t-35.5 48t-13.5 67q0 75 53.5 115.5t159.5 40.5h56v10q0 71 -72 71q-29 0 -60.5 -10 t-61.5 -30l-46 107q43 32 89 48t101 16q45 0 83.5 -11.5t67 -37t44.5 -67.5t16 -102v-294h-144zM116 594v112h277v-112h-277z" />
<glyph unicode="&#x102;" horiz-adv-x="624" d="M448 0l-39 138h-194l-39 -138h-169l223 700h164l223 -700h-169zM312 492l-59 -219h118zM461 906q-1 -26 -11 -49.5t-28 -41.5t-43 -28.5t-57 -10.5t-57.5 10.5t-43.5 28.5t-28 41.5t-11 49.5h97q2 -18 14 -29.5t29 -11.5t28.5 11.5t13.5 29.5h97z" />
<glyph unicode="&#x103;" horiz-adv-x="508" d="M306 206h-50q-32 0 -48 -15t-16 -41q0 -28 16.5 -39t33.5 -11q31 0 47.5 24.5t16.5 55.5v26zM323 0q-5 16 -6.5 30.5t-2.5 27.5q-15 -31 -46.5 -49t-73.5 -18q-30 0 -58 9.5t-50 28.5t-35.5 48t-13.5 67q0 75 53.5 115.5t159.5 40.5h56v10q0 71 -72 71q-29 0 -60.5 -10 t-61.5 -30l-46 107q43 32 89 48t101 16q45 0 83.5 -11.5t67 -37t44.5 -67.5t16 -102v-294h-144zM394 710q-1 -26 -11 -49.5t-28 -41.5t-43 -28.5t-57 -10.5t-57.5 10.5t-43.5 28.5t-28 41.5t-11 49.5h97q2 -18 14 -29.5t29 -11.5t28.5 11.5t13.5 29.5h97z" />
<glyph unicode="&#x104;" horiz-adv-x="624" d="M614 -149q-23 -17 -53 -30t-66 -13q-49 0 -75.5 25t-26.5 60q0 21 9 37.5t24.5 30t36 23.5t44.5 16h-59l-39 138h-194l-39 -138h-169l223 700h164l223 -700q-26 -8 -49 -18t-40.5 -20.5t-27.5 -21.5t-10 -23q0 -22 28 -22q14 0 31.5 6.5t31.5 16.5zM312 492l-59 -219h118 z" />
<glyph unicode="&#x105;" horiz-adv-x="508" d="M464 -149q-23 -17 -53 -30t-66 -13q-49 0 -75.5 25t-26.5 60q0 21 9 37.5t24.5 30t36 23.5t44.5 16h-34q-5 16 -6.5 30.5t-2.5 27.5q-15 -31 -46.5 -49t-73.5 -18q-30 0 -58 9.5t-50 28.5t-35.5 48t-13.5 67q0 75 53.5 115.5t159.5 40.5h56v10q0 71 -72 71 q-29 0 -60.5 -10t-61.5 -30l-46 107q43 32 89 48t101 16q45 0 83.5 -11.5t67 -37t44.5 -67.5t16 -102v-294q-26 -8 -49 -18t-40.5 -20.5t-27.5 -21.5t-10 -23q0 -22 28 -22q14 0 31.5 6.5t31.5 16.5zM306 206h-50q-32 0 -48 -15t-16 -41q0 -28 16.5 -39t33.5 -11 q31 0 47.5 24.5t16.5 55.5v26z" />
<glyph unicode="&#x106;" horiz-adv-x="676" d="M629 182q-17 -50 -45 -86t-64 -59t-78 -34t-88 -11q-67 0 -126 22.5t-103.5 67t-70.5 111.5t-26 156q0 91 26.5 158.5t71.5 112t104 66.5t124 22q41 0 79.5 -9t72.5 -27.5t62 -48t47 -69.5l-139 -76q-20 37 -49.5 59.5t-74.5 22.5q-31 0 -58.5 -13t-47.5 -39t-32 -65.5 t-12 -92.5q0 -54 12 -93.5t32.5 -65.5t48 -38.5t58.5 -12.5q28 0 49.5 9t37.5 24t28 34.5t20 39.5zM216 762l73 192h181l-150 -192h-104z" />
<glyph unicode="&#x107;" horiz-adv-x="572" d="M534 130q-35 -72 -99 -105t-139 -33q-63 0 -112 20.5t-82.5 56t-51 83t-17.5 100.5t17.5 100.5t50.5 83t81.5 56t110.5 20.5q75 0 137.5 -33t97.5 -105l-125 -69q-16 33 -41 52.5t-63 19.5q-53 0 -78 -36t-25 -89q0 -54 25 -89.5t78 -35.5q39 0 66 19.5t44 52.5zM160 566 l73 192h181l-150 -192h-104z" />
<glyph unicode="&#x108;" horiz-adv-x="676" d="M629 182q-17 -50 -45 -86t-64 -59t-78 -34t-88 -11q-67 0 -126 22.5t-103.5 67t-70.5 111.5t-26 156q0 91 26.5 158.5t71.5 112t104 66.5t124 22q41 0 79.5 -9t72.5 -27.5t62 -48t47 -69.5l-139 -76q-20 37 -49.5 59.5t-74.5 22.5q-31 0 -58.5 -13t-47.5 -39t-32 -65.5 t-12 -92.5q0 -54 12 -93.5t32.5 -65.5t48 -38.5t58.5 -12.5q28 0 49.5 9t37.5 24t28 34.5t20 39.5zM398 762l-58 61l-58 -61h-132l171 192h38l171 -192h-132z" />
<glyph unicode="&#x109;" horiz-adv-x="572" d="M534 130q-35 -72 -99 -105t-139 -33q-63 0 -112 20.5t-82.5 56t-51 83t-17.5 100.5t17.5 100.5t50.5 83t81.5 56t110.5 20.5q75 0 137.5 -33t97.5 -105l-125 -69q-16 33 -41 52.5t-63 19.5q-53 0 -78 -36t-25 -89q0 -54 25 -89.5t78 -35.5q39 0 66 19.5t44 52.5zM345 566 l-58 61l-58 -61h-132l171 192h38l171 -192h-132z" />
<glyph unicode="&#x10a;" horiz-adv-x="676" d="M629 182q-17 -50 -45 -86t-64 -59t-78 -34t-88 -11q-67 0 -126 22.5t-103.5 67t-70.5 111.5t-26 156q0 91 26.5 158.5t71.5 112t104 66.5t124 22q41 0 79.5 -9t72.5 -27.5t62 -48t47 -69.5l-139 -76q-20 37 -49.5 59.5t-74.5 22.5q-31 0 -58.5 -13t-47.5 -39t-32 -65.5 t-12 -92.5q0 -54 12 -93.5t32.5 -65.5t48 -38.5t58.5 -12.5q28 0 49.5 9t37.5 24t28 34.5t20 39.5zM340 762q-40 0 -67.5 27.5t-27.5 67.5q0 19 7.5 36.5t20 30.5t30 20.5t37.5 7.5q19 0 36.5 -7.5t30.5 -20.5t20.5 -30.5t7.5 -36.5q0 -20 -7.5 -37.5t-20.5 -30t-30.5 -20 t-36.5 -7.5z" />
<glyph unicode="&#x10b;" horiz-adv-x="572" d="M534 130q-35 -72 -99 -105t-139 -33q-63 0 -112 20.5t-82.5 56t-51 83t-17.5 100.5t17.5 100.5t50.5 83t81.5 56t110.5 20.5q75 0 137.5 -33t97.5 -105l-125 -69q-16 33 -41 52.5t-63 19.5q-53 0 -78 -36t-25 -89q0 -54 25 -89.5t78 -35.5q39 0 66 19.5t44 52.5zM287 566 q-40 0 -67.5 27.5t-27.5 67.5q0 19 7.5 36.5t20 30.5t30 20.5t37.5 7.5q19 0 36.5 -7.5t30.5 -20.5t20.5 -30.5t7.5 -36.5q0 -20 -7.5 -37.5t-20.5 -30t-30.5 -20t-36.5 -7.5z" />
<glyph unicode="&#x10c;" horiz-adv-x="676" d="M629 182q-17 -50 -45 -86t-64 -59t-78 -34t-88 -11q-67 0 -126 22.5t-103.5 67t-70.5 111.5t-26 156q0 91 26.5 158.5t71.5 112t104 66.5t124 22q41 0 79.5 -9t72.5 -27.5t62 -48t47 -69.5l-139 -76q-20 37 -49.5 59.5t-74.5 22.5q-31 0 -58.5 -13t-47.5 -39t-32 -65.5 t-12 -92.5q0 -54 12 -93.5t32.5 -65.5t48 -38.5t58.5 -12.5q28 0 49.5 9t37.5 24t28 34.5t20 39.5zM321 762l-171 192h132l58 -61l58 61h132l-171 -192h-38z" />
<glyph unicode="&#x10d;" horiz-adv-x="572" d="M534 130q-35 -72 -99 -105t-139 -33q-63 0 -112 20.5t-82.5 56t-51 83t-17.5 100.5t17.5 100.5t50.5 83t81.5 56t110.5 20.5q75 0 137.5 -33t97.5 -105l-125 -69q-16 33 -41 52.5t-63 19.5q-53 0 -78 -36t-25 -89q0 -54 25 -89.5t78 -35.5q39 0 66 19.5t44 52.5zM268 566 l-171 192h132l58 -61l58 61h132l-171 -192h-38z" />
<glyph unicode="&#x10e;" horiz-adv-x="660" d="M66 0v700h228q64 0 124 -20t106.5 -63t74.5 -109t28 -158t-28 -158t-74.5 -109t-106.5 -63t-124 -20h-228zM279 144q33 0 64.5 10t55.5 34t39 63.5t15 98.5q0 58 -15 97.5t-39 63.5t-55.5 34.5t-64.5 10.5h-43v-412h43zM307 762l-171 192h132l58 -61l58 61h132l-171 -192 h-38z" />
<glyph unicode="&#x10f;" horiz-adv-x="766" d="M289 127q48 0 71.5 35t23.5 90t-23.5 90t-71.5 35t-69.5 -35t-21.5 -90t21.5 -90t69.5 -35zM387 0q-9 36 -11 68q-12 -39 -44 -57.5t-81 -18.5q-51 0 -91.5 21t-68.5 56.5t-43 82.5t-15 100q0 52 14.5 99t43 83t69.5 57t95 21q39 0 69.5 -12.5t51.5 -47.5v266h161v-718 h-150zM595 468q28 18 48.5 44t27.5 59q-35 6 -52.5 29.5t-17.5 52.5q0 35 24 60t63 25q22 0 38 -8t26.5 -21.5t16 -30.5t5.5 -36q0 -33 -15 -66.5t-38.5 -62t-52 -50t-55.5 -32.5z" />
<glyph unicode="&#x110;" horiz-adv-x="694" d="M100 0v288h-83v124h83v288h228q64 0 124 -20t106.5 -63t74.5 -109t28 -158t-28 -158t-74.5 -109t-106.5 -63t-124 -20h-228zM313 144q33 0 64.5 10t55.5 34t39 63.5t15 98.5q0 58 -15 97.5t-39 63.5t-55.5 34.5t-64.5 10.5h-43v-144h92v-124h-92v-144h43z" />
<glyph unicode="&#x111;" horiz-adv-x="610" d="M289 127q48 0 71.5 35t23.5 90t-23.5 90t-71.5 35t-69.5 -35t-21.5 -90t21.5 -90t69.5 -35zM387 0q-9 36 -11 68q-12 -39 -44 -57.5t-81 -18.5q-51 0 -91.5 21t-68.5 56.5t-43 82.5t-15 100q0 52 14.5 99t43 83t69.5 57t95 21q39 0 69.5 -12.5t51.5 -47.5v105h-97v93h97 v68h161v-68h65v-93h-65v-557h-150z" />
<glyph unicode="&#x112;" horiz-adv-x="568" d="M66 0v700h460v-144h-290v-111h218v-144h-218v-157h300v-144h-470zM141 790v112h277v-112h-277z" />
<glyph unicode="&#x113;" horiz-adv-x="563" d="M194 210q8 -41 38.5 -67t75.5 -26q31 0 59 12.5t54 33.5l79 -89q-41 -36 -88 -59t-118 -23q-72 0 -122 23.5t-81 61t-44.5 84t-13.5 91.5q0 46 14 92t44.5 83.5t80 61t120.5 23.5q69 0 116 -23t75.5 -61.5t40.5 -89t12 -106.5v-22h-342zM379 310q-2 40 -26.5 65.5 t-62.5 25.5q-32 0 -60.5 -21.5t-33.5 -69.5h183zM143 594v112h277v-112h-277z" />
<glyph unicode="&#x114;" horiz-adv-x="568" d="M66 0v700h460v-144h-290v-111h218v-144h-218v-157h300v-144h-470zM428 906q-1 -26 -11 -49.5t-28 -41.5t-43 -28.5t-57 -10.5t-57.5 10.5t-43.5 28.5t-28 41.5t-11 49.5h97q2 -18 14 -29.5t29 -11.5t28.5 11.5t13.5 29.5h97z" />
<glyph unicode="&#x115;" horiz-adv-x="563" d="M194 210q8 -41 38.5 -67t75.5 -26q31 0 59 12.5t54 33.5l79 -89q-41 -36 -88 -59t-118 -23q-72 0 -122 23.5t-81 61t-44.5 84t-13.5 91.5q0 46 14 92t44.5 83.5t80 61t120.5 23.5q69 0 116 -23t75.5 -61.5t40.5 -89t12 -106.5v-22h-342zM379 310q-2 40 -26.5 65.5 t-62.5 25.5q-32 0 -60.5 -21.5t-33.5 -69.5h183zM421 710q-1 -26 -11 -49.5t-28 -41.5t-43 -28.5t-57 -10.5t-57.5 10.5t-43.5 28.5t-28 41.5t-11 49.5h97q2 -18 14 -29.5t29 -11.5t28.5 11.5t13.5 29.5h97z" />
<glyph unicode="&#x116;" horiz-adv-x="568" d="M66 0v700h460v-144h-290v-111h218v-144h-218v-157h300v-144h-470zM279 762q-40 0 -67.5 27.5t-27.5 67.5q0 19 7.5 36.5t20 30.5t30 20.5t37.5 7.5q19 0 36.5 -7.5t30.5 -20.5t20.5 -30.5t7.5 -36.5q0 -20 -7.5 -37.5t-20.5 -30t-30.5 -20t-36.5 -7.5z" />
<glyph unicode="&#x117;" horiz-adv-x="563" d="M194 210q8 -41 38.5 -67t75.5 -26q31 0 59 12.5t54 33.5l79 -89q-41 -36 -88 -59t-118 -23q-72 0 -122 23.5t-81 61t-44.5 84t-13.5 91.5q0 46 14 92t44.5 83.5t80 61t120.5 23.5q69 0 116 -23t75.5 -61.5t40.5 -89t12 -106.5v-22h-342zM379 310q-2 40 -26.5 65.5 t-62.5 25.5q-32 0 -60.5 -21.5t-33.5 -69.5h183zM281 566q-40 0 -67.5 27.5t-27.5 67.5q0 19 7.5 36.5t20 30.5t30 20.5t37.5 7.5q19 0 36.5 -7.5t30.5 -20.5t20.5 -30.5t7.5 -36.5q0 -20 -7.5 -37.5t-20.5 -30t-30.5 -20t-36.5 -7.5z" />
<glyph unicode="&#x118;" horiz-adv-x="568" d="M533 -149q-23 -17 -53 -30t-66 -13q-49 0 -75.5 25t-26.5 60q0 21 9 37.5t24.5 30t36 23.5t44.5 16h-360v700h460v-144h-290v-111h218v-144h-218v-157h300v-144q-26 -8 -49 -18t-40.5 -20.5t-27.5 -21.5t-10 -23q0 -22 28 -22q14 0 31.5 6.5t31.5 16.5z" />
<glyph unicode="&#x119;" horiz-adv-x="563" d="M365 -149q-23 -17 -53 -30t-66 -13q-49 0 -75.5 25t-26.5 60q0 38 28.5 63.5t70.5 39.5q-58 8 -98 34t-65 61.5t-36 77.5t-11 83q0 46 14 92t44.5 83.5t80 61t120.5 23.5q69 0 116 -23t75.5 -61.5t40.5 -89t12 -106.5v-22h-342q8 -41 38.5 -67t75.5 -26q31 0 59 12.5 t54 33.5l79 -89q-29 -26 -60.5 -45t-71.5 -29q-26 -8 -49 -18t-40.5 -20.5t-27.5 -21.5t-10 -23q0 -22 28 -22q14 0 31.5 6.5t31.5 16.5zM379 310q-2 40 -26.5 65.5t-62.5 25.5q-32 0 -60.5 -21.5t-33.5 -69.5h183z" />
<glyph unicode="&#x11a;" horiz-adv-x="568" d="M66 0v700h460v-144h-290v-111h218v-144h-218v-157h300v-144h-470zM260 762l-171 192h132l58 -61l58 61h132l-171 -192h-38z" />
<glyph unicode="&#x11b;" horiz-adv-x="563" d="M194 210q8 -41 38.5 -67t75.5 -26q31 0 59 12.5t54 33.5l79 -89q-41 -36 -88 -59t-118 -23q-72 0 -122 23.5t-81 61t-44.5 84t-13.5 91.5q0 46 14 92t44.5 83.5t80 61t120.5 23.5q69 0 116 -23t75.5 -61.5t40.5 -89t12 -106.5v-22h-342zM379 310q-2 40 -26.5 65.5 t-62.5 25.5q-32 0 -60.5 -21.5t-33.5 -69.5h183zM262 566l-171 192h132l58 -61l58 61h132l-171 -192h-38z" />
<glyph unicode="&#x11c;" horiz-adv-x="696" d="M555 0l-13 62q-27 -26 -71.5 -48t-114.5 -22q-62 0 -120.5 21.5t-103.5 66t-72 111.5t-27 158t27.5 159t74 112t106.5 66t126 22q85 0 154.5 -37t107.5 -117l-139 -76q-20 37 -49.5 59.5t-74.5 22.5q-33 0 -62 -13.5t-50.5 -39.5t-34 -66t-12.5 -92q0 -53 12.5 -92.5 t35 -65.5t53.5 -38.5t67 -12.5q32 0 65 13.5t56 56.5v45h-120v141h270v-396h-91zM408 762l-58 61l-58 -61h-132l171 192h38l171 -192h-132z" />
<glyph unicode="&#x11d;" horiz-adv-x="556" d="M335 104q91 0 140.5 -39.5t49.5 -111.5q0 -45 -18.5 -77t-51.5 -51.5t-77 -28.5t-95 -9q-117 0 -180 40t-63 108q0 38 19 61.5t45 44.5q-13 15 -22.5 34.5t-9.5 45.5q0 33 14 55.5t40 36.5q-28 24 -41.5 56.5t-13.5 68.5q0 35 13.5 66.5t40 55.5t66.5 38t94 14 q64 0 109 -21l125 54l40 -102l-80 -29q10 -18 14.5 -37.5t4.5 -39.5q0 -35 -13.5 -66.5t-40.5 -55.5t-67 -38.5t-92 -14.5q-39 0 -69 9q-15 -8 -20.5 -16.5t-5.5 -17.5q0 -14 13 -23.5t31 -9.5h101zM253 -10q-12 0 -26 1.5t-22 3.5q-8 -9 -9.5 -19t-1.5 -17q0 -32 28 -47.5 t68 -15.5q34 0 57.5 12.5t23.5 39.5q0 25 -20.5 33.5t-44.5 8.5h-53zM352 335q0 27 -16.5 43.5t-51.5 16.5t-51.5 -16t-16.5 -44q0 -29 16.5 -46t51.5 -17t51.5 17.5t16.5 45.5zM342 566l-58 61l-58 -61h-132l171 192h38l171 -192h-132z" />
<glyph unicode="&#x11e;" horiz-adv-x="696" d="M555 0l-13 62q-27 -26 -71.5 -48t-114.5 -22q-62 0 -120.5 21.5t-103.5 66t-72 111.5t-27 158t27.5 159t74 112t106.5 66t126 22q85 0 154.5 -37t107.5 -117l-139 -76q-20 37 -49.5 59.5t-74.5 22.5q-33 0 -62 -13.5t-50.5 -39.5t-34 -66t-12.5 -92q0 -53 12.5 -92.5 t35 -65.5t53.5 -38.5t67 -12.5q32 0 65 13.5t56 56.5v45h-120v141h270v-396h-91zM499 906q-1 -26 -11 -49.5t-28 -41.5t-43 -28.5t-57 -10.5t-57.5 10.5t-43.5 28.5t-28 41.5t-11 49.5h97q2 -18 14 -29.5t29 -11.5t28.5 11.5t13.5 29.5h97z" />
<glyph unicode="&#x11f;" horiz-adv-x="556" d="M335 104q91 0 140.5 -39.5t49.5 -111.5q0 -45 -18.5 -77t-51.5 -51.5t-77 -28.5t-95 -9q-117 0 -180 40t-63 108q0 38 19 61.5t45 44.5q-13 15 -22.5 34.5t-9.5 45.5q0 33 14 55.5t40 36.5q-28 24 -41.5 56.5t-13.5 68.5q0 35 13.5 66.5t40 55.5t66.5 38t94 14 q64 0 109 -21l125 54l40 -102l-80 -29q10 -18 14.5 -37.5t4.5 -39.5q0 -35 -13.5 -66.5t-40.5 -55.5t-67 -38.5t-92 -14.5q-39 0 -69 9q-15 -8 -20.5 -16.5t-5.5 -17.5q0 -14 13 -23.5t31 -9.5h101zM253 -10q-12 0 -26 1.5t-22 3.5q-8 -9 -9.5 -19t-1.5 -17q0 -32 28 -47.5 t68 -15.5q34 0 57.5 12.5t23.5 39.5q0 25 -20.5 33.5t-44.5 8.5h-53zM352 335q0 27 -16.5 43.5t-51.5 16.5t-51.5 -16t-16.5 -44q0 -29 16.5 -46t51.5 -17t51.5 17.5t16.5 45.5zM423 710q-1 -26 -11 -49.5t-28 -41.5t-43 -28.5t-57 -10.5t-57.5 10.5t-43.5 28.5t-28 41.5 t-11 49.5h97q2 -18 14 -29.5t29 -11.5t28.5 11.5t13.5 29.5h97z" />
<glyph unicode="&#x120;" horiz-adv-x="696" d="M555 0l-13 62q-27 -26 -71.5 -48t-114.5 -22q-62 0 -120.5 21.5t-103.5 66t-72 111.5t-27 158t27.5 159t74 112t106.5 66t126 22q85 0 154.5 -37t107.5 -117l-139 -76q-20 37 -49.5 59.5t-74.5 22.5q-33 0 -62 -13.5t-50.5 -39.5t-34 -66t-12.5 -92q0 -53 12.5 -92.5 t35 -65.5t53.5 -38.5t67 -12.5q32 0 65 13.5t56 56.5v45h-120v141h270v-396h-91zM350 762q-40 0 -67.5 27.5t-27.5 67.5q0 19 7.5 36.5t20 30.5t30 20.5t37.5 7.5q19 0 36.5 -7.5t30.5 -20.5t20.5 -30.5t7.5 -36.5q0 -20 -7.5 -37.5t-20.5 -30t-30.5 -20t-36.5 -7.5z" />
<glyph unicode="&#x121;" horiz-adv-x="556" d="M335 104q91 0 140.5 -39.5t49.5 -111.5q0 -45 -18.5 -77t-51.5 -51.5t-77 -28.5t-95 -9q-117 0 -180 40t-63 108q0 38 19 61.5t45 44.5q-13 15 -22.5 34.5t-9.5 45.5q0 33 14 55.5t40 36.5q-28 24 -41.5 56.5t-13.5 68.5q0 35 13.5 66.5t40 55.5t66.5 38t94 14 q64 0 109 -21l125 54l40 -102l-80 -29q10 -18 14.5 -37.5t4.5 -39.5q0 -35 -13.5 -66.5t-40.5 -55.5t-67 -38.5t-92 -14.5q-39 0 -69 9q-15 -8 -20.5 -16.5t-5.5 -17.5q0 -14 13 -23.5t31 -9.5h101zM253 -10q-12 0 -26 1.5t-22 3.5q-8 -9 -9.5 -19t-1.5 -17q0 -32 28 -47.5 t68 -15.5q34 0 57.5 12.5t23.5 39.5q0 25 -20.5 33.5t-44.5 8.5h-53zM352 335q0 27 -16.5 43.5t-51.5 16.5t-51.5 -16t-16.5 -44q0 -29 16.5 -46t51.5 -17t51.5 17.5t16.5 45.5zM284 566q-40 0 -67.5 27.5t-27.5 67.5q0 19 7.5 36.5t20 30.5t30 20.5t37.5 7.5 q19 0 36.5 -7.5t30.5 -20.5t20.5 -30.5t7.5 -36.5q0 -20 -7.5 -37.5t-20.5 -30t-30.5 -20t-36.5 -7.5z" />
<glyph unicode="&#x122;" horiz-adv-x="696" d="M269 -319q28 18 48.5 44t27.5 59q-35 6 -52.5 29.5t-17.5 52.5q0 35 24 60t63 25q22 0 38 -8t26.5 -21.5t16 -30.5t5.5 -36q0 -33 -15 -66.5t-38.5 -62t-52 -50t-55.5 -32.5zM555 0l-13 62q-27 -26 -71.5 -48t-114.5 -22q-62 0 -120.5 21.5t-103.5 66t-72 111.5t-27 158 t27.5 159t74 112t106.5 66t126 22q85 0 154.5 -37t107.5 -117l-139 -76q-20 37 -49.5 59.5t-74.5 22.5q-33 0 -62 -13.5t-50.5 -39.5t-34 -66t-12.5 -92q0 -53 12.5 -92.5t35 -65.5t53.5 -38.5t67 -12.5q32 0 65 13.5t56 56.5v45h-120v141h270v-396h-91z" />
<glyph unicode="&#x123;" horiz-adv-x="556" d="M370 815q-28 -18 -48.5 -44t-27.5 -59q35 -6 52.5 -29.5t17.5 -52.5q0 -35 -24 -60t-63 -25q-22 0 -38 8t-26.5 21.5t-16 30.5t-5.5 36q0 33 15 66t38.5 61.5t52 50.5t55.5 33zM335 104q91 0 140.5 -39.5t49.5 -111.5q0 -45 -18.5 -77t-51.5 -51.5t-77 -28.5t-95 -9 q-117 0 -180 40t-63 108q0 38 19 61.5t45 44.5q-13 15 -22.5 34.5t-9.5 45.5q0 33 14 55.5t40 36.5q-28 24 -41.5 56.5t-13.5 68.5q0 35 13.5 66.5t40 55.5t66.5 38t94 14q64 0 109 -21l125 54l40 -102l-80 -29q10 -18 14.5 -37.5t4.5 -39.5q0 -35 -13.5 -66.5t-40.5 -55.5 t-67 -38.5t-92 -14.5q-39 0 -69 9q-15 -8 -20.5 -16.5t-5.5 -17.5q0 -14 13 -23.5t31 -9.5h101zM253 -10q-12 0 -26 1.5t-22 3.5q-8 -9 -9.5 -19t-1.5 -17q0 -32 28 -47.5t68 -15.5q34 0 57.5 12.5t23.5 39.5q0 25 -20.5 33.5t-44.5 8.5h-53zM352 335q0 27 -16.5 43.5 t-51.5 16.5t-51.5 -16t-16.5 -44q0 -29 16.5 -46t51.5 -17t51.5 17.5t16.5 45.5z" />
<glyph unicode="&#x124;" horiz-adv-x="698" d="M462 0v301h-226v-301h-170v700h170v-255h226v255h170v-700h-170zM407 762l-58 61l-58 -61h-132l171 192h38l171 -192h-132z" />
<glyph unicode="&#x125;" horiz-adv-x="590" d="M375 0v303q0 35 -18 54.5t-46 19.5q-41 0 -63 -40t-22 -113v-224h-161v718h161v-282q46 76 147 76q80 0 121.5 -43t41.5 -121v-348h-161zM203 770l-58 61l-58 -61h-132l171 192h38l171 -192h-132z" />
<glyph unicode="&#x126;" horiz-adv-x="720" d="M475 0v301h-226v-301h-170v503h-60v110h60v87h170v-87h226v87h170v-87h56v-110h-56v-503h-170zM475 503h-226v-58h226v58z" />
<glyph unicode="&#x127;" horiz-adv-x="597" d="M382 0v303q0 35 -18 54.5t-46 19.5q-41 0 -63 -40t-22 -113v-224h-161v557h-64v103h64v58h161v-58h98v-103h-98v-121q46 76 147 76q80 0 121.5 -43t41.5 -121v-348h-161z" />
<glyph unicode="&#x128;" horiz-adv-x="318" d="M74 0v700h170v-700h-170zM363 854q-18 -42 -53.5 -68.5t-80.5 -26.5q-22 0 -39.5 6t-31.5 13q-15 8 -30 15.5t-33 7.5q-20 0 -35 -11t-30 -33l-74 63q18 42 53.5 68.5t80.5 26.5q22 0 39.5 -6t31.5 -13q15 -8 30 -15.5t33 -7.5q20 0 35 11t30 33z" />
<glyph unicode="&#x129;" horiz-adv-x="257" d="M48 0v504h161v-504h-161zM332 658q-18 -42 -53.5 -68.5t-80.5 -26.5q-22 0 -39.5 6t-31.5 13q-15 8 -30 15.5t-33 7.5q-20 0 -35 -11t-30 -33l-74 63q18 42 53.5 68.5t80.5 26.5q22 0 39.5 -6t31.5 -13q15 -8 30 -15.5t33 -7.5q20 0 35 11t30 33z" />
<glyph unicode="&#x12a;" horiz-adv-x="324" d="M77 0v700h170v-700h-170zM23 790v112h277v-112h-277z" />
<glyph unicode="&#x12b;" horiz-adv-x="281" d="M60 0v504h161v-504h-161zM2 594v112h277v-112h-277z" />
<glyph unicode="&#x12c;" horiz-adv-x="324" d="M77 0v700h170v-700h-170zM301 906q-1 -26 -11 -49.5t-28 -41.5t-43 -28.5t-57 -10.5t-57.5 10.5t-43.5 28.5t-28 41.5t-11 49.5h97q2 -18 14 -29.5t29 -11.5t28.5 11.5t13.5 29.5h97z" />
<glyph unicode="&#x12d;" horiz-adv-x="281" d="M60 0v504h161v-504h-161zM280 710q-1 -26 -11 -49.5t-28 -41.5t-43 -28.5t-57 -10.5t-57.5 10.5t-43.5 28.5t-28 41.5t-11 49.5h97q2 -18 14 -29.5t29 -11.5t28.5 11.5t13.5 29.5h97z" />
<glyph unicode="&#x12e;" horiz-adv-x="313" d="M77 0v700h170v-700h-170zM244 -149q-23 -17 -53 -30t-66 -13q-49 0 -75.5 25t-26.5 60q0 21 9 37.5t24.5 30t36 23.5t44.5 16h110q-26 -8 -49 -18t-40.5 -20.5t-27.5 -21.5t-10 -23q0 -22 28 -22q14 0 31.5 6.5t31.5 16.5z" />
<glyph unicode="&#x12f;" horiz-adv-x="272" d="M60 0v504h161v-504h-161zM231 645q0 -38 -26.5 -64t-64.5 -26t-64 26t-26 64t26 64.5t64 26.5t64.5 -26.5t26.5 -64.5zM218 -149q-23 -17 -53 -30t-66 -13q-49 0 -75.5 25t-26.5 60q0 21 9 37.5t24.5 30t36 23.5t44.5 16h110q-26 -8 -49 -18t-40.5 -20.5t-27.5 -21.5 t-10 -23q0 -22 28 -22q14 0 31.5 6.5t31.5 16.5z" />
<glyph unicode="&#x130;" horiz-adv-x="306" d="M68 0v700h170v-700h-170zM153 762q-40 0 -67.5 27.5t-27.5 67.5q0 19 7.5 36.5t20 30.5t30 20.5t37.5 7.5q19 0 36.5 -7.5t30.5 -20.5t20.5 -30.5t7.5 -36.5q0 -20 -7.5 -37.5t-20.5 -30t-30.5 -20t-36.5 -7.5z" />
<glyph unicode="&#x131;" horiz-adv-x="259" d="M49 0v504h161v-504h-161z" />
<glyph unicode="&#x132;" horiz-adv-x="865" d="M66 0v700h170v-700h-170zM640 700h170v-556q0 -69 -18 -119.5t-49.5 -83t-75 -48t-94.5 -15.5q-82 0 -145 40.5t-90 129.5l135 62q17 -44 38 -66t54 -22q41 0 58 31.5t17 80.5v566z" />
<glyph unicode="&#x133;" horiz-adv-x="555" d="M51 0v504h161v-504h-161zM222 645q0 -38 -26.5 -64t-64.5 -26t-64 26t-26 64t26 64.5t64 26.5t64.5 -26.5t26.5 -64.5zM237 -84q25 5 44.5 13.5t33 22.5t21 35.5t7.5 53.5v463h161v-452q0 -62 -17 -108t-47 -78.5t-72 -51.5t-93 -26zM514 645q0 -38 -26.5 -64t-64.5 -26 t-64 26t-26 64t26 64.5t64 26.5t64.5 -26.5t26.5 -64.5z" />
<glyph unicode="&#x134;" horiz-adv-x="550" d="M320 700h170v-556q0 -69 -18 -119.5t-49.5 -83t-75 -48t-94.5 -15.5q-82 0 -145 40.5t-90 129.5l135 62q17 -44 38 -66t54 -22q41 0 58 31.5t17 80.5v566zM463 762l-58 61l-58 -61h-132l171 192h38l171 -192h-132z" />
<glyph unicode="&#x135;" horiz-adv-x="276" d="M-42 -84q25 5 44.5 13.5t33 22.5t21 35.5t7.5 53.5v463h161v-452q0 -62 -17 -108t-47 -78.5t-72 -51.5t-93 -26zM202 566l-58 61l-58 -61h-132l171 192h38l171 -192h-132z" />
<glyph unicode="&#x136;" horiz-adv-x="678" d="M261 -319q28 18 48.5 44t27.5 59q-34 6 -50 29.5t-16 52.5q0 35 21.5 60t61.5 25q22 0 38 -8t26.5 -21.5t16 -30.5t5.5 -36q0 -33 -15 -66.5t-38.5 -62t-52 -50t-55.5 -32.5zM459 0l-223 281v-281h-170v700h170v-265l209 265h205l-270 -339l289 -361h-210z" />
<glyph unicode="&#x137;" horiz-adv-x="556" d="M183 -319q28 18 48.5 44t27.5 59q-34 6 -50 29.5t-16 52.5q0 35 21.5 60t61.5 25q22 0 38 -8t26.5 -21.5t16 -30.5t5.5 -36q0 -33 -15 -66.5t-38.5 -62t-52 -50t-55.5 -32.5zM365 0l-145 188v-188h-161v718h161v-370l113 156h183l-168 -233l200 -271h-183z" />
<glyph unicode="&#x138;" horiz-adv-x="546" d="M355 0l-135 188v-188h-161v504h161v-156l123 156h183l-178 -233l190 -271h-183z" />
<glyph unicode="&#x139;" horiz-adv-x="527" d="M66 0v700h170v-556h280v-144h-450zM130 762l73 192h181l-150 -192h-104z" />
<glyph unicode="&#x13a;" horiz-adv-x="297" d="M68 0v718h161v-718h-161zM21 770l73 192h181l-150 -192h-104z" />
<glyph unicode="&#x13b;" horiz-adv-x="527" d="M191 -319q28 18 48.5 44t27.5 59q-34 6 -50 29.5t-16 52.5q0 35 21.5 60t61.5 25q22 0 38 -8t26.5 -21.5t16 -30.5t5.5 -36q0 -33 -15 -66.5t-38.5 -62t-52 -50t-55.5 -32.5zM66 0v700h170v-556h280v-144h-450z" />
<glyph unicode="&#x13c;" horiz-adv-x="283" d="M47 -319q28 18 48.5 44t27.5 59q-34 6 -50 29.5t-16 52.5q0 35 21.5 60t61.5 25q22 0 38 -8t26.5 -21.5t16 -30.5t5.5 -36q0 -33 -15 -66.5t-38.5 -62t-52 -50t-55.5 -32.5zM62 0v718h161v-718h-161z" />
<glyph unicode="&#x13d;" horiz-adv-x="527" d="M280 524q28 18 48.5 44t27.5 59q-35 6 -52.5 29.5t-17.5 52.5q0 35 24 60t63 25q22 0 38 -8t26.5 -21.5t16 -30.5t5.5 -36q0 -33 -15 -66.5t-38.5 -62t-52 -50t-55.5 -32.5zM66 0v700h170v-556h280v-144h-450z" />
<glyph unicode="&#x13e;" horiz-adv-x="449" d="M278 468q28 18 48.5 44t27.5 59q-35 6 -52.5 29.5t-17.5 52.5q0 35 24 60t63 25q22 0 38 -8t26.5 -21.5t16 -30.5t5.5 -36q0 -33 -15 -66.5t-38.5 -62t-52 -50t-55.5 -32.5zM59 0v718h161v-718h-161z" />
<glyph unicode="&#x13f;" horiz-adv-x="527" d="M66 0v700h170v-556h280v-144h-450zM411 287q-40 0 -67.5 27.5t-27.5 67.5q0 19 7.5 36.5t20 30.5t30 20.5t37.5 7.5q19 0 36.5 -7.5t30.5 -20.5t20.5 -30.5t7.5 -36.5q0 -20 -7.5 -37.5t-20.5 -30t-30.5 -20t-36.5 -7.5z" />
<glyph unicode="&#x140;" horiz-adv-x="532" d="M59 0v718h161v-718h-161zM393 282q-40 0 -67.5 27.5t-27.5 67.5q0 19 7.5 36.5t20 30.5t30 20.5t37.5 7.5q19 0 36.5 -7.5t30.5 -20.5t20.5 -30.5t7.5 -36.5q0 -20 -7.5 -37.5t-20.5 -30t-30.5 -20t-36.5 -7.5z" />
<glyph unicode="&#x141;" horiz-adv-x="570" d="M109 0v228l-47 -26l-57 99l104 57v342h170v-247l83 46l56 -100l-139 -77v-178h280v-144h-450z" />
<glyph unicode="&#x142;" horiz-adv-x="423" d="M129 0v255l-56 -31l-56 100l112 62v332h161v-243l60 33l56 -99l-116 -65v-344h-161z" />
<glyph unicode="&#x143;" horiz-adv-x="676" d="M458 0l-240 407v-407h-152v700h152l240 -407v407h152v-700h-152zM211 762l73 192h181l-150 -192h-104z" />
<glyph unicode="&#x144;" horiz-adv-x="584" d="M369 0v303q0 35 -18 54.5t-46 19.5q-41 0 -63 -40t-22 -113v-224h-161v504h150q5 -19 7.5 -36t3.5 -32q22 37 55 56.5t89 19.5q83 0 124.5 -43t41.5 -121v-348h-161zM164 566l73 192h181l-150 -192h-104z" />
<glyph unicode="&#x145;" horiz-adv-x="676" d="M251 -319q28 18 48.5 44t27.5 59q-34 6 -50 29.5t-16 52.5q0 35 21.5 60t61.5 25q22 0 38 -8t26.5 -21.5t16 -30.5t5.5 -36q0 -33 -15 -66.5t-38.5 -62t-52 -50t-55.5 -32.5zM458 0l-240 407v-407h-152v700h152l240 -407v407h152v-700h-152z" />
<glyph unicode="&#x146;" horiz-adv-x="584" d="M202 -319q28 18 48.5 44t27.5 59q-34 6 -50 29.5t-16 52.5q0 35 21.5 60t61.5 25q22 0 38 -8t26.5 -21.5t16 -30.5t5.5 -36q0 -33 -15 -66.5t-38.5 -62t-52 -50t-55.5 -32.5zM369 0v303q0 35 -18 54.5t-46 19.5q-41 0 -63 -40t-22 -113v-224h-161v504h150q5 -19 7.5 -36 t3.5 -32q22 37 55 56.5t89 19.5q83 0 124.5 -43t41.5 -121v-348h-161z" />
<glyph unicode="&#x147;" horiz-adv-x="676" d="M458 0l-240 407v-407h-152v700h152l240 -407v407h152v-700h-152zM319 762l-171 192h132l58 -61l58 61h132l-171 -192h-38z" />
<glyph unicode="&#x148;" horiz-adv-x="584" d="M369 0v303q0 35 -18 54.5t-46 19.5q-41 0 -63 -40t-22 -113v-224h-161v504h150q5 -19 7.5 -36t3.5 -32q22 37 55 56.5t89 19.5q83 0 124.5 -43t41.5 -121v-348h-161zM272 566l-171 192h132l58 -61l58 61h132l-171 -192h-38z" />
<glyph unicode="&#x149;" horiz-adv-x="587" d="M49 582q28 18 48.5 44t27.5 59q-35 6 -52.5 29.5t-17.5 52.5q0 35 24 60t63 25q22 0 38 -8t26.5 -21.5t16 -30.5t5.5 -36q0 -33 -15 -66.5t-38.5 -62t-52 -50t-55.5 -32.5zM372 0v303q0 35 -18 54.5t-46 19.5q-41 0 -63 -40t-22 -113v-224h-161v504h150q5 -19 7.5 -36 t3.5 -32q22 37 55 56.5t89 19.5q83 0 124.5 -43t41.5 -121v-348h-161z" />
<glyph unicode="&#x14a;" horiz-adv-x="676" d="M365 -64q48 0 69.5 18t23.5 46l-240 407v-407h-152v700h152l240 -407v407h152v-700q-2 -55 -20.5 -95t-50 -66t-74 -38.5t-91.5 -12.5z" />
<glyph unicode="&#x14b;" horiz-adv-x="584" d="M263 -84q25 5 44.5 13.5t33 22.5t21 35.5t7.5 53.5v262q0 35 -18 54.5t-46 19.5q-41 0 -63 -40t-22 -113v-224h-161v504h150q5 -19 7.5 -36t3.5 -32q22 37 55 56.5t89 19.5q83 0 124.5 -43t41.5 -121v-296q0 -62 -17 -108t-47 -78.5t-72 -51.5t-93 -26z" />
<glyph unicode="&#x14c;" horiz-adv-x="728" d="M364 -8q-64 0 -123.5 22t-105.5 66t-74 111.5t-28 158.5t28 158.5t74 111.5t105.5 66t123.5 22t123.5 -22t105.5 -66t74 -111.5t28 -158.5t-28 -158.5t-74 -111.5t-105.5 -66t-123.5 -22zM364 140q33 0 61.5 12.5t50 38.5t33.5 65.5t12 93.5t-12 93.5t-33.5 65.5 t-50 38.5t-61.5 12.5t-61.5 -12.5t-50 -38.5t-33.5 -65.5t-12 -93.5t12 -93.5t33.5 -65.5t50 -38.5t61.5 -12.5zM225 790v112h277v-112h-277z" />
<glyph unicode="&#x14d;" d="M563 252q0 -52 -16.5 -99t-50 -83t-83 -57t-115.5 -21t-115.5 21t-83 57t-50 83t-16.5 99t16.5 99t50 83t83 57t115.5 21t115.5 -21t83 -57t50 -83t16.5 -99zM298 127q51 0 75.5 35t24.5 90t-24.5 90t-75.5 35t-75.5 -35t-24.5 -90t24.5 -90t75.5 -35zM159 594v112h277 v-112h-277z" />
<glyph unicode="&#x14e;" horiz-adv-x="728" d="M364 -8q-64 0 -123.5 22t-105.5 66t-74 111.5t-28 158.5t28 158.5t74 111.5t105.5 66t123.5 22t123.5 -22t105.5 -66t74 -111.5t28 -158.5t-28 -158.5t-74 -111.5t-105.5 -66t-123.5 -22zM364 140q33 0 61.5 12.5t50 38.5t33.5 65.5t12 93.5t-12 93.5t-33.5 65.5 t-50 38.5t-61.5 12.5t-61.5 -12.5t-50 -38.5t-33.5 -65.5t-12 -93.5t12 -93.5t33.5 -65.5t50 -38.5t61.5 -12.5zM503 906q-1 -26 -11 -49.5t-28 -41.5t-43 -28.5t-57 -10.5t-57.5 10.5t-43.5 28.5t-28 41.5t-11 49.5h97q2 -18 14 -29.5t29 -11.5t28.5 11.5t13.5 29.5h97z " />
<glyph unicode="&#x14f;" d="M563 252q0 -52 -16.5 -99t-50 -83t-83 -57t-115.5 -21t-115.5 21t-83 57t-50 83t-16.5 99t16.5 99t50 83t83 57t115.5 21t115.5 -21t83 -57t50 -83t16.5 -99zM298 127q51 0 75.5 35t24.5 90t-24.5 90t-75.5 35t-75.5 -35t-24.5 -90t24.5 -90t75.5 -35zM437 710 q-1 -26 -11 -49.5t-28 -41.5t-43 -28.5t-57 -10.5t-57.5 10.5t-43.5 28.5t-28 41.5t-11 49.5h97q2 -18 14 -29.5t29 -11.5t28.5 11.5t13.5 29.5h97z" />
<glyph unicode="&#x150;" horiz-adv-x="728" d="M364 -8q-64 0 -123.5 22t-105.5 66t-74 111.5t-28 158.5t28 158.5t74 111.5t105.5 66t123.5 22t123.5 -22t105.5 -66t74 -111.5t28 -158.5t-28 -158.5t-74 -111.5t-105.5 -66t-123.5 -22zM364 140q33 0 61.5 12.5t50 38.5t33.5 65.5t12 93.5t-12 93.5t-33.5 65.5 t-50 38.5t-61.5 12.5t-61.5 -12.5t-50 -38.5t-33.5 -65.5t-12 -93.5t12 -93.5t33.5 -65.5t50 -38.5t61.5 -12.5zM162 744l63 192h181l-140 -192h-104zM382 744l63 192h181l-140 -192h-104z" />
<glyph unicode="&#x151;" d="M563 252q0 -52 -16.5 -99t-50 -83t-83 -57t-115.5 -21t-115.5 21t-83 57t-50 83t-16.5 99t16.5 99t50 83t83 57t115.5 21t115.5 -21t83 -57t50 -83t16.5 -99zM298 127q51 0 75.5 35t24.5 90t-24.5 90t-75.5 35t-75.5 -35t-24.5 -90t24.5 -90t75.5 -35zM96 548l63 192h181 l-140 -192h-104zM316 548l63 192h181l-140 -192h-104z" />
<glyph unicode="&#x152;" horiz-adv-x="1013" d="M521 0v44q-36 -26 -75.5 -39t-81.5 -13q-64 0 -123.5 22t-105.5 66t-74 111.5t-28 158.5t28 158.5t74 111.5t105.5 66t123.5 22q42 0 81.5 -13t75.5 -39v44h450v-144h-280v-121h218v-144h-218v-147h290v-144h-460zM364 140q32 0 60.5 12.5t50 38t34 65t12.5 94.5 q0 54 -12 93.5t-33.5 65.5t-50 38.5t-61.5 12.5t-61.5 -12.5t-50 -38.5t-33.5 -65.5t-12 -93.5t12 -93.5t33.5 -65.5t50 -38.5t61.5 -12.5z" />
<glyph unicode="&#x153;" horiz-adv-x="928" d="M559 210q8 -42 35.5 -67.5t72.5 -25.5q28 0 49 11.5t40 34.5l97 -88q-41 -48 -89.5 -65.5t-102.5 -17.5q-61 0 -105 17.5t-73 46.5q-33 -30 -79 -47t-106 -17q-66 0 -115.5 21t-83 57t-50 83t-16.5 99t16.5 99t50 83t83 57t115.5 21q60 0 106 -17.5t79 -46.5 q29 29 72 46.5t104 17.5q68 0 114.5 -23t75 -61.5t40.5 -89t12 -106.5v-22h-342zM298 127q51 0 75.5 35t24.5 90t-24.5 90t-75.5 35t-75.5 -35t-24.5 -90t24.5 -90t75.5 -35zM744 310q-5 40 -28 65.5t-61 25.5q-32 0 -56.5 -21.5t-37.5 -69.5h183z" />
<glyph unicode="&#x154;" horiz-adv-x="631" d="M443 0l-154 291h-53v-291h-170v700h269q56 0 99.5 -14.5t73.5 -41.5t46 -65t16 -84q0 -63 -28 -109.5t-82 -70.5l165 -315h-182zM313 435q45 0 64 18t19 45t-18.5 42.5t-66.5 15.5h-75v-121h77zM181 762l73 192h181l-150 -192h-104z" />
<glyph unicode="&#x155;" horiz-adv-x="426" d="M51 0v504h150q5 -22 7.5 -41.5t3.5 -36.5q20 45 51.5 65.5t75.5 20.5q21 0 45 -3t38 -6l-28 -150q-21 6 -37 8t-27 2q-27 0 -48.5 -10.5t-37 -34.5t-24 -63.5t-8.5 -97.5v-157h-161zM83 566l73 192h181l-150 -192h-104z" />
<glyph unicode="&#x156;" horiz-adv-x="631" d="M231 -319q28 18 48.5 44t27.5 59q-34 6 -50 29.5t-16 52.5q0 35 21.5 60t61.5 25q22 0 38 -8t26.5 -21.5t16 -30.5t5.5 -36q0 -33 -15 -66.5t-38.5 -62t-52 -50t-55.5 -32.5zM443 0l-154 291h-53v-291h-170v700h269q56 0 99.5 -14.5t73.5 -41.5t46 -65t16 -84 q0 -63 -28 -109.5t-82 -70.5l165 -315h-182zM313 435q45 0 64 18t19 45t-18.5 42.5t-66.5 15.5h-75v-121h77z" />
<glyph unicode="&#x157;" horiz-adv-x="426" d="M36 -319q28 18 48.5 44t27.5 59q-34 6 -50 29.5t-16 52.5q0 35 21.5 60t61.5 25q22 0 38 -8t26.5 -21.5t16 -30.5t5.5 -36q0 -33 -15 -66.5t-38.5 -62t-52 -50t-55.5 -32.5zM51 0v504h150q5 -22 7.5 -41.5t3.5 -36.5q20 45 51.5 65.5t75.5 20.5q21 0 45 -3t38 -6 l-28 -150q-21 6 -37 8t-27 2q-27 0 -48.5 -10.5t-37 -34.5t-24 -63.5t-8.5 -97.5v-157h-161z" />
<glyph unicode="&#x158;" horiz-adv-x="631" d="M443 0l-154 291h-53v-291h-170v700h269q56 0 99.5 -14.5t73.5 -41.5t46 -65t16 -84q0 -63 -28 -109.5t-82 -70.5l165 -315h-182zM313 435q45 0 64 18t19 45t-18.5 42.5t-66.5 15.5h-75v-121h77zM289 762l-171 192h132l58 -61l58 61h132l-171 -192h-38z" />
<glyph unicode="&#x159;" horiz-adv-x="426" d="M51 0v504h150q5 -22 7.5 -41.5t3.5 -36.5q20 45 51.5 65.5t75.5 20.5q21 0 45 -3t38 -6l-28 -150q-21 6 -37 8t-27 2q-27 0 -48.5 -10.5t-37 -34.5t-24 -63.5t-8.5 -97.5v-157h-161zM201 566l-171 192h132l58 -61l58 61h132l-171 -192h-38z" />
<glyph unicode="&#x15a;" horiz-adv-x="545" d="M351 515q-15 25 -32 39t-41 14q-23 0 -36.5 -12.5t-13.5 -34.5t13 -35.5t35 -25.5q13 -7 32 -15q18 -9 37 -18t35.5 -16.5t25.5 -11.5q23 -11 44 -28t37.5 -40.5t26.5 -53.5t10 -67q0 -49 -17.5 -89t-49 -68.5t-76 -44.5t-98.5 -16q-85 0 -151.5 39t-104.5 125l135 72 q18 -42 45.5 -67t72.5 -25q29 0 52.5 14.5t23.5 49.5q0 47 -53 75q-9 4 -24 12q-15 7 -30.5 14t-27.5 13q-13 5 -16 7q-27 12 -51.5 29.5t-44 41t-31 53.5t-11.5 69q0 41 14 76.5t41 61.5t67 41t91 15q71 0 122 -30.5t83 -95.5zM147 762l73 192h181l-150 -192h-104z" />
<glyph unicode="&#x15b;" horiz-adv-x="456" d="M174 213q-54 20 -88.5 59t-34.5 92q0 32 14 59.5t39.5 47t61 30.5t77.5 11q60 0 103.5 -22t72.5 -60l-91 -74q-18 21 -36.5 33t-43.5 12q-26 0 -37 -11.5t-11 -23.5q0 -21 24.5 -33.5t59.5 -25.5l27 -10q57 -21 91 -54t34 -90q0 -38 -16 -68t-44 -50.5t-66 -31.5t-82 -11 q-74 0 -121.5 29t-79.5 79l91 74q22 -32 48 -51.5t60 -19.5q32 0 44 14t12 27q0 22 -25 34.5t-59 25.5zM100 566l73 192h181l-150 -192h-104z" />
<glyph unicode="&#x15c;" horiz-adv-x="545" d="M351 515q-15 25 -32 39t-41 14q-23 0 -36.5 -12.5t-13.5 -34.5t13 -35.5t35 -25.5q13 -7 32 -15q18 -9 37 -18t35.5 -16.5t25.5 -11.5q23 -11 44 -28t37.5 -40.5t26.5 -53.5t10 -67q0 -49 -17.5 -89t-49 -68.5t-76 -44.5t-98.5 -16q-85 0 -151.5 39t-104.5 125l135 72 q18 -42 45.5 -67t72.5 -25q29 0 52.5 14.5t23.5 49.5q0 47 -53 75q-9 4 -24 12q-15 7 -30.5 14t-27.5 13q-13 5 -16 7q-27 12 -51.5 29.5t-44 41t-31 53.5t-11.5 69q0 41 14 76.5t41 61.5t67 41t91 15q71 0 122 -30.5t83 -95.5zM332 762l-58 61l-58 -61h-132l171 192h38 l171 -192h-132z" />
<glyph unicode="&#x15d;" horiz-adv-x="456" d="M174 213q-54 20 -88.5 59t-34.5 92q0 32 14 59.5t39.5 47t61 30.5t77.5 11q60 0 103.5 -22t72.5 -60l-91 -74q-18 21 -36.5 33t-43.5 12q-26 0 -37 -11.5t-11 -23.5q0 -21 24.5 -33.5t59.5 -25.5l27 -10q57 -21 91 -54t34 -90q0 -38 -16 -68t-44 -50.5t-66 -31.5t-82 -11 q-74 0 -121.5 29t-79.5 79l91 74q22 -32 48 -51.5t60 -19.5q32 0 44 14t12 27q0 22 -25 34.5t-59 25.5zM285 566l-58 61l-58 -61h-132l171 192h38l171 -192h-132z" />
<glyph unicode="&#x15e;" horiz-adv-x="545" d="M351 515q-15 25 -32 39t-41 14q-23 0 -36.5 -12.5t-13.5 -34.5t13 -35.5t35 -25.5q13 -7 32 -15q18 -9 37 -18t35.5 -16.5t25.5 -11.5q23 -11 44 -28t37.5 -40.5t26.5 -53.5t10 -67q0 -49 -17.5 -89t-49 -68.5t-76 -44.5t-98.5 -16q-85 0 -151.5 39t-104.5 125l135 72 q18 -42 45.5 -67t72.5 -25q29 0 52.5 14.5t23.5 49.5q0 47 -53 75q-9 4 -24 12q-15 7 -30.5 14t-27.5 13q-13 5 -16 7q-27 12 -51.5 29.5t-44 41t-31 53.5t-11.5 69q0 41 14 76.5t41 61.5t67 41t91 15q71 0 122 -30.5t83 -95.5zM209 -144q12 -14 25 -22t30 -8t27 9.5 t10 27.5q0 12 -4 24t-10 23.5t-12 20.5q-7 9 -11 15h95q17 -20 28 -46t11 -61q0 -54 -28.5 -84.5t-81.5 -30.5q-42 0 -76 20.5t-62 65.5z" />
<glyph unicode="&#x15f;" horiz-adv-x="456" d="M174 213q-54 20 -88.5 59t-34.5 92q0 32 14 59.5t39.5 47t61 30.5t77.5 11q60 0 103.5 -22t72.5 -60l-91 -74q-18 21 -36.5 33t-43.5 12q-26 0 -37 -11.5t-11 -23.5q0 -21 24.5 -33.5t59.5 -25.5l27 -10q57 -21 91 -54t34 -90q0 -38 -16 -68t-44 -50.5t-66 -31.5t-82 -11 q-74 0 -121.5 29t-79.5 79l91 74q22 -32 48 -51.5t60 -19.5q32 0 44 14t12 27q0 22 -25 34.5t-59 25.5zM162 -144q12 -14 25 -22t30 -8t27 9.5t10 27.5q0 12 -4 24t-10 23.5t-12 20.5q-7 9 -11 15h95q17 -20 28 -46t11 -61q0 -54 -28.5 -84.5t-81.5 -30.5q-42 0 -76 20.5 t-62 65.5z" />
<glyph unicode="&#x160;" horiz-adv-x="545" d="M351 515q-15 25 -32 39t-41 14q-23 0 -36.5 -12.5t-13.5 -34.5t13 -35.5t35 -25.5q13 -7 32 -15q18 -9 37 -18t35.5 -16.5t25.5 -11.5q23 -11 44 -28t37.5 -40.5t26.5 -53.5t10 -67q0 -49 -17.5 -89t-49 -68.5t-76 -44.5t-98.5 -16q-85 0 -151.5 39t-104.5 125l135 72 q18 -42 45.5 -67t72.5 -25q29 0 52.5 14.5t23.5 49.5q0 47 -53 75q-9 4 -24 12q-15 7 -30.5 14t-27.5 13q-13 5 -16 7q-27 12 -51.5 29.5t-44 41t-31 53.5t-11.5 69q0 41 14 76.5t41 61.5t67 41t91 15q71 0 122 -30.5t83 -95.5zM255 762l-171 192h132l58 -61l58 61h132 l-171 -192h-38z" />
<glyph unicode="&#x161;" horiz-adv-x="456" d="M174 213q-54 20 -88.5 59t-34.5 92q0 32 14 59.5t39.5 47t61 30.5t77.5 11q60 0 103.5 -22t72.5 -60l-91 -74q-18 21 -36.5 33t-43.5 12q-26 0 -37 -11.5t-11 -23.5q0 -21 24.5 -33.5t59.5 -25.5l27 -10q57 -21 91 -54t34 -90q0 -38 -16 -68t-44 -50.5t-66 -31.5t-82 -11 q-74 0 -121.5 29t-79.5 79l91 74q22 -32 48 -51.5t60 -19.5q32 0 44 14t12 27q0 22 -25 34.5t-59 25.5zM208 566l-171 192h132l58 -61l58 61h132l-171 -192h-38z" />
<glyph unicode="&#x162;" horiz-adv-x="538" d="M184 0v556h-175v144h520v-144h-175v-556h-170zM202 -144q12 -14 25 -22t30 -8t27 9.5t10 27.5q0 12 -4 24t-10 23.5t-12 20.5q-7 9 -11 15h95q17 -20 28 -46t11 -61q0 -54 -28.5 -84.5t-81.5 -30.5q-42 0 -76 20.5t-62 65.5z" />
<glyph unicode="&#x163;" horiz-adv-x="413" d="M389 15q-55 -23 -116 -23q-40 0 -74.5 11.5t-59.5 34t-39 57t-14 81.5v198h-71v130h71v144l161 20v-164h124v-130h-124v-167q0 -32 12.5 -55.5t44.5 -23.5q23 0 52 12zM155 -144q12 -14 25 -22t30 -8t27 9.5t10 27.5q0 12 -4 24t-10 23.5t-12 20.5q-7 9 -11 15h95 q17 -20 28 -46t11 -61q0 -54 -28.5 -84.5t-81.5 -30.5q-42 0 -76 20.5t-62 65.5z" />
<glyph unicode="&#x164;" horiz-adv-x="538" d="M184 0v556h-175v144h520v-144h-175v-556h-170zM250 762l-171 192h132l58 -61l58 61h132l-171 -192h-38z" />
<glyph unicode="&#x165;" horiz-adv-x="570" d="M399 468q28 18 48.5 44t27.5 59q-35 6 -52.5 29.5t-17.5 52.5q0 35 24 60t63 25q22 0 38 -8t26.5 -21.5t16 -30.5t5.5 -36q0 -33 -15 -66.5t-38.5 -62t-52 -50t-55.5 -32.5zM389 15q-55 -23 -116 -23q-40 0 -74.5 11.5t-59.5 34t-39 57t-14 81.5v198h-71v130h71v144 l161 20v-164h124v-130h-124v-167q0 -32 12.5 -55.5t44.5 -23.5q23 0 52 12z" />
<glyph unicode="&#x166;" horiz-adv-x="538" d="M184 0v369h-152v114h152v73h-175v144h520v-144h-175v-73h152v-114h-152v-369h-170z" />
<glyph unicode="&#x167;" horiz-adv-x="413" d="M389 15q-55 -23 -116 -23q-40 0 -74.5 11.5t-59.5 34t-39 57t-14 81.5v51h-71v104h71v69h-71v104h71v164h161v-164h124v-104h-124v-69h124v-104h-124v-20q0 -32 12.5 -55.5t44.5 -23.5q23 0 52 12z" />
<glyph unicode="&#x168;" horiz-adv-x="630" d="M410 700h170v-435q0 -70 -19 -121.5t-54 -85t-84 -50t-108 -16.5t-108 16.5t-84 50t-54 85t-19 121.5v435h170v-443q0 -62 27 -89.5t68 -27.5q40 0 67.5 27.5t27.5 89.5v443zM518 854q-18 -42 -53.5 -68.5t-80.5 -26.5q-22 0 -39.5 6t-31.5 13q-15 8 -30 15.5t-33 7.5 q-20 0 -35 -11t-30 -33l-74 63q18 42 53.5 68.5t80.5 26.5q22 0 39.5 -6t31.5 -13q15 -8 30 -15.5t33 -7.5q20 0 35 11t30 33z" />
<glyph unicode="&#x169;" horiz-adv-x="576" d="M365 0q-5 19 -7.5 36t-3.5 32q-20 -37 -51 -56.5t-85 -19.5q-81 0 -122.5 43t-41.5 121v348h161v-303q0 -35 18.5 -54.5t44.5 -19.5q38 0 57 40.5t19 112.5v224h161v-504h-150zM492 658q-18 -42 -53.5 -68.5t-80.5 -26.5q-22 0 -39.5 6t-31.5 13q-15 8 -30 15.5t-33 7.5 q-20 0 -35 -11t-30 -33l-74 63q18 42 53.5 68.5t80.5 26.5q22 0 39.5 -6t31.5 -13q15 -8 30 -15.5t33 -7.5q20 0 35 11t30 33z" />
<glyph unicode="&#x16a;" horiz-adv-x="630" d="M410 700h170v-435q0 -70 -19 -121.5t-54 -85t-84 -50t-108 -16.5t-108 16.5t-84 50t-54 85t-19 121.5v435h170v-443q0 -62 27 -89.5t68 -27.5q40 0 67.5 27.5t27.5 89.5v443zM176 790v112h277v-112h-277z" />
<glyph unicode="&#x16b;" horiz-adv-x="576" d="M365 0q-5 19 -7.5 36t-3.5 32q-20 -37 -51 -56.5t-85 -19.5q-81 0 -122.5 43t-41.5 121v348h161v-303q0 -35 18.5 -54.5t44.5 -19.5q38 0 57 40.5t19 112.5v224h161v-504h-150zM150 594v112h277v-112h-277z" />
<glyph unicode="&#x16c;" horiz-adv-x="630" d="M410 700h170v-435q0 -70 -19 -121.5t-54 -85t-84 -50t-108 -16.5t-108 16.5t-84 50t-54 85t-19 121.5v435h170v-443q0 -62 27 -89.5t68 -27.5q40 0 67.5 27.5t27.5 89.5v443zM454 906q-1 -26 -11 -49.5t-28 -41.5t-43 -28.5t-57 -10.5t-57.5 10.5t-43.5 28.5t-28 41.5 t-11 49.5h97q2 -18 14 -29.5t29 -11.5t28.5 11.5t13.5 29.5h97z" />
<glyph unicode="&#x16d;" horiz-adv-x="576" d="M365 0q-5 19 -7.5 36t-3.5 32q-20 -37 -51 -56.5t-85 -19.5q-81 0 -122.5 43t-41.5 121v348h161v-303q0 -35 18.5 -54.5t44.5 -19.5q38 0 57 40.5t19 112.5v224h161v-504h-150zM428 710q-1 -26 -11 -49.5t-28 -41.5t-43 -28.5t-57 -10.5t-57.5 10.5t-43.5 28.5t-28 41.5 t-11 49.5h97q2 -18 14 -29.5t29 -11.5t28.5 11.5t13.5 29.5h97z" />
<glyph unicode="&#x16e;" horiz-adv-x="630" d="M410 700h170v-435q0 -70 -19 -121.5t-54 -85t-84 -50t-108 -16.5t-108 16.5t-84 50t-54 85t-19 121.5v435h170v-443q0 -62 27 -89.5t68 -27.5q40 0 67.5 27.5t27.5 89.5v443zM315 743q-23 0 -42.5 8.5t-34 23t-23 34t-8.5 42.5q0 22 8.5 42t23 34.5t34 23t42.5 8.5 q22 0 42 -8.5t34.5 -23t23 -34.5t8.5 -42q0 -23 -8.5 -42.5t-23 -34t-34.5 -23t-42 -8.5zM364 851q0 20 -14.5 34.5t-34.5 14.5t-34.5 -14.5t-14.5 -34.5t14.5 -34.5t34.5 -14.5t34.5 14.5t14.5 34.5z" />
<glyph unicode="&#x16f;" horiz-adv-x="576" d="M365 0q-5 19 -7.5 36t-3.5 32q-20 -37 -51 -56.5t-85 -19.5q-81 0 -122.5 43t-41.5 121v348h161v-303q0 -35 18.5 -54.5t44.5 -19.5q38 0 57 40.5t19 112.5v224h161v-504h-150zM289 547q-23 0 -42.5 8.5t-34 23t-23 34t-8.5 42.5q0 22 8.5 42t23 34.5t34 23t42.5 8.5 q22 0 42 -8.5t34.5 -23t23 -34.5t8.5 -42q0 -23 -8.5 -42.5t-23 -34t-34.5 -23t-42 -8.5zM338 655q0 20 -14.5 34.5t-34.5 14.5t-34.5 -14.5t-14.5 -34.5t14.5 -34.5t34.5 -14.5t34.5 14.5t14.5 34.5z" />
<glyph unicode="&#x170;" horiz-adv-x="630" d="M410 700h170v-435q0 -70 -19 -121.5t-54 -85t-84 -50t-108 -16.5t-108 16.5t-84 50t-54 85t-19 121.5v435h170v-443q0 -62 27 -89.5t68 -27.5q40 0 67.5 27.5t27.5 89.5v443zM83 744l63 192h181l-140 -192h-104zM303 744l63 192h181l-140 -192h-104z" />
<glyph unicode="&#x171;" horiz-adv-x="577" d="M365 0q-5 19 -7.5 36t-3.5 32q-20 -37 -51 -56.5t-85 -19.5q-81 0 -122.5 43t-41.5 121v348h161v-303q0 -35 18.5 -54.5t44.5 -19.5q38 0 57 40.5t19 112.5v224h161v-504h-150zM57 548l63 192h181l-140 -192h-104zM277 548l63 192h181l-140 -192h-104z" />
<glyph unicode="&#x172;" horiz-adv-x="630" d="M390 -149q-23 -17 -53 -30t-66 -13q-49 0 -75.5 25t-26.5 60q0 38 27.5 63t69.5 39q-49 6 -89 25.5t-68 53t-43.5 81t-15.5 110.5v435h170v-443q0 -62 27 -89.5t68 -27.5q40 0 67.5 27.5t27.5 89.5v443h170v-435q0 -117 -50.5 -181.5t-136.5 -83.5q-26 -8 -49 -18 t-40.5 -20.5t-27.5 -21.5t-10 -23q0 -22 28 -22q14 0 31.5 6.5t31.5 16.5z" />
<glyph unicode="&#x173;" horiz-adv-x="576" d="M512 -149q-23 -17 -53 -30t-66 -13q-49 0 -75.5 25t-26.5 60q0 21 9 37.5t24.5 30t36 23.5t44.5 16h-40q-5 19 -7.5 36t-3.5 32q-20 -37 -51 -56.5t-85 -19.5q-81 0 -122.5 43t-41.5 121v348h161v-303q0 -35 18.5 -54.5t44.5 -19.5q38 0 57 40.5t19 112.5v224h161v-504 q-26 -8 -49 -18t-40.5 -20.5t-27.5 -21.5t-10 -23q0 -22 28 -22q14 0 31.5 6.5t31.5 16.5z" />
<glyph unicode="&#x174;" horiz-adv-x="911" d="M558 0l-103 352l-102 -352h-164l-173 700h169l93 -444l107 379h141l106 -379l94 444h169l-173 -700h-164zM513 762l-58 61l-58 -61h-132l171 192h38l171 -192h-132z" />
<glyph unicode="&#x175;" horiz-adv-x="756" d="M448 0l-71 289l-69 -289h-135l-152 504h155l65 -286l66 286h142l66 -285l65 285h155l-152 -504h-135zM436 566l-58 61l-58 -61h-132l171 192h38l171 -192h-132z" />
<glyph unicode="&#x176;" horiz-adv-x="565" d="M198 0v296l-195 404h178l103 -242l101 242h177l-194 -404v-296h-170zM340 762l-58 61l-58 -61h-132l171 192h38l171 -192h-132z" />
<glyph unicode="&#x177;" horiz-adv-x="495" d="M25 -84q34 4 57.5 11.5t40.5 19.5t28.5 30t20.5 44l6 17l-173 466h161l88 -247l86 247h151l-171 -483q-19 -54 -39.5 -94.5t-49 -69t-69 -45.5t-99.5 -24zM305 566l-58 61l-58 -61h-132l171 192h38l171 -192h-132z" />
<glyph unicode="&#x178;" horiz-adv-x="565" d="M198 0v296l-195 404h178l103 -242l101 242h177l-194 -404v-296h-170zM257 830q0 -30 -21 -50.5t-51 -20.5t-50.5 20.5t-20.5 50.5t20.5 51t50.5 21t51 -21t21 -51zM451 830q0 -30 -21 -50.5t-51 -20.5t-50.5 20.5t-20.5 50.5t20.5 51t50.5 21t51 -21t21 -51z" />
<glyph unicode="&#x179;" horiz-adv-x="531" d="M25 0v83l271 473h-246v144h450v-85l-266 -471h272v-144h-481zM138 762l73 192h181l-150 -192h-104z" />
<glyph unicode="&#x17a;" horiz-adv-x="462" d="M31 0v71l196 304h-180v129h372v-71l-194 -304h208v-129h-402zM104 566l73 192h181l-150 -192h-104z" />
<glyph unicode="&#x17b;" horiz-adv-x="531" d="M25 0v83l271 473h-246v144h450v-85l-266 -471h272v-144h-481zM265 762q-40 0 -67.5 27.5t-27.5 67.5q0 19 7.5 36.5t20 30.5t30 20.5t37.5 7.5q19 0 36.5 -7.5t30.5 -20.5t20.5 -30.5t7.5 -36.5q0 -20 -7.5 -37.5t-20.5 -30t-30.5 -20t-36.5 -7.5z" />
<glyph unicode="&#x17c;" horiz-adv-x="462" d="M31 0v71l196 304h-180v129h372v-71l-194 -304h208v-129h-402zM231 566q-40 0 -67.5 27.5t-27.5 67.5q0 19 7.5 36.5t20 30.5t30 20.5t37.5 7.5q19 0 36.5 -7.5t30.5 -20.5t20.5 -30.5t7.5 -36.5q0 -20 -7.5 -37.5t-20.5 -30t-30.5 -20t-36.5 -7.5z" />
<glyph unicode="&#x17d;" horiz-adv-x="531" d="M25 0v83l271 473h-246v144h450v-85l-266 -471h272v-144h-481zM246 762l-171 192h132l58 -61l58 61h132l-171 -192h-38z" />
<glyph unicode="&#x17e;" horiz-adv-x="462" d="M31 0v71l196 304h-180v129h372v-71l-194 -304h208v-129h-402zM212 566l-171 192h132l58 -61l58 61h132l-171 -192h-38z" />
<glyph unicode="&#x17f;" horiz-adv-x="392" d="M84 0v384h-59v120h59v20q0 46 14 81.5t39 59t60 35.5t76 12q59 0 114 -23l-33 -121q-29 12 -54 12q-30 0 -42.5 -15.5t-12.5 -41.5v-523h-161z" />
<glyph unicode="&#x192;" horiz-adv-x="473" d="M132 303h-67l23 120h66l20 112q8 46 28 79.5t48.5 55.5t64.5 32t76 10q32 0 59 -6t53 -17l-55 -121q-26 12 -51 12q-30 0 -45 -15.5t-20 -41.5l-18 -100h97l-24 -120h-94l-60 -339q-8 -47 -28 -80t-49 -54.5t-65 -31.5t-76 -10q-61 0 -112 23l54 121q27 -12 52 -12 q30 0 45 15.5t20 41.5z" />
<glyph unicode="&#x1fc;" horiz-adv-x="893" d="M401 0v156h-156l-62 -156h-175l298 700h545v-144h-280v-121h218v-144h-218v-147h290v-144h-460zM401 544l-102 -253h102v253zM452 762l73 192h181l-150 -192h-104z" />
<glyph unicode="&#x1fd;" horiz-adv-x="846" d="M477 210q8 -42 35.5 -67.5t72.5 -25.5q28 0 49 11.5t40 34.5l97 -88q-41 -48 -89 -65.5t-102 -17.5q-77 0 -127 27t-79 69q-26 -46 -74.5 -71.5t-105.5 -25.5q-34 0 -64 9.5t-52.5 28t-35.5 47t-13 66.5q0 79 61 123.5t182 44.5h56v20q0 36 -24 53.5t-60 17.5 q-32 0 -59 -14t-57 -46l-74 89q86 82 202 82q98 0 154 -56q29 26 69.5 41t97.5 15q68 0 114.5 -23t75 -61.5t40.5 -89t12 -106.5v-22h-342zM662 310q-5 40 -28 65.5t-61 25.5q-32 0 -56.5 -21.5t-37.5 -69.5h183zM328 206h-50q-94 0 -94 -52q0 -20 14.5 -33t41.5 -13 q20 0 36.5 7.5t28 20.5t17.5 29t6 33v8zM286 566l73 192h181l-150 -192h-104z" />
<glyph unicode="&#x1fe;" horiz-adv-x="728" d="M39 27l66 85q-33 44 -52.5 103t-19.5 135q0 91 28 158.5t74 111.5t105.5 66t123.5 22q45 0 88.5 -11t82.5 -34l64 83l93 -68l-70 -90q34 -44 53.5 -103t19.5 -135q0 -91 -28 -158.5t-74 -111.5t-105.5 -66t-123.5 -22q-46 0 -89.5 10.5t-82.5 33.5l-60 -77zM288 160 q33 -20 76 -20q33 0 61.5 12.5t50 38.5t33.5 65.5t12 93.5q0 52 -12 93zM439 540q-34 20 -75 20q-33 0 -61.5 -12.5t-50 -38.5t-33.5 -65.5t-12 -93.5q0 -53 12 -92zM237 762l73 192h181l-150 -192h-104z" />
<glyph unicode="&#x1ff;" horiz-adv-x="602" d="M33 8l57 72q-29 35 -43 79t-14 93q0 52 16.5 99t50 83t83 57t115.5 21q33 0 61.5 -5.5t53.5 -15.5l62 79l94 -69l-62 -79q28 -35 42 -78.5t14 -91.5q0 -52 -16.5 -99t-50 -83t-83 -57t-115.5 -21q-63 0 -114 20l-57 -73zM321 374q-11 3 -23 3q-51 0 -75.5 -35t-24.5 -90 v-16t2 -16zM276 129q5 -1 10.5 -1.5t11.5 -0.5q51 0 75.5 35t24.5 90q0 8 -0.5 15t-1.5 14zM171 566l73 192h181l-150 -192h-104z" />
<glyph unicode="&#x218;" horiz-adv-x="545" d="M182 -319q28 18 48.5 44t27.5 59q-34 6 -50 29.5t-16 52.5q0 35 21.5 60t61.5 25q22 0 38 -8t26.5 -21.5t16 -30.5t5.5 -36q0 -33 -15 -66.5t-38.5 -62t-52 -50t-55.5 -32.5zM355 501q-9 27 -27.5 45t-48.5 18q-32 0 -46.5 -18.5t-14.5 -39.5q0 -18 10 -31.5t25.5 -24 t34.5 -18.5q18 -8 35 -16l32 -15q68 -32 110 -79.5t42 -120.5q0 -45 -16.5 -83t-48 -66t-76.5 -44t-101 -16q-81 0 -144 36.5t-99 115.5l134 61q11 -26 35.5 -47.5t69.5 -21.5q35 0 57.5 15.5t22.5 45.5q0 21 -11 36t-28 26t-38 20t-41 18l-27 12q-25 11 -49 28t-42.5 41 t-30 55.5t-11.5 71.5q0 45 15.5 82.5t43.5 64t67.5 41.5t87.5 15q71 0 125.5 -34.5t86.5 -111.5z" />
<glyph unicode="&#x219;" horiz-adv-x="456" d="M141 -319q28 18 48.5 44t27.5 59q-34 6 -50 29.5t-16 52.5q0 35 21.5 60t61.5 25q22 0 38 -8t26.5 -21.5t16 -30.5t5.5 -36q0 -33 -15 -66.5t-38.5 -62t-52 -50t-55.5 -32.5zM174 213q-54 20 -88.5 59t-34.5 92q0 32 14 59.5t39.5 47t61 30.5t77.5 11q60 0 103.5 -22 t72.5 -60l-91 -74q-18 21 -36.5 33t-43.5 12q-26 0 -37 -11.5t-11 -23.5q0 -21 24.5 -33.5t59.5 -25.5l27 -10q57 -21 91 -54t34 -90q0 -38 -16 -68t-44 -50.5t-66 -31.5t-82 -11q-74 0 -121.5 29t-79.5 79l91 74q22 -32 48 -51.5t60 -19.5q32 0 44 14t12 27q0 22 -25 34.5 t-59 25.5z" />
<glyph unicode="&#x21a;" horiz-adv-x="538" d="M175 -319q28 18 48.5 44t27.5 59q-34 6 -50 29.5t-16 52.5q0 35 21.5 60t61.5 25q22 0 38 -8t26.5 -21.5t16 -30.5t5.5 -36q0 -33 -15 -66.5t-38.5 -62t-52 -50t-55.5 -32.5zM184 0v556h-175v144h520v-144h-175v-556h-170z" />
<glyph unicode="&#x21b;" horiz-adv-x="413" d="M73 -319q28 18 48.5 44t27.5 59q-34 6 -50 29.5t-16 52.5q0 35 21.5 60t61.5 25q22 0 38 -8t26.5 -21.5t16 -30.5t5.5 -36q0 -33 -15 -66.5t-38.5 -62t-52 -50t-55.5 -32.5zM389 15q-55 -23 -116 -23q-40 0 -74.5 11.5t-59.5 34t-39 57t-14 81.5v198h-71v130h71v144 l161 20v-164h124v-130h-124v-167q0 -32 12.5 -55.5t44.5 -23.5q23 0 52 12z" />
<glyph unicode="&#x237;" horiz-adv-x="275" d="M-41 -84q25 5 44.5 13.5t33 22.5t21 35.5t7.5 53.5v463h161v-452q0 -62 -17 -108t-47 -78.5t-72 -51.5t-93 -26z" />
<glyph unicode="&#x2c6;" horiz-adv-x="408" d="M262 566l-58 61l-58 -61h-132l171 192h38l171 -192h-132z" />
<glyph unicode="&#x2c7;" horiz-adv-x="408" d="M185 566l-171 192h132l58 -61l58 61h132l-171 -192h-38z" />
<glyph unicode="&#x2d8;" horiz-adv-x="297" d="M288 710q-1 -26 -11 -49.5t-28 -41.5t-43 -28.5t-57 -10.5t-57.5 10.5t-43.5 28.5t-28 41.5t-11 49.5h97q2 -18 14 -29.5t29 -11.5t28.5 11.5t13.5 29.5h97z" />
<glyph unicode="&#x2d9;" horiz-adv-x="290" d="M145 566q-40 0 -67.5 27.5t-27.5 67.5q0 19 7.5 36.5t20 30.5t30 20.5t37.5 7.5q19 0 36.5 -7.5t30.5 -20.5t20.5 -30.5t7.5 -36.5q0 -20 -7.5 -37.5t-20.5 -30t-30.5 -20t-36.5 -7.5z" />
<glyph unicode="&#x2da;" horiz-adv-x="238" d="M119 547q-23 0 -42.5 8.5t-34 23t-23 34t-8.5 42.5q0 22 8.5 42t23 34.5t34 23t42.5 8.5q22 0 42 -8.5t34.5 -23t23 -34.5t8.5 -42q0 -23 -8.5 -42.5t-23 -34t-34.5 -23t-42 -8.5zM168 655q0 20 -14.5 34.5t-34.5 14.5t-34.5 -14.5t-14.5 -34.5t14.5 -34.5t34.5 -14.5 t34.5 14.5t14.5 34.5z" />
<glyph unicode="&#x2db;" horiz-adv-x="244" d="M231 -149q-23 -17 -53 -30t-66 -13q-49 0 -75.5 25t-26.5 60q0 21 9 37.5t24.5 30t36 23.5t44.5 16h110q-26 -8 -49 -18t-40.5 -20.5t-27.5 -21.5t-10 -23q0 -22 28 -22q14 0 31.5 6.5t31.5 16.5z" />
<glyph unicode="&#x2dc;" horiz-adv-x="433" d="M420 658q-18 -42 -53.5 -68.5t-80.5 -26.5q-22 0 -39.5 6t-31.5 13q-15 8 -30 15.5t-33 7.5q-20 0 -35 -11t-30 -33l-74 63q18 42 53.5 68.5t80.5 26.5q22 0 39.5 -6t31.5 -13q15 -8 30 -15.5t33 -7.5q20 0 35 11t30 33z" />
<glyph unicode="&#x2dd;" horiz-adv-x="494" d="M15 548l63 192h181l-140 -192h-104zM235 548l63 192h181l-140 -192h-104z" />
<glyph unicode="&#x3c0;" horiz-adv-x="649" d="M613 5q-13 -5 -31.5 -9.5t-46.5 -4.5q-78 0 -118.5 42t-40.5 114v227h-100v-374h-161v374h-83v130h579v-130h-75v-216q0 -29 15.5 -37t36.5 -8q8 0 13 0.5t12 2.5v-111z" />
<glyph unicode="&#x401;" horiz-adv-x="568" d="M66 0v700h460v-144h-290v-111h218v-144h-218v-157h300v-144h-470zM254 830q0 -30 -21 -50.5t-51 -20.5t-50.5 20.5t-20.5 50.5t20.5 51t50.5 21t51 -21t21 -51zM448 830q0 -30 -21 -50.5t-51 -20.5t-50.5 20.5t-20.5 50.5t20.5 51t50.5 21t51 -21t21 -51z" />
<glyph unicode="&#x402;" horiz-adv-x="783" d="M472 -50q20 5 36 13.5t27 22.5t17 35.5t6 53.5v132q0 60 -29.5 89.5t-81.5 29.5q-27 0 -48.5 -9t-44.5 -29v-288h-170v556h-175v144h520v-144h-175v-113q34 21 67 30t70 9q51 0 94.5 -15t75.5 -47t50 -81.5t18 -118.5v-134q0 -62 -15.5 -108t-43 -78.5t-66 -51.5 t-84.5 -26z" />
<glyph unicode="&#x403;" horiz-adv-x="522" d="M66 0v700h450v-144h-280v-556h-170zM193 762l73 192h181l-150 -192h-104z" />
<glyph unicode="&#x404;" horiz-adv-x="649" d="M624 116q-49 -57 -115.5 -90.5t-150.5 -33.5q-72 0 -131.5 24.5t-102.5 70.5t-67 112.5t-24 150.5q0 90 26.5 157.5t71.5 112t104.5 66.5t124.5 22q78 0 141 -30.5t109 -83.5l-114 -101q-23 29 -58 49t-79 18q-54 -2 -91.5 -34t-53.5 -101h213v-134h-215q13 -79 53 -115 t97 -36q42 0 82 20.5t66 56.5z" />
<glyph unicode="&#x405;" horiz-adv-x="556" d="M351 515q-15 25 -32 39t-41 14q-23 0 -36.5 -12.5t-13.5 -34.5t13 -35.5t35 -25.5q13 -7 32 -15q18 -9 37 -18t35.5 -16.5t25.5 -11.5q23 -11 44 -28t37.5 -40.5t26.5 -53.5t10 -67q0 -49 -17.5 -89t-49 -68.5t-76 -44.5t-98.5 -16q-85 0 -151.5 39t-104.5 125l135 72 q18 -42 45.5 -67t72.5 -25q29 0 52.5 14.5t23.5 49.5q0 47 -53 75q-9 4 -24 12q-15 7 -30.5 14t-27.5 13q-13 5 -16 7q-27 12 -51.5 29.5t-44 41t-31 53.5t-11.5 69q0 41 14 76.5t41 61.5t67 41t91 15q71 0 122 -30.5t83 -95.5z" />
<glyph unicode="&#x406;" horiz-adv-x="310" d="M66 0v700h178v-700h-178z" />
<glyph unicode="&#x407;" horiz-adv-x="332" d="M81 0v700h170v-700h-170zM141 830q0 -30 -21 -50.5t-51 -20.5t-50.5 20.5t-20.5 50.5t20.5 51t50.5 21t51 -21t21 -51zM335 830q0 -30 -21 -50.5t-51 -20.5t-50.5 20.5t-20.5 50.5t20.5 51t50.5 21t51 -21t21 -51z" />
<glyph unicode="&#x408;" horiz-adv-x="545" d="M320 700h170v-556q0 -69 -18 -119.5t-49.5 -83t-75 -48t-94.5 -15.5q-82 0 -145 40.5t-90 129.5l135 62q17 -44 38 -66t54 -22q41 0 58 31.5t17 80.5v566z" />
<glyph unicode="&#x409;" horiz-adv-x="932" d="M386 0v556h-122v-356q0 -103 -64.5 -155.5t-192.5 -52.5v146q43 1 66 22t23 78v462h460v-265h109q56 0 99.5 -15.5t73.5 -44t46 -68t16 -88.5t-16 -89t-46 -69t-73.5 -45t-99.5 -16h-279zM641 144q47 0 66 19.5t19 53.5q0 33 -19 53.5t-64 20.5h-87v-147h85z" />
<glyph unicode="&#x40a;" horiz-adv-x="944" d="M398 0v301h-162v-301h-170v700h170v-255h162v255h170v-255h109q56 0 99.5 -15.5t73.5 -44.5t46 -70t16 -91t-16 -91t-46 -70.5t-73.5 -46t-99.5 -16.5h-279zM653 144q47 0 66 21.5t19 56.5q0 36 -19 57.5t-64 21.5h-87v-157h85z" />
<glyph unicode="&#x40b;" horiz-adv-x="783" d="M558 0v207q0 60 -29.5 89.5t-81.5 29.5q-27 0 -48.5 -9t-44.5 -29v-288h-170v556h-175v144h520v-144h-175v-113q34 21 67 30t70 9q51 0 94.5 -15t75.5 -47t50 -81.5t18 -118.5v-220h-171z" />
<glyph unicode="&#x40c;" horiz-adv-x="678" d="M459 0l-223 281v-281h-170v700h170v-265l209 265h205l-270 -339l289 -361h-210zM253 762l73 192h181l-150 -192h-104z" />
<glyph unicode="&#x40d;" horiz-adv-x="676" d="M458 0v407l-240 -407h-152v700h152v-407l240 407h152v-700h-152zM320 762l-150 192h181l73 -192h-104z" />
<glyph unicode="&#x40e;" horiz-adv-x="572" d="M60 120q34 4 57.5 11t40 18.5t28 29.5t20.5 44l6 17l-207 460h168l119 -265l108 265h168l-197 -477q-22 -53 -45 -93t-54 -68.5t-73 -45.5t-101 -24zM424 906q-1 -26 -11 -49.5t-28 -41.5t-43 -28.5t-57 -10.5t-57.5 10.5t-43.5 28.5t-28 41.5t-11 49.5h97 q2 -18 14 -29.5t29 -11.5t28.5 11.5t13.5 29.5h97z" />
<glyph unicode="&#x40f;" horiz-adv-x="670" d="M407 0v-124h-144v124h-197v700h170v-556h198v556h170v-700h-197z" />
<glyph unicode="&#x410;" horiz-adv-x="624" d="M448 0l-33 108h-206l-33 -108h-169l223 700h164l223 -700h-169zM312 482l-64 -239h127z" />
<glyph unicode="&#x411;" horiz-adv-x="612" d="M66 0v700h451v-144h-281v-127h109q112 0 173.5 -57.5t61.5 -154.5q0 -49 -16 -89t-46 -68.5t-73.5 -44t-99.5 -15.5h-279zM321 144q48 0 66.5 18.5t18.5 51.5q0 31 -19 51t-64 20h-87v-141h85z" />
<glyph unicode="&#x412;" horiz-adv-x="628" d="M66 0v700h286q44 0 82 -12.5t66.5 -36t44.5 -58t16 -78.5q0 -54 -24 -89t-54 -54q53 -25 83 -65t30 -105q0 -46 -18 -83.5t-50 -63.5t-75.5 -40.5t-95.5 -14.5h-291zM313 425q42 0 60.5 19t18.5 47q0 31 -18 48t-63 17h-75v-131h77zM311 144q62 0 86.5 19.5t24.5 54.5 q0 38 -23.5 60.5t-87.5 22.5h-75v-157h75z" />
<glyph unicode="&#x413;" horiz-adv-x="522" d="M66 0v700h450v-144h-280v-556h-170z" />
<glyph unicode="&#x414;" horiz-adv-x="720" d="M539 -124v124h-343v-124h-135l-24 268h60q27 34 45 66t29 62t17 58.5t10 55.5l42 314h397v-556h61l-24 -268h-135zM467 556h-77l-27 -204q-5 -35 -12 -63t-16.5 -52.5t-22.5 -47t-29 -45.5h184v412z" />
<glyph unicode="&#x415;" horiz-adv-x="568" d="M66 0v700h460v-144h-290v-121h228v-144h-228v-147h300v-144h-470z" />
<glyph unicode="&#x416;" horiz-adv-x="1054" d="M835 0l-223 281v-281h-170v281l-223 -281h-210l289 361l-270 339h205l209 -265v265h170v-265l209 265h205l-270 -339l289 -361h-210z" />
<glyph unicode="&#x417;" horiz-adv-x="608" d="M246 297v132h49q42 0 62.5 19.5t20.5 45.5t-20.5 46t-63.5 20q-42 0 -66 -20t-40 -52l-137 45q9 37 29.5 69t52 55.5t74 37t94.5 13.5q57 0 103.5 -16t79.5 -44t50.5 -64.5t17.5 -76.5q0 -44 -22.5 -81t-76.5 -64q53 -26 81 -65.5t28 -93.5q0 -44 -19 -82t-53.5 -67 t-83 -45.5t-108.5 -16.5q-58 0 -102.5 15t-76 41t-50.5 60t-26 72l142 42q8 -18 17.5 -33.5t22 -26t29.5 -16.5t40 -6q45 0 69.5 21.5t24.5 55.5t-23.5 57t-68.5 23h-50z" />
<glyph unicode="&#x418;" horiz-adv-x="676" d="M458 0v407l-240 -407h-152v700h152v-407l240 407h152v-700h-152z" />
<glyph unicode="&#x419;" horiz-adv-x="676" d="M477 906q-1 -26 -11 -49.5t-28 -41.5t-43 -28.5t-57 -10.5t-57.5 10.5t-43.5 28.5t-28 41.5t-11 49.5h97q2 -18 14 -29.5t29 -11.5t28.5 11.5t13.5 29.5h97zM458 0v407l-240 -407h-152v700h152v-407l240 407h152v-700h-152z" />
<glyph unicode="&#x41a;" horiz-adv-x="678" d="M459 0l-223 281v-281h-170v700h170v-265l209 265h205l-270 -339l289 -361h-210z" />
<glyph unicode="&#x41b;" horiz-adv-x="650" d="M414 0v556h-150v-356q0 -103 -64.5 -155.5t-192.5 -52.5v146q43 1 66 22t23 78v462h488v-700h-170z" />
<glyph unicode="&#x41c;" horiz-adv-x="783" d="M565 0v407l-119 -342h-109l-119 342v-407h-152v700h182l143 -372l144 372h182v-700h-152z" />
<glyph unicode="&#x41d;" horiz-adv-x="720" d="M483 0v296h-246v-296h-171v700h171v-248h246v248h171v-700h-171z" />
<glyph unicode="&#x41e;" horiz-adv-x="728" d="M364 -8q-64 0 -123.5 22t-105.5 66t-74 111.5t-28 158.5t28 158.5t74 111.5t105.5 66t123.5 22t123.5 -22t105.5 -66t74 -111.5t28 -158.5t-28 -158.5t-74 -111.5t-105.5 -66t-123.5 -22zM364 140q33 0 61.5 12.5t50 38.5t33.5 65.5t12 93.5t-12 93.5t-33.5 65.5 t-50 38.5t-61.5 12.5t-61.5 -12.5t-50 -38.5t-33.5 -65.5t-12 -93.5t12 -93.5t33.5 -65.5t50 -38.5t61.5 -12.5z" />
<glyph unicode="&#x41f;" horiz-adv-x="670" d="M434 0v556h-198v-556h-170v700h538v-700h-170z" />
<glyph unicode="&#x420;" d="M66 0v700h279q56 0 99.5 -15.5t73.5 -44t46 -68.5t16 -89q0 -97 -61.5 -154.5t-173.5 -57.5h-109v-271h-170zM323 415q45 0 64 20t19 51q0 33 -18.5 51.5t-66.5 18.5h-85v-141h87z" />
<glyph unicode="&#x421;" horiz-adv-x="676" d="M629 182q-17 -50 -45 -86t-64 -59t-78 -34t-88 -11q-67 0 -126 22.5t-103.5 67t-70.5 111.5t-26 156q0 91 26.5 158.5t71.5 112t104 66.5t124 22q41 0 79.5 -9t72.5 -27.5t62 -48t47 -69.5l-139 -76q-20 37 -49.5 59.5t-74.5 22.5q-31 0 -58.5 -13t-47.5 -39t-32 -65.5 t-12 -92.5q0 -54 12 -93.5t32.5 -65.5t48 -38.5t58.5 -12.5q28 0 49.5 9t37.5 24t28 34.5t20 39.5z" />
<glyph unicode="&#x422;" horiz-adv-x="538" d="M184 0v556h-175v144h520v-144h-175v-556h-170z" />
<glyph unicode="&#x423;" horiz-adv-x="572" d="M60 120q34 4 57.5 11t40 18.5t28 29.5t20.5 44l6 17l-207 460h168l119 -265l108 265h168l-197 -477q-22 -53 -45 -93t-54 -68.5t-73 -45.5t-101 -24z" />
<glyph unicode="&#x424;" horiz-adv-x="768" d="M295 -4v60q-68 11 -117 39.5t-81.5 68t-48 87.5t-15.5 99t15.5 98.5t48 87.5t81.5 68t117 40v60h170v-60q68 -11 117.5 -39.5t81.5 -68t47.5 -87.5t15.5 -99t-15.5 -99.5t-47.5 -88t-81.5 -68t-117.5 -39.5v-59h-170zM463 196q60 16 88 58t28 96t-28 95.5t-88 58.5v-308z M297 503q-60 -17 -88 -58.5t-28 -94.5q0 -54 28 -95.5t88 -58.5v307z" />
<glyph unicode="&#x425;" horiz-adv-x="598" d="M411 0l-112 215l-112 -215h-178l203 383l-176 317h173l90 -164l90 164h174l-175 -317l201 -383h-178z" />
<glyph unicode="&#x426;" horiz-adv-x="706" d="M525 -124v124h-459v700h170v-556h198v556h170v-556h80l-24 -268h-135z" />
<glyph unicode="&#x427;" horiz-adv-x="666" d="M430 0v297q-34 -21 -67 -30t-70 -9q-51 0 -94.5 15t-75.5 47t-50 81.5t-18 118.5v180h171v-167q0 -60 29.5 -89.5t81.5 -29.5q27 0 48.5 9t44.5 29v248h170v-700h-170z" />
<glyph unicode="&#x428;" horiz-adv-x="960" d="M66 0v700h170v-556h159v556h170v-556h159v556h170v-700h-828z" />
<glyph unicode="&#x429;" horiz-adv-x="996" d="M815 -124v124h-749v700h170v-556h159v556h170v-556h159v556h170v-556h80l-24 -268h-135z" />
<glyph unicode="&#x42a;" horiz-adv-x="685" d="M139 0v556h-117v144h287v-265h109q56 0 99.5 -15.5t73.5 -44t46 -68t16 -88.5t-16 -89t-46 -69t-73.5 -45t-99.5 -16h-279zM394 144q47 0 66 19.5t19 53.5q0 33 -19 53.5t-64 20.5h-87v-147h85z" />
<glyph unicode="&#x42b;" horiz-adv-x="906" d="M670 0v700h170v-700h-170zM66 0v700h170v-265h109q56 0 99.5 -15.5t73.5 -44t46 -68t16 -88.5t-16 -89t-46 -69t-73.5 -45t-99.5 -16h-279zM321 144q47 0 66 19.5t19 53.5q0 33 -19 53.5t-64 20.5h-87v-147h85z" />
<glyph unicode="&#x42c;" horiz-adv-x="612" d="M66 0v700h170v-265h109q56 0 99.5 -15.5t73.5 -44t46 -68t16 -88.5t-16 -89t-46 -69t-73.5 -45t-99.5 -16h-279zM321 144q47 0 66 19.5t19 53.5q0 33 -19 53.5t-64 20.5h-87v-147h85z" />
<glyph unicode="&#x42d;" horiz-adv-x="649" d="M222 291v134h213q-16 69 -53.5 101t-91.5 34q-44 2 -79 -18t-58 -49l-114 101q48 53 113.5 83.5t146.5 30.5q63 0 120.5 -22t101 -66.5t69.5 -112t26 -157.5q0 -84 -24 -150.5t-67 -112.5t-102.5 -70.5t-131.5 -24.5q-84 0 -150.5 33.5t-115.5 90.5l114 101 q28 -36 70.5 -56.5t87.5 -20.5q53 0 90.5 36t49.5 115h-215z" />
<glyph unicode="&#x42e;" horiz-adv-x="1010" d="M66 0v700h170v-278h84q10 72 41 126t75.5 89.5t98.5 53t111 17.5q64 0 123.5 -22t105.5 -66t74 -111.5t28 -158.5t-28 -158.5t-74 -111.5t-105.5 -66t-123.5 -22q-57 0 -111 17.5t-98.5 53t-75.5 89t-41 126.5h-84v-278h-170zM646 140q33 0 61.5 12.5t50 38.5t33.5 65.5 t12 93.5t-12 93.5t-33.5 65.5t-50 38.5t-61.5 12.5t-61.5 -12.5t-50 -38.5t-33.5 -65.5t-12 -93.5t12 -93.5t33.5 -65.5t50 -38.5t61.5 -12.5z" />
<glyph unicode="&#x42f;" horiz-adv-x="631" d="M395 0v291h-53l-154 -291h-182l165 315q-54 24 -82 70.5t-28 109.5q0 46 16 84t46 65t73.5 41.5t99.5 14.5h269v-700h-170zM395 556h-75q-48 0 -66.5 -15.5t-18.5 -42.5t19 -45t64 -18h77v121z" />
<glyph unicode="&#x430;" horiz-adv-x="492" d="M290 206h-50q-32 0 -48 -15t-16 -41q0 -28 16.5 -39t33.5 -11q31 0 47.5 24.5t16.5 55.5v26zM307 0q-5 16 -6.5 30.5t-2.5 27.5q-15 -31 -46.5 -49t-73.5 -18q-30 0 -58 9.5t-50 28.5t-35.5 48t-13.5 67q0 75 53.5 115.5t159.5 40.5h56v10q0 71 -72 71q-29 0 -60.5 -10 t-61.5 -30l-46 107q43 32 89 48t101 16q45 0 83.5 -11.5t67 -37t44.5 -67.5t16 -102v-294h-144z" />
<glyph unicode="&#x431;" d="M458 610q-32 -16 -68.5 -26.5t-69.5 -19.5q-26 -7 -49.5 -15t-41.5 -21t-30 -32.5t-16 -49.5q32 21 64.5 33.5t77.5 12.5q57 0 101 -20t74.5 -54.5t46.5 -79.5t16 -95q0 -51 -17 -96.5t-49.5 -80t-81 -54.5t-111.5 -20q-73 0 -124.5 27.5t-84 74.5t-47.5 110.5t-15 135.5 q0 64 10.5 112.5t29.5 84.5t44.5 61.5t54.5 45.5q33 22 67.5 35.5t70.5 23.5t73 20t75 24v-137zM298 127q51 0 75.5 32t24.5 83t-24.5 83t-75.5 32t-75.5 -32t-24.5 -83t24.5 -83t75.5 -32z" />
<glyph unicode="&#x432;" horiz-adv-x="512" d="M59 0v504h233q34 0 63.5 -9.5t52 -27.5t35.5 -44.5t13 -60.5q0 -30 -10 -53t-27 -40q29 -19 45 -47t16 -66q0 -36 -13.5 -65t-38.5 -49t-59 -31t-74 -11h-236zM260 311q44 0 44 40q0 19 -10.5 28.5t-34.5 9.5h-44v-78h45zM259 115q37 0 51.5 12.5t14.5 34.5t-14.5 35.5 t-51.5 13.5h-44v-96h44z" />
<glyph unicode="&#x433;" horiz-adv-x="447" d="M59 0v504h379v-129h-218v-375h-161z" />
<glyph unicode="&#x434;" horiz-adv-x="595" d="M419 -114v114h-247v-114h-127l-18 243h38q26 46 34 85.5t13 76.5l26 213h387v-375h39l-18 -243h-127zM364 375h-86l-12 -107q-5 -46 -12 -77t-21 -62h131v246z" />
<glyph unicode="&#x435;" horiz-adv-x="563" d="M194 210q8 -41 38.5 -67t75.5 -26q31 0 59 12.5t54 33.5l79 -89q-41 -36 -88 -59t-118 -23q-72 0 -122 23.5t-81 61t-44.5 84t-13.5 91.5q0 46 14 92t44.5 83.5t80 61t120.5 23.5q69 0 116 -23t75.5 -61.5t40.5 -89t12 -106.5v-22h-342zM379 310q-2 40 -26.5 65.5 t-62.5 25.5q-32 0 -60.5 -21.5t-33.5 -69.5h183z" />
<glyph unicode="&#x436;" horiz-adv-x="813" d="M622 0l-135 188v-188h-161v188l-135 -188h-183l190 271l-178 233h183l123 -156v156h161v-156l123 156h183l-178 -233l190 -271h-183z" />
<glyph unicode="&#x437;" horiz-adv-x="471" d="M192 214v95h25q29 0 45 11t16 28q0 15 -13 26.5t-42 11.5q-30 0 -51.5 -13t-35.5 -33l-100 55q29 50 81.5 83.5t126.5 33.5q43 0 77.5 -12t59.5 -32t38.5 -46.5t13.5 -56.5q0 -31 -16.5 -58t-55.5 -47q38 -18 59 -47t21 -67q0 -32 -15 -60t-41.5 -49t-63.5 -33t-82 -12 q-42 0 -75 10.5t-58.5 27.5t-44 40t-31.5 49l103 56q13 -26 32.5 -43.5t55.5 -17.5q32 0 48 14.5t16 35.5q0 23 -17.5 36.5t-49.5 13.5h-26z" />
<glyph unicode="&#x438;" horiz-adv-x="577" d="M370 0v267l-153 -267h-158v504h148v-264l149 264h162v-504h-148z" />
<glyph unicode="&#x439;" horiz-adv-x="577" d="M370 0v247l-153 -247h-158v504h148v-244l149 244h162v-504h-148zM427 710q-1 -26 -11 -49.5t-28 -41.5t-43 -28.5t-57 -10.5t-57.5 10.5t-43.5 28.5t-28 41.5t-11 49.5h97q2 -18 14 -29.5t29 -11.5t28.5 11.5t13.5 29.5h97z" />
<glyph unicode="&#x43a;" horiz-adv-x="546" d="M355 0l-135 188v-188h-161v504h161v-156l123 156h183l-178 -233l190 -271h-183z" />
<glyph unicode="&#x43b;" horiz-adv-x="572" d="M352 0v375h-117v-221q0 -85 -53 -123.5t-159 -38.5v136q31 1 44 12t13 37v327h433v-504h-161z" />
<glyph unicode="&#x43c;" horiz-adv-x="641" d="M433 0v224l-65 -181h-95l-65 181v-224h-149v504h159l102 -254l103 254h159v-504h-149z" />
<glyph unicode="&#x43d;" horiz-adv-x="569" d="M349 0v200h-129v-200h-161v504h161v-169h129v169h161v-504h-161z" />
<glyph unicode="&#x43e;" d="M563 252q0 -52 -16.5 -99t-50 -83t-83 -57t-115.5 -21t-115.5 21t-83 57t-50 83t-16.5 99t16.5 99t50 83t83 57t115.5 21t115.5 -21t83 -57t50 -83t16.5 -99zM298 127q51 0 75.5 35t24.5 90t-24.5 90t-75.5 35t-75.5 -35t-24.5 -90t24.5 -90t75.5 -35z" />
<glyph unicode="&#x43f;" horiz-adv-x="563" d="M343 0v375h-123v-375h-161v504h445v-504h-161z" />
<glyph unicode="&#x440;" horiz-adv-x="598" d="M309 127q48 0 69.5 35t21.5 90t-21.5 90t-69.5 35t-71.5 -35t-23.5 -90t23.5 -90t71.5 -35zM61 -204v708h150q9 -36 11 -68q12 39 44 57.5t81 18.5q51 0 91.5 -21t68.5 -56.5t43 -83t15 -99.5t-14.5 -99t-43 -83t-69.5 -57t-95 -21q-39 0 -69.5 12.5t-51.5 47.5v-256 h-161z" />
<glyph unicode="&#x441;" horiz-adv-x="572" d="M534 130q-35 -72 -99 -105t-139 -33q-63 0 -112 20.5t-82.5 56t-51 83t-17.5 100.5t17.5 100.5t50.5 83t81.5 56t110.5 20.5q75 0 137.5 -33t97.5 -105l-125 -69q-16 33 -41 52.5t-63 19.5q-53 0 -78 -36t-25 -89q0 -54 25 -89.5t78 -35.5q39 0 66 19.5t44 52.5z" />
<glyph unicode="&#x442;" horiz-adv-x="471" d="M155 0v375h-131v129h423v-129h-131v-375h-161z" />
<glyph unicode="&#x443;" horiz-adv-x="495" d="M25 -84q34 4 57.5 11.5t40.5 19.5t28.5 30t20.5 44l6 17l-173 466h161l88 -247l86 247h151l-171 -483q-19 -54 -39.5 -94.5t-49 -69t-69 -45.5t-99.5 -24z" />
<glyph unicode="&#x444;" horiz-adv-x="851" d="M345 -204v254q-20 -34 -47 -46t-63 -12q-49 0 -87 21t-63.5 57t-38.5 83t-13 99t13.5 99.5t39 83t62 56.5t83.5 21q90 0 114 -72v268h161v-268q24 72 114 72q47 0 83.5 -21t62 -56.5t39 -83t13.5 -99.5t-13 -99t-38.5 -83t-63.5 -57t-87 -21q-36 0 -63 12t-47 46v-254 h-161zM289 127q32 0 48.5 35t16.5 90t-16.5 90t-48.5 35q-48 0 -69.5 -35t-21.5 -90t21.5 -90t69.5 -35zM562 127q48 0 69.5 35t21.5 90t-21.5 90t-69.5 35q-32 0 -48.5 -35t-16.5 -90t16.5 -90t48.5 -35z" />
<glyph unicode="&#x445;" horiz-adv-x="504" d="M326 0l-74 135l-74 -135h-168l158 269l-139 235h163l60 -104l60 104h163l-139 -235l158 -269h-168z" />
<glyph unicode="&#x446;" horiz-adv-x="574" d="M398 -114v114h-339v504h161v-375h123v375h161v-375h39l-18 -243h-127z" />
<glyph unicode="&#x447;" horiz-adv-x="587" d="M367 0v201q-29 -23 -61 -33.5t-67 -10.5q-40 0 -74.5 11t-59.5 34.5t-39 60t-14 87.5v154h161v-145q0 -29 18.5 -43.5t48.5 -14.5q20 0 43.5 10t43.5 33v160h161v-504h-161z" />
<glyph unicode="&#x448;" horiz-adv-x="827" d="M59 0v504h161v-375h113v375h161v-375h113v375h161v-504h-709z" />
<glyph unicode="&#x449;" horiz-adv-x="838" d="M662 -114v114h-603v504h161v-375h113v375h161v-375h113v375h161v-375h39l-18 -243h-127z" />
<glyph unicode="&#x44a;" horiz-adv-x="559" d="M322 125q23 0 33 9.5t10 28.5q0 17 -9.5 27t-32.5 10h-47v-75h46zM115 0v375h-93v129h254v-179h67q87 0 134.5 -44t47.5 -117q0 -75 -47.5 -119.5t-134.5 -44.5h-228z" />
<glyph unicode="&#x44b;" horiz-adv-x="779" d="M559 0v504h161v-504h-161zM266 125q23 0 33 9.5t10 28.5q0 17 -9.5 27t-32.5 10h-47v-75h46zM59 0v504h161v-179h67q87 0 134.5 -44t47.5 -118t-47.5 -118.5t-134.5 -44.5h-228z" />
<glyph unicode="&#x44c;" horiz-adv-x="503" d="M266 125q23 0 33 9.5t10 28.5q0 17 -9.5 27t-32.5 10h-47v-75h46zM59 0v504h161v-179h67q87 0 134.5 -44t47.5 -118t-47.5 -118.5t-134.5 -44.5h-228z" />
<glyph unicode="&#x44d;" horiz-adv-x="551" d="M218 204v97h131q-11 35 -34.5 55.5t-65.5 20.5q-33 0 -58.5 -14.5t-42.5 -37.5l-115 90q42 51 100 74t121 23q64 0 113.5 -20.5t83 -56t50.5 -83t17 -100.5t-17 -100.5t-51 -83t-84 -56t-116 -20.5q-63 0 -122 23t-101 74l115 90q18 -23 45 -37.5t62 -14.5q45 0 68 21.5 t32 55.5h-131z" />
<glyph unicode="&#x44e;" horiz-adv-x="832" d="M59 0v504h161v-184h56q9 40 30 75.5t53 61t76 40.5t99 15q66 0 115.5 -21t83 -57t50 -83t16.5 -99t-16.5 -99t-50 -83t-83 -57t-115.5 -21q-55 0 -99 15t-76 41t-53 61t-30 76h-56v-185h-161zM534 127q51 0 75.5 35t24.5 90t-24.5 90t-75.5 35t-75.5 -35t-24.5 -90 t24.5 -90t75.5 -35z" />
<glyph unicode="&#x44f;" horiz-adv-x="530" d="M310 0v203h-10l-112 -203h-176l129 220q-76 39 -76 128q0 71 48.5 113.5t137.5 42.5h220v-504h-161zM310 380h-47q-23 0 -33 -8.5t-10 -25.5q0 -38 44 -38h46v72z" />
<glyph unicode="&#x451;" horiz-adv-x="563" d="M194 210q8 -41 38.5 -67t75.5 -26q31 0 59 12.5t54 33.5l79 -89q-41 -36 -88 -59t-118 -23q-72 0 -122 23.5t-81 61t-44.5 84t-13.5 91.5q0 46 14 92t44.5 83.5t80 61t120.5 23.5q69 0 116 -23t75.5 -61.5t40.5 -89t12 -106.5v-22h-342zM379 310q-2 40 -26.5 65.5 t-62.5 25.5q-32 0 -60.5 -21.5t-33.5 -69.5h183zM256 634q0 -30 -21 -50.5t-51 -20.5t-50.5 20.5t-20.5 50.5t20.5 51t50.5 21t51 -21t21 -51zM450 634q0 -30 -21 -50.5t-51 -20.5t-50.5 20.5t-20.5 50.5t20.5 51t50.5 21t51 -21t21 -51z" />
<glyph unicode="&#x452;" horiz-adv-x="597" d="M276 -84q25 5 44.5 13.5t33 22.5t21 35.5t7.5 53.5v262q0 35 -18 54.5t-46 19.5q-41 0 -63 -40t-22 -113v-224h-161v557h-64v103h64v48h161v-48h98v-103h-98v-121q46 76 147 76q80 0 121.5 -43t41.5 -121v-296q0 -62 -17 -108t-47 -78.5t-72 -51.5t-93 -26z" />
<glyph unicode="&#x454;" horiz-adv-x="551" d="M524 89q-42 -51 -101 -74t-122 -23q-66 0 -116 20.5t-84 56t-51 83t-17 100.5t17 100.5t50.5 83t82.5 56t114 20.5q63 0 121 -23t100 -74l-115 -90q-17 23 -42.5 37.5t-58.5 14.5q-42 0 -65.5 -20.5t-34.5 -55.5h131v-97h-131q9 -34 32 -55.5t68 -21.5q35 0 62 14.5 t45 37.5z" />
<glyph unicode="&#x455;" horiz-adv-x="456" d="M174 213q-54 20 -88.5 59t-34.5 92q0 32 14 59.5t39.5 47t61 30.5t77.5 11q60 0 103.5 -22t72.5 -60l-91 -74q-18 21 -36.5 33t-43.5 12q-26 0 -37 -11.5t-11 -23.5q0 -21 24.5 -33.5t59.5 -25.5l27 -10q57 -21 91 -54t34 -90q0 -38 -16 -68t-44 -50.5t-66 -31.5t-82 -11 q-74 0 -121.5 29t-79.5 79l91 74q22 -32 48 -51.5t60 -19.5q32 0 44 14t12 27q0 22 -25 34.5t-59 25.5z" />
<glyph unicode="&#x456;" horiz-adv-x="265" d="M52 0v504h161v-504h-161zM228 665q0 -40 -28 -67.5t-68 -27.5t-67.5 27.5t-27.5 67.5t27.5 68t67.5 28t68 -28t28 -68z" />
<glyph unicode="&#x457;" horiz-adv-x="269" d="M54 0v504h161v-504h-161zM106 634q0 -30 -21 -50.5t-51 -20.5t-50.5 20.5t-20.5 50.5t20.5 51t50.5 21t51 -21t21 -51zM306 634q0 -30 -21 -50.5t-51 -20.5t-50.5 20.5t-20.5 50.5t20.5 51t50.5 21t51 -21t21 -51z" />
<glyph unicode="&#x458;" horiz-adv-x="278" d="M-41 -84q25 5 44.5 13.5t33 22.5t21 35.5t7.5 53.5v463h161v-452q0 -62 -17 -108t-47 -78.5t-72 -51.5t-93 -26zM241 665q0 -40 -28 -67.5t-68 -27.5t-67.5 27.5t-27.5 67.5t27.5 68t67.5 28t68 -28t28 -68z" />
<glyph unicode="&#x459;" horiz-adv-x="792" d="M348 0v375h-113v-221q0 -85 -53 -123.5t-159 -38.5v136q31 1 44 12t13 37v327h429v-179h67q87 0 134.5 -44t47.5 -117q0 -75 -47.5 -119.5t-134.5 -44.5h-228zM555 125q23 0 33 9.5t10 28.5q0 17 -9.5 27t-32.5 10h-47v-75h46z" />
<glyph unicode="&#x45a;" horiz-adv-x="803" d="M359 0v196h-139v-196h-161v504h161v-179h139v179h161v-179h67q87 0 134.5 -44t47.5 -117q0 -75 -47.5 -119.5t-134.5 -44.5h-228zM566 121q23 0 33 9.5t10 28.5q0 17 -9.5 27t-32.5 10h-47v-75h46z" />
<glyph unicode="&#x45b;" horiz-adv-x="597" d="M382 0v303q0 35 -18 54.5t-46 19.5q-41 0 -63 -40t-22 -113v-224h-161v557h-64v103h64v58h161v-58h98v-103h-98v-121q46 76 147 76q80 0 121.5 -43t41.5 -121v-348h-161z" />
<glyph unicode="&#x45c;" horiz-adv-x="546" d="M355 0l-135 188v-188h-161v504h161v-156l123 156h183l-178 -233l190 -271h-183zM198 566l73 192h181l-150 -192h-104z" />
<glyph unicode="&#x45d;" horiz-adv-x="577" d="M370 0v247l-153 -247h-158v504h148v-244l149 244h162v-504h-148zM272 566l-150 192h181l73 -192h-104z" />
<glyph unicode="&#x45e;" horiz-adv-x="495" d="M25 -84q34 4 57.5 11.5t40.5 19.5t28.5 30t20.5 44l6 17l-173 466h161l88 -247l86 247h151l-171 -483q-19 -54 -39.5 -94.5t-49 -69t-69 -45.5t-99.5 -24zM392 710q-1 -26 -11 -49.5t-28 -41.5t-43 -28.5t-57 -10.5t-57.5 10.5t-43.5 28.5t-28 41.5t-11 49.5h97 q2 -18 14 -29.5t29 -11.5t28.5 11.5t13.5 29.5h97z" />
<glyph unicode="&#x45f;" horiz-adv-x="563" d="M351 0v-114h-139v114h-153v504h161v-375h123v375h161v-504h-153z" />
<glyph unicode="&#x490;" horiz-adv-x="522" d="M66 0v700h306v117h144v-261h-280v-556h-170z" />
<glyph unicode="&#x491;" horiz-adv-x="447" d="M59 0v504h250v92h129v-221h-218v-375h-161z" />
<glyph unicode="&#x1e80;" horiz-adv-x="911" d="M558 0l-103 352l-102 -352h-164l-173 700h169l93 -444l107 379h141l106 -379l94 444h169l-173 -700h-164zM478 762l-150 192h181l73 -192h-104z" />
<glyph unicode="&#x1e81;" horiz-adv-x="756" d="M448 0l-71 289l-69 -289h-135l-152 504h155l65 -286l66 286h142l66 -285l65 285h155l-152 -504h-135zM401 566l-150 192h181l73 -192h-104z" />
<glyph unicode="&#x1e82;" horiz-adv-x="911" d="M558 0l-103 352l-102 -352h-164l-173 700h169l93 -444l107 379h141l106 -379l94 444h169l-173 -700h-164zM328 762l73 192h181l-150 -192h-104z" />
<glyph unicode="&#x1e83;" horiz-adv-x="756" d="M448 0l-71 289l-69 -289h-135l-152 504h155l65 -286l66 286h142l66 -285l65 285h155l-152 -504h-135zM254 566l73 192h181l-150 -192h-104z" />
<glyph unicode="&#x1e84;" horiz-adv-x="911" d="M558 0l-103 352l-102 -352h-164l-173 700h169l93 -444l107 379h141l106 -379l94 444h169l-173 -700h-164zM430 830q0 -30 -21 -50.5t-51 -20.5t-50.5 20.5t-20.5 50.5t20.5 51t50.5 21t51 -21t21 -51zM624 830q0 -30 -21 -50.5t-51 -20.5t-50.5 20.5t-20.5 50.5t20.5 51 t50.5 21t51 -21t21 -51z" />
<glyph unicode="&#x1e85;" horiz-adv-x="756" d="M448 0l-71 289l-69 -289h-135l-152 504h155l65 -286l66 286h142l66 -285l65 285h155l-152 -504h-135zM353 634q0 -30 -21 -50.5t-51 -20.5t-50.5 20.5t-20.5 50.5t20.5 51t50.5 21t51 -21t21 -51zM547 634q0 -30 -21 -50.5t-51 -20.5t-50.5 20.5t-20.5 50.5t20.5 51 t50.5 21t51 -21t21 -51z" />
<glyph unicode="&#x1ef2;" horiz-adv-x="565" d="M198 0v296l-195 404h178l103 -242l101 242h177l-194 -404v-296h-170zM305 762l-150 192h181l73 -192h-104z" />
<glyph unicode="&#x1ef3;" horiz-adv-x="495" d="M25 -84q34 4 57.5 11.5t40.5 19.5t28.5 30t20.5 44l6 17l-173 466h161l88 -247l86 247h151l-171 -483q-19 -54 -39.5 -94.5t-49 -69t-69 -45.5t-99.5 -24zM270 566l-150 192h181l73 -192h-104z" />
<glyph unicode="&#x2000;" horiz-adv-x="481" />
<glyph unicode="&#x2001;" horiz-adv-x="962" />
<glyph unicode="&#x2002;" horiz-adv-x="481" />
<glyph unicode="&#x2003;" horiz-adv-x="962" />
<glyph unicode="&#x2004;" horiz-adv-x="320" />
<glyph unicode="&#x2005;" horiz-adv-x="240" />
<glyph unicode="&#x2006;" horiz-adv-x="160" />
<glyph unicode="&#x2007;" horiz-adv-x="160" />
<glyph unicode="&#x2008;" horiz-adv-x="120" />
<glyph unicode="&#x2009;" horiz-adv-x="192" />
<glyph unicode="&#x200a;" horiz-adv-x="53" />
<glyph unicode="&#x2010;" horiz-adv-x="388" d="M49 187v140h290v-140h-290z" />
<glyph unicode="&#x2011;" horiz-adv-x="388" d="M49 187v140h290v-140h-290z" />
<glyph unicode="&#x2012;" horiz-adv-x="388" d="M49 187v140h290v-140h-290z" />
<glyph unicode="&#x2013;" horiz-adv-x="573" d="M49 187v140h475v-140h-475z" />
<glyph unicode="&#x2014;" horiz-adv-x="759" d="M49 187v140h661v-140h-661z" />
<glyph unicode="&#x2018;" horiz-adv-x="289" d="M239 667q-31 -20 -53.5 -49t-30.5 -66q39 -6 58 -32t19 -59q0 -19 -7 -36t-19.5 -30t-30.5 -20.5t-39 -7.5q-24 0 -42 9t-30 23.5t-18 33.5t-6 40q0 37 16.5 73.5t42.5 68t57.5 56t62.5 37.5z" />
<glyph unicode="&#x2019;" horiz-adv-x="289" d="M50 408q31 20 53.5 49t30.5 66q-39 6 -58 32t-19 59q0 19 7 36t19.5 30t30.5 20.5t39 7.5q24 0 42 -9t30 -23.5t18 -33.5t6 -40q0 -37 -16.5 -73.5t-42.5 -68t-57.5 -56t-62.5 -37.5z" />
<glyph unicode="&#x201a;" horiz-adv-x="289" d="M50 -122q31 20 53.5 49t30.5 66q-39 6 -58 32t-19 59q0 19 7 36t19.5 30t30.5 20.5t39 7.5q24 0 42 -9t30 -23.5t18 -33.5t6 -40q0 -37 -16.5 -73.5t-42.5 -68t-57.5 -56t-62.5 -37.5z" />
<glyph unicode="&#x201c;" horiz-adv-x="525" d="M475 667q-31 -20 -53.5 -49t-30.5 -66q39 -6 58 -32t19 -59q0 -19 -7 -36t-19.5 -30t-30.5 -20.5t-39 -7.5q-24 0 -42 9t-30 23.5t-18 33.5t-6 40q0 37 16.5 73.5t42.5 68t57.5 56t62.5 37.5zM239 667q-31 -20 -53.5 -49t-30.5 -66q39 -6 58 -32t19 -59q0 -19 -7 -36 t-19.5 -30t-30.5 -20.5t-39 -7.5q-24 0 -42 9t-30 23.5t-18 33.5t-6 40q0 37 16.5 73.5t42.5 68t57.5 56t62.5 37.5z" />
<glyph unicode="&#x201d;" horiz-adv-x="525" d="M50 408q31 20 53.5 49t30.5 66q-39 6 -58 32t-19 59q0 19 7 36t19.5 30t30.5 20.5t39 7.5q24 0 42 -9t30 -23.5t18 -33.5t6 -40q0 -37 -16.5 -73.5t-42.5 -68t-57.5 -56t-62.5 -37.5zM286 408q31 20 53.5 49t30.5 66q-39 6 -58 32t-19 59q0 19 7 36t19.5 30t30.5 20.5 t39 7.5q24 0 42 -9t30 -23.5t18 -33.5t6 -40q0 -37 -16.5 -73.5t-42.5 -68t-57.5 -56t-62.5 -37.5z" />
<glyph unicode="&#x201e;" horiz-adv-x="525" d="M50 -122q31 20 53.5 49t30.5 66q-39 6 -58 32t-19 59q0 19 7 36t19.5 30t30.5 20.5t39 7.5q24 0 42 -9t30 -23.5t18 -33.5t6 -40q0 -37 -16.5 -73.5t-42.5 -68t-57.5 -56t-62.5 -37.5zM286 -122q31 20 53.5 49t30.5 66q-39 6 -58 32t-19 59q0 19 7 36t19.5 30t30.5 20.5 t39 7.5q24 0 42 -9t30 -23.5t18 -33.5t6 -40q0 -37 -16.5 -73.5t-42.5 -68t-57.5 -56t-62.5 -37.5z" />
<glyph unicode="&#x2020;" horiz-adv-x="530" d="M200 -150v534l-161 -5v125l161 -5v251h130v-251l161 5v-125l-161 5v-534h-130z" />
<glyph unicode="&#x2021;" horiz-adv-x="530" d="M200 -150v251l-161 -5v125l161 -5v168l-161 -5v125l161 -5v251h130v-251l161 5v-125l-161 5v-168l161 5v-125l-161 5v-251h-130z" />
<glyph unicode="&#x2022;" horiz-adv-x="412" d="M218 169q-33 0 -62.5 12.5t-51.5 34.5t-34.5 51.5t-12.5 62.5t12.5 62.5t34.5 51.5t51.5 34.5t62.5 12.5t62.5 -12.5t51.5 -34.5t34.5 -51.5t12.5 -62.5t-12.5 -62.5t-34.5 -51.5t-51.5 -34.5t-62.5 -12.5z" />
<glyph unicode="&#x2026;" horiz-adv-x="960" d="M154 -8q-40 0 -67.5 27.5t-27.5 67.5q0 19 7.5 36.5t20 30.5t30 20.5t37.5 7.5q19 0 36.5 -7.5t30.5 -20.5t20.5 -30.5t7.5 -36.5q0 -20 -7.5 -37.5t-20.5 -30t-30.5 -20t-36.5 -7.5zM480 -8q-40 0 -67.5 27.5t-27.5 67.5q0 19 7.5 36.5t20 30.5t30 20.5t37.5 7.5 q19 0 36.5 -7.5t30.5 -20.5t20.5 -30.5t7.5 -36.5q0 -20 -7.5 -37.5t-20.5 -30t-30.5 -20t-36.5 -7.5zM806 -8q-40 0 -67.5 27.5t-27.5 67.5q0 19 7.5 36.5t20 30.5t30 20.5t37.5 7.5q19 0 36.5 -7.5t30.5 -20.5t20.5 -30.5t7.5 -36.5q0 -20 -7.5 -37.5t-20.5 -30t-30.5 -20 t-36.5 -7.5z" />
<glyph unicode="&#x202f;" horiz-adv-x="192" />
<glyph unicode="&#x2030;" horiz-adv-x="1237" d="M373 544q0 -40 -14 -70t-37 -50t-53 -30t-63 -10q-32 0 -62.5 10t-53.5 30t-37 50t-14 70q0 41 14 71t37.5 50t53.5 29.5t62 9.5t62 -10t53.5 -29.5t37.5 -50t14 -70.5zM207 477q24 0 41 17.5t17 49.5q0 33 -17 50t-41 17q-25 0 -42.5 -17t-17.5 -50q0 -32 17.5 -49.5 t42.5 -17.5zM798 156q0 -40 -14 -70t-37 -50t-53 -30t-63 -10q-32 0 -62.5 10t-53.5 30t-37 50t-14 70q0 41 14 71t37.5 50t53.5 29.5t62 9.5t62 -10t53.5 -29.5t37.5 -50t14 -70.5zM632 89q24 0 41 17.5t17 49.5q0 33 -17 50t-41 17q-25 0 -42.5 -17t-17.5 -50 q0 -32 17.5 -49.5t42.5 -17.5zM1198 156q0 -40 -14 -70t-37 -50t-53 -30t-63 -10q-32 0 -62.5 10t-53.5 30t-37 50t-14 70q0 41 14 71t37.5 50t53.5 29.5t62 9.5t62 -10t53.5 -29.5t37.5 -50t14 -70.5zM1032 89q24 0 41 17.5t17 49.5q0 33 -17 50t-41 17q-25 0 -42.5 -17 t-17.5 -50q0 -32 17.5 -49.5t42.5 -17.5zM110 23l541 720l78 -63l-541 -720z" />
<glyph unicode="&#x2039;" horiz-adv-x="403" d="M33 265v90l333 226v-154l-178 -117l178 -117v-154z" />
<glyph unicode="&#x203a;" horiz-adv-x="403" d="M37 39v154l178 117l-178 117v154l333 -226v-90z" />
<glyph unicode="&#x2044;" horiz-adv-x="664" d="M24 23l541 720l78 -63l-541 -720z" />
<glyph unicode="&#x205f;" horiz-adv-x="240" />
<glyph unicode="&#x2070;" horiz-adv-x="378" d="M189 296q-32 0 -62.5 12.5t-53.5 38t-37 63.5t-14 90t14 90.5t37.5 64t53.5 37.5t62 12t62 -12.5t53.5 -37.5t37.5 -63.5t14 -90.5q0 -51 -14 -89.5t-37 -64t-53 -38t-63 -12.5zM190 389q24 0 41 27.5t17 83.5q0 57 -17 84t-41 27q-25 0 -42.5 -27t-17.5 -84 q0 -56 17.5 -83.5t42.5 -27.5z" />
<glyph unicode="&#x2074;" horiz-adv-x="361" d="M196 300v65h-173v69l188 265h85v-240h47v-94h-47v-65h-100zM196 551l-63 -92h63v92z" />
<glyph unicode="&#x2075;" horiz-adv-x="337" d="M150 608l-8 -43q10 4 21.5 5.5t22.5 1.5q32 0 57 -11t42.5 -29t26.5 -42.5t9 -51.5q0 -29 -10 -54.5t-29.5 -45t-48.5 -31t-66 -11.5q-50 0 -88 23t-60 68l82 45q11 -20 26 -31t35 -11q24 0 37.5 13t13.5 35q0 20 -14 33.5t-40 13.5q-32 0 -62 -18l-56 23l42 209h217v-91 h-150z" />
<glyph unicode="&#x2076;" horiz-adv-x="336" d="M217 433q0 20 -12 33.5t-35 13.5t-35.5 -13.5t-12.5 -33.5t12.5 -32.5t35.5 -12.5t35 12.5t12 32.5zM186 561q3 1 8 1h10q17 0 37 -8t37 -24t28.5 -40t11.5 -55q0 -28 -10 -53.5t-29 -44.5t-46.5 -30t-62.5 -11t-62.5 11t-46.5 30t-28.5 44t-9.5 53q0 18 6 38t24 49 l108 179h112z" />
<glyph unicode="&#x2077;" horiz-adv-x="307" d="M32 300l145 308h-161v91h282v-54l-159 -345h-107z" />
<glyph unicode="&#x2078;" horiz-adv-x="327" d="M255 514q26 -14 39 -40t13 -55q0 -24 -10 -46.5t-28.5 -39.5t-45 -27t-60.5 -10t-61 10t-45.5 27t-28.5 39.5t-10 46.5q0 29 13.5 55t39.5 40q-18 14 -27 34t-9 40q0 24 9 45t25.5 37t40 25t53.5 9q60 0 94 -34t34 -82q0 -20 -8.5 -40t-27.5 -34zM206 425q0 18 -11.5 30 t-31.5 12t-31.5 -12t-11.5 -30q0 -17 11.5 -30t31.5 -13t31.5 13t11.5 30zM194 586q0 15 -8.5 24.5t-22.5 9.5q-15 0 -23.5 -9.5t-8.5 -24.5q0 -12 7.5 -21.5t24.5 -9.5q16 0 23.5 9.5t7.5 21.5z" />
<glyph unicode="&#x2079;" horiz-adv-x="336" d="M214 567q0 20 -12.5 32.5t-35.5 12.5t-35 -12.5t-12 -32.5t12 -33.5t35 -13.5t35.5 13.5t12.5 33.5zM63 300l87 139q-3 -1 -8 -1h-10q-17 0 -37 8t-37 24t-28.5 39.5t-11.5 55.5q0 28 10 53.5t29 44.5t46.5 30t62.5 11t62.5 -11t46 -30t28.5 -44t10 -53q0 -18 -6 -38 t-24 -49l-108 -179h-112z" />
<glyph unicode="&#x2080;" horiz-adv-x="378" d="M189 -4q-32 0 -62.5 12.5t-53.5 38t-37 63.5t-14 90t14 90.5t37.5 64t53.5 37.5t62 12t62 -12.5t53.5 -37.5t37.5 -63.5t14 -90.5q0 -51 -14 -89.5t-37 -64t-53 -38t-63 -12.5zM190 89q24 0 41 27.5t17 83.5q0 57 -17 84t-41 27q-25 0 -42.5 -27t-17.5 -84 q0 -56 17.5 -83.5t42.5 -27.5z" />
<glyph unicode="&#x2081;" horiz-adv-x="230" d="M97 0v267l-52 -21l-33 81l133 72h58v-399h-106z" />
<glyph unicode="&#x2082;" horiz-adv-x="329" d="M25 0v54l137 149q20 23 29.5 38t9.5 29q0 15 -9.5 27.5t-32.5 12.5q-21 0 -32.5 -15.5t-11.5 -41.5h-89q0 30 8 57t24.5 48t43 33.5t63.5 12.5q31 0 57.5 -8.5t46 -25t30.5 -40.5t11 -54q0 -35 -15 -63.5t-41 -53.5l-73 -67h130v-92h-286z" />
<glyph unicode="&#x2083;" horiz-adv-x="342" d="M149 164v85h22q20 0 30.5 8.5t10.5 21.5q0 12 -10 21.5t-32 9.5q-19 0 -30 -10t-18 -26l-86 35q14 41 48 68t91 27q33 0 60 -9.5t46 -25.5t29.5 -37t10.5 -45t-11 -45t-37 -37q26 -14 40 -36t14 -51q0 -25 -11 -47.5t-31 -39t-48.5 -26t-63.5 -9.5q-34 0 -61 10 t-45.5 26.5t-29.5 39t-14 46.5l97 15q9 -43 51 -43q22 0 34.5 10t12.5 26q0 17 -12 27.5t-35 10.5h-22z" />
<glyph unicode="&#x2084;" horiz-adv-x="361" d="M196 0v65h-173v69l188 265h85v-240h47v-94h-47v-65h-100zM196 251l-63 -92h63v92z" />
<glyph unicode="&#x2085;" horiz-adv-x="337" d="M150 308l-8 -43q10 4 21.5 5.5t22.5 1.5q32 0 57 -11t42.5 -29t26.5 -42.5t9 -51.5q0 -29 -10 -54.5t-29.5 -45t-48.5 -31t-66 -11.5q-50 0 -88 23t-60 68l82 45q11 -20 26 -31t35 -11q24 0 37.5 13t13.5 35q0 20 -14 33.5t-40 13.5q-32 0 -62 -18l-56 23l42 209h217v-91 h-150z" />
<glyph unicode="&#x2086;" horiz-adv-x="336" d="M217 133q0 20 -12 33.5t-35 13.5t-35.5 -13.5t-12.5 -33.5t12.5 -32.5t35.5 -12.5t35 12.5t12 32.5zM186 261q3 1 8 1h10q17 0 37 -8t37 -24t28.5 -40t11.5 -55q0 -28 -10 -53.5t-29 -44.5t-46.5 -30t-62.5 -11t-62.5 11t-46.5 30t-28.5 44t-9.5 53q0 18 6 38t24 49 l108 179h112z" />
<glyph unicode="&#x2087;" horiz-adv-x="307" d="M32 0l145 308h-161v91h282v-54l-159 -345h-107z" />
<glyph unicode="&#x2088;" horiz-adv-x="325" d="M255 214q26 -14 39 -40t13 -55q0 -24 -10 -46.5t-28.5 -39.5t-45 -27t-60.5 -10t-61 10t-45.5 27t-28.5 39.5t-10 46.5q0 29 13.5 55t39.5 40q-18 14 -27 34t-9 40q0 24 9 45t25.5 37t40 25t53.5 9q60 0 94 -34t34 -82q0 -20 -8.5 -40t-27.5 -34zM206 125q0 18 -11.5 30 t-31.5 12t-31.5 -12t-11.5 -30q0 -17 11.5 -30t31.5 -13t31.5 13t11.5 30zM194 286q0 15 -8.5 24.5t-22.5 9.5q-15 0 -23.5 -9.5t-8.5 -24.5q0 -12 7.5 -21.5t24.5 -9.5q16 0 23.5 9.5t7.5 21.5z" />
<glyph unicode="&#x2089;" horiz-adv-x="336" d="M214 267q0 20 -12.5 32.5t-35.5 12.5t-35 -12.5t-12 -32.5t12 -33.5t35 -13.5t35.5 13.5t12.5 33.5zM63 0l87 139q-3 -1 -8 -1h-10q-17 0 -37 8t-37 24t-28.5 39.5t-11.5 55.5q0 28 10 53.5t29 44.5t46.5 30t62.5 11t62.5 -11t46 -30t28.5 -44t10 -53q0 -18 -6 -38 t-24 -49l-108 -179h-112z" />
<glyph unicode="&#x20ac;" horiz-adv-x="669" d="M640 162q-16 -46 -41.5 -78t-58 -52.5t-70.5 -30t-77 -9.5q-50 0 -95 15t-82 45t-64 74.5t-41 104.5h-89l34 96h43v22v24h-77l34 96h56q14 60 41.5 105t65 75t82.5 44.5t94 14.5q36 0 70 -8t64.5 -24.5t55.5 -41.5t42 -60l-125 -76q-16 26 -44 44.5t-66 17.5t-69 -23 t-49 -68h192l-37 -96h-173v-23v-23h158l-35 -96h-105q18 -47 49.5 -69t70.5 -22q47 0 75.5 27t43.5 60z" />
<glyph unicode="&#x2116;" horiz-adv-x="1256" d="M960 323q56 0 82 35t26 91q0 57 -26 92t-82 35q-57 0 -82.5 -35t-25.5 -92q0 -56 25.5 -91t82.5 -35zM458 0l-241 439v-439h-151v700h166l242 -439v439h151v-700h-167zM726 0v118h469v-118h-469zM1223 449q0 -52 -16.5 -98.5t-49.5 -82t-82.5 -56.5t-114.5 -21 q-66 0 -115.5 21t-82.5 56.5t-49.5 82t-16.5 98.5t16.5 99t49.5 82.5t82.5 56.5t115.5 21q65 0 114.5 -21t82.5 -56.5t49.5 -82.5t16.5 -99z" />
<glyph unicode="&#x2117;" horiz-adv-x="870" d="M435 -40q-81 0 -152 30.5t-124 83.5t-83.5 124t-30.5 152t30.5 152t83.5 124t124 83.5t152 30.5t152 -30.5t124 -83.5t83.5 -124t30.5 -152t-30.5 -152t-83.5 -124t-124 -83.5t-152 -30.5zM435 51q62 0 116 23.5t94.5 64t64 95t23.5 116.5t-23.5 116t-64 94.5t-94.5 64 t-116 23.5t-116.5 -23.5t-95 -64t-64 -94.5t-23.5 -116t23.5 -116.5t64 -95t95 -64t116.5 -23.5zM305 139v420h167q67 0 104 -35t37 -95q0 -58 -37 -92.5t-104 -34.5h-65v-163h-102zM459 389q27 0 38.5 12t11.5 30q0 20 -11 31t-40 11h-51v-84h52z" />
<glyph unicode="&#x2122;" horiz-adv-x="801" d="M116 300v310h-98v90h300v-90h-97v-310h-105zM660 300l-17 175l-55 -175h-83l-57 176l-16 -176h-95l41 400h94l74 -236l74 236h94l42 -400h-96z" />
<glyph unicode="&#x220f;" horiz-adv-x="453" d="M387 0q-73 0 -136.5 27.5t-111 75t-75 111t-27.5 136.5t27.5 136.5t75 111t111 75t136.5 27.5v-700z" />
<glyph unicode="&#x2211;" horiz-adv-x="565" d="M33 350l466 350v-700z" />
<glyph unicode="&#x2212;" horiz-adv-x="578" d="M41 251v132h496v-132h-496z" />
<glyph unicode="&#x221a;" horiz-adv-x="565" d="M66 0v700l466 -350z" />
<glyph unicode="&#x221e;" horiz-adv-x="846" d="M334 297q-22 25 -45 43t-45 18q-28 0 -44.5 -17t-16.5 -42t16.5 -41.5t44.5 -16.5q24 0 46 15t44 41zM512 299q22 -24 45 -41t46 -17q27 0 44 16.5t17 41.5t-17 42t-44 17q-24 0 -46 -16.5t-45 -42.5zM422 198q-44 -45 -87 -68.5t-93 -23.5q-44 0 -81 14.5t-63.5 40.5 t-41.5 61.5t-15 77.5t15 77.5t41.5 61.5t63.5 41t81 15q50 0 95.5 -24.5t87.5 -70.5q42 44 87 69.5t93 25.5q43 0 80 -15t64 -41t42 -61.5t15 -77.5t-15 -77.5t-42 -61.5t-64 -40.5t-80 -14.5q-52 0 -96 23t-87 69z" />
<glyph unicode="&#x2264;" horiz-adv-x="578" d="M41 0v132h496v-132h-496zM41 349v116l496 175v-140l-286 -93l286 -93v-140z" />
<glyph unicode="&#x2265;" horiz-adv-x="578" d="M41 0v132h496v-132h-496zM41 174v140l286 93l-286 93v140l496 -175v-116z" />
<glyph unicode="&#x25ba;" horiz-adv-x="565" d="M66 0v700l466 -350z" />
<glyph unicode="&#x25ca;" horiz-adv-x="453" d="M66 700q73 0 136.5 -27.5t111 -75t75 -111t27.5 -136.5t-27.5 -136.5t-75 -111t-111 -75t-136.5 -27.5v700z" />
<glyph unicode="&#x25fc;" horiz-adv-x="505" d="M0 505h505v-505h-505v505z" />
<glyph unicode="&#xf6c3;" horiz-adv-x="265" d="M43 -319q28 18 48.5 44t27.5 59q-35 6 -52.5 29.5t-17.5 52.5q0 35 24 60t63 25q22 0 38 -8t26.5 -21.5t16 -30.5t5.5 -36q0 -33 -15 -66.5t-38.5 -62t-52 -50t-55.5 -32.5z" />
<glyph unicode="&#xfb00;" horiz-adv-x="768" d="M456 0v374h-211v-374h-161v374h-59v130h59v36q0 46 14 81.5t39 59t60 35.5t76 12q36 0 73 -6t71 -17l-33 -121q-47 12 -84 12q-30 0 -42.5 -15.5t-12.5 -41.5v-35h211v36q0 46 14 81.5t39 59t60 35.5t76 12q59 0 114 -23l-33 -121q-29 12 -54 12q-30 0 -42.5 -15.5 t-12.5 -41.5v-35h99v-130h-99v-374h-161z" />
<glyph unicode="&#xfb03;" horiz-adv-x="1040" d="M828 0v374h-211v-374h-161v374h-211v-374h-161v374h-59v130h59v36q0 46 14 81.5t39 59t60 35.5t76 12q59 0 114 -23l-33 -121q-29 12 -54 12q-30 0 -42.5 -15.5t-12.5 -41.5v-35h211v36q0 46 14 81.5t39 59t60 35.5t76 12q59 0 114 -23l-33 -121q-29 12 -54 12 q-30 0 -42.5 -15.5t-12.5 -41.5v-35h372v-504h-161zM999 645q0 -38 -26.5 -64t-64.5 -26t-64 26t-26 64t26 64.5t64 26.5t64.5 -26.5t26.5 -64.5z" />
<glyph unicode="&#xfb04;" horiz-adv-x="1049" d="M829 0v595l-157 1q-30 0 -42.5 -15.5t-12.5 -41.5v-35h99v-130h-99v-374h-161v374h-211v-374h-161v374h-59v130h59v36q0 94 53 141t141 47q31 0 68 -6t71 -17l-33 -121q-23 6 -44 9t-36 3q-33 0 -46 -14.5t-13 -42.5v-35h211v36q0 46 14 81.5t39 59t60 35.5t76 12h345 v-728h-161z" />
<glyph horiz-adv-x="556" d="M351 515q-15 25 -32 39t-41 14q-23 0 -36.5 -12.5t-13.5 -34.5t13 -35.5t35 -25.5q13 -7 32 -15q18 -9 37 -18t35.5 -16.5t25.5 -11.5q23 -11 44 -28t37.5 -40.5t26.5 -53.5t10 -67q0 -49 -17.5 -89t-49 -68.5t-76 -44.5t-98.5 -16q-85 0 -151.5 39t-104.5 125l135 72 q18 -42 45.5 -67t72.5 -25q29 0 52.5 14.5t23.5 49.5q0 47 -53 75q-9 4 -24 12q-15 7 -30.5 14t-27.5 13q-13 5 -16 7q-27 12 -51.5 29.5t-44 41t-31 53.5t-11.5 69q0 41 14 76.5t41 61.5t67 41t91 15q71 0 122 -30.5t83 -95.5z" />
<glyph horiz-adv-x="658" d="M329 -8q-56 0 -108.5 22t-93 66t-65 111.5t-24.5 158.5t24.5 158.5t65 111.5t93 66t108.5 22t108.5 -22t93 -66t65 -111.5t24.5 -158.5t-24.5 -158.5t-65 -111.5t-93 -66t-108.5 -22zM329 140q48 0 82.5 51.5t34.5 158.5t-34.5 158.5t-82.5 51.5t-82.5 -51.5 t-34.5 -158.5t34.5 -158.5t82.5 -51.5z" />
<glyph horiz-adv-x="633" d="M113 0v144h126v344l-97 -40l-52 131l227 121h92v-556h126v-144h-422z" />
<glyph horiz-adv-x="646" d="M92 0v83l224 271q16 20 29 36t22 30.5t14 28.5t5 31q0 14 -4 28.5t-13.5 26t-24.5 18.5t-37 7q-39 0 -59.5 -22.5t-34.5 -59.5l-140 32q6 40 24.5 76t49.5 63t73.5 43t98.5 16q55 0 99.5 -16.5t76 -45t48.5 -68t17 -85.5q0 -59 -25.5 -107.5t-70.5 -97.5l-130 -144h238 v-144h-480z" />
<glyph horiz-adv-x="646" d="M266 297v132h49q42 0 62.5 19.5t20.5 45.5t-20.5 46t-63.5 20q-42 0 -66 -20t-40 -52l-137 45q9 37 29.5 69t52 55.5t74 37t94.5 13.5q57 0 103.5 -16t79.5 -44t50.5 -64.5t17.5 -76.5q0 -44 -22.5 -81t-76.5 -64q53 -26 81 -65.5t28 -93.5q0 -44 -19 -82t-53.5 -67 t-83 -45.5t-108.5 -16.5q-58 0 -102.5 15t-76 41t-50.5 60t-26 72l142 42q8 -18 17.5 -33.5t22 -26t29.5 -16.5t40 -6q45 0 69.5 21.5t24.5 55.5t-23.5 57t-68.5 23h-50z" />
<glyph horiz-adv-x="654" d="M362 0v116h-314v110l334 474h140v-434h85v-150h-85v-116h-160zM362 474l-147 -208h147v208z" />
<glyph horiz-adv-x="647" d="M272 556l-16 -104q22 10 44.5 15t50.5 5q54 0 97 -19t73 -51.5t46 -75.5t16 -90q0 -50 -18 -94t-52 -77.5t-84 -53t-113 -19.5q-86 0 -151.5 37t-101.5 111l132 72q19 -34 45.5 -53t66.5 -19q49 0 75.5 27t26.5 69q0 43 -28 70.5t-82 27.5q-29 0 -56 -8.5t-53 -22.5 l-90 34l54 363h392v-144h-274z" />
<glyph horiz-adv-x="644" d="M419 230q0 41 -25 67.5t-72 26.5t-72 -26.5t-25 -67.5t25 -68t72 -27t72 27t25 68zM332 455q11 2 23 1.5t23 -2.5q41 -6 77.5 -23.5t63.5 -45.5t43 -66t16 -86q0 -49 -17 -93t-50 -77t-80.5 -52t-108.5 -19t-108.5 19.5t-80.5 52t-50 75.5t-17 91q0 32 10.5 67.5 t41.5 86.5l191 316h177l-131 -211q-10 -16 -14.5 -22t-9.5 -10z" />
<glyph horiz-adv-x="640" d="M109 0l265 556h-299v144h490v-85l-284 -615h-172z" />
<glyph horiz-adv-x="644" d="M475 374q48 -27 73.5 -70.5t25.5 -97.5q0 -44 -17.5 -83t-50.5 -68t-79.5 -46t-104.5 -17t-104.5 17t-79.5 46t-50.5 68t-17.5 83q0 54 25.5 97.5t73.5 70.5q-43 26 -61 61.5t-18 75.5q0 39 16 75t46 63t73 43t97 16t97 -16t73 -43t46 -63t16 -75q0 -40 -18 -75.5 t-61 -61.5zM410 210q0 33 -23 58t-65 25t-65 -25t-23 -58q0 -34 23 -58.5t65 -24.5t65 24.5t23 58.5zM400 502q0 29 -20.5 52t-57.5 23t-57.5 -23t-20.5 -52q0 -28 19 -50.5t59 -22.5t59 22.5t19 50.5z" />
<glyph horiz-adv-x="644" d="M419 470q0 41 -25 68t-72 27t-72 -27t-25 -68t25 -67.5t72 -26.5t72 26.5t25 67.5zM158 0l131 211q10 16 14.5 22t9.5 10l-1 2q-11 -2 -23 -1.5t-23 2.5q-41 6 -77.5 23.5t-63.5 45.5t-43 66t-16 86q0 49 17 93t50 77t80.5 52t108.5 19t108.5 -19.5t80.5 -52t50 -75.5 t17 -91q0 -32 -10.5 -67.5t-41.5 -86.5l-191 -316h-177z" />
<glyph horiz-adv-x="447" d="M59 0v504h379v-129h-218v-375h-161zM148 566l73 192h181l-150 -192h-104z" />
<glyph horiz-adv-x="1040" d="M722 -84q25 5 44.5 13.5t33 22.5t21 35.5t7.5 53.5v333h-211v-374h-161v374h-211v-374h-161v374h-59v130h59v36q0 46 14 81.5t39 59t60 35.5t76 12q36 0 73 -6t71 -17l-33 -121q-47 12 -84 12q-30 0 -42.5 -15.5t-12.5 -41.5v-35h211v36q0 46 14 81.5t39 59t60 35.5 t76 12q59 0 114 -23l-33 -121q-29 12 -54 12q-30 0 -42.5 -15.5t-12.5 -41.5v-35h372v-452q0 -62 -17 -108t-47 -78.5t-72 -51.5t-93 -26zM999 645q0 -38 -26.5 -64t-64.5 -26t-64 26t-26 64t26 64.5t64 26.5t64.5 -26.5t26.5 -64.5z" />
<glyph horiz-adv-x="668" d="M350 -84q25 5 44.5 13.5t33 22.5t21 35.5t7.5 53.5v333h-211v-374h-161v374h-59v130h59v36q0 46 14 81.5t39 59t60 35.5t76 12q59 0 114 -23l-33 -121q-29 12 -54 12q-30 0 -42.5 -15.5t-12.5 -41.5v-35h372v-452q0 -62 -17 -108t-47 -78.5t-72 -51.5t-93 -26zM627 645 q0 -38 -26.5 -64t-64.5 -26t-64 26t-26 64t26 64.5t64 26.5t64.5 -26.5t26.5 -64.5z" />
<glyph horiz-adv-x="388" d="M49 257v140h290v-140h-290z" />
<glyph horiz-adv-x="573" d="M49 257v140h475v-140h-475z" />
<glyph horiz-adv-x="759" d="M49 257v140h661v-140h-661z" />
</font>
</defs>
</svg>
