<svg xmlns="http://www.w3.org/2000/svg" viewBox="30 38 135 102" width="540" height="408"><g fill-rule="evenodd" clip-rule="evenodd"><path d="M119.324 87.286c0-34.256-19.373-45.628-47.032-45.628-13.758 0-26.674.422-34.115.843v94.345c9.547.561 19.795.842 30.045.842 30.745 0 51.102-17.971 51.102-50.402zm-28.219 2.106c0 17.69-9.125 25.692-20.778 25.692-3.088 0-4.913-.141-6.036-.42V63.981c1.965-.281 3.509-.281 6.598-.281 17.408 0 20.216 10.95 20.216 25.692z" fill="#1a1a1a"/><path d="M154.936 136.984V42.501h-25.551v94.483h25.551z" fill="#1a1a1a"/></g></svg>