<svg width="56" height="56" viewBox="0 0 56 56" fill="none" xmlns="http://www.w3.org/2000/svg">
<rect width="56" height="56" rx="28" fill="#fdf6ee"/>
<path fill-rule="evenodd" clip-rule="evenodd" d="M24.8355 14.8764L26.7522 14.3628C27.1355 14.2593 27.5298 14.4873 27.6324 14.8712C27.7349 15.2545 27.5078 15.6484 27.124 15.7514L25.2073 16.2646C25.145 16.2818 25.0827 16.2895 25.0209 16.2895C24.7037 16.2895 24.4133 16.0777 24.3271 15.7566C24.2245 15.3733 24.4522 14.979 24.8355 14.8764ZM32.3483 19.5603L30.1164 11.229L20.3965 13.8333L22.6289 22.1645L32.3483 19.5603Z" fill="#512B2B"/>
<path fill-rule="evenodd" clip-rule="evenodd" d="M33.4866 24.4639L29.6532 25.4912C29.5905 25.508 29.5282 25.5157 29.4664 25.5157C29.1492 25.5157 28.8588 25.3039 28.7725 24.9828C28.67 24.5995 28.8976 24.2052 29.2809 24.1026L33.1143 23.0758C33.4995 22.9723 33.892 23.1999 33.995 23.5837C34.097 23.967 33.8699 24.3614 33.4866 24.4639ZM38.2744 19.4604L23.001 23.553L25.3187 32.2034C27.7419 32.3012 29.9125 33.6136 31.1473 35.618L41.8365 32.7535L38.2744 19.4604Z" fill="#512B2B"/>
<path fill-rule="evenodd" clip-rule="evenodd" d="M40.7948 34.4203L31.752 36.8439C31.8353 37.0643 31.911 37.2881 31.9733 37.5191C32.0366 37.7558 32.0869 37.9934 32.1257 38.2316L41.1671 35.8089C41.5504 35.7064 41.778 35.312 41.6755 34.9287C41.5725 34.5449 41.1805 34.3201 40.7948 34.4203Z" fill="#512B2B"/>
<path fill-rule="evenodd" clip-rule="evenodd" d="M23.171 32.4369C23.4034 32.3746 23.6391 32.3277 23.8754 32.2889L20.6419 20.222C20.2658 18.818 18.8168 17.9814 17.4143 18.3585L14.637 19.1027C14.2537 19.2052 14.0266 19.5991 14.1291 19.9829C14.2317 20.3667 14.626 20.5953 15.0093 20.4908L17.7866 19.7472C18.4229 19.5766 19.0823 19.9561 19.2538 20.5943L22.4863 32.6583C22.7086 32.574 22.9367 32.4997 23.171 32.4369Z" fill="#512B2B"/>
<path fill-rule="evenodd" clip-rule="evenodd" d="M22.7171 39.9999C22.375 38.7238 23.1348 37.4078 24.4112 37.0656C25.6868 36.7239 27.0027 37.4837 27.3449 38.7593C27.6867 40.0358 26.9269 41.3518 25.6509 41.6936C24.3748 42.0354 23.0589 41.2755 22.7171 39.9999ZM19.4768 40.8682C20.2976 43.9305 23.4562 45.7547 26.5191 44.9339C29.5819 44.1131 31.4056 40.9539 30.5848 37.8916C29.7645 34.8292 26.6053 33.005 23.5425 33.8254C20.4801 34.6462 18.6564 37.8053 19.4768 40.8682Z" fill="#512B2B"/>
</svg>
