<svg width="40" height="40" viewBox="0 0 40 40" fill="none" xmlns="http://www.w3.org/2000/svg">
<rect width="40" height="40" rx="20" fill="#fdf6ee"/>
<path fill-rule="evenodd" clip-rule="evenodd" d="M28.8983 26.8452L28.556 28.2142H21.3685V26.8452H28.8983ZM25.7734 19.1076L25.8305 19.1129C25.8871 19.1166 25.9425 19.1158 25.9965 19.1108L26.0268 19.1072L26.0817 19.1459C26.9371 19.7015 27.6538 19.8477 28.7353 19.7884L27.5292 25.8184H21.3685V22.0528L21.3966 22.0321C21.7556 21.7507 21.9993 21.3289 22.0452 20.8493L22.0514 20.7587L22.053 20.6845C22.053 19.7642 21.3266 19.0136 20.4159 18.9747L20.3417 18.9732H19.6572C19.2791 18.9732 18.9727 18.6667 18.9727 18.2886C18.9727 17.9106 19.2791 17.6041 19.6572 17.6041L23.1644 17.6045C23.7248 18.4373 24.6579 18.9755 25.7734 19.1076Z" fill="#512B2B"/>
<path d="M22.3555 14.9277C21.0654 12.7298 21.2491 10.1751 23.1428 9.09973C23.9318 8.65164 24.7452 8.60362 25.1097 9.22449C24.7452 8.60362 24.8786 8.11395 25.9833 7.48665C26.9301 6.94895 29.9594 7.09131 31.1438 9.10915C31.8727 10.3509 32.0126 11.3062 31.9703 11.9511C30.7013 11.223 28.2789 10.3222 27.8055 10.591C27.3321 10.8598 27.4476 11.4151 27.8543 11.3911C28.261 11.3671 32.5592 12.2375 32.6748 12.7928C32.7903 13.3481 32.8635 14.5482 32.6634 15.2827C32.2502 13.8618 29.6699 13.0505 29.2632 13.0745C28.8565 13.0985 28.7898 13.3434 29.1298 13.5642C29.2047 13.6128 29.3729 13.6987 29.5981 13.8139C30.3959 14.2215 31.9097 14.995 32.5301 15.7724C32.5485 16.0745 32.3384 16.4474 32.1126 16.8482C31.7405 17.5088 31.3256 18.2452 31.8208 18.8656C30.873 18.5561 30.0674 18.6374 29.3106 18.7138C28.4047 18.8053 27.5687 18.8897 26.6424 18.2881C26.1869 17.512 26.8294 14.6636 26.9628 14.1739C27.0962 13.6842 26.914 13.3738 26.4406 13.6426C25.9671 13.9115 25.0757 16.6943 25.8956 18.0913C24.9911 17.9841 24.3111 17.5424 23.9466 16.9215C23.5822 16.3007 24.6315 13.4283 25.0138 13.0042C25.3961 12.5801 24.9649 12.2041 24.6493 12.3833C23.5447 13.0106 23.1689 14.8797 23.4244 16.3903C22.9933 16.0142 22.7199 15.5486 22.3555 14.9277Z" fill="#512B2B"/>
<path d="M22.2006 8.48575C22.0082 7.72905 20.7747 7.35277 19.5404 7.35499C18.3003 7.35721 17.2733 8.11139 16.7571 9.3934C17.6844 9.4306 18.309 9.75247 18.6309 10.0744C18.9732 10.4166 18.6309 10.93 18.2886 10.7589C17.9606 10.5949 17.0039 10.4309 16.473 10.5681L16.4513 10.5743L16.4322 10.7336C16.4091 10.9482 16.3969 11.1711 16.3965 11.4019C16.3947 12.4258 16.5473 13.2565 16.7264 13.9582L16.7905 14.2007L16.8555 14.433L17.0727 15.1757L17.1266 15.3704C17.2204 15.7211 17.2844 16.0383 17.2838 16.3395L17.4114 16.2137L17.5971 16.0394C18.2675 15.4314 18.8437 15.1593 19.8985 15.0497L20.0956 15.0315C20.1632 15.026 20.2327 15.0211 20.3041 15.0167L20.5247 15.005L20.7581 14.9962L21.0052 14.99L21.2209 14.987C20.0052 12.5522 20.3156 9.87945 22.2006 8.48575Z" fill="#512B2B"/>
<path d="M9.01371 16.3848C8.73018 15.8937 8.89843 15.2657 9.38954 14.9822C9.88066 14.6986 10.5086 14.8669 10.7922 15.358L12.8789 18.9728H10.5081L9.01371 16.3848Z" fill="#512B2B"/>
<path d="M8.70508 20.6845C8.70508 20.3064 9.01154 19.9999 9.3896 19.9999H20.342C20.72 19.9999 21.0265 20.3064 21.0265 20.6845C21.0265 21.0625 20.72 21.369 20.342 21.369V30.9523C20.342 31.7084 19.729 32.3214 18.9729 32.3214H10.7586C10.0026 32.3214 9.3896 31.7084 9.3896 30.9523V22.3958L9.44994 22.3975C9.98894 22.4287 10.4164 22.8757 10.4164 23.4226V25.8184L10.4181 25.8787C10.4493 26.4177 10.8963 26.8452 11.4432 26.8452C11.99 26.8452 12.437 26.4177 12.4682 25.8787L12.47 25.8184V23.4226L12.4723 23.3827C12.492 23.2124 12.6367 23.0803 12.8122 23.0803C13.0013 23.0803 13.1545 23.2335 13.1545 23.4226V24.4493L13.1564 24.5004C13.1825 24.8546 13.4781 25.1339 13.839 25.1339C14.1999 25.1339 14.4955 24.8546 14.5216 24.5004L14.5235 24.4493V22.738L14.5252 22.6697C14.5608 21.9454 15.1594 21.369 15.8926 21.369H9.3896C9.01154 21.369 8.70508 21.0625 8.70508 20.6845Z" fill="#512B2B"/>
</svg>
