<svg width="40" height="37" viewBox="0 0 40 37" fill="none" xmlns="http://www.w3.org/2000/svg">
<g id="Group 3110">
<path id="Vector 77" d="M36.6243 20.0644H6.3805C5.66748 20.0644 5.15655 19.4119 5.40104 18.7421C6.57633 15.5222 10.5911 7.53662 21.5024 7.53662C32.4138 7.53662 36.4285 15.5222 37.6038 18.7421C37.8483 19.4119 37.3374 20.0644 36.6243 20.0644Z" fill="#D299F4"/>
<path id="Vector 77 (Stroke)" fill-rule="evenodd" clip-rule="evenodd" d="M3.83553 18.1703C5.09535 14.7188 9.52626 5.86963 21.5025 5.86963C33.4788 5.86963 37.9097 14.7188 39.1695 18.1703L37.6039 18.7418L39.1695 18.1703C39.8583 20.0572 38.3532 21.7307 36.6245 21.7307H6.38062C4.65184 21.7307 3.14679 20.0572 3.83553 18.1703ZM7.33221 18.3974H35.6729C34.2364 15.0808 30.4477 9.20296 21.5025 9.20296C12.5574 9.20296 8.76867 15.0808 7.33221 18.3974Z" fill="#D299F4"/>
<path id="Vector 76 (Stroke)" fill-rule="evenodd" clip-rule="evenodd" d="M0.418779 14.7538C1.67861 11.3023 6.10951 2.45312 18.0858 2.45312C30.0621 2.45312 34.493 11.3023 35.7528 14.7538C36.4415 16.6407 34.9365 18.3142 33.2077 18.3142H2.96387C1.23509 18.3142 -0.269955 16.6407 0.418779 14.7538ZM3.91546 14.9809H32.2561C30.8197 11.6643 27.031 5.78646 18.0858 5.78646C9.14061 5.78646 5.35192 11.6643 3.91546 14.9809Z" fill="#214766"/>
<path id="Line 11 (Stroke)" fill-rule="evenodd" clip-rule="evenodd" d="M16.4191 17.7865C16.4191 17.7863 16.4191 17.7863 18.0858 17.7863C19.7524 17.7863 19.7524 17.7863 19.7524 17.7865L19.7524 32.4875C19.7524 33.1493 19.4828 34.1817 18.8126 35.0758C18.0723 36.0634 16.8376 36.8822 15.0518 36.8822C13.0098 36.8822 11.8012 35.5656 11.1955 34.5561C10.8877 34.0432 10.6901 33.5447 10.5694 33.1827C10.5081 32.9988 10.4642 32.8425 10.4345 32.727C10.4196 32.6691 10.4082 32.6209 10.3998 32.5841C10.3956 32.5657 10.3922 32.55 10.3895 32.5373L10.386 32.5206L10.3846 32.5139L10.384 32.511L10.3838 32.5097C10.3837 32.5091 10.3835 32.5084 12.0178 32.1816L10.3835 32.5084C10.203 31.6058 10.7884 30.7278 11.691 30.5473C12.5932 30.3668 13.4708 30.9516 13.6519 31.8535L13.6512 31.8503L13.6506 31.847L13.6498 31.8432C13.6498 31.8432 13.6499 31.8441 13.6506 31.847C13.6523 31.8546 13.6564 31.8718 13.6628 31.8969C13.6758 31.9473 13.6982 32.0281 13.7317 32.1286C13.8007 32.3355 13.9064 32.5955 14.0538 32.8411C14.3582 33.3485 14.6666 33.5489 15.0518 33.5489C15.406 33.5489 15.6308 33.4736 15.7754 33.3977C15.9246 33.3194 16.0451 33.2103 16.1454 33.0765C16.2491 32.9381 16.3245 32.7813 16.3722 32.6384C16.4091 32.528 16.4175 32.4633 16.4191 32.4569L16.4191 17.7865ZM18.0858 16.1196C19.0062 16.1196 19.7524 16.866 19.7524 17.7865L18.0858 17.7863L16.4191 17.7865C16.4191 16.866 17.1653 16.1196 18.0858 16.1196Z" fill="#214766"/>
<path id="Line 12 (Stroke)" fill-rule="evenodd" clip-rule="evenodd" d="M18.0859 0.175293C19.0064 0.175374 19.7525 0.921631 19.7524 1.84211L18.0858 1.84196L16.4191 1.84181C16.4192 0.921339 17.1654 0.175212 18.0859 0.175293ZM18.0858 1.84196L16.4191 1.84181L16.4191 2.87653C16.4191 3.797 17.1653 4.54319 18.0857 4.54319C19.0062 4.54319 19.7524 3.797 19.7524 2.87653L19.7524 1.84211L18.0858 1.84196Z" fill="#214766"/>
</g>
</svg>
