<svg width="56" height="56" viewBox="0 0 56 56" fill="none" xmlns="http://www.w3.org/2000/svg">
<rect width="56" height="56" rx="28" fill="#fdf6ee"/>
<path fill-rule="evenodd" clip-rule="evenodd" d="M40.4583 37.5835L39.9792 39.5002H29.9167V37.5835H40.4583ZM36.0835 26.7509L36.1634 26.7583C36.2427 26.7635 36.3203 26.7624 36.3958 26.7553L36.4383 26.7503L36.5152 26.8045C37.7128 27.5823 38.7161 27.787 40.2302 27.704L38.5417 36.146H29.9167V30.8742L29.956 30.8452C30.4586 30.4512 30.7999 29.8606 30.864 29.1892L30.8728 29.0624L30.875 28.9585C30.875 27.6701 29.8581 26.6193 28.5831 26.5649L28.4792 26.5627H27.5208C26.9915 26.5627 26.5625 26.1336 26.5625 25.6043C26.5625 25.075 26.9915 24.646 27.5208 24.646L32.4309 24.6466C33.2155 25.8125 34.5218 26.5659 36.0835 26.7509Z" fill="#512B2B"/>
<path d="M31.2981 20.8987C29.4919 17.8216 29.7491 14.2451 32.4003 12.7395C33.5049 12.1122 34.6437 12.045 35.1539 12.9142C34.6437 12.045 34.8305 11.3594 36.377 10.4812C37.7025 9.72843 41.9435 9.92773 43.6017 12.7527C44.6221 14.4912 44.818 15.8286 44.7588 16.7315C42.9822 15.7121 39.5908 14.4509 38.928 14.8273C38.2653 15.2037 38.427 15.9811 38.9964 15.9475C39.5658 15.9139 45.5833 17.1324 45.7451 17.9098C45.9068 18.6872 46.0093 20.3674 45.7292 21.3957C45.1507 19.4064 41.5383 18.2706 40.9689 18.3042C40.3995 18.3378 40.3061 18.6806 40.7821 18.9898C40.8869 19.0578 41.1224 19.1781 41.4378 19.3393C42.5547 19.91 44.6739 20.9929 45.5425 22.0813C45.5682 22.5042 45.2742 23.0262 44.9581 23.5873C44.4371 24.5122 43.8563 25.5431 44.5495 26.4118C43.2226 25.9785 42.0948 26.0923 41.0353 26.1992C39.767 26.3273 38.5966 26.4454 37.2997 25.6032C36.662 24.5167 37.5616 20.5289 37.7483 19.8434C37.9351 19.1578 37.68 18.7232 37.0172 19.0996C36.3544 19.476 35.1064 23.3719 36.2543 25.3277C34.988 25.1776 34.0359 24.5593 33.5257 23.6901C33.0155 22.8209 34.4844 18.7995 35.0197 18.2058C35.5549 17.6121 34.9513 17.0856 34.5095 17.3366C32.963 18.2148 32.4369 20.8315 32.7945 22.9463C32.191 22.4198 31.8083 21.7679 31.2981 20.8987Z" fill="#512B2B"/>
<path d="M31.0809 11.88C30.8115 10.8206 29.0846 10.2938 27.3566 10.2969C25.6205 10.3 24.1827 11.3558 23.4599 13.1507C24.7582 13.2027 25.6326 13.6534 26.0832 14.104C26.5624 14.5832 26.0832 15.3019 25.6041 15.0623C25.1449 14.8327 23.8055 14.6032 23.0621 14.7953L23.0318 14.8039L23.0051 15.027C22.9727 15.3274 22.9557 15.6395 22.9551 15.9625C22.9526 17.3961 23.1662 18.5591 23.4169 19.5415L23.5067 19.8808L23.5978 20.2061L23.9018 21.2459L23.9773 21.5185C24.1086 22.0094 24.1981 22.4535 24.1973 22.8752L24.376 22.699L24.6359 22.4551C25.5746 21.6039 26.3811 21.2229 27.8578 21.0694L28.1339 21.044C28.2285 21.0363 28.3257 21.0294 28.4258 21.0232L28.7346 21.0068L29.0614 20.9945L29.4072 20.9859L29.7093 20.9817C28.0072 17.573 28.4419 13.8311 31.0809 11.88Z" fill="#512B2B"/>
<path d="M12.6196 22.9387C12.2226 22.2512 12.4582 21.372 13.1458 20.975C13.8333 20.5781 14.7124 20.8137 15.1094 21.5012L18.0309 26.5619H14.7117L12.6196 22.9387Z" fill="#512B2B"/>
<path d="M12.1875 28.9583C12.1875 28.429 12.6165 28 13.1458 28H28.4792C29.0085 28 29.4375 28.429 29.4375 28.9583C29.4375 29.4876 29.0085 29.9167 28.4792 29.9167V43.3333C28.4792 44.3919 27.621 45.25 26.5625 45.25H15.0625C14.004 45.25 13.1458 44.3919 13.1458 43.3333V31.3542L13.2303 31.3566C13.9849 31.4003 14.5833 32.0261 14.5833 32.7917V36.1458L14.5858 36.2303C14.6295 36.9849 15.2553 37.5833 16.0208 37.5833C16.7864 37.5833 17.4122 36.9849 17.4559 36.2303L17.4583 36.1458V32.7917L17.4615 32.7358C17.4892 32.4975 17.6918 32.3125 17.9375 32.3125C18.2021 32.3125 18.4167 32.527 18.4167 32.7917V34.2292L18.4193 34.3007C18.4559 34.7965 18.8698 35.1875 19.375 35.1875C19.8802 35.1875 20.2941 34.7965 20.3307 34.3007L20.3333 34.2292V31.8333L20.3357 31.7377C20.3855 30.7236 21.2235 29.9167 22.25 29.9167H13.1458C12.6165 29.9167 12.1875 29.4876 12.1875 28.9583Z" fill="#512B2B"/>
</svg>
