<svg width="56" height="56" viewBox="0 0 56 56" fill="none" xmlns="http://www.w3.org/2000/svg">
<rect width="56" height="56" rx="28" fill="#fdf6ee"/>
<path fill-rule="evenodd" clip-rule="evenodd" d="M30.518 43.3971C30.1812 44.3377 29.3014 45.0104 28.2626 45.0104C27.2608 45.0104 26.4071 44.3849 26.0453 43.4968L26.0071 43.3971H30.518ZM31.3542 40.9375V42.375H25.125V40.9375H31.3542ZM31.3542 38.5417V39.9792H25.125V38.5417H31.3542ZM28.2396 16.9792C32.9747 16.9844 36.8229 20.8849 36.8224 25.6214C36.8224 27.8231 35.7405 29.6775 34.608 31.3908L34.2593 31.9176C32.6638 34.3502 32.1394 35.5632 31.9665 36.6902C31.8962 37.1518 31.5175 37.4961 31.0586 37.5311L30.9814 37.534H25.5069C25.0143 37.534 24.5965 37.178 24.5217 36.6906L24.4945 36.529C24.2959 35.4458 23.7467 34.2348 22.227 31.9176L21.9917 31.5616C20.8187 29.7997 19.6611 27.8352 19.6611 25.5591C19.6611 20.8235 23.5049 16.9844 28.2396 16.9792ZM28.9583 19.375L24.6458 28H27.5208V35.1875L31.8333 26.5625L28.9583 26.562V19.375ZM42.1354 26.5625C42.5322 26.5625 42.8542 26.884 42.8542 27.2812C42.8542 27.6551 42.5689 27.9619 42.2046 27.9967L42.1354 28H39.2604C38.8637 28 38.5417 27.6785 38.5417 27.2812C38.5417 26.9074 38.8269 26.6006 39.1912 26.5658L39.2604 26.5625H42.1354ZM17.2188 26.5625C17.616 26.5625 17.9375 26.884 17.9375 27.2812C17.9375 27.6551 17.6527 27.9619 17.288 27.9967L17.2188 28H14.3438C13.9465 28 13.625 27.6785 13.625 27.2812C13.625 26.9074 13.9098 26.6006 14.2745 26.5658L14.3438 26.5625H17.2188ZM40.3545 16.0676C40.6177 16.3309 40.6341 16.7474 40.4038 17.0294L40.3545 17.0839L38.3213 19.1165C38.1809 19.2569 37.997 19.3274 37.813 19.3274C37.6294 19.3274 37.4454 19.2569 37.305 19.1165C37.0418 18.8533 37.0253 18.4372 37.2557 18.1549L37.305 18.1002L39.3381 16.0676C39.6189 15.7868 40.0737 15.7868 40.3545 16.0676ZM17.0531 16.0183L17.1077 16.0677L19.1408 18.1003C19.4216 18.3806 19.4216 18.8358 19.1408 19.1166C19.0009 19.257 18.8164 19.3275 18.6324 19.3275C18.4718 19.3275 18.3109 19.2736 18.1791 19.166L18.1245 19.1166L16.0914 17.084C15.8106 16.8032 15.8106 16.3485 16.0914 16.0677C16.3541 15.8044 16.7707 15.788 17.0531 16.0183ZM28.2396 10.75C28.613 10.75 28.9202 11.0348 28.955 11.3995L28.9583 11.4688V14.3438C28.9583 14.741 28.6363 15.0625 28.2396 15.0625C27.8657 15.0625 27.5589 14.7777 27.5241 14.413L27.5208 14.3438V11.4688C27.5208 11.0715 27.8424 10.75 28.2396 10.75Z" fill="#512B2B"/>
</svg>
