<svg width="46" height="46" viewBox="0 0 46 46" fill="none" xmlns="http://www.w3.org/2000/svg">
<path fill-rule="evenodd" clip-rule="evenodd" d="M25.518 38.3971C25.1812 39.3377 24.3014 40.0104 23.2626 40.0104C22.2608 40.0104 21.4071 39.3849 21.0453 38.4968L21.0071 38.3971H25.518ZM26.3542 35.9375V37.375H20.125V35.9375H26.3542ZM26.3542 33.5417V34.9792H20.125V33.5417H26.3542ZM23.2396 11.9792C27.9747 11.9844 31.8229 15.8849 31.8224 20.6214C31.8224 22.8231 30.7405 24.6775 29.608 26.3908L29.2593 26.9176C27.6638 29.3502 27.1394 30.5632 26.9665 31.6902C26.8962 32.1518 26.5175 32.4961 26.0586 32.5311L25.9814 32.534H20.5069C20.0143 32.534 19.5965 32.178 19.5217 31.6906L19.4945 31.529C19.2959 30.4458 18.7467 29.2348 17.227 26.9176L16.9917 26.5616C15.8187 24.7997 14.6611 22.8352 14.6611 20.5591C14.6611 15.8235 18.5049 11.9844 23.2396 11.9792ZM23.9583 14.375L19.6458 23H22.5208V30.1875L26.8333 21.5625L23.9583 21.562V14.375ZM37.1354 21.5625C37.5322 21.5625 37.8542 21.884 37.8542 22.2812C37.8542 22.6551 37.5689 22.9619 37.2046 22.9967L37.1354 23H34.2604C33.8637 23 33.5417 22.6785 33.5417 22.2812C33.5417 21.9074 33.8269 21.6006 34.1912 21.5658L34.2604 21.5625H37.1354ZM12.2188 21.5625C12.616 21.5625 12.9375 21.884 12.9375 22.2812C12.9375 22.6551 12.6527 22.9619 12.288 22.9967L12.2188 23H9.34375C8.94652 23 8.625 22.6785 8.625 22.2812C8.625 21.9074 8.90982 21.6006 9.27451 21.5658L9.34375 21.5625H12.2188ZM35.3545 11.0676C35.6177 11.3309 35.6341 11.7474 35.4038 12.0294L35.3545 12.0839L33.3213 14.1165C33.1809 14.2569 32.997 14.3274 32.813 14.3274C32.6294 14.3274 32.4454 14.2569 32.305 14.1165C32.0418 13.8533 32.0253 13.4372 32.2557 13.1549L32.305 13.1002L34.3381 11.0676C34.6189 10.7868 35.0737 10.7868 35.3545 11.0676ZM12.0531 11.0183L12.1077 11.0677L14.1408 13.1003C14.4216 13.3806 14.4216 13.8358 14.1408 14.1166C14.0009 14.257 13.8164 14.3275 13.6324 14.3275C13.4718 14.3275 13.3109 14.2736 13.1791 14.166L13.1245 14.1166L11.0914 12.084C10.8106 11.8032 10.8106 11.3485 11.0914 11.0677C11.3541 10.8044 11.7707 10.788 12.0531 11.0183ZM23.2396 5.75C23.613 5.75 23.9202 6.03482 23.955 6.39951L23.9583 6.46875V9.34375C23.9583 9.74098 23.6363 10.0625 23.2396 10.0625C22.8657 10.0625 22.5589 9.77768 22.5241 9.41299L22.5208 9.34375V6.46875C22.5208 6.07152 22.8424 5.75 23.2396 5.75Z" fill="#512B2B"/>
</svg>
