<?xml version="1.0" standalone="no"?>
<!DOCTYPE svg PUBLIC "-//W3C//DTD SVG 1.1//EN" "http://www.w3.org/Graphics/SVG/1.1/DTD/svg11.dtd" >
<svg>
<metadata>
Created by FontForge 20120731 at Mon Jul  1 11:53:24 2019
 By www
Copyright (c) 2012 by Dino dos santos. All rights reserved.
</metadata>
<defs>
<font id="PrumoDeckW00-Black" horiz-adv-x="650" >
  <font-face 
    font-family="PrumoDeckW00-Black"
    font-weight="500"
    font-stretch="normal"
    units-per-em="1000"
    panose-1="1 0 0 0 0 0 0 0 0 0"
    ascent="800"
    descent="-200"
    x-height="500"
    cap-height="700"
    bbox="-132 -359 1129 960"
    underline-thickness="50"
    underline-position="-125"
    unicode-range="U+0020-FB02"
  />
<missing-glyph horiz-adv-x="500" 
 />
    <glyph glyph-name="uniFB01" unicode="fi" horiz-adv-x="633" 
d="M617 33v-33h-280v33h45v435h-125v-435h45v-33h-280v33h45v435h-45v32h45v14q0 39 13 81t45.5 76.5t86.5 56.5t136 22q67 0 111.5 -11.5t70.5 -30t36.5 -40.5t10.5 -43q0 -43 -30 -69t-75 -26q-56 0 -83.5 25t-27.5 67q0 9 3 21.5t11 25t21.5 23.5t34.5 17q-14 6 -31 10
t-38 4q-30 0 -50.5 -9t-32.5 -25t-17 -38.5t-5 -49.5v-101h315v-467h45z" />
    <glyph glyph-name="uniFB02" unicode="fl" horiz-adv-x="635" 
d="M617 33v-33h-280v33h45v660q-13 4 -24.5 5.5t-19.5 1.5q-48 0 -64.5 -22t-16.5 -77v-101h85v-32h-85v-435h47v-33h-282v33h45v435h-45v32h45v14q0 39 10 78t38.5 69.5t79.5 49.5t133 19q31 0 66.5 -7t66.5 -16l91 13h20v-687h45z" />
    <glyph glyph-name="f_f.liga" unicode="ff" horiz-adv-x="724" 
d="M439 544q0 39 14 73t42 59t70 39.5t98 14.5q69 0 102.5 -26t33.5 -64t-22.5 -56.5t-51.5 -18.5q-28 0 -51 14.5t-23 52.5q0 16 11.5 37.5t42.5 30.5q-5 3 -13.5 5.5t-18.5 2.5q-29 0 -36.5 -21t-7.5 -48v-139h85v-32h-85v-435h85v-33h-320v33h45v435h-182v-435h85v-33
h-320v33h45v435h-45v32h45v44q0 39 13.5 73t41.5 59t70 39.5t98 14.5q70 0 103.5 -26t33.5 -64t-23 -56.5t-52 -18.5q-27 0 -50 14.5t-23 52.5q0 16 11.5 37.5t42.5 30.5q-6 3 -14 5.5t-19 2.5q-29 0 -36 -21t-7 -48v-139h182v44z" />
    <glyph glyph-name="f_f_i.liga" unicode="ffi" horiz-adv-x="1005" 
d="M989 0h-280v33h45v435h-125v-435h45v-33h-280v33h45v435h-182v-435h85v-33h-320v33h45v435h-45v32h45v44q0 39 13.5 73t41.5 59t70 39.5t98 14.5q70 0 103.5 -26t33.5 -64t-23 -56.5t-52 -18.5q-27 0 -50 14.5t-23 52.5q0 16 11.5 37.5t42.5 30.5q-6 3 -14 5.5t-19 2.5
q-29 0 -36 -21t-7 -48v-139h182v14q0 39 13 81t45.5 76.5t86.5 56.5t136 22q67 0 111.5 -11.5t70.5 -30t36.5 -40.5t10.5 -43q0 -43 -29.5 -69t-74.5 -26q-56 0 -84 25t-28 67q0 9 3 21.5t11 25t21.5 23.5t34.5 17q-13 6 -30.5 10t-38.5 4q-30 0 -50.5 -9t-32.5 -25
t-17 -38.5t-5 -49.5v-101h315v-467h45v-33z" />
    <glyph glyph-name="f_f_l.liga" unicode="ffl" horiz-adv-x="1007" 
d="M989 0h-280v33h45v660q-13 4 -24.5 5.5t-19.5 1.5q-48 0 -64.5 -22t-16.5 -77v-101h85v-32h-85v-435h48v-33h-283v33h45v435h-182v-435h85v-33h-320v33h45v435h-45v32h45v44q0 39 13.5 73t41.5 59t70 39.5t98 14.5q70 0 103.5 -26t33.5 -64t-23 -56.5t-52 -18.5
q-27 0 -50 14.5t-23 52.5q0 16 11.5 37.5t42.5 30.5q-6 3 -14 5.5t-19 2.5q-29 0 -36 -21t-7 -48v-139h182v14q0 39 10 78t38.5 69.5t79.5 49.5t133 19q31 0 66.5 -7t66.5 -16l91 13h20v-687h45v-33z" />
    <glyph glyph-name=".notdef" horiz-adv-x="500" 
 />
    <glyph glyph-name=".null" horiz-adv-x="0" 
 />
    <glyph glyph-name="nonmarkingreturn" horiz-adv-x="333" 
 />
    <glyph glyph-name="space" unicode=" " horiz-adv-x="250" 
 />
    <glyph glyph-name="exclam" unicode="!" horiz-adv-x="289" 
d="M128 210q-3 52 -18 108.5t-31.5 110t-30 98.5t-13.5 73q0 34 11 55.5t27.5 33.5t35.5 16.5t36 4.5t36 -4.5t35.5 -16.5t27.5 -33.5t11 -55.5q0 -28 -13.5 -73t-30 -98.5t-32 -110t-18.5 -108.5h-33zM55 73q0 -42 24.5 -62.5t65.5 -20.5t65.5 20.5t24.5 62.5t-24.5 64.5
t-65.5 22.5t-65.5 -22.5t-24.5 -64.5z" />
    <glyph glyph-name="quotedbl" unicode="&#x22;" horiz-adv-x="414" 
d="M31 595q-8 19 -5.5 39.5t13 37t28 27.5t40.5 11q22 0 40 -11t28.5 -27.5t13 -37t-5.5 -39.5l-65 -150h-22zM231 595q-8 19 -5.5 39.5t13 37t28 27.5t40.5 11q22 0 40 -11t28.5 -27.5t13 -37t-5.5 -39.5l-65 -150h-22z" />
    <glyph glyph-name="numbersign" unicode="#" horiz-adv-x="735" 
d="M492 399l-54 -98h249v-32h-266l-146 -269h-35l146 269h-115l-146 -269h-35l146 269h-189v32h206l54 98h-260v32h277l146 269h35l-146 -269h115l146 269h35l-146 -269h178v-32h-195zM457 399h-115l-54 -98h115z" />
    <glyph glyph-name="dollar" unicode="$" horiz-adv-x="628" 
d="M338 486q37 -25 81 -49.5t81.5 -55t62.5 -70.5t25 -97q0 -53 -20 -95t-56 -70.5t-87 -43.5t-113 -15l-32 1l-17 -141h-25l17 142q-37 3 -79 12.5t-87 31.5l-13 -41h-28v225h33q31 -79 73.5 -129.5t104.5 -62.5l26 222q-37 20 -77 41.5t-73.5 51t-55 69.5t-21.5 97
q0 44 16 81t48 63.5t79.5 41.5t109.5 15l28 -1l17 141h25l-17 -143q32 -4 66 -13t71 -26l23 37h24v-225h-32q-35 85 -74 130t-82 59zM335 674q-4 1 -8 1h-9q-35 0 -51 -17t-16 -49q0 -34 17.5 -59.5t46.5 -47.5zM284 25h10q53 0 79 25t26 68q0 42 -26 69t-64 50z" />
    <glyph glyph-name="percent" unicode="%" horiz-adv-x="742" 
d="M346 550q0 -72 -41.5 -114t-113.5 -42t-113.5 42t-41.5 114t41.5 114t113.5 42t113.5 -42t41.5 -114zM572 700l-420 -700h25l420 700h-25zM141 550q0 -66 9.5 -102.5t40.5 -36.5t40.5 36.5t9.5 102.5t-9.5 103t-40.5 37t-40.5 -37t-9.5 -103zM706 150q0 -72 -41.5 -114
t-113.5 -42t-113.5 42t-41.5 114t41.5 114t113.5 42t113.5 -42t41.5 -114zM501 150q0 -66 9.5 -102.5t40.5 -36.5t40.5 36.5t9.5 102.5t-9.5 103t-40.5 37t-40.5 -37t-9.5 -103z" />
    <glyph glyph-name="ampersand" unicode="&#x26;" horiz-adv-x="769" 
d="M648 333q-17 -92 -56 -163q42 -29 77 -46.5t57 -17.5q15 0 23 3v-30q-23 -45 -61 -67t-81 -22q-27 0 -61 13.5t-72 36.5q-38 -24 -83.5 -37t-98.5 -13q-59 0 -108.5 12t-85.5 35.5t-56 58.5t-20 80q0 25 9.5 50.5t30 48t51.5 40.5t73 30q-26 47 -41.5 92t-15.5 86
q0 43 16.5 77.5t44.5 59t65 37.5t78 13q94 0 142.5 -39t48.5 -101q0 -27 -7.5 -51.5t-25.5 -47t-49 -42.5t-78 -37q43 -57 97 -110t107 -94q17 34 28.5 71t17.5 74h-110v32h245v-32h-101zM337 679q-11 0 -22 -4t-20 -14t-15 -27.5t-6 -43.5q0 -39 20.5 -84.5t54.5 -93.5
q16 18 25.5 43.5t14.5 50t6.5 44t1.5 25.5q0 29 -5 49t-13.5 32t-19.5 17.5t-22 5.5zM358 38q48 0 89 21q-63 45 -126 110t-111 137q-5 -20 -7 -43t-2 -40q0 -50 13.5 -85.5t35.5 -57.5t50 -32t58 -10z" />
    <glyph glyph-name="quotesingle" unicode="'" horiz-adv-x="214" 
d="M31 595q-8 19 -5.5 39.5t13 37t28 27.5t40.5 11q22 0 40 -11t28.5 -27.5t13 -37t-5.5 -39.5l-65 -150h-22z" />
    <glyph glyph-name="parenleft" unicode="(" horiz-adv-x="325" 
d="M279 -150q-73 52 -122 114t-78.5 127t-42 131t-12.5 128q0 61 12.5 127.5t42 131.5t78.5 126.5t122 114.5h35q-34 -60 -57 -123t-37 -127t-20 -127t-6 -123q0 -121 26 -246.5t94 -253.5h-35z" />
    <glyph glyph-name="parenright" unicode=")" horiz-adv-x="324" 
d="M11 -150q68 128 94 253.5t26 246.5q0 60 -6 123t-20 127t-37 127t-57 123h35q73 -53 122 -114.5t78.5 -126.5t42 -131.5t12.5 -127.5q0 -62 -12.5 -128t-42 -131t-78.5 -127t-122 -114h-35z" />
    <glyph glyph-name="asterisk" unicode="*" horiz-adv-x="400" 
d="M248 710l-36 -132l97 96l48 -83l-132 -35l131 -36l-48 -83l-96 97l36 -132h-96l35 132l-95 -97l-48 83l131 36l-132 35l48 83l96 -96l-35 132h96z" />
    <glyph glyph-name="plus" unicode="+" horiz-adv-x="421" 
d="M380 234h-153v-154h-33v154h-154v32h154v154h33v-154h153v-32z" />
    <glyph glyph-name="comma" unicode="," horiz-adv-x="263" 
d="M53 -122q16 8 31.5 19t28.5 25t22 31t12 38q-51 1 -78.5 21.5t-27.5 61.5q0 42 24.5 65t65.5 23t65.5 -26t24.5 -67q0 -20 -5.5 -46t-22 -54t-48 -56t-82.5 -52z" />
    <glyph glyph-name="hyphen" unicode="-" horiz-adv-x="427" 
d="M43 266h340v-32h-340v32z" />
    <glyph glyph-name="period" unicode="." horiz-adv-x="263" 
d="M41 73q0 42 24.5 64.5t65.5 22.5t65.5 -22.5t24.5 -64.5t-24.5 -62.5t-65.5 -20.5t-65.5 20.5t-24.5 62.5z" />
    <glyph glyph-name="slash" unicode="/" horiz-adv-x="470" 
d="M63 0h-35l380 700h35z" />
    <glyph glyph-name="zero" unicode="0" horiz-adv-x="666" 
d="M38 350q0 81 19.5 147.5t57.5 113.5t92.5 73t125.5 26q70 0 125 -26t93 -73t57.5 -113.5t19.5 -147.5q0 -82 -19.5 -148.5t-57.5 -113.5t-93 -72.5t-125 -25.5q-71 0 -125.5 25.5t-92.5 72.5t-57.5 113.5t-19.5 148.5zM253 350q0 -49 2 -106.5t9.5 -107t23.5 -83
t45 -33.5t45.5 33.5t24 83t9 107t1.5 106.5t-1.5 106.5t-9 107t-24 83t-45.5 33.5t-45 -33.5t-23.5 -83t-9.5 -107t-2 -106.5z" />
    <glyph glyph-name="one" unicode="1" horiz-adv-x="395" 
d="M29 638v35q75 0 140 9.5t110 22.5h25v-670h75v-35h-350v35h75v603h-75z" />
    <glyph glyph-name="two" unicode="2" horiz-adv-x="610" 
d="M559 225v-225h-520v120q78 43 137 87.5t98.5 92.5t59.5 101.5t20 113.5q0 45 -10 76t-27 49.5t-41 26.5t-52 8q-14 0 -29.5 -3t-30.5 -8t-27.5 -11t-18.5 -13q23 -2 38.5 -9t25 -17.5t13.5 -23.5t4 -25q0 -32 -19.5 -54.5t-60.5 -22.5q-42 0 -63.5 22.5t-21.5 57.5
q0 25 16.5 50t47 45.5t74.5 33.5t100 13q46 0 97.5 -9t95 -33t71.5 -65.5t28 -106.5q0 -60 -37.5 -107.5t-94 -85t-122.5 -68t-122 -55.5h336l5 45h30z" />
    <glyph glyph-name="three" unicode="3" horiz-adv-x="579" 
d="M188 380q84 13 121.5 60.5t37.5 112.5q0 39 -11 62.5t-29 37t-40 18t-44 4.5q-12 0 -25 -2.5t-26 -6t-23.5 -8.5t-16.5 -10q45 -3 62 -26t17 -47q0 -32 -19.5 -54t-59.5 -22q-41 0 -62 22t-21 56q0 23 15 47t43 43t69 31t94 12t99.5 -9t80.5 -27.5t53.5 -46.5t19.5 -66
q0 -41 -20.5 -71.5t-54 -52.5t-75.5 -36.5t-85 -24.5q55 -5 102 -17t81 -34t53.5 -55.5t19.5 -81.5q0 -55 -27 -93t-68.5 -61t-92 -33.5t-96.5 -10.5q-56 0 -99.5 13t-74 33.5t-46.5 46t-16 50.5q0 35 21.5 57.5t63.5 22.5q41 0 60.5 -22.5t19.5 -55.5q0 -12 -4 -25
t-13.5 -23.5t-25 -18t-38.5 -8.5q6 -7 18.5 -13t27.5 -11t30.5 -8t29.5 -3q28 0 52 9t41 29t27 52.5t10 79.5q0 45 -11.5 76t-32 50t-49 27.5t-63.5 8.5v23z" />
    <glyph glyph-name="four" unicode="4" horiz-adv-x="595" 
d="M501 188v-153h65v-35h-330v35h65v153h-305v23l358 494h147v-485h65v-32h-65zM301 220v359l-258 -359h258z" />
    <glyph glyph-name="five" unicode="5" horiz-adv-x="573" 
d="M102 363q14 10 32 20t40.5 18t50 13.5t60.5 5.5q45 0 91 -11t83 -36.5t60.5 -66.5t23.5 -101q0 -67 -27 -109t-68.5 -65.5t-92 -32t-96.5 -8.5q-56 0 -99.5 13t-74 33.5t-46.5 46t-16 50.5q0 35 21.5 57.5t63.5 22.5q41 0 60.5 -22.5t19.5 -55.5q0 -25 -17.5 -48.5
t-63.5 -26.5q6 -7 18.5 -13t27.5 -11t30.5 -8t29.5 -3q28 0 52 7t41 26.5t27 55t10 91.5q0 90 -31 129.5t-90 39.5q-21 0 -40 -5t-35 -12.5t-28 -16t-20 -15.5l-30 6l29 369h405v-180h-388z" />
    <glyph glyph-name="six" unicode="6" horiz-adv-x="657" 
d="M254 427q20 11 49 19.5t61 8.5q52 0 98.5 -15t82 -42.5t56.5 -67.5t21 -90q0 -54 -20.5 -100t-58 -79t-90.5 -52t-118 -19q-77 0 -133 29t-93 77t-54.5 109t-17.5 125q0 94 24 165t68.5 119t108.5 72t144 24q55 0 95.5 -13t67 -33t39.5 -45t13 -49q0 -35 -21 -58t-63 -23
q-39 0 -60 21.5t-21 55.5q0 12 4 24.5t13.5 23t25.5 18t39 8.5q-16 15 -44 25.5t-57 10.5q-51 0 -82.5 -26.5t-48.5 -65t-23 -81.5t-7 -75zM252 393q0 -87 3.5 -156t13 -117.5t25.5 -74t41 -25.5q48 0 67.5 55t19.5 155q0 58 -6.5 94.5t-18.5 57.5t-29.5 28.5t-39.5 7.5
t-41 -7.5t-35 -17.5z" />
    <glyph glyph-name="seven" unicode="7" horiz-adv-x="538" 
d="M532 700v-110q-57 -48 -91.5 -107.5t-53 -124t-24.5 -131t-6 -127.5q0 -38 -13.5 -59.5t-32 -33t-38 -14.5t-31.5 -3q-17 0 -36 4.5t-35.5 16.5t-27.5 33.5t-11 55.5q0 46 26 100t68 109.5t95.5 109.5t108.5 101h-374l-4 -45h-30v225h510z" />
    <glyph glyph-name="eight" unicode="8" horiz-adv-x="628" 
d="M417 416q34 -20 66 -42t57.5 -48t41 -58.5t15.5 -72.5q0 -56 -25.5 -95t-67.5 -63.5t-95.5 -35.5t-109.5 -11q-77 0 -128 14t-81 37.5t-42.5 52.5t-12.5 59q0 32 14.5 58t38 47t53.5 37.5t61 30.5q-29 19 -56 39t-48 43.5t-33.5 51t-12.5 60.5q0 35 17 69t50.5 61
t84 43.5t117.5 16.5q58 0 102 -13t73 -34.5t44 -48.5t15 -55q0 -31 -12.5 -54t-32.5 -40t-44.5 -29t-48.5 -20zM321 680q-34 0 -56.5 -21t-22.5 -69q0 -26 11.5 -47t31.5 -39.5t45.5 -35.5t54.5 -34q5 9 10 19.5t9.5 25t7.5 35t3 49.5q0 22 -4.5 43t-15.5 37.5t-29 26.5
t-45 10zM299 20q26 0 43 9.5t27 24t14 33t4 36.5q0 31 -13.5 56.5t-35 47.5t-50 41.5t-58.5 39.5q-18 -42 -26 -86t-8 -74q0 -37 8.5 -61.5t22.5 -39.5t32.5 -21t39.5 -6z" />
    <glyph glyph-name="nine" unicode="9" horiz-adv-x="657" 
d="M403 273q-20 -11 -49 -19.5t-61 -8.5q-52 0 -98.5 14.5t-82 42.5t-56.5 68t-21 90q0 54 20.5 100t58 79t90.5 52t118 19q77 0 133 -29t93 -77t54.5 -109t17.5 -125q0 -94 -24 -165t-69 -119t-109 -72t-144 -24q-55 0 -95.5 13t-66.5 33t-39 45.5t-13 49.5q0 35 21 57.5
t63 22.5q39 0 60 -21t21 -55q0 -12 -4.5 -25t-14 -23.5t-25.5 -17.5t-39 -8q17 -16 44.5 -26.5t56.5 -10.5q52 0 83.5 26.5t48.5 65t23 81.5t7 75zM405 308q0 87 -3.5 156t-13 117t-25.5 73.5t-41 25.5q-48 0 -67.5 -55t-19.5 -155q0 -57 6.5 -93.5t18.5 -57.5t29.5 -28.5
t39.5 -7.5t41 7.5t35 17.5z" />
    <glyph glyph-name="colon" unicode=":" horiz-adv-x="283" 
d="M52 334q0 42 24.5 65t65.5 23t65.5 -23t24.5 -65t-24.5 -62.5t-65.5 -20.5t-65.5 20.5t-24.5 62.5zM52 114q0 42 24.5 65t65.5 23t65.5 -23t24.5 -65t-24.5 -62.5t-65.5 -20.5t-65.5 20.5t-24.5 62.5z" />
    <glyph glyph-name="semicolon" unicode=";" horiz-adv-x="265" 
d="M43 334q0 42 24.5 65t65.5 23t65.5 -23t24.5 -65t-24.5 -62.5t-65.5 -20.5t-65.5 20.5t-24.5 62.5zM55 -122q16 8 31.5 19t28.5 25t22 31t12 38q-51 1 -78.5 21.5t-27.5 61.5q0 42 24.5 65t65.5 23t65.5 -26t24.5 -67q0 -20 -5.5 -46t-22 -54t-48 -56t-82.5 -52z" />
    <glyph glyph-name="less" unicode="&#x3c;" horiz-adv-x="452" 
d="M45 237v25l340 104v-34l-270 -82v-2l270 -80v-34z" />
    <glyph glyph-name="equal" unicode="=" horiz-adv-x="451" 
d="M55 331h340v-32h-340v32zM55 201h340v-32h-340v32z" />
    <glyph glyph-name="greater" unicode="&#x3e;" horiz-adv-x="452" 
d="M68 134v34l270 80v2l-270 82v34l340 -104v-25z" />
    <glyph glyph-name="question" unicode="?" horiz-adv-x="593" 
d="M233 325q60 0 91 42t31 133q0 56 -10 90.5t-27 53t-41 25t-52 6.5q-14 0 -30 -3t-31 -8t-27.5 -11t-18.5 -13q46 -3 64 -26.5t18 -48.5q0 -32 -20 -54.5t-60 -22.5q-42 0 -63.5 22.5t-21.5 57.5q0 25 16 50t46.5 45.5t74 33.5t99.5 13q46 0 96.5 -7.5t92 -30t68.5 -63.5
t27 -108q0 -59 -25.5 -98t-67.5 -63t-95.5 -35t-108.5 -12l-6 -83h-32v115h13zM235 160q41 0 65.5 -22.5t24.5 -64.5t-24.5 -62.5t-65.5 -20.5t-65.5 20.5t-24.5 62.5t24.5 64.5t65.5 22.5z" />
    <glyph glyph-name="at" unicode="@" horiz-adv-x="856" 
d="M417 -120q-81 0 -149 28.5t-116.5 78.5t-76 118t-27.5 148q0 87 30.5 160.5t84.5 126.5t128 82.5t161 29.5q76 0 142.5 -23.5t116 -66.5t78.5 -103t29 -133q0 -42 -11.5 -88.5t-38.5 -85t-72.5 -64t-114.5 -25.5q-28 0 -46.5 4.5t-30 13t-16 19.5t-4.5 24v9
q-7 -21 -19.5 -35t-26.5 -21.5t-28 -10.5t-25 -3q-69 0 -103 49t-34 146q0 42 9.5 78t28 62.5t45 41t60.5 14.5q23 0 48 -7.5t45 -21.5l111 29h13v-312q0 -23 9.5 -29.5t21.5 -6.5q23 0 49 14t47.5 42t35.5 69t14 95q0 68 -27 122.5t-73 93t-106 59t-127 20.5
q-80 0 -148 -26.5t-117.5 -74.5t-77 -116t-27.5 -151q0 -76 25.5 -139t71 -108.5t107.5 -70.5t135 -25zM484 407q-18 10 -40 10q-33 0 -49 -37t-16 -122q0 -81 11.5 -119t40.5 -38q6 0 15.5 4t17.5 15t14 30t6 50v207z" />
    <glyph glyph-name="A" unicode="A" horiz-adv-x="692" 
d="M700 35v-35h-343v35h68l-53 149h-226l-49 -149h118v-35h-231v35h75l228 670h115l250 -670h48zM360 219l-103 292h-2l-97 -292h202z" />
    <glyph glyph-name="B" unicode="B" horiz-adv-x="680" 
d="M390 700q64 0 108 -14t71.5 -38.5t39.5 -57.5t12 -70q0 -62 -35.5 -104t-118.5 -55q90 -15 137 -63.5t47 -114.5q0 -39 -16.5 -72.5t-49.5 -58t-81.5 -38.5t-112.5 -14h-350v35h45v630h-45v35h349zM286 665v-287h49q37 0 56.5 30t19.5 107q0 78 -19.5 114t-56.5 36h-49z
M336 35q53 0 79 37.5t26 115.5q0 155 -105 155h-50v-308h50z" />
    <glyph glyph-name="C" unicode="C" horiz-adv-x="665" 
d="M569 33q-29 -14 -57 -22.5t-52 -13t-43.5 -6t-32.5 -1.5q-71 0 -134.5 25.5t-111.5 72.5t-76 113.5t-28 148.5t28 148.5t76 113.5t111.5 72.5t134.5 25.5q26 0 76 -7t109 -35l27 37h25v-225h-32q-22 54 -46 91.5t-49 60.5t-51 33t-52 10q-46 0 -74 -32.5t-43 -81.5
t-20 -105.5t-5 -105.5q0 -32 2 -69t7.5 -73t15.5 -69t25.5 -58.5t38 -40.5t53.5 -15q26 0 52 10t51 33t49 60.5t46 91.5h32v-225h-25z" />
    <glyph glyph-name="D" unicode="D" horiz-adv-x="770" 
d="M41 35h45v630h-45v35h340q70 0 134.5 -24.5t113.5 -69.5t78 -110t29 -146q0 -82 -29 -147t-78 -110t-113.5 -69t-134.5 -24h-340v35zM286 35h95q47 0 75 31t42.5 78t18.5 102t4 104t-4 104t-18.5 102t-42.5 78t-75 31h-95v-630z" />
    <glyph glyph-name="E" unicode="E" horiz-adv-x="633" 
d="M594 190v-190h-553v35h45v630h-45v35h543v-190h-30l-94 155h-174v-289h95l63 104h30v-242h-30l-63 103h-95v-306h184l94 155h30z" />
    <glyph glyph-name="F" unicode="F" horiz-adv-x="595" 
d="M581 700v-190h-30l-94 155h-171v-309h93l62 104h30v-242h-30l-62 103h-93v-286h82v-35h-327v35h45v630h-45v35h540z" />
    <glyph glyph-name="G" unicode="G" horiz-adv-x="689" 
d="M621 305v-315h-25l-27 43q-29 -14 -57 -22.5t-52 -13t-43.5 -6t-32.5 -1.5q-71 0 -134.5 25.5t-111.5 72.5t-76 113.5t-28 148.5t28 148.5t76 113.5t111.5 72.5t134.5 25.5q26 0 76 -7t109 -35l27 42h25v-230h-32q-22 54 -46 91.5t-49 60.5t-51 33t-52 10
q-46 0 -74 -32.5t-43 -81.5t-20 -105.5t-5 -105.5q0 -33 2 -69.5t8 -72.5t17 -69t28.5 -58.5t42.5 -40.5t59 -15q7 0 12 0.5t13 2.5v277h-57v35h285v-35h-38z" />
    <glyph glyph-name="H" unicode="H" horiz-adv-x="773" 
d="M686 665v-630h45v-35h-290v35h45v306h-200v-306h45v-35h-290v35h45v630h-45v35h290v-35h-45v-289h200v289h-45v35h290v-35h-45z" />
    <glyph glyph-name="I" unicode="I" horiz-adv-x="373" 
d="M41 665v35h290v-35h-45v-630h45v-35h-290v35h45v630h-45z" />
    <glyph glyph-name="J" unicode="J" horiz-adv-x="463" 
d="M384 176q0 -39 -15.5 -73t-45 -59t-73 -39.5t-99.5 -14.5q-70 0 -103.5 26t-33.5 64t23 56.5t52 18.5q27 0 50 -14t23 -53q0 -16 -11.5 -37.5t-42.5 -30.5q6 -2 14 -4.5t19 -2.5q29 0 36 20.5t7 47.5v584h-65v35h310v-35h-45v-489z" />
    <glyph glyph-name="K" unicode="K" horiz-adv-x="763" 
d="M41 665v35h290v-35h-45v-630h45v-35h-290v35h45v630h-45zM771 35v-35h-333v35h50l-201 292l323 338h-161v35h287v-35h-80l-206 -218l290 -412h31z" />
    <glyph glyph-name="L" unicode="L" horiz-adv-x="581" 
d="M571 190v-190h-530v35h45v630h-45v35h290v-35h-45v-630h161l94 155h30z" />
    <glyph glyph-name="M" unicode="M" horiz-adv-x="920" 
d="M414 49h-45l-233 506v-520h80v-35h-195v35h78v630h-78v35h264l196 -394h2l165 394h231v-35h-45v-630h45v-35h-290v35h45v540z" />
    <glyph glyph-name="N" unicode="N" horiz-adv-x="740" 
d="M736 700v-35h-92v-665h-115l-393 462v-427h95v-35h-210v35h78v630h-78v35h193l392 -462v427h-96v35h226z" />
    <glyph glyph-name="O" unicode="O" horiz-adv-x="777" 
d="M33 350q0 81 29 147.5t78 113.5t113 73t135 26q70 0 134.5 -26t113.5 -73t78 -113.5t29 -147.5q0 -82 -29 -148.5t-78 -113.5t-113.5 -72.5t-134.5 -25.5q-71 0 -135 25.5t-113 72.5t-78 113.5t-29 148.5zM248 350q0 -32 1.5 -69t6.5 -73t14.5 -69t25 -58.5t38 -40.5
t54.5 -15t55 15t38.5 40.5t24.5 58.5t14 69t6.5 72.5t1.5 69.5q0 49 -4 105.5t-18 105.5t-42 81.5t-76 32.5q-47 0 -75 -32.5t-42.5 -81.5t-18.5 -105.5t-4 -105.5z" />
    <glyph glyph-name="P" unicode="P" horiz-adv-x="653" 
d="M391 700q128 0 189 -56.5t61 -154.5t-61.5 -156t-188.5 -58h-105v-240h75v-35h-320v35h45v630h-45v35h350zM351 310q19 0 33.5 9t25 30t16 55t5.5 84t-5.5 84t-16 54.5t-25 29.5t-33.5 9h-65v-355h65z" />
    <glyph glyph-name="Q" unicode="Q" horiz-adv-x="779" 
d="M649 3q38 0 56.5 -23t18.5 -59q0 -28 -11 -53.5t-33.5 -45t-55.5 -31t-76 -11.5q-65 0 -111 18.5t-76 49t-45.5 70.5t-17.5 83q-56 14 -104 45t-83.5 75.5t-56 102.5t-20.5 126q0 81 29 147.5t78 113.5t113 73t135 26q70 0 134.5 -26t113.5 -73t78 -113.5t29 -147.5
q0 -69 -21 -127.5t-57.5 -103.5t-85.5 -75.5t-106 -43.5q2 -54 10.5 -90t23 -58t35 -31.5t46.5 -9.5q24 0 49.5 12.5t43.5 40.5q-51 0 -77 18.5t-26 51.5q0 32 19.5 50.5t50.5 18.5zM389 675q-47 0 -75 -32.5t-42.5 -81.5t-18.5 -105.5t-4 -105.5q0 -32 1.5 -69t6.5 -73
t14.5 -69t25 -58.5t38 -40.5t54.5 -15t55 15t38.5 40.5t24.5 58.5t14 69t6.5 72.5t1.5 69.5q0 49 -4 105.5t-18 105.5t-42 81.5t-76 32.5z" />
    <glyph glyph-name="R" unicode="R" horiz-adv-x="703" 
d="M713 35v-35h-262l-68 240q-12 43 -32 62t-58 19h-7v-286h75v-35h-320v35h45v630h-45v35h323q257 0 257 -190q0 -74 -42.5 -120.5t-133.5 -61.5q69 -8 101.5 -28t47.5 -57l73 -208h46zM331 353q19 0 33.5 7t25 25t16 48t5.5 76q0 50 -5.5 80.5t-16 47.5t-25 22.5
t-33.5 5.5h-45v-312h45z" />
    <glyph glyph-name="S" unicode="S" horiz-adv-x="618" 
d="M44 220h33q18 -45 39 -81t47 -61.5t57.5 -39t69.5 -13.5q53 0 79 25t26 68q0 41 -25.5 68t-63 49.5t-82 45t-82 52t-63 71.5t-25.5 105q0 44 16 81t48 63.5t79.5 41.5t109.5 15q40 0 88 -8t102 -34l23 37h24v-225h-32q-43 104 -92.5 149.5t-105.5 45.5q-35 0 -51 -17
t-16 -49q0 -40 25 -69.5t62.5 -54t81 -49t81 -55t62.5 -70.5t25 -97q0 -53 -20 -95t-56 -70.5t-87 -43.5t-113 -15q-42 0 -101 7.5t-122 38.5l-13 -41h-28v225z" />
    <glyph glyph-name="T" unicode="T" horiz-adv-x="599" 
d="M584 700v-190h-30l-118 155h-37v-630h85v-35h-370v35h85v630h-37l-118 -155h-30v190h570z" />
    <glyph glyph-name="U" unicode="U" horiz-adv-x="788" 
d="M714 245q0 -69 -20.5 -117.5t-61 -79t-100 -44.5t-138.5 -14t-138.5 14t-100 44.5t-61 79t-20.5 117.5v420h-45v35h290v-35h-45v-477q0 -47 8 -78.5t23 -50t37.5 -26.5t51.5 -8t51.5 8t37.5 26.5t23 50t8 78.5v477h-45v35h290v-35h-45v-420z" />
    <glyph glyph-name="V" unicode="V" horiz-adv-x="689" 
d="M404 -5h-116l-252 670h-48v35h343v-35h-68l170 -476h2l156 476h-118v35h230v-35h-74z" />
    <glyph glyph-name="W" unicode="W" horiz-adv-x="1055" 
d="M1068 700v-35h-78l-197 -670h-122l-130 406l-134 -406h-120l-249 670h-48v35h343v-35h-67l171 -467h2l84 258l-67 209h-53v35h343v-35h-68l141 -457h2l132 457h-115v35h230z" />
    <glyph glyph-name="X" unicode="X" horiz-adv-x="673" 
d="M573 665l-149 -266l187 -364h56v-35h-355v35h74l-119 232l-129 -232h119v-35h-251v35h94l149 266l-187 364h-56v35h355v-35h-74l119 -232l129 232h-119v35h251v-35h-94z" />
    <glyph glyph-name="Y" unicode="Y" horiz-adv-x="644" 
d="M655 700v-35h-65l-151 -341v-289h45v-35h-290v35h45v259l-205 371h-48v35h364v-35h-89l159 -298h2l130 298h-99v35h202z" />
    <glyph glyph-name="Z" unicode="Z" horiz-adv-x="625" 
d="M591 190v-190h-566v35l332 630h-164l-118 -155h-30v190h540v-35l-332 -630h190l118 155h30z" />
    <glyph glyph-name="bracketleft" unicode="[" horiz-adv-x="344" 
d="M340 815h-110v-930h110v-35h-280v1000h280v-35z" />
    <glyph glyph-name="backslash" unicode="\" horiz-adv-x="470" 
d="M27 700h35l380 -700h-35z" />
    <glyph glyph-name="bracketright" unicode="]" horiz-adv-x="344" 
d="M4 -115h110v930h-110v35h280v-1000h-280v35z" />
    <glyph glyph-name="asciicircum" unicode="^" horiz-adv-x="453" 
d="M412 240l-185 73l-186 -73l-11 16l104 127q26 32 48 44.5t45 12.5t44.5 -12.5t47.5 -44.5l104 -127z" />
    <glyph glyph-name="underscore" unicode="_" horiz-adv-x="329" 
d="M-6 0h341v-33h-341v33z" />
    <glyph glyph-name="grave" unicode="`" horiz-adv-x="295" 
d="M265 566l-10 -16l-134 34q-43 11 -67 31.5t-24 55.5q0 16 6.5 30.5t17.5 25t26.5 17t32.5 6.5q22 0 45.5 -15t42.5 -50z" />
    <glyph glyph-name="a" unicode="a" horiz-adv-x="542" 
d="M491 85q0 -32 24 -32q16 0 26 7v-30q-26 -19 -60.5 -29.5t-72.5 -10.5q-33 0 -54 6t-33 16.5t-16 24t-4 28.5v36q-23 -62 -62.5 -86.5t-84.5 -24.5q-28 0 -52.5 8.5t-42.5 25t-28 40.5t-10 56q0 33 15 62.5t48 52t86.5 36t130.5 16.5v122q0 38 -25.5 54t-59.5 16
q-29 0 -57.5 -11t-40.5 -25q24 0 40.5 -6.5t27 -17.5t15.5 -25t5 -28q0 -32 -19.5 -54t-61.5 -22t-63 23t-21 58q0 24 14 48.5t42 45t69.5 33t97.5 12.5q74 0 118.5 -17t68.5 -47t32 -71t8 -90v-200zM301 262q-15 0 -29.5 -7t-25.5 -20t-18 -30.5t-7 -39.5q0 -32 12 -46.5
t27 -14.5t28 12t13 48v98z" />
    <glyph glyph-name="b" unicode="b" horiz-adv-x="597" 
d="M54 -10v698h-45v32h235v-296q10 27 27 44t36 26t38 12.5t34 3.5q97 0 143.5 -65t46.5 -195q0 -56 -13 -104t-38.5 -82.5t-62 -54t-84.5 -19.5q-32 0 -66 10.5t-61 28.5l-170 -39h-20zM244 55q9 -4 21 -7t26 -3q44 0 61 48t17 157q0 105 -11.5 154t-48.5 49q-7 0 -18 -4.5
t-21.5 -17.5t-18 -37t-7.5 -63v-276z" />
    <glyph glyph-name="c" unicode="c" horiz-adv-x="543" 
d="M518 72q-14 -13 -33.5 -27.5t-46 -26.5t-61 -20t-77.5 -8q-61 0 -111.5 18.5t-87 52t-57 81.5t-20.5 108q0 67 25 116t64.5 81t88.5 47.5t96 15.5q56 0 98 -12.5t70 -32.5t42 -45t14 -50q0 -36 -21.5 -59t-63.5 -23t-61 22t-19 54q0 14 4.5 28t15 25t27.5 17.5t41 6.5
q-12 13 -39.5 24t-56.5 11q-60 0 -92.5 -52t-32.5 -169q0 -114 40 -164t103 -50q48 0 86.5 20t64.5 43v-32z" />
    <glyph glyph-name="d" unicode="d" horiz-adv-x="604" 
d="M308 688v32h235v-687h45v-33h-235v76q-10 -27 -27 -44t-36 -26t-38 -12.5t-34 -3.5q-97 0 -143.5 65t-46.5 195q0 56 13 104t38.5 82.5t62 54t84.5 19.5q32 0 66 -10.5t61 -28.5v217h-45zM353 445q-8 4 -20.5 7t-26.5 3q-44 0 -61 -48t-17 -157q0 -105 11 -153.5
t49 -48.5q7 0 18 4.5t21.5 17.5t18 37t7.5 63v275z" />
    <glyph glyph-name="e" unicode="e" horiz-adv-x="547" 
d="M510 72q-14 -13 -33.5 -27.5t-46 -26.5t-60.5 -20t-78 -8q-61 0 -110.5 18.5t-84.5 52t-54 81.5t-19 108q0 67 24 116t62 81t85.5 47.5t95.5 15.5q43 0 85 -11t75 -36t53 -65.5t20 -99.5q0 -11 -1 -27.5t-3 -27.5h-296q0 -57 9.5 -96t27.5 -62.5t43 -33.5t55 -10
q48 0 86.5 20t64.5 43v-32zM341 275q0 2 0.5 10.5t1 19t1 21.5t0.5 18q0 19 -2 42.5t-7.5 44.5t-16 35t-26.5 14q-20 0 -32.5 -16.5t-20.5 -44t-11.5 -65t-3.5 -79.5h117z" />
    <glyph glyph-name="f" unicode="f" horiz-adv-x="351" 
d="M67 544q0 39 13.5 73t41.5 59t70 39.5t98 14.5q70 0 103.5 -26t33.5 -64t-23 -56.5t-52 -18.5q-27 0 -50 14.5t-23 52.5q0 16 11.5 37.5t42.5 30.5q-6 3 -14 5.5t-19 2.5q-29 0 -36 -21t-7 -48v-139h85v-32h-85v-435h85v-33h-320v33h45v435h-45v32h45v44z" />
    <glyph glyph-name="g" unicode="g" horiz-adv-x="580" 
d="M360 120q40 0 75 -7.5t61.5 -25t42 -46t15.5 -71.5q0 -45 -26 -79t-69 -56.5t-98.5 -33.5t-113.5 -11q-41 0 -81.5 3t-73 13t-53 27.5t-20.5 46.5q0 19 12 33t30.5 23t42.5 13.5t48 5.5q-51 14 -76 42t-25 64q0 30 13 52t33.5 37t46 24t51.5 14q-42 11 -70.5 28t-46.5 37
t-26 43.5t-8 48.5q0 75 57.5 120t162.5 45q48 0 82.5 -9.5t60.5 -25.5q6 12 15.5 24t22.5 22.5t30.5 17t40.5 6.5q38 0 58 -19.5t20 -51.5q0 -27 -16.5 -47t-46.5 -20q-11 0 -23.5 3.5t-23.5 13t-19 26.5t-10 43q-16 -12 -29 -31q32 -26 45 -58.5t13 -58.5q0 -75 -57 -120
t-163 -45q-13 0 -26 -1t-23.5 -4.5t-17 -9.5t-6.5 -16q0 -18 15 -23.5t49 -5.5h105zM264 210q15 0 24 11.5t13.5 30.5t6 43.5t1.5 49.5t-1.5 49.5t-6 43.5t-13.5 30.5t-24 11.5t-24 -11.5t-13.5 -30.5t-6 -43.5t-1.5 -49.5t1.5 -49.5t6 -43.5t13.5 -30.5t24 -11.5zM216 -45
q-23 0 -36 -7t-19.5 -16.5t-8.5 -20t-2 -16.5q0 -37 32 -55t82 -18q66 0 100.5 20.5t34.5 57.5q0 8 -3 17.5t-12.5 18t-26 14t-43.5 5.5h-98z" />
    <glyph glyph-name="h" unicode="h" horiz-adv-x="618" 
d="M251 396q26 63 68.5 88.5t93.5 25.5q65 0 106.5 -41t41.5 -124v-312h45v-33h-275v33h40v325q0 34 -14.5 47t-35.5 13q-6 0 -18 -3t-23.5 -13t-20 -29t-8.5 -52v-288h45v-33h-280v33h45v655h-45v32h235v-324z" />
    <glyph glyph-name="i" unicode="i" horiz-adv-x="318" 
d="M42 622q0 48 32.5 73t77.5 25t77.5 -25t32.5 -73q0 -47 -32.5 -69.5t-77.5 -22.5t-77.5 22.5t-32.5 69.5zM302 33v-33h-280v33h45v435h-45v32h235v-467h45z" />
    <glyph glyph-name="j" unicode="j" horiz-adv-x="313" 
d="M44 622q0 48 32.5 73t77.5 25t77.5 -25t32.5 -73q0 -47 -32.5 -69.5t-77.5 -22.5t-77.5 22.5t-32.5 69.5zM259 -24q0 -39 -14 -73t-42 -59t-70 -39.5t-98 -14.5q-70 0 -103.5 26t-33.5 64t23 56.5t52 18.5q28 0 51 -14.5t23 -52.5q0 -16 -12 -37.5t-43 -30.5
q6 -3 14.5 -5.5t18.5 -2.5q29 0 36.5 21t7.5 48v587h-65v32h255v-524z" />
    <glyph glyph-name="k" unicode="k" horiz-adv-x="639" 
d="M296 33v-33h-280v33h45v655h-45v32h235v-687h45zM251 251l226 217h-161v32h305v-32h-97l-115 -111l182 -324h50v-33h-320v33h45z" />
    <glyph glyph-name="l" unicode="l" horiz-adv-x="316" 
d="M298 33v-33h-280v33h45v655h-45v32h235v-687h45z" />
    <glyph glyph-name="m" unicode="m" horiz-adv-x="933" 
d="M922 33v-33h-275v33h40v325q0 34 -14.5 47t-35.5 13q-6 0 -18 -3t-23.5 -13t-20 -29t-8.5 -52v-288h45v-33h-275v33h40v325q0 34 -14.5 47t-35.5 13q-6 0 -18 -3t-23.5 -13t-20 -29t-8.5 -52v-288h45v-33h-280v33h45v435h-45v32h235v-104q26 63 68.5 88.5t93.5 25.5
q55 0 94 -30t50 -90q12 33 30 55.5t40 37t46.5 21t49.5 6.5q65 0 106.5 -41t41.5 -124v-312h45z" />
    <glyph glyph-name="n" unicode="n" horiz-adv-x="623" 
d="M257 396q26 63 68.5 88.5t93.5 25.5q65 0 106.5 -41t41.5 -124v-312h45v-33h-275v33h40v325q0 34 -14.5 47t-35.5 13q-6 0 -18 -3t-23.5 -13t-20 -29t-8.5 -52v-288h45v-33h-280v33h45v435h-45v32h235v-104z" />
    <glyph glyph-name="o" unicode="o" horiz-adv-x="580" 
d="M555 250q0 -61 -19 -109.5t-53.5 -82t-83.5 -51t-109 -17.5t-109 17.5t-83.5 51t-53.5 82t-19 109.5t19 109.5t53.5 82t83.5 51t109 17.5t109 -17.5t83.5 -51t53.5 -82t19 -109.5zM225 250q0 -53 1.5 -95.5t8.5 -72.5t19.5 -46t35.5 -16q22 0 35 16t20 45.5t8.5 72
t1.5 96.5t-1.5 96.5t-8.5 72t-20 45.5t-35 16q-23 0 -35.5 -16t-19.5 -45.5t-8.5 -72t-1.5 -96.5z" />
    <glyph glyph-name="p" unicode="p" horiz-adv-x="605" 
d="M297 -168v-32h-280v32h45v636h-45v32h235v-76q10 27 27 44t36 26t38 12.5t34 3.5q97 0 143.5 -65t46.5 -195q0 -56 -13 -104t-38.5 -82.5t-62 -54t-84.5 -19.5q-32 0 -66 10.5t-61 28.5v-197h45zM252 55q8 -4 20 -7t27 -3q43 0 60.5 48t17.5 157q0 105 -11.5 154
t-48.5 49q-7 0 -18 -4.5t-21.5 -17.5t-18 -37t-7.5 -63v-276z" />
    <glyph glyph-name="q" unicode="q" horiz-adv-x="597" 
d="M588 -168v-32h-300v32h65v244q-10 -27 -27 -44t-36 -26t-38 -12.5t-34 -3.5q-97 0 -143.5 65t-46.5 195q0 56 13 104t38.5 82.5t62 54t84.5 19.5q32 0 66 -10.5t61 -28.5l170 39h20v-678h45zM353 445q-8 4 -20.5 7t-26.5 3q-44 0 -61 -48t-17 -157q0 -105 11 -153.5
t49 -48.5q7 0 18 4.5t21.5 17.5t18 37t7.5 63v275z" />
    <glyph glyph-name="r" unicode="r" horiz-adv-x="506" 
d="M22 468v32h235v-116q6 25 18.5 48t30.5 40.5t41.5 27.5t52.5 10q48 0 75 -27.5t27 -72.5q0 -39 -24 -67t-66 -28q-37 0 -60.5 20.5t-23.5 61.5q0 17 8 41t34 40q-32 -7 -53.5 -28.5t-34.5 -53t-19 -71t-6 -82.5v-210h85v-33h-320v33h45v435h-45z" />
    <glyph glyph-name="s" unicode="s" horiz-adv-x="492" 
d="M33 170h30q15 -28 33.5 -55t39.5 -48.5t44 -34.5t47 -13q26 0 42.5 15t16.5 41q0 25 -18.5 42.5t-46 32.5t-59.5 31.5t-59.5 39t-46 54.5t-18.5 79q0 31 12 59.5t37.5 50t65 34t95.5 12.5q10 0 27 -1t37.5 -5t43.5 -10.5t46 -16.5l13 33h18v-180h-28q-21 45 -39 74.5
t-34.5 46.5t-33 23.5t-33.5 6.5q-28 0 -38 -15.5t-10 -27.5q0 -28 18.5 -47.5t46.5 -36.5t60.5 -34t60.5 -38.5t46.5 -51t18.5 -70.5q0 -44 -16.5 -76t-45.5 -53t-69 -31t-87 -10q-13 0 -33 1.5t-44 5.5t-51.5 12t-54.5 20l-14 -39h-20v180z" />
    <glyph glyph-name="t" unicode="t" horiz-adv-x="349" 
d="M249 87q0 -30 9.5 -42t35.5 -12q13 0 26.5 3.5t23.5 8.5v-30q-29 -14 -63.5 -19.5t-78.5 -5.5q-72 0 -107.5 27t-35.5 91v360h-45v32h45l155 130h35v-130h95v-32h-95v-381z" />
    <glyph glyph-name="u" unicode="u" horiz-adv-x="616" 
d="M365 104q-26 -63 -68.5 -88.5t-93.5 -25.5q-65 0 -106.5 41t-41.5 124v313h-45v32h235v-357q0 -34 14.5 -47t35.5 -13q6 0 18 3t23.5 13t20 29t8.5 52v288h-65v32h255v-467h45v-33h-235v104z" />
    <glyph glyph-name="v" unicode="v" horiz-adv-x="566" 
d="M359 -5h-149l-174 473h-48v32h363v-32h-87l110 -320h2l103 320h-98v32h198v-32h-65z" />
    <glyph glyph-name="w" unicode="w" horiz-adv-x="887" 
d="M899 500v-32h-65l-148 -473h-149l-90 270l-88 -270h-149l-174 473h-48v32h319v-32h-46l113 -320h2l54 169l-50 151h-43v32h350v-32h-85l98 -320h2l97 320h-82v32h182z" />
    <glyph glyph-name="x" unicode="x" horiz-adv-x="565" 
d="M563 33v-33h-317v33h42l-85 155l-88 -155h89v-33h-201v33h72l110 188l-134 247h-40v32h302v-32h-37l82 -146l84 146h-90v32h201v-32h-71l-105 -179l144 -256h42z" />
    <glyph glyph-name="y" unicode="y" horiz-adv-x="565" 
d="M36 468h-48v32h363v-32h-87l110 -320h2l103 320h-98v32h198v-32h-65l-154 -469q-13 -39 -31 -76.5t-45 -67t-64.5 -47.5t-89.5 -18q-35 0 -60.5 8t-42.5 21t-25.5 30t-8.5 36q0 38 23 56.5t52 18.5q28 0 51 -14.5t23 -52.5q0 -16 -12 -37.5t-43 -30.5q6 -3 16.5 -5.5
t21.5 -2.5q15 0 40 3.5t53 20.5t55.5 53t47.5 101h-111z" />
    <glyph glyph-name="z" unicode="z" horiz-adv-x="515" 
d="M20 30l241 438h-86l-110 -138h-30v170h440v-30l-230 -437h105l110 137h30v-170h-470v30z" />
    <glyph glyph-name="braceleft" unicode="{" horiz-adv-x="355" 
d="M10 370q26 4 40.5 11.5t21 20.5t7.5 31t1 42q0 21 -1.5 49.5t-3.5 59t-3.5 59.5t-1.5 52q0 55 19 86.5t55 46.5t88 18.5t118 3.5v-35q-15 0 -34 -1.5t-36 -10t-28.5 -26.5t-11.5 -52q0 -21 1.5 -55.5t3.5 -72t3.5 -72t1.5 -55.5q0 -32 -9 -53.5t-28.5 -35t-51 -20.5
t-76.5 -10v-2q45 -3 76.5 -10.5t51 -21t28.5 -34.5t9 -53q0 -21 -1.5 -55.5t-3.5 -72t-3.5 -72t-1.5 -55.5q0 -34 11.5 -52t28.5 -26.5t36 -10t34 -1.5v-35q-66 0 -118 3t-88 18t-55 46.5t-19 87.5q0 22 1.5 51t3.5 59t3.5 57.5t1.5 48.5q0 24 -1 43t-7.5 32.5t-21 21.5
t-40.5 12v40z" />
    <glyph glyph-name="bar" unicode="|" horiz-adv-x="156" 
d="M95 -150h-35v1000h35v-1000z" />
    <glyph glyph-name="braceright" unicode="}" horiz-adv-x="355" 
d="M344 330q-26 -4 -40.5 -12t-21 -21.5t-7.5 -32.5t-1 -43q0 -21 1.5 -48.5t3.5 -57.5t3.5 -59t1.5 -51q0 -56 -19 -87.5t-55 -46.5t-88 -18t-118 -3v35q15 0 34 1.5t36 10t28.5 26.5t11.5 52q0 21 -1.5 55.5t-3.5 72t-3.5 72t-1.5 55.5q0 32 9 53t28.5 34.5t51 21
t76.5 10.5v2q-45 3 -76.5 10t-51 20.5t-28.5 35t-9 53.5q0 21 1.5 55.5t3.5 72t3.5 72t1.5 55.5q0 34 -11.5 52t-28.5 26.5t-36 10t-34 1.5v35q66 0 118 -3.5t88 -18.5t55 -46.5t19 -86.5q0 -23 -1.5 -52t-3.5 -59.5t-3.5 -59t-1.5 -49.5q0 -24 1 -42t7.5 -31t21 -20.5
t40.5 -11.5v-40z" />
    <glyph glyph-name="asciitilde" unicode="~" horiz-adv-x="483" 
d="M439 345q-19 -35 -39.5 -50t-53.5 -15q-17 0 -38 7t-44.5 15.5t-47 15.5t-45.5 7q-13 0 -24.5 -1.5t-23.5 -6.5t-26 -14.5t-32 -24.5l-19 16q20 19 35.5 31.5t29.5 20t28.5 11t32.5 3.5q23 0 47 -7t46.5 -15.5t43 -15.5t36.5 -7q17 0 34 7t38 36z" />
    <glyph glyph-name="exclamdown" unicode="&#xa1;" horiz-adv-x="272" 
d="M226 427q0 -42 -24.5 -64.5t-65.5 -22.5t-65.5 22.5t-24.5 64.5t24.5 62.5t65.5 20.5t65.5 -20.5t24.5 -62.5zM152 290q3 -51 18.5 -108t32 -110.5t30 -98.5t13.5 -73q0 -34 -11 -55.5t-27.5 -33.5t-35.5 -16.5t-36 -4.5t-36 4.5t-35.5 16.5t-27.5 33.5t-11 55.5
q0 28 13.5 73t30 98.5t32 110.5t18.5 108h32z" />
    <glyph glyph-name="cent" unicode="&#xa2;" horiz-adv-x="579" 
d="M285 84q36 -43 97 -43q48 0 86.5 20t64.5 43v-32q-14 -13 -33.5 -27.5t-46 -26.5t-61 -20t-77.5 -8q-26 0 -50 3l-31 -143h-15l32 146q-48 9 -87 30.5t-66.5 54t-43 75.5t-15.5 94q0 67 25 116t64.5 81t88.5 47.5t96 15.5q26 0 49 -3l31 143h15l-32 -145q40 -6 70.5 -20
t50.5 -32.5t30 -40t10 -42.5q0 -36 -21.5 -59t-63.5 -23t-61 22t-19 54q0 14 4.5 28t15 25t27.5 17.5t41 6.5q-11 12 -37 22.5t-53 12.5zM355 476q-56 -4 -86 -56.5t-30 -164.5q0 -53 9 -91.5t25 -64.5z" />
    <glyph glyph-name="sterling" unicode="&#xa3;" horiz-adv-x="611" 
d="M556 225v-225h-510v50q32 37 52.5 68t32 57.5t16 50.5t4.5 47q0 17 -4 31.5t-10 28.5h-91v35h71q-10 15 -20 30.5t-18 32.5t-13 36t-5 42q0 44 16 81t48 63.5t79 41.5t109 15q41 0 88.5 -8t101.5 -34l24 37h24v-225h-33q-43 104 -92.5 149.5t-105.5 45.5q-34 0 -50.5 -17
t-16.5 -49q0 -34 11 -64.5t25 -60t27 -58t17 -58.5h123v-35h-123q-6 -37 -45 -74t-125 -79h358l5 45h30z" />
    <glyph glyph-name="currency" unicode="&#xa4;" horiz-adv-x="729" 
d="M636 480q-22 54 -46 91.5t-49 60.5t-51 33t-52 10q-37 0 -62 -21.5t-41 -56t-24.5 -77.5t-11.5 -87h152v-35h-154q-1 -13 -1 -25v-23v-23t1 -24h154v-35h-152q3 -44 11 -87.5t24 -78t41.5 -56t62.5 -21.5q26 0 52 10t51 33t49 60.5t46 91.5h32v-225h-25l-27 38
q-29 -14 -57 -22.5t-52 -13t-43.5 -6t-32.5 -1.5q-61 0 -117 19.5t-102 55.5t-78 87.5t-45 115.5h-48v35h43q-3 22 -3 47q0 24 3 48h-43v35h48q13 64 45.5 115t78 87t101.5 55.5t117 19.5q26 0 76 -7t109 -35l27 37h25v-225h-32z" />
    <glyph glyph-name="yen" unicode="&#xa5;" horiz-adv-x="725" 
d="M695 700v-35h-65l-145 -357h94v-35h-100v-238h45v-35h-290v35h45v238h-100v35h92l-197 357h-47v35h363v-35h-88l162 -320h2l126 320h-99v35h202z" />
    <glyph glyph-name="brokenbar" unicode="&#xa6;" horiz-adv-x="159" 
d="M97 400h-35v450h35v-450zM97 -150h-35v450h35v-450z" />
    <glyph glyph-name="section" unicode="&#xa7;" horiz-adv-x="484" 
d="M57 613q95 -79 167 -145t120.5 -123.5t73 -110t24.5 -104.5q0 -51 -16.5 -90t-45.5 -65.5t-69.5 -40.5t-88.5 -14q-36 0 -67 8.5t-54 22.5t-36 31t-13 35q0 23 20 23q8 0 14 -4.5t6 -14.5q0 -11 -8 -16t-18 -5q5 -14 19 -27t35 -22.5t47 -15t55 -5.5q49 0 85.5 12.5
t61.5 34t39.5 50t19.5 59.5q-95 79 -167 145.5t-120.5 124t-73 110t-24.5 104.5q0 51 16.5 90t45.5 65.5t69.5 40.5t88.5 14q36 0 67 -8.5t54 -22.5t36 -31t13 -35q0 -23 -20 -23q-8 0 -14 4.5t-6 14.5q0 11 8 16t18 5q-5 14 -19 27t-35 22.5t-47.5 15t-54.5 5.5
q-50 0 -86 -12.5t-61 -34.5t-39.5 -50.5t-19.5 -59.5zM53 570q0 -57 30 -114t81 -115t119.5 -118.5t146.5 -124.5q1 8 1.5 16t0.5 16q0 57 -30 114t-81.5 115t-120 118t-145.5 125q-1 -8 -1.5 -16t-0.5 -16z" />
    <glyph glyph-name="dieresis" unicode="&#xa8;" horiz-adv-x="420" 
d="M30 632q0 35 19.5 56.5t60.5 21.5t60.5 -21.5t19.5 -56.5t-19.5 -54t-60.5 -19t-60.5 19t-19.5 54zM230 632q0 35 19.5 56.5t60.5 21.5t60.5 -21.5t19.5 -56.5t-19.5 -54t-60.5 -19t-60.5 19t-19.5 54z" />
    <glyph glyph-name="copyright" unicode="&#xa9;" horiz-adv-x="788" 
d="M44 350q0 75 26.5 141t73.5 114.5t111 76.5t139 28t139 -28t111 -76.5t73.5 -114.5t26.5 -141q0 -77 -26.5 -142.5t-73.5 -114t-111 -76t-139 -27.5t-139 27.5t-111 76t-73.5 114t-26.5 142.5zM64 350q0 -77 26 -140t71 -107.5t105 -68.5t128 -24q67 0 127 24t105 68.5
t71.5 107.5t26.5 140t-26.5 139.5t-71.5 107t-105 69t-127 24.5q-68 0 -128 -24.5t-105 -69t-71 -107t-26 -139.5zM511 160q-35 -17 -65 -21.5t-46 -4.5q-42 0 -80.5 15.5t-67 43.5t-45.5 68t-17 89t17 89t45.5 68t67 43.5t80.5 15.5q16 0 46 -4t65 -21l17 22h15v-135h-20
q-26 65 -56.5 91t-61.5 26q-28 0 -45 -19.5t-26 -49t-12 -63.5t-3 -63t3 -63.5t12 -63.5t26 -48.5t45 -19.5q31 0 61.5 26t56.5 91h20v-135h-15z" />
    <glyph glyph-name="ordfeminine" unicode="&#xaa;" horiz-adv-x="408" 
d="M333 455q0 -19 14 -19q9 0 16 4v-18q-16 -11 -36.5 -17.5t-43.5 -6.5q-40 0 -52 13.5t-12 31.5v22q-14 -38 -37.5 -52.5t-50.5 -14.5q-34 0 -57 20t-23 58q0 40 38 68.5t130 31.5v73q0 23 -15.5 32.5t-35.5 9.5q-17 0 -34 -6.5t-25 -14.5q29 0 41 -14.5t12 -31.5
q0 -20 -11.5 -33t-37.5 -13q-25 0 -37.5 13.5t-12.5 35.5q0 14 8.5 29t25 27t42 19.5t58.5 7.5q44 0 71 -10t41.5 -28t19 -43t4.5 -54v-120zM219 561q-18 0 -33 -16t-15 -42q0 -20 7 -28.5t16 -8.5t17 7t8 29v59zM51 355h312v-18h-312v18z" />
    <glyph glyph-name="guillemotleft" unicode="&#xab;" horiz-adv-x="584" 
d="M26 237v25l270 204v-34l-100 -182v-2l100 -180v-34zM276 237v25l270 204v-34l-100 -182v-2l100 -180v-34z" />
    <glyph glyph-name="logicalnot" unicode="&#xac;" horiz-adv-x="484" 
d="M428 266v-186h-33v154h-323v32h356z" />
    <glyph glyph-name="uni00AD" unicode="&#xad;" horiz-adv-x="427" 
d="M383 266v-32h-340v32h340z" />
    <glyph glyph-name="registered" unicode="&#xae;" horiz-adv-x="788" 
d="M394 710q75 0 139 -28t111 -76.5t73.5 -114.5t26.5 -141q0 -77 -26.5 -142.5t-73.5 -114t-111 -76t-139 -27.5t-139 27.5t-111 76t-73.5 114t-26.5 142.5q0 75 26.5 141t73.5 114.5t111 76.5t139 28zM394 10q67 0 127 24t105 68.5t71.5 107.5t26.5 140t-26.5 139.5
t-71.5 107t-105 69t-127 24.5q-68 0 -128 -24.5t-105 -69t-71 -107t-26 -139.5t26 -140t71 -107.5t105 -68.5t128 -24zM587 171h28v-21h-157l-41 144q-14 49 -53 49h-5v-172h45v-21h-192v21h27v378h-27v21h193q155 0 155 -114q0 -42 -23.5 -69.5t-73.5 -37.5q30 -4 51 -16
t30 -37zM386 362q23 0 35.5 19t12.5 74q0 30 -3.5 48.5t-9.5 28.5t-15 13.5t-20 3.5h-27v-187h27z" />
    <glyph glyph-name="macron" unicode="&#xaf;" horiz-adv-x="340" 
d="M30 621h280v-32h-280v32z" />
    <glyph glyph-name="degree" unicode="&#xb0;" horiz-adv-x="227" 
d="M28 625q0 35 25 60t60 25q36 0 61 -25t25 -60q0 -36 -25 -60.5t-61 -24.5q-35 0 -60 24.5t-25 60.5zM50 625q0 -28 18 -46t45 -18q28 0 46 18t18 46q0 27 -18 45t-46 18q-27 0 -45 -18t-18 -45z" />
    <glyph glyph-name="plusminus" unicode="&#xb1;" horiz-adv-x="424" 
d="M382 326v-32h-154v-154h-32v154h-154v32h154v154h32v-154h154zM42 100h340v-32h-340v32z" />
    <glyph glyph-name="uni00B2" unicode="&#xb2;" horiz-adv-x="370" 
d="M337 519v-135h-312v72q95 52 142 108t47 129q0 55 -22 75.5t-56 20.5q-16 0 -35.5 -6.5t-27.5 -14.5q28 -2 38 -16t10 -29q0 -20 -11.5 -33t-36.5 -13t-38 13.5t-13 34.5q0 16 10 31t28.5 27t45.5 19.5t60 7.5q28 0 58.5 -5.5t56 -19.5t42.5 -39t17 -64
q0 -36 -22.5 -64.5t-56.5 -51t-73 -41t-73 -33.5h199l3 27h20z" />
    <glyph glyph-name="uni00B3" unicode="&#xb3;" horiz-adv-x="350" 
d="M114 612q51 8 73 36t22 68q0 23 -6.5 37.5t-17 22.5t-24 10.5t-26.5 2.5q-14 0 -30.5 -5t-24.5 -11q28 -2 38 -16t10 -28q0 -19 -11.5 -32t-35.5 -13q-25 0 -37.5 13t-12.5 33q0 32 34.5 56t97.5 24q32 0 59.5 -5.5t48 -16.5t32.5 -27.5t12 -39.5q0 -25 -12.5 -43
t-32.5 -31t-45 -22t-51 -15q33 -3 61 -10.5t49 -20.5t32.5 -33.5t11.5 -48.5q0 -33 -16 -55.5t-41 -37t-55 -20.5t-58 -6q-67 0 -104.5 26t-37.5 60q0 21 13 34.5t38 13.5q24 0 36 -13.5t12 -33.5q0 -15 -10.5 -29t-38.5 -16q8 -8 27.5 -14.5t36.5 -6.5q34 0 56 23t22 79
q0 54 -26 75.5t-68 21.5v14z" />
    <glyph glyph-name="acute" unicode="&#xb4;" horiz-adv-x="295" 
d="M94 685q19 35 42.5 50t45.5 15q17 0 32 -6.5t26.5 -17t18 -25t6.5 -30.5q0 -35 -24 -55.5t-67 -31.5l-134 -34l-10 16z" />
    <glyph glyph-name="paragraph" unicode="&#xb6;" horiz-adv-x="791" 
d="M450 0h-50q-71 0 -135 22.5t-113 66t-78 106.5t-29 145q0 81 29 144t78 106.5t113 66.5t135 23h50v-680zM495 680v-680h245v35h-45v610h45v35h-245z" />
    <glyph glyph-name="periodcentered" unicode="&#xb7;" horiz-adv-x="262" 
d="M41 224q0 42 24.5 65t65.5 23t65.5 -23t24.5 -65t-24.5 -62.5t-65.5 -20.5t-65.5 20.5t-24.5 62.5z" />
    <glyph glyph-name="cedilla" unicode="&#xb8;" horiz-adv-x="250" 
d="M94 -50q68 0 97 -25.5t29 -62.5q0 -39 -30.5 -63t-94.5 -24q-35 0 -65 12l4 17q17 -7 40 -7t35 18.5t12 46.5t-14 51t-36 23v64h23v-50z" />
    <glyph glyph-name="uni00B9" unicode="&#xb9;" horiz-adv-x="242" 
d="M19 767v21q45 0 84.5 6t65.5 13h15v-400h45v-23h-210v23h45v360h-45z" />
    <glyph glyph-name="ordmasculine" unicode="&#xba;" horiz-adv-x="422" 
d="M370 554q0 -74 -43.5 -115t-115.5 -41t-115.5 41t-43.5 115t43.5 115t115.5 41t115.5 -41t43.5 -115zM172 554q0 -64 6 -101t33 -37t33 36.5t6 101.5t-6 101.5t-33 36.5t-33 -36.5t-6 -101.5zM52 337h318v18h-318v-18z" />
    <glyph glyph-name="guillemotright" unicode="&#xbb;" horiz-adv-x="584" 
d="M38 34v34l100 180v2l-100 182v34l270 -204v-25zM288 34v34l100 180v2l-100 182v34l270 -204v-25z" />
    <glyph glyph-name="onequarter" unicode="&#xbc;" horiz-adv-x="725" 
d="M19 284v23h45v360h-45v21q45 0 84.5 6t65.5 13h15v-400h45v-23h-210zM149 0h-35l381 700h35zM665 23h39v-23h-198v23h39v87h-183v17l216 296h87v-291h39v-22h-39v-87zM545 344l-154 -212h154v212z" />
    <glyph glyph-name="onehalf" unicode="&#xbd;" horiz-adv-x="766" 
d="M19 284v23h45v360h-45v21q45 0 84.5 6t65.5 13h15v-400h45v-23h-210zM149 0h-35l381 700h35zM733 135v-135h-312v72q95 52 142 108t47 129q0 55 -22 75.5t-56 20.5q-16 0 -35.5 -6.5t-27.5 -14.5q28 -2 38 -16t10 -29q0 -20 -11.5 -33t-36.5 -13t-38 13.5t-13 34.5
q0 16 10 31t28.5 27t45.5 19.5t60 7.5q28 0 58.5 -5.5t56 -19.5t42.5 -39t17 -64q0 -36 -22.5 -64.5t-56.5 -51t-73 -41t-73 -33.5h199l3 27h20z" />
    <glyph glyph-name="threequarters" unicode="&#xbe;" horiz-adv-x="829" 
d="M114 512q51 8 73 36t22 68q0 23 -6.5 37.5t-17 22.5t-24 10.5t-26.5 2.5q-14 0 -30.5 -5t-24.5 -11q28 -2 38 -16t10 -28q0 -19 -11.5 -32t-35.5 -13q-25 0 -37.5 13t-12.5 33q0 32 34.5 56t97.5 24q32 0 59.5 -5.5t48 -16.5t32.5 -27.5t12 -39.5q0 -25 -12.5 -43
t-32.5 -31t-45 -22t-51 -15q33 -3 61 -10.5t49 -20.5t32.5 -33.5t11.5 -48.5q0 -33 -16 -55.5t-41 -37t-55 -20.5t-58 -6q-67 0 -104.5 26t-37.5 60q0 21 13 34.5t38 13.5q24 0 36 -13.5t12 -33.5q0 -15 -10.5 -29t-38.5 -16q8 -8 27.5 -14.5t36.5 -6.5q34 0 56 23t22 79
q0 54 -26 75.5t-68 21.5v14zM253 0h-35l381 700h35zM769 23h39v-23h-198v23h39v87h-183v17l216 296h87v-291h39v-22h-39v-87zM649 344l-154 -212h154v212z" />
    <glyph glyph-name="questiondown" unicode="&#xbf;" horiz-adv-x="585" 
d="M354 340q-41 0 -65.5 22.5t-24.5 64.5t24.5 62.5t65.5 20.5t65.5 -20.5t24.5 -62.5t-24.5 -64.5t-65.5 -22.5zM356 175q-60 0 -90.5 -42t-30.5 -133q0 -56 10 -90.5t27 -53.5t41 -25t52 -6q13 0 29 3t31 8t27.5 11t18.5 13q-23 1 -38.5 8.5t-25 18t-13.5 23.5t-4 25
q0 32 19.5 55t60.5 23q42 0 63.5 -23t21.5 -58q0 -25 -16 -50t-46.5 -45.5t-74.5 -33.5t-99 -13q-47 0 -97 7.5t-91.5 30t-68.5 63.5t-27 108q0 58 25.5 98t67 64t94.5 35t109 12l6 82h32v-115h-13z" />
    <glyph glyph-name="Agrave" unicode="&#xc0;" horiz-adv-x="692" 
d="M351 766l-10 -16l-134 34q-43 11 -67 31.5t-24 55.5q0 16 6.5 30.5t17.5 25t26.5 17t32.5 6.5q22 0 45.5 -15t42.5 -50zM700 0v35h-48l-250 670h-115l-228 -670h-75v-35h231v35h-118l49 149h226l53 -149h-68v-35h343zM257 511l103 -292h-202l97 292h2z" />
    <glyph glyph-name="Aacute" unicode="&#xc1;" horiz-adv-x="692" 
d="M395 885q19 35 42.5 50t45.5 15q17 0 32 -6.5t26.5 -17t18 -25t6.5 -30.5q0 -35 -24 -55.5t-67 -31.5l-134 -34l-10 16zM357 0v35h68l-53 149h-226l-49 -149h118v-35h-231v35h75l228 670h115l250 -670h48v-35h-343zM255 511l-97 -292h202l-103 292h-2z" />
    <glyph glyph-name="Acircumflex" unicode="&#xc2;" horiz-adv-x="692" 
d="M174 756l83 127q21 32 41.5 44.5t42.5 12.5t42.5 -12.5t41.5 -44.5l83 -127l-10 -16l-157 72l-157 -72zM700 0h-343v35h68l-53 149h-226l-49 -149h118v-35h-231v35h75l228 670h115l250 -670h48v-35zM257 511h-2l-97 -292h202z" />
    <glyph glyph-name="Atilde" unicode="&#xc3;" horiz-adv-x="692" 
d="M512 906q-7 -33 -15 -60.5t-19 -47.5t-25.5 -31.5t-33.5 -11.5q-14 0 -39 6t-52.5 13t-52.5 13t-39 6q-32 0 -50 -30l-16 7q12 36 23 63t23 45.5t26.5 27.5t33.5 9q15 0 40 -6t51.5 -12.5t50 -12.5t36.5 -6q14 0 23.5 7t16.5 26zM357 0v35h68l-53 149h-226l-49 -149h118
v-35h-231v35h75l228 670h115l250 -670h48v-35h-343zM255 511l-97 -292h202l-103 292h-2z" />
    <glyph glyph-name="Adieresis" unicode="&#xc4;" horiz-adv-x="692" 
d="M161 832q0 35 19.5 56.5t60.5 21.5t60.5 -21.5t19.5 -56.5t-19.5 -54t-60.5 -19t-60.5 19t-19.5 54zM361 832q0 35 19.5 56.5t60.5 21.5t60.5 -21.5t19.5 -56.5t-19.5 -54t-60.5 -19t-60.5 19t-19.5 54zM357 0v35h68l-53 149h-226l-49 -149h118v-35h-231v35h75l228 670
h115l250 -670h48v-35h-343zM255 511l-97 -292h202l-103 292h-2z" />
    <glyph glyph-name="Aring" unicode="&#xc5;" horiz-adv-x="692" 
d="M256 848q0 35 25 60t60 25q36 0 61 -25t25 -60q0 -36 -25 -61t-61 -25q-35 0 -60 25t-25 61zM278 848q0 -28 18 -46t45 -18q28 0 46 18t18 46q0 27 -18 45t-46 18q-27 0 -45 -18t-18 -45zM357 0v35h68l-53 149h-226l-49 -149h118v-35h-231v35h75l228 670h115l250 -670h48
v-35h-343zM255 511l-97 -292h202l-103 292h-2z" />
    <glyph glyph-name="AE" unicode="&#xc6;" horiz-adv-x="920" 
d="M881 190v-190h-553v35h45v186h-200l-85 -186h118v-35h-230v35h74l306 665h515v-190h-30l-94 155h-174v-289h95l63 104h30v-242h-30l-63 103h-95v-306h184l94 155h30zM373 256v400l-184 -400h184z" />
    <glyph glyph-name="Ccedilla" unicode="&#xc7;" horiz-adv-x="665" 
d="M589 480q-22 54 -46 91.5t-49 60.5t-51 33t-52 10q-46 0 -74 -32.5t-43 -81.5t-20 -105.5t-5 -105.5q0 -32 2 -69t7.5 -73t15.5 -69t25.5 -58.5t38 -40.5t53.5 -15q26 0 52 10t51 33t49 60.5t46 91.5h32v-225h-25l-27 38q-53 -26 -99.5 -34t-74.5 -9v-40q68 0 97 -25.5
t29 -62.5q0 -39 -30.5 -63t-94.5 -24q-35 0 -65 12l4 17q17 -7 40 -7t35 18.5t12 46.5t-14 51t-36 23v54q-69 2 -130 28.5t-107.5 73.5t-73.5 112.5t-27 145.5q0 82 28 148.5t76 113.5t111.5 72.5t134.5 25.5q26 0 76 -7t109 -35l27 37h25v-225h-32z" />
    <glyph glyph-name="Egrave" unicode="&#xc8;" horiz-adv-x="633" 
d="M346 766l-10 -16l-134 34q-43 11 -67 31.5t-24 55.5q0 16 6.5 30.5t17.5 25t26.5 17t32.5 6.5q22 0 45.5 -15t42.5 -50zM594 0v190h-30l-94 -155h-184v306h95l63 -103h30v242h-30l-63 -104h-95v289h174l94 -155h30v190h-543v-35h45v-630h-45v-35h553z" />
    <glyph glyph-name="Eacute" unicode="&#xc9;" horiz-adv-x="633" 
d="M390 885q19 35 42.5 50t45.5 15q17 0 32 -6.5t26.5 -17t18 -25t6.5 -30.5q0 -35 -24 -55.5t-67 -31.5l-134 -34l-10 16zM41 0v35h45v630h-45v35h543v-190h-30l-94 155h-174v-289h95l63 104h30v-242h-30l-63 103h-95v-306h184l94 155h30v-190h-553z" />
    <glyph glyph-name="Ecircumflex" unicode="&#xca;" horiz-adv-x="633" 
d="M169 756l83 127q21 32 41.5 44.5t42.5 12.5t42.5 -12.5t41.5 -44.5l83 -127l-10 -16l-157 72l-157 -72zM594 0h-553v35h45v630h-45v35h543v-190h-30l-94 155h-174v-289h95l63 104h30v-242h-30l-63 103h-95v-306h184l94 155h30v-190z" />
    <glyph glyph-name="Edieresis" unicode="&#xcb;" horiz-adv-x="633" 
d="M156 832q0 35 19.5 56.5t60.5 21.5t60.5 -21.5t19.5 -56.5t-19.5 -54t-60.5 -19t-60.5 19t-19.5 54zM356 832q0 35 19.5 56.5t60.5 21.5t60.5 -21.5t19.5 -56.5t-19.5 -54t-60.5 -19t-60.5 19t-19.5 54zM41 0v35h45v630h-45v35h543v-190h-30l-94 155h-174v-289h95l63 104
h30v-242h-30l-63 103h-95v-306h184l94 155h30v-190h-553z" />
    <glyph glyph-name="Igrave" unicode="&#xcc;" horiz-adv-x="373" 
d="M196 766l-10 -16l-134 34q-43 11 -67 31.5t-24 55.5q0 16 6.5 30.5t17.5 25t26.5 17t32.5 6.5q22 0 45.5 -15t42.5 -50zM41 700v-35h45v-630h-45v-35h290v35h-45v630h45v35h-290z" />
    <glyph glyph-name="Iacute" unicode="&#xcd;" horiz-adv-x="373" 
d="M240 885q19 35 42.5 50t45.5 15q17 0 32 -6.5t26.5 -17t18 -25t6.5 -30.5q0 -35 -24 -55.5t-67 -31.5l-134 -34l-10 16zM331 700v-35h-45v-630h45v-35h-290v35h45v630h-45v35h290z" />
    <glyph glyph-name="Icircumflex" unicode="&#xce;" horiz-adv-x="373" 
d="M343 740l-157 72l-157 -72l-10 16l83 127q21 32 41.5 44.5t42.5 12.5t42.5 -12.5t41.5 -44.5l83 -127zM331 700v-35h-45v-630h45v-35h-290v35h45v630h-45v35h290z" />
    <glyph glyph-name="Idieresis" unicode="&#xcf;" horiz-adv-x="373" 
d="M6 832q0 35 19.5 56.5t60.5 21.5t60.5 -21.5t19.5 -56.5t-19.5 -54t-60.5 -19t-60.5 19t-19.5 54zM206 832q0 35 19.5 56.5t60.5 21.5t60.5 -21.5t19.5 -56.5t-19.5 -54t-60.5 -19t-60.5 19t-19.5 54zM331 700v-35h-45v-630h45v-35h-290v35h45v630h-45v35h290z" />
    <glyph glyph-name="Eth" unicode="&#xd0;" horiz-adv-x="771" 
d="M382 700q70 0 134.5 -24.5t113.5 -69.5t78 -110t29 -146q0 -82 -29 -147t-78 -110t-113.5 -69t-134.5 -24h-340v35h45v306h-45v35h45v289h-45v35h340zM382 35q47 0 75 31t42.5 78t18.5 102t4 104t-4 104t-18.5 102t-42.5 78t-75 31h-95v-289h73v-35h-73v-306h95z" />
    <glyph glyph-name="Ntilde" unicode="&#xd1;" horiz-adv-x="740" 
d="M541 906q-7 -33 -15 -60.5t-19 -47.5t-25.5 -31.5t-33.5 -11.5q-14 0 -39 6t-52.5 13t-52.5 13t-39 6q-32 0 -50 -30l-16 7q12 36 23 63t23 45.5t26.5 27.5t33.5 9q15 0 40 -6t51.5 -12.5t50 -12.5t36.5 -6q14 0 23.5 7t16.5 26zM644 665v-665h-115l-393 462v-427h95v-35
h-210v35h78v630h-78v35h193l392 -462v427h-96v35h226v-35h-92z" />
    <glyph glyph-name="Ograve" unicode="&#xd2;" horiz-adv-x="777" 
d="M398 766l-10 -16l-134 34q-43 11 -67 31.5t-24 55.5q0 16 6.5 30.5t17.5 25t26.5 17t32.5 6.5q22 0 45.5 -15t42.5 -50zM33 350q0 -82 29 -148.5t78 -113.5t113 -72.5t135 -25.5q70 0 134.5 25.5t113.5 72.5t78 113.5t29 148.5q0 81 -29 147.5t-78 113.5t-113.5 73
t-134.5 26q-71 0 -135 -26t-113 -73t-78 -113.5t-29 -147.5zM248 350q0 49 4 105.5t18.5 105.5t42.5 81.5t75 32.5q48 0 76 -32.5t42 -81.5t18 -105.5t4 -105.5q0 -33 -1.5 -69.5t-6.5 -72.5t-14 -69t-24.5 -58.5t-38.5 -40.5t-55 -15t-54.5 15t-38 40.5t-25 58.5t-14.5 69
t-6.5 73t-1.5 69z" />
    <glyph glyph-name="Oacute" unicode="&#xd3;" horiz-adv-x="777" 
d="M442 885q19 35 42.5 50t45.5 15q17 0 32 -6.5t26.5 -17t18 -25t6.5 -30.5q0 -35 -24 -55.5t-67 -31.5l-134 -34l-10 16zM33 350q0 81 29 147.5t78 113.5t113 73t135 26q70 0 134.5 -26t113.5 -73t78 -113.5t29 -147.5q0 -82 -29 -148.5t-78 -113.5t-113.5 -72.5
t-134.5 -25.5q-71 0 -135 25.5t-113 72.5t-78 113.5t-29 148.5zM248 350q0 -32 1.5 -69t6.5 -73t14.5 -69t25 -58.5t38 -40.5t54.5 -15t55 15t38.5 40.5t24.5 58.5t14 69t6.5 72.5t1.5 69.5q0 49 -4 105.5t-18 105.5t-42 81.5t-76 32.5q-47 0 -75 -32.5t-42.5 -81.5
t-18.5 -105.5t-4 -105.5z" />
    <glyph glyph-name="Ocircumflex" unicode="&#xd4;" horiz-adv-x="777" 
d="M221 756l83 127q21 32 41.5 44.5t42.5 12.5t42.5 -12.5t41.5 -44.5l83 -127l-10 -16l-157 72l-157 -72zM388 710q70 0 134.5 -26t113.5 -73t78 -113.5t29 -147.5q0 -82 -29 -148.5t-78 -113.5t-113.5 -72.5t-134.5 -25.5q-71 0 -135 25.5t-113 72.5t-78 113.5t-29 148.5
q0 81 29 147.5t78 113.5t113 73t135 26zM388 25q32 0 55 15t38.5 40.5t24.5 58.5t14 69t6.5 72.5t1.5 69.5q0 49 -4 105.5t-18 105.5t-42 81.5t-76 32.5q-47 0 -75 -32.5t-42.5 -81.5t-18.5 -105.5t-4 -105.5q0 -32 1.5 -69t6.5 -73t14.5 -69t25 -58.5t38 -40.5t54.5 -15z
" />
    <glyph glyph-name="Otilde" unicode="&#xd5;" horiz-adv-x="777" 
d="M559 906q-7 -33 -15 -60.5t-19 -47.5t-25.5 -31.5t-33.5 -11.5q-14 0 -39 6t-52.5 13t-52.5 13t-39 6q-32 0 -50 -30l-16 7q12 36 23 63t23 45.5t26.5 27.5t33.5 9q15 0 40 -6t51.5 -12.5t50 -12.5t36.5 -6q14 0 23.5 7t16.5 26zM33 350q0 81 29 147.5t78 113.5t113 73
t135 26q70 0 134.5 -26t113.5 -73t78 -113.5t29 -147.5q0 -82 -29 -148.5t-78 -113.5t-113.5 -72.5t-134.5 -25.5q-71 0 -135 25.5t-113 72.5t-78 113.5t-29 148.5zM248 350q0 -32 1.5 -69t6.5 -73t14.5 -69t25 -58.5t38 -40.5t54.5 -15t55 15t38.5 40.5t24.5 58.5t14 69
t6.5 72.5t1.5 69.5q0 49 -4 105.5t-18 105.5t-42 81.5t-76 32.5q-47 0 -75 -32.5t-42.5 -81.5t-18.5 -105.5t-4 -105.5z" />
    <glyph glyph-name="Odieresis" unicode="&#xd6;" horiz-adv-x="777" 
d="M208 832q0 35 19.5 56.5t60.5 21.5t60.5 -21.5t19.5 -56.5t-19.5 -54t-60.5 -19t-60.5 19t-19.5 54zM408 832q0 35 19.5 56.5t60.5 21.5t60.5 -21.5t19.5 -56.5t-19.5 -54t-60.5 -19t-60.5 19t-19.5 54zM33 350q0 81 29 147.5t78 113.5t113 73t135 26q70 0 134.5 -26
t113.5 -73t78 -113.5t29 -147.5q0 -82 -29 -148.5t-78 -113.5t-113.5 -72.5t-134.5 -25.5q-71 0 -135 25.5t-113 72.5t-78 113.5t-29 148.5zM248 350q0 -32 1.5 -69t6.5 -73t14.5 -69t25 -58.5t38 -40.5t54.5 -15t55 15t38.5 40.5t24.5 58.5t14 69t6.5 72.5t1.5 69.5
q0 49 -4 105.5t-18 105.5t-42 81.5t-76 32.5q-47 0 -75 -32.5t-42.5 -81.5t-18.5 -105.5t-4 -105.5z" />
    <glyph glyph-name="multiply" unicode="&#xd7;" horiz-adv-x="428" 
d="M47 106l311 311l23 -23l-311 -311z" />
    <glyph glyph-name="Oslash" unicode="&#xd8;" horiz-adv-x="777" 
d="M575 658q75 -45 121.5 -124t46.5 -184q0 -82 -29 -148.5t-78 -113.5t-113.5 -72.5t-134.5 -25.5q-84 0 -160 37l-42 -77h-35l50 92q-37 22 -68 53.5t-53 70.5t-34.5 85t-12.5 99q0 81 29 147.5t78 113.5t113 73t135 26q86 0 160 -37l43 77h35zM495 576q-14 42 -39.5 70.5
t-67.5 28.5q-47 0 -75 -32.5t-42.5 -81.5t-18.5 -105.5t-4 -105.5q0 -44 3 -94.5t14 -96.5zM282 125q14 -43 39 -71.5t67 -28.5q32 0 55 15t38.5 40.5t24.5 58.5t14 69t6.5 73t1.5 69q0 44 -2.5 95t-13.5 97z" />
    <glyph glyph-name="Ugrave" unicode="&#xd9;" horiz-adv-x="788" 
d="M404 766l-10 -16l-134 34q-43 11 -67 31.5t-24 55.5q0 16 6.5 30.5t17.5 25t26.5 17t32.5 6.5q22 0 45.5 -15t42.5 -50zM714 665h45v35h-290v-35h45v-477q0 -47 -8 -78.5t-23 -50t-37.5 -26.5t-51.5 -8t-51.5 8t-37.5 26.5t-23 50t-8 78.5v477h45v35h-290v-35h45v-420
q0 -69 20.5 -117.5t61 -79t100 -44.5t138.5 -14t138.5 14t100 44.5t61 79t20.5 117.5v420z" />
    <glyph glyph-name="Uacute" unicode="&#xda;" horiz-adv-x="788" 
d="M448 885q19 35 42.5 50t45.5 15q17 0 32 -6.5t26.5 -17t18 -25t6.5 -30.5q0 -35 -24 -55.5t-67 -31.5l-134 -34l-10 16zM714 245q0 -69 -20.5 -117.5t-61 -79t-100 -44.5t-138.5 -14t-138.5 14t-100 44.5t-61 79t-20.5 117.5v420h-45v35h290v-35h-45v-477q0 -47 8 -78.5
t23 -50t37.5 -26.5t51.5 -8t51.5 8t37.5 26.5t23 50t8 78.5v477h-45v35h290v-35h-45v-420z" />
    <glyph glyph-name="Ucircumflex" unicode="&#xdb;" horiz-adv-x="788" 
d="M227 756l83 127q21 32 41.5 44.5t42.5 12.5t42.5 -12.5t41.5 -44.5l83 -127l-10 -16l-157 72l-157 -72zM759 665h-45v-420q0 -69 -20.5 -117.5t-61 -79t-100 -44.5t-138.5 -14t-138.5 14t-100 44.5t-61 79t-20.5 117.5v420h-45v35h290v-35h-45v-477q0 -47 8 -78.5t23 -50
t37.5 -26.5t51.5 -8t51.5 8t37.5 26.5t23 50t8 78.5v477h-45v35h290v-35z" />
    <glyph glyph-name="Udieresis" unicode="&#xdc;" horiz-adv-x="788" 
d="M214 832q0 35 19.5 56.5t60.5 21.5t60.5 -21.5t19.5 -56.5t-19.5 -54t-60.5 -19t-60.5 19t-19.5 54zM414 832q0 35 19.5 56.5t60.5 21.5t60.5 -21.5t19.5 -56.5t-19.5 -54t-60.5 -19t-60.5 19t-19.5 54zM714 245q0 -69 -20.5 -117.5t-61 -79t-100 -44.5t-138.5 -14
t-138.5 14t-100 44.5t-61 79t-20.5 117.5v420h-45v35h290v-35h-45v-477q0 -47 8 -78.5t23 -50t37.5 -26.5t51.5 -8t51.5 8t37.5 26.5t23 50t8 78.5v477h-45v35h290v-35h-45v-420z" />
    <glyph glyph-name="Yacute" unicode="&#xdd;" horiz-adv-x="644" 
d="M409 885q19 35 42.5 50t45.5 15q17 0 32 -6.5t26.5 -17t18 -25t6.5 -30.5q0 -35 -24 -55.5t-67 -31.5l-134 -34l-10 16zM590 665l-151 -341v-289h45v-35h-290v35h45v259l-205 371h-48v35h364v-35h-89l159 -298h2l130 298h-99v35h202v-35h-65z" />
    <glyph glyph-name="Thorn" unicode="&#xde;" horiz-adv-x="655" 
d="M391 575q128 0 189 -56.5t61 -154.5t-61.5 -156t-188.5 -58h-105v-115h75v-35h-320v35h45v630h-45v35h245v-125h105zM351 185q19 0 33.5 9t25 30t16 55t5.5 84t-5.5 84t-16 54.5t-25 29.5t-33.5 9h-65v-355h65z" />
    <glyph glyph-name="germandbls" unicode="&#xdf;" horiz-adv-x="678" 
d="M67 514q0 39 13 78t44.5 69.5t85 49.5t135.5 19q45 0 88.5 -8.5t77.5 -26t55 -43t21 -59.5q0 -28 -14.5 -46.5t-36 -31t-47 -22t-47 -18.5t-36 -20t-14.5 -28t20.5 -31.5t52 -30.5t67.5 -34t67.5 -41.5t52 -55t20.5 -72.5q0 -43 -16.5 -75.5t-45 -54t-66 -32t-79.5 -10.5
q-57 0 -97.5 21.5t-60.5 56.5l14 22q5 -9 15 -21t24 -22.5t32 -17.5t40 -7q23 0 40 14.5t17 41.5q0 24 -14.5 42t-37 34t-48 31.5t-48 36t-37 47t-14.5 63.5q0 35 13 59t32 42t42 32t42 30t32 37t13 52q0 18 -4.5 38.5t-16.5 38t-33.5 28.5t-54.5 11q-48 0 -73 -25.5
t-25 -80.5v-594h-235v33h45v435h-45v32h45v14z" />
    <glyph glyph-name="agrave" unicode="&#xe0;" horiz-adv-x="542" 
d="M274 566l-10 -16l-134 34q-43 11 -67 31.5t-24 55.5q0 16 6.5 30.5t17.5 25t26.5 17t32.5 6.5q22 0 45.5 -15t42.5 -50zM491 285q0 49 -8 90t-32 71t-68.5 47t-118.5 17q-56 0 -97.5 -12.5t-69.5 -33t-42 -45t-14 -48.5q0 -35 21 -58t63 -23t61.5 22t19.5 54q0 14 -5 28
t-15.5 25t-27 17.5t-40.5 6.5q12 14 40.5 25t57.5 11q34 0 59.5 -16t25.5 -54v-122q-77 -3 -130.5 -16.5t-86.5 -36t-48 -52t-15 -62.5q0 -32 10 -56t28 -40.5t42.5 -25t52.5 -8.5q45 0 84.5 24.5t62.5 86.5v-36q0 -15 4 -28.5t16 -24t33 -16.5t54 -6q38 0 72.5 10.5
t60.5 29.5v30q-10 -7 -26 -7q-24 0 -24 32v200zM301 164q0 -36 -13 -48t-28 -12t-27 14.5t-12 46.5q0 22 7 39.5t18 30.5t25.5 20t29.5 7v-98z" />
    <glyph glyph-name="aacute" unicode="&#xe1;" horiz-adv-x="542" 
d="M318 685q19 35 42.5 50t45.5 15q17 0 32 -6.5t26.5 -17t18 -25t6.5 -30.5q0 -35 -24 -55.5t-67 -31.5l-134 -34l-10 16zM491 85q0 -32 24 -32q16 0 26 7v-30q-26 -19 -60.5 -29.5t-72.5 -10.5q-33 0 -54 6t-33 16.5t-16 24t-4 28.5v36q-23 -62 -62.5 -86.5t-84.5 -24.5
q-28 0 -52.5 8.5t-42.5 25t-28 40.5t-10 56q0 33 15 62.5t48 52t86.5 36t130.5 16.5v122q0 38 -25.5 54t-59.5 16q-29 0 -57.5 -11t-40.5 -25q24 0 40.5 -6.5t27 -17.5t15.5 -25t5 -28q0 -32 -19.5 -54t-61.5 -22t-63 23t-21 58q0 24 14 48.5t42 45t69.5 33t97.5 12.5
q74 0 118.5 -17t68.5 -47t32 -71t8 -90v-200zM301 262q-15 0 -29.5 -7t-25.5 -20t-18 -30.5t-7 -39.5q0 -32 12 -46.5t27 -14.5t28 12t13 48v98z" />
    <glyph glyph-name="acircumflex" unicode="&#xe2;" horiz-adv-x="542" 
d="M97 556l83 127q21 32 41.5 44.5t42.5 12.5t42.5 -12.5t41.5 -44.5l83 -127l-10 -16l-157 72l-157 -72zM491 85q0 -32 24 -32q16 0 26 7v-30q-26 -19 -60.5 -29.5t-72.5 -10.5q-33 0 -54 6t-33 16.5t-16 24t-4 28.5v36q-23 -62 -62.5 -86.5t-84.5 -24.5q-28 0 -52.5 8.5
t-42.5 25t-28 40.5t-10 56q0 33 15 62.5t48 52t86.5 36t130.5 16.5v122q0 38 -25.5 54t-59.5 16q-29 0 -57.5 -11t-40.5 -25q24 0 40.5 -6.5t27 -17.5t15.5 -25t5 -28q0 -32 -19.5 -54t-61.5 -22t-63 23t-21 58q0 24 14 48.5t42 45t69.5 33t97.5 12.5q74 0 118.5 -17
t68.5 -47t32 -71t8 -90v-200zM301 262q-15 0 -29.5 -7t-25.5 -20t-18 -30.5t-7 -39.5q0 -32 12 -46.5t27 -14.5t28 12t13 48v98z" />
    <glyph glyph-name="atilde" unicode="&#xe3;" horiz-adv-x="542" 
d="M435 706q-7 -33 -15 -60.5t-19 -47.5t-25.5 -31.5t-33.5 -11.5q-14 0 -39 6t-52.5 13t-52.5 13t-39 6q-32 0 -50 -30l-16 7q12 36 23 63t23 45.5t26.5 27.5t33.5 9q15 0 40 -6t51.5 -12.5t50 -12.5t36.5 -6q14 0 23.5 7t16.5 26zM491 85q0 -32 24 -32q16 0 26 7v-30
q-26 -19 -60.5 -29.5t-72.5 -10.5q-33 0 -54 6t-33 16.5t-16 24t-4 28.5v36q-23 -62 -62.5 -86.5t-84.5 -24.5q-28 0 -52.5 8.5t-42.5 25t-28 40.5t-10 56q0 33 15 62.5t48 52t86.5 36t130.5 16.5v122q0 38 -25.5 54t-59.5 16q-29 0 -57.5 -11t-40.5 -25q24 0 40.5 -6.5
t27 -17.5t15.5 -25t5 -28q0 -32 -19.5 -54t-61.5 -22t-63 23t-21 58q0 24 14 48.5t42 45t69.5 33t97.5 12.5q74 0 118.5 -17t68.5 -47t32 -71t8 -90v-200zM301 262q-15 0 -29.5 -7t-25.5 -20t-18 -30.5t-7 -39.5q0 -32 12 -46.5t27 -14.5t28 12t13 48v98z" />
    <glyph glyph-name="adieresis" unicode="&#xe4;" horiz-adv-x="542" 
d="M84 632q0 35 19.5 56.5t60.5 21.5t60.5 -21.5t19.5 -56.5t-19.5 -54t-60.5 -19t-60.5 19t-19.5 54zM284 632q0 35 19.5 56.5t60.5 21.5t60.5 -21.5t19.5 -56.5t-19.5 -54t-60.5 -19t-60.5 19t-19.5 54zM491 85q0 -32 24 -32q16 0 26 7v-30q-26 -19 -60.5 -29.5
t-72.5 -10.5q-33 0 -54 6t-33 16.5t-16 24t-4 28.5v36q-23 -62 -62.5 -86.5t-84.5 -24.5q-28 0 -52.5 8.5t-42.5 25t-28 40.5t-10 56q0 33 15 62.5t48 52t86.5 36t130.5 16.5v122q0 38 -25.5 54t-59.5 16q-29 0 -57.5 -11t-40.5 -25q24 0 40.5 -6.5t27 -17.5t15.5 -25t5 -28
q0 -32 -19.5 -54t-61.5 -22t-63 23t-21 58q0 24 14 48.5t42 45t69.5 33t97.5 12.5q74 0 118.5 -17t68.5 -47t32 -71t8 -90v-200zM301 262q-15 0 -29.5 -7t-25.5 -20t-18 -30.5t-7 -39.5q0 -32 12 -46.5t27 -14.5t28 12t13 48v98z" />
    <glyph glyph-name="aring" unicode="&#xe5;" horiz-adv-x="542" 
d="M179 648q0 35 25 60t60 25q36 0 61 -25t25 -60q0 -36 -25 -61t-61 -25q-35 0 -60 25t-25 61zM201 648q0 -28 18 -46t45 -18q28 0 46 18t18 46q0 27 -18 45t-46 18q-27 0 -45 -18t-18 -45zM491 85q0 -32 24 -32q16 0 26 7v-30q-26 -19 -60.5 -29.5t-72.5 -10.5
q-33 0 -54 6t-33 16.5t-16 24t-4 28.5v36q-23 -62 -62.5 -86.5t-84.5 -24.5q-28 0 -52.5 8.5t-42.5 25t-28 40.5t-10 56q0 33 15 62.5t48 52t86.5 36t130.5 16.5v122q0 38 -25.5 54t-59.5 16q-29 0 -57.5 -11t-40.5 -25q24 0 40.5 -6.5t27 -17.5t15.5 -25t5 -28
q0 -32 -19.5 -54t-61.5 -22t-63 23t-21 58q0 24 14 48.5t42 45t69.5 33t97.5 12.5q74 0 118.5 -17t68.5 -47t32 -71t8 -90v-200zM301 262q-15 0 -29.5 -7t-25.5 -20t-18 -30.5t-7 -39.5q0 -32 12 -46.5t27 -14.5t28 12t13 48v98z" />
    <glyph glyph-name="ae" unicode="&#xe6;" horiz-adv-x="823" 
d="M300 409q0 38 -25.5 54t-59.5 16q-29 0 -57.5 -11t-41.5 -25q24 0 41 -6.5t27.5 -17.5t15.5 -25t5 -28q0 -32 -19.5 -54t-61.5 -22t-63 23t-21 58q0 24 14 48.5t42 45t69.5 33t97.5 12.5q57 0 95.5 -10t64.5 -28q33 20 70 29t74 9q43 0 85 -11t75 -36t53 -65.5t20 -99.5
q0 -11 -1 -27.5t-3 -27.5h-296q0 -57 9.5 -96t27.5 -62.5t43 -33.5t55 -10q48 0 86.5 20t64.5 43v-32q-14 -13 -33.5 -27.5t-46 -26.5t-60.5 -20t-78 -8q-95 0 -160 43t-91 120q-4 -25 -14.5 -53.5t-30 -53t-48.5 -40.5t-71 -16q-28 0 -52.5 8.5t-42.5 25t-28 40.5t-10 56
q0 33 15 62t48 50.5t86.5 34.5t130.5 16v126zM616 273q0 2 1 10.5t1.5 20t1 22.5t0.5 18q0 19 -2 42.5t-7.5 44.5t-16 35t-26.5 14q-20 0 -32.5 -16.5t-20.5 -44.5t-11.5 -65.5t-3.5 -80.5h116zM300 254q-30 0 -55 -22.5t-25 -66.5q0 -32 12 -46.5t27 -14.5q7 0 14.5 3
t13.5 12t9.5 24.5t3.5 40.5v70z" />
    <glyph glyph-name="ccedilla" unicode="&#xe7;" horiz-adv-x="543" 
d="M289 -10q-59 2 -107.5 21t-83.5 52.5t-54.5 81t-19.5 105.5q0 67 25 116t64.5 81t88.5 47.5t96 15.5q56 0 98 -12.5t70 -32.5t42 -45t14 -50q0 -36 -21.5 -59t-63.5 -23t-61 22t-19 54q0 14 4.5 28t15 25t27.5 17.5t41 6.5q-12 13 -39.5 24t-56.5 11q-60 0 -92.5 -52
t-32.5 -169q0 -114 40 -164t103 -50q48 0 86.5 20t64.5 43v-32q-14 -13 -32.5 -27t-43.5 -26t-57.5 -20t-72.5 -9v-40q68 0 97 -25.5t29 -62.5q0 -39 -30.5 -63t-94.5 -24q-35 0 -65 12l4 17q17 -7 40 -7t35 18.5t12 46.5t-14 51t-36 23v54z" />
    <glyph glyph-name="egrave" unicode="&#xe8;" horiz-adv-x="547" 
d="M301 566l-10 -16l-134 34q-43 11 -67 31.5t-24 55.5q0 16 6.5 30.5t17.5 25t26.5 17t32.5 6.5q22 0 45.5 -15t42.5 -50zM510 104q-26 -23 -64.5 -43t-86.5 -20q-30 0 -55 10t-43 33.5t-27.5 62.5t-9.5 96h296q2 11 3 27.5t1 27.5q0 59 -20 99.5t-53 65.5t-75 36t-85 11
q-48 0 -95.5 -15.5t-85.5 -47.5t-62 -81t-24 -116q0 -60 19 -108t54 -81.5t84.5 -52t110.5 -18.5q44 0 78 8t60.5 20t46 26.5t33.5 27.5v32zM224 275q0 42 3.5 79.5t11.5 65t20.5 44t32.5 16.5q16 0 26.5 -14t16 -35t7.5 -44.5t2 -42.5q0 -7 -0.5 -18t-1 -21.5t-1 -19
t-0.5 -10.5h-117z" />
    <glyph glyph-name="eacute" unicode="&#xe9;" horiz-adv-x="547" 
d="M345 685q19 35 42.5 50t45.5 15q17 0 32 -6.5t26.5 -17t18 -25t6.5 -30.5q0 -35 -24 -55.5t-67 -31.5l-134 -34l-10 16zM510 72q-14 -13 -33.5 -27.5t-46 -26.5t-60.5 -20t-78 -8q-61 0 -110.5 18.5t-84.5 52t-54 81.5t-19 108q0 67 24 116t62 81t85.5 47.5t95.5 15.5
q43 0 85 -11t75 -36t53 -65.5t20 -99.5q0 -11 -1 -27.5t-3 -27.5h-296q0 -57 9.5 -96t27.5 -62.5t43 -33.5t55 -10q48 0 86.5 20t64.5 43v-32zM341 275q0 2 0.5 10.5t1 19t1 21.5t0.5 18q0 19 -2 42.5t-7.5 44.5t-16 35t-26.5 14q-20 0 -32.5 -16.5t-20.5 -44t-11.5 -65
t-3.5 -79.5h117z" />
    <glyph glyph-name="ecircumflex" unicode="&#xea;" horiz-adv-x="547" 
d="M124 556l83 127q21 32 41.5 44.5t42.5 12.5t42.5 -12.5t41.5 -44.5l83 -127l-10 -16l-157 72l-157 -72zM510 72q-14 -13 -33.5 -27.5t-46 -26.5t-60.5 -20t-78 -8q-61 0 -110.5 18.5t-84.5 52t-54 81.5t-19 108q0 67 24 116t62 81t85.5 47.5t95.5 15.5q43 0 85 -11
t75 -36t53 -65.5t20 -99.5q0 -11 -1 -27.5t-3 -27.5h-296q0 -57 9.5 -96t27.5 -62.5t43 -33.5t55 -10q48 0 86.5 20t64.5 43v-32zM341 275q0 2 0.5 10.5t1 19t1 21.5t0.5 18q0 19 -2 42.5t-7.5 44.5t-16 35t-26.5 14q-20 0 -32.5 -16.5t-20.5 -44t-11.5 -65t-3.5 -79.5h117z
" />
    <glyph glyph-name="edieresis" unicode="&#xeb;" horiz-adv-x="547" 
d="M111 632q0 35 19.5 56.5t60.5 21.5t60.5 -21.5t19.5 -56.5t-19.5 -54t-60.5 -19t-60.5 19t-19.5 54zM311 632q0 35 19.5 56.5t60.5 21.5t60.5 -21.5t19.5 -56.5t-19.5 -54t-60.5 -19t-60.5 19t-19.5 54zM510 72q-14 -13 -33.5 -27.5t-46 -26.5t-60.5 -20t-78 -8
q-61 0 -110.5 18.5t-84.5 52t-54 81.5t-19 108q0 67 24 116t62 81t85.5 47.5t95.5 15.5q43 0 85 -11t75 -36t53 -65.5t20 -99.5q0 -11 -1 -27.5t-3 -27.5h-296q0 -57 9.5 -96t27.5 -62.5t43 -33.5t55 -10q48 0 86.5 20t64.5 43v-32zM341 275q0 2 0.5 10.5t1 19t1 21.5
t0.5 18q0 19 -2 42.5t-7.5 44.5t-16 35t-26.5 14q-20 0 -32.5 -16.5t-20.5 -44t-11.5 -65t-3.5 -79.5h117z" />
    <glyph glyph-name="igrave" unicode="&#xec;" horiz-adv-x="318" 
d="M189 566l-10 -16l-134 34q-43 11 -67 31.5t-24 55.5q0 16 6.5 30.5t17.5 25t26.5 17t32.5 6.5q22 0 45.5 -15t42.5 -50zM302 0v33h-45v467h-235v-32h45v-435h-45v-33h280z" />
    <glyph glyph-name="iacute" unicode="&#xed;" horiz-adv-x="318" 
d="M168 685q19 35 42.5 50t45.5 15q17 0 32 -6.5t26.5 -17t18 -25t6.5 -30.5q0 -35 -24 -55.5t-67 -31.5l-134 -34l-10 16zM22 0v33h45v435h-45v32h235v-467h45v-33h-280z" />
    <glyph glyph-name="icircumflex" unicode="&#xee;" horiz-adv-x="318" 
d="M318 540l-157 72l-157 -72l-10 16l83 127q21 32 41.5 44.5t42.5 12.5t42.5 -12.5t41.5 -44.5l83 -127zM302 33v-33h-280v33h45v435h-45v32h235v-467h45z" />
    <glyph glyph-name="idieresis" unicode="&#xef;" horiz-adv-x="318" 
d="M-29 632q0 35 19.5 56.5t60.5 21.5t60.5 -21.5t19.5 -56.5t-19.5 -54t-60.5 -19t-60.5 19t-19.5 54zM171 632q0 35 19.5 56.5t60.5 21.5t60.5 -21.5t19.5 -56.5t-19.5 -54t-60.5 -19t-60.5 19t-19.5 54zM22 0v33h45v435h-45v32h235v-467h45v-33h-280z" />
    <glyph glyph-name="eth" unicode="&#xf0;" horiz-adv-x="611" 
d="M503 601q39 -49 59.5 -117t20.5 -156q0 -63 -17 -124t-51.5 -108.5t-88.5 -76.5t-127 -29q-62 0 -112.5 18.5t-86 51.5t-55 78.5t-19.5 99.5q0 51 20 91.5t54 68t78.5 42.5t94.5 15q32 0 60.5 -10.5t48.5 -25.5l2 1q-1 27 -4.5 62.5t-14.5 70.5l-84 -29v32l73 25
q-17 41 -48 69t-82 28q-28 0 -54.5 -10.5t-42.5 -25.5q22 -1 36.5 -7.5t23.5 -17t13 -22.5t4 -23q0 -32 -19.5 -52t-55.5 -20q-38 0 -58 22t-20 55q0 22 12 46t36.5 43t62.5 31.5t90 12.5q144 0 229 -85l90 31v-32zM299 19q25 0 41.5 25.5t26.5 73t13.5 115.5t3.5 153
q-16 14 -36 24t-43 10t-40.5 -9t-29.5 -30.5t-18 -58.5t-6 -93q0 -100 20 -155t68 -55z" />
    <glyph glyph-name="ntilde" unicode="&#xf1;" horiz-adv-x="623" 
d="M498 706q-7 -33 -15 -60.5t-19 -47.5t-25.5 -31.5t-33.5 -11.5q-14 0 -39 6t-52.5 13t-52.5 13t-39 6q-32 0 -50 -30l-16 7q12 36 23 63t23 45.5t26.5 27.5t33.5 9q15 0 40 -6t51.5 -12.5t50 -12.5t36.5 -6q14 0 23.5 7t16.5 26zM257 396q26 63 68.5 88.5t93.5 25.5
q65 0 106.5 -41t41.5 -124v-312h45v-33h-275v33h40v325q0 34 -14.5 47t-35.5 13q-6 0 -18 -3t-23.5 -13t-20 -29t-8.5 -52v-288h45v-33h-280v33h45v435h-45v32h235v-104z" />
    <glyph glyph-name="ograve" unicode="&#xf2;" horiz-adv-x="580" 
d="M300 566l-10 -16l-134 34q-43 11 -67 31.5t-24 55.5q0 16 6.5 30.5t17.5 25t26.5 17t32.5 6.5q22 0 45.5 -15t42.5 -50zM555 250q0 -61 -19 -109.5t-53.5 -82t-83.5 -51t-109 -17.5t-109 17.5t-83.5 51t-53.5 82t-19 109.5t19 109.5t53.5 82t83.5 51t109 17.5t109 -17.5
t83.5 -51t53.5 -82t19 -109.5zM225 250q0 -53 1.5 -95.5t8.5 -72.5t19.5 -46t35.5 -16q22 0 35 16t20 45.5t8.5 72t1.5 96.5t-1.5 96.5t-8.5 72t-20 45.5t-35 16q-23 0 -35.5 -16t-19.5 -45.5t-8.5 -72t-1.5 -96.5z" />
    <glyph glyph-name="oacute" unicode="&#xf3;" horiz-adv-x="580" 
d="M344 685q19 35 42.5 50t45.5 15q17 0 32 -6.5t26.5 -17t18 -25t6.5 -30.5q0 -35 -24 -55.5t-67 -31.5l-134 -34l-10 16zM555 250q0 -61 -19 -109.5t-53.5 -82t-83.5 -51t-109 -17.5t-109 17.5t-83.5 51t-53.5 82t-19 109.5t19 109.5t53.5 82t83.5 51t109 17.5t109 -17.5
t83.5 -51t53.5 -82t19 -109.5zM225 250q0 -53 1.5 -95.5t8.5 -72.5t19.5 -46t35.5 -16q22 0 35 16t20 45.5t8.5 72t1.5 96.5t-1.5 96.5t-8.5 72t-20 45.5t-35 16q-23 0 -35.5 -16t-19.5 -45.5t-8.5 -72t-1.5 -96.5z" />
    <glyph glyph-name="ocircumflex" unicode="&#xf4;" horiz-adv-x="580" 
d="M123 556l83 127q21 32 41.5 44.5t42.5 12.5t42.5 -12.5t41.5 -44.5l83 -127l-10 -16l-157 72l-157 -72zM290 510q60 0 109 -17.5t83.5 -51t53.5 -82t19 -109.5t-19 -109.5t-53.5 -82t-83.5 -51t-109 -17.5t-109 17.5t-83.5 51t-53.5 82t-19 109.5t19 109.5t53.5 82
t83.5 51t109 17.5zM290 20q22 0 35 16t20 45.5t8.5 72t1.5 96.5t-1.5 96.5t-8.5 72t-20 45.5t-35 16q-23 0 -35.5 -16t-19.5 -45.5t-8.5 -72t-1.5 -96.5q0 -53 1.5 -95.5t8.5 -72.5t19.5 -46t35.5 -16z" />
    <glyph glyph-name="otilde" unicode="&#xf5;" horiz-adv-x="580" 
d="M461 706q-7 -33 -15 -60.5t-19 -47.5t-25.5 -31.5t-33.5 -11.5q-14 0 -39 6t-52.5 13t-52.5 13t-39 6q-32 0 -50 -30l-16 7q12 36 23 63t23 45.5t26.5 27.5t33.5 9q15 0 40 -6t51.5 -12.5t50 -12.5t36.5 -6q14 0 23.5 7t16.5 26zM555 250q0 -61 -19 -109.5t-53.5 -82
t-83.5 -51t-109 -17.5t-109 17.5t-83.5 51t-53.5 82t-19 109.5t19 109.5t53.5 82t83.5 51t109 17.5t109 -17.5t83.5 -51t53.5 -82t19 -109.5zM225 250q0 -53 1.5 -95.5t8.5 -72.5t19.5 -46t35.5 -16q22 0 35 16t20 45.5t8.5 72t1.5 96.5t-1.5 96.5t-8.5 72t-20 45.5t-35 16
q-23 0 -35.5 -16t-19.5 -45.5t-8.5 -72t-1.5 -96.5z" />
    <glyph glyph-name="odieresis" unicode="&#xf6;" horiz-adv-x="580" 
d="M110 632q0 35 19.5 56.5t60.5 21.5t60.5 -21.5t19.5 -56.5t-19.5 -54t-60.5 -19t-60.5 19t-19.5 54zM310 632q0 35 19.5 56.5t60.5 21.5t60.5 -21.5t19.5 -56.5t-19.5 -54t-60.5 -19t-60.5 19t-19.5 54zM555 250q0 -61 -19 -109.5t-53.5 -82t-83.5 -51t-109 -17.5
t-109 17.5t-83.5 51t-53.5 82t-19 109.5t19 109.5t53.5 82t83.5 51t109 17.5t109 -17.5t83.5 -51t53.5 -82t19 -109.5zM225 250q0 -53 1.5 -95.5t8.5 -72.5t19.5 -46t35.5 -16q22 0 35 16t20 45.5t8.5 72t1.5 96.5t-1.5 96.5t-8.5 72t-20 45.5t-35 16q-23 0 -35.5 -16
t-19.5 -45.5t-8.5 -72t-1.5 -96.5z" />
    <glyph glyph-name="divide" unicode="&#xf7;" horiz-adv-x="442" 
d="M185 381q0 15 9.5 24.5t26.5 9.5t26 -9.5t9 -24.5q0 -35 -35 -35q-36 0 -36 35zM51 266h340v-32h-340v32zM185 119q0 16 9.5 25.5t26.5 9.5t26 -9.5t9 -25.5q0 -34 -35 -34q-36 0 -36 34z" />
    <glyph glyph-name="oslash" unicode="&#xf8;" horiz-adv-x="580" 
d="M420 483q64 -29 99.5 -88.5t35.5 -144.5q0 -61 -19 -109.5t-53.5 -82t-83.5 -51t-109 -17.5q-71 0 -127 25l-36 -65h-35l44 79q-53 32 -82 88t-29 133q0 61 19 109.5t53.5 82t83.5 51t109 17.5q55 0 102 -15l30 55h35zM346 412q-6 33 -19 50.5t-37 17.5q-23 0 -35.5 -16
t-19.5 -45.5t-8.5 -72t-1.5 -96.5v-57zM228 134q5 -54 18 -84t44 -30q22 0 35 16t20 45.5t8.5 72t1.5 96.5q0 32 -0.5 59.5t-2.5 50.5z" />
    <glyph glyph-name="ugrave" unicode="&#xf9;" horiz-adv-x="616" 
d="M306 566l-10 -16l-134 34q-43 11 -67 31.5t-24 55.5q0 16 6.5 30.5t17.5 25t26.5 17t32.5 6.5q22 0 45.5 -15t42.5 -50zM365 0h235v33h-45v467h-255v-32h65v-288q0 -33 -8.5 -52t-20 -29t-23.5 -13t-18 -3q-21 0 -35.5 13t-14.5 47v357h-235v-32h45v-313q0 -83 41.5 -124
t106.5 -41q51 0 93.5 25.5t68.5 88.5v-104z" />
    <glyph glyph-name="uacute" unicode="&#xfa;" horiz-adv-x="616" 
d="M350 685q19 35 42.5 50t45.5 15q17 0 32 -6.5t26.5 -17t18 -25t6.5 -30.5q0 -35 -24 -55.5t-67 -31.5l-134 -34l-10 16zM365 104q-26 -63 -68.5 -88.5t-93.5 -25.5q-65 0 -106.5 41t-41.5 124v313h-45v32h235v-357q0 -34 14.5 -47t35.5 -13q6 0 18 3t23.5 13t20 29
t8.5 52v288h-65v32h255v-467h45v-33h-235v104z" />
    <glyph glyph-name="ucircumflex" unicode="&#xfb;" horiz-adv-x="616" 
d="M129 556l83 127q21 32 41.5 44.5t42.5 12.5t42.5 -12.5t41.5 -44.5l83 -127l-10 -16l-157 72l-157 -72zM600 0h-235v104q-26 -63 -68.5 -88.5t-93.5 -25.5q-65 0 -106.5 41t-41.5 124v313h-45v32h235v-357q0 -34 14.5 -47t35.5 -13q6 0 18 3t23.5 13t20 29t8.5 52v288
h-65v32h255v-467h45v-33z" />
    <glyph glyph-name="udieresis" unicode="&#xfc;" horiz-adv-x="616" 
d="M116 632q0 35 19.5 56.5t60.5 21.5t60.5 -21.5t19.5 -56.5t-19.5 -54t-60.5 -19t-60.5 19t-19.5 54zM316 632q0 35 19.5 56.5t60.5 21.5t60.5 -21.5t19.5 -56.5t-19.5 -54t-60.5 -19t-60.5 19t-19.5 54zM365 104q-26 -63 -68.5 -88.5t-93.5 -25.5q-65 0 -106.5 41
t-41.5 124v313h-45v32h235v-357q0 -34 14.5 -47t35.5 -13q6 0 18 3t23.5 13t20 29t8.5 52v288h-65v32h255v-467h45v-33h-235v104z" />
    <glyph glyph-name="yacute" unicode="&#xfd;" horiz-adv-x="565" 
d="M337 685q19 35 42.5 50t45.5 15q17 0 32 -6.5t26.5 -17t18 -25t6.5 -30.5q0 -35 -24 -55.5t-67 -31.5l-134 -34l-10 16zM-12 500h363v-32h-87l110 -320h2l103 320h-98v32h198v-32h-65l-154 -469q-13 -39 -31 -76.5t-45 -67t-64.5 -47.5t-89.5 -18q-35 0 -60.5 8t-42.5 21
t-25.5 30t-8.5 36q0 38 23 56.5t52 18.5q28 0 51 -14.5t23 -52.5q0 -16 -12 -37.5t-43 -30.5q6 -3 16.5 -5.5t21.5 -2.5q15 0 40 3.5t53 20.5t55.5 53t47.5 101h-111l-174 473h-48v32z" />
    <glyph glyph-name="thorn" unicode="&#xfe;" horiz-adv-x="597" 
d="M289 -168v-32h-280v32h45v856h-45v32h235v-296q10 27 27 44t36 26t38 12.5t34 3.5q97 0 143.5 -65t46.5 -195q0 -56 -13 -104t-38.5 -82.5t-62 -54t-84.5 -19.5q-32 0 -66 10.5t-61 28.5v-197h45zM244 55q9 -4 21 -7t26 -3q44 0 61 48t17 157q0 105 -11.5 154t-48.5 49
q-7 0 -18 -4.5t-21.5 -17.5t-18 -37t-7.5 -63v-276z" />
    <glyph glyph-name="ydieresis" unicode="&#xff;" horiz-adv-x="565" 
d="M103 632q0 35 19.5 56.5t60.5 21.5t60.5 -21.5t19.5 -56.5t-19.5 -54t-60.5 -19t-60.5 19t-19.5 54zM303 632q0 35 19.5 56.5t60.5 21.5t60.5 -21.5t19.5 -56.5t-19.5 -54t-60.5 -19t-60.5 19t-19.5 54zM-12 500h363v-32h-87l110 -320h2l103 320h-98v32h198v-32h-65
l-154 -469q-13 -39 -31 -76.5t-45 -67t-64.5 -47.5t-89.5 -18q-35 0 -60.5 8t-42.5 21t-25.5 30t-8.5 36q0 38 23 56.5t52 18.5q28 0 51 -14.5t23 -52.5q0 -16 -12 -37.5t-43 -30.5q6 -3 16.5 -5.5t21.5 -2.5q15 0 40 3.5t53 20.5t55.5 53t47.5 101h-111l-174 473h-48v32z
" />
    <glyph glyph-name="Amacron" unicode="&#x100;" horiz-adv-x="692" 
d="M481 821v-32h-280v32h280zM357 0v35h68l-53 149h-226l-49 -149h118v-35h-231v35h75l228 670h115l250 -670h48v-35h-343zM255 511l-97 -292h202l-103 292h-2z" />
    <glyph glyph-name="amacron" unicode="&#x101;" horiz-adv-x="542" 
d="M404 621v-32h-280v32h280zM491 85q0 -32 24 -32q16 0 26 7v-30q-26 -19 -60.5 -29.5t-72.5 -10.5q-33 0 -54 6t-33 16.5t-16 24t-4 28.5v36q-23 -62 -62.5 -86.5t-84.5 -24.5q-28 0 -52.5 8.5t-42.5 25t-28 40.5t-10 56q0 33 15 62.5t48 52t86.5 36t130.5 16.5v122
q0 38 -25.5 54t-59.5 16q-29 0 -57.5 -11t-40.5 -25q24 0 40.5 -6.5t27 -17.5t15.5 -25t5 -28q0 -32 -19.5 -54t-61.5 -22t-63 23t-21 58q0 24 14 48.5t42 45t69.5 33t97.5 12.5q74 0 118.5 -17t68.5 -47t32 -71t8 -90v-200zM301 262q-15 0 -29.5 -7t-25.5 -20t-18 -30.5
t-7 -39.5q0 -32 12 -46.5t27 -14.5t28 12t13 48v98z" />
    <glyph glyph-name="Abreve" unicode="&#x102;" horiz-adv-x="692" 
d="M207 930q5 -30 39.5 -50t94.5 -20q61 0 96 20t40 50h22q-5 -37 -16 -70t-30 -57.5t-46.5 -38.5t-65.5 -14q-37 0 -64.5 14t-46.5 38.5t-30 57.5t-16 70h23zM357 0v35h68l-53 149h-226l-49 -149h118v-35h-231v35h75l228 670h115l250 -670h48v-35h-343zM255 511l-97 -292
h202l-103 292h-2z" />
    <glyph glyph-name="abreve" unicode="&#x103;" horiz-adv-x="542" 
d="M130 730q5 -30 39.5 -50t94.5 -20q61 0 96 20t40 50h22q-5 -37 -16 -70t-30 -57.5t-46.5 -38.5t-65.5 -14q-37 0 -64.5 14t-46.5 38.5t-30 57.5t-16 70h23zM491 85q0 -32 24 -32q16 0 26 7v-30q-26 -19 -60.5 -29.5t-72.5 -10.5q-33 0 -54 6t-33 16.5t-16 24t-4 28.5v36
q-23 -62 -62.5 -86.5t-84.5 -24.5q-28 0 -52.5 8.5t-42.5 25t-28 40.5t-10 56q0 33 15 62.5t48 52t86.5 36t130.5 16.5v122q0 38 -25.5 54t-59.5 16q-29 0 -57.5 -11t-40.5 -25q24 0 40.5 -6.5t27 -17.5t15.5 -25t5 -28q0 -32 -19.5 -54t-61.5 -22t-63 23t-21 58
q0 24 14 48.5t42 45t69.5 33t97.5 12.5q74 0 118.5 -17t68.5 -47t32 -71t8 -90v-200zM301 262q-15 0 -29.5 -7t-25.5 -20t-18 -30.5t-7 -39.5q0 -32 12 -46.5t27 -14.5t28 12t13 48v98z" />
    <glyph glyph-name="Aogonek" unicode="&#x104;" horiz-adv-x="692" 
d="M572 0q-21 -24 -32.5 -58.5t-11.5 -66.5q0 -30 15 -44t29 -14q18 0 36 12l6 -15q-17 -14 -41.5 -21.5t-48.5 -7.5q-50 0 -74.5 22.5t-24.5 57.5q0 23 12.5 43.5t31 37.5t40.5 30.5t42 23.5h-194v35h68l-53 149h-226l-49 -149h118v-35h-231v35h75l228 670h115l250 -670h48
v-35h-128zM257 511h-2l-97 -292h202z" />
    <glyph glyph-name="aogonek" unicode="&#x105;" horiz-adv-x="542" 
d="M583 -156q-17 -14 -41.5 -21.5t-48.5 -7.5q-50 0 -74.5 22.5t-24.5 57.5q0 31 20.5 56t48.5 45q-26 -6 -55 -6q-33 0 -54 6t-33 16.5t-16 24t-4 28.5v36q-23 -62 -62.5 -86.5t-84.5 -24.5q-28 0 -52.5 8.5t-42.5 25t-28 40.5t-10 56q0 33 15 62.5t48 52t86.5 36
t130.5 16.5v122q0 38 -25.5 54t-59.5 16q-29 0 -57.5 -11t-40.5 -25q24 0 40.5 -6.5t27 -17.5t15.5 -25t5 -28q0 -32 -19.5 -54t-61.5 -22t-63 23t-21 58q0 24 14 48.5t42 45t69.5 33t97.5 12.5q74 0 118.5 -17t68.5 -47t32 -71t8 -90v-200q0 -32 24 -32q16 0 26 7v-30
q-21 -24 -32.5 -58.5t-11.5 -66.5q0 -30 15 -44t29 -14q18 0 36 12zM301 262q-15 0 -29.5 -7t-25.5 -20t-18 -30.5t-7 -39.5q0 -32 12 -46.5t27 -14.5t28 12t13 48v98z" />
    <glyph glyph-name="Cacute" unicode="&#x106;" horiz-adv-x="665" 
d="M438 885q19 35 42.5 50t45.5 15q17 0 32 -6.5t26.5 -17t18 -25t6.5 -30.5q0 -35 -24 -55.5t-67 -31.5l-134 -34l-10 16zM569 33q-29 -14 -57 -22.5t-52 -13t-43.5 -6t-32.5 -1.5q-71 0 -134.5 25.5t-111.5 72.5t-76 113.5t-28 148.5t28 148.5t76 113.5t111.5 72.5
t134.5 25.5q26 0 76 -7t109 -35l27 37h25v-225h-32q-22 54 -46 91.5t-49 60.5t-51 33t-52 10q-46 0 -74 -32.5t-43 -81.5t-20 -105.5t-5 -105.5q0 -32 2 -69t7.5 -73t15.5 -69t25.5 -58.5t38 -40.5t53.5 -15q26 0 52 10t51 33t49 60.5t46 91.5h32v-225h-25z" />
    <glyph glyph-name="cacute" unicode="&#x107;" horiz-adv-x="543" 
d="M352 685q19 35 42.5 50t45.5 15q17 0 32 -6.5t26.5 -17t18 -25t6.5 -30.5q0 -35 -24 -55.5t-67 -31.5l-134 -34l-10 16zM518 72q-14 -13 -33.5 -27.5t-46 -26.5t-61 -20t-77.5 -8q-61 0 -111.5 18.5t-87 52t-57 81.5t-20.5 108q0 67 25 116t64.5 81t88.5 47.5t96 15.5
q56 0 98 -12.5t70 -32.5t42 -45t14 -50q0 -36 -21.5 -59t-63.5 -23t-61 22t-19 54q0 14 4.5 28t15 25t27.5 17.5t41 6.5q-12 13 -39.5 24t-56.5 11q-60 0 -92.5 -52t-32.5 -169q0 -114 40 -164t103 -50q48 0 86.5 20t64.5 43v-32z" />
    <glyph glyph-name="Ccircumflex" unicode="&#x108;" horiz-adv-x="665" 
d="M217 756l83 127q21 32 41.5 44.5t42.5 12.5t42.5 -12.5t41.5 -44.5l83 -127l-10 -16l-157 72l-157 -72zM589 480q-22 54 -46 91.5t-49 60.5t-51 33t-52 10q-46 0 -74 -32.5t-43 -81.5t-20 -105.5t-5 -105.5q0 -32 2 -69t7.5 -73t15.5 -69t25.5 -58.5t38 -40.5t53.5 -15
q26 0 52 10t51 33t49 60.5t46 91.5h32v-225h-25l-27 38q-29 -14 -57 -22.5t-52 -13t-43.5 -6t-32.5 -1.5q-71 0 -134.5 25.5t-111.5 72.5t-76 113.5t-28 148.5t28 148.5t76 113.5t111.5 72.5t134.5 25.5q26 0 76 -7t109 -35l27 37h25v-225h-32z" />
    <glyph glyph-name="ccircumflex" unicode="&#x109;" horiz-adv-x="543" 
d="M131 556l83 127q21 32 41.5 44.5t42.5 12.5t42.5 -12.5t41.5 -44.5l83 -127l-10 -16l-157 72l-157 -72zM518 72q-14 -13 -33.5 -27.5t-46 -26.5t-61 -20t-77.5 -8q-61 0 -111.5 18.5t-87 52t-57 81.5t-20.5 108q0 67 25 116t64.5 81t88.5 47.5t96 15.5q56 0 98 -12.5
t70 -32.5t42 -45t14 -50q0 -36 -21.5 -59t-63.5 -23t-61 22t-19 54q0 14 4.5 28t15 25t27.5 17.5t41 6.5q-12 13 -39.5 24t-56.5 11q-60 0 -92.5 -52t-32.5 -169q0 -114 40 -164t103 -50q48 0 86.5 20t64.5 43v-32z" />
    <glyph glyph-name="Cdotaccent" unicode="&#x10a;" horiz-adv-x="665" 
d="M304 832q0 35 19.5 56.5t60.5 21.5t60.5 -21.5t19.5 -56.5t-19.5 -54t-60.5 -19t-60.5 19t-19.5 54zM569 33q-29 -14 -57 -22.5t-52 -13t-43.5 -6t-32.5 -1.5q-71 0 -134.5 25.5t-111.5 72.5t-76 113.5t-28 148.5t28 148.5t76 113.5t111.5 72.5t134.5 25.5q26 0 76 -7
t109 -35l27 37h25v-225h-32q-22 54 -46 91.5t-49 60.5t-51 33t-52 10q-46 0 -74 -32.5t-43 -81.5t-20 -105.5t-5 -105.5q0 -32 2 -69t7.5 -73t15.5 -69t25.5 -58.5t38 -40.5t53.5 -15q26 0 52 10t51 33t49 60.5t46 91.5h32v-225h-25z" />
    <glyph glyph-name="cdotaccent" unicode="&#x10b;" horiz-adv-x="543" 
d="M218 632q0 35 19.5 56.5t60.5 21.5t60.5 -21.5t19.5 -56.5t-19.5 -54t-60.5 -19t-60.5 19t-19.5 54zM518 72q-14 -13 -33.5 -27.5t-46 -26.5t-61 -20t-77.5 -8q-61 0 -111.5 18.5t-87 52t-57 81.5t-20.5 108q0 67 25 116t64.5 81t88.5 47.5t96 15.5q56 0 98 -12.5
t70 -32.5t42 -45t14 -50q0 -36 -21.5 -59t-63.5 -23t-61 22t-19 54q0 14 4.5 28t15 25t27.5 17.5t41 6.5q-12 13 -39.5 24t-56.5 11q-60 0 -92.5 -52t-32.5 -169q0 -114 40 -164t103 -50q48 0 86.5 20t64.5 43v-32z" />
    <glyph glyph-name="Ccaron" unicode="&#x10c;" horiz-adv-x="665" 
d="M468 798q-21 -33 -41.5 -45.5t-42.5 -12.5t-42.5 12.5t-41.5 45.5l-83 126l10 16l157 -72l157 72l10 -16zM589 480q-22 54 -46 91.5t-49 60.5t-51 33t-52 10q-46 0 -74 -32.5t-43 -81.5t-20 -105.5t-5 -105.5q0 -32 2 -69t7.5 -73t15.5 -69t25.5 -58.5t38 -40.5t53.5 -15
q26 0 52 10t51 33t49 60.5t46 91.5h32v-225h-25l-27 38q-29 -14 -57 -22.5t-52 -13t-43.5 -6t-32.5 -1.5q-71 0 -134.5 25.5t-111.5 72.5t-76 113.5t-28 148.5t28 148.5t76 113.5t111.5 72.5t134.5 25.5q26 0 76 -7t109 -35l27 37h25v-225h-32z" />
    <glyph glyph-name="ccaron" unicode="&#x10d;" horiz-adv-x="543" 
d="M382 598q-21 -33 -41.5 -45.5t-42.5 -12.5t-42.5 12.5t-41.5 45.5l-83 126l10 16l157 -72l157 72l10 -16zM518 72q-14 -13 -33.5 -27.5t-46 -26.5t-61 -20t-77.5 -8q-61 0 -111.5 18.5t-87 52t-57 81.5t-20.5 108q0 67 25 116t64.5 81t88.5 47.5t96 15.5q56 0 98 -12.5
t70 -32.5t42 -45t14 -50q0 -36 -21.5 -59t-63.5 -23t-61 22t-19 54q0 14 4.5 28t15 25t27.5 17.5t41 6.5q-12 13 -39.5 24t-56.5 11q-60 0 -92.5 -52t-32.5 -169q0 -114 40 -164t103 -50q48 0 86.5 20t64.5 43v-32z" />
    <glyph glyph-name="Dcaron" unicode="&#x10e;" horiz-adv-x="770" 
d="M465 798q-21 -33 -41.5 -45.5t-42.5 -12.5t-42.5 12.5t-41.5 45.5l-83 126l10 16l157 -72l157 72l10 -16zM381 700q70 0 134.5 -24.5t113.5 -69.5t78 -110t29 -146q0 -82 -29 -147t-78 -110t-113.5 -69t-134.5 -24h-340v35h45v630h-45v35h340zM381 35q47 0 75 31t42.5 78
t18.5 102t4 104t-4 104t-18.5 102t-42.5 78t-75 31h-95v-630h95z" />
    <glyph glyph-name="dcaron" unicode="&#x10f;" horiz-adv-x="740" 
d="M308 720h235v-687h45v-33h-235v76q-10 -27 -27 -44t-36 -26t-38 -12.5t-34 -3.5q-97 0 -143.5 65t-46.5 195q0 56 13 104t38.5 82.5t62 54t84.5 19.5q32 0 66 -10.5t61 -28.5v217h-45v32zM596 427q16 8 31.5 18.5t28.5 24.5t22.5 31.5t12.5 38.5q-106 2 -106 82
q0 42 24.5 65t65.5 23t65.5 -26t24.5 -67q0 -20 -5.5 -46t-22.5 -54t-48.5 -56t-82.5 -52zM353 445q-8 4 -20.5 7t-26.5 3q-44 0 -61 -48t-17 -157q0 -105 11 -153.5t49 -48.5q7 0 18 4.5t21.5 17.5t18 37t7.5 63v275z" />
    <glyph glyph-name="Dcroat" unicode="&#x110;" horiz-adv-x="771" 
d="M382 700q70 0 134.5 -24.5t113.5 -69.5t78 -110t29 -146q0 -82 -29 -147t-78 -110t-113.5 -69t-134.5 -24h-340v35h45v299h-45v32h45v299h-45v35h340zM382 35q47 0 75 31t42.5 78t18.5 102t4 104t-4 104t-18.5 102t-42.5 78t-75 31h-95v-299h75v-32h-75v-299h95z" />
    <glyph glyph-name="dcroat" unicode="&#x111;" horiz-adv-x="604" 
d="M543 563v-530h45v-33h-235v76q-10 -27 -27 -44t-36 -26t-38 -12.5t-34 -3.5q-97 0 -143.5 65t-46.5 195q0 56 13 104t38.5 82.5t62 54t84.5 19.5q32 0 66 -10.5t61 -28.5v92h-105v25h105v100h-45v32h235v-132h45v-25h-45zM353 445q-8 4 -20.5 7t-26.5 3q-44 0 -61 -48
t-17 -157q0 -105 11 -153.5t49 -48.5q7 0 18 4.5t21.5 17.5t18 37t7.5 63v275z" />
    <glyph glyph-name="Emacron" unicode="&#x112;" horiz-adv-x="633" 
d="M476 821v-32h-280v32h280zM41 0v35h45v630h-45v35h543v-190h-30l-94 155h-174v-289h95l63 104h30v-242h-30l-63 103h-95v-306h184l94 155h30v-190h-553z" />
    <glyph glyph-name="emacron" unicode="&#x113;" horiz-adv-x="547" 
d="M431 621v-32h-280v32h280zM510 72q-14 -13 -33.5 -27.5t-46 -26.5t-60.5 -20t-78 -8q-61 0 -110.5 18.5t-84.5 52t-54 81.5t-19 108q0 67 24 116t62 81t85.5 47.5t95.5 15.5q43 0 85 -11t75 -36t53 -65.5t20 -99.5q0 -11 -1 -27.5t-3 -27.5h-296q0 -57 9.5 -96
t27.5 -62.5t43 -33.5t55 -10q48 0 86.5 20t64.5 43v-32zM341 275q0 2 0.5 10.5t1 19t1 21.5t0.5 18q0 19 -2 42.5t-7.5 44.5t-16 35t-26.5 14q-20 0 -32.5 -16.5t-20.5 -44t-11.5 -65t-3.5 -79.5h117z" />
    <glyph glyph-name="Ebreve" unicode="&#x114;" horiz-adv-x="633" 
d="M202 930q5 -30 39.5 -50t94.5 -20q61 0 96 20t40 50h22q-5 -37 -16 -70t-30 -57.5t-46.5 -38.5t-65.5 -14q-37 0 -64.5 14t-46.5 38.5t-30 57.5t-16 70h23zM41 0v35h45v630h-45v35h543v-190h-30l-94 155h-174v-289h95l63 104h30v-242h-30l-63 103h-95v-306h184l94 155h30
v-190h-553z" />
    <glyph glyph-name="ebreve" unicode="&#x115;" horiz-adv-x="547" 
d="M156 730q5 -30 39.5 -50t94.5 -20q61 0 96 20t40 50h22q-5 -37 -16 -70t-30 -57.5t-46.5 -38.5t-65.5 -14q-37 0 -64.5 14t-46.5 38.5t-30 57.5t-16 70h23zM510 72q-14 -13 -33.5 -27.5t-46 -26.5t-60.5 -20t-78 -8q-61 0 -110.5 18.5t-84.5 52t-54 81.5t-19 108
q0 67 24 116t62 81t85.5 47.5t95.5 15.5q43 0 85 -11t75 -36t53 -65.5t20 -99.5q0 -11 -1 -27.5t-3 -27.5h-296q0 -57 9.5 -96t27.5 -62.5t43 -33.5t55 -10q48 0 86.5 20t64.5 43v-32zM341 275q0 2 0.5 10.5t1 19t1 21.5t0.5 18q0 19 -2 42.5t-7.5 44.5t-16 35t-26.5 14
q-20 0 -32.5 -16.5t-20.5 -44t-11.5 -65t-3.5 -79.5h117z" />
    <glyph glyph-name="Edotaccent" unicode="&#x116;" horiz-adv-x="633" 
d="M256 832q0 35 19.5 56.5t60.5 21.5t60.5 -21.5t19.5 -56.5t-19.5 -54t-60.5 -19t-60.5 19t-19.5 54zM41 0v35h45v630h-45v35h543v-190h-30l-94 155h-174v-289h95l63 104h30v-242h-30l-63 103h-95v-306h184l94 155h30v-190h-553z" />
    <glyph glyph-name="edotaccent" unicode="&#x117;" horiz-adv-x="547" 
d="M211 632q0 35 19.5 56.5t60.5 21.5t60.5 -21.5t19.5 -56.5t-19.5 -54t-60.5 -19t-60.5 19t-19.5 54zM510 72q-14 -13 -33.5 -27.5t-46 -26.5t-60.5 -20t-78 -8q-61 0 -110.5 18.5t-84.5 52t-54 81.5t-19 108q0 67 24 116t62 81t85.5 47.5t95.5 15.5q43 0 85 -11t75 -36
t53 -65.5t20 -99.5q0 -11 -1 -27.5t-3 -27.5h-296q0 -57 9.5 -96t27.5 -62.5t43 -33.5t55 -10q48 0 86.5 20t64.5 43v-32zM341 275q0 2 0.5 10.5t1 19t1 21.5t0.5 18q0 19 -2 42.5t-7.5 44.5t-16 35t-26.5 14q-20 0 -32.5 -16.5t-20.5 -44t-11.5 -65t-3.5 -79.5h117z" />
    <glyph glyph-name="Eogonek" unicode="&#x118;" horiz-adv-x="633" 
d="M636 -186q-17 -14 -41.5 -21.5t-48.5 -7.5q-50 0 -74.5 22.5t-24.5 57.5q0 23 12.5 43.5t31 37.5t40.5 30.5t42 23.5h-532v35h45v630h-45v35h543v-190h-30l-94 155h-174v-289h95l63 104h30v-242h-30l-63 103h-95v-306h184l94 155h30v-190q-21 -24 -32.5 -58.5
t-11.5 -66.5q0 -30 15 -44t29 -14q18 0 36 12z" />
    <glyph glyph-name="eogonek" unicode="&#x119;" horiz-adv-x="547" 
d="M552 -114q-17 -14 -41.5 -21.5t-48.5 -7.5q-50 0 -74.5 22.5t-24.5 57.5q0 20 10 37t26 32q-23 -8 -49 -12t-58 -4q-61 0 -110.5 18.5t-84.5 52t-54 81.5t-19 108q0 67 24 116t62 81t85.5 47.5t95.5 15.5q43 0 85 -11t75 -36t53 -65.5t20 -99.5q0 -11 -1 -27.5t-3 -27.5
h-296q0 -57 9.5 -96t27.5 -62.5t43 -33.5t55 -10q48 0 86.5 20t64.5 43v-32q-20 -24 -32 -58.5t-12 -66.5q0 -30 15 -44t29 -14q19 0 36 12zM341 275q0 2 0.5 10.5t1 19t1 21.5t0.5 18q0 19 -2 42.5t-7.5 44.5t-16 35t-26.5 14q-20 0 -32.5 -16.5t-20.5 -44t-11.5 -65
t-3.5 -79.5h117z" />
    <glyph glyph-name="Ecaron" unicode="&#x11a;" horiz-adv-x="633" 
d="M420 798q-21 -33 -41.5 -45.5t-42.5 -12.5t-42.5 12.5t-41.5 45.5l-83 126l10 16l157 -72l157 72l10 -16zM594 0h-553v35h45v630h-45v35h543v-190h-30l-94 155h-174v-289h95l63 104h30v-242h-30l-63 103h-95v-306h184l94 155h30v-190z" />
    <glyph glyph-name="ecaron" unicode="&#x11b;" horiz-adv-x="547" 
d="M375 598q-21 -33 -41.5 -45.5t-42.5 -12.5t-42.5 12.5t-41.5 45.5l-83 126l10 16l157 -72l157 72l10 -16zM510 72q-14 -13 -33.5 -27.5t-46 -26.5t-60.5 -20t-78 -8q-61 0 -110.5 18.5t-84.5 52t-54 81.5t-19 108q0 67 24 116t62 81t85.5 47.5t95.5 15.5q43 0 85 -11
t75 -36t53 -65.5t20 -99.5q0 -11 -1 -27.5t-3 -27.5h-296q0 -57 9.5 -96t27.5 -62.5t43 -33.5t55 -10q48 0 86.5 20t64.5 43v-32zM341 275q0 2 0.5 10.5t1 19t1 21.5t0.5 18q0 19 -2 42.5t-7.5 44.5t-16 35t-26.5 14q-20 0 -32.5 -16.5t-20.5 -44t-11.5 -65t-3.5 -79.5h117z
" />
    <glyph glyph-name="Gcircumflex" unicode="&#x11c;" horiz-adv-x="689" 
d="M217 756l83 127q21 32 41.5 44.5t42.5 12.5t42.5 -12.5t41.5 -44.5l83 -127l-10 -16l-157 72l-157 -72zM659 305h-38v-315h-25l-27 43q-29 -14 -57 -22.5t-52 -13t-43.5 -6t-32.5 -1.5q-71 0 -134.5 25.5t-111.5 72.5t-76 113.5t-28 148.5t28 148.5t76 113.5t111.5 72.5
t134.5 25.5q26 0 76 -7t109 -35l27 42h25v-230h-32q-22 54 -46 91.5t-49 60.5t-51 33t-52 10q-46 0 -74 -32.5t-43 -81.5t-20 -105.5t-5 -105.5q0 -32 2 -69t8 -73t17 -69t28.5 -58.5t42.5 -40.5t59 -15q7 0 12 0.5t13 2.5v277h-57v35h285v-35z" />
    <glyph glyph-name="gcircumflex" unicode="&#x11d;" horiz-adv-x="580" 
d="M97 556l83 127q21 32 41.5 44.5t42.5 12.5t42.5 -12.5t41.5 -44.5l83 -127l-10 -16l-157 72l-157 -72zM360 120q40 0 75 -7.5t61.5 -25t42 -46t15.5 -71.5q0 -45 -26 -79t-69 -56.5t-98.5 -33.5t-113.5 -11q-41 0 -81.5 3t-73 13t-53 27.5t-20.5 46.5q0 19 12 33t30.5 23
t42.5 13.5t48 5.5q-51 14 -76 42t-25 64q0 30 13 52t33.5 37t46 24t51.5 14q-42 11 -70.5 28t-46.5 37t-26 43.5t-8 48.5q0 75 57.5 120t162.5 45q48 0 82.5 -9.5t60.5 -25.5q6 12 15.5 24t22.5 22.5t30.5 17t40.5 6.5q38 0 58 -19.5t20 -51.5q0 -27 -16.5 -47t-46.5 -20
q-11 0 -23.5 3.5t-23.5 13t-19 26.5t-10 43q-16 -12 -29 -31q32 -26 45 -58.5t13 -58.5q0 -75 -57 -120t-163 -45q-13 0 -26 -1t-23.5 -4.5t-17 -9.5t-6.5 -16q0 -18 15 -23.5t49 -5.5h105zM264 210q15 0 24 11.5t13.5 30.5t6 43.5t1.5 49.5t-1.5 49.5t-6 43.5t-13.5 30.5
t-24 11.5t-24 -11.5t-13.5 -30.5t-6 -43.5t-1.5 -49.5t1.5 -49.5t6 -43.5t13.5 -30.5t24 -11.5zM216 -45q-23 0 -36 -7t-19.5 -16.5t-8.5 -20t-2 -16.5q0 -37 32 -55t82 -18q66 0 100.5 20.5t34.5 57.5q0 8 -3 17.5t-12.5 18t-26 14t-43.5 5.5h-98z" />
    <glyph glyph-name="Gbreve" unicode="&#x11e;" horiz-adv-x="689" 
d="M249 930q5 -30 39.5 -50t94.5 -20q61 0 96 20t40 50h22q-5 -37 -16 -70t-30 -57.5t-46.5 -38.5t-65.5 -14q-37 0 -64.5 14t-46.5 38.5t-30 57.5t-16 70h23zM659 340v-35h-38v-315h-25l-27 43q-29 -14 -57 -22.5t-52 -13t-43.5 -6t-32.5 -1.5q-71 0 -134.5 25.5
t-111.5 72.5t-76 113.5t-28 148.5t28 148.5t76 113.5t111.5 72.5t134.5 25.5q26 0 76 -7t109 -35l27 42h25v-230h-32q-22 54 -46 91.5t-49 60.5t-51 33t-52 10q-46 0 -74 -32.5t-43 -81.5t-20 -105.5t-5 -105.5q0 -33 2 -69.5t8 -72.5t17 -69t28.5 -58.5t42.5 -40.5t59 -15
q7 0 12 0.5t13 2.5v277h-57v35h285z" />
    <glyph glyph-name="gbreve" unicode="&#x11f;" horiz-adv-x="580" 
d="M129 730q5 -30 39.5 -50t94.5 -20q61 0 96 20t40 50h22q-5 -37 -16 -70t-30 -57.5t-46.5 -38.5t-65.5 -14q-37 0 -64.5 14t-46.5 38.5t-30 57.5t-16 70h23zM360 120q40 0 75 -7.5t61.5 -25t42 -46t15.5 -71.5q0 -45 -26 -79t-69 -56.5t-98.5 -33.5t-113.5 -11
q-41 0 -81.5 3t-73 13t-53 27.5t-20.5 46.5q0 19 12 33t30.5 23t42.5 13.5t48 5.5q-51 14 -76 42t-25 64q0 30 13 52t33.5 37t46 24t51.5 14q-42 11 -70.5 28t-46.5 37t-26 43.5t-8 48.5q0 75 57.5 120t162.5 45q48 0 82.5 -9.5t60.5 -25.5q6 12 15.5 24t22.5 22.5t30.5 17
t40.5 6.5q38 0 58 -19.5t20 -51.5q0 -27 -16.5 -47t-46.5 -20q-11 0 -23.5 3.5t-23.5 13t-19 26.5t-10 43q-16 -12 -29 -31q32 -26 45 -58.5t13 -58.5q0 -75 -57 -120t-163 -45q-13 0 -26 -1t-23.5 -4.5t-17 -9.5t-6.5 -16q0 -18 15 -23.5t49 -5.5h105zM264 210
q15 0 24 11.5t13.5 30.5t6 43.5t1.5 49.5t-1.5 49.5t-6 43.5t-13.5 30.5t-24 11.5t-24 -11.5t-13.5 -30.5t-6 -43.5t-1.5 -49.5t1.5 -49.5t6 -43.5t13.5 -30.5t24 -11.5zM216 -45q-23 0 -36 -7t-19.5 -16.5t-8.5 -20t-2 -16.5q0 -37 32 -55t82 -18q66 0 100.5 20.5
t34.5 57.5q0 8 -3 17.5t-12.5 18t-26 14t-43.5 5.5h-98z" />
    <glyph glyph-name="Gdotaccent" unicode="&#x120;" horiz-adv-x="689" 
d="M304 832q0 35 19.5 56.5t60.5 21.5t60.5 -21.5t19.5 -56.5t-19.5 -54t-60.5 -19t-60.5 19t-19.5 54zM659 340v-35h-38v-315h-25l-27 43q-29 -14 -57 -22.5t-52 -13t-43.5 -6t-32.5 -1.5q-71 0 -134.5 25.5t-111.5 72.5t-76 113.5t-28 148.5t28 148.5t76 113.5t111.5 72.5
t134.5 25.5q26 0 76 -7t109 -35l27 42h25v-230h-32q-22 54 -46 91.5t-49 60.5t-51 33t-52 10q-46 0 -74 -32.5t-43 -81.5t-20 -105.5t-5 -105.5q0 -33 2 -69.5t8 -72.5t17 -69t28.5 -58.5t42.5 -40.5t59 -15q7 0 12 0.5t13 2.5v277h-57v35h285z" />
    <glyph glyph-name="gdotaccent" unicode="&#x121;" horiz-adv-x="580" 
d="M184 632q0 35 19.5 56.5t60.5 21.5t60.5 -21.5t19.5 -56.5t-19.5 -54t-60.5 -19t-60.5 19t-19.5 54zM360 120q40 0 75 -7.5t61.5 -25t42 -46t15.5 -71.5q0 -45 -26 -79t-69 -56.5t-98.5 -33.5t-113.5 -11q-41 0 -81.5 3t-73 13t-53 27.5t-20.5 46.5q0 19 12 33t30.5 23
t42.5 13.5t48 5.5q-51 14 -76 42t-25 64q0 30 13 52t33.5 37t46 24t51.5 14q-42 11 -70.5 28t-46.5 37t-26 43.5t-8 48.5q0 75 57.5 120t162.5 45q48 0 82.5 -9.5t60.5 -25.5q6 12 15.5 24t22.5 22.5t30.5 17t40.5 6.5q38 0 58 -19.5t20 -51.5q0 -27 -16.5 -47t-46.5 -20
q-11 0 -23.5 3.5t-23.5 13t-19 26.5t-10 43q-16 -12 -29 -31q32 -26 45 -58.5t13 -58.5q0 -75 -57 -120t-163 -45q-13 0 -26 -1t-23.5 -4.5t-17 -9.5t-6.5 -16q0 -18 15 -23.5t49 -5.5h105zM264 210q15 0 24 11.5t13.5 30.5t6 43.5t1.5 49.5t-1.5 49.5t-6 43.5t-13.5 30.5
t-24 11.5t-24 -11.5t-13.5 -30.5t-6 -43.5t-1.5 -49.5t1.5 -49.5t6 -43.5t13.5 -30.5t24 -11.5zM216 -45q-23 0 -36 -7t-19.5 -16.5t-8.5 -20t-2 -16.5q0 -37 32 -55t82 -18q66 0 100.5 20.5t34.5 57.5q0 8 -3 17.5t-12.5 18t-26 14t-43.5 5.5h-98z" />
    <glyph glyph-name="uni0122" unicode="&#x122;" horiz-adv-x="689" 
d="M659 340v-35h-38v-315h-25l-27 43q-29 -14 -57 -22.5t-52 -13t-43.5 -6t-32.5 -1.5q-71 0 -134.5 25.5t-111.5 72.5t-76 113.5t-28 148.5t28 148.5t76 113.5t111.5 72.5t134.5 25.5q26 0 76 -7t109 -35l27 42h25v-230h-32q-22 54 -46 91.5t-49 60.5t-51 33t-52 10
q-46 0 -74 -32.5t-43 -81.5t-20 -105.5t-5 -105.5q0 -33 2 -69.5t8 -72.5t17 -69t28.5 -58.5t42.5 -40.5t59 -15q7 0 12 0.5t13 2.5v277h-57v35h285zM315 -359q51 24 82.5 52t48 56t22 54t5.5 46q0 41 -24.5 67t-65.5 26t-65.5 -23t-24.5 -65q0 -41 27.5 -61.5t79.5 -21.5
q-6 -42 -34.5 -69t-60.5 -44z" />
    <glyph glyph-name="uni0123" unicode="&#x123;" horiz-adv-x="580" 
d="M347 833q-32 -17 -60.5 -44t-34.5 -69q106 -2 106 -83q0 -42 -24.5 -65t-65.5 -23t-65.5 26t-24.5 67q0 20 5.5 46t22.5 54t48.5 56t82.5 52zM360 120q40 0 75 -7.5t61.5 -25t42 -46t15.5 -71.5q0 -45 -26 -79t-69 -56.5t-98.5 -33.5t-113.5 -11q-41 0 -81.5 3t-73 13
t-53 27.5t-20.5 46.5q0 19 12 33t30.5 23t42.5 13.5t48 5.5q-51 14 -76 42t-25 64q0 30 13 52t33.5 37t46 24t51.5 14q-42 11 -70.5 28t-46.5 37t-26 43.5t-8 48.5q0 75 57.5 120t162.5 45q48 0 82.5 -9.5t60.5 -25.5q6 12 15.5 24t22.5 22.5t30.5 17t40.5 6.5
q38 0 58 -19.5t20 -51.5q0 -27 -16.5 -47t-46.5 -20q-11 0 -23.5 3.5t-23.5 13t-19 26.5t-10 43q-16 -12 -29 -31q32 -26 45 -58.5t13 -58.5q0 -75 -57 -120t-163 -45q-13 0 -26 -1t-23.5 -4.5t-17 -9.5t-6.5 -16q0 -18 15 -23.5t49 -5.5h105zM264 210q15 0 24 11.5
t13.5 30.5t6 43.5t1.5 49.5t-1.5 49.5t-6 43.5t-13.5 30.5t-24 11.5t-24 -11.5t-13.5 -30.5t-6 -43.5t-1.5 -49.5t1.5 -49.5t6 -43.5t13.5 -30.5t24 -11.5zM216 -45q-23 0 -36 -7t-19.5 -16.5t-8.5 -20t-2 -16.5q0 -37 32 -55t82 -18q66 0 100.5 20.5t34.5 57.5q0 8 -3 17.5
t-12.5 18t-26 14t-43.5 5.5h-98z" />
    <glyph glyph-name="Hcircumflex" unicode="&#x124;" horiz-adv-x="773" 
d="M219 756l83 127q21 32 41.5 44.5t42.5 12.5t42.5 -12.5t41.5 -44.5l83 -127l-10 -16l-157 72l-157 -72zM686 35h45v-35h-290v35h45v306h-200v-306h45v-35h-290v35h45v630h-45v35h290v-35h-45v-289h200v289h-45v35h290v-35h-45v-630z" />
    <glyph glyph-name="hcircumflex" unicode="&#x125;" horiz-adv-x="618" 
d="M-1 760l-10 16l83 127q21 32 41.5 44.5t42.5 12.5t42.5 -12.5t41.5 -44.5l83 -127l-10 -16l-157 72zM606 0h-275v33h40v325q0 34 -14.5 47t-35.5 13q-6 0 -18 -3t-23.5 -13t-20 -29t-8.5 -52v-288h45v-33h-280v33h45v655h-45v32h235v-324q26 63 68.5 88.5t93.5 25.5
q65 0 106.5 -41t41.5 -124v-312h45v-33z" />
    <glyph glyph-name="Hbar" unicode="&#x126;" horiz-adv-x="774" 
d="M687 665v-149h45v-32h-45v-449h45v-35h-290v35h45v306h-200v-306h45v-35h-290v35h45v449h-45v32h45v149h-45v35h290v-35h-45v-149h200v149h-45v35h290v-35h-45zM487 484h-200v-108h200v108z" />
    <glyph glyph-name="hbar" unicode="&#x127;" horiz-adv-x="618" 
d="M606 33v-33h-275v33h40v325q0 34 -14.5 47t-35.5 13q-6 0 -18 -3t-23.5 -13t-20 -29t-8.5 -52v-288h45v-33h-280v33h45v530h-45v25h45v100h-45v32h235v-132h105v-25h-105v-167q26 63 68.5 88.5t93.5 25.5q65 0 106.5 -41t41.5 -124v-312h45z" />
    <glyph glyph-name="Itilde" unicode="&#x128;" horiz-adv-x="373" 
d="M357 906q-7 -33 -15 -60.5t-19 -47.5t-25.5 -31.5t-33.5 -11.5q-14 0 -39 6t-52.5 13t-52.5 13t-39 6q-32 0 -50 -30l-16 7q12 36 23 63t23 45.5t26.5 27.5t33.5 9q15 0 40 -6t51.5 -12.5t50 -12.5t36.5 -6q14 0 23.5 7t16.5 26zM331 700v-35h-45v-630h45v-35h-290v35h45
v630h-45v35h290z" />
    <glyph glyph-name="itilde" unicode="&#x129;" horiz-adv-x="318" 
d="M332 706q-7 -33 -15 -60.5t-19 -47.5t-25.5 -31.5t-33.5 -11.5q-14 0 -39 6t-52.5 13t-52.5 13t-39 6q-32 0 -50 -30l-16 7q12 36 23 63t23 45.5t26.5 27.5t33.5 9q15 0 40 -6t51.5 -12.5t50 -12.5t36.5 -6q14 0 23.5 7t16.5 26zM22 0v33h45v435h-45v32h235v-467h45v-33
h-280z" />
    <glyph glyph-name="Imacron" unicode="&#x12a;" horiz-adv-x="373" 
d="M326 821v-32h-280v32h280zM331 700v-35h-45v-630h45v-35h-290v35h45v630h-45v35h290z" />
    <glyph glyph-name="imacron" unicode="&#x12b;" horiz-adv-x="318" 
d="M301 621v-32h-280v32h280zM22 0v33h45v435h-45v32h235v-467h45v-33h-280z" />
    <glyph glyph-name="Ibreve" unicode="&#x12c;" horiz-adv-x="373" 
d="M52 930q5 -30 39.5 -50t94.5 -20q61 0 96 20t40 50h22q-5 -37 -16 -70t-30 -57.5t-46.5 -38.5t-65.5 -14q-37 0 -64.5 14t-46.5 38.5t-30 57.5t-16 70h23zM331 700v-35h-45v-630h45v-35h-290v35h45v630h-45v35h290z" />
    <glyph glyph-name="ibreve" unicode="&#x12d;" horiz-adv-x="318" 
d="M27 730q5 -30 39.5 -50t94.5 -20q61 0 96 20t40 50h22q-5 -37 -16 -70t-30 -57.5t-46.5 -38.5t-65.5 -14q-37 0 -64.5 14t-46.5 38.5t-30 57.5t-16 70h23zM22 0v33h45v435h-45v32h235v-467h45v-33h-280z" />
    <glyph glyph-name="Iogonek" unicode="&#x12e;" horiz-adv-x="373" 
d="M286 35h45v-35h-137q-21 -24 -32.5 -58.5t-11.5 -66.5q0 -30 15 -44t29 -14q18 0 36 12l6 -15q-17 -14 -41.5 -21.5t-48.5 -7.5q-50 0 -74.5 22.5t-24.5 57.5q0 23 12.5 43.5t31 37.5t40.5 30.5t42 23.5h-132v35h45v630h-45v35h290v-35h-45v-630z" />
    <glyph glyph-name="iogonek" unicode="&#x12f;" horiz-adv-x="318" 
d="M162 559q-41 0 -60.5 19t-19.5 54t19.5 56.5t60.5 21.5t60.5 -21.5t19.5 -56.5t-19.5 -54t-60.5 -19zM174 0q-21 -24 -32.5 -58.5t-11.5 -66.5q0 -30 15 -44t29 -14q18 0 36 12l6 -15q-17 -14 -41.5 -21.5t-48.5 -7.5q-50 0 -74.5 22.5t-24.5 57.5q0 23 12.5 43.5
t31 37.5t40.5 30.5t42 23.5h-131v33h45v435h-45v32h235v-467h45v-33h-128z" />
    <glyph glyph-name="Idotaccent" unicode="&#x130;" horiz-adv-x="373" 
d="M106 832q0 35 19.5 56.5t60.5 21.5t60.5 -21.5t19.5 -56.5t-19.5 -54t-60.5 -19t-60.5 19t-19.5 54zM331 700v-35h-45v-630h45v-35h-290v35h45v630h-45v35h290z" />
    <glyph glyph-name="dotlessi" unicode="&#x131;" horiz-adv-x="318" 
d="M302 33v-33h-280v33h45v435h-45v32h235v-467h45z" />
    <glyph glyph-name="IJ" unicode="&#x132;" horiz-adv-x="836" 
d="M331 700v-35h-45v-630h45v-35h-290v35h45v630h-45v35h290zM757 176q0 -39 -15.5 -73t-45 -59t-73 -39.5t-99.5 -14.5q-70 0 -103.5 26t-33.5 64t23 56.5t52 18.5q27 0 50 -14t23 -53q0 -16 -11.5 -37.5t-42.5 -30.5q6 -2 14 -4.5t19 -2.5q29 0 36 20.5t7 47.5v584h-65v35
h310v-35h-45v-489z" />
    <glyph glyph-name="ij" unicode="&#x133;" horiz-adv-x="631" 
d="M42 622q0 48 32.5 73t77.5 25t77.5 -25t32.5 -73q0 -47 -32.5 -69.5t-77.5 -22.5t-77.5 22.5t-32.5 69.5zM362 622q0 48 32.5 73t77.5 25t77.5 -25t32.5 -73q0 -47 -32.5 -69.5t-77.5 -22.5t-77.5 22.5t-32.5 69.5zM22 0v33h45v435h-45v32h235v-467h45v-33h-280zM577 -24
q0 -39 -14 -73t-42 -59t-70 -39.5t-98 -14.5q-70 0 -103.5 26t-33.5 64t23 56.5t52 18.5q28 0 51 -14.5t23 -52.5q0 -16 -12 -37.5t-43 -30.5q6 -3 14.5 -5.5t18.5 -2.5q29 0 36.5 21t7.5 48v587h-65v32h255v-524z" />
    <glyph glyph-name="Jcircumflex" unicode="&#x134;" horiz-adv-x="463" 
d="M441 740l-157 72l-157 -72l-10 16l83 127q21 32 41.5 44.5t42.5 12.5t42.5 -12.5t41.5 -44.5l83 -127zM429 700v-35h-45v-489q0 -39 -15.5 -73t-45 -59t-73 -39.5t-99.5 -14.5q-70 0 -103.5 26t-33.5 64t23 56.5t52 18.5q27 0 50 -14t23 -53q0 -16 -11.5 -37.5
t-42.5 -30.5q6 -2 14 -4.5t19 -2.5q29 0 36 20.5t7 47.5v584h-65v35h310z" />
    <glyph glyph-name="jcircumflex" unicode="&#x135;" horiz-adv-x="313" 
d="M320 540l-157 72l-157 -72l-10 16l83 127q21 32 41.5 44.5t42.5 12.5t42.5 -12.5t41.5 -44.5l83 -127zM258 500v-524q0 -39 -14 -73t-41.5 -59t-69.5 -39.5t-98 -14.5q-70 0 -103.5 26t-33.5 64t23 56.5t51 18.5t51 -14.5t23 -52.5q0 -16 -11.5 -37.5t-42.5 -30.5
q6 -3 14 -5.5t19 -2.5q29 0 36 21t7 48v587h-65v32h255z" />
    <glyph glyph-name="uni0136" unicode="&#x136;" horiz-adv-x="763" 
d="M331 700v-35h-45v-630h45v-35h-290v35h45v630h-45v35h290zM438 0v35h50l-201 292l323 338h-161v35h287v-35h-80l-206 -218l290 -412h31v-35h-333zM304 -342q32 17 60.5 44t34.5 69q-52 1 -79.5 21.5t-27.5 61.5q0 42 24.5 65t65.5 23t65.5 -26t24.5 -67q0 -20 -5.5 -46
t-22 -54t-48 -56t-82.5 -52z" />
    <glyph glyph-name="uni0137" unicode="&#x137;" horiz-adv-x="639" 
d="M16 0v33h45v655h-45v32h235v-687h45v-33h-280zM316 468v32h305v-32h-97l-115 -111l182 -324h50v-33h-320v33h45l-115 218l226 217h-161zM230 -342q32 17 60.5 44t34.5 69q-52 1 -79.5 21.5t-27.5 61.5q0 42 24.5 65t65.5 23t65.5 -26t24.5 -67q0 -20 -5.5 -46t-22 -54
t-48 -56t-82.5 -52z" />
    <glyph glyph-name="Lacute" unicode="&#x139;" horiz-adv-x="581" 
d="M240 885q19 35 42.5 50t45.5 15q17 0 32 -6.5t26.5 -17t18 -25t6.5 -30.5q0 -35 -24 -55.5t-67 -31.5l-134 -34l-10 16zM41 0v35h45v630h-45v35h290v-35h-45v-630h161l94 155h30v-190h-530z" />
    <glyph glyph-name="lacute" unicode="&#x13a;" horiz-adv-x="316" 
d="M207 895q19 35 42.5 50t45.5 15q17 0 32 -6.5t26.5 -17t18 -25t6.5 -30.5q0 -35 -24 -55.5t-67 -31.5l-134 -34l-10 16zM18 0v33h45v655h-45v32h235v-687h45v-33h-280z" />
    <glyph glyph-name="uni013B" unicode="&#x13b;" horiz-adv-x="581" 
d="M41 0v35h45v630h-45v35h290v-35h-45v-630h161l94 155h30v-190h-530zM213 -342q32 17 60.5 44t34.5 69q-52 1 -79.5 21.5t-27.5 61.5q0 42 24.5 65t65.5 23t65.5 -26t24.5 -67q0 -20 -5.5 -46t-22 -54t-48 -56t-82.5 -52z" />
    <glyph glyph-name="uni013C" unicode="&#x13c;" horiz-adv-x="316" 
d="M18 0v33h45v655h-45v32h235v-687h45v-33h-280zM80 -342q32 17 60.5 44t34.5 69q-52 1 -79.5 21.5t-27.5 61.5q0 42 24.5 65t65.5 23t65.5 -26t24.5 -67q0 -20 -5.5 -46t-22 -54t-48 -56t-82.5 -52z" />
    <glyph glyph-name="Lcaron" unicode="&#x13d;" horiz-adv-x="581" 
d="M383 427q15 8 31 18.5t29 24.5t22 31.5t12 38.5q-51 1 -78.5 21t-27.5 61q0 42 24.5 65t65.5 23t65.5 -26t24.5 -67q0 -20 -5.5 -46t-22 -54t-48 -56t-82.5 -52zM41 0v35h45v630h-45v35h290v-35h-45v-630h161l94 155h30v-190h-530z" />
    <glyph glyph-name="lcaron" unicode="&#x13e;" horiz-adv-x="450" 
d="M298 0h-280v33h45v655h-45v32h235v-687h45v-33zM307 427q15 8 31 18.5t29 24.5t22 31.5t12 38.5q-51 1 -78.5 21t-27.5 61q0 42 24.5 65t65.5 23t65.5 -26t24.5 -67q0 -20 -5.5 -46t-22 -54t-48 -56t-82.5 -52z" />
    <glyph glyph-name="Ldot" unicode="&#x13f;" horiz-adv-x="581" 
d="M41 0v35h45v630h-45v35h290v-35h-45v-630h161l94 155h30v-190h-530zM330 344q0 42 24.5 65t65.5 23t65.5 -23t24.5 -65t-24.5 -62.5t-65.5 -20.5t-65.5 20.5t-24.5 62.5z" />
    <glyph glyph-name="ldot" unicode="&#x140;" horiz-adv-x="443" 
d="M298 0h-280v33h45v655h-45v32h235v-687h45v-33zM288 364q0 42 24.5 65t65.5 23t65.5 -23t24.5 -65t-24.5 -62.5t-65.5 -20.5t-65.5 20.5t-24.5 62.5z" />
    <glyph glyph-name="Lslash" unicode="&#x141;" horiz-adv-x="581" 
d="M572 190v-190h-530v35h45v235l-45 -16v32l45 16v363h-45v35h290v-35h-45v-295l45 16v-32l-45 -16v-303h161l94 155h30z" />
    <glyph glyph-name="lslash" unicode="&#x142;" horiz-adv-x="316" 
d="M253 33h45v-33h-280v33h45v237l-45 -16v32l45 16v386h-45v32h235v-350l46 16v-32l-46 -16v-305z" />
    <glyph glyph-name="Nacute" unicode="&#x143;" horiz-adv-x="740" 
d="M424 885q19 35 42.5 50t45.5 15q17 0 32 -6.5t26.5 -17t18 -25t6.5 -30.5q0 -35 -24 -55.5t-67 -31.5l-134 -34l-10 16zM644 665v-665h-115l-393 462v-427h95v-35h-210v35h78v630h-78v35h193l392 -462v427h-96v35h226v-35h-92z" />
    <glyph glyph-name="nacute" unicode="&#x144;" horiz-adv-x="623" 
d="M381 685q19 35 42.5 50t45.5 15q17 0 32 -6.5t26.5 -17t18 -25t6.5 -30.5q0 -35 -24 -55.5t-67 -31.5l-134 -34l-10 16zM257 396q26 63 68.5 88.5t93.5 25.5q65 0 106.5 -41t41.5 -124v-312h45v-33h-275v33h40v325q0 34 -14.5 47t-35.5 13q-6 0 -18 -3t-23.5 -13t-20 -29
t-8.5 -52v-288h45v-33h-280v33h45v435h-45v32h235v-104z" />
    <glyph glyph-name="uni0145" unicode="&#x145;" horiz-adv-x="740" 
d="M644 665v-665h-115l-393 462v-427h95v-35h-210v35h78v630h-78v35h193l392 -462v427h-96v35h226v-35h-92zM292 -342q32 17 60.5 44t34.5 69q-52 1 -79.5 21.5t-27.5 61.5q0 42 24.5 65t65.5 23t65.5 -26t24.5 -67q0 -20 -5.5 -46t-22 -54t-48 -56t-82.5 -52z" />
    <glyph glyph-name="uni0146" unicode="&#x146;" horiz-adv-x="623" 
d="M257 396q26 63 68.5 88.5t93.5 25.5q65 0 106.5 -41t41.5 -124v-312h45v-33h-275v33h40v325q0 34 -14.5 47t-35.5 13q-6 0 -18 -3t-23.5 -13t-20 -29t-8.5 -52v-288h45v-33h-280v33h45v435h-45v32h235v-104zM234 -342q32 17 60.5 44t34.5 69q-52 1 -79.5 21.5t-27.5 61.5
q0 42 24.5 65t65.5 23t65.5 -26t24.5 -67q0 -20 -5.5 -46t-22 -54t-48 -56t-82.5 -52z" />
    <glyph glyph-name="Ncaron" unicode="&#x147;" horiz-adv-x="740" 
d="M454 798q-21 -33 -41.5 -45.5t-42.5 -12.5t-42.5 12.5t-41.5 45.5l-83 126l10 16l157 -72l157 72l10 -16zM736 665h-92v-665h-115l-393 462v-427h95v-35h-210v35h78v630h-78v35h193l392 -462v427h-96v35h226v-35z" />
    <glyph glyph-name="ncaron" unicode="&#x148;" horiz-adv-x="623" 
d="M411 598q-21 -33 -41.5 -45.5t-42.5 -12.5t-42.5 12.5t-41.5 45.5l-83 126l10 16l157 -72l157 72l10 -16zM612 0h-275v33h40v325q0 34 -14.5 47t-35.5 13q-6 0 -18 -3t-23.5 -13t-20 -29t-8.5 -52v-288h45v-33h-280v33h45v435h-45v32h235v-104q26 63 68.5 88.5t93.5 25.5
q65 0 106.5 -41t41.5 -124v-312h45v-33z" />
    <glyph glyph-name="Eng" unicode="&#x14a;" horiz-adv-x="740" 
d="M736 700v-35h-92v-689q0 -39 -9 -73t-29 -59t-53 -39.5t-81 -14.5q-69 0 -102.5 26t-33.5 64t23 56.5t51 18.5t51 -14.5t23 -52.5q0 -16 -11.5 -37.5t-42.5 -30.5q6 -3 20.5 -5.5t24.5 -2.5q26 0 49.5 7t41.5 25t29 48.5t11 78.5v29h-77l-393 462v-427h95v-35h-210v35h78
v630h-78v35h193l392 -462v427h-96v35h226z" />
    <glyph glyph-name="eng" unicode="&#x14b;" horiz-adv-x="618" 
d="M377 358q0 34 -14.5 47t-35.5 13q-6 0 -18 -3t-23.5 -13t-20 -29t-8.5 -52v-288h45v-33h-280v33h45v435h-45v32h235v-104q26 63 68.5 88.5t93.5 25.5q65 0 106.5 -41t41.5 -124v-369q0 -39 -14 -73t-42 -59t-70 -39.5t-98 -14.5q-70 0 -103 26t-33 64t22.5 56.5
t51.5 18.5q28 0 51 -14.5t23 -52.5q0 -16 -12 -37.5t-43 -30.5q6 -3 14.5 -5.5t18.5 -2.5q29 0 36.5 21t7.5 48v477z" />
    <glyph glyph-name="Omacron" unicode="&#x14c;" horiz-adv-x="777" 
d="M528 821v-32h-280v32h280zM33 350q0 81 29 147.5t78 113.5t113 73t135 26q70 0 134.5 -26t113.5 -73t78 -113.5t29 -147.5q0 -82 -29 -148.5t-78 -113.5t-113.5 -72.5t-134.5 -25.5q-71 0 -135 25.5t-113 72.5t-78 113.5t-29 148.5zM248 350q0 -32 1.5 -69t6.5 -73
t14.5 -69t25 -58.5t38 -40.5t54.5 -15t55 15t38.5 40.5t24.5 58.5t14 69t6.5 72.5t1.5 69.5q0 49 -4 105.5t-18 105.5t-42 81.5t-76 32.5q-47 0 -75 -32.5t-42.5 -81.5t-18.5 -105.5t-4 -105.5z" />
    <glyph glyph-name="omacron" unicode="&#x14d;" horiz-adv-x="580" 
d="M430 621v-32h-280v32h280zM555 250q0 -61 -19 -109.5t-53.5 -82t-83.5 -51t-109 -17.5t-109 17.5t-83.5 51t-53.5 82t-19 109.5t19 109.5t53.5 82t83.5 51t109 17.5t109 -17.5t83.5 -51t53.5 -82t19 -109.5zM225 250q0 -53 1.5 -95.5t8.5 -72.5t19.5 -46t35.5 -16
q22 0 35 16t20 45.5t8.5 72t1.5 96.5t-1.5 96.5t-8.5 72t-20 45.5t-35 16q-23 0 -35.5 -16t-19.5 -45.5t-8.5 -72t-1.5 -96.5z" />
    <glyph glyph-name="Obreve" unicode="&#x14e;" horiz-adv-x="777" 
d="M254 930q5 -30 39.5 -50t94.5 -20q61 0 96 20t40 50h22q-5 -37 -16 -70t-30 -57.5t-46.5 -38.5t-65.5 -14q-37 0 -64.5 14t-46.5 38.5t-30 57.5t-16 70h23zM33 350q0 81 29 147.5t78 113.5t113 73t135 26q70 0 134.5 -26t113.5 -73t78 -113.5t29 -147.5q0 -82 -29 -148.5
t-78 -113.5t-113.5 -72.5t-134.5 -25.5q-71 0 -135 25.5t-113 72.5t-78 113.5t-29 148.5zM248 350q0 -32 1.5 -69t6.5 -73t14.5 -69t25 -58.5t38 -40.5t54.5 -15t55 15t38.5 40.5t24.5 58.5t14 69t6.5 72.5t1.5 69.5q0 49 -4 105.5t-18 105.5t-42 81.5t-76 32.5
q-47 0 -75 -32.5t-42.5 -81.5t-18.5 -105.5t-4 -105.5z" />
    <glyph glyph-name="obreve" unicode="&#x14f;" horiz-adv-x="580" 
d="M155 730q5 -30 39.5 -50t94.5 -20q61 0 96 20t40 50h22q-5 -37 -16 -70t-30 -57.5t-46.5 -38.5t-65.5 -14q-37 0 -64.5 14t-46.5 38.5t-30 57.5t-16 70h23zM555 250q0 -61 -19 -109.5t-53.5 -82t-83.5 -51t-109 -17.5t-109 17.5t-83.5 51t-53.5 82t-19 109.5t19 109.5
t53.5 82t83.5 51t109 17.5t109 -17.5t83.5 -51t53.5 -82t19 -109.5zM225 250q0 -53 1.5 -95.5t8.5 -72.5t19.5 -46t35.5 -16q22 0 35 16t20 45.5t8.5 72t1.5 96.5t-1.5 96.5t-8.5 72t-20 45.5t-35 16q-23 0 -35.5 -16t-19.5 -45.5t-8.5 -72t-1.5 -96.5z" />
    <glyph glyph-name="Ohungarumlaut" unicode="&#x150;" horiz-adv-x="777" 
d="M312 885q19 35 42.5 50t45.5 15q17 0 32 -6.5t26.5 -17t18 -25t6.5 -30.5q0 -35 -24 -55.5t-67 -31.5l-134 -34l-10 16zM535 885q18 35 41.5 50t46.5 15q17 0 32 -6.5t26.5 -17t18 -25t6.5 -30.5q0 -35 -24 -55.5t-68 -31.5l-133 -34l-10 16zM33 350q0 81 29 147.5
t78 113.5t113 73t135 26q70 0 134.5 -26t113.5 -73t78 -113.5t29 -147.5q0 -82 -29 -148.5t-78 -113.5t-113.5 -72.5t-134.5 -25.5q-71 0 -135 25.5t-113 72.5t-78 113.5t-29 148.5zM248 350q0 -32 1.5 -69t6.5 -73t14.5 -69t25 -58.5t38 -40.5t54.5 -15t55 15t38.5 40.5
t24.5 58.5t14 69t6.5 72.5t1.5 69.5q0 49 -4 105.5t-18 105.5t-42 81.5t-76 32.5q-47 0 -75 -32.5t-42.5 -81.5t-18.5 -105.5t-4 -105.5z" />
    <glyph glyph-name="ohungarumlaut" unicode="&#x151;" horiz-adv-x="580" 
d="M214 685q19 35 42.5 50t45.5 15q17 0 32 -6.5t26.5 -17t18 -25t6.5 -30.5q0 -35 -24 -55.5t-67 -31.5l-134 -34l-10 16zM437 685q18 35 41.5 50t46.5 15q17 0 32 -6.5t26.5 -17t18 -25t6.5 -30.5q0 -35 -24 -55.5t-68 -31.5l-133 -34l-10 16zM555 250q0 -61 -19 -109.5
t-53.5 -82t-83.5 -51t-109 -17.5t-109 17.5t-83.5 51t-53.5 82t-19 109.5t19 109.5t53.5 82t83.5 51t109 17.5t109 -17.5t83.5 -51t53.5 -82t19 -109.5zM225 250q0 -53 1.5 -95.5t8.5 -72.5t19.5 -46t35.5 -16q22 0 35 16t20 45.5t8.5 72t1.5 96.5t-1.5 96.5t-8.5 72
t-20 45.5t-35 16q-23 0 -35.5 -16t-19.5 -45.5t-8.5 -72t-1.5 -96.5z" />
    <glyph glyph-name="OE" unicode="&#x152;" horiz-adv-x="1091" 
d="M1052 190v-190h-438v73q-46 -40 -103.5 -61.5t-122.5 -21.5q-71 0 -135 25.5t-113 72.5t-78 113.5t-29 148.5q0 81 29 147.5t78 113.5t113 73t135 26q65 0 122.5 -21.5t103.5 -62.5v74h428v-190h-30l-94 155h-174v-289h95l63 104h30v-242h-30l-63 103h-95v-306h184
l94 155h30zM388 25q32 0 55 15t38.5 40.5t24.5 58.5t14 69t6.5 72.5t1.5 69.5q0 49 -4 105.5t-18 105.5t-42 81.5t-76 32.5q-47 0 -75 -32.5t-42.5 -81.5t-18.5 -105.5t-4 -105.5q0 -32 1.5 -69t6.5 -73t14.5 -69t25 -58.5t38 -40.5t54.5 -15z" />
    <glyph glyph-name="oe" unicode="&#x153;" horiz-adv-x="878" 
d="M841 72q-14 -13 -33.5 -27.5t-46 -26.5t-60.5 -20t-78 -8q-51 0 -93 13t-74 37q-64 -50 -166 -50q-60 0 -109 17.5t-83.5 51t-53.5 82t-19 109.5t19 109.5t53.5 82t83.5 51t109 17.5q105 0 169 -52q35 26 77 39t86 13q43 0 85 -11t75 -36t53 -65.5t20 -99.5
q0 -11 -1 -27.5t-3 -27.5h-296q0 -57 9.5 -96t27.5 -62.5t43 -33.5t55 -10q48 0 86.5 20t64.5 43v-32zM290 20q22 0 35 16t20 45.5t8.5 72t1.5 96.5t-1.5 96.5t-8.5 72t-20 45.5t-35 16q-23 0 -35.5 -16t-19.5 -45.5t-8.5 -72t-1.5 -96.5q0 -53 1.5 -95.5t8.5 -72.5
t19.5 -46t35.5 -16zM671 275q0 2 1 10.5t1.5 19t1 21.5t0.5 18q0 19 -2 42.5t-7.5 44.5t-16 35t-26.5 14q-20 0 -32.5 -16.5t-20.5 -44t-11.5 -65t-3.5 -79.5h116z" />
    <glyph glyph-name="Racute" unicode="&#x154;" horiz-adv-x="703" 
d="M406 885q19 35 42.5 50t45.5 15q17 0 32 -6.5t26.5 -17t18 -25t6.5 -30.5q0 -35 -24 -55.5t-67 -31.5l-134 -34l-10 16zM451 0l-68 240q-12 43 -32 62t-58 19h-7v-286h75v-35h-320v35h45v630h-45v35h323q257 0 257 -190q0 -74 -42.5 -120.5t-133.5 -61.5q69 -8 101.5 -28
t47.5 -57l73 -208h46v-35h-262zM331 353q19 0 33.5 7t25 25t16 48t5.5 76q0 50 -5.5 80.5t-16 47.5t-25 22.5t-33.5 5.5h-45v-312h45z" />
    <glyph glyph-name="racute" unicode="&#x155;" horiz-adv-x="506" 
d="M214 685q19 35 42.5 50t45.5 15q17 0 32 -6.5t26.5 -17t18 -25t6.5 -30.5q0 -35 -24 -55.5t-67 -31.5l-134 -34l-10 16zM257 500v-116q6 25 18.5 48t30.5 40.5t41.5 27.5t52.5 10q48 0 75 -27.5t27 -72.5q0 -39 -24 -67t-66 -28q-37 0 -60.5 20.5t-23.5 61.5q0 17 8 41
t34 40q-32 -7 -53.5 -28.5t-34.5 -53t-19 -71t-6 -82.5v-210h85v-33h-320v33h45v435h-45v32h235z" />
    <glyph glyph-name="uni0156" unicode="&#x156;" horiz-adv-x="703" 
d="M451 0l-68 240q-12 43 -32 62t-58 19h-7v-286h75v-35h-320v35h45v630h-45v35h323q257 0 257 -190q0 -74 -42.5 -120.5t-133.5 -61.5q69 -8 101.5 -28t47.5 -57l73 -208h46v-35h-262zM331 353q19 0 33.5 7t25 25t16 48t5.5 76q0 50 -5.5 80.5t-16 47.5t-25 22.5t-33.5 5.5
h-45v-312h45zM301 -342q32 17 60.5 44t34.5 69q-52 1 -79.5 21.5t-27.5 61.5q0 42 24.5 65t65.5 23t65.5 -26t24.5 -67q0 -20 -5.5 -46t-22 -54t-48 -56t-82.5 -52z" />
    <glyph glyph-name="uni0157" unicode="&#x157;" horiz-adv-x="506" 
d="M257 500v-116q6 25 18.5 48t30.5 40.5t41.5 27.5t52.5 10q48 0 75 -27.5t27 -72.5q0 -39 -24 -67t-66 -28q-37 0 -60.5 20.5t-23.5 61.5q0 17 8 41t34 40q-32 -7 -53.5 -28.5t-34.5 -53t-19 -71t-6 -82.5v-210h85v-33h-320v33h45v435h-45v32h235zM82 -342q32 17 60.5 44
t34.5 69q-52 1 -79.5 21.5t-27.5 61.5q0 42 24.5 65t65.5 23t65.5 -26t24.5 -67q0 -20 -5.5 -46t-22 -54t-48 -56t-82.5 -52z" />
    <glyph glyph-name="Rcaron" unicode="&#x158;" horiz-adv-x="703" 
d="M436 798q-21 -33 -41.5 -45.5t-42.5 -12.5t-42.5 12.5t-41.5 45.5l-83 126l10 16l157 -72l157 72l10 -16zM713 0h-262l-68 240q-12 43 -32 62t-58 19h-7v-286h75v-35h-320v35h45v630h-45v35h323q257 0 257 -190q0 -74 -42.5 -120.5t-133.5 -61.5q69 -8 101.5 -28
t47.5 -57l73 -208h46v-35zM331 353q19 0 33.5 7t25 25t16 48t5.5 76q0 50 -5.5 80.5t-16 47.5t-25 22.5t-33.5 5.5h-45v-312h45z" />
    <glyph glyph-name="rcaron" unicode="&#x159;" horiz-adv-x="506" 
d="M244 598q-21 -33 -41.5 -45.5t-42.5 -12.5t-42.5 12.5t-41.5 45.5l-83 126l10 16l157 -72l157 72l10 -16zM257 384q6 25 18.5 48t30.5 40.5t41.5 27.5t52.5 10q48 0 75 -27.5t27 -72.5q0 -39 -24 -67t-66 -28q-37 0 -60.5 20.5t-23.5 61.5q0 17 8 41t34 40
q-32 -7 -53.5 -28.5t-34.5 -53t-19 -71t-6 -82.5v-210h85v-33h-320v33h45v435h-45v32h235v-116z" />
    <glyph glyph-name="Sacute" unicode="&#x15a;" horiz-adv-x="618" 
d="M361 885q19 35 42.5 50t45.5 15q17 0 32 -6.5t26.5 -17t18 -25t6.5 -30.5q0 -35 -24 -55.5t-67 -31.5l-134 -34l-10 16zM77 220q18 -45 39 -81t47 -61.5t57.5 -39t69.5 -13.5q53 0 79 25t26 68q0 41 -25.5 68t-63 49.5t-82 45t-82 52t-63 71.5t-25.5 105q0 44 16 81
t48 63.5t79.5 41.5t109.5 15q40 0 88 -8t102 -34l23 37h24v-225h-32q-43 104 -92.5 149.5t-105.5 45.5q-35 0 -51 -17t-16 -49q0 -40 25 -69.5t62.5 -54t81 -49t81 -55t62.5 -70.5t25 -97q0 -53 -20 -95t-56 -70.5t-87 -43.5t-113 -15q-42 0 -101 7.5t-122 38.5l-13 -41h-28
v225h33z" />
    <glyph glyph-name="sacute" unicode="&#x15b;" horiz-adv-x="492" 
d="M302 685q19 35 42.5 50t45.5 15q17 0 32 -6.5t26.5 -17t18 -25t6.5 -30.5q0 -35 -24 -55.5t-67 -31.5l-134 -34l-10 16zM63 170q15 -28 33.5 -55t39.5 -48.5t44 -34.5t47 -13q26 0 42.5 15t16.5 41q0 25 -18.5 42.5t-46 32.5t-59.5 31.5t-59.5 39t-46 54.5t-18.5 79
q0 31 12 59.5t37.5 50t65 34t95.5 12.5q10 0 27 -1t37.5 -5t43.5 -10.5t46 -16.5l13 33h18v-180h-28q-21 45 -39 74.5t-34.5 46.5t-33 23.5t-33.5 6.5q-28 0 -38 -15.5t-10 -27.5q0 -28 18.5 -47.5t46.5 -36.5t60.5 -34t60.5 -38.5t46.5 -51t18.5 -70.5q0 -44 -16.5 -76
t-45.5 -53t-69 -31t-87 -10q-13 0 -33 1.5t-44 5.5t-51.5 12t-54.5 20l-14 -39h-20v180h30z" />
    <glyph glyph-name="Scircumflex" unicode="&#x15c;" horiz-adv-x="618" 
d="M140 756l83 127q21 32 41.5 44.5t42.5 12.5t42.5 -12.5t41.5 -44.5l83 -127l-10 -16l-157 72l-157 -72zM512 480q-43 104 -92.5 149.5t-105.5 45.5q-35 0 -51 -17t-16 -49q0 -40 25 -69.5t62.5 -54t81 -49t81 -55t62.5 -70.5t25 -97q0 -53 -20 -95t-56 -70.5t-87 -43.5
t-113 -15q-42 0 -101 7.5t-122 38.5l-13 -41h-28v225h33q18 -45 39 -81t47 -61.5t57.5 -39t69.5 -13.5q53 0 79 25t26 68q0 41 -25.5 68t-63 49.5t-82 45t-82 52t-63 71.5t-25.5 105q0 44 16 81t48 63.5t79.5 41.5t109.5 15q40 0 88 -8t102 -34l23 37h24v-225h-32z" />
    <glyph glyph-name="scircumflex" unicode="&#x15d;" horiz-adv-x="492" 
d="M81 556l83 127q21 32 41.5 44.5t42.5 12.5t42.5 -12.5t41.5 -44.5l83 -127l-10 -16l-157 72l-157 -72zM405 330q-21 45 -39 74.5t-34.5 46.5t-33 23.5t-33.5 6.5q-28 0 -38 -15.5t-10 -27.5q0 -28 18.5 -47.5t46.5 -36.5t60.5 -34t60.5 -38.5t46.5 -51t18.5 -70.5
q0 -44 -16.5 -76t-45.5 -53t-69 -31t-87 -10q-13 0 -33 1.5t-44 5.5t-51.5 12t-54.5 20l-14 -39h-20v180h30q15 -28 33.5 -55t39.5 -48.5t44 -34.5t47 -13q26 0 42.5 15t16.5 41q0 25 -18.5 42.5t-46 32.5t-59.5 31.5t-59.5 39t-46 54.5t-18.5 79q0 31 12 59.5t37.5 50
t65 34t95.5 12.5q10 0 27 -1t37.5 -5t43.5 -10.5t46 -16.5l13 33h18v-180h-28z" />
    <glyph glyph-name="Scedilla" unicode="&#x15e;" horiz-adv-x="618" 
d="M512 480q-43 104 -92.5 149.5t-105.5 45.5q-35 0 -51 -17t-16 -49q0 -40 25 -69.5t62.5 -54t81 -49t81 -55t62.5 -70.5t25 -97q0 -53 -20 -95t-56 -70.5t-87 -43.5t-113 -15v-40q68 0 97 -25.5t29 -62.5q0 -39 -30.5 -63t-94.5 -24q-35 0 -65 12l4 17q17 -7 40 -7
t35 18.5t12 46.5t-14 51t-36 23v54q-41 2 -93 10.5t-107 35.5l-13 -41h-28v225h33q18 -45 39 -81t47 -61.5t57.5 -39t69.5 -13.5q53 0 79 25t26 68q0 41 -25.5 68t-63 49.5t-82 45t-82 52t-63 71.5t-25.5 105q0 44 16 81t48 63.5t79.5 41.5t109.5 15q40 0 88 -8t102 -34
l23 37h24v-225h-32z" />
    <glyph glyph-name="scedilla" unicode="&#x15f;" horiz-adv-x="492" 
d="M405 330q-21 45 -39 74.5t-34.5 46.5t-33 23.5t-33.5 6.5q-28 0 -38 -15.5t-10 -27.5q0 -28 18.5 -47.5t46.5 -36.5t60.5 -34t60.5 -38.5t46.5 -51t18.5 -70.5q0 -42 -15.5 -73.5t-43.5 -52.5t-65.5 -32t-82.5 -12v-40q68 0 97 -25.5t29 -62.5q0 -39 -30.5 -63t-94.5 -24
q-35 0 -65 12l4 17q17 -7 40 -7t35 18.5t12 46.5t-14 51t-36 23v54q-29 2 -75 9t-96 30l-14 -39h-20v180h30q15 -28 33.5 -55t39.5 -48.5t44 -34.5t47 -13q26 0 42.5 15t16.5 41q0 25 -18.5 42.5t-46 32.5t-59.5 31.5t-59.5 39t-46 54.5t-18.5 79q0 31 12 59.5t37.5 50
t65 34t95.5 12.5q10 0 27 -1t37.5 -5t43.5 -10.5t46 -16.5l13 33h18v-180h-28z" />
    <glyph glyph-name="Scaron" unicode="&#x160;" horiz-adv-x="618" 
d="M391 798q-21 -33 -41.5 -45.5t-42.5 -12.5t-42.5 12.5t-41.5 45.5l-83 126l10 16l157 -72l157 72l10 -16zM512 480q-43 104 -92.5 149.5t-105.5 45.5q-35 0 -51 -17t-16 -49q0 -40 25 -69.5t62.5 -54t81 -49t81 -55t62.5 -70.5t25 -97q0 -53 -20 -95t-56 -70.5t-87 -43.5
t-113 -15q-42 0 -101 7.5t-122 38.5l-13 -41h-28v225h33q18 -45 39 -81t47 -61.5t57.5 -39t69.5 -13.5q53 0 79 25t26 68q0 41 -25.5 68t-63 49.5t-82 45t-82 52t-63 71.5t-25.5 105q0 44 16 81t48 63.5t79.5 41.5t109.5 15q40 0 88 -8t102 -34l23 37h24v-225h-32z" />
    <glyph glyph-name="scaron" unicode="&#x161;" horiz-adv-x="492" 
d="M332 598q-21 -33 -41.5 -45.5t-42.5 -12.5t-42.5 12.5t-41.5 45.5l-83 126l10 16l157 -72l157 72l10 -16zM405 330q-21 45 -39 74.5t-34.5 46.5t-33 23.5t-33.5 6.5q-28 0 -38 -15.5t-10 -27.5q0 -28 18.5 -47.5t46.5 -36.5t60.5 -34t60.5 -38.5t46.5 -51t18.5 -70.5
q0 -44 -16.5 -76t-45.5 -53t-69 -31t-87 -10q-13 0 -33 1.5t-44 5.5t-51.5 12t-54.5 20l-14 -39h-20v180h30q15 -28 33.5 -55t39.5 -48.5t44 -34.5t47 -13q26 0 42.5 15t16.5 41q0 25 -18.5 42.5t-46 32.5t-59.5 31.5t-59.5 39t-46 54.5t-18.5 79q0 31 12 59.5t37.5 50
t65 34t95.5 12.5q10 0 27 -1t37.5 -5t43.5 -10.5t46 -16.5l13 33h18v-180h-28z" />
    <glyph glyph-name="uni0162" unicode="&#x162;" horiz-adv-x="599" 
d="M584 510h-30l-118 155h-37v-630h85v-35h-173v-50q68 0 97 -25.5t29 -62.5q0 -39 -30.5 -63t-94.5 -24q-35 0 -65 12l4 17q17 -7 40 -7t35 18.5t12 46.5t-14 51t-36 23v64h-174v35h85v630h-37l-118 -155h-30v190h570v-190z" />
    <glyph glyph-name="uni0163" unicode="&#x163;" horiz-adv-x="349" 
d="M249 87q0 -30 9.5 -42t35.5 -12q13 0 26.5 3.5t23.5 8.5v-30q-27 -13 -59 -18.5t-72 -6.5v-40q68 0 97 -25.5t29 -62.5q0 -39 -30.5 -63t-94.5 -24q-35 0 -65 12l4 17q17 -7 40 -7t35 18.5t12 46.5t-14 51t-36 23v54q-66 2 -98.5 29.5t-32.5 88.5v360h-45v32h45l155 130
h35v-130h95v-32h-95v-381z" />
    <glyph glyph-name="Tcaron" unicode="&#x164;" horiz-adv-x="599" 
d="M383 798q-21 -33 -41.5 -45.5t-42.5 -12.5t-42.5 12.5t-41.5 45.5l-83 126l10 16l157 -72l157 72l10 -16zM584 510h-30l-118 155h-37v-630h85v-35h-370v35h85v630h-37l-118 -155h-30v190h570v-190z" />
    <glyph glyph-name="tcaron" unicode="&#x165;" horiz-adv-x="349" 
d="M300 547q15 8 31 18.5t29 24.5t22 31.5t12 38.5q-51 1 -78.5 21t-27.5 61q0 42 24.5 65t65.5 23t65.5 -26t24.5 -67q0 -20 -5.5 -46t-22 -54t-48 -56t-82.5 -52zM249 87q0 -30 9.5 -42t35.5 -12q13 0 26.5 3.5t23.5 8.5v-30q-29 -14 -63.5 -19.5t-78.5 -5.5
q-72 0 -107.5 27t-35.5 91v360h-45v32h45l155 130h35v-130h95v-32h-95v-381z" />
    <glyph glyph-name="Tbar" unicode="&#x166;" horiz-adv-x="599" 
d="M584 700v-190h-30l-118 155h-37v-311h90v-33h-90v-286h85v-35h-370v35h85v286h-90v33h90v311h-37l-118 -155h-30v190h570z" />
    <glyph glyph-name="tbar" unicode="&#x167;" horiz-adv-x="349" 
d="M250 468v-177h65v-25h-65v-179q0 -30 9 -42t35 -12q13 0 27 3.5t24 8.5v-30q-29 -14 -64 -19.5t-79 -5.5q-72 0 -107 27t-35 91v158h-45v25h45v177h-45v32h45l154 130h36v-130h95v-32h-95z" />
    <glyph glyph-name="Utilde" unicode="&#x168;" horiz-adv-x="788" 
d="M565 906q-7 -33 -15 -60.5t-19 -47.5t-25.5 -31.5t-33.5 -11.5q-14 0 -39 6t-52.5 13t-52.5 13t-39 6q-32 0 -50 -30l-16 7q12 36 23 63t23 45.5t26.5 27.5t33.5 9q15 0 40 -6t51.5 -12.5t50 -12.5t36.5 -6q14 0 23.5 7t16.5 26zM714 245q0 -69 -20.5 -117.5t-61 -79
t-100 -44.5t-138.5 -14t-138.5 14t-100 44.5t-61 79t-20.5 117.5v420h-45v35h290v-35h-45v-477q0 -47 8 -78.5t23 -50t37.5 -26.5t51.5 -8t51.5 8t37.5 26.5t23 50t8 78.5v477h-45v35h290v-35h-45v-420z" />
    <glyph glyph-name="utilde" unicode="&#x169;" horiz-adv-x="616" 
d="M467 706q-7 -33 -15 -60.5t-19 -47.5t-25.5 -31.5t-33.5 -11.5q-14 0 -39 6t-52.5 13t-52.5 13t-39 6q-32 0 -50 -30l-16 7q12 36 23 63t23 45.5t26.5 27.5t33.5 9q15 0 40 -6t51.5 -12.5t50 -12.5t36.5 -6q14 0 23.5 7t16.5 26zM365 104q-26 -63 -68.5 -88.5
t-93.5 -25.5q-65 0 -106.5 41t-41.5 124v313h-45v32h235v-357q0 -34 14.5 -47t35.5 -13q6 0 18 3t23.5 13t20 29t8.5 52v288h-65v32h255v-467h45v-33h-235v104z" />
    <glyph glyph-name="Umacron" unicode="&#x16a;" horiz-adv-x="788" 
d="M534 821v-32h-280v32h280zM714 245q0 -69 -20.5 -117.5t-61 -79t-100 -44.5t-138.5 -14t-138.5 14t-100 44.5t-61 79t-20.5 117.5v420h-45v35h290v-35h-45v-477q0 -47 8 -78.5t23 -50t37.5 -26.5t51.5 -8t51.5 8t37.5 26.5t23 50t8 78.5v477h-45v35h290v-35h-45v-420z
" />
    <glyph glyph-name="umacron" unicode="&#x16b;" horiz-adv-x="616" 
d="M436 621v-32h-280v32h280zM365 104q-26 -63 -68.5 -88.5t-93.5 -25.5q-65 0 -106.5 41t-41.5 124v313h-45v32h235v-357q0 -34 14.5 -47t35.5 -13q6 0 18 3t23.5 13t20 29t8.5 52v288h-65v32h255v-467h45v-33h-235v104z" />
    <glyph glyph-name="Ubreve" unicode="&#x16c;" horiz-adv-x="788" 
d="M259 930q5 -30 39.5 -50t94.5 -20q61 0 96 20t40 50h22q-5 -37 -16 -70t-30 -57.5t-46.5 -38.5t-65.5 -14q-37 0 -64.5 14t-46.5 38.5t-30 57.5t-16 70h23zM714 245q0 -69 -20.5 -117.5t-61 -79t-100 -44.5t-138.5 -14t-138.5 14t-100 44.5t-61 79t-20.5 117.5v420h-45
v35h290v-35h-45v-477q0 -47 8 -78.5t23 -50t37.5 -26.5t51.5 -8t51.5 8t37.5 26.5t23 50t8 78.5v477h-45v35h290v-35h-45v-420z" />
    <glyph glyph-name="ubreve" unicode="&#x16d;" horiz-adv-x="616" 
d="M162 730q5 -30 39.5 -50t94.5 -20q61 0 96 20t40 50h22q-5 -37 -16 -70t-30 -57.5t-46.5 -38.5t-65.5 -14q-37 0 -64.5 14t-46.5 38.5t-30 57.5t-16 70h23zM365 104q-26 -63 -68.5 -88.5t-93.5 -25.5q-65 0 -106.5 41t-41.5 124v313h-45v32h235v-357q0 -34 14.5 -47
t35.5 -13q6 0 18 3t23.5 13t20 29t8.5 52v288h-65v32h255v-467h45v-33h-235v104z" />
    <glyph glyph-name="Uring" unicode="&#x16e;" horiz-adv-x="788" 
d="M309 848q0 35 25 60t60 25q36 0 61 -25t25 -60q0 -36 -25 -61t-61 -25q-35 0 -60 25t-25 61zM331 848q0 -28 18 -46t45 -18q28 0 46 18t18 46q0 27 -18 45t-46 18q-27 0 -45 -18t-18 -45zM714 245q0 -69 -20.5 -117.5t-61 -79t-100 -44.5t-138.5 -14t-138.5 14t-100 44.5
t-61 79t-20.5 117.5v420h-45v35h290v-35h-45v-477q0 -47 8 -78.5t23 -50t37.5 -26.5t51.5 -8t51.5 8t37.5 26.5t23 50t8 78.5v477h-45v35h290v-35h-45v-420z" />
    <glyph glyph-name="uring" unicode="&#x16f;" horiz-adv-x="616" 
d="M211 648q0 35 25 60t60 25q36 0 61 -25t25 -60q0 -36 -25 -61t-61 -25q-35 0 -60 25t-25 61zM233 648q0 -28 18 -46t45 -18q28 0 46 18t18 46q0 27 -18 45t-46 18q-27 0 -45 -18t-18 -45zM365 104q-26 -63 -68.5 -88.5t-93.5 -25.5q-65 0 -106.5 41t-41.5 124v313h-45v32
h235v-357q0 -34 14.5 -47t35.5 -13q6 0 18 3t23.5 13t20 29t8.5 52v288h-65v32h255v-467h45v-33h-235v104z" />
    <glyph glyph-name="Uhungarumlaut" unicode="&#x170;" horiz-adv-x="788" 
d="M318 885q19 35 42.5 50t45.5 15q17 0 32 -6.5t26.5 -17t18 -25t6.5 -30.5q0 -35 -24 -55.5t-67 -31.5l-134 -34l-10 16zM541 885q18 35 41.5 50t46.5 15q17 0 32 -6.5t26.5 -17t18 -25t6.5 -30.5q0 -35 -24 -55.5t-68 -31.5l-133 -34l-10 16zM714 245q0 -69 -20.5 -117.5
t-61 -79t-100 -44.5t-138.5 -14t-138.5 14t-100 44.5t-61 79t-20.5 117.5v420h-45v35h290v-35h-45v-477q0 -47 8 -78.5t23 -50t37.5 -26.5t51.5 -8t51.5 8t37.5 26.5t23 50t8 78.5v477h-45v35h290v-35h-45v-420z" />
    <glyph glyph-name="uhungarumlaut" unicode="&#x171;" horiz-adv-x="616" 
d="M220 685q19 35 42.5 50t45.5 15q17 0 32 -6.5t26.5 -17t18 -25t6.5 -30.5q0 -35 -24 -55.5t-67 -31.5l-134 -34l-10 16zM443 685q18 35 41.5 50t46.5 15q17 0 32 -6.5t26.5 -17t18 -25t6.5 -30.5q0 -35 -24 -55.5t-68 -31.5l-133 -34l-10 16zM365 104
q-26 -63 -68.5 -88.5t-93.5 -25.5q-65 0 -106.5 41t-41.5 124v313h-45v32h235v-357q0 -34 14.5 -47t35.5 -13q6 0 18 3t23.5 13t20 29t8.5 52v288h-65v32h255v-467h45v-33h-235v104z" />
    <glyph glyph-name="Uogonek" unicode="&#x172;" horiz-adv-x="788" 
d="M759 665h-45v-420q0 -68 -19.5 -116t-58 -78.5t-96 -45t-133.5 -15.5q-20 -24 -30 -57t-10 -63t15 -44t29 -14q18 0 36 12l6 -15q-17 -14 -41.5 -21.5t-48.5 -7.5q-50 0 -74.5 22.5t-24.5 57.5q0 22 11 41t28.5 35.5t38 30t39.5 23.5q-76 1 -133.5 15.5t-96 45t-58 78.5
t-19.5 116v420h-45v35h290v-35h-45v-477q0 -47 8 -78.5t23 -50t37.5 -26.5t51.5 -8t51.5 8t37.5 26.5t23 50t8 78.5v477h-45v35h290v-35z" />
    <glyph glyph-name="uogonek" unicode="&#x173;" horiz-adv-x="616" 
d="M642 -186q-17 -14 -41.5 -21.5t-48.5 -7.5q-50 0 -74.5 22.5t-24.5 57.5q0 23 12.5 43.5t31 37.5t40.5 30.5t42 23.5h-214v104q-26 -63 -68.5 -88.5t-93.5 -25.5q-65 0 -106.5 41t-41.5 124v313h-45v32h235v-357q0 -34 14.5 -47t35.5 -13q6 0 18 3t23.5 13t20 29t8.5 52
v288h-65v32h255v-467h45v-33q-21 -24 -32.5 -58.5t-11.5 -66.5q0 -30 15 -44t29 -14q18 0 36 12z" />
    <glyph glyph-name="Wcircumflex" unicode="&#x174;" horiz-adv-x="1055" 
d="M411 756l83 127q21 32 41.5 44.5t42.5 12.5t42.5 -12.5t41.5 -44.5l83 -127l-10 -16l-157 72l-157 -72zM1068 665h-78l-197 -670h-122l-130 406l-134 -406h-120l-249 670h-48v35h343v-35h-67l171 -467h2l84 258l-67 209h-53v35h343v-35h-68l141 -457h2l132 457h-115v35
h230v-35z" />
    <glyph glyph-name="wcircumflex" unicode="&#x175;" horiz-adv-x="887" 
d="M330 556l83 127q21 32 41.5 44.5t42.5 12.5t42.5 -12.5t41.5 -44.5l83 -127l-10 -16l-157 72l-157 -72zM899 468h-65l-148 -473h-149l-90 270l-88 -270h-149l-174 473h-48v32h319v-32h-46l113 -320h2l54 169l-50 151h-43v32h350v-32h-85l98 -320h2l97 320h-82v32h182v-32
z" />
    <glyph glyph-name="Ycircumflex" unicode="&#x176;" horiz-adv-x="644" 
d="M188 756l83 127q21 32 41.5 44.5t42.5 12.5t42.5 -12.5t41.5 -44.5l83 -127l-10 -16l-157 72l-157 -72zM655 665h-65l-151 -341v-289h45v-35h-290v35h45v259l-205 371h-48v35h364v-35h-89l159 -298h2l130 298h-99v35h202v-35z" />
    <glyph glyph-name="ycircumflex" unicode="&#x177;" horiz-adv-x="565" 
d="M116 556l83 127q21 32 41.5 44.5t42.5 12.5t42.5 -12.5t41.5 -44.5l83 -127l-10 -16l-157 72l-157 -72zM579 468h-65l-154 -469q-13 -39 -31 -76.5t-45 -67t-64.5 -47.5t-89.5 -18q-35 0 -60.5 8t-42.5 21t-25.5 30t-8.5 36q0 38 23 56.5t52 18.5q28 0 51 -14.5t23 -52.5
q0 -16 -12 -37.5t-43 -30.5q6 -3 16.5 -5.5t21.5 -2.5q15 0 40 3.5t53 20.5t55.5 53t47.5 101h-111l-174 473h-48v32h363v-32h-87l110 -320h2l103 320h-98v32h198v-32z" />
    <glyph glyph-name="Ydieresis" unicode="&#x178;" horiz-adv-x="644" 
d="M175 832q0 35 19.5 56.5t60.5 21.5t60.5 -21.5t19.5 -56.5t-19.5 -54t-60.5 -19t-60.5 19t-19.5 54zM375 832q0 35 19.5 56.5t60.5 21.5t60.5 -21.5t19.5 -56.5t-19.5 -54t-60.5 -19t-60.5 19t-19.5 54zM590 665l-151 -341v-289h45v-35h-290v35h45v259l-205 371h-48v35
h364v-35h-89l159 -298h2l130 298h-99v35h202v-35h-65z" />
    <glyph glyph-name="Zacute" unicode="&#x179;" horiz-adv-x="625" 
d="M367 885q19 35 42.5 50t45.5 15q17 0 32 -6.5t26.5 -17t18 -25t6.5 -30.5q0 -35 -24 -55.5t-67 -31.5l-134 -34l-10 16zM25 0v35l332 630h-164l-118 -155h-30v190h540v-35l-332 -630h190l118 155h30v-190h-566z" />
    <glyph glyph-name="zacute" unicode="&#x17a;" horiz-adv-x="515" 
d="M322 685q19 35 42.5 50t45.5 15q17 0 32 -6.5t26.5 -17t18 -25t6.5 -30.5q0 -35 -24 -55.5t-67 -31.5l-134 -34l-10 16zM175 468l-110 -138h-30v170h440v-30l-230 -437h105l110 137h30v-170h-470v30l241 438h-86z" />
    <glyph glyph-name="Zdotaccent" unicode="&#x17b;" horiz-adv-x="625" 
d="M233 832q0 35 19.5 56.5t60.5 21.5t60.5 -21.5t19.5 -56.5t-19.5 -54t-60.5 -19t-60.5 19t-19.5 54zM25 0v35l332 630h-164l-118 -155h-30v190h540v-35l-332 -630h190l118 155h30v-190h-566z" />
    <glyph glyph-name="zdotaccent" unicode="&#x17c;" horiz-adv-x="515" 
d="M188 632q0 35 19.5 56.5t60.5 21.5t60.5 -21.5t19.5 -56.5t-19.5 -54t-60.5 -19t-60.5 19t-19.5 54zM175 468l-110 -138h-30v170h440v-30l-230 -437h105l110 137h30v-170h-470v30l241 438h-86z" />
    <glyph glyph-name="Zcaron" unicode="&#x17d;" horiz-adv-x="625" 
d="M397 798q-21 -33 -41.5 -45.5t-42.5 -12.5t-42.5 12.5t-41.5 45.5l-83 126l10 16l157 -72l157 72l10 -16zM591 0h-566v35l332 630h-164l-118 -155h-30v190h540v-35l-332 -630h190l118 155h30v-190z" />
    <glyph glyph-name="zcaron" unicode="&#x17e;" horiz-adv-x="515" 
d="M352 598q-21 -33 -41.5 -45.5t-42.5 -12.5t-42.5 12.5t-41.5 45.5l-83 126l10 16l157 -72l157 72l10 -16zM490 0h-470v30l241 438h-86l-110 -138h-30v170h440v-30l-230 -437h105l110 137h30v-170z" />
    <glyph glyph-name="uni018F" unicode="&#x18f;" horiz-adv-x="746" 
d="M178 668q29 14 56.5 22t51.5 12.5t44 6t33 1.5q70 0 133.5 -25.5t111.5 -72.5t76.5 -113.5t28.5 -148.5t-28.5 -148.5t-76.5 -113.5t-111.5 -72.5t-133.5 -25.5q-71 0 -134.5 25.5t-111.5 72.5t-76 113.5t-28 148.5v16h485q-1 48 -6.5 102.5t-21.5 100.5t-43.5 76
t-71.5 30q-26 0 -52 -10t-51 -33t-48.5 -60.5t-45.5 -91.5h-33v230h25zM228 331q0 -48 4 -102t17.5 -99.5t40 -75t73.5 -29.5q46 0 73 29.5t40.5 75t17.5 99.5t4 102h-270z" />
    <glyph glyph-name="florin" unicode="&#x192;" horiz-adv-x="329" 
d="M62 544q0 39 14 73t42 59t70 39.5t98 14.5q69 0 102.5 -26t33.5 -64t-23 -56.5t-51 -18.5t-51 14.5t-23 52.5q0 16 11.5 37.5t42.5 30.5q-6 3 -14 5.5t-18 2.5q-30 0 -37 -21t-7 -48v-139h85v-32h-85v-492q0 -39 -14 -73t-42 -59t-70 -39.5t-98 -14.5q-70 0 -103 26
t-33 64t22.5 56.5t51.5 18.5q28 0 51 -14.5t23 -52.5q0 -16 -12 -37.5t-43 -30.5q6 -3 14.5 -5.5t18.5 -2.5q29 0 36.5 21t7.5 48v587h-45v32h45v44z" />
    <glyph glyph-name="AEacute" unicode="&#x1fc;" horiz-adv-x="920" 
d="M515 885q19 35 42.5 50t45.5 15q17 0 32 -6.5t26.5 -17t18 -25t6.5 -30.5q0 -35 -24 -55.5t-67 -31.5l-134 -34l-10 16zM328 0v35h45v186h-200l-85 -186h118v-35h-230v35h74l306 665h515v-190h-30l-94 155h-174v-289h95l63 104h30v-242h-30l-63 103h-95v-306h184l94 155
h30v-190h-553zM189 256h184v400z" />
    <glyph glyph-name="aeacute" unicode="&#x1fd;" horiz-adv-x="823" 
d="M466 685q19 35 42.5 50t45.5 15q17 0 32 -6.5t26.5 -17t18 -25t6.5 -30.5q0 -35 -24 -55.5t-67 -31.5l-134 -34l-10 16zM300 409q0 38 -25.5 54t-59.5 16q-29 0 -57.5 -11t-41.5 -25q24 0 41 -6.5t27.5 -17.5t15.5 -25t5 -28q0 -32 -19.5 -54t-61.5 -22t-63 23t-21 58
q0 24 14 48.5t42 45t69.5 33t97.5 12.5q57 0 95.5 -10t64.5 -28q33 20 70 29t74 9q43 0 85 -11t75 -36t53 -65.5t20 -99.5q0 -11 -1 -27.5t-3 -27.5h-296q0 -57 9.5 -96t27.5 -62.5t43 -33.5t55 -10q48 0 86.5 20t64.5 43v-32q-14 -13 -33.5 -27.5t-46 -26.5t-60.5 -20
t-78 -8q-95 0 -160 43t-91 120q-4 -25 -14.5 -53.5t-30 -53t-48.5 -40.5t-71 -16q-28 0 -52.5 8.5t-42.5 25t-28 40.5t-10 56q0 33 15 62t48 50.5t86.5 34.5t130.5 16v126zM616 273q0 2 1 10.5t1.5 20t1 22.5t0.5 18q0 19 -2 42.5t-7.5 44.5t-16 35t-26.5 14
q-20 0 -32.5 -16.5t-20.5 -44.5t-11.5 -65.5t-3.5 -80.5h116zM300 254q-30 0 -55 -22.5t-25 -66.5q0 -32 12 -46.5t27 -14.5q7 0 14.5 3t13.5 12t9.5 24.5t3.5 40.5v70z" />
    <glyph glyph-name="Oslashacute" unicode="&#x1fe;" horiz-adv-x="777" 
d="M378 766l64 119q19 35 42.5 50t45.5 15q17 0 32 -6.5t26.5 -17t18 -25t6.5 -30.5q0 -35 -24 -55.5t-67 -31.5l-134 -34zM574 659q37 -23 68 -54.5t53.5 -70.5t35 -85.5t12.5 -98.5q0 -82 -29 -148.5t-78 -113.5t-113.5 -72.5t-134.5 -25.5q-42 0 -82 9.5t-76 26.5
l-14 -26h-35l22 40q-75 45 -122.5 124.5t-47.5 185.5q0 81 29 147.5t78 113.5t113 73t135 26q42 0 82 -9.5t77 -26.5l14 26h35zM498 584q-15 40 -41.5 65.5t-68.5 25.5q-47 0 -75 -32.5t-42.5 -81.5t-18.5 -105.5t-4 -105.5q0 -45 3.5 -96t14.5 -97zM279 115q15 -40 41 -65
t68 -25q32 0 55 15t38.5 40.5t24.5 58.5t14 69t6.5 72.5t1.5 69.5q0 45 -3 96t-14 97z" />
    <glyph glyph-name="oslashacute" unicode="&#x1ff;" horiz-adv-x="580" 
d="M344 685q19 35 42.5 50t45.5 15q17 0 32 -6.5t26.5 -17t18 -25t6.5 -30.5q0 -35 -24 -55.5t-67 -31.5l-134 -34l-10 16zM420 483q64 -29 99.5 -88.5t35.5 -144.5q0 -61 -19 -109.5t-53.5 -82t-83.5 -51t-109 -17.5q-71 0 -127 25l-36 -65h-35l44 79q-53 32 -82 88
t-29 133q0 61 19 109.5t53.5 82t83.5 51t109 17.5q55 0 102 -15l30 55h35zM346 412q-6 33 -19 50.5t-37 17.5q-23 0 -35.5 -16t-19.5 -45.5t-8.5 -72t-1.5 -96.5v-57zM228 134q5 -54 18 -84t44 -30q22 0 35 16t20 45.5t8.5 72t1.5 96.5q0 32 -0.5 59.5t-2.5 50.5z" />
    <glyph glyph-name="uni0218" unicode="&#x218;" horiz-adv-x="618" 
d="M77 220q18 -45 39 -81t47 -61.5t57.5 -39t69.5 -13.5q53 0 79 25t26 68q0 41 -25.5 68t-63 49.5t-82 45t-82 52t-63 71.5t-25.5 105q0 44 16 81t48 63.5t79.5 41.5t109.5 15q40 0 88 -8t102 -34l23 37h24v-225h-32q-43 104 -92.5 149.5t-105.5 45.5q-35 0 -51 -17
t-16 -49q0 -40 25 -69.5t62.5 -54t81 -49t81 -55t62.5 -70.5t25 -97q0 -53 -20 -95t-56 -70.5t-87 -43.5t-113 -15q-42 0 -101 7.5t-122 38.5l-13 -41h-28v225h33zM218 -342q32 17 60.5 44t34.5 69q-52 1 -79.5 21.5t-27.5 61.5q0 42 24.5 65t65.5 23t65.5 -26t24.5 -67
q0 -20 -5.5 -46t-22 -54t-48 -56t-82.5 -52z" />
    <glyph glyph-name="uni0219" unicode="&#x219;" horiz-adv-x="492" 
d="M63 170q15 -28 33.5 -55t39.5 -48.5t44 -34.5t47 -13q26 0 42.5 15t16.5 41q0 25 -18.5 42.5t-46 32.5t-59.5 31.5t-59.5 39t-46 54.5t-18.5 79q0 31 12 59.5t37.5 50t65 34t95.5 12.5q10 0 27 -1t37.5 -5t43.5 -10.5t46 -16.5l13 33h18v-180h-28q-21 45 -39 74.5
t-34.5 46.5t-33 23.5t-33.5 6.5q-28 0 -38 -15.5t-10 -27.5q0 -28 18.5 -47.5t46.5 -36.5t60.5 -34t60.5 -38.5t46.5 -51t18.5 -70.5q0 -44 -16.5 -76t-45.5 -53t-69 -31t-87 -10q-13 0 -33 1.5t-44 5.5t-51.5 12t-54.5 20l-14 -39h-20v180h30zM171 -342q32 17 60.5 44
t34.5 69q-52 1 -79.5 21.5t-27.5 61.5q0 42 24.5 65t65.5 23t65.5 -26t24.5 -67q0 -20 -5.5 -46t-22 -54t-48 -56t-82.5 -52z" />
    <glyph glyph-name="uni021A" unicode="&#x21a;" horiz-adv-x="599" 
d="M554 510l-118 155h-37v-630h85v-35h-370v35h85v630h-37l-118 -155h-30v190h570v-190h-30zM221 -342q32 17 60.5 44t34.5 69q-52 1 -79.5 21.5t-27.5 61.5q0 42 24.5 65t65.5 23t65.5 -26t24.5 -67q0 -20 -5.5 -46t-22 -54t-48 -56t-82.5 -52z" />
    <glyph glyph-name="uni021B" unicode="&#x21b;" horiz-adv-x="349" 
d="M249 87q0 -30 9.5 -42t35.5 -12q13 0 26.5 3.5t23.5 8.5v-30q-29 -14 -63.5 -19.5t-78.5 -5.5q-72 0 -107.5 27t-35.5 91v360h-45v32h45l155 130h35v-130h95v-32h-95v-381zM123 -342q32 17 60.5 44t34.5 69q-52 1 -79.5 21.5t-27.5 61.5q0 42 24.5 65t65.5 23t65.5 -26
t24.5 -67q0 -20 -5.5 -46t-22 -54t-48 -56t-82.5 -52z" />
    <glyph glyph-name="uni0237" unicode="&#x237;" horiz-adv-x="313" 
d="M258 -24q0 -39 -14 -73t-41.5 -59t-69.5 -39.5t-98 -14.5q-70 0 -103.5 26t-33.5 64t23 56.5t51 18.5t51 -14.5t23 -52.5q0 -16 -11.5 -37.5t-42.5 -30.5q6 -3 14 -5.5t19 -2.5q29 0 36 21t7 48v587h-65v32h255v-524z" />
    <glyph glyph-name="uni0259" unicode="&#x259;" horiz-adv-x="547" 
d="M37 428q14 13 33.5 27.5t46 26.5t60.5 20t78 8q61 0 110.5 -18.5t84.5 -52t54 -81.5t19 -108q0 -67 -24 -116t-62 -81t-85.5 -47.5t-94.5 -15.5q-43 0 -85 11t-75 36t-53.5 66t-20.5 100q0 11 1 27.5t3 27.5h296q0 57 -9.5 95.5t-27 62t-42.5 33.5t-56 10
q-48 0 -86.5 -19.5t-64.5 -43.5v32zM207 225q0 -2 -1 -10.5t-1.5 -19t-1 -21.5t-0.5 -18q0 -19 2 -42.5t7.5 -44.5t15.5 -35t27 -14q20 0 33 16.5t20.5 44t11 65t3.5 79.5h-116z" />
    <glyph glyph-name="circumflex" unicode="&#x2c6;" horiz-adv-x="394" 
d="M197 612l-157 -72l-10 16l83 127q21 32 41.5 44.5t42.5 12.5t42.5 -12.5t41.5 -44.5l83 -127l-10 -16z" />
    <glyph glyph-name="caron" unicode="&#x2c7;" horiz-adv-x="394" 
d="M281 598q-21 -33 -41.5 -45.5t-42.5 -12.5t-42.5 12.5t-41.5 45.5l-83 126l10 16l157 -72l157 72l10 -16z" />
    <glyph glyph-name="breve" unicode="&#x2d8;" horiz-adv-x="375" 
d="M53 730q5 -30 39.5 -50t94.5 -20q61 0 96 20t40 50h22q-5 -37 -16 -70t-30 -57.5t-46.5 -38.5t-65.5 -14q-37 0 -64.5 14t-46.5 38.5t-30 57.5t-16 70h23z" />
    <glyph glyph-name="dotaccent" unicode="&#x2d9;" horiz-adv-x="220" 
d="M30 632q0 35 19.5 56.5t60.5 21.5t60.5 -21.5t19.5 -56.5t-19.5 -54t-60.5 -19t-60.5 19t-19.5 54z" />
    <glyph glyph-name="ring" unicode="&#x2da;" horiz-adv-x="231" 
d="M30 648q0 35 25 60t60 25q36 0 61 -25t25 -60q0 -36 -25 -61t-61 -25q-35 0 -60 25t-25 61zM52 648q0 -28 18 -46t45 -18q28 0 46 18t18 46q0 27 -18 45t-46 18q-27 0 -45 -18t-18 -45z" />
    <glyph glyph-name="ogonek" unicode="&#x2db;" horiz-adv-x="249" 
d="M219 -186q-17 -14 -41.5 -21.5t-48.5 -7.5q-50 0 -74.5 22.5t-24.5 57.5q0 23 12.5 43.5t31 37.5t40.5 30.5t42 23.5h21q-21 -24 -32.5 -58.5t-11.5 -66.5q0 -30 15 -44t29 -14q18 0 36 12z" />
    <glyph glyph-name="tilde" unicode="&#x2dc;" horiz-adv-x="402" 
d="M372 706q-7 -33 -15 -60.5t-19 -47.5t-25.5 -31.5t-33.5 -11.5q-14 0 -39 6t-52.5 13t-52.5 13t-39 6q-32 0 -50 -30l-16 7q12 36 23 63t23 45.5t26.5 27.5t33.5 9q15 0 40 -6t51.5 -12.5t50 -12.5t36.5 -6q14 0 23.5 7t16.5 26z" />
    <glyph glyph-name="hungarumlaut" unicode="&#x2dd;" horiz-adv-x="518" 
d="M94 685q19 35 42.5 50t45.5 15q17 0 32 -6.5t26.5 -17t18 -25t6.5 -30.5q0 -35 -24 -55.5t-67 -31.5l-134 -34l-10 16zM317 685q18 35 41.5 50t46.5 15q17 0 32 -6.5t26.5 -17t18 -25t6.5 -30.5q0 -35 -24 -55.5t-68 -31.5l-133 -34l-10 16z" />
    <glyph glyph-name="uni0326" unicode="&#x326;" horiz-adv-x="0" 
d="M52 -342q32 17 60.5 44t34.5 69q-52 1 -79.5 21.5t-27.5 61.5q0 42 24.5 65t65.5 23t65.5 -26t24.5 -67q0 -20 -5.5 -46t-22 -54t-48 -56t-82.5 -52z" />
    <glyph glyph-name="uni0394" unicode="&#x394;" horiz-adv-x="676" 
d="M650 0h-623l280 705h40zM407 35l-165 409h-2l-161 -409h328z" />
    <glyph glyph-name="uni03A9" unicode="&#x3a9;" horiz-adv-x="730" 
d="M680 183v-183h-285v156q51 30 70 95t19 159q0 136 -27.5 200.5t-91.5 64.5t-91.5 -64.5t-27.5 -200.5q0 -94 19 -159t70 -95v-156h-285v183h30l91 -145h131v105q-75 16 -123.5 46.5t-77 67t-40 77t-11.5 76.5q0 64 20.5 118.5t60 95t98.5 63.5t136 23t136 -23t98.5 -63.5
t60 -95t20.5 -118.5q0 -36 -11.5 -76.5t-40 -77t-77.5 -67t-124 -46.5v-108h130l93 148h30z" />
    <glyph glyph-name="uni03BC" unicode="&#x3bc;" horiz-adv-x="785" 
d="M743 33v-33h-235v104q-26 -63 -68.5 -88.5t-93.5 -25.5q-8 0 -14.5 0.5t-13.5 1.5v-16q0 -36 -7 -70t-24.5 -59.5t-47 -41t-75.5 -15.5q-69 0 -102.5 26t-33.5 64t23 56.5t51 18.5t51 -14.5t23 -52.5q0 -16 -11.5 -37.5t-42.5 -30.5q6 -3 14 -5.5t18 -2.5q30 0 37 21
t7 48v587h-65v32h255v-357q0 -34 14.5 -47t35.5 -13q6 0 18 3t23.5 13t20 29t8.5 52v288h-65v32h255v-467h45z" />
    <glyph glyph-name="pi" unicode="&#x3c0;" horiz-adv-x="641" 
d="M571 33h45v-33h-280v33h45v435h-120v-435h45v-33h-280v33h45v435h-45v32h590v-32h-45v-435z" />
    <glyph glyph-name="sigma" unicode="&#x3c3;" horiz-adv-x="617" 
d="M447 470q59 -29 92 -86t33 -139q0 -61 -19 -108.5t-53.5 -80t-83.5 -49.5t-109 -17t-109 17t-83.5 49.5t-53.5 80t-19 108.5t19 108.5t53.5 80t83.5 49.5t109 17h259v-30h-119zM307 20q22 0 35 15t20 44t8.5 70.5t1.5 95.5t-1.5 95.5t-8.5 70.5t-20 44t-35 15
q-23 0 -35.5 -15t-19.5 -44t-8.5 -70.5t-1.5 -95.5q0 -53 1.5 -95t8.5 -71t19.5 -44t35.5 -15z" />
    <glyph glyph-name="Wgrave" unicode="&#x1e80;" horiz-adv-x="1055" 
d="M588 766l-10 -16l-134 34q-43 11 -67 31.5t-24 55.5q0 16 6.5 30.5t17.5 25t26.5 17t32.5 6.5q22 0 45.5 -15t42.5 -50zM1068 665v35h-230v-35h115l-132 -457h-2l-141 457h68v35h-343v-35h53l67 -209l-84 -258h-2l-171 467h67v35h-343v-35h48l249 -670h120l134 406
l130 -406h122l197 670h78z" />
    <glyph glyph-name="wgrave" unicode="&#x1e81;" horiz-adv-x="887" 
d="M507 566l-10 -16l-134 34q-43 11 -67 31.5t-24 55.5q0 16 6.5 30.5t17.5 25t26.5 17t32.5 6.5q22 0 45.5 -15t42.5 -50zM899 468v32h-182v-32h82l-97 -320h-2l-98 320h85v32h-350v-32h43l50 -151l-54 -169h-2l-113 320h46v32h-319v-32h48l174 -473h149l88 270l90 -270
h149l148 473h65z" />
    <glyph glyph-name="Wacute" unicode="&#x1e82;" horiz-adv-x="1055" 
d="M632 885q19 35 42.5 50t45.5 15q17 0 32 -6.5t26.5 -17t18 -25t6.5 -30.5q0 -35 -24 -55.5t-67 -31.5l-134 -34l-10 16zM990 665l-197 -670h-122l-130 406l-134 -406h-120l-249 670h-48v35h343v-35h-67l171 -467h2l84 258l-67 209h-53v35h343v-35h-68l141 -457h2l132 457
h-115v35h230v-35h-78z" />
    <glyph glyph-name="wacute" unicode="&#x1e83;" horiz-adv-x="887" 
d="M551 685q19 35 42.5 50t45.5 15q17 0 32 -6.5t26.5 -17t18 -25t6.5 -30.5q0 -35 -24 -55.5t-67 -31.5l-134 -34l-10 16zM834 468l-148 -473h-149l-90 270l-88 -270h-149l-174 473h-48v32h319v-32h-46l113 -320h2l54 169l-50 151h-43v32h350v-32h-85l98 -320h2l97 320h-82
v32h182v-32h-65z" />
    <glyph glyph-name="Wdieresis" unicode="&#x1e84;" horiz-adv-x="1055" 
d="M398 832q0 35 19.5 56.5t60.5 21.5t60.5 -21.5t19.5 -56.5t-19.5 -54t-60.5 -19t-60.5 19t-19.5 54zM598 832q0 35 19.5 56.5t60.5 21.5t60.5 -21.5t19.5 -56.5t-19.5 -54t-60.5 -19t-60.5 19t-19.5 54zM990 665l-197 -670h-122l-130 406l-134 -406h-120l-249 670h-48v35
h343v-35h-67l171 -467h2l84 258l-67 209h-53v35h343v-35h-68l141 -457h2l132 457h-115v35h230v-35h-78z" />
    <glyph glyph-name="wdieresis" unicode="&#x1e85;" horiz-adv-x="887" 
d="M317 632q0 35 19.5 56.5t60.5 21.5t60.5 -21.5t19.5 -56.5t-19.5 -54t-60.5 -19t-60.5 19t-19.5 54zM517 632q0 35 19.5 56.5t60.5 21.5t60.5 -21.5t19.5 -56.5t-19.5 -54t-60.5 -19t-60.5 19t-19.5 54zM834 468l-148 -473h-149l-90 270l-88 -270h-149l-174 473h-48v32
h319v-32h-46l113 -320h2l54 169l-50 151h-43v32h350v-32h-85l98 -320h2l97 320h-82v32h182v-32h-65z" />
    <glyph glyph-name="uni1E9E" unicode="&#x1e9e;" horiz-adv-x="698" 
d="M81 514q0 39 13 78t44.5 69.5t85.5 49.5t136 19q45 0 88.5 -8.5t77 -26t54.5 -43t21 -59.5q0 -28 -14.5 -46.5t-36 -31t-46.5 -22t-46.5 -18.5t-36 -20t-14.5 -28t20.5 -31.5t51.5 -30.5t67.5 -34t67.5 -41.5t51.5 -55t20.5 -72.5q0 -43 -16.5 -75.5t-44.5 -54t-65.5 -32
t-79.5 -10.5q-57 0 -97.5 21.5t-61.5 56.5l15 22q5 -9 15 -21t24 -22.5t32 -17.5t40 -7q23 0 39.5 14.5t16.5 41.5q0 24 -14.5 42t-37 34t-48 31.5t-48 36t-37 47t-14.5 63.5q0 35 13 59t32.5 42t42 32t42 30t32.5 37t13 52q0 18 -4.5 38.5t-16.5 38t-33.5 28.5t-54.5 11
q-48 0 -73.5 -25.5t-25.5 -80.5v-594h-235v33h45v435h-45v32h45v14z" />
    <glyph glyph-name="Ygrave" unicode="&#x1ef2;" horiz-adv-x="644" 
d="M365 766l-10 -16l-134 34q-43 11 -67 31.5t-24 55.5q0 16 6.5 30.5t17.5 25t26.5 17t32.5 6.5q22 0 45.5 -15t42.5 -50zM655 665v35h-202v-35h99l-130 -298h-2l-159 298h89v35h-364v-35h48l205 -371v-259h-45v-35h290v35h-45v289l151 341h65z" />
    <glyph glyph-name="ygrave" unicode="&#x1ef3;" horiz-adv-x="565" 
d="M293 566l-10 -16l-134 34q-43 11 -67 31.5t-24 55.5q0 16 6.5 30.5t17.5 25t26.5 17t32.5 6.5q22 0 45.5 -15t42.5 -50zM-12 468h48l174 -473h111q-20 -65 -47.5 -101t-55.5 -53t-53 -20.5t-40 -3.5q-11 0 -21.5 2.5t-16.5 5.5q31 9 43 30.5t12 37.5q0 38 -23 52.5
t-51 14.5q-29 0 -52 -18.5t-23 -56.5q0 -19 8.5 -36t25.5 -30t42.5 -21t60.5 -8q52 0 89.5 18t64.5 47.5t45 67t31 76.5l154 469h65v32h-198v-32h98l-103 -320h-2l-110 320h87v32h-363v-32z" />
    <glyph glyph-name="figuredash" unicode="&#x2012;" horiz-adv-x="565" 
d="M37 376h490v-32h-490v32z" />
    <glyph glyph-name="endash" unicode="&#x2013;" horiz-adv-x="577" 
d="M43 266h490v-32h-490v32z" />
    <glyph glyph-name="emdash" unicode="&#x2014;" horiz-adv-x="677" 
d="M43 266h590v-32h-590v32z" />
    <glyph glyph-name="quoteleft" unicode="&#x2018;" horiz-adv-x="240" 
d="M198 693q-32 -17 -60.5 -44t-34.5 -69q106 -2 106 -83q0 -42 -24.5 -65t-65.5 -23t-65.5 26t-24.5 67q0 20 5.5 46t22.5 54t48.5 56t82.5 52z" />
    <glyph glyph-name="quoteright" unicode="&#x2019;" horiz-adv-x="242" 
d="M51 427q15 8 31 18.5t29 24.5t22 31.5t12 38.5q-51 1 -78.5 21t-27.5 61q0 42 24.5 65t65.5 23t65.5 -26t24.5 -67q0 -20 -5.5 -46t-22 -54t-48 -56t-82.5 -52z" />
    <glyph glyph-name="quotesinglbase" unicode="&#x201a;" horiz-adv-x="263" 
d="M53 -122q16 8 31.5 19t28.5 25t22 31t12 38q-51 1 -78.5 21.5t-27.5 61.5q0 42 24.5 65t65.5 23t65.5 -26t24.5 -67q0 -20 -5.5 -46t-22 -54t-48 -56t-82.5 -52z" />
    <glyph glyph-name="quotedblleft" unicode="&#x201c;" horiz-adv-x="440" 
d="M198 693q-32 -17 -60.5 -44t-34.5 -69q106 -2 106 -83q0 -42 -24.5 -65t-65.5 -23t-65.5 26t-24.5 67q0 20 5.5 46t22.5 54t48.5 56t82.5 52zM398 693q-32 -17 -60.5 -44t-34.5 -69q106 -2 106 -83q0 -42 -24.5 -65t-65.5 -23t-65.5 26t-24.5 67q0 20 5.5 46t22.5 54
t48.5 56t82.5 52z" />
    <glyph glyph-name="quotedblright" unicode="&#x201d;" horiz-adv-x="442" 
d="M51 427q15 8 31 18.5t29 24.5t22 31.5t12 38.5q-51 1 -78.5 21t-27.5 61q0 42 24.5 65t65.5 23t65.5 -26t24.5 -67q0 -20 -5.5 -46t-22 -54t-48 -56t-82.5 -52zM251 427q15 8 31 18.5t29 24.5t22 31.5t12 38.5q-51 1 -78.5 21t-27.5 61q0 42 24.5 65t65.5 23t65.5 -26
t24.5 -67q0 -20 -5.5 -46t-22 -54t-48 -56t-82.5 -52z" />
    <glyph glyph-name="quotedblbase" unicode="&#x201e;" horiz-adv-x="463" 
d="M53 -122q16 8 31.5 19t28.5 25t22 31t12 38q-51 1 -78.5 21.5t-27.5 61.5q0 42 24.5 65t65.5 23t65.5 -26t24.5 -67q0 -20 -5.5 -46t-22 -54t-48 -56t-82.5 -52zM253 -122q16 8 31.5 19t28.5 25t22 31t12 38q-51 1 -78.5 21.5t-27.5 61.5q0 42 24.5 65t65.5 23t65.5 -26
t24.5 -67q0 -20 -5.5 -46t-22 -54t-48 -56t-82.5 -52z" />
    <glyph glyph-name="dagger" unicode="&#x2020;" horiz-adv-x="451" 
d="M240 456q49 3 86 19.5t51 40.5q-14 0 -23.5 7.5t-9.5 22.5q0 14 9 22t26 8q18 0 27 -11t9 -28q0 -32 -31.5 -59.5t-85.5 -40.5l-63 -437h-20l-63 437q-54 13 -85.5 40.5t-31.5 59.5q0 17 9.5 28t27.5 11q17 0 26 -8t9 -22q0 -15 -10 -22.5t-24 -7.5q15 -24 52.5 -40.5
t85.5 -19.5l-82 244h193z" />
    <glyph glyph-name="daggerdbl" unicode="&#x2021;" horiz-adv-x="469" 
d="M290 269q61 -11 98 -40t37 -63q0 -17 -9.5 -28.5t-27.5 -11.5q-35 0 -35 31q0 15 10 22.5t24 7.5q-15 24 -52.5 40t-85.5 19l82 -246h-192l81 246q-49 -3 -86 -19t-51 -40q14 0 23.5 -7.5t9.5 -22.5q0 -31 -35 -31q-18 0 -27 11.5t-9 28.5q0 34 37 63t97 40l43 86l-42 79
q-61 10 -98 39t-37 64q0 17 9 28t27 11q17 0 26 -8t9 -22q0 -15 -9.5 -22.5t-23.5 -7.5q14 -24 51 -40.5t86 -19.5l-81 244h192l-82 -244q48 3 85.5 19.5t52.5 40.5q-14 0 -24 7.5t-10 22.5q0 14 9 22t26 8q18 0 27.5 -11t9.5 -28q0 -35 -37.5 -64t-98.5 -40l-42 -78z" />
    <glyph glyph-name="bullet" unicode="&#x2022;" horiz-adv-x="292" 
d="M38 224q0 51 29.5 78t78.5 27t78.5 -27t29.5 -78t-29.5 -75.5t-78.5 -24.5t-78.5 24.5t-29.5 75.5z" />
    <glyph glyph-name="onedotenleader" unicode="&#x2024;" horiz-adv-x="252" 
d="M36 73q0 42 24.5 64.5t65.5 22.5t65.5 -22.5t24.5 -64.5t-24.5 -62.5t-65.5 -20.5t-65.5 20.5t-24.5 62.5z" />
    <glyph glyph-name="twodotenleader" unicode="&#x2025;" horiz-adv-x="492" 
d="M36 74q0 42 24.5 65t65.5 23t65.5 -23t24.5 -65t-24.5 -62.5t-65.5 -20.5t-65.5 20.5t-24.5 62.5zM276 74q0 42 24.5 65t65.5 23t65.5 -23t24.5 -65t-24.5 -62.5t-65.5 -20.5t-65.5 20.5t-24.5 62.5z" />
    <glyph glyph-name="ellipsis" unicode="&#x2026;" horiz-adv-x="743" 
d="M41 74q0 42 24.5 65t65.5 23t65.5 -23t24.5 -65t-24.5 -62.5t-65.5 -20.5t-65.5 20.5t-24.5 62.5zM281 74q0 42 24.5 65t65.5 23t65.5 -23t24.5 -65t-24.5 -62.5t-65.5 -20.5t-65.5 20.5t-24.5 62.5zM521 74q0 42 24.5 65t65.5 23t65.5 -23t24.5 -65t-24.5 -62.5
t-65.5 -20.5t-65.5 20.5t-24.5 62.5z" />
    <glyph glyph-name="perthousand" unicode="&#x2030;" horiz-adv-x="1091" 
d="M347 550q0 -72 -41.5 -114t-113.5 -42t-113.5 42t-41.5 114t41.5 114t113.5 42t113.5 -42t41.5 -114zM573 700l-420 -700h25l420 700h-25zM142 550q0 -66 9.5 -102.5t40.5 -36.5t40.5 36.5t9.5 102.5t-9.5 103t-40.5 37t-40.5 -37t-9.5 -103zM707 150q0 -72 -41.5 -114
t-113.5 -42t-113.5 42t-41.5 114t41.5 114t113.5 42t113.5 -42t41.5 -114zM1057 150q0 -72 -41.5 -114t-113.5 -42t-113.5 42t-41.5 114t41.5 114t113.5 42t113.5 -42t41.5 -114zM502 150q0 -66 9.5 -102.5t40.5 -36.5t40.5 36.5t9.5 102.5t-9.5 103t-40.5 37t-40.5 -37
t-9.5 -103zM852 150q0 -66 9.5 -102.5t40.5 -36.5t40.5 36.5t9.5 102.5t-9.5 103t-40.5 37t-40.5 -37t-9.5 -103z" />
    <glyph glyph-name="guilsinglleft" unicode="&#x2039;" horiz-adv-x="334" 
d="M26 237v25l270 204v-34l-100 -182v-2l100 -180v-34z" />
    <glyph glyph-name="guilsinglright" unicode="&#x203a;" horiz-adv-x="334" 
d="M38 34v34l100 180v2l-100 182v34l270 -204v-25z" />
    <glyph glyph-name="exclamdbl" unicode="&#x203c;" horiz-adv-x="589" 
d="M128 210q-3 52 -18 108.5t-31.5 110t-30 98.5t-13.5 73q0 34 11 55.5t27.5 33.5t35.5 16.5t36 4.5t36 -4.5t35.5 -16.5t27.5 -33.5t11 -55.5q0 -28 -13.5 -73t-30 -98.5t-32 -110t-18.5 -108.5h-33zM428 210q-3 52 -18 108.5t-31.5 110t-30 98.5t-13.5 73q0 34 11 55.5
t27.5 33.5t35.5 16.5t36 4.5t36 -4.5t35.5 -16.5t27.5 -33.5t11 -55.5q0 -28 -13.5 -73t-30 -98.5t-32 -110t-18.5 -108.5h-33zM55 73q0 -42 24.5 -62.5t65.5 -20.5t65.5 20.5t24.5 62.5t-24.5 64.5t-65.5 22.5t-65.5 -22.5t-24.5 -64.5zM355 73q0 -42 24.5 -62.5
t65.5 -20.5t65.5 20.5t24.5 62.5t-24.5 64.5t-65.5 22.5t-65.5 -22.5t-24.5 -64.5z" />
    <glyph glyph-name="fraction" unicode="&#x2044;" horiz-adv-x="150" 
d="M-97 0h-35l381 700h35z" />
    <glyph glyph-name="colonmonetary" unicode="&#x20a1;" horiz-adv-x="691" 
d="M600 480q-25 59 -49 96l-255 -467q16 -37 41.5 -60.5t64.5 -23.5q26 0 52 10t51 33t49 60.5t46 91.5h32v-225h-25l-27 38q-29 -14 -56.5 -22.5t-51.5 -13t-44 -6t-33 -1.5q-71 0 -134.5 25.5t-111.5 72.5t-76 113.5t-28 148.5t28 148.5t76 113.5t111.5 72.5t134.5 25.5
q13 0 33 -1.5t44 -6t51.5 -12.5t56.5 -22l27 37h25v-225h-32zM487 647q-21 15 -42 21.5t-43 6.5q-46 0 -74 -32.5t-43 -81.5t-20 -105.5t-5 -105.5q0 -25 1 -52t4 -55zM540 593q-10 13 -19 23.5t-19 18.5l-233 -424q6 -43 18 -78z" />
    <glyph glyph-name="uni20A8" unicode="&#x20a8;" horiz-adv-x="639" 
d="M611 665h-176q78 -43 84 -142h92v-35h-93q-6 -65 -48.5 -105.5t-126.5 -54.5q69 -8 101.5 -28t47.5 -57l73 -208h46v-35h-262l-68 240q-12 43 -32 62t-58 19h-154v32h192q18 0 32 6t24 21.5t16 41.5t8 66h-272v35h272q-1 45 -6.5 73t-16 43.5t-25 20.5t-32.5 5h-192v35
h574v-35z" />
    <glyph glyph-name="Euro" unicode="&#x20ac;" horiz-adv-x="729" 
d="M636 480q-22 54 -46 91.5t-49 60.5t-51 33t-52 10q-37 0 -62 -21.5t-41 -56t-24.5 -77.5t-11.5 -87h152v-35h-154q-1 -13 -1 -25v-23v-23t1 -24h154v-35h-152q3 -44 11 -87.5t24 -78t41.5 -56t62.5 -21.5q26 0 52 10t51 33t49 60.5t46 91.5h32v-225h-25l-27 38
q-29 -14 -57 -22.5t-52 -13t-43.5 -6t-32.5 -1.5q-61 0 -117 19.5t-102 55.5t-78 87.5t-45 115.5h-48v35h43q-3 22 -3 47q0 24 3 48h-43v35h48q13 64 45.5 115t78 87t101.5 55.5t117 19.5q26 0 76 -7t109 -35l27 37h25v-225h-32z" />
    <glyph glyph-name="uni2113" unicode="&#x2113;" horiz-adv-x="462" 
d="M129 509q0 102 40 151q42 50 100 50q45 0 70.5 -27t25.5 -72q0 -51 -31 -112q-31 -63 -129 -176v-168q0 -75 23 -106q22 -29 60 -29q35 0 64 29q32 29 54 103h18q-21 -83 -68 -127q-37 -35 -89 -35q-44 0 -78 24t-49 66q-11 33 -11 107v52l-82 -83l-12 11l94 99v243z
M205 350q134 155 134 242q0 43 -19.5 66t-47.5 23q-29 0 -48 -28t-19 -110v-193z" />
    <glyph glyph-name="uni2116" unicode="&#x2116;" horiz-adv-x="1150" 
d="M947 398q-72 0 -115.5 41t-43.5 115t43.5 115t115.5 41t115.5 -41t43.5 -115t-43.5 -115t-115.5 -41zM531 700h226v-35h-93v-665h-115l-392 462v-427h95v-35h-210v35h77v630h-77v35h192l393 -462v427h-96v35zM947 692q-27 0 -33 -36.5t-6 -101.5q0 -64 6 -101t33 -37
t33 36.5t6 101.5t-6 101.5t-33 36.5zM788 355h318v-18h-318v18z" />
    <glyph glyph-name="trademark" unicode="&#x2122;" horiz-adv-x="981" 
d="M406 700v-114h-18l-71 93h-22v-378h51v-21h-222v21h51v378h-22l-71 -93h-18v114h342zM896 679v-378h27v-21h-174v21h27v334l-112 -358h-22l-137 362v-338h48v-21h-117v21h46v378h-46v21h173l91 -226h2l73 226h148v-21h-27z" />
    <glyph glyph-name="estimated" unicode="&#x212e;" horiz-adv-x="765" 
d="M198 114q81 -78 190 -78q163 0 252 157l46 -26q-32 -46 -63.5 -79.5t-67 -55t-76 -32t-91.5 -10.5q-76 0 -138 27.5t-106.5 76t-69 114t-24.5 141.5q0 78 24.5 144t69.5 114.5t107 75.5t137 27q67 0 127 -23t105.5 -68.5t74 -113t31.5 -156.5h-528v-235zM578 586
q-82 77 -191 77q-110 0 -189 -77v-189h380v189z" />
    <glyph glyph-name="oneeighth" unicode="&#x215b;" horiz-adv-x="777" 
d="M19 284v23h45v360h-45v21q45 0 84.5 6t65.5 13h15v-400h45v-23h-210zM149 0h-35l381 700h35zM649 249q20 -12 39.5 -25t34.5 -28.5t24.5 -35t9.5 -43.5q0 -34 -15.5 -57.5t-41 -38t-57.5 -21t-66 -6.5q-46 0 -76.5 8.5t-48.5 22.5t-25.5 31.5t-7.5 35.5q0 19 8.5 34.5
t22.5 28.5t32 23t37 18q-17 11 -33 23t-28.5 26t-20 30.5t-7.5 36.5q0 21 10 41.5t30.5 36.5t50.5 26t70 10q35 0 61 -8t43.5 -20.5t26.5 -29t9 -33.5q0 -18 -7.5 -32t-19 -24.5t-26 -17.5t-29.5 -12zM591 407q-20 0 -33.5 -12t-13.5 -41q0 -31 25.5 -52t59.5 -41
q6 11 12 26.5t6 50.5q0 26 -12 47.5t-44 21.5zM577 14q31 0 42.5 19t11.5 41q0 19 -8 34t-21 28.5t-30.5 25t-35.5 23.5q-11 -25 -15.5 -51.5t-4.5 -44.5q0 -44 18 -59.5t43 -15.5z" />
    <glyph glyph-name="threeeighths" unicode="&#x215c;" horiz-adv-x="881" 
d="M114 512q51 8 73 36t22 68q0 23 -6.5 37.5t-17 22.5t-24 10.5t-26.5 2.5q-14 0 -30.5 -5t-24.5 -11q28 -2 38 -16t10 -28q0 -19 -11.5 -32t-35.5 -13q-25 0 -37.5 13t-12.5 33q0 32 34.5 56t97.5 24q32 0 59.5 -5.5t48 -16.5t32.5 -27.5t12 -39.5q0 -25 -12.5 -43
t-32.5 -31t-45 -22t-51 -15q33 -3 61 -10.5t49 -20.5t32.5 -33.5t11.5 -48.5q0 -33 -16 -55.5t-41 -37t-55 -20.5t-58 -6q-67 0 -104.5 26t-37.5 60q0 21 13 34.5t38 13.5q24 0 36 -13.5t12 -33.5q0 -15 -10.5 -29t-38.5 -16q8 -8 27.5 -14.5t36.5 -6.5q34 0 56 23t22 79
q0 54 -26 75.5t-68 21.5v14zM253 0h-35l381 700h35zM753 249q20 -12 39.5 -25t34.5 -28.5t24.5 -35t9.5 -43.5q0 -34 -15.5 -57.5t-41 -38t-57.5 -21t-66 -6.5q-46 0 -76.5 8.5t-48.5 22.5t-25.5 31.5t-7.5 35.5q0 19 8.5 34.5t22.5 28.5t32 23t37 18q-17 11 -33 23
t-28.5 26t-20 30.5t-7.5 36.5q0 21 10 41.5t30.5 36.5t50.5 26t70 10q35 0 61 -8t43.5 -20.5t26.5 -29t9 -33.5q0 -18 -7.5 -32t-19 -24.5t-26 -17.5t-29.5 -12zM695 407q-20 0 -33.5 -12t-13.5 -41q0 -31 25.5 -52t59.5 -41q6 11 12 26.5t6 50.5q0 26 -12 47.5t-44 21.5z
M681 14q31 0 42.5 19t11.5 41q0 19 -8 34t-21 28.5t-30.5 25t-35.5 23.5q-11 -25 -15.5 -51.5t-4.5 -44.5q0 -44 18 -59.5t43 -15.5z" />
    <glyph glyph-name="fiveeighths" unicode="&#x215d;" horiz-adv-x="877" 
d="M63 504q17 12 43.5 22t65.5 10q27 0 54.5 -6.5t50 -22t36.5 -40t14 -60.5q0 -40 -16 -65t-41 -39.5t-55 -19.5t-58 -5q-67 0 -104.5 26t-37.5 60q0 21 13 34.5t38 13.5q24 0 36 -13.5t12 -33.5q0 -15 -10.5 -29t-38.5 -16q8 -8 27.5 -14.5t36.5 -6.5t31 4t24.5 16
t16.5 33t6 55q0 54 -19 77.5t-54 23.5q-26 0 -45 -10.5t-28 -18.5l-18 4l17 221h243v-108h-233zM249 0h-35l381 700h35zM749 249q20 -12 39.5 -25t34.5 -28.5t24.5 -35t9.5 -43.5q0 -34 -15.5 -57.5t-41 -38t-57.5 -21t-66 -6.5q-46 0 -76.5 8.5t-48.5 22.5t-25.5 31.5
t-7.5 35.5q0 19 8.5 34.5t22.5 28.5t32 23t37 18q-17 11 -33 23t-28.5 26t-20 30.5t-7.5 36.5q0 21 10 41.5t30.5 36.5t50.5 26t70 10q35 0 61 -8t43.5 -20.5t26.5 -29t9 -33.5q0 -18 -7.5 -32t-19 -24.5t-26 -17.5t-29.5 -12zM691 407q-20 0 -33.5 -12t-13.5 -41
q0 -31 25.5 -52t59.5 -41q6 11 12 26.5t6 50.5q0 26 -12 47.5t-44 21.5zM677 14q31 0 42.5 19t11.5 41q0 19 -8 34t-21 28.5t-30.5 25t-35.5 23.5q-11 -25 -15.5 -51.5t-4.5 -44.5q0 -44 18 -59.5t43 -15.5z" />
    <glyph glyph-name="seveneighths" unicode="&#x215e;" horiz-adv-x="831" 
d="M321 638q-35 -29 -55.5 -64.5t-31.5 -74t-14.5 -78.5t-3.5 -77q0 -23 -8 -36t-19 -19.5t-23 -8.5t-19 -2q-10 0 -21.5 2.5t-21.5 10t-16.5 20.5t-6.5 33q0 28 15.5 60t41 65.5t57.5 66t65 60.5h-222l-3 -27h-20v135h306v-66zM203 0h-35l381 700h35zM703 249
q20 -12 39.5 -25t34.5 -28.5t24.5 -35t9.5 -43.5q0 -34 -15.5 -57.5t-41 -38t-57.5 -21t-66 -6.5q-46 0 -76.5 8.5t-48.5 22.5t-25.5 31.5t-7.5 35.5q0 19 8.5 34.5t22.5 28.5t32 23t37 18q-17 11 -33 23t-28.5 26t-20 30.5t-7.5 36.5q0 21 10 41.5t30.5 36.5t50.5 26t70 10
q35 0 61 -8t43.5 -20.5t26.5 -29t9 -33.5q0 -18 -7.5 -32t-19 -24.5t-26 -17.5t-29.5 -12zM645 407q-20 0 -33.5 -12t-13.5 -41q0 -31 25.5 -52t59.5 -41q6 11 12 26.5t6 50.5q0 26 -12 47.5t-44 21.5zM631 14q31 0 42.5 19t11.5 41q0 19 -8 34t-21 28.5t-30.5 25
t-35.5 23.5q-11 -25 -15.5 -51.5t-4.5 -44.5q0 -44 18 -59.5t43 -15.5z" />
    <glyph glyph-name="partialdiff" unicode="&#x2202;" horiz-adv-x="676" 
d="M436 420q2 14 4.5 32.5t2.5 38.5q0 34 -4.5 68t-17 60t-36.5 42.5t-63 16.5q-29 0 -57.5 -10.5t-46.5 -25.5q38 -2 51 -19.5t13 -46.5q0 -32 -25.5 -54t-61.5 -22q-32 0 -49 15t-17 42q0 42 24 71t59 47t74 26.5t70 8.5q60 0 110 -15.5t86 -49.5t56 -86.5t20 -126.5
q0 -72 -21 -150.5t-64.5 -143t-110 -106.5t-157.5 -42q-55 0 -98.5 14.5t-73.5 40.5t-46 63t-16 82q0 60 25 109t65.5 83.5t92.5 53.5t107 19q32 0 58.5 -10.5t43.5 -25.5zM430 386q-14 14 -32 24t-41 10q-39 0 -65.5 -28t-43 -71.5t-23.5 -96t-7 -100.5q0 -18 2 -36.5
t8.5 -33.5t19 -25t33.5 -10q25 0 46 25.5t39 73t33.5 115.5t30.5 153z" />
    <glyph glyph-name="emptyset" unicode="&#x2205;" horiz-adv-x="666" 
d="M507 654q60 -46 90.5 -123.5t30.5 -180.5q0 -82 -19.5 -148.5t-57.5 -113.5t-93 -72.5t-125 -25.5q-95 0 -162 46l-19 -36h-35l30 55q-54 47 -81.5 122t-27.5 173q0 81 19.5 147.5t57.5 113.5t92.5 73t125.5 26q85 0 149 -38l15 28h35zM406 533q-3 30 -8.5 57t-14 47
t-21 31.5t-29.5 11.5q-29 0 -45 -33.5t-23.5 -83t-9.5 -107t-2 -106.5v-47t1 -50zM258 195q3 -35 8 -66.5t14 -55.5t22 -38.5t31 -14.5q29 0 45.5 33.5t24 83t9 107t1.5 106.5v61.5t-2 64.5z" />
    <glyph glyph-name="product" unicode="&#x220f;" horiz-adv-x="782" 
d="M691 665v-630h45v-35h-290v35h45v630h-200v-630h45v-35h-290v35h45v630h-45v35h690v-35h-45z" />
    <glyph glyph-name="summation" unicode="&#x2211;" horiz-adv-x="599" 
d="M547 190v-190h-504v35l166 325l-166 305v35h494v-190h-30l-94 155h-159l155 -305l-156 -325h170l94 155h30z" />
    <glyph glyph-name="minus" unicode="&#x2212;" horiz-adv-x="451" 
d="M55 266h340v-32h-340v32z" />
    <glyph glyph-name="radical" unicode="&#x221a;" horiz-adv-x="574" 
d="M589 700l-280 -705h-40l-141 323h-123v32h334l35 -94h2l175 444h38z" />
    <glyph glyph-name="infinity" unicode="&#x221e;" horiz-adv-x="719" 
d="M356 224q-10 -21 -25.5 -42.5t-36.5 -38t-48 -27t-58 -10.5q-66 0 -104.5 39t-38.5 105q0 64 41 104t114 40q30 0 54.5 -11t44.5 -29t35.5 -39.5t26.5 -42.5q12 22 28 44t37 39t47 28t58 11q66 0 105 -39t39 -105q0 -30 -10 -56.5t-29.5 -46t-48 -30.5t-64.5 -11
q-45 0 -91.5 29.5t-75.5 88.5zM524 363q-26 0 -49 -11.5t-42 -29t-32.5 -37.5t-21.5 -37q9 -21 24 -41t34 -35t40.5 -24.5t44.5 -9.5q31 0 53.5 9.5t37 25t21.5 36t7 41.5t-6.5 41.5t-20.5 36t-36.5 25.5t-53.5 10zM196 137q27 0 49.5 11t40.5 27.5t31 36t20 35.5
q-8 21 -22.5 41.5t-33 37t-40 26.5t-43.5 10q-32 0 -54.5 -9.5t-36.5 -25t-21 -36t-7 -41.5t6.5 -41.5t20.5 -36t36 -25.5t54 -10z" />
    <glyph glyph-name="integral" unicode="&#x222b;" horiz-adv-x="506" 
d="M348 -24q0 -39 -14 -73t-42 -59t-70 -39.5t-98 -14.5q-69 0 -102.5 26t-33.5 64t22.5 56.5t51.5 18.5q28 0 51 -14.5t23 -52.5q0 -16 -11.5 -37.5t-42.5 -30.5q5 -3 13.5 -5.5t18.5 -2.5q29 0 36.5 21t7.5 48v663q0 39 14 73t42 59t70 39.5t98 14.5q69 0 102.5 -26
t33.5 -64t-23 -56.5t-51 -18.5t-51 14.5t-23 52.5q0 16 11.5 37.5t42.5 30.5q-6 3 -14 5.5t-18 2.5q-30 0 -37 -21t-7 -48v-663z" />
    <glyph glyph-name="approxequal" unicode="&#x2248;" horiz-adv-x="426" 
d="M373 345q-16 -35 -33.5 -50t-43.5 -15q-14 0 -31 7t-36 15.5t-38 15.5t-36 7q-21 0 -38.5 -8t-45.5 -39l-18 16q31 37 52 51.5t51 14.5q18 0 37.5 -7t37.5 -15.5t34 -15.5t29 -7q15 0 28 7t30 36zM373 213q-16 -35 -33.5 -50.5t-43.5 -15.5q-14 0 -31 7t-36 16t-38 16
t-36 7q-21 0 -38.5 -8t-45.5 -39l-18 15q15 19 27.5 32t24.5 20.5t24 10.5t27 3q18 0 37.5 -7t37.5 -15.5t34 -15.5t29 -7q15 0 28 7t30 37z" />
    <glyph glyph-name="notequal" unicode="&#x2260;" horiz-adv-x="430" 
d="M259 299l-52 -98h178v-32h-195l-72 -134h-35l72 134h-110v32h127l52 98h-179v32h196l72 134h35l-72 -134h109v-32h-126z" />
    <glyph glyph-name="lessequal" unicode="&#x2264;" horiz-adv-x="454" 
d="M53 237v25l340 104v-32l-278 -84v-2l278 -82v-32zM53 96h340v-32h-340v32z" />
    <glyph glyph-name="greaterequal" unicode="&#x2265;" horiz-adv-x="454" 
d="M61 134v32l278 82v2l-278 84v32l340 -104v-25zM401 64h-340v32h340v-32z" />
    <glyph glyph-name="lozenge" unicode="&#x25ca;" horiz-adv-x="487" 
d="M256 -5h-25l-195 355l195 355h25l195 -355zM243 40h2l169 310l-169 310h-2l-170 -310z" />
    <glyph glyph-name="a.superior" horiz-adv-x="325" 
d="M293 335q0 -19 15 -19q10 0 15 4v-18q-16 -11 -36.5 -17.5t-43.5 -6.5q-40 0 -52 13.5t-12 31.5v22q-14 -38 -37.5 -52.5t-50.5 -14.5q-34 0 -57 20t-23 58q0 40 38 68.5t130 31.5v73q0 23 -15.5 32.5t-35.5 9.5q-17 0 -34 -6.5t-25 -14.5q29 0 41 -14.5t12 -31.5
q0 -20 -11.5 -33t-36.5 -13t-38 13.5t-13 35.5q0 14 8.5 29t25 27t42 19.5t58.5 7.5q44 0 71 -10t41.5 -28t19 -43t4.5 -54v-120zM179 441q-18 0 -33 -16t-15 -42q0 -20 7.5 -28.5t16.5 -8.5t16.5 7t7.5 29v59z" />
    <glyph glyph-name="b.aalt" horiz-adv-x="355" 
d="M33 278v419h-27v19h141v-177q6 16 16 26t21.5 15.5t23 7.5t20.5 2q114 0 114 -156q0 -34 -8 -62.5t-23 -49.5t-37.5 -32.5t-50.5 -11.5q-19 0 -39 6t-37 17l-101 -23h-13zM147 317q5 -2 12.5 -4t15.5 -2q26 0 36.5 28.5t10.5 94.5q0 63 -6.5 92.5t-29.5 29.5
q-4 0 -10.5 -2.5t-13 -10.5t-11 -22.5t-4.5 -37.5v-166z" />
    <glyph glyph-name="c.aalt" horiz-adv-x="321" 
d="M308 327q-18 -16 -48.5 -32.5t-82.5 -16.5q-36 0 -66.5 11t-52.5 31.5t-34.5 49t-12.5 64.5q0 40 15 69.5t39 48.5t53 28.5t58 9.5q34 0 59 -7.5t41.5 -19.5t25 -27t8.5 -30q0 -22 -12.5 -35.5t-38.5 -13.5q-25 0 -36.5 13t-11.5 32q0 17 12 32t41 15q-7 8 -24 14.5
t-34 6.5q-36 0 -55.5 -31.5t-19.5 -101.5q0 -69 24 -98.5t62 -29.5q29 0 52 11.5t39 25.5v-19z" />
    <glyph glyph-name="d.aalt" horiz-adv-x="359" 
d="M181 697v19h141v-412h27v-20h-141v46q-6 -16 -16 -26t-21.5 -16t-23 -8t-20.5 -2q-114 0 -114 156q0 34 8 62.5t23 49.5t37 32.5t51 11.5q19 0 39 -6t37 -17v130h-27zM208 551q-5 2 -12 4t-16 2q-26 0 -36.5 -28.5t-10.5 -94.5q0 -63 6.5 -92t29.5 -29q4 0 11 2.5
t13 10.5t10.5 22.5t4.5 37.5v165z" />
    <glyph glyph-name="e.aalt" horiz-adv-x="323" 
d="M303 327q-17 -16 -48 -32.5t-83 -16.5q-73 0 -117 42t-44 114q0 40 14.5 69.5t37 48.5t51 28.5t57.5 9.5q26 0 51 -6.5t45 -21.5t32 -39t12 -60q0 -7 -0.5 -17t-1.5 -16h-178q0 -69 22.5 -95t59.5 -26q28 0 51 11.5t39 25.5v-19zM202 449l1 41q0 11 -1 25.5t-4.5 27
t-9.5 21t-16 8.5q-12 0 -19.5 -10t-12 -26.5t-7 -39t-2.5 -47.5h71z" />
    <glyph glyph-name="egrave.aalt" horiz-adv-x="323" 
d="M207 624l-6 -10l-80 21q-26 7 -40.5 19t-14.5 33q0 20 15 33.5t35 13.5q13 0 27.5 -9t25.5 -30zM303 346q-16 -14 -39 -25.5t-51 -11.5q-37 0 -59.5 26t-22.5 95h178q1 6 1.5 16t0.5 17q0 36 -12 60t-32 39t-45 21.5t-51 6.5q-29 0 -57.5 -9.5t-51 -28.5t-37 -48.5
t-14.5 -69.5q0 -72 44 -114t117 -42q52 0 83 16.5t48 32.5v19zM131 449q0 25 2.5 47.5t7 39t12 26.5t19.5 10q10 0 16 -8.5t9.5 -21t4.5 -27t1 -25.5l-1 -41h-71z" />
    <glyph glyph-name="f.aalt" horiz-adv-x="211" 
d="M43 610q0 48 33 80t101 32q42 0 62 -15.5t20 -38.5t-14 -34t-31 -11t-30.5 8.5t-13.5 31.5q0 10 7 23t25 18q-7 5 -19 5q-18 0 -22 -12.5t-4 -29.5v-83h51v-19h-51v-261h51v-20h-192v20h27v261h-27v19h27v26z" />
    <glyph glyph-name="g.aalt" horiz-adv-x="341" 
d="M214 356q24 0 45.5 -4.5t37 -15t25 -28t9.5 -42.5q0 -27 -15.5 -47.5t-41.5 -34t-59 -20t-68 -6.5q-24 0 -48.5 2t-44 8t-32 16.5t-12.5 27.5q0 12 7 20t18.5 13.5t25.5 8t29 3.5q-31 8 -46 24.5t-15 39.5q0 18 7.5 31t20 21.5t28 14t31.5 8.5q-51 14 -71 39.5t-20 55.5
q0 45 34.5 72t97.5 27q29 0 49.5 -5.5t35.5 -15.5q8 14 23.5 28t42.5 14q23 0 35 -11.5t12 -31.5q0 -16 -10 -28t-28 -12q-7 0 -14.5 2t-14 8t-11 16t-5.5 25q-5 -3 -9.5 -8t-8.5 -10q20 -16 27.5 -35t7.5 -35q0 -45 -34.5 -72t-97.5 -27q-16 0 -30 -3t-14 -16
q0 -11 9.5 -14t29.5 -3h62zM157 410q9 0 14.5 7t8 18.5t3.5 26t1 29.5q0 31 -4.5 56t-22.5 25t-22.5 -25t-4.5 -56q0 -15 1 -29.5t3.5 -26t8 -18.5t14.5 -7zM128 257q-14 0 -21.5 -4t-12 -10t-5.5 -12t-1 -10q0 -22 19.5 -32.5t49.5 -10.5q39 0 60 12t21 34q0 10 -9.5 21.5
t-41.5 11.5h-59z" />
    <glyph glyph-name="h.aalt" horiz-adv-x="373" 
d="M151 522q16 38 41 53t56 15q39 0 64 -24.5t25 -74.5v-187h27v-20h-165v20h24v195q0 20 -8.5 28t-21.5 8q-4 0 -11 -2t-14 -8t-12 -17.5t-5 -30.5v-173h27v-20h-168v20h27v393h-27v19h141v-194z" />
    <glyph glyph-name="i.aalt" horiz-adv-x="193" 
d="M27 657q0 29 19.5 44t46.5 15t46.5 -15t19.5 -44q0 -28 -19.5 -41.5t-46.5 -13.5t-46.5 13.5t-19.5 41.5zM183 304v-20h-168v20h27v261h-27v19h141v-280h27z" />
    <glyph glyph-name="j.aalt" horiz-adv-x="188" 
d="M26 657q0 29 19.5 44t46.5 15t46.5 -15t19.5 -44q0 -28 -19.5 -41.5t-46.5 -13.5t-46.5 13.5t-19.5 41.5zM155 270q0 -48 -33.5 -80t-100.5 -32q-42 0 -62 15.5t-20 38.5t13.5 34t30.5 11t30.5 -8.5t13.5 -31.5q0 -10 -6.5 -23t-26.5 -18q10 -4 21 -4q17 0 21.5 12
t4.5 29v352h-39v19h153v-314z" />
    <glyph glyph-name="k.aalt" horiz-adv-x="367" 
d="M178 304v-20h-168v20h27v393h-27v19h141v-412h27zM151 435l136 130h-97v19h183v-19h-58l-69 -67l109 -194h30v-20h-192v20h27z" />
    <glyph glyph-name="l.aalt" horiz-adv-x="189" 
d="M178 304v-20h-168v20h27v393h-27v19h141v-412h27z" />
    <glyph glyph-name="m.aalt" horiz-adv-x="564" 
d="M556 304v-20h-165v20h24v195q0 20 -8.5 28t-21.5 8q-4 0 -11 -2t-14 -8t-12 -17.5t-5 -30.5v-173h27v-20h-165v20h24v195q0 20 -8.5 28t-21.5 8q-4 0 -11 -2t-14 -8t-12 -17.5t-5 -30.5v-173h27v-20h-168v20h27v261h-27v19h141v-62q16 38 41 53t56 15q33 0 56.5 -18
t30.5 -54q14 39 41.5 55.5t57.5 16.5q39 0 64 -24.5t25 -74.5v-187h27z" />
    <glyph glyph-name="n.aalt" horiz-adv-x="378" 
d="M157 522q16 38 41 53t56 15q39 0 64 -24.5t25 -74.5v-187h27v-20h-165v20h24v195q0 20 -8.5 28t-21.5 8q-4 0 -11 -2t-14 -8t-12 -17.5t-5 -30.5v-173h27v-20h-168v20h27v261h-27v19h141v-62z" />
    <glyph glyph-name="o.superior" horiz-adv-x="342" 
d="M330 434q0 -74 -43.5 -115t-115.5 -41t-115.5 41t-43.5 115t43.5 115t115.5 41t115.5 -41t43.5 -115zM132 434q0 -64 6 -101t33 -37t33 36.5t6 101.5t-6 101.5t-33 36.5t-33 -36.5t-6 -101.5z" />
    <glyph glyph-name="p.aalt" horiz-adv-x="359" 
d="M178 184v-20h-168v20h27v381h-27v19h141v-45q6 16 16 26t21.5 15.5t23 7.5t20.5 2q114 0 114 -156q0 -34 -8 -62.5t-23 -49.5t-37.5 -32.5t-50.5 -11.5q-19 0 -39 6t-37 17v-117h27zM151 317q5 -2 12.5 -4t15.5 -2q26 0 36.5 28.5t10.5 94.5q0 63 -6.5 92.5t-29.5 29.5
q-4 0 -10.5 -2.5t-13 -10.5t-11 -22.5t-4.5 -37.5v-166z" />
    <glyph glyph-name="q.aalt" horiz-adv-x="355" 
d="M208 330q-6 -16 -16 -26t-21.5 -16t-23 -8t-20.5 -2q-114 0 -114 156q0 34 8 62.5t23 49.5t37 32.5t51 11.5q19 0 39 -6t37 -17l102 23h12v-406h27v-20h-180v20h39v146zM208 551q-5 2 -12 4t-16 2q-26 0 -36.5 -28.5t-10.5 -94.5q0 -63 6.5 -92t29.5 -29q4 0 11 2.5
t13 10.5t10.5 22.5t4.5 37.5v165z" />
    <glyph glyph-name="r.aalt" horiz-adv-x="299" 
d="M16 565v19h141v-69q8 30 29.5 52.5t56.5 22.5q29 0 45 -17t16 -43q0 -23 -14.5 -40t-39.5 -17q-23 0 -37 12.5t-14 36.5q0 11 5 25t21 24q-19 -4 -32 -17t-21 -32t-11.5 -42.5t-3.5 -49.5v-126h51v-20h-192v20h27v261h-27z" />
    <glyph glyph-name="s.aalt" horiz-adv-x="290" 
d="M18 386h18q9 -17 20 -33.5t23.5 -29t26 -20.5t28.5 -8t25.5 9t10.5 25q0 15 -11 25.5t-27.5 19.5t-36 19t-36 23.5t-27.5 32.5t-11 47q0 38 29.5 66t96.5 28q12 0 38.5 -3.5t53.5 -16.5l8 20h11v-108h-17q-12 27 -23 45t-21 28t-20 14t-20 4q-17 0 -23 -9t-6 -17
q0 -17 11 -28.5t28 -22t36.5 -20.5t36.5 -23t28 -30.5t11 -42.5q0 -53 -37.5 -77.5t-93.5 -24.5q-16 0 -46.5 4.5t-63.5 18.5l-8 -23h-12v108z" />
    <glyph glyph-name="t.aalt" horiz-adv-x="204" 
d="M150 336q0 -18 5.5 -25t20.5 -7q8 0 16.5 2.5t14.5 4.5v-18q-35 -15 -86 -15q-43 0 -64 16.5t-21 54.5v216h-27v19h27l92 78h22v-78h57v-19h-57v-229z" />
    <glyph glyph-name="u.aalt" horiz-adv-x="373" 
d="M221 346q-16 -38 -41 -53t-56 -15q-39 0 -64 24.5t-25 74.5v188h-27v19h141v-214q0 -20 8.5 -28t21.5 -8q4 0 11 1.5t14 7.5t12 17.5t5 31.5v173h-39v19h153v-280h27v-20h-141v62z" />
    <glyph glyph-name="uacute.aalt" horiz-adv-x="373" 
d="M174 695q11 21 25.5 30t27.5 9q20 0 35 -13.5t15 -33.5q0 -21 -14.5 -33t-40.5 -19l-80 -21l-6 10zM221 346q-16 -38 -41 -53t-56 -15q-39 0 -64 24.5t-25 74.5v188h-27v19h141v-214q0 -20 8.5 -28t21.5 -8q4 0 11 1.5t14 7.5t12 17.5t5 31.5v173h-39v19h153v-280h27v-20
h-141v62z" />
    <glyph glyph-name="v.aalt" horiz-adv-x="321" 
d="M206 281h-90l-104 284h-29v19h218v-19h-52l66 -193h1l61 193h-58v19h119v-19h-39z" />
    <glyph glyph-name="w.aalt" horiz-adv-x="513" 
d="M530 584v-19h-39l-89 -284h-90l-53 161l-53 -161h-90l-104 284h-29v19h192v-19h-28l68 -193h1l32 102l-30 91h-25v19h210v-19h-51l59 -193h1l57 193h-48v19h109z" />
    <glyph glyph-name="x.aalt" horiz-adv-x="313" 
d="M325 304v-20h-190v20h25l-50 93l-54 -93h54v-20h-121v20h43l66 113l-80 148h-24v19h181v-19h-22l50 -88l50 88h-55v19h121v-19h-43l-62 -107l86 -154h25z" />
    <glyph glyph-name="y.aalt" horiz-adv-x="321" 
d="M12 565h-29v19h218v-19h-52l66 -193h1l61 193h-58v19h119v-19h-39l-92 -282q-8 -23 -19 -45.5t-27.5 -40t-39 -28.5t-53.5 -11q-42 0 -62 17t-20 40t14 34t31 11t31 -8.5t14 -31.5q0 -10 -7.5 -23t-25.5 -18q8 -4 22 -4q9 0 24 2t32 12.5t33.5 31.5t28.5 60h-67z" />
    <glyph glyph-name="z.aalt" horiz-adv-x="305" 
d="M11 302l144 263h-51l-66 -83h-18v102h264v-18l-138 -262h63l66 82h18v-102h-282v18z" />
    <glyph glyph-name="T_h.dlig" horiz-adv-x="1124" 
d="M1129 33v-33h-275v33h40v325q0 34 -14.5 47t-35.5 13q-6 0 -18 -3t-23.5 -13t-20 -29t-8.5 -52v-288h45v-33h-280v33h45v632h-185v-630h85v-35h-370v35h85v630h-37l-118 -155h-30v190h760v-304q26 63 68.5 88.5t93.5 25.5q65 0 106.5 -41t41.5 -124v-312h45z" />
    <glyph glyph-name="f_f_j.dlig" horiz-adv-x="998" 
d="M944 -24q0 -39 -14 -73t-42 -59t-70 -39.5t-98 -14.5q-69 0 -102.5 26t-33.5 64t23 56.5t51 18.5t51 -14.5t23 -52.5q0 -16 -11.5 -37.5t-42.5 -30.5q6 -3 14 -5.5t18 -2.5q30 0 37 21t7 48v587h-125v-435h45v-33h-280v33h45v435h-182v-435h85v-33h-320v33h45v435h-45v32
h45v44q0 39 13.5 73t41.5 59t70 39.5t98 14.5q70 0 103.5 -26t33.5 -64t-23 -56.5t-52 -18.5q-27 0 -50 14.5t-23 52.5q0 16 11.5 37.5t42.5 30.5q-6 3 -14 5.5t-19 2.5q-29 0 -36 -21t-7 -48v-139h182v14q0 39 13 81t45.5 76.5t86.5 56.5t136 22q67 0 111.5 -11.5t70.5 -30
t36.5 -40.5t10.5 -43q0 -43 -29.5 -69t-74.5 -26q-56 0 -84 25t-28 67q0 9 3 21.5t11 25t21.5 23.5t34.5 17q-13 6 -30.5 10t-38.5 4q-30 0 -50.5 -9t-32.5 -25t-17 -38.5t-5 -49.5v-101h315v-524z" />
    <glyph glyph-name="f_j.dlig" horiz-adv-x="626" 
d="M572 500v-524q0 -39 -14 -73t-42 -59t-70 -39.5t-98 -14.5q-70 0 -103 26t-33 64t22.5 56.5t51.5 18.5q28 0 51 -14.5t23 -52.5q0 -16 -12 -37.5t-43 -30.5q6 -3 14.5 -5.5t18.5 -2.5q29 0 36.5 21t7.5 48v587h-125v-435h45v-33h-280v33h45v435h-45v32h45v14q0 39 13 81
t45.5 76.5t86.5 56.5t136 22q67 0 111.5 -11.5t70.5 -30t36.5 -40.5t10.5 -43q0 -43 -30 -69t-75 -26q-56 0 -83.5 25t-27.5 67q0 9 3 21.5t11 25t21.5 23.5t34.5 17q-14 6 -31 10t-38 4q-30 0 -50.5 -9t-32.5 -25t-17 -38.5t-5 -49.5v-101h315z" />
    <glyph glyph-name="zero.inferior" horiz-adv-x="405" 
d="M25 110q0 49 12 88.5t34.5 68t55.5 44t75 15.5t75 -15.5t55.5 -44t34.5 -68t12 -88.5t-12 -89t-34.5 -68t-55.5 -43.5t-75 -15.5t-75 15.5t-55.5 43.5t-34.5 68t-12 89zM154 110q0 -29 1 -63.5t5.5 -64t14.5 -49t27 -19.5q18 0 27.5 19.5t14 49t5.5 64t1 63.5t-1 63.5
t-5.5 64t-14 49t-27.5 19.5q-17 0 -27 -19.5t-14.5 -49t-5.5 -64t-1 -63.5z" />
    <glyph glyph-name="one.inferior" horiz-adv-x="242" 
d="M19 283v21q45 0 84.5 6t65.5 13h15v-400h45v-23h-210v23h45v360h-45z" />
    <glyph glyph-name="two.inferior" horiz-adv-x="370" 
d="M337 35v-135h-312v72q95 52 142 108t47 129q0 55 -22 75.5t-56 20.5q-16 0 -35.5 -6.5t-27.5 -14.5q28 -2 38 -16t10 -29q0 -20 -11.5 -33t-36.5 -13t-38 13.5t-13 34.5q0 16 10 31t28.5 27t45.5 19.5t60 7.5q28 0 58.5 -5.5t56 -19.5t42.5 -39t17 -64q0 -36 -22.5 -64.5
t-56.5 -51t-73 -41t-73 -33.5h199l3 27h20z" />
    <glyph glyph-name="three.inferior" horiz-adv-x="350" 
d="M114 128q51 8 73 36t22 68q0 23 -6.5 37.5t-17 22.5t-24 10.5t-26.5 2.5q-14 0 -30.5 -5t-24.5 -11q28 -2 38 -16t10 -28q0 -19 -11.5 -32t-35.5 -13q-25 0 -37.5 13t-12.5 33q0 32 34.5 56t97.5 24q32 0 59.5 -5.5t48 -16.5t32.5 -27.5t12 -39.5q0 -25 -12.5 -43
t-32.5 -31t-45 -22t-51 -15q33 -3 61 -10.5t49 -20.5t32.5 -33.5t11.5 -48.5q0 -33 -16 -55.5t-41 -37t-55 -20.5t-58 -6q-67 0 -104.5 26t-37.5 59q0 22 13 35.5t38 13.5q24 0 36 -13.5t12 -33.5q0 -15 -10.5 -29t-38.5 -16q8 -8 27.5 -14.5t36.5 -6.5q34 0 56 23t22 79
q0 54 -26 75.5t-68 21.5v14z" />
    <glyph glyph-name="four.inferior" horiz-adv-x="361" 
d="M301 10v-87h39v-23h-198v23h39v87h-183v17l216 296h87v-291h39v-22h-39zM181 32v212l-154 -212h154z" />
    <glyph glyph-name="five.inferior" horiz-adv-x="346" 
d="M63 120q17 12 43.5 22t65.5 10q27 0 54.5 -6.5t50 -22t36.5 -40t14 -60.5q0 -40 -16 -65t-41 -39.5t-55 -19.5t-58 -5q-67 0 -104.5 26t-37.5 59q0 22 13 35.5t38 13.5q24 0 36 -13.5t12 -33.5q0 -15 -10.5 -29t-38.5 -16q8 -8 27.5 -14.5t36.5 -6.5t31 4t24.5 16
t16.5 33t6 55q0 54 -19 77.5t-54 23.5q-26 0 -45 -10.5t-28 -18.5l-18 4l17 221h243v-108h-233z" />
    <glyph glyph-name="six.inferior" horiz-adv-x="398" 
d="M232 326q33 0 57.5 -8t40 -20t23.5 -27t8 -29q0 -21 -13 -34.5t-38 -13.5q-23 0 -35.5 12.5t-12.5 32.5q0 15 10.5 29.5t38.5 15.5q-10 9 -27 15.5t-34 6.5q-31 0 -49.5 -16t-29 -39.5t-14 -49t-3.5 -44.5q26 16 66 16q31 0 59.5 -9t50 -25.5t34 -40.5t12.5 -54
q0 -32 -12.5 -59.5t-35 -47.5t-54 -31.5t-70.5 -11.5q-46 0 -80 17.5t-56 46t-32.5 65.5t-10.5 75q0 113 55 170.5t152 57.5zM154 136q0 -106 9.5 -165t39.5 -59q29 0 41 33t12 93q0 34 -4 56t-11 35t-17.5 17.5t-23.5 4.5q-14 0 -25 -4.5t-21 -10.5z" />
    <glyph glyph-name="seven.inferior" horiz-adv-x="323" 
d="M321 320v-66q-35 -29 -55.5 -64.5t-31.5 -74t-14.5 -78.5t-3.5 -77q0 -23 -8 -36t-19 -19.5t-23 -8.5t-19 -2q-10 0 -21.5 2.5t-21.5 10t-16.5 20.5t-6.5 33q0 28 15.5 60t41 65.5t57.5 66t65 60.5h-222l-3 -27h-20v135h306z" />
    <glyph glyph-name="eight.inferior" horiz-adv-x="381" 
d="M253 149q20 -12 39.5 -25t34.5 -28.5t24.5 -35t9.5 -43.5q0 -34 -15.5 -57.5t-41 -38t-57.5 -21t-66 -6.5q-46 0 -76.5 8.5t-48.5 22t-25.5 31t-7.5 35.5q0 19 8.5 35t22.5 28.5t32 23t37 18.5q-17 11 -33 23t-28.5 26t-20 30.5t-7.5 36.5q0 21 10 41.5t30.5 36.5
t50.5 26t70 10q35 0 61 -8t43.5 -20.5t26.5 -29t9 -33.5q0 -18 -7.5 -32t-19 -24.5t-26 -17.5t-29.5 -12zM195 307q-20 0 -33.5 -12t-13.5 -41q0 -31 25.5 -52t59.5 -41q6 11 12 26.5t6 50.5q0 26 -12 47.5t-44 21.5zM181 -87q31 0 42.5 19.5t11.5 40.5q0 19 -8 34.5t-21 29
t-30.5 25t-35.5 23.5q-11 -26 -15.5 -52t-4.5 -45q0 -44 18 -59.5t43 -15.5z" />
    <glyph glyph-name="nine.inferior" horiz-adv-x="398" 
d="M166 -106q-33 0 -57 8t-40 20t-23.5 27t-7.5 29q0 21 12.5 35t37.5 14q23 0 36 -13t13 -33q0 -15 -11 -29.5t-39 -15.5q10 -9 27 -15.5t34 -6.5q31 0 49.5 16t29 39.5t14.5 49t4 44.5q-30 -16 -67 -16q-31 0 -59 9t-49.5 25.5t-34 40.5t-12.5 54q0 32 12 59.5t34.5 47.5
t54.5 31.5t71 11.5q46 0 80 -17.5t56 -46t32.5 -65.5t10.5 -75q0 -113 -55.5 -170.5t-152.5 -57.5zM245 85q0 105 -10 164t-40 59q-29 0 -40.5 -33t-11.5 -93q0 -35 4 -56.5t11 -34t17.5 -17t23.5 -4.5q14 0 25 4.5t21 10.5z" />
    <glyph glyph-name="zero.superior" horiz-adv-x="405" 
d="M25 594q0 49 12 88.5t34.5 68t55.5 44t75 15.5t75 -15.5t55.5 -44t34.5 -68t12 -88.5t-12 -89t-34.5 -68t-55.5 -43.5t-75 -15.5t-75 15.5t-55.5 43.5t-34.5 68t-12 89zM154 594q0 -29 1 -63.5t5.5 -64t14.5 -49t27 -19.5q18 0 27.5 19.5t14 49t5.5 64t1 63.5t-1 63.5
t-5.5 64t-14 49t-27.5 19.5q-17 0 -27 -19.5t-14.5 -49t-5.5 -64t-1 -63.5z" />
    <glyph glyph-name="four.superior" horiz-adv-x="361" 
d="M301 494v-87h39v-23h-198v23h39v87h-183v17l216 296h87v-291h39v-22h-39zM181 516v212l-154 -212h154z" />
    <glyph glyph-name="five.superior" horiz-adv-x="346" 
d="M63 604q17 12 43.5 22t65.5 10q27 0 54.5 -6.5t50 -22t36.5 -40t14 -60.5q0 -40 -16 -65t-41 -39.5t-55 -19.5t-58 -5q-67 0 -104.5 26t-37.5 60q0 21 13 34.5t38 13.5q24 0 36 -13.5t12 -33.5q0 -15 -10.5 -29t-38.5 -16q8 -8 27.5 -14.5t36.5 -6.5t31 4t24.5 16
t16.5 33t6 55q0 54 -19 77.5t-54 23.5q-26 0 -45 -10.5t-28 -18.5l-18 4l17 221h243v-108h-233z" />
    <glyph glyph-name="six.superior" horiz-adv-x="398" 
d="M232 810q33 0 57.5 -8t40 -20t23.5 -27t8 -29q0 -21 -13 -34.5t-38 -13.5q-23 0 -35.5 12.5t-12.5 32.5q0 15 10.5 29.5t38.5 15.5q-10 9 -27 15.5t-34 6.5q-31 0 -49.5 -16t-29 -39.5t-14 -49t-3.5 -44.5q26 16 66 16q31 0 59.5 -9t50 -25.5t34 -40.5t12.5 -54
q0 -32 -12.5 -59.5t-35 -47.5t-54 -31.5t-70.5 -11.5q-46 0 -80 17.5t-56 46t-32.5 65.5t-10.5 75q0 113 55 170.5t152 57.5zM154 620q0 -106 9.5 -165t39.5 -59q29 0 41 33t12 93q0 34 -4 56t-11 35t-17.5 17.5t-23.5 4.5q-14 0 -25 -4.5t-21 -10.5z" />
    <glyph glyph-name="seven.superior" horiz-adv-x="323" 
d="M321 804v-66q-35 -29 -55.5 -64.5t-31.5 -74t-14.5 -78.5t-3.5 -77q0 -23 -8 -36t-19 -19.5t-23 -8.5t-19 -2q-10 0 -21.5 2.5t-21.5 10t-16.5 20.5t-6.5 33q0 28 15.5 60t41 65.5t57.5 66t65 60.5h-222l-3 -27h-20v135h306z" />
    <glyph glyph-name="eight.superior" horiz-adv-x="381" 
d="M253 633q20 -12 39.5 -25t34.5 -28.5t24.5 -35t9.5 -43.5q0 -34 -15.5 -57.5t-41 -38t-57.5 -21t-66 -6.5q-46 0 -76.5 8.5t-48.5 22.5t-25.5 31.5t-7.5 35.5q0 19 8.5 34.5t22.5 28.5t32 23t37 18q-17 11 -33 23t-28.5 26t-20 30.5t-7.5 36.5q0 21 10 41.5t30.5 36.5
t50.5 26t70 10q35 0 61 -8t43.5 -20.5t26.5 -29t9 -33.5q0 -18 -7.5 -32t-19 -24.5t-26 -17.5t-29.5 -12zM195 791q-20 0 -33.5 -12t-13.5 -41q0 -31 25.5 -52t59.5 -41q6 11 12 26.5t6 50.5q0 26 -12 47.5t-44 21.5zM181 398q31 0 42.5 19t11.5 41q0 19 -8 34t-21 28.5
t-30.5 25t-35.5 23.5q-11 -25 -15.5 -51.5t-4.5 -44.5q0 -44 18 -59.5t43 -15.5z" />
    <glyph glyph-name="nine.superior" horiz-adv-x="398" 
d="M166 378q-33 0 -57 8t-40 20t-23.5 27t-7.5 29q0 21 12.5 35t37.5 14q23 0 36 -13t13 -33q0 -14 -11 -28.5t-39 -16.5q10 -9 27 -15.5t34 -6.5q31 0 49.5 16t29 39.5t14.5 49t4 44.5q-30 -16 -67 -16q-31 0 -59 9t-49.5 25.5t-34 40.5t-12.5 54q0 32 12 59.5t34.5 47.5
t54.5 31.5t71 11.5q46 0 80 -17.5t56 -46t32.5 -65.5t10.5 -75q0 -113 -55.5 -170.5t-152.5 -57.5zM245 569q0 105 -10 164t-40 59q-29 0 -40.5 -33t-11.5 -93q0 -35 4 -56.5t11 -34t17.5 -17t23.5 -4.5q14 0 25 4.5t21 10.5z" />
    <glyph glyph-name="zero.tnum.oldstyle" 
d="M30 250q0 58 19.5 106t57.5 82.5t92.5 53t125.5 18.5q70 0 125 -18.5t93 -53t57.5 -82.5t19.5 -106q0 -59 -19.5 -107t-57.5 -82t-93 -52.5t-125 -18.5q-71 0 -125.5 18.5t-92.5 52.5t-57.5 82t-19.5 107zM245 250q0 -49 3.5 -91t12.5 -73t24.5 -48.5t39.5 -17.5
q25 0 40.5 17.5t24.5 48.5t12 73t3 91t-3 91t-12 73t-24.5 48.5t-40.5 17.5q-24 0 -39.5 -17.5t-24.5 -48.5t-12.5 -73t-3.5 -91z" />
    <glyph glyph-name="one.tnum.oldstyle" 
d="M69 438v35q75 0 131 2.5t97.5 7t70.5 10.5t51 12h25v-470h175v-35h-550v35h175v403h-175z" />
    <glyph glyph-name="two.tnum.oldstyle" 
d="M582 185v-185h-520v110q71 22 128.5 47.5t98.5 55.5t63 66.5t22 80.5q0 63 -36.5 89t-90.5 26q-14 0 -29.5 -3t-30.5 -8t-27.5 -11t-18.5 -13q46 -3 63.5 -26.5t17.5 -48.5q0 -32 -19.5 -54.5t-60.5 -22.5q-42 0 -63.5 22.5t-21.5 57.5q0 25 16.5 50t47 45.5t75.5 33.5
t102 13q55 0 106.5 -8t92 -26.5t65 -49.5t24.5 -76q0 -47 -23 -78t-70.5 -54t-119.5 -41t-171 -37h345l5 45h30z" />
    <glyph glyph-name="three.tnum.oldstyle" 
d="M224 180q85 14 122 60.5t37 112.5q0 39 -11 62.5t-28.5 37t-39.5 18t-44 4.5q-12 0 -25.5 -2.5t-26 -6t-23.5 -8.5t-17 -10q23 -2 38.5 -9t24.5 -17t13 -22.5t4 -24.5q0 -32 -19.5 -54t-59.5 -22q-41 0 -62 22t-21 56q0 23 15 47t43 43t69 31t94 12t99 -9t80.5 -27.5
t54 -46.5t19.5 -66q0 -41 -20.5 -71.5t-54 -52.5t-75.5 -36.5t-85 -24.5q55 -5 102 -17t81 -34t53.5 -55.5t19.5 -81.5q0 -55 -27 -93t-68.5 -61t-92 -33.5t-96.5 -10.5q-56 0 -99.5 13t-74 33.5t-46.5 45.5t-16 50q0 35 21.5 58t63.5 23q40 0 60 -23t20 -55
q0 -25 -18 -48.5t-64 -26.5q6 -7 18.5 -13t27.5 -11t31 -8t30 -3q28 0 52 9t41 29t27 52.5t10 79.5q0 45 -11.5 76t-32 50t-49.5 27.5t-64 8.5v23z" />
    <glyph glyph-name="four.tnum.oldstyle" 
d="M531 0v-153h65v-35h-330v35h65v153h-305v24l353 481h152v-472h65v-33h-65zM331 33v353l-259 -353h259z" />
    <glyph glyph-name="five.tnum.oldstyle" 
d="M140 163q28 20 72.5 38.5t110.5 18.5q45 0 91 -11t83 -36.5t60.5 -66.5t23.5 -101q0 -67 -27 -109t-68.5 -65.5t-92 -32t-96.5 -8.5q-56 0 -99.5 13t-74 33.5t-46.5 45.5t-16 50q0 35 21.5 58t63.5 23q41 0 60.5 -23t19.5 -55q0 -12 -4 -25t-13.5 -23.5t-25 -18
t-38.5 -8.5q6 -7 18.5 -13t27.5 -11t30.5 -8t29.5 -3q28 0 52 7t41 26.5t27 55t10 91.5q0 90 -31.5 129.5t-89.5 39.5q-21 0 -40.5 -5t-35 -12.5t-28 -16t-19.5 -15.5l-30 6l29 369h405v-180h-388z" />
    <glyph glyph-name="six.tnum.oldstyle" 
d="M251 427q20 11 48.5 19.5t60.5 8.5q52 0 99 -15t82.5 -42.5t56.5 -67.5t21 -90q0 -54 -20.5 -100t-58 -79t-90.5 -52t-118 -19q-77 0 -133 29t-93 77t-54.5 109t-17.5 125q0 94 24 165t68.5 119t108.5 72t144 24q55 0 95.5 -13t67 -33t39.5 -45t13 -49q0 -35 -21 -58
t-63 -23q-39 0 -60 21.5t-21 55.5q0 12 4 24.5t13.5 23t25.5 18t39 8.5q-16 15 -44 25.5t-57 10.5q-51 0 -82.5 -26.5t-49 -65t-23.5 -81.5t-6 -75zM249 393q0 -87 3.5 -156t12.5 -117.5t25 -74t41 -25.5q48 0 68 55t20 155q0 58 -6.5 94.5t-18.5 57.5t-29.5 28.5t-39.5 7.5
t-41 -7.5t-35 -17.5z" />
    <glyph glyph-name="seven.tnum.oldstyle" 
d="M589 500v-110q-57 -48 -91.5 -107.5t-53 -124t-24.5 -131t-6 -127.5q0 -38 -13.5 -59.5t-32 -33t-38 -14.5t-31.5 -3q-17 0 -36 4.5t-35.5 16.5t-27.5 33.5t-11 55.5q0 46 26 100t68.5 109.5t96 109.5t108.5 101h-374l-5 -45h-30v225h510z" />
    <glyph glyph-name="eight.tnum.oldstyle" 
d="M428 416q34 -20 66 -42t57.5 -48t41 -58.5t15.5 -72.5q0 -56 -25.5 -95t-67.5 -63.5t-96 -35.5t-110 -11q-77 0 -128 14t-81 37.5t-42.5 52.5t-12.5 59q0 32 14.5 58t38.5 47t54 37.5t61 30.5q-29 19 -56 39t-48 43.5t-33.5 51t-12.5 60.5q0 35 17 69t50.5 61t84 43.5
t117.5 16.5q58 0 101.5 -13t73 -34.5t44 -48.5t14.5 -55q0 -31 -12.5 -54t-32 -40t-44 -29t-48.5 -20zM332 680q-34 0 -56.5 -21t-22.5 -69q0 -26 11.5 -47t31.5 -39.5t45.5 -35.5t54.5 -33q5 9 10 19t9.5 24.5t7 35t2.5 49.5q0 22 -4.5 43t-15.5 37.5t-29 26.5t-44 10z
M309 20q26 0 43.5 9.5t27.5 24t14 33t4 36.5q0 31 -13.5 56.5t-35.5 48t-50.5 42t-58.5 38.5q-17 -42 -25 -86t-8 -74q0 -37 8 -61.5t22 -39.5t32.5 -21t39.5 -6z" />
    <glyph glyph-name="nine.tnum.oldstyle" 
d="M399 73q-20 -11 -48.5 -19.5t-60.5 -8.5q-52 0 -99 14.5t-82.5 42.5t-56.5 68t-21 90q0 54 20.5 100t58 79t90.5 52t118 19q77 0 133 -29t93 -77t54.5 -109t17.5 -125q0 -94 -24 -165t-68.5 -119t-108.5 -72t-144 -24q-55 0 -95.5 13t-67 33t-39.5 45t-13 49q0 35 21 58
t63 23q39 0 60 -21.5t21 -55.5q0 -12 -4 -24.5t-13.5 -23t-25.5 -18t-39 -8.5q16 -15 44 -25.5t57 -10.5q51 0 82.5 26.5t49 65t23.5 81.5t6 75zM401 108q0 87 -3.5 156t-12.5 117t-25 73.5t-41 25.5q-48 0 -68 -55t-20 -155q0 -57 6.5 -93.5t18.5 -57.5t29.5 -28.5
t39.5 -7.5t41 7.5t35 17.5z" />
    <glyph glyph-name="zero.oldstyle" horiz-adv-x="659" 
d="M34 250q0 58 19.5 106t57.5 82.5t92.5 53t125.5 18.5q70 0 125 -18.5t93 -53t57.5 -82.5t19.5 -106q0 -59 -19.5 -107t-57.5 -82t-93 -52.5t-125 -18.5q-71 0 -125.5 18.5t-92.5 52.5t-57.5 82t-19.5 107zM249 250q0 -49 3.5 -91t12.5 -73t24.5 -48.5t39.5 -17.5
q25 0 40.5 17.5t24.5 48.5t12 73t3 91t-3 91t-12 73t-24.5 48.5t-40.5 17.5q-24 0 -39.5 -17.5t-24.5 -48.5t-12.5 -73t-3.5 -91z" />
    <glyph glyph-name="one.oldstyle" horiz-adv-x="397" 
d="M32 438v35q75 0 140 9.5t110 22.5h25v-470h75v-35h-350v35h75v403h-75z" />
    <glyph glyph-name="two.oldstyle" horiz-adv-x="613" 
d="M564 185v-185h-520v110q71 22 128.5 47.5t98 55.5t62.5 66.5t22 80.5q0 31 -9.5 53t-26.5 36t-40 20t-50 6q-14 0 -29.5 -3t-30.5 -8t-27.5 -11t-18.5 -13q46 -3 63.5 -26.5t17.5 -48.5q0 -32 -19.5 -54.5t-60.5 -22.5q-42 0 -63.5 22.5t-21.5 57.5q0 25 16.5 50t47 45.5
t75.5 33.5t102 13q55 0 106.5 -8t92 -26.5t65 -49.5t24.5 -76q0 -47 -23 -78t-70.5 -54t-119.5 -41t-171 -37h345l5 45h30z" />
    <glyph glyph-name="three.oldstyle" horiz-adv-x="565" 
d="M182 180q85 14 122 60.5t37 112.5q0 39 -11 62.5t-28.5 37t-39.5 18t-44 4.5q-12 0 -25.5 -2.5t-26 -6t-23.5 -8.5t-17 -10q23 -2 38 -9t24 -17t13 -22.5t4 -24.5q0 -32 -19 -54t-60 -22t-62 22t-21 56q0 23 15 47t43.5 43t69.5 31t94 12t99 -9t80 -27.5t53.5 -46.5
t19.5 -66q0 -41 -20.5 -71.5t-53.5 -52.5t-75 -36.5t-85 -24.5q55 -5 101.5 -17t80.5 -34t53.5 -55.5t19.5 -81.5q0 -55 -27 -93t-68.5 -61t-92 -33.5t-96.5 -10.5q-56 0 -99.5 13t-74 33.5t-46.5 45.5t-16 50q0 35 21.5 58t63.5 23q41 0 60.5 -23t19.5 -55
q0 -25 -17.5 -48.5t-63.5 -26.5q6 -7 18.5 -13t27.5 -11t30.5 -8t29.5 -3q28 0 52 9t41 29t27 52.5t10 79.5q0 45 -11.5 76t-32 50t-49 27.5t-63.5 8.5v23z" />
    <glyph glyph-name="four.oldstyle" horiz-adv-x="586" 
d="M498 0v-153h65v-35h-330v35h65v153h-305v24l354 481h151v-472h65v-33h-65zM298 33v353l-258 -353h258z" />
    <glyph glyph-name="five.oldstyle" horiz-adv-x="562" 
d="M96 163q28 20 72.5 38.5t110.5 18.5q45 0 91 -11t83 -36.5t60.5 -66.5t23.5 -101q0 -67 -27 -109t-68.5 -65.5t-92 -32t-96.5 -8.5q-56 0 -99.5 13t-74 33.5t-46.5 45.5t-16 50q0 35 21.5 58t63.5 23q41 0 60.5 -23t19.5 -55q0 -12 -4 -25t-13.5 -23.5t-25 -18
t-38.5 -8.5q6 -7 18.5 -13t27.5 -11t30.5 -8t29.5 -3q28 0 52 7t41 26.5t27 55t10 91.5q0 90 -31.5 129.5t-89.5 39.5q-21 0 -40.5 -5t-35 -12.5t-28 -16t-19.5 -15.5l-30 6l29 369h405v-180h-388z" />
    <glyph glyph-name="six.oldstyle" horiz-adv-x="657" 
d="M254 427q20 11 49 19.5t61 8.5q52 0 98.5 -15t82 -42.5t56.5 -67.5t21 -90q0 -54 -20.5 -100t-58 -79t-90.5 -52t-118 -19q-77 0 -133 29t-93 77t-54.5 109t-17.5 125q0 94 24 165t68.5 119t108.5 72t144 24q55 0 95.5 -13t67 -33t39.5 -45t13 -49q0 -35 -21 -58t-63 -23
q-39 0 -60 21.5t-21 55.5q0 12 4 24.5t13.5 23t25.5 18t39 8.5q-16 15 -44 25.5t-57 10.5q-51 0 -82.5 -26.5t-48.5 -65t-23 -81.5t-7 -75zM252 393q0 -87 3.5 -156t13 -117.5t25.5 -74t41 -25.5q48 0 67.5 55t19.5 155q0 58 -6.5 94.5t-18.5 57.5t-29.5 28.5t-39.5 7.5
t-41 -7.5t-35 -17.5z" />
    <glyph glyph-name="seven.oldstyle" horiz-adv-x="533" 
d="M528 500v-110q-57 -48 -91.5 -107.5t-53 -124t-24.5 -131t-6 -127.5q0 -38 -13.5 -59.5t-32 -33t-38 -14.5t-31.5 -3q-17 0 -36 4.5t-35.5 16.5t-27.5 33.5t-11 55.5q0 46 26 100t68.5 109.5t96 109.5t108.5 101h-374l-5 -45h-30v225h510z" />
    <glyph glyph-name="eight.oldstyle" horiz-adv-x="628" 
d="M417 416q34 -20 66 -42t57.5 -48t41 -58.5t15.5 -72.5q0 -56 -25.5 -95t-67.5 -63.5t-95.5 -35.5t-109.5 -11q-77 0 -128 14t-81 37.5t-42.5 52.5t-12.5 59q0 32 14.5 58t38 47t53.5 37.5t61 30.5q-29 19 -56 39t-48 43.5t-33.5 51t-12.5 60.5q0 35 17 69t50.5 61
t84 43.5t117.5 16.5q58 0 102 -13t73 -34.5t44 -48.5t15 -55q0 -31 -12.5 -54t-32.5 -40t-44.5 -29t-48.5 -20zM321 680q-34 0 -56.5 -21t-22.5 -69q0 -26 11.5 -47t31.5 -39.5t45.5 -35.5t54.5 -34q5 9 10 19.5t9.5 25t7.5 35t3 49.5q0 22 -4.5 43t-15.5 37.5t-29 26.5
t-45 10zM299 20q26 0 43 9.5t27 24t14 33t4 36.5q0 31 -13.5 56.5t-35 47.5t-50 41.5t-58.5 39.5q-18 -42 -26 -86t-8 -74q0 -37 8.5 -61.5t22.5 -39.5t32.5 -21t39.5 -6z" />
    <glyph glyph-name="nine.oldstyle" horiz-adv-x="639" 
d="M394 73q-20 -11 -48.5 -19.5t-60.5 -8.5q-52 0 -99 14.5t-82.5 42.5t-56.5 68t-21 90q0 54 20.5 100t58 79t90.5 52t118 19q77 0 133 -29t93 -77t54.5 -109t17.5 -125q0 -94 -24 -165t-68.5 -119t-108.5 -72t-144 -24q-55 0 -95.5 13t-67 33t-39.5 45t-13 49q0 35 21 58
t63 23q39 0 60 -21.5t21 -55.5q0 -12 -4 -24.5t-13.5 -23t-25.5 -18t-39 -8.5q16 -15 44 -25.5t57 -10.5q51 0 82.5 26.5t49 65t23.5 81.5t6 75zM396 108q0 87 -3.5 156t-12.5 117t-25 73.5t-41 25.5q-48 0 -68 -55t-20 -155q0 -57 6.5 -93.5t18.5 -57.5t29.5 -28.5
t39.5 -7.5t41 7.5t35 17.5z" />
    <glyph glyph-name="zero.case" horiz-adv-x="666" 
d="M38 350q0 81 19.5 147.5t57.5 113.5t92.5 73t125.5 26q70 0 125 -26t93 -73t57.5 -113.5t19.5 -147.5q0 -82 -19.5 -148.5t-57.5 -113.5t-93 -72.5t-125 -25.5q-71 0 -125.5 25.5t-92.5 72.5t-57.5 113.5t-19.5 148.5zM253 350q0 -49 2 -106.5t9.5 -107t23.5 -83
t45 -33.5t45.5 33.5t24 83t9 107t1.5 106.5t-1.5 106.5t-9 107t-24 83t-45.5 33.5t-45 -33.5t-23.5 -83t-9.5 -107t-2 -106.5z" />
    <glyph glyph-name="one.case" horiz-adv-x="395" 
d="M29 638v35q75 0 140 9.5t110 22.5h25v-670h75v-35h-350v35h75v603h-75z" />
    <glyph glyph-name="two.case" horiz-adv-x="610" 
d="M559 225v-225h-520v120q78 43 137 87.5t98.5 92.5t59.5 101.5t20 113.5q0 45 -10 76t-27 49.5t-41 26.5t-52 8q-14 0 -29.5 -3t-30.5 -8t-27.5 -11t-18.5 -13q23 -2 38.5 -9t25 -17.5t13.5 -23.5t4 -25q0 -32 -19.5 -54.5t-60.5 -22.5q-42 0 -63.5 22.5t-21.5 57.5
q0 25 16.5 50t47 45.5t74.5 33.5t100 13q46 0 97.5 -9t95 -33t71.5 -65.5t28 -106.5q0 -60 -37.5 -107.5t-94 -85t-122.5 -68t-122 -55.5h336l5 45h30z" />
    <glyph glyph-name="three.case" horiz-adv-x="579" 
d="M188 380q84 13 121.5 60.5t37.5 112.5q0 39 -11 62.5t-29 37t-40 18t-44 4.5q-12 0 -25 -2.5t-26 -6t-23.5 -8.5t-16.5 -10q45 -3 62 -26t17 -47q0 -32 -19.5 -54t-59.5 -22q-41 0 -62 22t-21 56q0 23 15 47t43 43t69 31t94 12t99.5 -9t80.5 -27.5t53.5 -46.5t19.5 -66
q0 -41 -20.5 -71.5t-54 -52.5t-75.5 -36.5t-85 -24.5q55 -5 102 -17t81 -34t53.5 -55.5t19.5 -81.5q0 -55 -27 -93t-68.5 -61t-92 -33.5t-96.5 -10.5q-56 0 -99.5 13t-74 33.5t-46.5 46t-16 50.5q0 35 21.5 57.5t63.5 22.5q41 0 60.5 -22.5t19.5 -55.5q0 -12 -4 -25
t-13.5 -23.5t-25 -18t-38.5 -8.5q6 -7 18.5 -13t27.5 -11t30.5 -8t29.5 -3q28 0 52 9t41 29t27 52.5t10 79.5q0 45 -11.5 76t-32 50t-49 27.5t-63.5 8.5v23z" />
    <glyph glyph-name="four.case" horiz-adv-x="595" 
d="M501 188v-153h65v-35h-330v35h65v153h-305v23l358 494h147v-485h65v-32h-65zM301 220v359l-258 -359h258z" />
    <glyph glyph-name="five.case" horiz-adv-x="573" 
d="M102 363q14 10 32 20t40.5 18t50 13.5t60.5 5.5q45 0 91 -11t83 -36.5t60.5 -66.5t23.5 -101q0 -67 -27 -109t-68.5 -65.5t-92 -32t-96.5 -8.5q-56 0 -99.5 13t-74 33.5t-46.5 46t-16 50.5q0 35 21.5 57.5t63.5 22.5q41 0 60.5 -22.5t19.5 -55.5q0 -25 -17.5 -48.5
t-63.5 -26.5q6 -7 18.5 -13t27.5 -11t30.5 -8t29.5 -3q28 0 52 7t41 26.5t27 55t10 91.5q0 90 -31 129.5t-90 39.5q-21 0 -40 -5t-35 -12.5t-28 -16t-20 -15.5l-30 6l29 369h405v-180h-388z" />
    <glyph glyph-name="six.case" horiz-adv-x="657" 
d="M254 427q20 11 49 19.5t61 8.5q52 0 98.5 -15t82 -42.5t56.5 -67.5t21 -90q0 -54 -20.5 -100t-58 -79t-90.5 -52t-118 -19q-77 0 -133 29t-93 77t-54.5 109t-17.5 125q0 94 24 165t68.5 119t108.5 72t144 24q55 0 95.5 -13t67 -33t39.5 -45t13 -49q0 -35 -21 -58t-63 -23
q-39 0 -60 21.5t-21 55.5q0 12 4 24.5t13.5 23t25.5 18t39 8.5q-16 15 -44 25.5t-57 10.5q-51 0 -82.5 -26.5t-48.5 -65t-23 -81.5t-7 -75zM252 393q0 -87 3.5 -156t13 -117.5t25.5 -74t41 -25.5q48 0 67.5 55t19.5 155q0 58 -6.5 94.5t-18.5 57.5t-29.5 28.5t-39.5 7.5
t-41 -7.5t-35 -17.5z" />
    <glyph glyph-name="seven.case" horiz-adv-x="538" 
d="M532 700v-110q-57 -48 -91.5 -107.5t-53 -124t-24.5 -131t-6 -127.5q0 -38 -13.5 -59.5t-32 -33t-38 -14.5t-31.5 -3q-17 0 -36 4.5t-35.5 16.5t-27.5 33.5t-11 55.5q0 46 26 100t68 109.5t95.5 109.5t108.5 101h-374l-4 -45h-30v225h510z" />
    <glyph glyph-name="eight.case" horiz-adv-x="628" 
d="M417 416q34 -20 66 -42t57.5 -48t41 -58.5t15.5 -72.5q0 -56 -25.5 -95t-67.5 -63.5t-95.5 -35.5t-109.5 -11q-77 0 -128 14t-81 37.5t-42.5 52.5t-12.5 59q0 32 14.5 58t38 47t53.5 37.5t61 30.5q-29 19 -56 39t-48 43.5t-33.5 51t-12.5 60.5q0 35 17 69t50.5 61
t84 43.5t117.5 16.5q58 0 102 -13t73 -34.5t44 -48.5t15 -55q0 -31 -12.5 -54t-32.5 -40t-44.5 -29t-48.5 -20zM321 680q-34 0 -56.5 -21t-22.5 -69q0 -26 11.5 -47t31.5 -39.5t45.5 -35.5t54.5 -34q5 9 10 19.5t9.5 25t7.5 35t3 49.5q0 22 -4.5 43t-15.5 37.5t-29 26.5
t-45 10zM299 20q26 0 43 9.5t27 24t14 33t4 36.5q0 31 -13.5 56.5t-35 47.5t-50 41.5t-58.5 39.5q-18 -42 -26 -86t-8 -74q0 -37 8.5 -61.5t22.5 -39.5t32.5 -21t39.5 -6z" />
    <glyph glyph-name="nine.case" horiz-adv-x="657" 
d="M403 273q-20 -11 -49 -19.5t-61 -8.5q-52 0 -98.5 14.5t-82 42.5t-56.5 68t-21 90q0 54 20.5 100t58 79t90.5 52t118 19q77 0 133 -29t93 -77t54.5 -109t17.5 -125q0 -94 -24 -165t-69 -119t-109 -72t-144 -24q-55 0 -95.5 13t-66.5 33t-39 45.5t-13 49.5q0 35 21 57.5
t63 22.5q39 0 60 -21t21 -55q0 -12 -4.5 -25t-14 -23.5t-25.5 -17.5t-39 -8q17 -16 44.5 -26.5t56.5 -10.5q52 0 83.5 26.5t48.5 65t23 81.5t7 75zM405 308q0 87 -3.5 156t-13 117t-25.5 73.5t-41 25.5q-48 0 -67.5 -55t-19.5 -155q0 -57 6.5 -93.5t18.5 -57.5t29.5 -28.5
t39.5 -7.5t41 7.5t35 17.5z" />
    <glyph glyph-name="zero.tnum" 
d="M30 350q0 81 19.5 147.5t57.5 113.5t92.5 73t125.5 26q70 0 125 -26t93 -73t57.5 -113.5t19.5 -147.5q0 -82 -19.5 -148.5t-57.5 -113.5t-93 -72.5t-125 -25.5q-71 0 -125.5 25.5t-92.5 72.5t-57.5 113.5t-19.5 148.5zM245 350q0 -49 2 -106.5t9.5 -107t23.5 -83
t45 -33.5t45.5 33.5t24 83t9 107t1.5 106.5t-1.5 106.5t-9 107t-24 83t-45.5 33.5t-45 -33.5t-23.5 -83t-9.5 -107t-2 -106.5z" />
    <glyph glyph-name="one.tnum" 
d="M68 638v35q75 0 131 2.5t97 7t70.5 10.5t51.5 12h25v-670h175v-35h-550v35h175v603h-175z" />
    <glyph glyph-name="two.tnum" 
d="M578 225v-225h-520v120q79 43 138 87.5t98.5 92.5t59 101.5t19.5 113.5q0 45 -10 76t-27 49.5t-41 26.5t-52 8q-14 0 -29.5 -3t-30.5 -8t-27.5 -11t-18.5 -13q46 -3 63.5 -26.5t17.5 -48.5q0 -32 -19.5 -54.5t-60.5 -22.5q-42 0 -63.5 22.5t-21.5 57.5q0 25 16.5 50
t47.5 45.5t75 33.5t100 13q46 0 97.5 -9t94.5 -33t71 -65.5t28 -106.5q0 -60 -37.5 -107.5t-94 -85t-122.5 -68t-122 -55.5h337l4 45h30z" />
    <glyph glyph-name="three.tnum" 
d="M223 380q85 14 122 60.5t37 112.5q0 39 -11 62.5t-28.5 37t-39.5 18t-44 4.5q-12 0 -25.5 -2.5t-26 -6t-23.5 -8.5t-17 -10q23 -2 38 -9t24 -17t13 -22.5t4 -24.5q0 -32 -19 -54t-60 -22t-62 22t-21 56q0 23 15 47t43.5 43t69.5 31t94 12t99 -9t80 -27.5t53.5 -46.5
t19.5 -66q0 -41 -20.5 -71.5t-53.5 -52.5t-75 -36.5t-85 -24.5q55 -5 101.5 -17t80.5 -34t53.5 -55.5t19.5 -81.5q0 -55 -27 -93t-68.5 -61t-92 -33.5t-96.5 -10.5q-56 0 -99.5 13t-74 33.5t-46.5 46t-16 50.5q0 35 21.5 57.5t63.5 22.5q41 0 60.5 -22.5t19.5 -55.5
q0 -25 -17.5 -48.5t-63.5 -26.5q6 -7 18.5 -13t27.5 -11t30.5 -8t29.5 -3q28 0 52 9t41 29t27 52.5t10 79.5q0 45 -11.5 76t-32 50t-49 27.5t-63.5 8.5v23z" />
    <glyph glyph-name="four.tnum" 
d="M528 188v-153h65v-35h-330v35h65v153h-305v23l358 494h147v-485h65v-32h-65zM328 220v359l-258 -359h258z" />
    <glyph glyph-name="five.tnum" 
d="M141 363q28 20 72.5 38.5t110.5 18.5q45 0 91 -11t83 -36.5t60.5 -66.5t23.5 -101q0 -67 -27 -109t-68.5 -65.5t-92 -32t-96.5 -8.5q-56 0 -99.5 13t-74 33.5t-46.5 46t-16 50.5q0 35 21.5 57.5t63.5 22.5q40 0 60 -22.5t20 -55.5q0 -25 -18 -48.5t-64 -26.5
q6 -7 18.5 -13t27.5 -11t31 -8t30 -3q28 0 52 7t41 26.5t27 55t10 91.5q0 90 -31.5 129.5t-90.5 39.5q-21 0 -40 -5t-34.5 -12.5t-28 -16t-19.5 -15.5l-30 6l29 369h405v-180h-388z" />
    <glyph glyph-name="six.tnum" 
d="M251 427q20 11 48.5 19.5t60.5 8.5q52 0 99 -15t82.5 -42.5t56.5 -67.5t21 -90q0 -54 -20.5 -100t-58 -79t-90.5 -52t-118 -19q-77 0 -133 29t-93 77t-54.5 109t-17.5 125q0 94 24 165t68.5 119t108.5 72t144 24q55 0 95.5 -13t67 -33t39.5 -45t13 -49q0 -35 -21 -58
t-63 -23q-39 0 -60 21.5t-21 55.5q0 12 4 24.5t13.5 23t25.5 18t39 8.5q-16 15 -44 25.5t-57 10.5q-51 0 -82.5 -26.5t-49 -65t-23.5 -81.5t-6 -75zM249 393q0 -87 3.5 -156t12.5 -117.5t25 -74t41 -25.5q48 0 68 55t20 155q0 58 -6.5 94.5t-18.5 57.5t-29.5 28.5t-39.5 7.5
t-41 -7.5t-35 -17.5z" />
    <glyph glyph-name="seven.tnum" 
d="M590 700v-110q-57 -48 -91.5 -107.5t-53 -124t-24.5 -131t-6 -127.5q0 -38 -13.5 -59.5t-32 -33t-38 -14.5t-31.5 -3q-17 0 -36 4.5t-35.5 16.5t-27.5 33.5t-11 55.5q0 46 26 100t68 109.5t95.5 109.5t108.5 101h-374l-4 -45h-30v225h510z" />
    <glyph glyph-name="eight.tnum" 
d="M428 416q34 -20 66 -42t57.5 -48t41 -58.5t15.5 -72.5q0 -56 -25.5 -95t-67.5 -63.5t-96 -35.5t-110 -11q-77 0 -128 14t-81 37.5t-42.5 52.5t-12.5 59q0 32 14.5 58t38.5 47t54 37.5t61 30.5q-29 19 -56 39t-48 43.5t-33.5 51t-12.5 60.5q0 35 17 69t50.5 61t84 43.5
t117.5 16.5q58 0 101.5 -13t73 -34.5t44 -48.5t14.5 -55q0 -31 -12.5 -54t-32 -40t-44 -29t-48.5 -20zM332 680q-34 0 -56.5 -21t-22.5 -69q0 -26 11.5 -47t31.5 -39.5t45.5 -35.5t54.5 -33q5 9 10 19t9.5 24.5t7 35t2.5 49.5q0 22 -4.5 43t-15.5 37.5t-29 26.5t-44 10z
M309 20q26 0 43.5 9.5t27.5 24t14 33t4 36.5q0 31 -13.5 56.5t-35.5 48t-50.5 42t-58.5 38.5q-17 -42 -25 -86t-8 -74q0 -37 8 -61.5t22 -39.5t32.5 -21t39.5 -6z" />
    <glyph glyph-name="nine.tnum" 
d="M399 273q-20 -11 -48.5 -19.5t-60.5 -8.5q-52 0 -99 14.5t-82.5 42.5t-56.5 68t-21 90q0 54 20.5 100t58 79t90.5 52t118 19q77 0 133 -29t93 -77t54.5 -109t17.5 -125q0 -94 -24 -165t-68.5 -119t-108.5 -72t-144 -24q-55 0 -95.5 13t-67 33t-39.5 45.5t-13 49.5
q0 35 21.5 57.5t63.5 22.5q39 0 59.5 -21t20.5 -55q0 -12 -4 -25t-13.5 -23.5t-25.5 -17.5t-39 -8q17 -16 44.5 -26.5t56.5 -10.5q51 0 82.5 26.5t49 65t23.5 81.5t6 75zM401 308q0 87 -3.5 156t-12.5 117t-25 73.5t-41 25.5q-48 0 -68 -55t-20 -155q0 -57 6.5 -93.5
t18.5 -57.5t29.5 -28.5t39.5 -7.5t41 7.5t35 17.5z" />
    <glyph glyph-name="zero.dnom" horiz-adv-x="405" 
d="M25 210q0 49 12 88.5t34.5 68t55.5 44t75 15.5t75 -15.5t55.5 -44t34.5 -68t12 -88.5t-12 -89t-34.5 -68t-55.5 -43.5t-75 -15.5t-75 15.5t-55.5 43.5t-34.5 68t-12 89zM154 210q0 -29 1 -63.5t5.5 -64t14.5 -49t27 -19.5q18 0 27.5 19.5t14 49t5.5 64t1 63.5t-1 63.5
t-5.5 64t-14 49t-27.5 19.5q-17 0 -27 -19.5t-14.5 -49t-5.5 -64t-1 -63.5z" />
    <glyph glyph-name="one.dnom" horiz-adv-x="242" 
d="M19 383v21q45 0 84.5 6t65.5 13h15v-400h45v-23h-210v23h45v360h-45z" />
    <glyph glyph-name="two.dnom" horiz-adv-x="370" 
d="M337 135v-135h-312v72q95 52 142 108t47 129q0 55 -22 75.5t-56 20.5q-16 0 -35.5 -6.5t-27.5 -14.5q28 -2 38 -16t10 -29q0 -20 -11.5 -33t-36.5 -13t-38 13.5t-13 34.5q0 16 10 31t28.5 27t45.5 19.5t60 7.5q28 0 58.5 -5.5t56 -19.5t42.5 -39t17 -64
q0 -36 -22.5 -64.5t-56.5 -51t-73 -41t-73 -33.5h199l3 27h20z" />
    <glyph glyph-name="three.dnom" horiz-adv-x="350" 
d="M114 228q51 8 73 36t22 68q0 23 -6.5 37.5t-17 22.5t-24 10.5t-26.5 2.5q-14 0 -30.5 -5t-24.5 -11q28 -2 38 -16t10 -28q0 -19 -11.5 -32t-35.5 -13q-25 0 -37.5 13t-12.5 33q0 32 34.5 56t97.5 24q32 0 59.5 -5.5t48 -16.5t32.5 -27.5t12 -39.5q0 -25 -12.5 -43
t-32.5 -31t-45 -22t-51 -15q33 -3 61 -10.5t49 -20.5t32.5 -33.5t11.5 -48.5q0 -33 -16 -55.5t-41 -37t-55 -20.5t-58 -6q-67 0 -104.5 26t-37.5 60q0 21 13 34.5t38 13.5q24 0 36 -13.5t12 -33.5q0 -15 -10.5 -29t-38.5 -16q8 -8 27.5 -14.5t36.5 -6.5q34 0 56 23t22 79
q0 54 -26 75.5t-68 21.5v14z" />
    <glyph glyph-name="four.dnom" horiz-adv-x="361" 
d="M301 110v-87h39v-23h-198v23h39v87h-183v17l216 296h87v-291h39v-22h-39zM181 132v212l-154 -212h154z" />
    <glyph glyph-name="five.dnom" horiz-adv-x="346" 
d="M63 220q17 12 43.5 22t65.5 10q27 0 54.5 -6.5t50 -22t36.5 -40t14 -60.5q0 -40 -16 -65t-41 -39.5t-55 -19.5t-58 -5q-67 0 -104.5 26t-37.5 60q0 21 13 34.5t38 13.5q24 0 36 -13.5t12 -33.5q0 -15 -10.5 -29t-38.5 -16q8 -8 27.5 -14.5t36.5 -6.5t31 4t24.5 16
t16.5 33t6 55q0 54 -19 77.5t-54 23.5q-26 0 -45 -10.5t-28 -18.5l-18 4l17 221h243v-108h-233z" />
    <glyph glyph-name="six.dnom" horiz-adv-x="398" 
d="M232 426q33 0 57.5 -8t40 -20t23.5 -27t8 -29q0 -21 -13 -34.5t-38 -13.5q-23 0 -35.5 12.5t-12.5 32.5q0 15 10.5 29.5t38.5 15.5q-10 9 -27 15.5t-34 6.5q-31 0 -49.5 -16t-29 -39.5t-14 -49t-3.5 -44.5q26 16 66 16q31 0 59.5 -9t50 -25.5t34 -40.5t12.5 -54
q0 -32 -12.5 -59.5t-35 -47.5t-54 -31.5t-70.5 -11.5q-46 0 -80 17.5t-56 46t-32.5 65.5t-10.5 75q0 113 55 170.5t152 57.5zM154 236q0 -106 9.5 -165t39.5 -59q29 0 41 33t12 93q0 34 -4 56t-11 35t-17.5 17.5t-23.5 4.5q-14 0 -25 -4.5t-21 -10.5z" />
    <glyph glyph-name="seven.dnom" horiz-adv-x="323" 
d="M321 420v-66q-35 -29 -55.5 -64.5t-31.5 -74t-14.5 -78.5t-3.5 -77q0 -23 -8 -36t-19 -19.5t-23 -8.5t-19 -2q-10 0 -21.5 2.5t-21.5 10t-16.5 20.5t-6.5 33q0 28 15.5 60t41 65.5t57.5 66t65 60.5h-222l-3 -27h-20v135h306z" />
    <glyph glyph-name="eight.dnom" horiz-adv-x="381" 
d="M253 249q20 -12 39.5 -25t34.5 -28.5t24.5 -35t9.5 -43.5q0 -34 -15.5 -57.5t-41 -38t-57.5 -21t-66 -6.5q-46 0 -76.5 8.5t-48.5 22.5t-25.5 31.5t-7.5 35.5q0 19 8.5 34.5t22.5 28.5t32 23t37 18q-17 11 -33 23t-28.5 26t-20 30.5t-7.5 36.5q0 21 10 41.5t30.5 36.5
t50.5 26t70 10q35 0 61 -8t43.5 -20.5t26.5 -29t9 -33.5q0 -18 -7.5 -32t-19 -24.5t-26 -17.5t-29.5 -12zM195 407q-20 0 -33.5 -12t-13.5 -41q0 -31 25.5 -52t59.5 -41q6 11 12 26.5t6 50.5q0 26 -12 47.5t-44 21.5zM181 14q31 0 42.5 19t11.5 41q0 19 -8 34t-21 28.5
t-30.5 25t-35.5 23.5q-11 -25 -15.5 -51.5t-4.5 -44.5q0 -44 18 -59.5t43 -15.5z" />
    <glyph glyph-name="nine.dnom" horiz-adv-x="398" 
d="M166 -6q-33 0 -57 8t-40 20t-23.5 27t-7.5 29q0 21 12.5 35t37.5 14q23 0 36 -13t13 -33q0 -14 -11 -28.5t-39 -16.5q10 -9 27 -15.5t34 -6.5q31 0 49.5 16t29 39.5t14.5 49t4 44.5q-30 -16 -67 -16q-31 0 -59 9t-49.5 25.5t-34 40.5t-12.5 54q0 32 12 59.5t34.5 47.5
t54.5 31.5t71 11.5q46 0 80 -17.5t56 -46t32.5 -65.5t10.5 -75q0 -113 -55.5 -170.5t-152.5 -57.5zM245 185q0 105 -10 164t-40 59q-29 0 -40.5 -33t-11.5 -93q0 -35 4 -56.5t11 -34t17.5 -17t23.5 -4.5q14 0 25 4.5t21 10.5z" />
    <glyph glyph-name="zero.numr" horiz-adv-x="405" 
d="M25 494q0 49 12 88.5t34.5 68t55.5 44t75 15.5t75 -15.5t55.5 -44t34.5 -68t12 -88.5t-12 -89t-34.5 -68t-55.5 -43.5t-75 -15.5t-75 15.5t-55.5 43.5t-34.5 68t-12 89zM154 494q0 -29 1 -63.5t5.5 -64t14.5 -49t27 -19.5q18 0 27.5 19.5t14 49t5.5 64t1 63.5t-1 63.5
t-5.5 64t-14 49t-27.5 19.5q-17 0 -27 -19.5t-14.5 -49t-5.5 -64t-1 -63.5z" />
    <glyph glyph-name="one.numr" horiz-adv-x="242" 
d="M19 667v21q45 0 84.5 6t65.5 13h15v-400h45v-23h-210v23h45v360h-45z" />
    <glyph glyph-name="two.numr" horiz-adv-x="370" 
d="M337 419v-135h-312v72q95 52 142 108t47 129q0 55 -22 75.5t-56 20.5q-16 0 -35.5 -6.5t-27.5 -14.5q28 -2 38 -16t10 -29q0 -20 -11.5 -33t-36.5 -13t-38 13.5t-13 34.5q0 16 10 31t28.5 27t45.5 19.5t60 7.5q28 0 58.5 -5.5t56 -19.5t42.5 -39t17 -64
q0 -36 -22.5 -64.5t-56.5 -51t-73 -41t-73 -33.5h199l3 27h20z" />
    <glyph glyph-name="three.numr" horiz-adv-x="350" 
d="M114 512q51 8 73 36t22 68q0 23 -6.5 37.5t-17 22.5t-24 10.5t-26.5 2.5q-14 0 -30.5 -5t-24.5 -11q28 -2 38 -16t10 -28q0 -19 -11.5 -32t-35.5 -13q-25 0 -37.5 13t-12.5 33q0 32 34.5 56t97.5 24q32 0 59.5 -5.5t48 -16.5t32.5 -27.5t12 -39.5q0 -25 -12.5 -43
t-32.5 -31t-45 -22t-51 -15q33 -3 61 -10.5t49 -20.5t32.5 -33.5t11.5 -48.5q0 -33 -16 -55.5t-41 -37t-55 -20.5t-58 -6q-67 0 -104.5 26t-37.5 60q0 21 13 34.5t38 13.5q24 0 36 -13.5t12 -33.5q0 -15 -10.5 -29t-38.5 -16q8 -8 27.5 -14.5t36.5 -6.5q34 0 56 23t22 79
q0 54 -26 75.5t-68 21.5v14z" />
    <glyph glyph-name="four.numr" horiz-adv-x="361" 
d="M301 394v-87h39v-23h-198v23h39v87h-183v17l216 296h87v-291h39v-22h-39zM181 416v212l-154 -212h154z" />
    <glyph glyph-name="five.numr" horiz-adv-x="346" 
d="M63 504q17 12 43.5 22t65.5 10q27 0 54.5 -6.5t50 -22t36.5 -40t14 -60.5q0 -40 -16 -65t-41 -39.5t-55 -19.5t-58 -5q-67 0 -104.5 26t-37.5 60q0 21 13 34.5t38 13.5q24 0 36 -13.5t12 -33.5q0 -15 -10.5 -29t-38.5 -16q8 -8 27.5 -14.5t36.5 -6.5t31 4t24.5 16
t16.5 33t6 55q0 54 -19 77.5t-54 23.5q-26 0 -45 -10.5t-28 -18.5l-18 4l17 221h243v-108h-233z" />
    <glyph glyph-name="six.numr" horiz-adv-x="398" 
d="M232 710q33 0 57.5 -8t40 -20t23.5 -27t8 -29q0 -21 -13 -34.5t-38 -13.5q-23 0 -35.5 12.5t-12.5 32.5q0 15 10.5 29.5t38.5 15.5q-10 9 -27 15.5t-34 6.5q-31 0 -49.5 -16t-29 -39.5t-14 -49t-3.5 -44.5q26 16 66 16q31 0 59.5 -9t50 -25.5t34 -40.5t12.5 -54
q0 -32 -12.5 -59.5t-35 -47.5t-54 -31.5t-70.5 -11.5q-46 0 -80 17.5t-56 46t-32.5 65.5t-10.5 75q0 113 55 170.5t152 57.5zM154 520q0 -106 9.5 -165t39.5 -59q29 0 41 33t12 93q0 34 -4 56t-11 35t-17.5 17.5t-23.5 4.5q-14 0 -25 -4.5t-21 -10.5z" />
    <glyph glyph-name="seven.numr" horiz-adv-x="323" 
d="M321 704v-66q-35 -29 -55.5 -64.5t-31.5 -74t-14.5 -78.5t-3.5 -77q0 -23 -8 -36t-19 -19.5t-23 -8.5t-19 -2q-10 0 -21.5 2.5t-21.5 10t-16.5 20.5t-6.5 33q0 28 15.5 60t41 65.5t57.5 66t65 60.5h-222l-3 -27h-20v135h306z" />
    <glyph glyph-name="eight.numr" horiz-adv-x="381" 
d="M253 533q20 -12 39.5 -25t34.5 -28.5t24.5 -35t9.5 -43.5q0 -34 -15.5 -57.5t-41 -38t-57.5 -21t-66 -6.5q-46 0 -76.5 8.5t-48.5 22.5t-25.5 31.5t-7.5 35.5q0 19 8.5 34.5t22.5 28.5t32 23t37 18q-17 11 -33 23t-28.5 26t-20 30.5t-7.5 36.5q0 21 10 41.5t30.5 36.5
t50.5 26t70 10q35 0 61 -8t43.5 -20.5t26.5 -29t9 -33.5q0 -18 -7.5 -32t-19 -24.5t-26 -17.5t-29.5 -12zM195 691q-20 0 -33.5 -12t-13.5 -41q0 -31 25.5 -52t59.5 -41q6 11 12 26.5t6 50.5q0 26 -12 47.5t-44 21.5zM181 298q31 0 42.5 19t11.5 41q0 19 -8 34t-21 28.5
t-30.5 25t-35.5 23.5q-11 -25 -15.5 -51.5t-4.5 -44.5q0 -44 18 -59.5t43 -15.5z" />
    <glyph glyph-name="nine.numr" horiz-adv-x="398" 
d="M166 278q-33 0 -57 8t-40 20t-23.5 27t-7.5 29q0 21 12.5 35t37.5 14q23 0 36 -13t13 -33q0 -14 -11 -28.5t-39 -16.5q10 -9 27 -15.5t34 -6.5q31 0 49.5 16t29 39.5t14.5 49t4 44.5q-30 -16 -67 -16q-31 0 -59 9t-49.5 25.5t-34 40.5t-12.5 54q0 32 12 59.5t34.5 47.5
t54.5 31.5t71 11.5q46 0 80 -17.5t56 -46t32.5 -65.5t10.5 -75q0 -113 -55.5 -170.5t-152.5 -57.5zM245 469q0 105 -10 164t-40 59q-29 0 -40.5 -33t-11.5 -93q0 -35 4 -56.5t11 -34t17.5 -17t23.5 -4.5q14 0 25 4.5t21 10.5z" />
    <glyph glyph-name="numbersign.aalt" 
d="M449 399l-54 -98h250v-32h-267l-146 -269h-35l146 269h-115l-146 -269h-35l146 269h-188v32h205l54 98h-259v32h276l146 269h35l-146 -269h115l146 269h35l-146 -269h179v-32h-196zM414 399h-115l-54 -98h115z" />
    <glyph glyph-name="florin.tnum.oldstyle" 
d="M600 468h-185v-492q0 -39 -14 -73t-41.5 -59t-69.5 -39.5t-98 -14.5q-70 0 -103.5 26t-33.5 64t23 56.5t52 18.5q27 0 50 -14.5t23 -52.5q0 -16 -11.5 -37.5t-42.5 -30.5q6 -3 14 -5.5t19 -2.5q29 0 36 21t7 48v587h-145v32h145v44q0 39 14 73t42 59t70 39.5t98 14.5
q70 0 103 -26t33 -64t-22.5 -56.5t-51.5 -18.5q-28 0 -51 14.5t-23 52.5q0 8 2.5 18t9 19.5t17 17.5t26.5 13q-6 3 -14.5 5.5t-18.5 2.5q-29 0 -36.5 -21t-7.5 -48v-139h185v-32z" />
    </font>
</defs>
</svg>
