<svg width="74" height="74" viewBox="0 0 74 74" fill="none" xmlns="http://www.w3.org/2000/svg">
<g clip-path="url(#clip0_1043_92)">
<path d="M36.6522 19.95H37.3151V53.885H36.6522V19.95Z" fill="black"/>
<path d="M37.0501 0L0.0661647 36.8511L0 36.9177L36.9177 73.8355L36.9839 73.9016L73.9016 36.9839L73.9678 36.9177L37.0501 0ZM36.9839 0.861447L73.0397 36.9173L36.9839 72.9736L0.928047 36.9177L36.9839 0.861447Z" fill="black"/>
<path d="M70.4545 36.9172L37.0496 3.44617L36.9835 3.38L3.57855 36.8511L3.51239 36.9172L36.9173 70.3221L36.9835 70.3883L70.4545 36.9172ZM36.9835 69.4603L4.44043 36.9172L36.9835 4.30805L69.5931 36.9172L36.9835 69.4603Z" fill="black"/>
<path d="M7.09181 36.8512L36.9839 66.8765L37.0501 66.9426L66.9421 36.9182L67.0083 36.8521L37.0501 6.95911L36.9839 6.89294L7.09181 36.8512ZM36.9839 7.82099L66.0807 36.9178L36.9839 66.0142L7.95326 36.9174L36.9839 7.82099Z" fill="black"/>
<path d="M51.0352 37.0501H47.9881V40.0323H51.5671V40.8937H46.8594V32.6758H51.4988V33.5372H47.9859V36.1886H51.033L51.0352 37.0501Z" fill="black"/>
<path d="M26.4446 38.8395H23.794L23.1977 40.8941H22.0045L24.5232 32.6758H25.6497L28.1683 40.8946H26.9756L26.4446 38.8395ZM24.0591 37.9119H26.1799L25.1857 34.2668H25.1195L24.0591 37.9119Z" fill="black"/>
</g>
<defs>
<clipPath id="clip0_1043_92">
<rect width="73.9678" height="73.9012" fill="white"/>
</clipPath>
</defs>
</svg>
