<svg width="145" height="66" viewBox="0 0 145 66" fill="none" xmlns="http://www.w3.org/2000/svg">
<g clip-path="url(#clip0_1830_8704)">
<path d="M20.2 41.4L20.6 41.5C20.2 45.1 19.9 48.2 19.9 48.2C19.9 48.2 14.7 48.1 5 48.1C3 48.1 0.0999985 48.2 0.0999985 48.2V47.9C1.8 47.4 2.7 47.2 2.7 46.2V33.5C2.7 32.5 1.9 32.3 0.0999985 31.8V31.5C0.0999985 31.5 3.5 31.6 5 31.6C14.4 31.6 19.1 31.5 19.1 31.5C19.1 31.5 19.3 34.7 19.6 37.4L19.2 37.5C17.1 33.8 16.4 32.6 15.1 32.6H7.4V39H11.7C12.5 39 13 38.6 14.2 35.5H14.5C14.5 35.5 14.4 37.4 14.4 39.6C14.4 41.4 14.5 43.4 14.5 43.4H14.2C12.9 40.4 12.4 40 11.7 40H7.4V45.4C7.4 46.6 8.3 47 9.7 47H15.7C17.2 47 18 45.5 20.2 41.4Z" fill="black"/>
<path d="M23.6 47.8C25.3 47.3 26.2 47.1 26.2 46.1V33.5C26.2 32.5 25.4 32.3 23.6 31.8V31.5C26.7 31.4 31 31.3 33.2 31.3C41 31.3 45.4 34.4001 45.4 39.9001C45.4 45.2001 40.5 48.3 33.3 48.3C30.2 48.3 25.8 48.2001 23.6 48V47.8ZM33.4 32.3C32.6 32.3 31.8 32.4 31.1 32.6V45.4001C31.1 46.9001 32 47.3 33.7 47.3C38.5 47.3 40.4 44.8001 40.4 39.9001C40.3 34.5001 38.5 32.3 33.4 32.3Z" fill="black"/>
<path d="M59 31.6C61.4 31.6 63.1 31.5 63.1 31.5C63.1 31.5 64.6 31.6 65.9 31.6C67.9 31.6 68.4 31.5 68.4 31.5V31.8C66.9 32.4 66.3 32.9 65.6 34.3L63.7 37.8L66.8 43.7L71.4 34.4C71.9 33.3 71.6 32.3 69.8 31.8V31.5C69.8 31.5 71 31.6 73 31.6C75 31.6 75.4 31.5 75.4 31.5V31.8C73.9 32.4 73.5 32.9 72.8 34.3L66 48.3H64.8L61.1 41.3L57.4 48.3H56.2L48.8 34.1C48.2 32.9 47.9 32.4 46.2 31.8V31.5C46.2 31.5 48.1 31.6 50.6 31.6C53 31.6 55 31.5 55 31.5C55 31.5 56.5 31.6 59 31.6ZM53.6 34L58.5 43.4L60.4 40L57.3 34C56.7 32.8 56.1 32.1 55 31.7C53.2 32.1 53 32.8 53.6 34ZM61.6 34L62.9 36.7L64.2 34.4C64.9 33.2 64.7 32.3 63 31.8C61 32.2 61.1 32.8 61.6 34Z" fill="black"/>
<path d="M87.4 44H77.5L77.1 44.8C76.4 46.3 76.5 47.2 78.7 47.8V48.1C78.7 48.1 77.4 48 75.4 48C73.4 48 72.5 48.1 72.5 48.1V47.8C74.1 47.2 74.9 46.6 75.6 45.3L81.7 33C81 32.5 79.9 32 78.6 31.7V31.4C78.6 31.4 81.1 31.5 83.1 31.5C84.9 31.5 86.6 31.4 86.6 31.4L93.4 45.5C94 46.8 94.4 47.1 96.2 47.8V48.1C96.2 48.1 94 48 91.6 48C89.2 48 86.4 48.1 86.4 48.1V47.8C88.5 47.4 88.9 46.8 88.3 45.6L87.4 44ZM78 42.9H86.9L82.5 33.7L78 42.9Z" fill="black"/>
<path d="M108.8 40.9001C110 41.7001 111.7 42 114.6 42.1L117.5 46.1C118.4 47.3 118.6 47.4001 120.3 47.9001V48.2001C120.3 48.2001 117.7 48.1 116.5 48.1C115.6 48.1 113.5 48.2001 113.5 48.2001L107.9 40.9001C107.1 40.9001 106.5 40.8 106 40.8V46.1C106 47.2 107.4 47.5001 108.6 47.9001V48.2001C108.6 48.2001 104.6 48.1 103.5 48.1C102.5 48.1 98.6 48.2001 98.6 48.2001V47.9001C100.3 47.4001 101.2 47.2001 101.2 46.2001V33.5C101.2 32.5 100.4 32.3 98.6 31.8V31.5C98.6 31.5 105.3 31.3 108.4 31.3C114.4 31.3 118.6 32.3001 118.6 35.9001C118.4 39.1001 115.1 40.8001 108.8 40.9001ZM108.7 40C111.7 40 113.4 38.8001 113.4 36.2001C113.4 33.5001 111.7 32.4001 108.4 32.4001C107.3 32.4001 106.6 32.5 105.9 32.6V39.8C106.4 39.9 107.5 40 108.7 40Z" fill="black"/>
<path d="M122.8 47.8C124.5 47.3 125.4 47.1 125.4 46.1V33.5C125.4 32.5 124.6 32.3 122.8 31.8V31.5C125.9 31.4 130.2 31.3 132.4 31.3C140.2 31.3 144.6 34.4001 144.6 39.9001C144.6 45.2001 139.7 48.3 132.5 48.3C129.4 48.3 125 48.2001 122.8 48V47.8ZM132.5 32.3C131.7 32.3 130.9 32.4 130.2 32.6V45.4001C130.2 46.9001 131.1 47.3 132.8 47.3C137.6 47.3 139.5 44.8001 139.5 39.9001C139.4 34.5001 137.7 32.3 132.5 32.3Z" fill="black"/>
<path d="M41.4 63H39.8V65.5H38.4V57.6H41.5C43.3 57.6 44.5 58.6 44.5 60.2C44.5 62 43.1 63 41.4 63ZM41.4 58.9H39.8V61.7H41.4C42.4 61.7 43.1 61.1 43.1 60.3C43.1 59.4 42.4 58.9 41.4 58.9Z" fill="black"/>
<path d="M53.6 65.5H52.1L51.3 63.6H47.6L46.8 65.5H45.4L48.9 57.6H50.2L53.6 65.5ZM49.5 59.2L48.2 62.4H50.9L49.5 59.2Z" fill="black"/>
<path d="M61 65.5L59 62.7H57.3V65.4H55.9V57.5H59.4C61.2 57.5 62.3 58.5 62.3 60C62.3 61.3 61.5 62.1 60.4 62.4L62.5 65.4L61 65.5ZM59.3 58.9H57.3V61.5H59.3C60.3 61.5 60.9 61 60.9 60.2C60.9 59.3 60.3 58.9 59.3 58.9Z" fill="black"/>
<path d="M67.7 65.5999H66.3V59H63.8V57.7H70.2V59H67.7V65.5999Z" fill="black"/>
<path d="M77.4 57.6H78.8V65.5H77.6L73.3 59.9V65.5H71.9V57.6H73.2L77.4 63.1V57.6Z" fill="black"/>
<path d="M87.6 58.8H83.1V60.9H87.1V62.1H83.1V64.2H87.6V65.5H81.7V57.6H87.6V58.8Z" fill="black"/>
<path d="M95.3 65.5L93.4 62.8H91.7V65.5H90.3V57.6H93.7C95.5 57.6 96.6 58.6 96.6 60.1C96.6 61.4 95.8 62.2 94.7 62.5L96.8 65.5H95.3ZM93.6 58.9H91.6V61.5H93.6C94.6 61.5 95.2 61 95.2 60.2C95.2 59.3 94.6 58.9 93.6 58.9Z" fill="black"/>
<path d="M102.3 60.9C104 61.3 104.8 61.9 104.8 63.2C104.8 64.7 103.6 65.6 102 65.6C100.8 65.6 99.7 65.2 98.7 64.3L99.5 63.3C100.3 64 101 64.3 102 64.3C102.9 64.3 103.4 63.9 103.4 63.3C103.4 62.7 103.1 62.4 101.6 62.1C99.9 61.7 99 61.2 99 59.7C99 58.3 100.1 57.4 101.7 57.4C102.8 57.4 103.8 57.7 104.6 58.4L103.9 59.4C103.2 58.9 102.5 58.6 101.8 58.6C101 58.6 100.5 59 100.5 59.5C100.4 60.3 100.8 60.6 102.3 60.9Z" fill="black"/>
<path d="M84.8 19.3C86 13.4 88.5 8 92.2 3.6C89.9 4.2 87.9 5.4 86.3 7.2C86.2 7.1 86 7 85.9 7C84.4 6.3 82.7 6.3 81.2 6.8C82.9 6.9 84.3 8.3 84.3 10C84.3 11.8 82.9 13.2 81.1 13.2C80.2 13.2 79.4 12.8 78.9 12.3C78.5 12.4 78.2 12.5 77.8 12.5C76 12.5 74.6 11.1 74.6 9.3C74.6 7.5 76 6.1 77.8 6.1C78.7 6.1 79.5 6.5 80 7H80.1C79 5.5 77.3 4.6 75.3 4.6C75.2 4.6 75 4.6 74.9 4.6C74.4 2.9 73.5 1.3 72.3 0C71.1 1.3 70.2 2.8 69.7 4.6C69.6 4.6 69.4 4.6 69.3 4.6C67.3 4.6 65.6 5.6 64.5 7H64.6C65.2 6.4 66 6.1 66.8 6.1C68.6 6.1 70 7.5 70 9.3C70 11.1 68.6 12.5 66.8 12.5C66.4 12.5 66 12.4 65.7 12.3C65.1 12.9 64.3 13.2 63.5 13.2C61.7 13.2 60.3 11.8 60.3 10C60.3 8.3 61.7 6.9 63.4 6.8C61.9 6.2 60.3 6.3 58.7 7C58.6 7.1 58.5 7.2 58.3 7.2C56.7 5.4 54.6 4.2 52.4 3.6C56.1 8 58.7 13.4 59.8 19.3H84.8Z" fill="black"/>
</g>
<defs>
<clipPath id="clip0_1830_8704">
<rect width="144.6" height="65.6" fill="white"/>
</clipPath>
</defs>
</svg>
