<svg width="174" height="50" viewBox="0 0 174 50" fill="none" xmlns="http://www.w3.org/2000/svg">
<path d="M10.8098 24.2132V15.9032H12.8746V34.6068H10.8098V26.3238H3.21343V34.6068H1.14863V15.9032H3.21343V24.2132H10.8098Z" fill="#231F20"/>
<path fill-rule="evenodd" clip-rule="evenodd" d="M10.8098 24.2132V15.9032H12.8746V34.6068H10.8098V26.3238H3.21343V34.6068H1.14863V15.9032H3.21343V24.2132H10.8098Z" stroke="#231F20" stroke-width="0.5" stroke-miterlimit="16" stroke-linecap="square"/>
<path d="M17.4024 15.9032H15.3374V34.6068H17.4024V15.9032Z" fill="#231F20"/>
<path d="M17.4024 15.9032H15.3374V34.6068H17.4024V15.9032Z" stroke="#231F20" stroke-width="0.5" stroke-miterlimit="16" stroke-linecap="square"/>
<path d="M22.9082 20.5561C22.9082 24.0833 31.2663 24.0032 31.2663 29.6942C31.2663 32.393 29.3735 35.145 25.8579 35.145C22.8097 35.145 20.8431 32.9806 19.8599 31.4845L21.3101 29.9079C22.4903 31.5112 23.5228 32.9541 25.8579 32.9541C28.0212 32.9541 29.0784 31.3241 29.0784 29.6942C29.0784 25.713 20.7205 25.8466 20.7205 20.5561C20.7205 18.2852 22.6624 15.3726 26.1284 15.3726C28.562 15.3726 29.3244 16.3345 30.406 17.2698L28.9555 18.846C27.7511 17.9375 27.2837 17.6171 25.9808 17.6171C24.0144 17.6171 22.9082 19.4339 22.9082 20.5561Z" fill="#231F20"/>
<path fill-rule="evenodd" clip-rule="evenodd" d="M22.9082 20.5561C22.9082 24.0833 31.2663 24.0032 31.2663 29.6942C31.2663 32.393 29.3735 35.145 25.8579 35.145C22.8097 35.145 20.8431 32.9806 19.8599 31.4845L21.3101 29.9079C22.4903 31.5112 23.5228 32.9541 25.8579 32.9541C28.0212 32.9541 29.0784 31.3241 29.0784 29.6942C29.0784 25.713 20.7205 25.8466 20.7205 20.5561C20.7205 18.2852 22.6624 15.3726 26.1284 15.3726C28.562 15.3726 29.3244 16.3345 30.406 17.2698L28.9555 18.846C27.7511 17.9375 27.2837 17.6171 25.9808 17.6171C24.0144 17.6171 22.9082 19.4339 22.9082 20.5561V20.5561Z" stroke="#231F20" stroke-width="0.5" stroke-miterlimit="16" stroke-linecap="square"/>
<path d="M42.9691 15.9032V18.0142H38.5195V34.6068H36.4547V18.0142H32.005V15.9032H42.9691Z" fill="#231F20"/>
<path fill-rule="evenodd" clip-rule="evenodd" d="M42.9691 15.9032V18.0142H38.5195V34.6068H36.4547V18.0142H32.005V15.9032H42.9691Z" stroke="#231F20" stroke-width="0.5" stroke-miterlimit="16" stroke-linecap="square"/>
<path d="M52.5554 32.9007C56.4151 32.9007 59.4633 29.4804 59.4633 25.2587C59.4633 21.0371 56.4151 17.6171 52.5554 17.6171C48.6712 17.6171 45.6477 21.0371 45.6477 25.2587C45.6477 29.4804 48.6712 32.9007 52.5554 32.9007ZM52.5554 35.145C47.5408 35.145 43.46 30.7095 43.46 25.2587C43.46 19.8079 47.5408 15.3726 52.5554 15.3726C57.5211 15.3726 61.651 19.7278 61.651 25.2587C61.651 30.7363 57.4964 35.145 52.5554 35.145Z" fill="#231F20"/>
<path fill-rule="evenodd" clip-rule="evenodd" d="M52.5554 32.9007C56.4151 32.9007 59.4633 29.4804 59.4633 25.2587C59.4633 21.0371 56.4151 17.6171 52.5554 17.6171C48.6712 17.6171 45.6477 21.0371 45.6477 25.2587C45.6477 29.4804 48.6712 32.9007 52.5554 32.9007V32.9007ZM52.5554 35.145C47.5408 35.145 43.46 30.7095 43.46 25.2587C43.46 19.8079 47.5408 15.3726 52.5554 15.3726C57.5211 15.3726 61.651 19.7278 61.651 25.2587C61.651 30.7363 57.4964 35.145 52.5554 35.145V35.145Z" stroke="#231F20" stroke-width="0.5" stroke-miterlimit="16" stroke-linecap="square"/>
<path d="M65.9297 24.1059H68.0686C70.5267 24.1059 71.3131 22.503 71.3131 21.06C71.3131 19.3499 70.5513 18.0142 68.0686 18.0142H65.9297V24.1059ZM73.9437 34.6068H71.6329L67.5768 26.2169H65.9297V34.6068H63.8646V15.9032H67.0851C70.1334 15.9032 73.5013 16.304 73.5013 21.06C73.5013 23.0908 72.5917 25.255 69.7892 25.9765L73.9437 34.6068Z" fill="#231F20"/>
<path fill-rule="evenodd" clip-rule="evenodd" d="M65.9297 24.1059H68.0686C70.5267 24.1059 71.3131 22.503 71.3131 21.06C71.3131 19.3499 70.5513 18.0142 68.0686 18.0142H65.9297V24.1059ZM73.9437 34.6068H71.6329L67.5768 26.2169H65.9297V34.6068H63.8646V15.9032H67.0851C70.1334 15.9032 73.5013 16.304 73.5013 21.06C73.5013 23.0908 72.5917 25.255 69.7892 25.9765L73.9437 34.6068Z" stroke="#231F20" stroke-width="0.5" stroke-miterlimit="16" stroke-linecap="square"/>
<path d="M77.9739 15.9032H75.9089V34.6068H77.9739V15.9032Z" fill="#231F20"/>
<path d="M77.9739 15.9032H75.9089V34.6068H77.9739V15.9032Z" stroke="#231F20" stroke-width="0.5" stroke-miterlimit="16" stroke-linecap="square"/>
<path d="M83.4794 20.5561C83.4794 24.0833 91.8373 24.0032 91.8373 29.6942C91.8373 32.393 89.9447 35.145 86.4297 35.145C83.3815 35.145 81.4149 32.9806 80.4314 31.4845L81.8816 29.9079C83.0618 31.5112 84.0943 32.9541 86.4297 32.9541C88.593 32.9541 89.6499 31.3241 89.6499 29.6942C89.6499 25.713 81.292 25.8466 81.292 20.5561C81.292 18.2852 83.2337 15.3726 86.6999 15.3726C89.1335 15.3726 89.8954 16.3345 90.9772 17.2698L89.5268 18.846C88.3223 17.9375 87.855 17.6171 86.5526 17.6171C84.5857 17.6171 83.4794 19.4339 83.4794 20.5561Z" fill="#231F20"/>
<path fill-rule="evenodd" clip-rule="evenodd" d="M83.4794 20.5561C83.4794 24.0833 91.8373 24.0032 91.8373 29.6942C91.8373 32.393 89.9447 35.145 86.4297 35.145C83.3815 35.145 81.4149 32.9806 80.4314 31.4845L81.8816 29.9079C83.0618 31.5112 84.0943 32.9541 86.4297 32.9541C88.593 32.9541 89.6499 31.3241 89.6499 29.6942C89.6499 25.713 81.292 25.8466 81.292 20.5561C81.292 18.2852 83.2337 15.3726 86.6999 15.3726C89.1335 15.3726 89.8954 16.3345 90.9772 17.2698L89.5268 18.846C88.3223 17.9375 87.855 17.6171 86.5526 17.6171C84.5857 17.6171 83.4794 19.4339 83.4794 20.5561V20.5561Z" stroke="#231F20" stroke-width="0.5" stroke-miterlimit="16" stroke-linecap="square"/>
<path d="M103.49 34.6068L97.4922 26.6979L96.3612 28.2745V34.6068H94.2964V15.9032H96.3612V24.5338L102.581 15.9032H105.334L98.8197 24.8544L106.071 34.6068H103.49Z" fill="#231F20"/>
<path fill-rule="evenodd" clip-rule="evenodd" d="M103.49 34.6068L97.4922 26.6979L96.3612 28.2745V34.6068H94.2964V15.9032H96.3612V24.5338L102.581 15.9032H105.334L98.8197 24.8544L106.071 34.6068H103.49V34.6068Z" stroke="#231F20" stroke-width="0.5" stroke-miterlimit="16" stroke-linecap="square"/>
<path d="M114.58 21.1208L112.196 27.9344H117.161L114.777 21.1208L114.678 20.5864L114.58 21.1208ZM111.483 30.045L109.885 34.6141H107.795L114.678 14.8417L121.562 34.6141H119.472L117.874 30.045H111.483Z" fill="#231F20"/>
<path fill-rule="evenodd" clip-rule="evenodd" d="M114.58 21.1208L112.196 27.9344H117.161L114.777 21.1208L114.678 20.5864L114.58 21.1208V21.1208ZM111.483 30.045L109.885 34.6141H107.795L114.678 14.8417L121.562 34.6141H119.472L117.874 30.045H111.483V30.045Z" stroke="#231F20" stroke-width="0.5" stroke-miterlimit="16" stroke-linecap="square"/>
<path d="M138.599 24.2132V15.9032H140.663V34.6068H138.599V26.3238H131.003V34.6068H128.937V15.9032H131.003V24.2132H138.599Z" fill="#231F20"/>
<path fill-rule="evenodd" clip-rule="evenodd" d="M138.599 24.2132V15.9032H140.663V34.6068H138.599V26.3238H131.003V34.6068H128.937V15.9032H131.003V24.2132H138.599Z" stroke="#231F20" stroke-width="0.5" stroke-miterlimit="16" stroke-linecap="square"/>
<path d="M142.999 34.6068V15.9032H152.635V18.0142H145.064V23.6252H151.897V25.7359H145.064V32.4961H152.635V34.6068H142.999Z" fill="#231F20"/>
<path fill-rule="evenodd" clip-rule="evenodd" d="M142.999 34.6068V15.9032H152.635V18.0142H145.064V23.6252H151.897V25.7359H145.064V32.4961H152.635V34.6068H142.999Z" stroke="#231F20" stroke-width="0.5" stroke-miterlimit="16" stroke-linecap="square"/>
<path d="M163.473 30.3924L163.719 31.4612L163.965 30.3924L171.094 14.8417L172.323 34.6141H170.258L169.57 23.6059V22.537L169.3 23.6059L163.719 35.6829L158.115 23.6059L157.844 22.537V23.6059L157.156 34.6141H155.091L156.32 14.8417L163.473 30.3924Z" fill="#231F20"/>
<path fill-rule="evenodd" clip-rule="evenodd" d="M163.473 30.3924L163.719 31.4612L163.965 30.3924L171.094 14.8417L172.323 34.6141H170.258L169.57 23.6059V22.537L169.3 23.6059L163.719 35.6829L158.115 23.6059L157.844 22.537V23.6059L157.156 34.6141H155.091L156.32 14.8417L163.473 30.3924Z" stroke="#231F20" stroke-width="0.5" stroke-miterlimit="16" stroke-linecap="square"/>
<path d="M1 5.49927H43.4595" stroke="#231F20" stroke-width="0.5" stroke-miterlimit="16" stroke-linecap="square"/>
<path d="M45.854 7.56419V1.46509H49.2694V2.15317H46.586V3.983H49.008V4.67136H46.586V7.56419H45.854Z" fill="#231F20"/>
<path d="M51.8473 3.17299L51.0021 5.39491H52.7622L51.917 3.17299L51.8821 2.9987L51.8473 3.17299ZM50.7494 6.08327L50.183 7.57325H49.4423L51.8821 1.12537L54.3218 7.57325H53.5812L53.0149 6.08327H50.7494Z" fill="#231F20"/>
<path d="M56.2766 2.98555C56.2766 4.13568 59.2391 4.10957 59.2391 5.96552C59.2391 6.84556 58.5682 7.74305 57.3224 7.74305C56.2417 7.74305 55.5446 7.03695 55.1964 6.54928L55.7105 6.03521C56.1287 6.55801 56.4944 7.02857 57.3224 7.02857C58.0889 7.02857 58.4636 6.49705 58.4636 5.96552C58.4636 4.66721 55.5013 4.71079 55.5013 2.98555C55.5013 2.24489 56.1897 1.29517 57.418 1.29517C58.2806 1.29517 58.5508 1.60911 58.9341 1.91377L58.4201 2.42784C57.9931 2.13163 57.8276 2.02703 57.3657 2.02703C56.669 2.02703 56.2766 2.61959 56.2766 2.98555Z" fill="#231F20"/>
<path d="M63.8224 1.46509V2.15317H62.2453V7.56419H61.5134V2.15317H59.9366V1.46509H63.8224Z" fill="#231F20"/>
<path d="M65.8599 1.46509H65.128V7.56419H65.8599V1.46509Z" fill="#231F20"/>
<path d="M72.5936 6.68872C71.9052 7.48162 70.9293 7.74305 70.2148 7.74305C68.4373 7.74305 66.9911 6.29664 66.9911 4.51911C66.9911 2.74158 68.4373 1.29517 70.2148 1.29517C71.4608 1.29517 72.2276 1.95734 72.5936 2.34105L72.0708 2.85484C71.7309 2.48014 71.0948 2.02703 70.2148 2.02703C68.8381 2.02703 67.7228 3.14239 67.7228 4.51911C67.7228 5.89583 68.8381 7.01112 70.2148 7.01112C70.8509 7.01112 71.426 6.77587 71.8616 6.38343V4.86762H72.5936V6.68872Z" fill="#231F20"/>
<path d="M77.2415 4.17468V1.46509H77.9737V7.56419H77.2415V4.86304H74.5494V7.56419H73.8175V1.46509H74.5494V4.17468H77.2415Z" fill="#231F20"/>
<path d="M79.2371 7.56419V1.46509H82.6528V2.15317H79.969V3.983H82.3914V4.67136H79.969V6.87554H82.6528V7.56419H79.2371Z" fill="#231F20"/>
<path d="M87.8475 1.46509V2.15317H86.2701V7.56419H85.5385V2.15317H83.9614V1.46509H87.8475Z" fill="#231F20"/>
<path d="M89.7077 2.98555C89.7077 4.13568 92.6699 4.10957 92.6699 5.96552C92.6699 6.84556 91.999 7.74305 90.753 7.74305C89.6728 7.74305 88.9757 7.03695 88.6272 6.54928L89.1413 6.03521C89.5596 6.55801 89.9255 7.02857 90.753 7.02857C91.5201 7.02857 91.8945 6.49705 91.8945 5.96552C91.8945 4.66721 88.9322 4.71079 88.9322 2.98555C88.9322 2.24489 89.6205 1.29517 90.8489 1.29517C91.7115 1.29517 91.9819 1.60911 92.365 1.91377L91.8512 2.42784C91.4242 2.13163 91.2587 2.02703 90.7968 2.02703C90.0995 2.02703 89.7077 2.61959 89.7077 2.98555Z" fill="#231F20"/>
<path d="M96.7739 6.19653L96.8611 6.54476L96.9479 6.19653L99.4751 1.12537L99.9107 7.57325H99.1785L98.9345 3.98334V3.63483L98.8387 3.98334L96.8611 7.92176L94.8744 3.98334L94.7785 3.63483V3.98334L94.5346 7.57325H93.8027L94.2384 1.12537L96.7739 6.19653Z" fill="#231F20"/>
<path d="M104.008 0C104.225 0 104.4 0.174572 104.4 0.392434C104.4 0.610226 104.225 0.784516 104.008 0.784516C103.79 0.784516 103.616 0.610226 103.616 0.392434C103.616 0.174572 103.79 0 104.008 0ZM103.363 3.16298L102.518 5.3849H104.278L103.433 3.16298L103.398 2.98869L103.363 3.16298ZM102.788 0C103.006 0 103.18 0.174572 103.18 0.392434C103.18 0.610226 103.006 0.784516 102.788 0.784516C102.57 0.784516 102.396 0.610226 102.396 0.392434C102.396 0.174572 102.57 0 102.788 0ZM102.265 6.07326L101.699 7.56324H100.958L103.398 1.11536L105.837 7.56324H105.097L104.531 6.07326H102.265Z" fill="#231F20"/>
<path d="M110.231 7.56419L108.105 4.98503L107.704 5.4991V7.56419H106.972V1.46509H107.704V4.27921L109.909 1.46509H110.885L108.576 4.38381L111.146 7.56419H110.231Z" fill="#231F20"/>
<path d="M112.19 7.56419V1.46509H112.922V6.87554H115.719V7.56419H112.19Z" fill="#231F20"/>
<path d="M117.026 7.56419V1.46509H120.441V2.15317H117.758V3.983H120.18V4.67136H117.758V6.87554H120.441V7.56419H117.026Z" fill="#231F20"/>
<path d="M122.482 4.13984H123.24C124.112 4.13984 124.39 3.61704 124.39 3.14654C124.39 2.58882 124.12 2.15317 123.24 2.15317H122.482V4.13984ZM125.323 7.56419H124.504L123.066 4.8282H122.482V7.56419H121.75V1.46509H122.892C123.972 1.46509 125.166 1.59552 125.166 3.14654C125.166 3.80871 124.844 4.51453 123.85 4.74978L125.323 7.56419Z" fill="#231F20"/>
<path d="M127.185 1.46509H126.453V7.56419H127.185V1.46509Z" fill="#231F20"/>
<path d="M31.9463 42.6777H31.2141V48.7768H31.9463V42.6777Z" fill="#231F20"/>
<path d="M37.0919 42.6866H37.8238V49.1342L33.9638 44.4815L33.8505 44.2198L33.8941 44.4815V48.7856H33.1622V42.338L37.0222 46.991L37.1352 47.2523L37.0919 46.991V42.6866Z" fill="#231F20"/>
<path d="M42.7596 42.6777V43.3661H41.1825V48.7768H40.4506V43.3661H38.8738V42.6777H42.7596Z" fill="#231F20"/>
<path d="M43.89 48.7768V42.6777H47.3056V43.3661H44.6219V45.1959H47.0443V45.8839H44.6219V48.0884H47.3056V48.7768H43.89Z" fill="#231F20"/>
<path d="M49.2557 45.3527H50.014C50.8854 45.3527 51.1642 44.8296 51.1642 44.3594C51.1642 43.8018 50.8938 43.3661 50.014 43.3661H49.2557V45.3527ZM52.0966 48.7768H51.2772L49.8395 46.0408H49.2557V48.7768H48.524V42.6777H49.6655C50.7457 42.6777 51.9397 42.8084 51.9397 44.3594C51.9397 45.0216 51.617 45.7271 50.6237 45.9626L52.0966 48.7768Z" fill="#231F20"/>
<path d="M53.8741 42.6777H53.1421V48.7768H53.8741V42.6777Z" fill="#231F20"/>
<path d="M58.8442 41.2126C59.062 41.2126 59.2366 41.3869 59.2366 41.6047C59.2366 41.8226 59.062 41.9968 58.8442 41.9968C58.6264 41.9968 58.4523 41.8226 58.4523 41.6047C58.4523 41.3869 58.6264 41.2126 58.8442 41.2126ZM57.6246 41.2126C57.8425 41.2126 58.0167 41.3869 58.0167 41.6047C58.0167 41.8226 57.8425 41.9968 57.6246 41.9968C57.4067 41.9968 57.2325 41.8226 57.2325 41.6047C57.2325 41.3869 57.4067 41.2126 57.6246 41.2126ZM58.2346 48.2179C59.6025 48.2179 60.6827 47.1026 60.6827 45.7259C60.6827 44.3494 59.6025 43.2342 58.2346 43.2342C56.8578 43.2342 55.786 44.3494 55.786 45.7259C55.786 47.1026 56.8578 48.2179 58.2346 48.2179ZM58.2346 48.9498C56.457 48.9498 55.0106 47.5034 55.0106 45.7259C55.0106 43.9486 56.457 42.5022 58.2346 42.5022C59.9943 42.5022 61.4582 43.9225 61.4582 45.7259C61.4582 47.5124 59.9856 48.9498 58.2346 48.9498Z" fill="#231F20"/>
<path d="M63.3223 45.3527H64.0807C64.952 45.3527 65.2309 44.8296 65.2309 44.3594C65.2309 43.8018 64.9604 43.3661 64.0807 43.3661H63.3223V45.3527ZM66.1631 48.7768H65.3438L63.9061 46.0408H63.3223V48.7768H62.5907V42.6777H63.7318C64.8123 42.6777 66.0063 42.8084 66.0063 44.3594C66.0063 45.0216 65.6836 45.7271 64.6903 45.9626L66.1631 48.7768Z" fill="#231F20"/>
<path d="M71.3833 43.2397C70.9741 43.2397 70.451 43.5619 70.451 44.1721C70.451 44.6077 70.6953 44.8517 71.1394 45.2438C72.2896 45.1393 72.3157 44.1721 72.3157 44.1721C72.3157 43.6579 71.8977 43.2397 71.3833 43.2397ZM70.8434 45.958C70.2421 46.3417 70.2073 46.8122 70.2073 47.0301C70.2073 47.6919 70.7388 48.2235 71.4011 48.2235C71.8716 48.2235 72.2985 47.9447 72.4902 47.5529L70.8434 45.958ZM72.6816 46.7596C72.9343 45.9932 73.6576 45.4526 74.5114 45.4526V46.1849C73.8495 46.1849 73.3177 46.7164 73.309 47.3783L74.738 48.7811H73.7708L73.0302 48.0579C72.6816 48.6072 72.0717 48.9554 71.4011 48.9554C70.338 48.9554 69.4754 48.0928 69.4754 47.0301C69.4754 46.3678 69.8588 45.845 70.3641 45.4965C69.9285 45.1393 69.7193 44.6771 69.7193 44.1721C69.7193 43.2571 70.4687 42.5078 71.3833 42.5078C72.2985 42.5078 73.0479 43.2571 73.0479 44.1721C73.0479 44.6687 72.7691 45.5052 71.636 45.7315L72.6816 46.7596Z" fill="#231F20"/>
<path d="M78.7797 48.0884H79.5378C80.5921 48.0884 80.9929 47.8273 80.9929 47.0951C80.9929 46.4503 80.5834 46.1018 79.5378 46.1018H78.7797V48.0884ZM79.3635 45.4137C80.1477 45.4137 80.5485 45.161 80.5485 44.394C80.5485 43.8453 80.2348 43.3661 79.3635 43.3661H78.7797V45.4137H79.3635ZM81.7248 47.0951C81.7248 48.6461 80.4443 48.7768 79.1892 48.7768H78.0481V42.6777H79.3635C80.5398 42.6777 81.2892 43.2266 81.2892 44.394C81.2892 44.9864 80.897 45.649 80.5224 45.649C81.1062 45.649 81.7248 46.2848 81.7248 47.0951Z" fill="#231F20"/>
<path d="M82.0716 42.6777H82.943L84.5024 45.0651L86.0708 42.6777H86.9421L84.8687 45.8578V48.7768H84.1364V45.8578L82.0716 42.6777Z" fill="#231F20"/>
<path d="M92.892 47.9011C92.2036 48.694 91.2277 48.9554 90.5132 48.9554C88.7357 48.9554 87.2896 47.509 87.2896 45.7315C87.2896 43.9542 88.7357 42.5078 90.5132 42.5078C91.7592 42.5078 92.526 43.17 92.892 43.5534L92.3692 44.0675C92.0294 43.6929 91.393 43.2397 90.5132 43.2397C89.1365 43.2397 88.0212 44.355 88.0212 45.7315C88.0212 47.1082 89.1365 48.2235 90.5132 48.2235C91.1493 48.2235 91.7244 47.9885 92.1601 47.5961V46.08H92.892V47.9011Z" fill="#231F20"/>
<path d="M99.7183 47.9011C99.0299 48.694 98.054 48.9554 97.3395 48.9554C95.562 48.9554 94.1159 47.509 94.1159 45.7315C94.1159 43.9542 95.562 42.5078 97.3395 42.5078C98.5855 42.5078 99.3523 43.17 99.7183 43.5534L99.1955 44.0675C98.8556 43.6929 98.2196 43.2397 97.3395 43.2397C95.9628 43.2397 94.8475 44.355 94.8475 45.7315C94.8475 47.1082 95.9628 48.2235 97.3395 48.2235C97.9756 48.2235 98.5507 47.9885 98.9864 47.5961V46.08H99.7183V47.9011Z" fill="#231F20"/>
<path d="M104.866 42.6866H105.598V49.1342L101.738 44.4815L101.625 44.2198L101.669 44.4815V48.7856H100.937V42.338L104.797 46.991L104.91 47.2523L104.866 46.991V42.6866Z" fill="#231F20"/>
<path d="M109.048 44.3856L108.203 46.6073H109.963L109.118 44.3856L109.083 44.2114L109.048 44.3856ZM107.95 47.2956L107.384 48.7856H106.643L109.083 42.338L111.522 48.7856H110.782L110.216 47.2956H107.95Z" fill="#231F20"/>
<path d="M114.068 48.0884C115.453 48.0884 116.386 46.9383 116.386 45.7271C116.386 44.5162 115.453 43.3661 114.068 43.3661H113.214V48.0884H114.068ZM112.482 48.7768V42.6777H114.068C115.924 42.6777 117.117 44.0457 117.117 45.7271C117.117 47.4088 115.924 48.7768 114.068 48.7768H112.482Z" fill="#231F20"/>
<path d="M119.067 44.1982C119.067 45.3484 122.029 45.3222 122.029 47.1782C122.029 48.0579 121.358 48.9554 120.112 48.9554C119.032 48.9554 118.335 48.2497 117.987 47.7617L118.501 47.2478C118.919 47.7707 119.285 48.2409 120.112 48.2409C120.88 48.2409 121.254 47.7097 121.254 47.1782C121.254 45.8799 118.292 45.9231 118.292 44.1982C118.292 43.4575 118.98 42.5078 120.208 42.5078C121.071 42.5078 121.341 42.8215 121.724 43.1265L121.211 43.6406C120.784 43.3443 120.618 43.2397 120.156 43.2397C119.459 43.2397 119.067 43.8322 119.067 44.1982Z" fill="#231F20"/>
<path d="M125.047 47.078L125.081 47.2519L125.116 47.078L126.737 42.6777H127.521L125.081 49.1253L122.642 42.6777H123.426L125.047 47.078Z" fill="#231F20"/>
<path d="M129.18 41.7726C129.354 41.7726 129.502 41.6419 129.502 41.4677C129.502 41.2937 129.354 41.1717 129.18 41.1717C129.005 41.1717 128.849 41.2937 128.849 41.4677C128.849 41.6419 129.005 41.7726 129.18 41.7726ZM129.18 40.788C129.554 40.788 129.894 41.093 129.894 41.4677C129.894 41.8423 129.554 42.1473 129.18 42.1473C128.805 42.1473 128.465 41.8423 128.465 41.4677C128.465 41.093 128.805 40.788 129.18 40.788ZM129.144 44.3779L128.3 46.5995H130.06L129.214 44.3779L129.18 44.2037L129.144 44.3779ZM128.047 47.2879L127.48 48.7779H126.74L129.18 42.3302L131.619 48.7779H130.878L130.312 47.2879H128.047Z" fill="#231F20"/>
<path d="M133.305 45.3527H134.064C134.935 45.3527 135.214 44.8296 135.214 44.3594C135.214 43.8018 134.943 43.3661 134.064 43.3661H133.305V45.3527ZM136.146 48.7768H135.327L133.889 46.0408H133.305V48.7768H132.574V42.6777H133.715C134.795 42.6777 135.989 42.8084 135.989 44.3594C135.989 45.0216 135.667 45.7271 134.673 45.9626L136.146 48.7768Z" fill="#231F20"/>
<path d="M138.868 48.0884C140.253 48.0884 141.185 46.9383 141.185 45.7271C141.185 44.5162 140.253 43.3661 138.868 43.3661H138.013V48.0884H138.868ZM137.282 48.7768V42.6777H138.868C140.724 42.6777 141.917 44.0457 141.917 45.7271C141.917 47.4088 140.724 48.7768 138.868 48.7768H137.282Z" fill="#231F20"/>
<path d="M1 46.1385H28.8828" stroke="#231F20" stroke-width="0.5" stroke-miterlimit="16" stroke-linecap="square"/>
<path d="M143.901 46.1385H172.946" stroke="#231F20" stroke-width="0.5" stroke-miterlimit="16" stroke-linecap="square"/>
<path d="M130.541 5.49927H173" stroke="#231F20" stroke-width="0.5" stroke-miterlimit="16" stroke-linecap="square"/>
</svg>
