<?xml version="1.0" encoding="UTF-8" standalone="no"?>
<!DOCTYPE svg PUBLIC "-//W3C//DTD SVG 1.1//EN" "http://www.w3.org/Graphics/SVG/1.1/DTD/svg11.dtd">
<svg width="100%" height="100%" viewBox="0 0 1788 980" version="1.1" xmlns="http://www.w3.org/2000/svg" xmlns:xlink="http://www.w3.org/1999/xlink" xml:space="preserve" xmlns:serif="http://www.serif.com/" style="fill-rule:evenodd;clip-rule:evenodd;stroke-linejoin:round;stroke-miterlimit:2;">
    <g transform="matrix(4.16667,0,0,4.16667,0,0)">
        <path d="M0.97,172.751L6.69,172.751L6.69,194.58L18.047,194.58L18.047,199.615L0.97,199.615L0.97,172.751Z" style="fill:rgb(35,31,32);fill-rule:nonzero;"/>
        <path d="M30.085,172.751L49.094,172.751L49.094,177.786L35.803,177.786L35.803,183.465L48.813,183.465L48.813,188.5L35.803,188.5L35.803,194.58L49.094,194.58L49.094,199.615L30.085,199.615L30.085,172.751Z" style="fill:rgb(35,31,32);fill-rule:nonzero;"/>
        <path d="M61.695,193.091C62.742,194.098 64.111,195.025 65.964,195.025C68.501,195.025 70.152,193.332 70.152,190.713L70.152,172.751L75.872,172.751L75.872,190.794C75.872,197.158 71.925,200.099 66.407,200.099C63.708,200.099 61.13,199.374 59.198,197.481L61.695,193.091Z" style="fill:rgb(35,31,32);fill-rule:nonzero;"/>
        <path d="M101.966,177.383C97.012,177.383 93.83,181.169 93.83,186.203C93.83,191.198 97.012,195.025 101.966,195.025C106.92,195.025 110.142,191.198 110.142,186.203C110.142,181.169 106.92,177.383 101.966,177.383ZM101.966,172.308C110.103,172.308 116.023,178.109 116.023,186.203C116.023,194.299 110.103,200.099 101.966,200.099C93.871,200.099 87.951,194.299 87.951,186.203C87.951,178.109 93.871,172.308 101.966,172.308Z" style="fill:rgb(35,31,32);fill-rule:nonzero;"/>
        <path d="M133.817,182.095L133.817,199.615L128.099,199.615L128.099,172.751L133.978,172.751L146.424,189.627L146.424,172.751L152.143,172.751L152.143,199.615L146.626,199.615L133.817,182.095Z" style="fill:rgb(35,31,32);fill-rule:nonzero;"/>
        <path d="M166.797,191.479C168.689,193.453 171.629,195.105 175.334,195.105C178.476,195.105 180.008,193.655 180.008,192.124C180.008,190.151 177.511,189.586 174.569,188.862C170.179,187.854 164.542,186.646 164.542,180.525C164.542,176.054 168.408,172.349 174.73,172.349C179,172.349 182.544,173.638 185.202,176.094L182.02,180.282C179.846,178.27 176.946,177.343 174.207,177.343C171.751,177.343 170.381,178.43 170.381,180.041C170.381,181.772 172.837,182.337 175.738,183.022C180.169,184.069 185.807,185.399 185.807,191.479C185.807,196.393 182.302,200.099 175.053,200.099C169.898,200.099 166.193,198.366 163.696,195.829L166.797,191.479Z" style="fill:rgb(35,31,32);fill-rule:nonzero;"/>
        <path d="M239.445,180.807L231.874,199.615L229.377,199.615L221.805,180.807L221.805,199.615L216.085,199.615L216.085,172.751L224.099,172.751L230.624,188.982L237.149,172.751L245.204,172.751L245.204,199.615L239.445,199.615L239.445,180.807Z" style="fill:rgb(35,31,32);fill-rule:nonzero;"/>
        <path d="M271.215,168.28C271.215,166.791 272.423,165.583 273.955,165.583C275.444,165.583 276.693,166.791 276.693,168.28C276.693,169.811 275.444,171.019 273.955,171.019C272.423,171.019 271.215,169.811 271.215,168.28ZM265.497,190.029L273.872,190.029L269.685,178.471L265.497,190.029ZM262.675,168.28C262.675,166.791 263.884,165.583 265.415,165.583C266.945,165.583 268.153,166.791 268.153,168.28C268.153,169.811 266.945,171.019 265.415,171.019C263.884,171.019 262.675,169.811 262.675,168.28ZM275.444,195.064L263.925,195.064L262.233,199.615L255.71,199.615L266.101,172.751L273.268,172.751L283.619,199.615L277.095,199.615L275.444,195.064Z" style="fill:rgb(35,31,32);fill-rule:nonzero;"/>
        <path d="M301.979,188.862L299.882,191.359L299.882,199.615L294.164,199.615L294.164,172.751L299.882,172.751L299.882,184.753L309.39,172.751L316.437,172.751L305.766,185.358L317.164,199.615L310.114,199.615L301.979,188.862Z" style="fill:rgb(35,31,32);fill-rule:nonzero;"/>
        <path d="M327.829,172.751L333.547,172.751L333.547,194.58L344.907,194.58L344.907,199.615L327.829,199.615L327.829,172.751Z" style="fill:rgb(35,31,32);fill-rule:nonzero;"/>
        <path d="M356.945,172.751L375.953,172.751L375.953,177.786L362.663,177.786L362.663,183.465L375.672,183.465L375.672,188.5L362.663,188.5L362.663,194.58L375.953,194.58L375.953,199.615L356.945,199.615L356.945,172.751Z" style="fill:rgb(35,31,32);fill-rule:nonzero;"/>
        <path d="M400.196,177.786L394.193,177.786L394.193,185.035L400.196,185.035C402.492,185.035 404.222,183.665 404.222,181.41C404.222,179.155 402.492,177.786 400.196,177.786ZM398.384,190.07L394.193,190.07L394.193,199.615L388.475,199.615L388.475,172.751L401.04,172.751C406.639,172.751 410.063,176.416 410.063,181.41C410.063,186.163 407.081,188.7 404.184,189.385L410.225,199.615L403.659,199.615L398.384,190.07Z" style="fill:rgb(35,31,32);fill-rule:nonzero;"/>
        <rect x="422.421" y="172.751" width="5.715" height="26.864" style="fill:rgb(35,31,32);fill-rule:nonzero;"/>
        <path d="M209.821,28.993C209.821,28.993 215.301,17.589 211.082,12.717C208.236,9.431 198.532,12.963 198.532,12.963L199.341,16.488C199.471,17.054 200.068,17.38 200.615,17.181C200.615,17.181 202.01,14.423 202.897,14.017C204.252,13.397 207.488,13.397 208.182,14.77C209.733,17.841 203.575,28.993 203.575,28.993L209.821,28.993Z" style="fill:rgb(179,152,117);fill-rule:nonzero;"/>
        <path d="M262.853,58.607C262.853,58.607 255.132,40.788 250.422,36.564C243.817,30.642 225.908,21.242 217.798,22.597C215.955,22.904 214.642,29.372 214.642,29.372L223.781,35.916C223.781,35.916 214.782,31.739 211.815,32.643C210.405,33.073 207.394,37.764 208.993,37.822C214.136,38.012 223.104,48.56 223.104,48.56C223.104,48.56 211.675,43.055 209.445,45.286C207.582,47.149 209.445,69.218 209.445,69.218C209.445,69.218 203.946,49.84 202.242,53.527C199.736,58.945 181.11,59.732 175.805,70.798C173.638,75.319 177.213,84.489 173.095,90.666C170.838,94.053 180.207,83.554 180.207,83.554C180.207,83.554 182.473,103.02 183.819,109.405C189.577,136.724 207.751,142.029 207.751,142.029L206.961,129.386C206.961,129.386 196.776,119.126 196.462,105.342C196.167,92.359 206.187,83.328 206.187,83.328C206.187,83.328 200.599,103.43 201.881,110.083C203.687,119.452 211.928,128.483 211.928,128.483C211.928,128.483 219.697,118.006 219.04,114.033C218.306,109.598 213.734,108.728 215.992,96.31C217.232,89.491 223.801,76.824 218.162,68.672C216.192,65.825 219.265,53.414 219.265,53.414C219.265,53.414 223.983,68.432 224.007,73.621C224.041,81.297 219.153,95.52 219.153,95.52C219.153,95.52 217.234,110.873 225.023,109.744C229.302,109.124 225.926,92.472 225.926,92.472C225.926,92.472 232.02,95.954 233.602,94.73C241.774,88.403 232.248,53.414 232.248,53.414C232.248,53.414 239.637,59.971 241.632,62.572C245.588,67.73 246.358,76.894 246.358,76.894C246.358,76.894 256.179,69.105 251.325,51.495C250.426,48.23 262.853,58.607 262.853,58.607Z" style="fill:rgb(179,152,117);fill-rule:nonzero;"/>
        <path d="M217.2,14.92L217.2,20.814C217.2,20.814 227.934,22.089 231.169,23.217C234.441,24.358 243.649,29.247 243.649,29.247C243.649,29.247 247.374,24.684 239.585,17.968C235.42,14.376 217.2,14.92 217.2,14.92Z" style="fill:rgb(179,152,117);fill-rule:nonzero;"/>
        <path d="M212.678,8.598C212.678,8.598 215.507,12.211 216.895,12.211C223.047,12.211 239.247,13.397 239.247,13.397C239.247,13.397 228.442,6.624 224.345,5.77C215.709,3.97 212.678,8.598 212.678,8.598Z" style="fill:rgb(179,152,117);fill-rule:nonzero;"/>
        <path d="M209.557,8.542C209.557,1.765 216.782,1.374 216.782,1.374C216.782,1.374 212.575,0.848 208.201,0.803L207.054,0.803C203.68,0.839 200.415,1.214 199.116,2.39C197.722,3.65 197.817,10.388 197.817,10.388C197.817,10.388 209.557,9.275 209.557,8.542Z" style="fill:rgb(179,152,117);fill-rule:nonzero;"/>
        <path d="M194.544,6.206C191.723,5.317 186.179,14.57 186.179,14.57L194.934,11.317C194.934,11.317 195.781,6.596 194.544,6.206Z" style="fill:rgb(179,152,117);fill-rule:nonzero;"/>
        <path d="M187.545,31.176C186.353,31.453 182.653,31.176 182.653,31.176C182.653,31.176 185.629,27.82 187.018,27.487C188.371,27.164 192.437,28.768 192.437,28.768C192.437,28.768 188.872,30.867 187.545,31.176ZM205.456,31.627C205.078,29.001 197.507,30.526 196.068,29.51C194.599,28.473 198.613,24.507 200.227,23.007C200.604,22.656 200.705,22.1 200.477,21.639L195.629,13.733C195.421,13.394 194.974,13.294 194.641,13.513L181.004,22.458C180.443,22.826 180,23.35 179.728,23.964L177.765,28.418C177.665,28.644 177.498,28.831 177.285,28.955C175.697,29.881 168.774,33.992 167.074,36.293C166.697,36.805 166.269,38.709 166.269,38.709C166.22,38.859 166.321,39.017 166.479,39.034L171.725,39.574C171.853,39.588 171.908,39.744 171.817,39.835L169.392,42.26L169.073,44.289C169.057,44.392 168.928,44.427 168.862,44.348L168.017,43.326C167.904,43.19 167.683,43.246 167.65,43.42C167.65,43.42 166.752,46.81 167.169,47.92C167.535,48.894 169.447,50.278 169.938,50.621C169.996,50.661 170.074,50.633 170.094,50.567L170.233,49.661C170.233,49.646 171.271,49.62 171.285,49.623C171.285,49.623 174.47,51.451 176.068,51.928C178.084,52.529 184.423,52.927 184.423,52.927C184.455,52.936 184.446,52.983 184.414,52.981C184.414,52.981 178.464,53.772 176.294,53.621C174.965,53.529 170.968,52.381 169.804,52.041C169.707,52.013 169.464,53.554 169.511,54.063C169.821,57.393 172.623,60.255 176.105,59.651C182.724,58.503 199.736,49.741 199.736,46.49C199.736,32.333 191.411,34.76 191.411,34.76C191.411,34.76 196.066,29.876 200.922,34.731C202.377,36.186 202.516,45.208 202.529,47.325C202.531,47.515 202.743,47.626 202.901,47.519L205.873,45.507C206.081,45.366 206.2,45.127 206.186,44.876C206.186,44.876 205.691,33.264 205.456,31.627Z" style="fill:rgb(179,152,117);fill-rule:nonzero;"/>
        <rect x="0.97" y="229.894" width="427.166" height="4.35" style="fill:rgb(179,152,117);fill-rule:nonzero;"/>
    </g>
</svg>
