<svg width="270" height="145" xmlns="http://www.w3.org/2000/svg">
  <g fill="#111" fill-rule="evenodd">
    <path d="M7.28 89.555c-1.724 2.748-3.003 5.595-3.829 8.543-.825 2.951-1.204 5.875-1.132 8.777a25.77 25.77 0 0 0 1.618 8.41 22.951 22.951 0 0 0 4.314 7.242 22.346 22.346 0 0 0 7.062 5.314c2.695 1.296 5.568 2.171 8.625 2.627 3.053.454 6.198.539 9.434.254a42.699 42.699 0 0 0 9.38-1.896c6.469-2.011 12.219-5.292 17.253-9.842a66.498 66.498 0 0 0 12.723-15.601c2.225-3.676 3.807-7.516 4.742-11.522a43.23 43.23 0 0 0 1.079-6.344c.216-2.22-.107-4.208-.97-5.963-.792-1.763-2.121-2.807-3.989-3.135a16.35 16.35 0 0 0-5.608-.009c-1.44.264-2.875.635-4.312 1.114a52.93 52.93 0 0 0-4.314 1.653l-3.234 1.722-.108.015c-.288.038-.468-.045-.536-.252 0-.143.105-.3.322-.474v-.108a.495.495 0 0 0 .322-.151c.359-.265.88-.548 1.565-.855a20.714 20.714 0 0 1 2.209-.834 46.61 46.61 0 0 0 6.794-4.623 64.406 64.406 0 0 0 6.038-5.602c2.225-2.451 4.202-5.194 5.929-8.228 1.724-3.033 2.587-6.167 2.587-9.401a14.725 14.725 0 0 0-1.723-7.372c-1.224-2.318-2.914-4.051-5.069-5.202-2.731-1.431-5.769-1.909-9.111-1.429-3.344.482-6.522 1.317-9.541 2.51a57.095 57.095 0 0 0-8.949 4.424 62.968 62.968 0 0 0-8.196 5.943c-2.732 2.378-5.122 4.924-7.17 7.64a70.768 70.768 0 0 0-5.661 8.839 111.405 111.405 0 0 0-5.822 12.203 18.177 18.177 0 0 1 5.5-.73c2.299.197 4.328.97 6.09 2.316a15.826 15.826 0 0 1 4.262 4.931c.141.199.086.385-.164.563-.252.176-.449.13-.593-.139a6.137 6.137 0 0 0-.431-.695 5.885 5.885 0 0 1-.432-.699 14.116 14.116 0 0 0-2.911-3.172c-2.587-1.954-5.463-2.65-8.626-2.086-1.007.136-2.049.38-3.127.741-.36 1.054-.719 2.088-1.077 3.106a270.32 270.32 0 0 0-1.079 3.11 95.14 95.14 0 0 0-2.588 10.046c-.718 3.546-.645 6.846.217 9.894.43 1.38 1.076 2.534 1.94 3.461a7.105 7.105 0 0 0 3.073 1.965c1.187.38 2.48.513 3.882.397 1.401-.115 2.784-.549 4.15-1.305 2.948-1.613 5.462-3.818 7.546-6.612a92.788 92.788 0 0 0 5.609-8.402 106.002 106.002 0 0 0 4.906-9.331 186.675 186.675 0 0 0 4.152-9.665 84.75 84.75 0 0 0 1.993-4.848c.61-1.625 1.204-3.268 1.779-4.925a140.226 140.226 0 0 0 1.618-4.96 58.993 58.993 0 0 0 1.293-5.025c.072-.152.217-.28.432-.381.216-.098.359.026.43.375a20.996 20.996 0 0 1-.377 4.956 65.081 65.081 0 0 1-1.131 4.841c-.36 1.7-.808 3.361-1.347 4.976-.54 1.618-1.096 3.22-1.673 4.804a110.062 110.062 0 0 1-4.15 9.45 105.04 105.04 0 0 1-5.122 9.145 88.465 88.465 0 0 1-6.038 8.352c-2.229 2.74-4.744 5.015-7.548 6.827a16.918 16.918 0 0 1-3.988 1.931c-1.44.478-2.842.701-4.205.667a9.385 9.385 0 0 1-3.829-.892c-1.186-.56-2.175-1.471-2.965-2.733-.792-1.257-1.312-2.681-1.563-4.266a20.312 20.312 0 0 1-.162-4.938c.142-1.708.395-3.411.757-5.114a67.647 67.647 0 0 1 1.185-4.793 141.04 141.04 0 0 1 1.562-5.008 65.11 65.11 0 0 1 1.887-4.941c-2.443.972-4.673 2.385-6.684 4.232a30.389 30.389 0 0 0-5.175 6.187M.702 108.006c-.289-4.562.538-9.11 2.48-13.646a31.646 31.646 0 0 1 8.517-11.645c2.517-2.204 5.139-3.738 7.871-4.607a95.812 95.812 0 0 1 1.835-4.286 420.756 420.756 0 0 1 1.939-4.195 174.555 174.555 0 0 1 5.015-8.914 46.474 46.474 0 0 1 6.307-8.226 58.559 58.559 0 0 1 7.709-6.74 74.871 74.871 0 0 1 8.679-5.469c2.804-1.451 5.839-2.663 9.113-3.638 3.268-.973 6.432-1.412 9.486-1.316 3.056.098 5.841.823 8.357 2.177 2.515 1.354 4.385 3.674 5.606 6.962 1.148 3.082 1.311 6.117.485 9.1-.827 2.986-2.194 5.829-4.097 8.524-1.906 2.699-4.17 5.176-6.792 7.428-2.624 2.254-5.159 4.227-7.602 5.918l-2.693 1.652.428-.057a46.931 46.931 0 0 1 4.853-1.456 15.524 15.524 0 0 1 4.958-.39c1.582.08 2.914.513 3.993 1.3a7.859 7.859 0 0 1 2.478 3.015c.576 1.219.953 2.551 1.131 4 .18 1.449.2 2.904.055 4.36-.362 3.213-1.152 6.39-2.371 9.536a47.75 47.75 0 0 1-4.69 9.033 60.4 60.4 0 0 1-6.471 8.138c-2.408 2.55-4.942 4.79-7.602 6.727-5.606 4.197-11.609 7.097-18.006 8.705-6.396 1.606-12.759 1.965-19.084 1.082-2.948-.399-5.678-1.184-8.193-2.36a21.978 21.978 0 0 1-6.685-4.825c-2.085-2.022-3.722-4.411-4.906-7.163a26.657 26.657 0 0 1-2.103-8.724"/>
    <path d="M73.032 36.422a14.83 14.83 0 0 1 1.743.774c2.275 1.216 4.077 3.063 5.361 5.494a15.493 15.493 0 0 1 1.804 7.714c0 3.321-.902 6.6-2.679 9.726-1.746 3.068-3.771 5.878-6.02 8.353-.162.17-.324.341-.489.51l.006-.006c2.566-2.204 4.815-4.661 6.679-7.302 1.848-2.618 3.193-5.414 3.994-8.306.783-2.826.626-5.743-.466-8.673-1.156-3.111-2.935-5.328-5.286-6.593-1.445-.778-3-1.343-4.647-1.691M57.096 58.498a75.23 75.23 0 0 1-.74 2.608 147.014 147.014 0 0 1-1.624 4.984 226.108 226.108 0 0 1-1.787 4.942 85.408 85.408 0 0 1-2.01 4.886 186.865 186.865 0 0 1-4.155 9.676 107.979 107.979 0 0 1-4.938 9.392 94.085 94.085 0 0 1-5.602 8.4c.419-.462.83-.94 1.229-1.429a88.172 88.172 0 0 0 5.991-8.287 104.91 104.91 0 0 0 5.085-9.08 110.358 110.358 0 0 0 4.124-9.39c.57-1.568 1.124-3.163 1.661-4.775a44.435 44.435 0 0 0 1.327-4.9 65.468 65.468 0 0 0 1.13-4.831c.142-.728.245-1.462.309-2.196m18.813 18.048c.993.611 1.764 1.522 2.304 2.722.906 1.843 1.255 3.975 1.027 6.315a44.053 44.053 0 0 1-1.095 6.444c-.945 4.052-2.569 7.998-4.824 11.715a67.436 67.436 0 0 1-12.849 15.755 47.135 47.135 0 0 1-3.315 2.738c.71-.482 1.412-.98 2.105-1.5 2.625-1.91 5.149-4.144 7.515-6.648a60.074 60.074 0 0 0 6.395-8.046 47.103 47.103 0 0 0 4.622-8.902 37.475 37.475 0 0 0 2.328-9.36 19.136 19.136 0 0 0-.052-4.197c-.17-1.367-.53-2.642-1.072-3.787a7.171 7.171 0 0 0-2.261-2.75 5.384 5.384 0 0 0-.828-.499M5.136 91.923c-.478.877-.917 1.78-1.314 2.712-1.892 4.415-2.707 8.899-2.426 13.328a26.072 26.072 0 0 0 2.047 8.492 21.552 21.552 0 0 0 3.721 5.864 23.745 23.745 0 0 1-3.879-6.793 26.56 26.56 0 0 1-1.661-8.633c-.073-2.958.316-5.981 1.158-8.983a32.352 32.352 0 0 1 2.354-5.987m12.693-11.441a21.39 21.39 0 0 0-4.905 3.398 29.877 29.877 0 0 0-5.057 6.047c-1.685 2.683-2.946 5.495-3.747 8.358-.804 2.871-1.177 5.755-1.106 8.572a25.126 25.126 0 0 0 1.575 8.184 22.355 22.355 0 0 0 4.183 7.027 21.772 21.772 0 0 0 6.842 5.147 29.397 29.397 0 0 0 8.428 2.565c1.831.275 3.725.413 5.628.413 1.195 0 2.419-.056 3.642-.164a42.232 42.232 0 0 0 9.225-1.862 45.161 45.161 0 0 0 17.003-9.701 66.033 66.033 0 0 0 12.588-15.437c2.183-3.602 3.752-7.41 4.665-11.327.499-1.988.856-4.09 1.064-6.253.202-2.08-.1-3.961-.902-5.589-.707-1.574-1.845-2.469-3.486-2.756a15.725 15.725 0 0 0-5.371-.009 31.344 31.344 0 0 0-4.207 1.088 52.422 52.422 0 0 0-4.259 1.631l-3.183 1.699a.646.646 0 0 1-.236.075c-.184.024-.259.03-.328.03-.515 0-.914-.276-1.067-.735a.657.657 0 0 1-.036-.221c0-.314.145-.61.431-.885.102-.187.267-.341.463-.38a.248.248 0 0 1 .036-.028c.4-.295.954-.598 1.691-.928a21.169 21.169 0 0 1 2.216-.842 46.077 46.077 0 0 0 6.631-4.521 63.688 63.688 0 0 0 5.971-5.541c2.171-2.388 4.137-5.115 5.832-8.094 1.656-2.914 2.498-5.962 2.498-9.057a14.152 14.152 0 0 0-1.645-7.048c-1.151-2.18-2.759-3.833-4.781-4.914-2.584-1.354-5.512-1.809-8.686-1.353a41.813 41.813 0 0 0-9.385 2.468 56.614 56.614 0 0 0-8.842 4.372 62.772 62.772 0 0 0-8.105 5.876c-2.677 2.329-5.055 4.865-7.067 7.531a70.36 70.36 0 0 0-5.606 8.752 112.485 112.485 0 0 0-5.264 10.862 18.846 18.846 0 0 1 3.957-.418l.388.003c2.465.21 4.636 1.036 6.5 2.457a16.607 16.607 0 0 1 4.446 5.148c.173.233.181.52.15.707-.049.295-.226.551-.522.759a1.16 1.16 0 0 1-.674.233c-.182 0-.636-.058-.931-.61a5.98 5.98 0 0 0-.378-.613 6.408 6.408 0 0 1-.484-.781 13.565 13.565 0 0 0-2.734-2.958c-2.398-1.812-5.115-2.471-8.068-1.944a16.23 16.23 0 0 0-2.706.61c-.323.944-.644 1.871-.966 2.785-.36 1.016-.718 2.051-1.074 3.101-.995 3.11-1.858 6.465-2.565 9.962-.694 3.418-.626 6.635.201 9.565.394 1.257.994 2.335 1.782 3.178a6.466 6.466 0 0 0 2.777 1.776c1.095.351 2.308.472 3.613.367 1.296-.108 2.597-.519 3.87-1.222 2.846-1.559 5.311-3.717 7.326-6.419a92.566 92.566 0 0 0 5.566-8.338 106.591 106.591 0 0 0 4.875-9.271 187.923 187.923 0 0 0 4.136-9.629 84.915 84.915 0 0 0 1.989-4.836c.607-1.62 1.2-3.257 1.773-4.91a143.422 143.422 0 0 0 1.609-4.935 58.36 58.36 0 0 0 1.278-4.965.709.709 0 0 1 .052-.151c.141-.302.397-.542.76-.714.094-.044.329-.1.433-.1.182 0 .795.07.979.962a21.643 21.643 0 0 1-.376 5.23 66.547 66.547 0 0 1-1.144 4.892 45.936 45.936 0 0 1-1.358 5.012c-.542 1.625-1.1 3.23-1.679 4.822a112.233 112.233 0 0 1-4.179 9.521 106.69 106.69 0 0 1-5.157 9.206 90.002 90.002 0 0 1-6.088 8.42c-2.265 2.783-4.858 5.131-7.71 6.971a17.66 17.66 0 0 1-4.145 2.009c-1.412.469-2.809.706-4.156.706l-.287-.003a10.147 10.147 0 0 1-4.108-.96c-1.302-.614-2.397-1.618-3.257-2.991-.837-1.331-1.397-2.856-1.66-4.526a21.14 21.14 0 0 1-.169-5.108c.145-1.724.403-3.471.769-5.198.356-1.691.759-3.32 1.198-4.841a141.728 141.728 0 0 1 1.57-5.033c.37-1.111.785-2.241 1.237-3.378m11.509 51.761c-2.276 0-4.577-.159-6.846-.476-3-.407-5.825-1.222-8.392-2.417a22.86 22.86 0 0 1-6.893-4.978c-2.122-2.054-3.824-4.544-5.04-7.368a27.383 27.383 0 0 1-2.158-8.949c-.295-4.652.557-9.352 2.533-13.97a32.492 32.492 0 0 1 8.703-11.896c2.478-2.17 5.103-3.731 7.801-4.641.545-1.351 1.126-2.7 1.725-4.016a517.27 517.27 0 0 1 1.944-4.199 176.519 176.519 0 0 1 5.047-8.978 47.447 47.447 0 0 1 6.401-8.349 59.62 59.62 0 0 1 7.802-6.821 76.011 76.011 0 0 1 8.759-5.518c2.842-1.47 5.947-2.711 9.243-3.693 3.325-.99 6.587-1.442 9.708-1.344 3.15.1 6.065.86 8.665 2.258 2.655 1.43 4.65 3.897 5.928 7.333 1.196 3.209 1.366 6.416.503 9.528-.844 3.048-2.257 5.988-4.2 8.739-1.928 2.733-4.254 5.275-6.907 7.555a98.482 98.482 0 0 1-6.347 5.034c.239-.063.477-.123.718-.18a16.217 16.217 0 0 1 5.181-.408c1.689.084 3.158.567 4.343 1.435a8.577 8.577 0 0 1 2.697 3.276c.604 1.281 1.005 2.697 1.193 4.211.186 1.5.204 3.019.057 4.515a38.866 38.866 0 0 1-2.417 9.718 48.558 48.558 0 0 1-4.758 9.165 61.106 61.106 0 0 1-6.544 8.232c-2.423 2.566-5.013 4.857-7.698 6.812-5.643 4.222-11.784 7.191-18.245 8.815-4.163 1.047-8.37 1.575-12.506 1.575M91.057 80.348c-2.085 2.649-3.703 5.453-4.852 8.409a35.24 35.24 0 0 0-1.672 4.643c-.467 1.642-.629 3.21-.486 4.701.146.916.451 1.578.917 1.98a2.611 2.611 0 0 0 1.673.642c.646.021 1.347-.126 2.102-.442a11.378 11.378 0 0 0 2.103-1.144 17.734 17.734 0 0 0 3.126-3.056 25.49 25.49 0 0 0 2.481-3.727 44.015 44.015 0 0 0 1.939-4.034 168.258 168.258 0 0 0 1.617-3.986 49.582 49.582 0 0 0 1.349-4.548c.394-1.596.628-3.118.701-4.568a7.17 7.17 0 0 0-.27-1.85c-.181-.658-.63-1.011-1.347-1.061-.719-.047-1.401.152-2.05.596-.214.103-.557.344-1.023.73-.47.386-.81.521-1.026.405-.36-.095-.468-.242-.323-.441.143-.198.36-.407.648-.626a4.85 4.85 0 0 1 .915-.552c.326-.151.522-.231.595-.241a8.909 8.909 0 0 1 2.21-.834c.755-.171 1.418-.008 1.993.489 1.149.856 1.78 2.173 1.888 3.954.107 1.783.053 3.373-.162 4.765-.36 2.85-1.331 5.714-2.913 8.582-1.581 2.871-3.413 5.38-5.498 7.525a21.733 21.733 0 0 1-3.556 3.063 12.106 12.106 0 0 1-4.206 1.852c-1.725.375-2.966.054-3.72-.959-.755-1.013-1.06-2.322-.917-3.923a21.437 21.437 0 0 1 1.025-4.936 33.78 33.78 0 0 1 1.994-4.738 54.486 54.486 0 0 1 2.534-4.434 32.892 32.892 0 0 1 3.072-4.077c1.438-1.701 2.949-3.014 4.531-3.944.862-.474 1.652-.759 2.369-.855.288.034.45.194.488.474.035.285-.126.449-.488.498-1.507.129-2.928.803-4.256 2.022a37.038 37.038 0 0 0-3.505 3.646"/>
    <path d="M102.202 72.584c.108.178.192.378.253.6.196.721.295 1.406.295 2.034a24.87 24.87 0 0 1-.721 4.733c-.4 1.615-.86 3.166-1.367 4.614a173.831 173.831 0 0 1-1.634 4.025 45.164 45.164 0 0 1-1.969 4.099 26.388 26.388 0 0 1-2.547 3.826 18.994 18.994 0 0 1-1.646 1.803 21.66 21.66 0 0 0 2.322-2.134c2.037-2.099 3.85-4.582 5.395-7.384 1.529-2.776 2.481-5.58 2.831-8.335.209-1.353.262-2.905.157-4.636-.086-1.447-.536-2.512-1.369-3.245m-2.83.575c.341.177.564.503.622.929.066.52-.181 1.161-1.084 1.28-1.376.119-2.67.738-3.879 1.845a36.627 36.627 0 0 0-3.439 3.577c-2.022 2.571-3.62 5.34-4.739 8.218a35.08 35.08 0 0 0-1.652 4.585c-.44 1.552-.596 3.048-.462 4.441.114.705.344 1.232.68 1.522a1.91 1.91 0 0 0 1.241.471h.01c.615 0 1.188-.13 1.8-.387a10.9 10.9 0 0 0 1.977-1.075 17.13 17.13 0 0 0 2.98-2.918 24.91 24.91 0 0 0 2.41-3.625 43.637 43.637 0 0 0 1.91-3.968 165.565 165.565 0 0 0 1.612-3.975c.484-1.38.932-2.888 1.321-4.46.383-1.553.612-3.045.682-4.434a6.561 6.561 0 0 0-.248-1.636c-.086-.313-.236-.515-.724-.549l-.158-.005c-.296 0-.58.054-.86.164m-12.73 29.262c-1.297 0-2.303-.47-2.989-1.394-.856-1.146-1.209-2.627-1.051-4.396.148-1.728.506-3.44 1.057-5.093a35.023 35.023 0 0 1 2.033-4.837 56.7 56.7 0 0 1 2.567-4.492 33.728 33.728 0 0 1 3.138-4.161c1.289-1.524 2.664-2.771 4.092-3.707a.875.875 0 0 1-.18-.298c-.059-.164-.117-.494.145-.855.183-.253.442-.506.79-.771.328-.249.678-.46 1.042-.63.33-.152.514-.225.638-.264a9.645 9.645 0 0 1 2.305-.857c.976-.223 1.861 0 2.604.641 1.277.948 2.006 2.452 2.125 4.437.111 1.83.054 3.485-.167 4.915-.368 2.911-1.376 5.884-2.992 8.811-1.604 2.912-3.489 5.493-5.607 7.674a22.685 22.685 0 0 1-3.662 3.15 12.876 12.876 0 0 1-4.446 1.958 6.867 6.867 0 0 1-1.442.169"/>
    <path d="M164.481 41.357a46.838 46.838 0 0 0 4.153-9.339c1.04-3.265 1.525-6.511 1.456-9.737a35.8 35.8 0 0 0-.541-4.617c-.287-1.579-.828-2.964-1.616-4.152-.864-1.322-1.995-2.16-3.398-2.514-1.401-.352-2.894-.279-4.475.218-3.018.833-5.875 2.33-8.573 4.484-2.694 2.157-5.158 4.389-7.383 6.698a80.424 80.424 0 0 0-6.685 7.682 124.47 124.47 0 0 0-5.932 8.444 126.994 126.994 0 0 0-5.228 9.16 187.365 187.365 0 0 0-4.582 9.506c-.65 1.379-1.295 2.76-1.941 4.139a110.056 110.056 0 0 0-1.834 4.125c2.588.591 5.246.866 7.978.825 2.731-.04 5.353-.37 7.872-.992 3.091-.699 6.127-1.804 9.11-3.316a49.494 49.494 0 0 0 8.465-5.439 53.435 53.435 0 0 0 7.331-7.067 56.41 56.41 0 0 0 5.823-8.108m6.468-21.345c.288 3.195.035 6.392-.753 9.587a44.417 44.417 0 0 1-3.451 9.301c-3.016 5.792-7.025 10.999-12.021 15.616-4.997 4.62-10.514 8.014-16.551 10.182a36.77 36.77 0 0 1-10.243 2.225c-3.524.253-6.972.03-10.351-.67-.718 1.75-1.437 3.498-2.156 5.246a162.703 162.703 0 0 0-2.048 5.233 155.01 155.01 0 0 0-2.805 7.542 274.976 274.976 0 0 1-2.695 7.531l-1.186 3.391-.972 2.717c-.142.164-.231.408-.268.736-.035.329-.162.581-.377.752-.575.29-.843.185-.809-.326.038-.505.091-.872.163-1.097a211.273 211.273 0 0 1 3.72-13.596c1.4-4.535 2.926-9.033 4.58-13.495l1.941-5.326a28.939 28.939 0 0 1-6.198-2.786 25.108 25.108 0 0 1-5.23-4.211 61.068 61.068 0 0 1-1.293-1.606 30.093 30.093 0 0 1-1.187-1.622 2.206 2.206 0 0 0-.38-.651c-.174-.227-.229-.453-.158-.679.143-.306.322-.474.538-.503.217-.028.395.056.539.252 1.439 2.757 3.343 5.019 5.715 6.787 2.372 1.769 5.067 3.138 8.087 4.099a185.73 185.73 0 0 1 6.254-14.202 111.435 111.435 0 0 1 7.87-13.554 111.355 111.355 0 0 1 6.254-8.111 87.195 87.195 0 0 1 7.117-7.47 105.455 105.455 0 0 1 7.871-6.599c2.803-2.134 5.819-3.668 9.056-4.602 1.581-.427 3.127-.541 4.636-.348a6.536 6.536 0 0 1 3.881 1.909c1.008 1.09 1.708 2.38 2.105 3.872.393 1.494.662 2.984.805 4.476"/>
    <path d="M118.872 64.951a32.99 32.99 0 0 0 6.482.637l.516-.004a34.25 34.25 0 0 0 7.716-.972c3.037-.686 6.048-1.783 8.963-3.261a48.978 48.978 0 0 0 8.345-5.362 53.248 53.248 0 0 0 7.238-6.976 56.431 56.431 0 0 0 5.751-8.009 46.32 46.32 0 0 0 4.089-9.199c1.01-3.174 1.491-6.374 1.423-9.509a34.951 34.951 0 0 0-.531-4.508c-.267-1.475-.776-2.785-1.512-3.892-.772-1.184-1.748-1.912-2.987-2.224-1.269-.318-2.648-.25-4.096.207-2.934.811-5.734 2.277-8.346 4.364-2.667 2.133-5.13 4.366-7.319 6.637a80.131 80.131 0 0 0-6.632 7.623 124.157 124.157 0 0 0-5.899 8.397 128.002 128.002 0 0 0-5.198 9.103 189.495 189.495 0 0 0-4.564 9.47l-1.944 4.15a108.885 108.885 0 0 0-1.495 3.328m-3.56.352a.703.703 0 0 1 .008.497l-1.942 5.325a260.466 260.466 0 0 0-4.568 13.463 210.57 210.57 0 0 0-3.276 11.781l1.685-4.796a277.346 277.346 0 0 0 2.693-7.523 155.617 155.617 0 0 1 2.817-7.577 167.14 167.14 0 0 1 2.051-5.238l2.156-5.246a.684.684 0 0 1 .299-.34.696.696 0 0 1 .029-.463 108.652 108.652 0 0 1 1.842-4.152l1.943-4.141a188.582 188.582 0 0 1 4.593-9.528 128.977 128.977 0 0 1 5.256-9.21 126.447 126.447 0 0 1 5.969-8.498 82.367 82.367 0 0 1 6.741-7.748 78.647 78.647 0 0 1 7.447-6.752c.186-.15.376-.296.565-.44a26.55 26.55 0 0 0-.733.541 105.026 105.026 0 0 0-7.821 6.557 87.233 87.233 0 0 0-7.057 7.408 111.986 111.986 0 0 0-6.217 8.06 111.455 111.455 0 0 0-7.813 13.462 185.744 185.744 0 0 0-6.232 14.149.7.7 0 0 1-.435.409m-10.748 34.953a.976.976 0 0 1-.72-.301c-.209-.225-.302-.536-.274-.926.045-.585.106-.985.195-1.262a212.256 212.256 0 0 1 3.716-13.59 261.243 261.243 0 0 1 4.594-13.532l1.694-4.649a29.626 29.626 0 0 1-5.659-2.626 25.844 25.844 0 0 1-5.373-4.327 52.921 52.921 0 0 1-1.34-1.66 31.1 31.1 0 0 1-1.212-1.655.664.664 0 0 1-.081-.162 1.545 1.545 0 0 0-.268-.449c-.32-.41-.417-.877-.279-1.318.348-.753.793-.942 1.111-.984.031-.004.142-.012.171-.012.402 0 .764.192 1.02.541 1.441 2.743 3.295 4.946 5.571 6.641 2.14 1.597 4.58 2.87 7.263 3.79 1.81-4.578 3.84-9.165 6.037-13.643a113.295 113.295 0 0 1 7.917-13.637 113.048 113.048 0 0 1 6.3-8.169 88.865 88.865 0 0 1 7.172-7.531 107.795 107.795 0 0 1 7.925-6.644c2.86-2.178 5.984-3.764 9.286-4.717 1.674-.451 3.324-.572 4.917-.368a7.245 7.245 0 0 1 4.284 2.105 9.752 9.752 0 0 1 2.284 4.186c.403 1.528.68 3.07.828 4.588a29.742 29.742 0 0 1-.771 9.819 45.518 45.518 0 0 1-3.505 9.448c-3.047 5.845-7.139 11.163-12.171 15.815-5.047 4.664-10.693 8.136-16.789 10.325a37.598 37.598 0 0 1-10.427 2.265c-3.381.24-6.73.049-9.976-.57l-1.937 4.716a165.717 165.717 0 0 0-2.041 5.21 155.443 155.443 0 0 0-2.798 7.527 274.902 274.902 0 0 1-2.703 7.548l-2.151 6.099a.74.74 0 0 1-.13.22c-.009.011-.074.093-.102.36-.057.507-.275.928-.638 1.218a.584.584 0 0 1-.117.075c-.317.162-.578.236-.823.236"/>
    <path d="M149.818 77.164c.144.343.018.717-.378 1.13a37.74 37.74 0 0 0-.917.984l-2.587 3.147c-.793.968-1.564 1.934-2.318 2.896a63.222 63.222 0 0 1-2.318 2.789 164.762 164.762 0 0 1-3.236 3.774c-1.15 1.304-2.407 2.332-3.772 3.089-1.294.75-2.229.818-2.804.212-.577-.607-.935-1.474-1.078-2.606a14.597 14.597 0 0 1 0-3.558c.143-1.242.285-2.196.43-2.861.145-.451.217-.746.217-.891l-.323.473a180.89 180.89 0 0 1-3.074 4.023 36.084 36.084 0 0 1-3.395 3.738c-.505.498-1.042.967-1.618 1.403-.577.437-1.17.803-1.778 1.099-.613.297-1.225.434-1.834.405-.61-.026-1.204-.288-1.781-.788-1.078-.933-1.544-2.273-1.401-4.017.145-1.746.397-3.287.756-4.627a30.777 30.777 0 0 1 3.774-8.7 43.707 43.707 0 0 1 2.75-3.655 29.992 29.992 0 0 1 3.394-3.47 18.809 18.809 0 0 1 3.883-2.62c1.366-.683 2.766-1.05 4.204-1.097a7.96 7.96 0 0 1 3.02.569 7.677 7.677 0 0 1 2.479 1.61c.287.251.595.532.918.848.323.318.555.645.699.985.288.323.252.613-.107.877-.36.264-.647.231-.863-.101a11.407 11.407 0 0 0-2.911-2.847c-1.149-.78-2.479-.999-3.99-.655-1.509.346-2.893 1.086-4.15 2.223a34.567 34.567 0 0 0-3.397 3.526c-1.582 2.08-2.983 4.386-4.204 6.923a96.782 96.782 0 0 0-2.264 4.72 24.467 24.467 0 0 0-1.617 4.959 4.87 4.87 0 0 0-.217 1.487c0 .535.092 1.028.272 1.471.178.446.43.788.753 1.032.324.248.809.253 1.455.02 1.364-.538 2.624-1.426 3.775-2.657a79.133 79.133 0 0 0 3.124-3.541 97.786 97.786 0 0 0 4.53-5.996 14.916 14.916 0 0 1 1.618-3.126c.142-.307.34-.639.594-.994.25-.357.518-.626.807-.811.432-.703.827-1.042 1.186-1.018.358.023.503.184.432.481-.074.299-.253.645-.54 1.043v.323a58.223 58.223 0 0 1-1.023 4.179c-.397 1.383-.81 2.751-1.242 4.1-.072.154-.251.611-.537 1.365-.288.76-.54 1.565-.755 2.421-.217.855-.325 1.604-.325 2.254 0 .646.216.977.648.99.645-.013 1.31-.3 1.993-.86a25.797 25.797 0 0 0 1.672-1.46 25.976 25.976 0 0 0 3.56-3.71c1.22-1.381 2.387-2.76 3.502-4.131a58.734 58.734 0 0 0 3.182-4.305c.071-.081.249-.339.539-.773.286-.432.593-.833.916-1.201.323-.365.647-.624.971-.775.323-.15.556-.057.701.283"/>
    <path d="M131.475 84.713a.7.7 0 0 1 .277.555c0 .169-.031.418-.249 1.103-.12.567-.261 1.506-.402 2.73a13.958 13.958 0 0 0-.001 3.388c.124.981.424 1.725.891 2.215.214.228.414.316 1.123.062a3.136 3.136 0 0 1-.319.025c-.344-.011-1.356-.159-1.356-1.685 0-.706.117-1.522.347-2.425a22.96 22.96 0 0 1 .777-2.496c.296-.783.485-1.255.558-1.414.398-1.26.808-2.62 1.203-3.997.382-1.344.718-2.709.997-4.059v-.176a.026.026 0 0 0-.011.007c-.208.132-.413.341-.611.623a5.78 5.78 0 0 0-.533.888 14.985 14.985 0 0 0-1.597 3.079.628.628 0 0 1-.081.151c-.333.479-.672.954-1.013 1.426m.475-16.078c-.413.143-.823.317-1.229.521a18.063 18.063 0 0 0-3.737 2.522 29.414 29.414 0 0 0-3.316 3.39 43.317 43.317 0 0 0-2.707 3.597 30.194 30.194 0 0 0-3.679 8.486c-.349 1.305-.597 2.822-.736 4.51-.125 1.524.255 2.648 1.164 3.438.32.277.633.459.949.549-.016-.01-.029-.021-.044-.031-.423-.321-.752-.764-.979-1.326a4.613 4.613 0 0 1-.322-1.732c0-.606.085-1.178.25-1.699a24.848 24.848 0 0 1 1.645-5.031 98.995 98.995 0 0 1 2.279-4.754c1.229-2.549 2.669-4.918 4.27-7.025a35.396 35.396 0 0 1 3.484-3.62 10.434 10.434 0 0 1 2.708-1.795m-12.767 28.472-.178-.001c-.77-.035-1.512-.355-2.205-.957-1.251-1.086-1.801-2.633-1.638-4.601.145-1.773.406-3.371.774-4.751a31.683 31.683 0 0 1 3.856-8.888 44.995 44.995 0 0 1 2.806-3.729 30.585 30.585 0 0 1 3.474-3.551 19.514 19.514 0 0 1 4.027-2.716c1.45-.727 2.962-1.121 4.492-1.172 1.186 0 2.29.209 3.304.62a8.423 8.423 0 0 1 2.702 1.753c.271.237.586.527.921.852.355.352.628.725.807 1.112.275.351.31.677.287.895-.037.35-.231.657-.576.912-.282.206-.567.311-.85.311-.232 0-.672-.077-1.008-.593a10.757 10.757 0 0 0-2.72-2.651c-.99-.675-2.118-.853-3.443-.552-1.388.317-2.68 1.011-3.839 2.06a33.805 33.805 0 0 0-3.329 3.455c-1.527 2.009-2.917 4.298-4.113 6.778a100.991 100.991 0 0 0-2.257 4.704 23.863 23.863 0 0 0-1.571 4.82 4.43 4.43 0 0 0-.202 1.342c0 .441.075.849.221 1.211.133.329.304.57.529.739.09.069.242.123.802-.08 1.241-.489 2.426-1.326 3.502-2.478a78.752 78.752 0 0 0 3.095-3.509 96.464 96.464 0 0 0 2.3-2.928 92.674 92.674 0 0 0 2.146-2.953 15.617 15.617 0 0 1 1.664-3.189c.106-.252.328-.624.6-1.008.263-.373.553-.673.862-.898.361-.56.904-1.224 1.665-1.224.587.038.852.261.987.444.128.173.256.467.155.896-.085.34-.254.702-.522 1.1v.105a.734.734 0 0 1-.013.139 57.765 57.765 0 0 1-1.037 4.23 145.914 145.914 0 0 1-1.246 4.123c-.103.231-.276.669-.55 1.398a21.658 21.658 0 0 0-.732 2.343c-.201.795-.303 1.496-.303 2.086 0 .266.049.351.049.351.373-.067.901-.303 1.457-.757a25.138 25.138 0 0 0 1.627-1.424 25.559 25.559 0 0 0 3.498-3.64 130.444 130.444 0 0 0 3.51-4.142 57.48 57.48 0 0 0 3.144-4.252c.119-.147.281-.383.538-.771.3-.451.627-.881.973-1.273.384-.436.786-.755 1.197-.946.193-.09.382-.136.566-.136.222 0 .767.075 1.068.773.181.433.234 1.105-.514 1.886-.386.405-.685.724-.897.963l-2.571 3.128c-.791.963-1.558 1.927-2.31 2.884a63.367 63.367 0 0 1-2.342 2.819 167.496 167.496 0 0 1-3.235 3.775c-1.202 1.359-2.534 2.449-3.959 3.237-1.588.921-2.848.926-3.644.079-.676-.708-1.102-1.716-1.264-2.996a15.413 15.413 0 0 1-.001-3.725c.034-.292.068-.57.102-.829a167.17 167.17 0 0 1-1.615 2.083 37.164 37.164 0 0 1-3.46 3.813 17.52 17.52 0 0 1-1.68 1.455c-.607.459-1.243.852-1.893 1.17a4.555 4.555 0 0 1-1.99.476"/>
    <path d="M154.129 101.929a51.569 51.569 0 0 0-2.157-.522 30.467 30.467 0 0 0-2.264-.4 44.632 44.632 0 0 0-9.596-.718c-3.233.108-6.468.629-9.703 1.563a41.203 41.203 0 0 0-8.95 3.617 39.678 39.678 0 0 0-7.978 5.75c-2.443 2.195-4.53 4.756-6.254 7.68-1.726 2.925-2.659 5.976-2.804 9.16-.069 1.59.093 3.115.486 4.572a13.388 13.388 0 0 0 1.832 4.015 12.826 12.826 0 0 0 2.967 3.11c1.15.853 2.48 1.431 3.988 1.733 3.017.604 6.13.298 9.328-.918 3.198-1.215 6.09-2.825 8.678-4.821a36.42 36.42 0 0 0 5.985-5.593 62.029 62.029 0 0 0 4.852-6.521 103.278 103.278 0 0 0 4.151-7.022c1.293-2.402 2.55-4.8 3.772-7.189l3.667-7.496Zm48.196 3.722c.36.239.323.531-.106.877-3.092 1.848-6.345 2.946-9.758 3.292-3.416.346-6.74.341-9.975-.018a59.476 59.476 0 0 1-9.541-1.86 169.629 169.629 0 0 1-9.22-2.868l-6.684-2.345a171.767 171.767 0 0 1-2.912 5.508 817.288 817.288 0 0 1-3.019 5.416 505.274 505.274 0 0 1-4.368 7.427 56.856 56.856 0 0 1-5.011 7.081 49.9 49.9 0 0 1-7.28 7.28 36.93 36.93 0 0 1-8.786 5.318 23.626 23.626 0 0 1-9.274 2.096c-3.233.072-5.999-.891-8.303-2.884-2.226-2.004-3.646-4.546-4.255-7.627-.613-3.082-.381-6.204.699-9.367a28.162 28.162 0 0 1 4.743-8.5 36.844 36.844 0 0 1 7.17-6.779 40.999 40.999 0 0 1 8.626-4.758c3.056-1.235 6.058-2.118 9.002-2.654 3.381-.595 6.704-.823 9.975-.679 3.272.138 6.522.602 9.758 1.395l.756.224a856.728 856.728 0 0 0 2.156-4.655c.718-1.57 1.4-3.15 2.048-4.747.574-1.369 1.147-2.739 1.724-4.111l1.726-4.111-.647.842a70.597 70.597 0 0 1-2.102 2.705 26.385 26.385 0 0 1-2.482 2.649 16.743 16.743 0 0 1-2.856 2.158 9.726 9.726 0 0 1-3.126 1.224c-1.87.323-3.36-.128-4.475-1.345-1.113-1.216-1.671-2.725-1.671-4.522 0-1.869.36-3.749 1.077-5.641a31.817 31.817 0 0 1 2.589-5.305v.109c.933-1.49 2.101-3.03 3.503-4.619 1.405-1.588 2.928-2.939 4.582-4.06 1.655-1.117 3.378-1.868 5.175-2.252 1.797-.383 3.522-.107 5.176.821.791.326 1.419.873 1.887 1.637.467.764.881 1.518 1.241 2.26.144.485.286.933.432 1.344.142.411.284.862.43 1.344.146.342.146.593 0 .755-.43.346-.718.276-.862-.209-.072-1.211-.413-2.441-1.024-3.691-.612-1.247-1.456-2.124-2.535-2.628-1.437-.671-2.876-.821-4.312-.451-1.44.374-2.769 1.071-3.988 2.094a20.703 20.703 0 0 0-3.506 3.594 35.904 35.904 0 0 0-2.75 4.14A76.72 76.72 0 0 0 149.979 80a31.437 31.437 0 0 0-1.672 3.62c-.214.604-.449 1.265-.701 1.981a9.317 9.317 0 0 0-.486 2.112 6.098 6.098 0 0 0 .109 1.98c.145.628.503 1.158 1.078 1.583.863.675 1.833.923 2.912.745 1.079-.18 2.118-.588 3.126-1.225a20.225 20.225 0 0 0 3.989-3.335 47.014 47.014 0 0 0 3.344-4.002l1.615-2.481a108.98 108.98 0 0 0 1.402-3.097c.431-.991.933-2.029 1.51-3.112 0-.144.072-.225.217-.245.069-.081.214-.136.432-.165.285.108.428.303.428.589a46.546 46.546 0 0 1-2.425 9.973 142.334 142.334 0 0 1-3.934 9.742l-1.727 3.681a96.554 96.554 0 0 1-1.832 3.695c1.725.559 3.451 1.139 5.175 1.736 1.727.596 3.45 1.174 5.175 1.738a92.064 92.064 0 0 0 9.274 2.431 58.996 58.996 0 0 0 9.703 1.189 45.631 45.631 0 0 0 4.852-.268 33.514 33.514 0 0 0 4.852-.916 33.985 33.985 0 0 0 2.21-.779c.683-.27 1.385-.598 2.105-.98.215-.174.482-.354.806-.539.325-.187.594-.187.809 0Z"/>
    <path d="M148.931 77.04a31.24 31.24 0 0 0-2.349 4.879c-.682 1.807-1.03 3.62-1.03 5.393 0 1.634.488 2.958 1.489 4.054.582.634 1.269 1.019 2.086 1.157a4.465 4.465 0 0 1-1.249-.701c-.691-.512-1.144-1.179-1.326-1.972a6.795 6.795 0 0 1-.122-2.206c.077-.74.252-1.504.519-2.274l.703-1.983a32.364 32.364 0 0 1 1.715-3.718 78.084 78.084 0 0 1 2.012-3.478 36.745 36.745 0 0 1 2.79-4.198 21.565 21.565 0 0 1 3.624-3.716 11.262 11.262 0 0 1 2.418-1.558c-1.1.4-2.176.952-3.213 1.654a23.734 23.734 0 0 0-4.451 3.944c-1.372 1.556-2.527 3.08-3.434 4.527a.727.727 0 0 1-.182.196m5.89 24.829a.68.68 0 0 1-.067.364l-3.666 7.498a390.357 390.357 0 0 1-3.786 7.213 104.647 104.647 0 0 1-4.178 7.067 62.865 62.865 0 0 1-4.908 6.596 37.392 37.392 0 0 1-6.098 5.701c-.19.145-.383.292-.577.435a37.239 37.239 0 0 0 2.473-1.844 49.406 49.406 0 0 0 7.177-7.173 56.722 56.722 0 0 0 4.955-7.002 538.268 538.268 0 0 0 4.363-7.42 833.07 833.07 0 0 0 3.012-5.403 171.462 171.462 0 0 0 2.899-5.485.712.712 0 0 1 .255-.28.709.709 0 0 1 .072-.42 93.073 93.073 0 0 0 1.821-3.667l1.726-3.682a140.735 140.735 0 0 0 3.909-9.682 46.392 46.392 0 0 0 2.265-8.919c-.419.818-.8 1.62-1.134 2.392-.433.998-.904 2.034-1.411 3.115l-1.201 1.852a.695.695 0 0 1 .134.745l-3.451 8.225a119.34 119.34 0 0 1-2.054 4.763 741.15 741.15 0 0 1-2.16 4.66.685.685 0 0 1-.37.351m-13.217-.908a38.953 38.953 0 0 0-11.003 1.561 40.81 40.81 0 0 0-8.81 3.557 39.075 39.075 0 0 0-7.838 5.649 31.807 31.807 0 0 0-6.127 7.523c-1.658 2.81-2.569 5.783-2.709 8.839a14.34 14.34 0 0 0 .463 4.361c.372 1.37.957 2.651 1.737 3.808a12.198 12.198 0 0 0 2.804 2.939c1.064.788 2.313 1.329 3.711 1.61.953.189 1.927.287 2.901.287 1.961 0 3.996-.396 6.043-1.173 3.12-1.188 5.981-2.775 8.501-4.723a35.958 35.958 0 0 0 5.881-5.493 61.219 61.219 0 0 0 4.797-6.45 102.12 102.12 0 0 0 4.122-6.973 376.329 376.329 0 0 0 3.768-7.174l3.285-6.718a43.158 43.158 0 0 0-1.305-.303 28.317 28.317 0 0 0-2.213-.391 44.007 44.007 0 0 0-8.008-.736m-25.543 42.594c-3.248 0-6.085-1.029-8.427-3.058-2.342-2.109-3.847-4.803-4.484-8.018-.633-3.191-.389-6.462.723-9.726a29.077 29.077 0 0 1 4.862-8.715 37.803 37.803 0 0 1 7.304-6.904 41.706 41.706 0 0 1 8.773-4.839c3.077-1.244 6.152-2.15 9.138-2.693a46.7 46.7 0 0 1 10.127-.691 50.88 50.88 0 0 1 9.894 1.416l.214.062a945.207 945.207 0 0 0 1.902-4.108c.727-1.592 1.41-3.18 2.033-4.717l1.449-3.457a27.605 27.605 0 0 1-2.109 2.2 17.414 17.414 0 0 1-2.976 2.244 10.43 10.43 0 0 1-3.345 1.311c-2.188.377-3.851-.167-5.123-1.557-1.231-1.344-1.855-3.023-1.855-4.993 0-1.942.378-3.922 1.122-5.886a32.627 32.627 0 0 1 2.648-5.423.719.719 0 0 1 .205-.213c.913-1.415 2.045-2.891 3.368-4.393a25.154 25.154 0 0 1 4.715-4.176c1.721-1.163 3.546-1.955 5.42-2.356 1.951-.417 3.863-.114 5.661.894.85.346 1.595.99 2.139 1.88a27.83 27.83 0 0 1 1.273 2.321c.181.579.321 1.015.462 1.416.146.421.292.881.441 1.374.295.688.086 1.157-.145 1.417-.395.329-.69.449-.984.449-.239 0-.82-.089-1.066-.921a.644.644 0 0 1-.026-.156c-.068-1.115-.388-2.268-.955-3.427-.545-1.113-1.267-1.866-2.206-2.305-1.282-.599-2.57-.735-3.843-.406-1.332.345-2.583 1.001-3.716 1.952a20.129 20.129 0 0 0-3.401 3.485 35.608 35.608 0 0 0-2.696 4.057 78.457 78.457 0 0 0-1.987 3.438 30.896 30.896 0 0 0-1.636 3.539l-.692 1.96a8.647 8.647 0 0 0-.45 1.955c-.064.611-.031 1.2.094 1.752.109.467.375.852.815 1.178.731.574 1.507.766 2.383.618.981-.164 1.948-.544 2.869-1.126a19.585 19.585 0 0 0 3.852-3.223 46.43 46.43 0 0 0 3.294-3.943l1.592-2.443c.451-.985.918-2.008 1.348-2.996.425-.98.92-2.006 1.473-3.05a.899.899 0 0 1 .563-.66c.174-.115.393-.188.667-.224a.668.668 0 0 1 .336.039c.56.21.881.662.881 1.239a47.443 47.443 0 0 1-2.468 10.209 142.393 142.393 0 0 1-3.954 9.79l-1.731 3.693c-.467.992-.957 1.99-1.469 2.991 1.469.482 2.94.979 4.41 1.488a309.88 309.88 0 0 0 5.164 1.734 92.082 92.082 0 0 0 9.199 2.412 59.15 59.15 0 0 0 9.59 1.175 44.906 44.906 0 0 0 4.747-.267 32.612 32.612 0 0 0 4.752-.896c.74-.235 1.462-.49 2.131-.753a20.676 20.676 0 0 0 2.034-.948c.127-.12.427-.32.785-.528.577-.336 1.179-.3 1.611.08.367.233.472.59.486.836.016.393-.19.764-.611 1.105-3.246 1.948-6.626 3.087-10.123 3.444-3.448.348-6.851.344-10.124-.021a60.578 60.578 0 0 1-9.65-1.881 171.948 171.948 0 0 1-9.258-2.88l-6.115-2.145a173.183 173.183 0 0 1-2.648 4.987 697.203 697.203 0 0 1-3.021 5.419 491.43 491.43 0 0 1-4.378 7.445 58.293 58.293 0 0 1-5.07 7.169 50.657 50.657 0 0 1-7.378 7.372 37.723 37.723 0 0 1-8.952 5.42 24.415 24.415 0 0 1-9.532 2.152l-.345.005"/>
    <path d="M179.141 70.567c.217-.244.449-.311.703-.202.25.113.304.322.16.626-.214.605-.377 1.327-.485 2.166a8.794 8.794 0 0 0 0 2.372c.108.741.394 1.351.862 1.828.468.475 1.133.658 1.996.542a5.393 5.393 0 0 0 2.102-.764 9.866 9.866 0 0 0 1.887-1.491 20.52 20.52 0 0 0 1.617-1.832 16.03 16.03 0 0 0 1.293-1.898c.792-1.327 1.511-2.86 2.157-4.599.647-1.74.684-3.29.107-4.652-.357-.957-1.006-1.518-1.937-1.683a5.375 5.375 0 0 0-2.805.267c-1.51.631-2.858 1.638-4.043 3.016a37.572 37.572 0 0 0-3.074 4.075 51.17 51.17 0 0 0-2.587 4.39 40.755 40.755 0 0 0-2.049 4.53 25.293 25.293 0 0 0-.808 2.211 18.493 18.493 0 0 0-.593 2.343 8.408 8.408 0 0 0-.11 2.332c.07.782.289 1.472.648 2.07.718 1.272 1.851 1.947 3.398 2.029 1.544.082 3-.041 4.365-.366 3.234-.862 6.199-2.496 8.895-4.903 2.697-2.408 5.051-4.931 7.063-7.572 1.006-1.211 1.976-2.597 2.912-4.161L202 69.034c.144-.522.324-.867.539-1.042.144-.16.304-.202.486-.117.178.084.268.234.268.448.071.279-.018.579-.268.9-.253.321-.45.598-.595.834-.358.694-.79 1.398-1.292 2.113a37.667 37.667 0 0 1-1.563 2.256c-.54.718-1.096 1.438-1.672 2.163-2.012 2.495-4.332 4.89-6.954 7.178-2.626 2.291-5.517 3.932-8.68 4.928a13.695 13.695 0 0 1-4.314.737c-1.508.022-2.841-.324-3.989-1.032-1.293-.834-2.119-2.016-2.478-3.553a12.47 12.47 0 0 1-.217-4.608c.361-2.923 1.348-5.766 2.966-8.533 1.617-2.765 3.538-5.198 5.767-7.291.719-.743 1.654-1.515 2.803-2.314 1.151-.802 2.301-1.421 3.451-1.863 1.149-.437 2.265-.586 3.345-.443 1.077.145 1.937.75 2.586 1.812.718 1.198.879 2.563.484 4.086a27.263 27.263 0 0 1-1.456 4.239 24.217 24.217 0 0 1-2.424 3.88 18.134 18.134 0 0 1-3.291 3.348c-1.221.954-2.497 1.448-3.826 1.48-1.33.034-2.248-.671-2.749-2.114a8.391 8.391 0 0 1-.377-2.106 7.634 7.634 0 0 1 .162-2.07c0-.286.017-.613.053-.977.035-.364.162-.632.376-.806"/>
    <path d="M179.683 69.622c.147.007.293.043.435.105.369.166.528.421.596.606.107.291.081.612-.081.955-.172.496-.324 1.177-.424 1.959-.1.776-.1 1.509-.002 2.183.086.596.307 1.068.673 1.44.307.318.782.426 1.405.342a4.764 4.764 0 0 0 1.834-.673 9.065 9.065 0 0 0 1.753-1.385 19.875 19.875 0 0 0 1.565-1.772c.483-.615.899-1.226 1.237-1.814.773-1.298 1.481-2.806 2.107-4.496.589-1.58.627-2.933.119-4.138-.284-.753-.729-1.148-1.419-1.27a4.752 4.752 0 0 0-2.446.235c-1.369.575-2.643 1.527-3.754 2.818a36.997 36.997 0 0 0-3.016 3.998c-.197.3-.391.602-.582.907m4.065-7.314c-.183.117-.363.237-.543.363-1.108.771-2.017 1.521-2.701 2.226-2.191 2.06-4.09 4.461-5.668 7.16-1.562 2.672-2.528 5.454-2.874 8.266a11.843 11.843 0 0 0 .203 4.368c.318 1.364 1.031 2.385 2.178 3.125.248.151.506.287.775.402-.624-.396-1.139-.949-1.542-1.659-.403-.676-.654-1.471-.733-2.352a9.12 9.12 0 0 1 .118-2.521c.146-.806.353-1.624.614-2.431.258-.81.537-1.574.829-2.267a41.707 41.707 0 0 1 2.075-4.585 52.53 52.53 0 0 1 2.621-4.447 38.567 38.567 0 0 1 3.128-4.146c.478-.556.986-1.058 1.52-1.502m-5.934 27.821c-1.575 0-2.991-.382-4.213-1.139-1.454-.936-2.389-2.273-2.789-3.984a13.158 13.158 0 0 1-.228-4.862c.367-2.992 1.395-5.953 3.053-8.79 1.644-2.813 3.627-5.317 5.891-7.446.724-.748 1.701-1.556 2.883-2.378 1.184-.825 2.395-1.477 3.599-1.94 1.256-.477 2.484-.644 3.683-.485 1.289.174 2.328.893 3.089 2.14.817 1.365 1.005 2.919.565 4.623a28.064 28.064 0 0 1-1.495 4.344 24.704 24.704 0 0 1-2.504 4.02 18.997 18.997 0 0 1-3.418 3.477c-1.337 1.043-2.763 1.591-4.239 1.626h-.003c-1.21 0-2.675-.451-3.417-2.58a9.163 9.163 0 0 1-.416-2.301c-.034-.637 0-1.266.105-1.875a40.232 40.232 0 0 0-2.265 4.925 25.866 25.866 0 0 0-.797 2.176 18.178 18.178 0 0 0-.572 2.258 7.742 7.742 0 0 0-.099 2.141c.059.673.247 1.272.551 1.778.609 1.077 1.535 1.625 2.837 1.691 1.479.077 2.874-.038 4.168-.346 3.098-.826 5.995-2.425 8.594-4.747 2.65-2.366 4.997-4.882 6.973-7.474.996-1.2 1.955-2.57 2.869-4.097l1.133-2.111c.181-.629.426-1.061.751-1.322.207-.246.528-.315.745-.315.159 0 .317.036.469.109.404.188.643.545.669.992.066.342.031.842-.413 1.413a8.054 8.054 0 0 0-.55.769 18.333 18.333 0 0 1-1.316 2.149 38.369 38.369 0 0 1-1.575 2.275c-.547.724-1.107 1.45-1.685 2.177-2.029 2.518-4.397 4.963-7.042 7.27-2.683 2.345-5.688 4.051-8.927 5.069a14.42 14.42 0 0 1-4.512.768l-.152.002"/>
    <path d="M217.417 43.262a70.286 70.286 0 0 0-1.832 2.831 59.04 59.04 0 0 0-1.619 2.805c2.948-.033 5.965-.472 9.058-1.315a59.879 59.879 0 0 0 9.273-3.39 67.917 67.917 0 0 0 9.597-5.158 91.237 91.237 0 0 0 8.949-6.582 60.994 60.994 0 0 0 7.654-7.488c2.372-2.758 4.276-5.672 5.714-8.74a23.499 23.499 0 0 0 1.78-4.925c.395-1.67.413-3.2.055-4.592-.36-1.244-1.045-2.233-2.049-2.962-1.007-.728-2.156-1.149-3.451-1.264-1.51-.087-3.092.159-4.743.738a24.878 24.878 0 0 0-4.907 2.378 39.897 39.897 0 0 0-4.69 3.428A160.274 160.274 0 0 0 242 12.712a118.526 118.526 0 0 0-13.315 14.549 214.493 214.493 0 0 0-11.268 16.001m-18.545-.875c0 .074.037.104.108.093 0 .148.038.211.108.202a7.003 7.003 0 0 0 2.425 2.751 15.936 15.936 0 0 0 3.289 1.665c1.796.912 3.81 1.471 6.038 1.676a159.081 159.081 0 0 1 11.861-17.429 153.653 153.653 0 0 1 14.34-15.925c2.013-1.919 4.313-3.95 6.899-6.092 2.589-2.141 5.212-3.929 7.873-5.362 2.659-1.432 5.229-2.275 7.708-2.535 2.481-.257 4.584.506 6.309 2.289.934 1.025 1.435 2.271 1.508 3.733.072 1.465-.143 3.022-.645 4.669a27.286 27.286 0 0 1-2.105 4.97 45.791 45.791 0 0 1-2.856 4.64 50.473 50.473 0 0 1-7.115 8.224 86.612 86.612 0 0 1-8.411 6.889 102.61 102.61 0 0 1-7.924 5.042 72.952 72.952 0 0 1-8.356 4.132 54.392 54.392 0 0 1-8.412 2.736c-2.804.661-5.499.984-8.086.969-.43.703-.773 1.307-1.025 1.807a33.214 33.214 0 0 1-.915 1.685l25.446-5.326c.284.393-.487.837-2.32 1.332-1.832.497-4.133 1-6.9 1.511-2.767.514-5.677 1.045-8.732 1.594a438.083 438.083 0 0 0-7.818 1.472c-3.954 7.356-7.188 14.864-9.704 22.531-.36 1.199-.736 2.49-1.132 3.87-.395 1.386-.485 2.601-.27 3.649.147.774.47 1.252.971 1.434.502.188 1.095.18 1.78-.021a8.477 8.477 0 0 0 2.047-.918c.683-.416 1.311-.84 1.887-1.276a52.134 52.134 0 0 0 8.41-7.426c2.587-2.826 4.851-5.731 6.794-8.722.143-.235.323-.546.54-.935.214-.388.392-.662.537-.826.358-.191.611-.206.754-.046.145.161.145.357 0 .592l-3.232 4.42a118.33 118.33 0 0 1-3.668 4.37 81.388 81.388 0 0 1-3.989 4.196c-.792.752-1.907 1.783-3.342 3.087-1.439 1.306-2.895 2.417-4.368 3.33-1.472.916-2.822 1.437-4.043 1.563-1.221.128-2.011-.61-2.371-2.217-.287-1.042-.324-2.222-.109-3.546.216-1.321.469-2.612.756-3.874a55.955 55.955 0 0 1 1.348-5.139 304.638 304.638 0 0 1 1.67-5.181 111.712 111.712 0 0 1 2.264-5.909c.79-1.9 1.69-3.854 2.697-5.858-3.38 1.026-5.699 1.712-6.955 2.058-1.256.347-1.6.158-1.024-.564l8.193-1.953 1.833-3.263c.144-.305.288-.577.433-.812a8.57 8.57 0 0 0 .43-.813 33.486 33.486 0 0 1-2.696-.503 31.515 31.515 0 0 1-3.451-1.051 13.01 13.01 0 0 1-3.125-1.632c-1.15-.637-2.011-1.422-2.588-2.352a3.74 3.74 0 0 1-.485-.527.884.884 0 0 1-.163-.789.838.838 0 0 1 .541-.61c.288-.11.468-.062.538.144 0 .072.018.105.054.101.038-.005.054.03.054.099l-.108-.093"/>
    <path d="M259.96 3.16c-1.248 0-2.568.241-3.929.716a24.224 24.224 0 0 0-4.766 2.313 39.475 39.475 0 0 0-4.611 3.367 163.423 163.423 0 0 0-4.185 3.671 118.197 118.197 0 0 0-13.235 14.46 214.629 214.629 0 0 0-11.229 15.95 70.214 70.214 0 0 0-1.827 2.82 58.548 58.548 0 0 0-1.01 1.708c2.494-.122 5.071-.542 7.673-1.252a59.443 59.443 0 0 0 9.166-3.352 67.568 67.568 0 0 0 9.512-5.109 90.844 90.844 0 0 0 8.878-6.532 60.684 60.684 0 0 0 7.575-7.407c2.314-2.694 4.202-5.582 5.609-8.582a22.89 22.89 0 0 0 1.734-4.791c.366-1.551.386-2.983.058-4.258-.312-1.082-.899-1.93-1.784-2.573-.912-.658-1.927-1.03-3.107-1.135a8.468 8.468 0 0 0-.522-.014m-51.875 51.832a.684.684 0 0 1-.073.268 90.054 90.054 0 0 0-2.675 5.813 112.743 112.743 0 0 0-2.251 5.872 303.196 303.196 0 0 0-1.662 5.159 55.416 55.416 0 0 0-1.332 5.074 63.004 63.004 0 0 0-.749 3.844c-.199 1.214-.167 2.306.093 3.245.384 1.725 1.15 1.725 1.438 1.725.023 0 .048-.004.071-.004a1.933 1.933 0 0 1-.157-.053c-.742-.27-1.219-.929-1.414-1.956-.234-1.146-.14-2.483.285-3.968.397-1.386.776-2.679 1.136-3.879 2.518-7.68 5.8-15.299 9.757-22.663a.672.672 0 0 1 .241-.258.677.677 0 0 1 .093-.342c.35-.608.649-1.157.895-1.648.262-.517.613-1.136 1.054-1.859a.697.697 0 0 1 .452-.318.705.705 0 0 1 .067-.476 60.01 60.01 0 0 1 1.637-2.837 68.953 68.953 0 0 1 1.853-2.859 215.263 215.263 0 0 1 11.291-16.036 120.018 120.018 0 0 1 11.978-13.303c-.913.816-1.777 1.615-2.592 2.391a153.752 153.752 0 0 0-14.271 15.849 159.165 159.165 0 0 0-11.81 17.353.698.698 0 0 1-.459.329.695.695 0 0 1-.05.442c-.16.332-.313.626-.468.88a7.312 7.312 0 0 0-.397.744l-1.855 3.307a.652.652 0 0 1-.126.164m-7.211 32.39c-.988 0-2.272-.483-2.787-2.776-.306-1.101-.347-2.394-.115-3.808.21-1.297.466-2.614.762-3.917.36-1.706.821-3.456 1.362-5.192.54-1.728 1.097-3.46 1.675-5.194a115.827 115.827 0 0 1 2.282-5.957 88.212 88.212 0 0 1 2.008-4.462c-2.586.78-4.374 1.306-5.441 1.599-1.519.419-1.952-.045-2.089-.328-.275-.571.168-1.129.336-1.338a.714.714 0 0 1 .383-.244l7.898-1.882 1.684-2.997c.118-.257.256-.518.395-.752a40.306 40.306 0 0 1-1.774-.359 32.322 32.322 0 0 1-3.539-1.076 13.761 13.761 0 0 1-3.289-1.72c-1.146-.629-2.082-1.471-2.721-2.465a5.071 5.071 0 0 1-.495-.55 1.579 1.579 0 0 1-.293-1.377c.129-.519.472-.906.968-1.098.636-.246 1.163-.037 1.396.443a.846.846 0 0 1 .12.184.683.683 0 0 1 .084.207l.027.047a6.33 6.33 0 0 0 2.185 2.484c.991.654 2.049 1.19 3.144 1.592 1.663.838 3.466 1.364 5.429 1.591a160.85 160.85 0 0 1 11.684-17.119 154.95 154.95 0 0 1 14.407-15.997c2.022-1.929 4.355-3.99 6.939-6.128 2.614-2.164 5.301-3.993 7.983-5.438 2.728-1.467 5.407-2.347 7.968-2.615 2.703-.282 5.011.565 6.878 2.496 1.056 1.158 1.623 2.56 1.704 4.183.075 1.542-.151 3.193-.675 4.907-.516 1.687-1.243 3.401-2.156 5.096a46.947 46.947 0 0 1-2.9 4.71 51.468 51.468 0 0 1-7.21 8.334 87.283 87.283 0 0 1-8.481 6.943 103.531 103.531 0 0 1-7.982 5.082 73.86 73.86 0 0 1-8.436 4.171 55.222 55.222 0 0 1-8.518 2.77c-2.703.637-5.344.969-7.854.988a23.323 23.323 0 0 0-.797 1.425c-.061.124-.127.25-.194.38l23.962-5.015a.69.69 0 0 1 .704.272.954.954 0 0 1 .137.887c-.179.504-.73.957-2.837 1.526-1.834.495-4.174 1.008-6.954 1.522a1751.32 1751.32 0 0 1-8.736 1.596c-2.903.522-5.395.99-7.484 1.403-3.85 7.203-7.046 14.647-9.502 22.131a483.1 483.1 0 0 0-1.123 3.846c-.361 1.267-.447 2.383-.257 3.317.1.521.277.829.528.921.362.134.81.121 1.346-.035a7.86 7.86 0 0 0 1.882-.847 22.028 22.028 0 0 0 1.828-1.235 51.622 51.622 0 0 0 8.317-7.342c2.556-2.79 4.819-5.694 6.722-8.631.131-.213.307-.516.518-.894.245-.444.443-.745.625-.949a.672.672 0 0 1 .192-.151c.667-.357 1.241-.297 1.599.1.351.397.38.927.075 1.423l-3.265 4.466a117.935 117.935 0 0 1-3.706 4.419 82.093 82.093 0 0 1-4.023 4.232c-.803.764-1.921 1.795-3.362 3.106-1.468 1.331-2.972 2.48-4.469 3.405-1.555.968-3.015 1.527-4.339 1.665a3.486 3.486 0 0 1-.333.019"/>
  </g>
</svg>