<svg width="142" height="42" viewBox="0 0 142 42" fill="none" xmlns="http://www.w3.org/2000/svg">
<path d="M47.2959 8.47821C40.5961 8.47821 32.6517 11.3217 32.6517 18.8086V31.1478C32.6517 38.6347 40.5961 41.6086 47.2959 41.6086C53.9428 41.6086 61.3576 38.6347 61.3576 31.1478V18.7565C61.3576 11.2565 53.9428 8.47821 47.2959 8.47821ZM56.2467 30.2739C56.2467 35.7391 51.5859 37.0304 47.3092 37.0304C42.9662 37.0304 37.7891 35.7391 37.7891 30.2739V20.0478C37.7891 14.6478 42.9132 13.1608 47.3092 13.1608C51.6521 13.1608 56.2467 14.6478 56.2467 20.0478V30.2739Z" fill="#0F4641"/>
<path d="M17.7029 8.6087C13.0156 8.6087 8.01065 10.1348 4.97852 11.7V9.24783H0V40.9565H4.99176V16.8391C7.2162 14.3739 23.1448 9.57392 23.1448 18.1957L23.0786 40.9565H28.2028V17.7783C28.2028 10.0304 22.9594 8.6087 17.7029 8.6087Z" fill="#0F4641"/>
<path d="M73.976 0L68.9181 2.3087V9.26087H64.0984V13.8913H68.9181V33.313C68.9181 38.2826 70.7718 41.6087 76.2137 41.6087C79.3253 41.6087 84.2906 40.6304 86.515 39.7043L85.0718 35.5696C82.3177 36.3783 74.1879 39.0391 73.9098 33.2087L73.976 13.8913H86.6342V9.24782H73.976V0Z" fill="#0F4641"/>
<path d="M126.555 11.5826V9.24783H121.497V40.9565H126.555V15.8478C128.872 13.0304 137.015 12.4044 140.325 14.0609L141.544 9.37826C137.492 7.7087 129.64 7.76087 126.555 11.5826Z" fill="#0F4641"/>
<path d="M105.462 8.47821C101.583 8.47821 95.0817 9.63908 91.3081 10.9956L92.5395 15.1173C94.5918 14.4391 100.709 13.0565 104.456 13.0565C107.634 13.0565 111.235 13.3434 111.235 18.4956V20.7521L98.9745 20.6869C94.2873 20.6869 88.9778 23.5956 88.9778 29.9217V32.3086C88.9778 39.9913 93.5988 41.6086 98.8421 41.6086C103.794 41.6086 108.322 40.1999 111.235 38.713V40.9565H116.413V17.5826C116.413 10.4217 111.408 8.47821 105.462 8.47821ZM111.222 34.0826C108.773 36.4304 94.1284 39.6 94.2079 33.1434V29.413C94.2079 26.8956 96.9355 25.5391 99.9676 25.5391L111.222 25.4739V34.0826Z" fill="#0F4641"/>
</svg>
