<svg xmlns="http://www.w3.org/2000/svg" xmlns:xlink="http://www.w3.org/1999/xlink" width="321" height="213" viewBox="0 0 321 213"><defs><path id="path-1" d="M.1484.441h33.812v33.8119H.1484z"/></defs><g id="Page-2" stroke="none" stroke-width="1" fill="none" fill-rule="evenodd"><g id="NYVA_grafiskaguidelines" transform="translate(-58 -167)"><path d="M373.619 302.6477c.869 0 1.718.223 2.546.669.828.446 1.473 1.084 1.935 1.915.462.83.693 1.696.693 2.597 0 .892-.227 1.75-.683 2.574-.455.823-1.093 1.462-1.914 1.918-.821.455-1.68.682-2.577.682s-1.756-.227-2.577-.682c-.821-.456-1.46-1.095-1.918-1.918-.457-.824-.686-1.682-.686-2.574 0-.901.232-1.767.696-2.597.465-.831 1.111-1.469 1.939-1.915.828-.446 1.677-.669 2.546-.669zm0 .858c-.727 0-1.435.186-2.124.559-.689.373-1.227.906-1.616 1.599s-.583 1.415-.583 2.165c0 .746.191 1.461.573 2.145.382.684.916 1.217 1.602 1.599.686.382 1.402.573 2.148.573.746 0 1.462-.191 2.148-.573.686-.382 1.219-.915 1.599-1.599.38-.684.569-1.399.569-2.145 0-.75-.193-1.472-.579-2.165-.387-.693-.926-1.226-1.617-1.599-.69-.373-1.397-.559-2.12-.559zm-2.271 7.185v-5.573h1.914c.654 0 1.128.052 1.421.155.293.103.526.283.7.539.173.256.26.528.26.816 0 .407-.145.762-.435 1.064-.291.302-.676.471-1.157.508.197.082.355.181.474.295.224.219.498.588.823 1.105l.68 1.091h-1.098l-.494-.879c-.389-.69-.703-1.123-.941-1.297-.164-.128-.404-.192-.72-.192h-.528v2.368h-.899zm.899-3.136h1.091c.521 0 .877-.078 1.067-.234.19-.155.285-.361.285-.617 0-.165-.046-.313-.138-.443-.091-.13-.218-.227-.381-.291-.162-.065-.463-.097-.902-.097h-1.022v1.682z" id="Fill-42" fill="#518587"/><path id="Fill-44" fill="#518587" d="M108.6273 207.5659v84.33l-22.742-84.33h-27.775v143.434l19.925-2.404v-102.186l26.741 98.959 23.574-2.844v-134.959z"/><path id="Fill-45" fill="#518587" d="M187.1114 301.7576l27.976-94.191h-21.133l-16.907 64.203-16.906-64.203h-23.145l27.975 94.191v36.351l22.14-2.671z"/><path id="Fill-46" fill="#518587" d="M297.1392 207.5661h-20.328l-16.906 114.922-16.907-114.922h-22.34l18.756 121.562 39.709-4.79z"/><g id="Group-49" transform="translate(313 167.276)"><mask id="mask-2" fill="#fff"><use xlink:href="#path-1"/></mask><path d="M17.0544 34.2529c9.459 0 16.906-7.447 16.906-16.906 0-9.46-7.447-16.906-16.906-16.906S.1484 7.8869.1484 17.3469c0 9.459 7.447 16.906 16.906 16.906m0-23.347c3.623 0 6.44 2.818 6.44 6.441 0 3.622-2.817 6.44-6.44 6.44s-6.44-2.818-6.44-6.44c0-3.623 2.817-6.441 6.44-6.441" id="Fill-47" fill="#518587" mask="url(#mask-2)"/></g><path d="M329.048 232.523l9.376 62.484h-.02l-.001-.001h-18.709l-.001.001h-.421l9.776-62.484zm17.309-24.957h-32.403l-18.366 114.786 19.974-2.41.857-7.413h24.246l.765 4.292 21.983-2.652-17.056-106.603z" id="Fill-50" fill="#518587"/><path id="Fill-51" fill="#518587" d="M89.739 368.3446v11.041h1.052v-5.258h5.29v-.896h-5.29v-3.991h5.954v-.896z"/><path d="M103.5198 368.3446l-4.438 11.041h1.112l1.332-3.433h5.024l1.346 3.433h1.129l-4.331-11.041h-1.174zm.541 1.051l2.135 5.661h-4.346l2.211-5.661z" id="Fill-52" fill="#518587"/><path d="M113.8805 377.1742c.185.382.439.686.764.913.325.227.71.389 1.152.487.445.098.919.146 1.424.146.288 0 .603-.04.944-.123.339-.082.657-.214.95-.394.294-.181.538-.412.735-.696.196-.284.293-.627.293-1.029 0-.309-.07-.577-.208-.804-.139-.226-.32-.417-.542-.572-.221-.155-.466-.281-.733-.378-.269-.098-.532-.179-.79-.24l-2.459-.603a7.4202 7.4202 0 01-.935-.31c-.305-.123-.57-.288-.797-.495-.226-.206-.409-.459-.549-.758-.139-.298-.209-.664-.209-1.097 0-.269.053-.583.154-.943.104-.362.297-.702.582-1.022.283-.319.671-.589 1.166-.811.495-.222 1.129-.333 1.903-.333.545 0 1.066.072 1.561.216.495.145.928.362 1.299.65.373.289.668.647.89 1.075.221.428.332.926.332 1.492h-1.052c-.02-.422-.116-.791-.285-1.105-.17-.315-.393-.578-.665-.789-.274-.211-.587-.372-.944-.48-.355-.108-.729-.162-1.121-.162-.361 0-.71.039-1.044.116-.334.077-.629.201-.882.371-.251.17-.455.395-.609.673-.156.278-.233.623-.233 1.036 0 .258.043.482.131.673.087.19.21.353.364.487.155.134.333.242.534.325.2.083.415.15.641.2l2.69.666c.393.103.761.229 1.106.379.346.149.65.335.913.556.262.222.469.493.619.812.15.32.224.707.224 1.16 0 .124-.012.288-.038.495-.027.206-.089.425-.186.657-.099.232-.237.466-.417.704-.182.237-.428.451-.744.642-.313.191-.703.345-1.166.464-.465.118-1.021.177-1.67.177-.65 0-1.253-.075-1.81-.224-.557-.149-1.031-.379-1.423-.688-.392-.309-.694-.706-.904-1.19-.212-.485-.303-1.068-.271-1.748h1.051c-.01.566.078 1.041.264 1.422" id="Fill-53" fill="#518587"/><path id="Fill-55" fill="#518587" d="M124.7823 368.3446v.896h3.835v10.145h1.052v-10.145h3.851v-.896z"/><path id="Fill-56" fill="#518587" d="M137.726 379.386h1.052v-11.041h-1.052z"/><path d="M152.8509 379.386l-.14-2.01h-.03c-.187.391-.416.729-.688 1.013-.274.283-.576.515-.906.695-.329.181-.683.312-1.058.395-.378.082-.766.123-1.169.123-.866 0-1.626-.157-2.281-.471-.654-.315-1.198-.735-1.631-1.26-.433-.526-.758-1.135-.974-1.825-.217-.691-.325-1.418-.325-2.181 0-.763.108-1.489.325-2.18.216-.691.541-1.301.974-1.833.433-.531.977-.954 1.631-1.268.655-.314 1.415-.472 2.281-.472.578 0 1.124.077 1.64.232.516.155.974.387 1.377.696.401.31.742.691 1.02 1.145.279.453.468.984.572 1.592h-1.051c-.032-.319-.137-.641-.317-.966-.181-.325-.423-.621-.727-.889s-.669-.487-1.091-.657c-.423-.171-.897-.256-1.423-.256-.732 0-1.361.139-1.886.418-.525.278-.957.647-1.291 1.105-.336.46-.582.978-.743 1.555-.159.577-.239 1.17-.239 1.778 0 .598.08 1.188.239 1.771.161.582.407 1.103.743 1.562.334.459.766.827 1.291 1.106.525.278 1.154.417 1.886.417.608 0 1.153-.101 1.632-.301.479-.202.883-.483 1.214-.843.33-.361.577-.789.742-1.284.166-.495.242-1.036.233-1.624h-3.759v-.896h4.687v5.613h-.758z" id="Fill-57" fill="#518587"/><path id="Fill-59" fill="#518587" d="M166.3353 368.3446v4.792h-6.557v-4.792h-1.052v11.041h1.052v-5.35h6.557v5.35h1.052v-11.041z"/><path id="Fill-60" fill="#518587" d="M172.7055 368.3446v11.041h7.702v-.896h-6.65v-4.362h6.155v-.896h-6.155v-3.991h6.573v-.896z"/><path id="Fill-61" fill="#518587" d="M183.7935 368.3446v.896h3.835v10.145h1.052v-10.145h3.85v-.896z"/><path d="M197.4195 377.1742c.185.382.439.686.764.913.325.227.71.389 1.153.487.444.098.918.146 1.423.146.288 0 .603-.04.944-.123.339-.082.657-.214.95-.394.294-.181.538-.412.735-.696.196-.284.293-.627.293-1.029 0-.309-.07-.577-.208-.804a1.927 1.927 0 00-.541-.572c-.222-.155-.467-.281-.734-.378-.269-.098-.532-.179-.79-.24l-2.459-.603a7.4202 7.4202 0 01-.935-.31c-.305-.123-.569-.288-.797-.495-.226-.206-.409-.459-.549-.758-.139-.298-.209-.664-.209-1.097 0-.269.053-.583.155-.943.103-.362.296-.702.581-1.022.283-.319.671-.589 1.166-.811.495-.222 1.129-.333 1.903-.333.546 0 1.066.072 1.561.216.495.145.928.362 1.299.65.373.289.669.647.89 1.075.221.428.332.926.332 1.492h-1.052c-.02-.422-.116-.791-.285-1.105-.17-.315-.393-.578-.665-.789-.274-.211-.587-.372-.944-.48-.355-.108-.729-.162-1.121-.162-.361 0-.709.039-1.044.116-.334.077-.628.201-.881.371-.252.17-.456.395-.61.673-.156.278-.233.623-.233 1.036 0 .258.043.482.131.673.087.19.21.353.364.487.155.134.333.242.534.325.2.083.415.15.641.2l2.69.666c.393.103.761.229 1.107.379.345.149.649.335.912.556.262.222.469.493.619.812.149.32.224.707.224 1.16 0 .124-.012.288-.038.495-.027.206-.089.425-.186.657-.099.232-.237.466-.417.704-.182.237-.428.451-.744.642-.313.191-.703.345-1.166.464-.465.118-1.021.177-1.67.177-.65 0-1.253-.075-1.81-.224-.557-.149-1.031-.379-1.423-.688-.392-.309-.694-.706-.904-1.19-.212-.485-.303-1.068-.271-1.748h1.051c-.01.566.078 1.041.264 1.422" id="Fill-62" fill="#518587"/><path id="Fill-64" fill="#518587" d="M209.4948 368.3446v11.041h1.052v-5.258h5.29v-.896h-5.29v-3.991h5.954v-.896z"/><g id="Group-69" transform="translate(220 365.276)" fill="#518587"><path d="M.6295 6.4089c.216-.691.541-1.301.974-1.833.433-.531.978-.953 1.632-1.268.656-.314 1.415-.472 2.281-.472.866 0 1.623.158 2.273.472.649.315 1.192.737 1.625 1.268.433.532.758 1.142.974 1.833.217.691.325 1.417.325 2.18 0 .763-.108 1.49-.325 2.181-.216.691-.541 1.299-.974 1.825-.433.525-.976.945-1.625 1.26-.65.314-1.407.472-2.273.472-.866 0-1.625-.158-2.281-.472-.654-.315-1.199-.735-1.632-1.26-.433-.526-.758-1.134-.974-1.825-.216-.691-.325-1.418-.325-2.181 0-.763.109-1.489.325-2.18zm.968 3.951c.159.582.406 1.103.742 1.562.334.459.765.827 1.29 1.106.526.278 1.155.417 1.887.417s1.359-.139 1.88-.417c.52-.279.948-.647 1.283-1.106.334-.459.582-.98.742-1.562.16-.583.24-1.173.24-1.771 0-.608-.08-1.201-.24-1.778-.16-.577-.408-1.095-.742-1.554-.335-.459-.763-.827-1.283-1.106-.521-.279-1.148-.418-1.88-.418s-1.361.139-1.887.418c-.525.279-.956.647-1.29 1.106-.336.459-.583.977-.742 1.554-.161.577-.241 1.17-.241 1.778 0 .598.08 1.188.241 1.771zm2.017-8.436h1.052V.3619h-1.052v1.562zm2.737 0h1.052V.3619h-1.052v1.562z" id="Fill-65"/><path d="M20.5015 3.0685c.454 0 .885.057 1.293.17.405.113.762.286 1.066.518.304.232.546.531.728.897.179.366.27.796.27 1.291 0 .702-.181 1.31-.541 1.825-.361.515-.898.846-1.609.99v.031c.361.051.66.147.897.285.237.14.43.318.58.534.149.217.258.467.324.75.067.284.11.591.133.92.009.186.019.413.03.681.009.268.03.539.062.812.03.273.08.531.146.773.067.242.158.431.271.565h-1.16c-.061-.103-.11-.23-.147-.379a3.035 3.035 0 01-.076-.464c-.016-.16-.029-.317-.04-.472-.01-.155-.021-.288-.03-.402-.021-.392-.054-.781-.101-1.168-.046-.387-.144-.731-.294-1.036-.15-.304-.366-.548-.65-.735-.283-.185-.671-.267-1.166-.246h-3.991v4.902h-1.052V3.0685h5.057zm-.076 5.243c.318 0 .624-.05.912-.148.288-.098.541-.239.757-.425.217-.185.389-.41.518-.673.129-.263.194-.564.194-.904 0-.681-.196-1.216-.587-1.609-.392-.391-.991-.587-1.794-.587h-3.929v4.346h3.929z" id="Fill-67"/></g><path id="Fill-70" fill="#518587" d="M257.8374 368.3446l-3.804 9.68-3.664-9.68h-1.547v11.041h1.052v-9.542h.029l3.635 9.542h.991l3.772-9.542h.032v9.542h1.052v-11.041z"/><path id="Fill-71" fill="#518587" d="M264.6414 368.3446v11.041h7.702v-.896h-6.65v-4.362h6.155v-.896h-6.155v-3.991h6.573v-.896z"/><path d="M280.7247 368.3445c1.681.041 2.946.513 3.796 1.415.852.902 1.277 2.271 1.277 4.105 0 1.836-.425 3.205-1.277 4.106-.85.903-2.115 1.374-3.796 1.416h-3.82v-11.042h3.82zm-.525 10.145c.792 0 1.477-.086 2.048-.256.573-.169 1.045-.44 1.415-.812.371-.371.645-.85.82-1.438.175-.587.263-1.293.263-2.119 0-.824-.088-1.53-.263-2.118-.175-.588-.449-1.067-.82-1.439-.37-.37-.842-.641-1.415-.811-.571-.17-1.256-.255-2.048-.255h-2.243v9.248h2.243z" id="Fill-72" fill="#518587"/><path id="Fill-74" fill="#518587" d="M290.5902 368.3446v11.041h7.239v-.896h-6.186v-10.145z"/><path id="Fill-75" fill="#518587" d="M302.066 379.386h1.052v-11.041h-1.052z"/><path id="Fill-76" fill="#518587" d="M316.1394 368.3446v9.341h-.032l-6.433-9.341h-1.174v11.041h1.05v-9.34h.032l6.433 9.34h1.176v-11.041z"/><path d="M331.1703 379.386l-.14-2.01h-.03c-.187.391-.416.729-.688 1.013-.274.283-.576.515-.906.695-.329.181-.683.312-1.058.395-.378.082-.766.123-1.169.123-.866 0-1.626-.157-2.281-.471-.654-.315-1.198-.735-1.631-1.26-.433-.526-.758-1.135-.975-1.825-.216-.691-.324-1.418-.324-2.181 0-.763.108-1.489.324-2.18.217-.691.542-1.301.975-1.833.433-.531.977-.954 1.631-1.268.655-.314 1.415-.472 2.281-.472.578 0 1.124.077 1.64.232.516.155.974.387 1.377.696.401.31.742.691 1.02 1.145.279.453.468.984.572 1.592h-1.051c-.032-.319-.137-.641-.317-.966-.181-.325-.423-.621-.727-.889s-.669-.487-1.091-.657c-.423-.171-.897-.256-1.423-.256-.732 0-1.361.139-1.886.418-.525.278-.957.647-1.291 1.105-.336.46-.582.978-.743 1.555-.159.577-.239 1.17-.239 1.778 0 .598.08 1.188.239 1.771.161.582.407 1.103.743 1.562.334.459.766.827 1.291 1.106.525.278 1.154.417 1.886.417.608 0 1.153-.101 1.632-.301.479-.202.883-.483 1.215-.843.329-.361.576-.789.741-1.284.166-.495.242-1.036.233-1.624h-3.759v-.896h4.687v5.613h-.758z" id="Fill-77" fill="#518587"/></g></g></svg>