<?xml version="1.0" encoding="UTF-8" standalone="no"?>
<!DOCTYPE svg PUBLIC "-//W3C//DTD SVG 1.1//EN" "http://www.w3.org/Graphics/SVG/1.1/DTD/svg11.dtd">
<svg width="100%" height="100%" viewBox="0 0 2128 467" version="1.1" xmlns="http://www.w3.org/2000/svg" xmlns:xlink="http://www.w3.org/1999/xlink" xml:space="preserve" xmlns:serif="http://www.serif.com/" style="fill-rule:evenodd;clip-rule:evenodd;stroke-linejoin:round;stroke-miterlimit:2;">
    <g transform="matrix(1,0,0,1,-182.205,-955.54)">
        <g transform="matrix(4.16667,0,0,4.16667,0,0)">
            <g transform="matrix(1,0,0,1,516.77,305.922)">
                <clipPath id="_clip1">
                    <path d="M-482.385,31.891L-13.017,152.357L44.121,-70.266L-425.249,-190.732L-482.385,31.891Z" clip-rule="nonzero"/>
                </clipPath>
                <g clip-path="url(#_clip1)">
                    <path d="M0,-41.341C0.128,-41.342 0.006,-40.697 0.264,-40.7C0.269,-40.313 0.011,-40.31 0.011,-40.31L0,-41.341ZM9.157,-52.776C10.313,-53.046 10.554,-54.723 10.554,-54.723C9.516,-55.356 10.657,-57.044 11.817,-57.056C12.84,-57.839 13.091,-58.358 14.234,-60.045L16.01,-62.769C18.543,-66.919 17.379,-67.293 18.408,-67.432C18.537,-67.434 17.491,-68.84 18.517,-69.238L19.154,-70.018L19.39,-72.082C18.24,-71.168 14.417,-67.133 12.769,-64.668L10.99,-62.201C6.271,-57.641 5.388,-55.829 2.099,-49.996C1.593,-49.089 1.357,-47.024 -0.314,-46.749L-0.685,-45.199C-0.814,-45.198 -1.329,-45.192 -0.811,-44.94C-0.81,-44.811 -0.938,-44.81 -0.937,-44.681L-0.809,-44.683C-0.42,-44.558 0.092,-44.821 0.737,-44.827L1.639,-44.837C2.019,-45.356 2.402,-45.747 2.41,-44.974C2.796,-44.978 3.053,-45.11 3.439,-45.114C4.849,-45.773 4.977,-45.903 5.741,-46.813C7.009,-48.759 6.983,-51.207 9.157,-52.776M-3.911,-33.44C-3.398,-33.703 -0.229,-38.633 1.029,-41.481C0.772,-41.349 0.514,-41.475 0.256,-41.472C-0.646,-41.463 -1.547,-41.325 -2.448,-41.315C-5.482,-35.743 -10.147,-26.03 -8.872,-27.332L-3.911,-33.44ZM-22.039,-5.29C-21.395,-5.296 -21.271,-5.684 -21.533,-6.068L-21.921,-6.193L-21.535,-6.197L-21.675,-7.355L-21.417,-7.358L-19.545,-13.176L-18.915,-14.471C-18.148,-15.123 -18.416,-16.022 -18.041,-17.185C-15.899,-21.718 -14.771,-24.693 -12.871,-27.805C-12.485,-27.809 -12.244,-29.487 -12.244,-29.487C-11.225,-30.657 -11.097,-30.659 -10.968,-30.66L-10.713,-30.792C-11.621,-31.426 -10.982,-31.949 -10.986,-32.335C-11.12,-32.849 -10.478,-33.113 -10.355,-33.63C-10.362,-34.274 -10.367,-34.661 -9.463,-34.541L-9.077,-34.674C-9.739,-36.342 -8.839,-36.48 -8.331,-37.259C-8.337,-37.774 -7.444,-38.557 -7.706,-38.941C-8.097,-39.323 -7.325,-39.46 -6.949,-40.494C-7.721,-40.358 -8.366,-40.48 -9.524,-40.339C-9.779,-40.079 -10.553,-40.199 -11.455,-40.19L-12.87,-39.917C-14.799,-39.51 -16.601,-39.362 -18.785,-38.824C-20.456,-38.42 -22.516,-38.269 -24.444,-37.862C-25.471,-37.465 -26.887,-37.322 -28.175,-37.308C-28.946,-37.171 -29.85,-37.29 -30.501,-37.928C-31.023,-38.566 -31.672,-38.946 -32.064,-39.457C-32.199,-40.1 -32.2,-40.229 -31.427,-40.237C-30.399,-40.506 -29.501,-40.901 -28.469,-40.784C-28.34,-40.785 -28.341,-40.914 -27.828,-41.048C-27.186,-41.184 -26.671,-41.318 -26.027,-41.325C-25.641,-41.329 -25.126,-41.463 -24.483,-41.47C-24.484,-41.599 -24.227,-41.73 -24.098,-41.732C-23.063,-41.356 -22.551,-41.619 -21.908,-41.754C-21.007,-41.893 -20.237,-42.159 -19.465,-42.167C-18.949,-42.172 -18.691,-42.175 -18.435,-42.306C-17.793,-42.442 -17.153,-42.964 -16.507,-42.713C-15.09,-42.728 -14.062,-42.997 -12.904,-43.267C-11.49,-43.539 -9.948,-43.813 -8.402,-43.83C-8.015,-43.834 -7.501,-43.968 -7.116,-44.101C-6.859,-44.103 -6.602,-44.235 -6.602,-44.235C-5.953,-43.855 -5.184,-44.121 -4.668,-44.127L-3.401,-46.201C-3.151,-46.848 -2.898,-47.366 -2.382,-47.243C-2.386,-47.63 -1.485,-47.767 -1.75,-48.409C-1.385,-50.474 -0.498,-52.03 0.641,-53.974L0.643,-53.717C0.771,-53.719 0.771,-53.719 0.769,-53.976L0.641,-53.974C0.379,-54.229 0.5,-55.004 0.629,-55.005C1.402,-55.013 2.045,-55.149 2.163,-56.181L2.157,-56.825L5.202,-61.238L8.003,-64.488L11.688,-69.295L13.087,-71.113L16.391,-75.4C17.16,-75.923 18.317,-76.064 19.214,-76.589L19.472,-76.592C20.132,-75.053 21.405,-76.483 21.798,-75.844C22.574,-75.594 23.347,-75.602 23.225,-74.957C23.354,-74.958 23.748,-74.189 24.013,-73.547C24.018,-73.032 23.767,-72.514 24.027,-72.13L24.165,-71.359C22.639,-69.41 22.161,-65.797 19.865,-63.711C19.478,-63.707 19.106,-62.415 18.982,-61.898C18.86,-61.253 17.956,-61.372 17.969,-60.084C17.972,-59.955 17.847,-59.439 17.722,-59.179C17.722,-59.179 17.599,-58.663 17.212,-58.658C16.95,-59.171 16.462,-56.46 15.692,-56.194C13.908,-54.243 14.071,-51.023 11.766,-49.711C11.771,-49.195 9.333,-48.268 9.466,-47.754L9.6,-47.369C10.773,-46.093 9.356,-46.078 8.585,-45.812L8.331,-45.551C8.717,-45.556 9.104,-45.56 9.105,-45.431C9.626,-44.921 10.521,-45.575 10.783,-45.191C10.783,-45.191 11.17,-45.195 11.296,-45.325C12.058,-46.364 13.74,-45.738 14.768,-46.006C15.283,-46.14 15.541,-46.143 16.185,-46.15L16.699,-46.155C17.479,-45.519 18.501,-46.303 19.54,-45.67C19.918,-46.447 20.696,-45.94 21.726,-46.079C22.11,-46.212 23.01,-46.479 23.662,-45.713C23.662,-45.713 24.048,-45.717 24.047,-45.846C24.172,-46.234 24.816,-46.241 25.075,-46.114C26.362,-46.257 27.391,-46.525 28.682,-46.152C28.812,-46.025 29.324,-46.288 29.583,-46.162C31.906,-45.928 33.971,-45.564 36.167,-45.072C36.554,-44.947 36.942,-44.822 37.331,-44.569C37.591,-44.442 37.464,-44.183 37.206,-44.181L35.021,-43.771C34.635,-43.638 34.121,-43.632 33.861,-43.759C33.337,-44.526 32.055,-43.998 31.41,-44.119C30.763,-44.242 29.993,-44.104 29.736,-43.973C29.092,-43.966 28.708,-43.704 28.446,-44.089C28.316,-44.216 27.8,-44.21 27.804,-43.952C27.679,-43.565 27.292,-43.561 26.775,-43.684C26.26,-43.807 25.359,-43.669 24.968,-44.052C24.967,-44.18 24.71,-44.049 24.582,-44.047C24.717,-43.405 23.809,-43.911 23.297,-43.648C22.784,-43.385 22.656,-43.383 22.65,-43.898L22.648,-44.156L22.262,-44.152C20.464,-43.489 19.824,-43.096 18.919,-43.344C18.79,-43.342 18.789,-43.472 18.66,-43.47C18.66,-43.47 18.659,-43.599 18.787,-43.6L19.429,-43.865C19.301,-43.863 18.782,-44.115 18.654,-43.985C18.01,-43.979 17.752,-43.976 17.109,-43.84C16.723,-43.836 16.468,-43.705 16.339,-43.703C15.691,-43.954 15.179,-43.691 14.924,-43.431L14.155,-43.036C13.899,-42.905 13.769,-43.032 13.639,-43.031C13.638,-43.16 13.637,-43.288 13.766,-43.29C13.894,-43.42 14.151,-43.551 14.018,-43.807C13.759,-43.933 13.244,-43.928 12.986,-43.926C12.6,-43.921 11.828,-43.784 11.442,-43.781C11.314,-43.65 11.058,-43.519 11.057,-43.648C9.766,-43.892 9.641,-43.375 8.997,-43.369C8.869,-43.367 8.355,-43.233 8.357,-43.104C8.231,-42.716 8.103,-42.714 7.715,-42.839C7.586,-42.838 7.2,-42.834 7.201,-42.705C7.202,-42.576 7.463,-42.321 6.947,-42.316C6.819,-42.315 6.559,-42.441 6.429,-42.568C6.301,-42.567 6.17,-42.694 6.17,-42.694L6.171,-42.565C6.177,-42.05 5.92,-41.919 5.669,-41.4C4.903,-40.748 4.273,-39.324 4.026,-38.291L2.621,-37.117C2.24,-36.597 1.602,-36.075 1.74,-35.174L0.341,-33.485L-0.937,-32.441L-1.694,-30.887L-3.225,-29.453C-3.219,-28.938 -4.119,-28.671 -3.726,-28.031C-3.849,-27.514 -4.107,-27.511 -4.107,-27.511C-3.957,-25.58 -9.709,-21.139 -10.476,-20.615C-11.498,-19.703 -10.717,-19.066 -11.222,-18.03C-11.73,-17.252 -12.109,-16.604 -12.874,-15.823L-15.032,-12.836L-15.643,-9.609L-16.533,-8.44L-16.763,-5.861C-17.016,-5.471 -17.657,-5.078 -17.522,-4.435C-17.504,-2.889 -18.393,-1.591 -18.377,-0.046C-18.377,-0.046 -18.373,0.341 -18.634,0.086C-18.876,1.506 -18.602,3.049 -19.103,4.472C-19.098,4.987 -18.83,6.015 -18.693,6.658C-17.642,8.58 -17.232,10.895 -14.135,11.248C-12.203,11.228 -10.915,11.214 -8.859,10.677C-7.448,10.018 -6.033,9.746 -4.622,9.215L-2.699,8.293L-0.517,7.497L-0.129,7.622L-1.534,8.796C-1.919,8.929 -3.083,8.555 -2.559,9.323C-3.2,9.587 -3.586,9.72 -3.581,10.107L-3.968,10.11C-3.968,10.11 -4.096,10.241 -4.352,10.372C-4.095,10.369 -3.961,10.755 -3.961,10.755C-3.573,10.88 -3.571,11.137 -3.954,11.399C-4.468,11.662 -4.981,11.796 -5.368,11.8L-6.908,12.332C-7.291,12.722 -8.058,13.246 -8.446,13.121C-8.446,13.121 -8.961,13.127 -8.96,13.255C-9.594,14.293 -11.147,13.536 -12.173,13.934C-12.69,13.939 -13.202,14.202 -13.596,13.433L-15.015,13.448C-15.922,12.813 -16.826,12.694 -17.739,11.673C-17.743,11.157 -18.13,11.161 -18.778,10.782C-19.166,10.657 -19.686,10.276 -20.075,10.023C-20.473,8.867 -21.902,7.851 -22.302,6.567C-22.576,5.024 -23.232,3.871 -22.603,2.447L-22.877,0.904C-22.879,0.646 -22.498,0.127 -22.631,-0.258C-22.633,-0.516 -23.025,-0.899 -22.897,-1.029C-23.029,-1.285 -23.033,-1.672 -22.775,-1.674L-22.266,-2.195C-22.14,-2.583 -22.402,-2.967 -22.402,-2.967L-22.301,-5.545L-21.915,-5.677L-22.039,-5.29ZM-50.532,5.707C-50.913,6.098 -51.684,6.492 -52.196,6.627L-52.837,7.02C-52.964,7.15 -53.219,7.411 -53.604,7.543C-54.63,8.069 -55.525,8.723 -56.031,9.502C-56.29,9.505 -56.674,9.637 -56.803,9.638C-57.06,9.77 -57.316,9.901 -57.442,10.16L-57.314,10.159C-57.695,10.678 -58.462,11.202 -59.099,11.853L-59.866,12.377L-59.738,12.375C-59.994,12.635 -60.758,13.417 -61.271,13.68C-61.397,13.939 -61.781,14.2 -62.036,14.461L-61.907,14.459C-62.161,14.848 -62.671,15.24 -62.668,15.628C-62.92,16.145 -63.173,16.534 -63.556,16.924C-63.813,17.057 -64.198,17.189 -63.936,17.573C-63.678,17.57 -63.675,17.828 -63.931,17.96C-64.187,18.22 -64.18,18.735 -64.05,18.991C-63.921,18.991 -63.918,19.248 -63.914,19.635C-63.909,20.15 -63.519,20.404 -62.619,20.265C-61.591,19.996 -60.432,19.856 -59.537,19.33L-58.638,18.935C-58.513,18.676 -57.87,18.54 -57.486,18.278C-56.591,17.625 -55.567,16.97 -54.802,16.189C-54.288,16.054 -53.655,15.017 -53.406,14.112C-53.406,14.112 -53.278,14.111 -53.15,13.981L-52.771,13.204C-52.645,13.073 -52.392,12.556 -52.267,12.297C-51.76,11.518 -51.38,10.741 -51.258,10.095C-51.261,9.837 -51.006,9.578 -51.007,9.448C-50.506,8.155 -50.648,6.997 -50.532,5.707M-83.051,-11.345L-82.423,-12.898L-82.312,-14.574L-82.696,-14.312L-84.499,-14.164C-84.756,-14.162 -85.143,-14.158 -85.398,-14.026C-85.655,-13.895 -86.04,-13.761 -86.298,-13.759L-86.555,-13.627L-87.964,-12.84C-88.349,-12.707 -88.862,-12.572 -88.989,-12.313C-89.626,-11.662 -89.878,-11.144 -90.518,-10.751C-90.648,-10.75 -90.648,-10.75 -90.646,-10.621C-91.028,-10.23 -91.54,-9.839 -91.923,-9.577L-93.069,-8.276L-92.942,-8.406L-94.082,-6.59C-94.983,-6.452 -95.364,-5.933 -95.616,-5.415L-95.995,-4.766C-96.379,-4.505 -96.506,-4.246 -96.631,-3.858L-95.988,-3.994L-93.423,-5.18L-90.987,-6.365L-89.192,-7.158L-86.501,-8.603L-84.964,-9.392L-83.309,-11.342L-83.051,-11.345ZM-65.175,22.224C-65.824,21.845 -66.472,21.337 -66.994,20.826L-67.255,20.571C-67.775,20.062 -68.166,19.551 -68.172,19.035L-68.05,18.389C-67.929,17.615 -67.68,16.839 -67.171,16.19L-66.669,14.896L-65.908,13.728C-65.912,13.47 -65.399,13.208 -65.144,12.948C-63.995,12.033 -62.846,10.862 -61.954,9.951L-62.083,9.952C-61.699,9.69 -61.185,9.555 -60.805,9.037L-60.166,8.514L-59.524,8.25C-59.269,7.99 -59.011,7.987 -58.633,7.209L-58.631,7.339C-58.25,6.947 -57.993,6.816 -57.478,6.811C-57.349,6.809 -57.093,6.678 -57.094,6.549C-56.586,5.771 -55.433,5.243 -54.281,4.587L-52.864,4.443L-52.224,4.05C-51.84,3.788 -51.328,3.525 -51.074,3.136L-51.201,3.266C-51.203,3.137 -51.205,3.008 -51.335,2.752C-51.467,2.496 -51.471,2.109 -51.348,1.592C-52.132,0.57 -51.881,-0.077 -51.89,-0.978C-51.895,-1.365 -52.029,-1.879 -52.032,-2.266C-52.429,-3.163 -52.44,-4.194 -52.579,-5.224C-52.715,-5.866 -52.723,-6.639 -52.988,-7.281C-52.989,-7.409 -53.12,-7.666 -53.122,-7.795L-53.26,-8.695C-54.03,-8.429 -54.673,-8.293 -54.932,-8.419C-54.927,-7.904 -55.566,-7.383 -55.695,-7.381L-55.824,-7.508L-56.077,-6.99L-56.585,-6.341L-58.123,-5.551C-58.633,-5.031 -58.506,-5.161 -58.888,-4.77L-59.91,-3.858L-60.554,-3.851L-62.339,-2.157L-62.081,-2.16C-61.952,-2.032 -62.331,-1.384 -62.973,-1.12C-63.23,-0.988 -63.358,-0.987 -63.736,-0.21L-64.771,-0.585C-64.513,-0.588 -64.641,-0.458 -64.777,-1.23L-64.905,-1.1C-65.285,-0.451 -65.922,0.2 -66.699,-0.05L-66.829,-0.306C-66.827,-0.048 -66.824,0.209 -66.695,0.208L-66.694,0.337L-65.922,0.2L-65.534,0.324L-66.173,0.847L-66.949,0.597C-67.078,0.599 -67.205,0.729 -67.333,0.73C-67.465,0.602 -67.462,0.731 -67.59,0.861L-67.717,1.121C-67.973,1.252 -67.845,1.122 -67.973,1.252C-68.095,1.898 -69.636,2.301 -70.532,2.954C-70.66,2.955 -69.759,2.817 -69.758,2.946C-71.291,4.251 -72.455,3.747 -73.611,4.275L-74.12,4.795L-76.047,5.331L-78.224,6.642C-78.736,6.906 -80.413,6.795 -81.052,7.316C-81.691,7.71 -82.464,7.718 -83.749,7.989C-84.134,8.252 -85.424,8.007 -85.424,8.007L-86.324,8.274C-87.095,8.411 -88.894,8.946 -88.894,8.946L-89.28,8.949C-89.795,8.955 -90.317,8.316 -90.83,8.579L-90.96,8.452C-91.344,8.714 -91.223,8.068 -91.48,8.071C-91.609,8.072 -91.607,8.329 -91.735,8.33C-93.411,8.219 -94.701,8.104 -96.124,7.475C-97.16,6.971 -98.851,5.443 -99.638,4.163L-100.03,3.651C-100.682,2.885 -100.821,1.985 -100.831,1.083L-101.344,1.216L-101.73,1.349L-103.408,0.981L-104.325,-0.427C-104.337,-1.587 -103.96,-2.492 -103.191,-2.887L-101.774,-2.902L-100.379,-4.978C-100.253,-5.237 -100.256,-5.495 -99.744,-5.887C-99.36,-6.148 -99.105,-6.409 -98.986,-7.312L-98.349,-7.963C-98.092,-8.094 -97.708,-8.356 -97.843,-8.87L-95.927,-10.565L-96.057,-10.564C-96.061,-10.95 -94.914,-12.122 -94.531,-12.513C-93.895,-13.292 -93.003,-14.204 -91.977,-14.73L-91.336,-14.994L-91.465,-14.993C-91.209,-15.125 -90.823,-15.128 -90.697,-15.516C-90.315,-15.907 -90.058,-16.038 -89.802,-16.17L-88.775,-16.568L-88.39,-16.7C-88.008,-17.091 -87.365,-17.227 -86.722,-17.233C-86.464,-17.236 -86.08,-17.498 -85.823,-17.629C-85.31,-17.892 -84.278,-17.774 -83.633,-17.653C-83.376,-17.655 -82.733,-17.791 -82.474,-17.664C-82.086,-17.54 -81.955,-17.412 -81.698,-17.415C-80.794,-17.167 -79.754,-16.404 -79.104,-15.768L-79.102,-15.638L-79.23,-15.508L-79.359,-15.507L-78.831,-14.353L-79.32,-11.9L-80.075,-10.088L-81.474,-8.398L-83.134,-6.963L-84.924,-5.656L-86.975,-4.604L-89.409,-3.29L-91.845,-2.105L-94.416,-1.562L-96.467,-0.509L-97.107,-0.245C-97.231,0.271 -96.709,0.91 -96.319,1.164L-96.313,1.808L-96.183,1.936C-95.264,3.473 -94.604,5.011 -92.926,5.252C-92.282,5.245 -91.507,5.494 -90.734,5.486L-89.829,5.735C-89.574,5.602 -89.702,5.603 -89.317,5.471L-89.445,5.601C-89.188,5.47 -88.8,5.594 -88.671,5.593C-88.158,5.459 -87.512,5.581 -86.872,5.188L-85.07,5.04L-83.397,4.764L-83.011,4.76C-82.756,4.5 -82.371,4.367 -82.497,4.627C-81.605,3.715 -78.907,2.913 -77.879,2.644L-76.344,1.598L-75.057,1.455L-73.898,1.443C-73.002,0.789 -71.856,-0.382 -70.825,-0.393C-70.443,-0.912 -69.292,-1.697 -67.494,-2.232C-67.242,-2.75 -66.729,-3.013 -65.06,-3.546C-64.545,-3.551 -64.419,-3.939 -64.037,-4.33C-64.037,-4.33 -63.91,-4.46 -63.656,-4.849L-58.535,-7.995C-58.533,-7.738 -58.276,-7.869 -58.021,-8.001L-57.893,-8.259C-57.894,-8.388 -58.024,-8.387 -58.026,-8.516C-57.9,-8.904 -56.87,-8.915 -56.609,-8.66C-56.483,-8.919 -56.098,-9.051 -55.717,-9.571C-55.597,-10.345 -54.831,-10.998 -54.315,-11.003L-54.186,-10.876L-53.545,-11.269C-53.544,-11.14 -53.289,-11.401 -53.163,-11.659L-53.545,-11.269C-53.551,-11.913 -53.174,-12.69 -53.177,-13.077C-53.183,-13.592 -53.187,-13.979 -53.192,-14.494L-53.079,-15.912C-53.086,-16.557 -52.339,-19.141 -48.626,-21.371C-48.626,-21.371 -46.576,-22.423 -46.447,-22.425C-46.318,-22.426 -46.186,-22.169 -46.057,-22.171C-44.766,-21.798 -45.151,-21.665 -43.98,-20.647C-43.451,-19.235 -45.229,-16.897 -46.517,-16.883C-46.646,-16.882 -47.031,-16.749 -47.033,-16.878L-47.286,-16.36C-46.893,-15.849 -48.685,-14.67 -48.68,-14.284C-48.931,-13.637 -48.907,-11.318 -49.03,-10.801C-48.896,-10.287 -48.886,-9.257 -48.621,-8.615L-48.473,-6.813C-48.334,-5.912 -48.196,-5.012 -47.801,-4.114L-47.923,-3.597C-47.922,-3.469 -47.92,-3.34 -47.788,-2.954C-47.784,-2.568 -48.041,-2.436 -47.263,-2.058C-47.517,-1.669 -47.514,-1.411 -47.512,-1.154L-47.507,-0.767L-47.506,-0.638L-47.496,0.392L-47.364,0.52C-46.723,0.255 -46.212,-0.136 -45.829,-0.398C-45.06,-0.793 -45.18,-0.019 -44.671,-0.539C-44.034,-1.19 -43.52,-1.453 -42.622,-1.849C-42.622,-1.849 -42.498,-2.237 -42.369,-2.239L-41.601,-2.633C-40.194,-3.678 -38.528,-4.598 -36.604,-5.392L-36.093,-5.783L-35.708,-6.045C-35.325,-6.307 -35.455,-6.306 -34.937,-6.182C-34.682,-6.443 -34.17,-6.706 -33.4,-6.971L-32.629,-7.237L-32.759,-7.236C-31.861,-7.761 -31.092,-8.026 -30.065,-8.424C-29.549,-8.429 -29.039,-8.821 -28.526,-9.213L-28.269,-9.215C-26.859,-9.875 -25.447,-10.405 -24.031,-10.549C-23.903,-10.55 -23.647,-10.81 -23.262,-10.943C-23.134,-10.945 -23.006,-11.075 -22.877,-11.076C-22.108,-11.342 -21.081,-11.74 -20.434,-11.488L-20.048,-11.493C-19.149,-11.889 -18.505,-11.895 -17.727,-11.388C-17.727,-11.388 -17.976,-10.612 -18.362,-10.609C-18.492,-10.607 -18.619,-10.477 -18.747,-10.347C-19.262,-10.341 -20.287,-9.815 -20.676,-10.069L-21.19,-9.934C-21.319,-9.933 -21.446,-9.803 -21.575,-9.801L-21.446,-9.803C-21.832,-9.67 -22.217,-9.537 -22.604,-9.533L-22.602,-9.404C-22.73,-9.274 -23.627,-8.878 -24.014,-8.874L-26.708,-7.686C-26.963,-7.554 -27.218,-7.294 -27.219,-7.423C-27.605,-7.29 -28.376,-7.024 -29.144,-6.63C-29.529,-6.497 -29.784,-6.236 -30.167,-5.974L-32.732,-4.788L-33.884,-4.003L-35.551,-3.212C-36.444,-2.43 -37.342,-2.034 -38.492,-1.12C-38.75,-1.117 -39.135,-0.984 -39.649,-0.85L-40.034,-0.717C-40.929,-0.063 -41.31,0.456 -42.208,0.724L-43.615,1.769L-44.51,2.422L-44.893,2.813L-46.171,3.857L-46.425,4.118L-46.422,4.376C-46.68,4.378 -46.68,4.378 -46.807,4.508L-46.806,4.637C-46.926,5.54 -46.787,6.441 -46.78,7.085C-46.777,7.471 -46.902,7.731 -46.901,7.859L-47.022,8.634C-47.016,9.277 -47.267,9.796 -47.389,10.441C-47.387,10.698 -47.64,11.088 -47.634,11.604L-48.405,11.998C-48.14,12.639 -48.387,13.544 -48.764,14.45L-49.145,15.099C-49.272,15.228 -49.527,15.489 -49.655,15.49C-50.426,15.756 -50.423,16.014 -50.164,16.14C-50.162,16.268 -50.544,16.788 -50.802,16.791C-50.802,16.791 -51.06,16.793 -50.929,16.921C-51.056,17.051 -51.053,17.438 -51.181,17.439C-51.694,17.702 -51.69,18.088 -52.072,18.479L-52.073,18.351C-52.456,18.741 -52.838,19.131 -53.479,19.524L-53.737,19.527L-54.376,19.921L-54.505,19.923L-55.146,20.316C-55.401,20.446 -55.658,20.449 -55.917,20.452L-56.301,20.585L-56.044,20.583C-56.68,21.362 -57.835,21.76 -58.991,22.16L-60.018,22.557C-60.532,22.691 -61.177,22.569 -61.693,22.574L-63.367,22.592C-63.882,22.597 -64.399,22.474 -65.175,22.224M-109.833,-9.387L-109.961,-9.257L-109.832,-9.258C-109.832,-9.258 -109.704,-9.388 -109.833,-9.387M-129.946,-10.333L-130.969,-9.548C-131.227,-9.545 -132.13,-9.664 -131.882,-10.569L-130.857,-11.224C-130.602,-11.356 -130.473,-11.358 -130.215,-11.36L-129.946,-10.333ZM-133.295,-10.168C-133.295,-10.168 -133.296,-10.297 -133.171,-10.556L-133.681,-10.164L-133.295,-10.168ZM-134.33,-10.544L-133.81,-10.163C-133.815,-10.549 -133.688,-10.809 -133.433,-11.068C-134.207,-11.061 -134.461,-10.929 -134.33,-10.544M-109.064,-9.782L-109.833,-9.387L-110.984,-8.602L-112.394,-7.942L-113.293,-7.547C-113.42,-7.417 -114.191,-7.279 -114.837,-7.402C-115.604,-6.749 -115.986,-6.358 -116.751,-5.578C-117.778,-5.18 -118.802,-4.526 -119.567,-3.745C-120.204,-3.093 -118.919,-3.493 -119.814,-2.84L-120.324,-2.319L-122.247,-1.397C-122.246,-1.268 -122.112,-0.883 -122.112,-0.883L-122.244,-1.01C-122.239,-0.624 -122.367,-0.494 -122.878,-0.23C-123.781,-0.222 -124.162,0.299 -124.288,0.558L-124.413,0.946L-128.377,3.822L-128.887,4.342L-129.01,4.859L-130.161,5.774L-131.183,6.428L-131.947,7.467L-132.966,8.508L-133.22,8.897L-134.113,9.681C-134.11,10.067 -134.108,10.195 -135.392,10.596L-136.153,11.763C-136.792,12.286 -137.568,11.907 -137.959,11.525L-138.219,11.27C-138.348,11.271 -138.476,11.401 -138.987,11.792C-139.505,11.541 -139.897,11.029 -140.42,10.391C-140.421,10.262 -140.549,10.263 -140.551,10.135C-141.071,9.753 -140.949,8.979 -140.7,8.203L-138.565,2.898C-137.93,2.119 -137.297,0.952 -137.048,0.177C-136.546,-1.117 -136.046,-2.54 -135.544,-3.834L-134.021,-6.04C-134.022,-6.169 -133.898,-6.557 -133.901,-6.814C-133.777,-7.331 -133.652,-7.719 -133.528,-8.107C-133.529,-8.235 -133.401,-8.366 -133.403,-8.495L-132.384,-9.665C-132.003,-10.184 -132.138,-10.698 -132.143,-11.213C-132.146,-11.471 -131.89,-11.732 -131.765,-11.991C-130.742,-12.775 -130.373,-14.454 -130.127,-15.616C-130.261,-16.001 -129.754,-16.908 -129.37,-17.169L-129.244,-17.3C-128.868,-18.335 -128.616,-18.981 -128.238,-19.758L-127.348,-20.799C-126.714,-21.836 -125.812,-21.846 -124.903,-21.211L-125.034,-21.339C-124.387,-21.088 -123.739,-20.708 -123.606,-20.323C-123.337,-19.295 -123.588,-18.648 -123.711,-18.131C-124.352,-17.738 -124.603,-17.091 -124.723,-16.317C-124.978,-16.056 -125.103,-15.669 -125.101,-15.54L-125.728,-13.858C-126.238,-13.337 -126.36,-12.692 -126.995,-11.783C-127.379,-11.522 -127.503,-11.134 -127.365,-10.233C-128.126,-9.065 -128.503,-8.16 -129.267,-7.378L-129.264,-6.992C-129.388,-6.604 -129.257,-6.348 -129.512,-6.087C-129.767,-5.827 -130.018,-5.18 -130.396,-4.403C-130.517,-3.629 -131.279,-2.59 -131.915,-1.811C-132.043,-1.68 -132.04,-1.422 -132.165,-1.035C-132.035,-0.907 -132.16,-0.648 -132.287,-0.518C-132.285,-0.26 -132.282,-0.002 -132.41,0.127C-132.538,0.258 -132.666,0.259 -132.536,0.387C-133.044,1.036 -133.296,1.683 -133.547,2.33L-134.052,3.238L-133.03,2.453C-132.387,2.318 -131.879,1.668 -131.623,1.408L-130.346,0.364C-129.705,0.099 -128.296,-0.818 -128.047,-1.593L-128.174,-1.463C-128.05,-1.851 -127.794,-1.983 -127.152,-2.247C-126.384,-2.642 -125.876,-3.292 -125.493,-3.811C-124.596,-4.206 -123.578,-5.377 -122.677,-5.515C-122.038,-6.037 -121.273,-6.818 -120.632,-7.083C-119.223,-7.871 -119.354,-8.127 -119.231,-8.644C-118.593,-9.166 -117.822,-9.432 -117.436,-9.565L-116.797,-9.958L-115.383,-10.359C-115.258,-10.619 -114.621,-11.269 -114.239,-11.789C-114.239,-11.789 -114.11,-11.79 -113.725,-11.923L-110.641,-12.729C-110.126,-12.734 -109.224,-12.744 -108.707,-12.491C-107.8,-12.114 -106.635,-11.611 -105.985,-11.102C-105.984,-10.974 -105.984,-10.974 -105.855,-10.975C-105.593,-10.591 -105.077,-10.468 -105.332,-10.208C-105.331,-10.079 -105.329,-9.95 -105.199,-9.822C-104.806,-9.182 -104.41,-8.285 -104.794,-8.023L-105.557,-7.113C-105.427,-6.986 -105.555,-6.855 -105.68,-6.596C-105.93,-5.82 -106.308,-4.915 -106.56,-4.396L-107.067,-3.618C-107.58,-3.484 -109.255,-3.466 -109.256,-3.595C-109.519,-3.979 -109.522,-4.365 -109.525,-4.623C-109.272,-5.012 -109.277,-5.527 -109.282,-5.914C-109.031,-6.561 -109.034,-6.947 -108.525,-7.468C-108.659,-7.982 -108.536,-8.499 -108.538,-8.756L-108.419,-9.659L-109.191,-9.651L-109.064,-9.782ZM-145.055,-1.283L-144.927,-1.284C-144.927,-1.284 -145.188,-1.668 -144.808,-2.317L-144.294,-2.451C-143.913,-2.97 -143.778,-2.456 -143.392,-2.46L-143.267,-2.719L-143.655,-2.973C-143.785,-2.971 -143.912,-2.841 -144.041,-2.84L-145.198,-2.569C-145.321,-2.053 -145.447,-1.794 -145.705,-1.791C-145.703,-1.663 -145.702,-1.533 -145.829,-1.404C-145.701,-1.405 -145.701,-1.405 -145.573,-1.535C-145.313,-1.28 -145.055,-1.283 -145.055,-1.283M-149.799,0.957L-149.416,0.567L-149.673,0.569C-149.673,0.699 -149.671,0.827 -149.799,0.957M-197.964,-33.453C-197.961,-33.324 -197.833,-33.326 -197.957,-32.938C-197.956,-32.809 -198.081,-32.421 -198.08,-32.292L-197.437,-32.428L-197.57,-32.813L-197.318,-33.331L-197.964,-33.453ZM-147.976,2.743C-148.226,3.518 -148.482,3.649 -149.382,3.917C-149.891,4.437 -150.528,5.088 -151.17,5.223L-152.197,5.75C-152.96,6.66 -153.986,7.186 -154.753,7.71L-155.782,7.849L-156.679,8.245C-157.057,9.151 -157.954,9.548 -158.215,9.292C-158.339,9.68 -158.466,9.939 -158.852,9.943C-158.981,9.945 -159.109,10.074 -159.238,10.076L-159.109,10.074C-159.748,10.468 -160.005,10.6 -160.649,10.606C-160.385,11.119 -160.641,11.379 -161.026,11.513L-162.179,12.169C-162.308,12.17 -162.822,12.304 -162.951,12.305L-163.079,12.307C-163.206,12.566 -163.845,12.959 -164.1,13.219C-164.355,13.48 -164.741,13.613 -164.999,13.615L-165.127,13.617C-165.126,13.746 -165.254,13.747 -165.384,13.749L-166.536,14.405C-166.92,14.666 -167.434,14.801 -167.691,14.803C-168.338,14.682 -168.591,14.942 -168.846,15.331C-169.354,15.981 -169.607,16.37 -170.123,16.375C-170.252,16.377 -170.38,16.507 -170.507,16.637L-171.017,17.029C-171.399,17.548 -172.3,17.687 -172.426,17.817L-173.328,17.827C-173.457,17.828 -173.846,17.703 -173.844,17.832C-173.965,18.606 -173.576,18.86 -174.216,19.253C-174.472,19.384 -175.114,19.649 -174.986,19.519L-175.628,19.783L-175.626,19.912C-175.626,19.912 -175.884,19.915 -175.886,19.786L-176.653,20.309C-177.166,20.573 -177.805,20.966 -178.706,21.104L-178.834,21.234C-180.489,23.056 -183.192,23.342 -185.25,23.75C-185.893,23.885 -187.05,24.026 -187.562,24.418L-188.588,24.816C-189.103,24.822 -189.36,24.953 -189.745,25.086C-190.643,25.482 -191.542,25.619 -192.446,25.501C-193.469,26.285 -194.241,26.422 -195.53,26.307C-195.788,26.309 -196.304,26.185 -196.562,26.187C-197.205,26.324 -197.979,26.203 -198.625,26.081C-198.884,25.955 -199.012,26.085 -199.269,26.088C-200.3,26.098 -201.461,25.982 -202.365,25.733C-204.685,25.629 -206.887,24.621 -208.959,23.613L-209.993,23.238L-209.863,23.365C-211.029,22.732 -212.198,21.972 -212.981,20.821L-213.371,20.696C-213.762,20.184 -214.152,19.802 -214.285,19.417C-214.553,18.389 -215.335,17.623 -216.114,17.117C-217.543,15.973 -218.585,14.824 -218.735,12.893C-218.735,12.893 -218.863,12.894 -219.124,12.639L-219.395,11.353L-219.267,11.352C-219.526,11.097 -219.661,10.583 -219.665,10.196L-220.358,5.565L-220.368,4.664C-220.371,4.406 -220.245,4.018 -219.991,3.758L-219.997,3.113C-220.133,2.471 -219.881,1.952 -219.628,1.563L-219.372,1.304C-219.249,0.786 -218.997,0.268 -219.002,-0.247L-218.631,-1.668C-218.514,-2.829 -218.264,-3.605 -217.887,-4.511L-217.383,-5.547L-217.012,-6.968L-216.504,-7.747C-216.255,-8.651 -215.743,-8.914 -215.359,-9.176C-215.231,-9.177 -215.231,-9.177 -214.845,-9.31C-215.103,-9.307 -215.362,-9.434 -215.496,-9.947L-214.476,-10.86C-214.093,-11.25 -214.225,-11.507 -214.361,-12.279C-213.721,-12.672 -213.724,-12.929 -213.727,-13.187C-213.73,-13.445 -213.607,-14.09 -213.225,-14.481C-212.714,-15.002 -212.334,-15.65 -211.698,-16.301C-211.578,-17.204 -211.327,-17.723 -210.562,-18.503L-210.185,-19.409L-209.164,-20.321C-208.909,-20.711 -208.656,-21.101 -208.534,-21.746C-208.539,-22.132 -208.411,-22.262 -208.156,-22.522C-207.008,-23.565 -206.244,-24.604 -205.358,-26.031C-204.21,-27.074 -203.579,-28.369 -202.432,-29.54L-201.285,-30.841C-201.031,-31.102 -199.756,-32.404 -199.632,-32.92C-198.998,-33.829 -198.109,-35.127 -197.211,-35.394C-196.825,-35.527 -196.571,-35.915 -196.189,-36.306C-195.943,-37.34 -194.921,-38.253 -194.158,-39.162L-193.646,-39.554L-192.114,-40.859L-191.218,-41.513L-190.198,-42.425C-189.688,-42.946 -189.042,-42.824 -189.048,-43.339L-188.284,-44.249C-187.77,-44.383 -187.257,-44.518 -187.003,-45.036C-187.007,-45.293 -186.884,-45.81 -186.499,-45.943C-185.473,-46.469 -184.58,-47.252 -184.068,-47.644C-183.046,-48.427 -182.408,-49.078 -181.255,-49.735C-180.87,-49.867 -180.358,-50.131 -179.969,-49.877L-179.331,-50.528C-179.078,-50.917 -178.181,-51.442 -177.664,-51.319C-177.413,-51.965 -176.52,-52.748 -175.746,-52.756L-175.361,-52.889C-173.96,-54.45 -172.041,-55.63 -169.349,-56.947L-167.167,-57.871C-165.888,-58.658 -164.475,-59.059 -163.32,-59.587C-160.752,-60.387 -157.539,-61.194 -154.708,-61.481C-153.68,-61.75 -152.263,-61.765 -151.353,-61.002C-151.093,-60.746 -151.353,-61.002 -151.095,-61.004C-150.329,-61.656 -149.293,-61.152 -148.386,-60.774C-148.258,-60.776 -148.257,-60.647 -148.127,-60.648C-147.226,-60.658 -146.443,-59.765 -145.924,-59.255L-145.402,-58.745L-145.661,-58.871C-145.398,-58.358 -145.008,-57.976 -144.751,-58.107C-144.365,-58.112 -143.716,-57.731 -143.586,-57.476L-143.587,-57.604C-143.451,-56.962 -143.189,-56.706 -142.93,-56.451C-142.668,-56.067 -142.022,-55.817 -141.885,-55.174C-141.882,-54.916 -141.753,-54.789 -141.75,-54.531C-141.356,-53.762 -141.218,-52.99 -141.082,-52.219C-140.95,-51.963 -140.817,-51.578 -140.943,-51.319C-141.194,-50.672 -141.194,-50.672 -141.065,-50.544C-140.413,-49.907 -140.535,-49.261 -141.046,-48.87C-141.173,-48.611 -141.299,-48.48 -141.17,-48.353L-141.155,-47.064C-141.666,-46.544 -141.92,-46.154 -141.657,-45.642C-141.636,-43.709 -142.14,-42.673 -142.901,-41.506L-143.151,-40.73C-143.013,-39.958 -143.393,-39.31 -143.902,-38.66C-144.157,-38.4 -144.409,-37.882 -144.531,-37.236C-144.914,-36.846 -145.294,-36.198 -145.288,-35.682C-145.412,-35.294 -145.533,-34.52 -145.789,-34.26C-146.425,-33.48 -146.676,-32.833 -146.923,-31.929L-146.916,-31.284C-147.04,-30.768 -147.293,-30.25 -147.546,-29.86C-147.927,-29.341 -148.83,-29.332 -149.22,-29.714C-150.39,-30.732 -151.561,-31.751 -152.475,-32.901C-152.606,-33.157 -152.485,-33.932 -152.361,-34.32L-151.728,-35.486C-151.604,-36.002 -151.225,-36.651 -151.23,-37.166L-150.855,-38.201C-150.728,-38.331 -150.472,-38.591 -150.475,-38.849L-149.474,-41.565C-148.707,-42.218 -148.457,-42.864 -148.208,-43.769L-147.2,-45.97C-146.946,-46.23 -146.82,-46.618 -146.7,-47.393L-146.463,-49.456L-145.714,-51.655L-145.717,-52.041C-146.242,-52.809 -146.116,-53.068 -146.122,-53.712C-146.122,-53.712 -145.866,-53.844 -145.737,-53.845C-145.742,-54.232 -146.52,-54.739 -146.779,-54.865L-148.722,-55.875C-149.109,-55.871 -149.496,-55.996 -149.883,-55.992C-150.655,-55.984 -151.042,-55.979 -151.43,-56.104C-151.686,-55.973 -152.072,-55.84 -152.072,-55.84C-152.727,-56.864 -152.724,-56.606 -152.723,-56.477C-153.107,-56.216 -153.234,-56.085 -153.363,-56.084C-154.133,-55.818 -154.905,-55.81 -155.81,-55.93C-156.97,-56.046 -157.873,-56.165 -158.769,-55.64C-159.149,-54.992 -159.407,-54.99 -159.536,-54.988C-159.665,-54.987 -160.049,-54.854 -160.048,-54.725C-160.171,-54.209 -161.074,-54.199 -161.59,-54.194C-162.362,-54.185 -163.515,-53.658 -164.153,-53.007C-165.176,-52.223 -166.203,-51.826 -167.489,-51.683C-168.39,-51.545 -169.799,-50.757 -170.695,-50.232C-171.207,-49.841 -172.1,-49.058 -172.746,-49.309L-174.663,-47.742C-174.662,-47.614 -175.432,-47.348 -175.561,-47.346L-176.713,-46.562L-177.866,-46.034L-177.868,-46.163L-179.016,-45.12C-179.652,-44.34 -181.95,-42.254 -181.95,-42.254C-181.823,-42.384 -184.507,-40.423 -185.271,-39.514L-186.165,-38.731L-187.187,-37.947L-187.06,-38.077C-187.572,-37.814 -187.822,-37.038 -188.334,-36.775C-188.588,-36.386 -188.973,-36.254 -189.483,-35.733C-190.124,-35.468 -190.507,-35.077 -190.761,-34.817L-191.909,-33.646L-193.188,-32.73L-193.691,-31.565C-193.686,-31.05 -194.197,-30.658 -194.579,-30.267C-194.579,-30.267 -194.963,-30.006 -195.347,-29.744C-195.471,-29.227 -196.108,-28.576 -196.748,-28.183L-198.276,-26.492L-200.059,-24.541C-200.06,-24.669 -201.072,-22.726 -201.196,-22.338L-201.069,-22.469L-202.336,-20.523C-203.234,-20.126 -203.61,-19.092 -204.246,-18.312C-204.497,-17.794 -204.752,-17.405 -205.261,-16.755C-205.771,-16.363 -205.895,-15.846 -206.402,-15.068C-206.657,-14.807 -206.655,-14.55 -207.037,-14.159C-207.037,-14.159 -208.432,-11.955 -208.933,-10.661L-210.321,-7.811C-211.463,-6.253 -212.219,-4.571 -212.593,-3.407L-212.718,-3.019C-212.963,-1.857 -213.47,-1.078 -214.104,-0.17L-213.977,-0.299L-213.967,0.73C-213.966,0.86 -214.092,0.99 -214.22,1.12C-214.085,1.634 -214.083,1.892 -214.337,2.281C-214.976,2.803 -214.84,3.445 -214.961,4.22C-214.958,4.478 -215.086,4.608 -214.956,4.735L-215.076,5.51C-215.075,5.639 -215.2,6.026 -215.197,6.156C-215.193,6.67 -215.316,7.188 -215.18,7.959L-215.301,8.604C-215.295,9.249 -215.155,10.149 -215.018,11.049C-214.888,11.177 -214.755,11.433 -214.752,11.82C-214.607,13.365 -213.691,14.644 -212.778,15.665L-211.213,17.452C-210.698,17.447 -210.178,17.956 -209.53,18.207C-209.271,18.333 -209.528,18.465 -207.59,18.96L-207.322,19.859L-205.254,20.481L-202.804,20.713C-200.995,21.21 -199.189,21.448 -197.516,21.173C-197.13,21.169 -196.743,21.294 -196.097,21.416C-195.839,21.413 -195.324,21.408 -194.941,21.146L-193.015,20.481C-192.886,20.48 -192.372,20.346 -192.243,20.345C-190.187,19.808 -188.133,19.142 -186.336,18.479C-185.693,18.343 -185.435,18.34 -185.304,18.597C-185.184,17.694 -184.54,17.687 -183.51,17.547L-183.258,17.158C-182.746,16.766 -182.236,16.244 -181.584,17.011C-181.456,16.881 -181.198,16.878 -180.943,16.747L-178.509,15.433C-177.737,15.167 -177.488,14.391 -177.101,14.387C-176.973,14.386 -176.587,14.252 -176.459,14.251C-176.201,14.249 -175.685,14.243 -175.302,13.981L-174.53,13.973C-174.021,13.324 -174.268,14.228 -173.625,14.093C-173.627,13.964 -172.861,13.312 -172.861,13.312C-172.35,12.92 -171.59,11.623 -170.69,11.485C-170.047,11.349 -169.913,11.734 -169.277,11.083C-169.149,10.954 -168.763,10.949 -168.635,10.948C-168.25,10.815 -167.608,10.55 -167.227,10.031C-166.842,9.769 -166.715,9.64 -166.328,9.636C-166.2,9.634 -166.199,9.763 -165.942,9.631C-165.813,9.63 -165.813,9.63 -165.815,9.501C-165.561,9.112 -165.309,8.593 -164.924,8.461L-161.717,7.139L-161.331,7.005L-159.413,5.697L-157.362,4.645C-157.104,4.642 -156.843,4.897 -156.339,3.861C-155.952,3.986 -155.566,3.982 -155.568,3.724C-155.448,2.82 -155.063,2.688 -154.159,2.936L-154.166,2.292L-153.521,2.285L-153.265,2.153C-153.268,1.896 -152.885,1.505 -152.499,1.501L-152.496,1.759L-150.958,0.97L-150.182,1.219L-150.95,1.743C-150.822,1.742 -150.435,1.737 -150.179,1.606L-149.799,0.957L-149.928,0.959L-149.803,0.571L-149.681,-0.075C-149.681,-0.075 -149.809,-0.073 -148.148,-1.379L-146.998,-2.293C-146.998,-2.293 -146.742,-2.425 -146.614,-2.426C-146.359,-2.815 -145.847,-3.079 -145.205,-3.214C-144.696,-3.863 -143.927,-4.259 -143.413,-4.521C-143.416,-4.65 -143.416,-4.779 -143.034,-5.169C-141.367,-5.961 -139.705,-7.137 -138.941,-8.047C-138.812,-8.048 -137.143,-8.581 -136.631,-8.845L-136.504,-8.974C-136.637,-9.488 -136.385,-10.007 -135.489,-10.532C-135.489,-10.532 -134.467,-11.445 -133.697,-11.71L-132.924,-11.718L-132.418,-12.497L-131.776,-12.761L-131.133,-12.897L-130.875,-12.899L-130.487,-12.646C-130.483,-12.388 -130.483,-12.388 -131.118,-11.48L-132.015,-11.084C-131.883,-10.699 -132.006,-10.182 -132.26,-9.793L-132.002,-9.796L-131.992,-8.765L-133.014,-7.98L-134.678,-6.932C-134.938,-7.188 -135.198,-7.443 -135.203,-7.829C-135.461,-7.826 -135.718,-7.824 -135.977,-7.95L-137.894,-6.512L-139.299,-5.338L-140.321,-4.424C-139.937,-4.687 -139.426,-5.078 -139.426,-5.078C-139.291,-4.565 -139.163,-4.566 -139.035,-4.696L-138.525,-5.217C-138.398,-5.347 -138.402,-5.733 -137.759,-5.87C-137.636,-6.385 -137.38,-6.518 -136.995,-6.65C-136.35,-6.657 -136.094,-6.789 -135.197,-7.313L-134.804,-6.673C-135.694,-5.505 -136.465,-5.367 -137.237,-5.23C-137.354,-4.199 -137.995,-3.806 -138.764,-3.41L-139.277,-3.148C-139.91,-2.109 -141.191,-1.452 -142.599,-0.535L-143.492,0.247L-144.007,0.381C-144.134,0.512 -144.772,1.163 -145.03,1.165L-145.157,1.295C-147.075,2.732 -147.457,3.123 -147.976,2.743M-306.062,3.893C-305.549,3.758 -304.504,5.036 -303.863,4.772C-303.347,4.766 -302.077,3.078 -301.821,2.947C-300.294,0.998 -300.167,0.869 -298.506,-0.439C-297.101,-1.612 -297.011,-5.35 -295.612,-7.039C-295.617,-7.426 -295.49,-7.684 -295.493,-7.943C-295.628,-8.457 -295.759,-8.713 -296.145,-8.709C-296.531,-8.705 -297.173,-8.44 -297.431,-8.438C-298.064,-7.4 -301.276,-6.593 -301.529,-6.076C-302.163,-5.167 -303.187,-4.512 -303.438,-3.865C-304.202,-2.954 -305.095,-2.173 -305.086,-1.27C-306.106,-0.229 -305.57,1.698 -306.459,2.996C-306.328,3.124 -306.065,3.635 -306.062,3.893M-231.487,1.433C-231.606,2.337 -232.495,3.505 -233.393,3.902L-234.921,5.593L-236.209,5.606C-236.975,6.258 -238.131,6.657 -238.772,7.05L-239.8,7.319C-240.442,7.455 -242.363,8.506 -243.65,8.648C-243.65,8.648 -244.038,8.523 -244.168,8.525C-244.425,8.527 -244.555,8.4 -244.685,8.273L-244.557,8.271L-244.946,8.018C-245.074,8.019 -245.076,7.889 -245.333,7.894C-245.333,7.894 -245.466,7.637 -245.594,7.638C-245.853,7.512 -245.982,7.513 -246.625,7.649C-246.755,7.521 -246.886,7.265 -246.889,7.007C-246.765,6.62 -246.765,6.491 -247.157,6.108L-248.078,4.185C-248.596,3.933 -248.729,3.547 -249.374,3.426L-249.633,3.3L-249.911,1.37L-250.178,0.599C-250.184,-0.044 -250.191,-0.688 -250.582,-1.07L-250.453,-1.073C-250.456,-1.33 -250.33,-1.589 -250.204,-1.977C-250.083,-2.622 -250.091,-3.396 -250.355,-4.037L-250.369,-5.325C-250.252,-6.486 -248.747,-10.367 -249.516,-9.973L-251.187,-9.569L-251.057,-9.441C-251.699,-9.306 -253.366,-8.514 -253.238,-8.646L-255.669,-6.945L-257.589,-5.765L-257.461,-5.895L-258.355,-5.113L-259.632,-4.069L-260.402,-3.673C-260.784,-3.283 -262.829,-1.715 -261.299,-3.278L-263.856,-1.318C-264.367,-0.926 -264.753,-0.922 -265.261,-0.144C-266.031,0.122 -266.287,0.254 -266.542,0.515C-266.541,0.643 -266.667,0.902 -266.665,1.031C-266.918,1.549 -267.305,1.553 -267.563,1.426C-267.562,1.556 -267.945,1.946 -267.943,2.075C-268.324,2.595 -268.834,3.114 -269.602,3.51L-269.604,3.381C-269.859,3.641 -270.763,3.523 -270.624,4.422C-270.622,4.551 -270.878,4.812 -270.876,4.941C-272.284,5.857 -273.309,6.384 -274.074,7.165L-275.482,8.081L-276.116,8.99C-276.244,9.12 -276.368,9.508 -276.368,9.508C-277.005,10.287 -277.899,10.941 -278.796,11.466C-279.436,11.859 -279.819,12.25 -280.198,12.899C-280.833,13.806 -281.994,13.69 -282.389,12.922C-282.784,12.152 -283.041,12.156 -283.173,11.899L-283.83,10.618L-283.701,10.615C-284.346,10.494 -284.35,10.107 -284.098,9.718C-283.591,8.811 -283.089,7.517 -282.709,6.997L-282.707,7.127C-282.587,6.223 -282.333,5.963 -282.079,5.574L-281.443,4.794L-281.572,4.795L-281.065,4.017C-280.682,3.626 -280.179,2.462 -279.928,1.815C-279.801,1.684 -279.673,1.554 -279.419,1.294L-279.036,0.903C-278.656,0.255 -278.031,-1.555 -277.651,-2.074L-277.649,-1.946C-277.651,-2.074 -277.395,-2.335 -277.397,-2.464L-277.398,-2.593C-276.885,-2.857 -276.632,-3.245 -276.381,-3.893L-275.245,-6.094C-274.735,-6.744 -274.231,-7.779 -273.854,-8.686L-273.984,-8.684L-273.098,-10.24L-272.463,-11.149L-272.591,-11.018C-272.594,-11.276 -272.465,-11.406 -272.465,-11.406C-272.467,-11.536 -272.083,-11.796 -272.085,-11.926C-271.701,-12.188 -271.576,-12.576 -271.579,-12.833C-271.455,-13.349 -271.33,-13.737 -271.076,-14.126L-271.206,-14.125L-271.463,-14.122C-271.336,-14.253 -271.339,-14.511 -271.083,-14.771C-277.384,-13.545 -287.502,-7.769 -292.412,-9.005L-292.409,-8.748C-292.277,-8.493 -292.274,-8.235 -292.014,-7.979L-292.013,-7.851L-292.756,-5.007L-295.273,0.688C-295.39,1.848 -295.642,2.367 -296.535,3.149C-297.816,3.935 -298.064,4.84 -298.825,6.008C-298.948,6.525 -299.586,7.176 -300.484,7.442C-301.123,7.965 -302.668,8.11 -302.791,8.627C-304.07,9.542 -305.745,9.559 -306.777,9.442C-306.653,9.053 -306.91,9.056 -307.298,8.932C-308.456,9.073 -309.362,8.696 -309.377,7.278C-310.542,6.647 -310.298,5.484 -310.559,5.1C-310.834,3.557 -310.715,2.524 -310.216,0.974C-309.979,-0.961 -308.966,-2.647 -307.693,-4.078C-305.921,-7.189 -304.263,-8.753 -301.712,-11.227C-300.175,-12.146 -298.386,-13.581 -296.851,-14.499C-296.597,-14.89 -295.949,-14.51 -295.562,-14.513C-294.269,-14.14 -293.229,-13.25 -292.07,-13.261C-291.04,-13.401 -290.648,-12.89 -290.13,-12.509C-289.872,-12.512 -289.737,-11.997 -289.737,-11.997L-289.736,-11.869C-286.012,-13.068 -277.529,-15.09 -274.964,-16.147C-271.754,-17.211 -268.025,-17.895 -266.19,-14.951L-266.318,-14.95L-266.446,-14.82L-266.575,-14.819L-266.441,-14.304C-266.44,-14.175 -266.436,-13.918 -266.307,-13.919C-265.786,-13.41 -266.168,-12.89 -266.421,-12.501C-266.806,-12.238 -267.188,-11.848 -267.437,-11.073L-267.559,-10.428L-268.964,-9.253C-269.091,-9.123 -268.961,-8.866 -268.955,-8.35C-269.071,-7.19 -268.691,-7.839 -269.203,-7.447C-269.842,-6.924 -270.091,-6.149 -270.471,-5.5L-270.721,-4.854C-270.721,-4.854 -271.23,-4.204 -271.355,-3.816L-271.733,-3.039C-272.756,-2.255 -273.514,-0.83 -274.274,0.338L-274.269,0.853C-274.908,1.376 -275.289,1.894 -275.538,2.671L-276.044,3.577L-275.279,2.796L-273.616,1.62C-273.36,1.487 -273.619,1.362 -272.59,1.222L-272.079,0.83C-272.081,0.701 -271.956,0.313 -271.957,0.185C-271.703,-0.204 -271.577,-0.464 -270.933,-0.471C-270.814,-1.374 -270.3,-1.508 -269.916,-1.769L-269.66,-1.901C-269.535,-2.288 -268.895,-2.682 -268.252,-2.818L-268.509,-2.687C-268.509,-2.687 -267.612,-3.211 -267.102,-3.732C-266.848,-4.121 -266.207,-4.385 -265.827,-5.034L-264.678,-5.948C-264.549,-5.949 -264.549,-5.949 -264.55,-6.078C-264.295,-6.339 -263.781,-6.472 -263.653,-6.474L-263.14,-6.737L-263.269,-6.735C-263.141,-6.867 -263.012,-6.868 -263.012,-6.868L-262.118,-7.65L-262.247,-7.648C-262.12,-7.778 -261.606,-7.913 -261.09,-7.918C-261.097,-8.562 -260.328,-8.957 -259.557,-9.094L-258.787,-9.489L-258.272,-9.494C-258.143,-9.496 -258.145,-9.624 -258.146,-9.754L-257.382,-10.663C-257,-11.054 -256.491,-11.574 -255.718,-11.582L-253.023,-12.642C-252.385,-13.292 -251.355,-13.304 -250.839,-13.309L-250.452,-13.184C-250.067,-13.317 -249.938,-13.318 -249.68,-13.321C-249.418,-12.938 -249.929,-12.416 -249.541,-12.42L-249.155,-12.424C-248.893,-12.041 -248.377,-11.918 -248.115,-11.534L-247.076,-10.772L-246.948,-10.902C-246.301,-10.522 -246.387,-6.527 -246.506,-5.495C-246.373,-5.238 -246.496,-4.593 -246.623,-4.463L-246.222,-3.05L-246.591,-1.371C-246.71,-0.467 -246.702,0.305 -246.18,0.944L-246.432,1.463C-246.8,3.269 -246.021,3.776 -244.982,4.54C-243.946,5.044 -242.922,4.388 -241.765,4.247C-241.38,4.115 -240.995,3.852 -240.61,3.849C-240.226,3.458 -239.321,3.836 -238.675,3.957C-238.289,3.953 -238.165,3.437 -237.778,3.433C-237.78,3.303 -237.398,2.913 -237.27,2.784C-236.761,2.134 -236.378,1.872 -235.733,1.865C-235.735,1.736 -235.607,1.606 -235.609,1.477C-235.098,0.956 -234.462,0.305 -233.947,0.172L-233.435,-0.092L-233.434,0.037L-232.801,-1.001C-232.286,-1.135 -232.035,-1.782 -231.132,-1.663C-230.876,-1.793 -230.88,-2.181 -230.881,-2.309L-230.245,-3.089L-229.094,-3.874C-229.094,-3.874 -228.578,-3.88 -228.313,-3.109C-228.57,-3.106 -228.827,-2.975 -228.955,-2.974C-229.083,-2.844 -229.21,-2.713 -229.34,-2.712L-229.335,-2.197L-229.714,-1.549C-230.098,-1.287 -230.353,-1.026 -230.602,-0.251C-230.467,0.392 -230.722,0.653 -230.716,1.168L-231.487,1.433ZM-363.767,5.921C-363.641,5.662 -363.387,5.401 -363.516,5.274L-363.02,3.464L-362.396,1.525L-361.247,0.482C-361.51,0.099 -361.259,-0.549 -360.751,-1.327C-360.754,-1.585 -360.757,-1.971 -360.76,-2.229L-360.25,-2.749L-360.249,-2.621C-360.25,-2.749 -359.994,-2.881 -359.995,-3.009C-359.874,-3.655 -359.624,-4.432 -359.243,-4.95C-358.736,-5.729 -358.611,-6.117 -358.485,-6.375C-358.485,-6.375 -358.742,-6.244 -358.999,-6.241C-359.255,-6.111 -360.152,-5.585 -360.28,-5.584C-360.279,-5.455 -360.533,-5.065 -360.916,-4.804L-361.689,-4.796C-362.205,-4.79 -362.717,-4.398 -362.971,-4.138C-362.967,-3.752 -363.093,-3.492 -363.348,-3.232C-364.247,-2.965 -364.631,-2.703 -364.886,-2.442L-365.91,-1.788C-366.036,-1.528 -366.292,-1.397 -366.549,-1.266C-366.673,-0.877 -367.183,-0.358 -367.694,0.034L-367.696,-0.094L-368.456,1.075L-369.737,1.861L-370.758,2.773C-371.269,3.165 -371.908,3.687 -371.908,3.687C-372.675,4.21 -373.569,4.993 -373.568,5.122C-373.565,5.38 -374.845,6.166 -375.232,6.17C-375.361,6.171 -375.49,6.172 -375.486,6.559C-375.483,6.817 -376.249,7.469 -376.633,7.731L-377.015,8.122C-377.398,8.511 -377.909,8.904 -378.287,9.681C-378.415,9.811 -378.668,10.199 -378.668,10.199C-379.441,10.208 -379.695,10.598 -380.076,11.117L-380.464,10.992L-380.328,11.635C-381.101,11.643 -381.613,12.035 -381.61,12.293C-382.498,13.591 -382.884,13.594 -384.173,13.608C-384.815,13.743 -385.334,13.492 -385.344,12.461C-385.346,12.332 -385.477,12.076 -385.479,11.947C-385.609,11.819 -385.611,11.561 -385.611,11.561C-386.519,11.057 -385.635,9.372 -385.251,9.111C-385.252,8.981 -384.996,8.85 -384.869,8.72L-385.129,8.464C-384.623,7.557 -384.495,7.427 -384.372,6.91L-384.247,6.523L-383.487,5.354L-383.106,4.836C-382.723,4.445 -382.47,4.056 -382.472,3.799C-382.475,3.541 -382.478,3.283 -382.352,3.023L-381.336,1.596L-380.824,1.204C-380.315,0.683 -380.065,-0.093 -379.684,-0.612C-379.686,-0.741 -379.558,-0.87 -379.559,-1L-378.8,-2.297L-378.038,-3.335L-376.891,-4.507L-377.021,-4.635L-376.512,-5.285L-376.51,-5.155C-376.006,-6.191 -375.118,-7.489 -374.352,-8.141L-373.968,-8.403L-372.952,-9.831L-371.299,-11.911C-370.533,-12.563 -370.024,-13.212 -369.516,-13.862L-368.502,-15.418C-367.482,-16.46 -367.482,-16.46 -366.312,-15.57C-366.052,-15.315 -366.052,-15.315 -365.665,-15.319C-365.534,-15.062 -365.404,-14.935 -364.759,-14.813C-363.721,-14.18 -363.707,-12.891 -364.732,-12.366L-366.531,-11.831L-366.402,-11.833C-366.784,-11.443 -367.171,-11.438 -367.171,-11.438L-366.912,-11.311C-367.04,-11.182 -367.034,-10.666 -367.159,-10.278L-368.177,-9.108L-369.194,-7.809L-369.578,-7.548L-370.209,-6.253L-370.465,-6.121C-370.716,-5.474 -371.225,-4.825 -372.38,-4.425C-372.375,-3.91 -372.753,-3.133 -373.137,-2.872C-373.134,-2.614 -373.392,-2.611 -373.776,-2.349C-373.903,-2.219 -374.029,-1.96 -374.151,-1.315C-374.665,-1.181 -375.042,-0.274 -375.294,0.244L-376.819,2.322C-377.583,3.102 -378.599,4.531 -379.36,5.698L-378.469,4.658C-377.193,3.484 -375.788,2.311 -375.406,1.79L-374.386,0.878C-373.488,0.482 -372.344,-1.076 -371.836,-1.725L-371.332,-2.761C-371.332,-2.761 -371.074,-2.765 -370.818,-2.895C-370.689,-2.897 -370.561,-3.027 -370.561,-3.027C-370.438,-3.544 -370.183,-3.804 -369.669,-3.938L-369.797,-3.937L-368.523,-5.239C-367.622,-5.377 -367.368,-5.637 -367.113,-5.898C-366.346,-6.551 -366.091,-6.682 -365.578,-6.946L-364.809,-7.34L-364.937,-7.339L-364.297,-7.732C-364.297,-7.732 -364.17,-7.861 -364.171,-7.991C-362.252,-9.171 -360.327,-9.964 -359.042,-10.363C-358.914,-10.365 -358.268,-10.244 -358.009,-10.118C-357.751,-10.12 -357.492,-9.994 -357.104,-9.869C-356.976,-9.871 -356.845,-9.744 -356.716,-9.745C-356.457,-9.618 -356.199,-9.492 -356.069,-9.494C-355.42,-8.984 -355.028,-8.473 -354.631,-7.447C-354.488,-6.16 -354.477,-5.129 -355.238,-3.963C-355.364,-3.574 -355.488,-3.186 -355.485,-2.928L-355.983,-1.249C-355.981,-1.119 -355.849,-0.734 -355.849,-0.734L-357.37,1.601C-357.498,1.732 -357.621,2.248 -357.62,2.377L-358.249,3.801C-358.377,3.931 -358.503,4.191 -358.5,4.448C-358.494,4.963 -358.49,5.35 -359.001,5.87L-359.001,5.741C-359.254,6.26 -359.248,6.775 -359.372,7.291C-359.371,7.42 -359.497,7.679 -359.623,7.939C-359.621,8.067 -359.62,8.197 -359.49,8.324C-359.361,8.322 -359.362,8.193 -359.105,8.191C-358.977,8.19 -358.72,8.057 -358.47,7.282L-357.053,7.268C-356.672,6.747 -355.905,6.095 -355.263,5.96C-355.263,5.96 -355.135,5.829 -355.137,5.7C-355.015,5.055 -354.502,4.792 -353.987,4.787C-353.988,4.659 -353.992,4.272 -353.609,4.01C-353.353,3.749 -352.455,3.353 -352.455,3.353C-352.196,3.608 -352.069,3.349 -351.943,3.09C-350.533,2.431 -349.516,1.132 -347.849,0.341C-347.207,0.078 -346.825,-0.314 -346.186,-0.835C-345.804,-1.226 -345.55,-1.616 -345.039,-2.008L-344.526,-2.271L-344.655,-2.269L-343.76,-2.923C-342.739,-3.835 -341.589,-4.75 -340.434,-5.278C-340.177,-5.28 -339.54,-5.931 -338.773,-6.454L-337.488,-6.854L-337.619,-6.981L-336.98,-7.504C-335.825,-8.031 -334.541,-8.432 -333,-8.835C-332.87,-8.836 -332.742,-8.837 -332.743,-8.965C-332.743,-8.965 -332.36,-9.356 -331.974,-9.36L-329.267,-9.26C-328.106,-9.143 -327.332,-9.022 -326.681,-8.385L-326.809,-8.384C-326.679,-8.256 -326.42,-8.13 -326.292,-8.131C-325.38,-7.239 -324.335,-5.834 -323.801,-4.035C-323.669,-3.778 -323.664,-3.262 -323.66,-2.876C-323.657,-2.618 -323.525,-2.363 -323.521,-1.975C-323.12,-0.563 -323.112,0.21 -323.636,-0.557C-323.882,0.475 -323.752,0.603 -323.619,0.988L-322.958,2.527L-322.96,2.398C-322.7,2.654 -322.302,3.68 -322.167,4.323C-322.166,4.451 -322.035,4.58 -322.035,4.58L-321.648,4.575C-321.52,4.574 -321.39,4.573 -321.264,4.442C-321.006,4.439 -320.621,4.307 -319.979,4.043L-319.465,3.909C-319.336,3.907 -319.081,3.646 -318.825,3.514C-318.185,3.121 -317.545,2.728 -316.644,2.589L-316.132,2.328C-315.624,1.678 -314.339,1.277 -313.436,1.397C-313.431,1.911 -313.431,1.911 -313.294,2.683C-313.679,2.817 -314.449,3.082 -314.957,3.732C-315.212,3.992 -315.464,4.639 -315.588,5.027C-315.714,5.285 -315.835,6.061 -316.089,6.45L-316.089,6.32C-316.471,6.84 -316.856,6.973 -317.113,6.975L-317.881,7.499L-318.394,7.763C-318.778,7.895 -319.679,8.034 -320.066,8.037C-320.322,8.169 -320.837,8.174 -321.095,8.177L-322.126,8.188C-322.389,7.675 -323.167,7.169 -324.33,6.923C-324.849,6.542 -325.109,6.287 -325.51,4.873L-325.509,5.002C-325.77,4.748 -326.03,4.492 -326.159,4.494C-326.937,3.988 -327.071,3.473 -327.338,2.703L-327.474,2.06C-327.474,2.06 -327.603,1.932 -327.607,1.545C-327.871,1.034 -327.884,-0.255 -327.764,-1.03C-327.896,-1.415 -327.777,-2.318 -327.652,-2.705C-328.04,-2.831 -328.043,-3.088 -327.92,-3.734C-327.922,-3.863 -327.924,-3.991 -328.182,-4.117C-328.313,-4.245 -328.316,-4.503 -328.318,-4.76C-328.45,-5.016 -328.326,-5.533 -328.329,-5.79C-328.717,-5.916 -329.619,-5.906 -329.876,-5.904C-330.39,-5.769 -331.673,-5.24 -332.315,-4.976L-334.11,-4.184C-334.237,-4.054 -334.366,-4.053 -334.491,-3.664C-337.44,-2.345 -338.339,-1.949 -338.979,-1.556L-338.849,-1.558L-340.383,-0.381L-341.278,0.401L-341.79,0.664L-342.941,1.449L-343.324,1.841L-343.325,1.711L-343.959,2.62C-344.473,2.755 -344.986,3.016 -345.111,3.405L-346.9,4.842L-347.541,5.106C-347.797,5.237 -348.308,5.629 -348.436,5.759L-348.307,5.758L-348.818,6.279L-349.969,7.064L-349.839,7.062L-351.501,8.369C-351.885,8.63 -352.27,8.763 -352.27,8.763C-352.654,9.025 -352.905,9.542 -353.29,9.804C-353.417,9.935 -353.417,9.935 -353.545,10.065C-354.443,10.461 -354.954,10.853 -355.081,10.983L-356.361,11.769L-357.389,12.038L-358.804,12.311C-359.577,12.319 -360.868,12.074 -361.391,11.307L-362.041,10.799L-363.336,10.168C-363.733,9.141 -363.999,8.372 -363.888,6.695C-363.892,6.309 -363.893,6.179 -363.767,5.921M-397.67,-20.136C-397.667,-19.75 -398.18,-19.615 -398.045,-18.972C-397.782,-18.459 -397.776,-17.943 -397.898,-17.298C-398.02,-16.653 -398.022,-16.782 -398.667,-16.904C-399.569,-16.894 -400.089,-17.276 -400.485,-18.173L-401.004,-18.554C-401.784,-19.19 -401.921,-19.962 -402.056,-20.605C-402.319,-21.117 -402.066,-21.506 -401.808,-21.508C-400.775,-21.262 -399.879,-21.787 -398.719,-21.799L-398.589,-21.671C-397.946,-21.807 -397.814,-21.552 -397.547,-20.652L-397.67,-20.136ZM-408.163,-0.955C-407.781,-1.346 -407.395,-1.479 -407.141,-1.739C-406.633,-2.518 -405.375,-5.365 -404.866,-6.015C-404.613,-6.405 -404.486,-6.664 -403.973,-6.798C-403.463,-7.318 -403.084,-8.096 -402.446,-8.618C-401.938,-9.397 -400.529,-10.184 -399.879,-9.546C-398.971,-9.041 -399.479,-8.263 -398.567,-7.37C-398.433,-6.856 -400.079,-4.133 -400.591,-3.741C-401.741,-2.827 -401.976,-0.763 -402.866,0.406C-403.632,1.058 -403.624,1.831 -404.004,2.48C-404.762,3.904 -405.52,5.329 -405.761,6.879C-405.76,7.007 -405.888,7.138 -405.886,7.266C-405.882,7.652 -405.623,7.779 -405.364,7.906C-404.466,7.509 -403.558,8.144 -402.53,7.876C-401.247,7.347 -400.342,7.595 -399.058,7.195C-398.802,7.063 -397.134,6.402 -396.751,6.011C-395.73,5.098 -394.572,4.956 -393.292,4.17C-389.702,2.458 -387.781,1.407 -383.949,-1.855C-383.185,-2.636 -381.906,-3.551 -381.138,-4.075C-381.012,-4.335 -381.01,-4.205 -380.754,-4.337C-379.6,-4.864 -378.456,-6.293 -377.558,-6.689C-376.019,-7.35 -374.874,-8.779 -373.591,-9.308C-373.335,-9.439 -373.21,-9.827 -372.948,-9.444C-372.688,-9.189 -373.073,-9.056 -373.201,-8.926C-373.711,-8.404 -374.22,-7.885 -374.218,-7.627C-373.945,-6.213 -385.823,3.706 -386.464,4.099C-386.72,4.23 -387.104,4.492 -386.971,4.877C-386.841,5.005 -387.096,5.264 -387.226,5.137C-388.761,6.184 -389.655,6.967 -390.807,7.623L-391.317,8.144C-391.444,8.403 -392.346,8.283 -392.859,8.547C-393.502,8.682 -393.627,9.07 -394.012,9.203C-394.78,9.726 -395.289,10.247 -396.446,10.517C-397.473,10.915 -398.891,10.801 -400.046,11.199C-400.688,11.464 -401.071,11.854 -402.101,11.865C-402.359,11.867 -402.876,11.744 -403.262,11.749C-404.424,11.503 -405.848,10.874 -407.013,10.37C-407.66,10.12 -407.541,9.217 -407.802,8.832C-407.932,8.706 -407.934,8.577 -408.067,8.192C-408.848,7.427 -410.552,4.61 -409.533,3.568C-409.164,1.889 -408.792,0.468 -408.163,-0.955M-440.442,5.184L-440.571,5.185C-440.699,5.186 -440.828,5.188 -441.083,5.449L-442.491,6.365L-445.946,8.592C-446.074,8.722 -446.201,8.853 -446.2,8.981C-446.709,9.502 -447.217,10.281 -447.473,10.411L-450.158,12.372L-452.34,13.169L-452.341,13.04L-455.788,16.169L-457.195,17.085L-457.197,16.957L-458.087,17.996L-459.238,18.911L-460.518,19.697L-460.519,19.568L-461.281,20.608L-462.937,22.428L-464.215,23.474C-464.723,24.122 -464.85,24.381 -465.487,25.032L-466.758,26.72L-466.629,26.719L-468.15,29.054C-468.405,29.315 -468.66,29.575 -468.657,29.833C-468.654,30.091 -468.908,30.48 -468.777,30.735C-468.648,30.734 -468.132,30.728 -467.62,30.466C-467.62,30.466 -467.363,30.334 -466.72,30.328L-465.956,29.418L-464.8,29.019L-458.896,26.896C-458.391,25.859 -457.113,24.944 -456.727,24.811L-456.086,24.547L-456.215,24.548L-454.802,24.147L-451.098,21.015L-450.332,20.363L-447.907,18.147L-448.035,18.278L-447.397,17.627L-447.526,17.628L-446.636,16.458L-444.599,14.118C-444.601,13.989 -444.348,13.6 -444.349,13.471L-443.712,12.691L-441.565,8.675C-440.934,7.38 -440.56,6.216 -440.442,5.184M-459.69,-36.36L-460.583,-35.448L-460.164,-32.36C-460.283,-31.457 -459.883,-30.174 -459.102,-29.409L-458.451,-28.772L-457.017,-27.24L-455.583,-25.581L-454.283,-24.564L-452.851,-23.161L-452.331,-22.65L-451.941,-22.397C-451.166,-22.148 -450.646,-21.767 -450.642,-21.38L-450.771,-21.378L-445.833,-17.436L-445.835,-17.566C-445.447,-17.44 -445.185,-17.057 -442.321,-14.252L-440.493,-11.951C-439.973,-11.442 -439.706,-10.672 -439.316,-10.29L-438.272,-9.013L-438.264,-8.239C-438.003,-7.984 -437.613,-7.601 -437.353,-7.475L-436.95,-5.805L-436.951,-5.933L-436.411,-3.62L-436.266,-2.076C-435.88,-2.079 -435.493,-2.084 -435.238,-2.343C-433.187,-3.397 -429.462,-4.466 -427.282,-5.391L-423.815,-6.588C-423.041,-6.467 -422.527,-6.601 -422.144,-6.862L-421.756,-6.738L-420.865,-7.778L-418.674,-7.801L-417.905,-8.195L-418.167,-8.579C-400.158,-11.346 -399.891,-10.447 -398.062,-8.147C-398.814,-6.077 -403.071,-6.548 -405.139,-7.17C-406.177,-7.803 -406.812,-7.024 -406.939,-6.765L-411.311,-5.946L-415.295,-5.002L-418.124,-4.456C-418.376,-3.939 -418.634,-3.936 -418.634,-3.936L-419.921,-3.793L-421.202,-3.136C-421.716,-3.002 -422.104,-3.127 -422.615,-2.735L-422.617,-2.863L-423.641,-2.208C-423.898,-2.206 -424.411,-1.942 -424.412,-2.072L-424.668,-1.94L-425.311,-1.805L-425.183,-1.806L-426.469,-1.663L-426.471,-1.792L-427.749,-0.877L-428.265,-0.871L-429.935,-0.338C-429.932,-0.08 -430.315,0.181 -430.571,0.442C-430.828,0.444 -431.084,0.576 -431.472,0.451L-432.238,1.104L-433.262,1.758L-434.547,2.159L-434.548,2.029L-435.698,2.943C-435.69,3.717 -435.68,4.618 -435.933,5.137L-435.924,5.91C-435.921,6.296 -436.174,6.685 -436.554,7.333C-436.551,7.591 -436.415,8.234 -437.29,10.82L-437.915,12.63C-438.296,13.15 -438.927,14.445 -439.69,15.355L-442.621,18.478L-442.492,18.477C-442.492,18.477 -442.618,18.737 -442.617,18.865C-442.738,19.639 -443.116,20.416 -444.274,20.557L-444.401,20.817C-444.777,21.722 -445.287,22.242 -446.573,22.514C-448.87,24.6 -449.507,25.251 -449.891,25.512C-450.017,25.771 -450.146,25.772 -450.143,26.03L-451.169,26.556L-451.17,26.428L-452.319,27.471C-453.219,27.609 -454.115,28.134 -454.243,28.264L-454.114,28.262C-454.623,28.912 -455.39,29.436 -456.16,29.701L-457.187,30.099C-457.316,30.101 -457.442,30.359 -457.435,31.003C-459.875,31.802 -460.26,31.934 -460.386,32.194L-461.543,32.463L-461.414,32.462C-462.444,32.602 -464.102,34.166 -465.004,34.175L-465.515,34.567L-466.288,34.576C-466.417,34.577 -466.672,34.837 -467.058,34.84C-467.701,34.976 -468.858,35.247 -469.245,35.251C-470.406,35.135 -472.748,32.839 -473.019,31.683C-473.164,30.138 -472.671,27.943 -469.235,23.911L-467.709,21.963L-467.708,22.092L-464.781,18.582L-464.91,18.584C-464.402,17.934 -463.767,17.025 -462.868,16.759L-461.079,15.322L-461.207,15.452L-459.546,14.017L-458.777,13.752L-458.775,13.881L-456.348,11.923L-455.707,11.529L-453.406,9.83L-451.618,8.264L-451.489,8.393L-449.96,6.701L-448.805,6.303L-447.016,4.867L-447.144,4.997L-445.355,3.561C-444.844,3.169 -444.841,3.427 -444.588,3.037C-444.722,2.524 -444.337,2.261 -443.697,1.997L-442.926,1.731L-442.024,1.722L-440.869,1.323L-440.101,0.799L-441.04,-2.669C-441.041,-2.797 -441.174,-3.183 -441.306,-3.439C-441.441,-4.082 -441.575,-4.597 -441.589,-5.884L-441.59,-6.014C-442.628,-6.647 -442.63,-6.905 -442.635,-7.421C-442.637,-7.549 -442.639,-7.678 -443.028,-7.931L-443.165,-8.703L-443.036,-8.704L-444.074,-9.467C-444.208,-9.851 -444.338,-9.978 -445.508,-10.998C-445.508,-10.998 -446.288,-11.633 -446.684,-12.532C-447.073,-12.784 -447.983,-13.549 -448.249,-14.319C-448.768,-14.7 -449.163,-15.468 -449.294,-15.725L-449.426,-15.982L-451.372,-17.249L-452.413,-18.269L-452.412,-18.141L-453.449,-18.774C-453.839,-19.027 -455.003,-19.531 -455.526,-20.169C-456.302,-20.418 -456.95,-20.798 -457.476,-21.823L-457.347,-21.824L-458.645,-22.714C-458.774,-22.712 -459.033,-22.838 -459.163,-22.966L-460.072,-23.599C-461.239,-24.361 -461.625,-24.356 -461.245,-24.876C-462.023,-25.383 -462.023,-25.383 -462.157,-25.897L-463.065,-26.403L-463.594,-27.685C-464.249,-28.71 -464.518,-29.866 -464.66,-31.153C-464.676,-32.57 -464.826,-34.63 -464.713,-36.178C-464.715,-36.307 -464.587,-36.437 -464.588,-36.566C-464.461,-36.696 -464.464,-36.953 -464.467,-37.211C-464.468,-37.34 -464.213,-37.601 -464.214,-37.73C-464.221,-38.374 -463.973,-39.278 -463.849,-39.795L-463.855,-40.31C-463.729,-40.569 -463.601,-40.7 -463.346,-40.959L-463.475,-40.958L-461.571,-43.685L-461.067,-44.72L-457.238,-48.239L-454.429,-50.588C-453.534,-51.242 -453.022,-51.634 -453.277,-51.373L-452.383,-52.156L-450.599,-53.978L-449.827,-54.116L-448.681,-55.416C-448.681,-55.416 -448.552,-55.417 -448.296,-55.549C-447.784,-55.812 -446.887,-56.336 -445.987,-56.475L-444.838,-57.518C-443.432,-58.563 -442.412,-59.605 -440.741,-60.009L-439.202,-60.67L-439.331,-60.669C-439.075,-60.799 -438.689,-60.933 -438.179,-61.453C-438.053,-61.713 -436.899,-62.24 -436.386,-62.504L-434.977,-63.291L-432.67,-64.346C-432.541,-64.347 -432.026,-64.482 -432.026,-64.482L-431.253,-64.49L-429.464,-65.797C-429.336,-65.927 -429.08,-66.059 -428.694,-66.192C-428.566,-66.193 -428.309,-66.325 -427.923,-66.329C-427.665,-66.332 -427.153,-66.595 -426.898,-66.855L-424.199,-67.528C-424.072,-67.658 -423.943,-67.659 -423.814,-67.66C-422.657,-67.931 -422.787,-68.058 -421.631,-68.327C-421.502,-68.329 -421.244,-68.331 -420.988,-68.464C-420.859,-68.465 -420.346,-68.727 -420.089,-68.73L-419.447,-68.995C-419.191,-69.127 -418.548,-69.262 -418.033,-69.267L-416.362,-69.672C-415.976,-69.676 -415.334,-69.94 -414.82,-70.075C-414.82,-70.075 -414.949,-70.073 -414.692,-70.204L-410.059,-70.64L-406.453,-70.807L-403.233,-70.97C-403.103,-70.842 -402.974,-70.843 -402.845,-70.844C-402.588,-70.847 -402.329,-70.721 -401.813,-70.727C-401.426,-70.602 -400.91,-70.608 -400.267,-70.743C-399.106,-70.627 -397.687,-70.383 -397.039,-70.004C-396.78,-69.878 -396.522,-69.88 -396.264,-69.883L-394.711,-69.255C-394.454,-69.258 -394.067,-69.262 -393.42,-69.012C-393.031,-68.758 -392.774,-68.76 -390.703,-67.88L-389.919,-66.858L-389.92,-66.986L-389.011,-66.352L-388.361,-65.714L-388.362,-65.844C-387.844,-65.591 -387.449,-64.822 -387.06,-64.568L-386.665,-63.8L-386.667,-63.928C-386.268,-62.773 -385.876,-62.262 -385.617,-62.135L-385.351,-61.366C-385.22,-61.109 -384.95,-59.952 -385.083,-60.338L-384.682,-58.924C-384.68,-58.795 -384.548,-58.539 -384.547,-58.41L-384.405,-57.123C-384.401,-56.737 -384.271,-56.609 -384.268,-56.352C-384.265,-56.094 -384.393,-55.964 -384.261,-55.707L-384.246,-54.291C-384.373,-54.031 -384.367,-53.516 -384.365,-53.387C-384.365,-53.387 -384.492,-53.128 -384.876,-52.867C-385.003,-52.736 -385.001,-52.608 -385,-52.478L-385.255,-52.218L-385.636,-51.699C-385.632,-51.312 -385.626,-50.797 -385.623,-50.41C-385.621,-50.282 -385.875,-49.893 -385.874,-49.763C-386.122,-48.86 -386.759,-48.209 -387.529,-47.943L-387.531,-48.071C-387.658,-47.941 -387.783,-47.552 -387.78,-47.296C-388.037,-47.163 -388.419,-46.773 -388.67,-46.126C-389.298,-44.574 -390.958,-43.139 -392.241,-42.609L-393.007,-41.958C-393.006,-41.829 -393.511,-40.921 -393.511,-40.921L-394.535,-40.266L-395.175,-39.873C-395.814,-39.351 -396.455,-39.087 -396.711,-38.826L-396.712,-38.954C-396.967,-38.694 -397.096,-38.693 -397.224,-38.692L-397.995,-38.426L-398.503,-37.778C-399.146,-37.641 -399.404,-37.638 -400.177,-37.63C-402.238,-37.609 -402.89,-38.375 -402.393,-40.055C-402.394,-40.184 -402.142,-40.702 -402.143,-40.83C-402.143,-40.83 -400.997,-42.131 -400.483,-42.266L-400.481,-42.137L-399.587,-42.79L-399.589,-43.048L-398.176,-43.449C-397.792,-43.711 -397.792,-43.711 -397.668,-44.099L-396.51,-44.24L-395.619,-45.28C-395.493,-45.539 -395.11,-45.93 -395.11,-45.93L-393.453,-47.622L-393.582,-47.621C-393.2,-48.141 -393.072,-48.142 -392.691,-48.661L-390.909,-50.741L-389.893,-52.169L-389.134,-53.466L-389.14,-54.11C-388.634,-54.888 -388.396,-56.823 -388.797,-58.237C-389.2,-59.779 -390.255,-62.086 -391.427,-63.234L-392.079,-64L-392.078,-63.872L-392.987,-64.506C-393.378,-65.018 -393.766,-65.142 -394.154,-65.267L-395.578,-65.896C-395.707,-65.895 -396.093,-65.891 -396.095,-66.019C-396.481,-66.015 -397.384,-66.135 -397.516,-66.39L-397.387,-66.392L-398.809,-66.893C-399.067,-66.89 -399.456,-67.143 -399.843,-67.14L-400.488,-67.262C-400.875,-67.258 -401.389,-67.123 -401.648,-67.25L-402.292,-67.243C-402.679,-67.239 -403.068,-67.492 -403.198,-67.62L-403.065,-67.234C-404.355,-67.35 -405.902,-67.463 -407.06,-67.321L-407.833,-67.313C-408.22,-67.309 -408.476,-67.178 -408.862,-67.174C-409.249,-67.17 -409.636,-67.166 -410.277,-66.901C-410.406,-66.9 -410.791,-66.766 -410.791,-66.766C-411.695,-67.015 -412.98,-66.615 -414.135,-66.216C-414.393,-66.213 -414.649,-66.082 -414.778,-66.081L-416.704,-65.416L-418.121,-65.401L-419.407,-65.13C-419.534,-64.999 -420.044,-64.479 -420.173,-64.478C-420.429,-64.346 -420.428,-64.217 -420.814,-64.213C-421.325,-63.821 -422.355,-63.681 -422.87,-63.676C-424.154,-63.276 -427.485,-61.437 -428.895,-60.778C-430.181,-60.507 -431.593,-59.976 -432.876,-59.448L-433.383,-58.669C-433.638,-58.409 -433.764,-58.15 -434.022,-58.147L-435.177,-57.749L-437.1,-56.827C-437.356,-56.695 -437.74,-56.432 -437.992,-55.915L-439.403,-55.256L-440.045,-55.12L-439.916,-55.121L-443.631,-53.021L-444.4,-52.627L-446.061,-51.32L-446.063,-51.449L-446.955,-50.538L-448.106,-49.753L-449.773,-48.962C-450.155,-48.572 -450.413,-48.569 -450.921,-47.92C-451.94,-46.75 -453.341,-45.188 -454.24,-44.921L-454.113,-45.051L-456.792,-42.575C-456.916,-42.058 -457.294,-41.281 -457.549,-41.02C-457.676,-40.891 -458.057,-40.372 -458.056,-40.243L-458.689,-39.075L-459.446,-37.651L-459.952,-36.743C-459.951,-36.615 -459.819,-36.358 -459.69,-36.36" style="fill:rgb(29,29,27);fill-rule:nonzero;"/>
                </g>
            </g>
        </g>
    </g>
</svg>
