<svg width="250" height="72" viewBox="0 0 250 72" fill="none" xmlns="http://www.w3.org/2000/svg">
<path d="M8.5 52.36C7.03 51.97 5.73 51.46 4.63 50.83C3.52 50.21 2.64 49.56 2 48.88L4.73 43.25C5.14 43.79 5.77 44.36 6.61 44.96C7.45 45.57 8.41 46.09 9.49 46.52C10.57 46.95 11.65 47.16 12.72 47.16C14.13 47.16 15.32 46.77 16.27 46C17.22 45.22 17.7 44.13 17.7 42.72C17.7 41.81 17.48 41.02 17.04 40.35C16.5744 39.6519 15.9847 39.0452 15.3 38.56C14.57 38.03 13.46 37.31 11.96 36.4C9.91 35.15 8.3 34.08 7.13 33.2C5.97 32.32 4.96 31.15 4.11 29.72C3.26 28.28 2.84 26.54 2.84 24.51C2.84 22.53 3.26 20.77 4.11 19.24C4.96 17.71 6.22 16.52 7.88 15.66C9.54 14.8 11.54 14.37 13.88 14.37C17.69 14.37 20.87 15.53 23.42 17.85L20.42 23.32C20.12 22.89 19.66 22.42 19.05 21.91C18.44 21.4 17.71 20.96 16.85 20.6C15.9941 20.2322 15.0716 20.0449 14.14 20.05C12.76 20.05 11.7 20.45 10.94 21.24C10.18 22.03 9.8 23.03 9.8 24.23C9.8 25.14 10.03 25.95 10.48 26.66C10.94 27.37 11.53 28 12.28 28.55C13.02 29.1 14.02 29.76 15.27 30.51C17.54 31.85 19.27 32.98 20.47 33.89C21.67 34.8 22.67 35.96 23.48 37.36C24.29 38.76 24.7 40.48 24.7 42.52C24.7 44.68 24.23 46.55 23.31 48.12C22.38 49.69 21.05 50.89 19.31 51.73C17.58 52.56 15.53 52.98 13.17 52.98C11.54 52.95 9.97 52.75 8.5 52.36Z" fill="#00CBC1"/>
<path d="M17.15 1.58997V7.64997H33.23V68.74H40.14V7.64997H56.22V1.58997H17.15Z" fill="#00CBC1"/>
<path d="M75.99 15V52.36H69.02V36.49H56.69V52.36H49.77V15H56.69V30.6H69.02V15H75.99ZM101.47 46.47V52.36H83.51V15H90.32V46.47H101.47ZM138.62 14.35V52.36H131.97V36.33L132.21 30.01L130.31 32.9L122.96 41.53L115.62 32.9L113.71 30.01L114.01 36.33V52.36H107.36V14.35H107.9L123.02 32.18L138.03 14.35H138.62Z" fill="#00CBC1"/>
<path d="M155.21 20.83V30.64H166.25V36.65H155.21V52.3H148.34V14.94H167.86V20.83H155.21ZM186.25 41.69L182.34 31.5L181.43 28.5L180.57 31.5L176.82 41.69H186.25ZM188.23 46.89H174.88L172.9 52.3H165.39L181.2 14.29H181.74L197.61 52.3H190.32L188.23 46.89ZM205.61 52.3C204.14 51.91 202.85 51.4 201.74 50.77C200.63 50.15 199.76 49.49 199.11 48.81L201.84 43.18C202.25 43.72 202.87 44.29 203.72 44.89C204.56 45.5 205.52 46.02 206.6 46.45C207.68 46.88 208.76 47.09 209.83 47.09C211.24 47.09 212.43 46.7 213.38 45.93C214.33 45.15 214.81 44.06 214.81 42.65C214.81 41.74 214.59 40.95 214.15 40.28C213.684 39.5819 213.095 38.9752 212.41 38.49C211.68 37.96 210.57 37.24 209.07 36.33C207.02 35.08 205.41 34.01 204.25 33.13C203.09 32.25 202.08 31.08 201.23 29.65C200.38 28.21 199.96 26.47 199.96 24.44C199.96 22.46 200.38 20.7 201.23 19.17C202.08 17.64 203.33 16.45 205 15.59C206.66 14.73 208.66 14.3 211 14.3C214.81 14.3 217.99 15.46 220.54 17.78L217.54 23.25C217.24 22.82 216.78 22.35 216.17 21.84C215.56 21.33 214.83 20.89 213.97 20.53C213.114 20.1622 212.192 19.975 211.26 19.98C209.88 19.98 208.81 20.38 208.06 21.17C207.3 21.97 206.92 22.96 206.92 24.16C206.92 25.07 207.15 25.88 207.6 26.59C208.06 27.3 208.65 27.93 209.4 28.48C210.14 29.03 211.14 29.69 212.39 30.44C214.66 31.78 216.39 32.9 217.59 33.82C218.79 34.73 219.79 35.89 220.6 37.29C221.41 38.69 221.82 40.41 221.82 42.45C221.82 44.61 221.35 46.48 220.43 48.05C219.5 49.62 218.17 50.82 216.43 51.66C214.7 52.49 212.65 52.91 210.29 52.91C208.66 52.89 207.09 52.69 205.61 52.3ZM224.69 14.94V20.99H233.32V52.3H240.23V20.99H248.87V14.94H224.69Z" fill="#1D1D1B"/>
<path d="M52.97 69.4601C53.65 69.4601 54.24 69.3301 54.75 69.0701C55.26 68.8101 55.66 68.4401 55.94 67.9701C56.22 67.5001 56.36 66.9501 56.36 66.3301C56.36 65.7101 56.22 65.1701 55.94 64.6901C55.6595 64.2149 55.2457 63.8324 54.75 63.5901C54.24 63.3301 53.65 63.2001 52.97 63.2001H50.72V69.4701H52.97V69.4601ZM49.52 62.1601H53.04C53.92 62.1601 54.7 62.3301 55.39 62.6801C56.07 63.0301 56.6 63.5201 56.98 64.1501C57.36 64.7801 57.54 65.5101 57.54 66.3201C57.54 67.1401 57.35 67.8601 56.98 68.4901C56.6 69.1201 56.07 69.6101 55.39 69.9601C54.71 70.3101 53.92 70.4801 53.04 70.4801H49.52V62.1601ZM60.1 62.1601H61.29V70.5001H60.1V62.1601ZM70.51 62.1601V68.3801L65.51 62.1601H64.53V70.5001H65.72V64.2801L70.73 70.5001H71.71V62.1601H70.51ZM86.77 62.1601L83.34 68.0201L79.87 62.1601H78.89V70.5001H80.03V64.4601L83.05 69.4901H83.59L86.61 64.4301L86.62 70.5001H87.76L87.75 62.1601H86.77ZM94.79 61.1101C94.732 61.0547 94.686 60.9879 94.6551 60.9139C94.6241 60.8399 94.6088 60.7603 94.61 60.6801C94.61 60.5001 94.67 60.3601 94.79 60.2401C94.91 60.1201 95.05 60.0601 95.22 60.0601C95.39 60.0601 95.53 60.1201 95.65 60.2401C95.77 60.3601 95.83 60.5101 95.83 60.6801C95.83 60.8501 95.77 61.0001 95.65 61.1101C95.53 61.2301 95.39 61.2801 95.22 61.2801C95.05 61.2801 94.91 61.2201 94.79 61.1101ZM92.58 61.1101C92.522 61.0547 92.476 60.9879 92.4451 60.9139C92.4141 60.8399 92.3988 60.7603 92.4 60.6801C92.4 60.5001 92.46 60.3601 92.58 60.2401C92.7 60.1201 92.84 60.0601 93.01 60.0601C93.18 60.0601 93.32 60.1201 93.44 60.2401C93.56 60.3601 93.62 60.5101 93.62 60.6801C93.62 60.8501 93.56 61.0001 93.44 61.1101C93.32 61.2301 93.18 61.2801 93.01 61.2801C92.84 61.2801 92.69 61.2201 92.58 61.1101ZM95.9 67.4601L94.1 63.3701L92.3 67.4601H95.9ZM96.32 68.4201H91.89L90.97 70.5001H89.74L93.52 62.1601H94.7L98.49 70.5001H97.24L96.32 68.4201ZM106.18 62.1601L101.66 66.8201V62.1601H100.46V70.5001H101.66V68.3401L103.18 66.8001L106.37 70.5001H107.77L103.98 65.9201L107.54 62.1601H106.18ZM109.77 62.1601V70.5001H115.48V69.4601H110.96V62.1601H109.77ZM120.72 63.3801L122.52 67.4701H118.92L120.72 63.3801ZM120.13 62.1601L116.35 70.5001H117.58L118.5 68.4201H122.93L123.85 70.5001H125.1L121.31 62.1601H120.13ZM132.02 66.4601C132.42 66.1301 132.62 65.6701 132.62 65.0701C132.62 64.4701 132.42 64.0001 132.02 63.6801C131.62 63.3601 131.05 63.2001 130.29 63.2001H128.26V66.9501H130.29C131.05 66.9501 131.63 66.7901 132.02 66.4601ZM132.65 70.5001L130.85 67.9401C130.63 67.9601 130.45 67.9601 130.33 67.9601H128.27V70.5001H127.08V62.1601H130.33C131.41 62.1601 132.26 62.4201 132.88 62.9301C133.5 63.4501 133.81 64.1601 133.81 65.0601C133.81 65.7001 133.65 66.2501 133.33 66.7001C133.01 67.1501 132.56 67.4801 131.97 67.6901L133.95 70.4901H132.65V70.5001ZM136.48 62.1601V70.5001H142.53V69.4601H137.67V66.7701H141.85V65.7601H137.67V63.2001H142.36V62.1601H136.48ZM149.14 62.1601H150.33V70.5001H149.14V62.1601ZM158.13 70.3001C157.55 70.1001 157.09 69.8501 156.75 69.5401L157.19 68.6101C157.51 68.9001 157.91 69.1301 158.41 69.3101C158.91 69.4901 159.42 69.5801 159.94 69.5801C160.63 69.5801 161.15 69.4601 161.49 69.2301C161.83 69.0001 162 68.6801 162 68.2901C162 68.0001 161.91 67.7701 161.72 67.5901C161.53 67.4101 161.3 67.2701 161.03 67.1801C160.76 67.0801 160.37 66.9801 159.87 66.8601C159.24 66.7101 158.74 66.5601 158.35 66.4101C157.968 66.2604 157.628 66.0202 157.36 65.7101C157.09 65.4001 156.95 64.9701 156.95 64.4401C156.95 63.9901 157.07 63.5901 157.3 63.2401C157.53 62.8801 157.89 62.6001 158.37 62.3801C158.85 62.1701 159.44 62.0601 160.15 62.0601C160.64 62.0601 161.13 62.1201 161.6 62.2501C162.08 62.3801 162.48 62.5601 162.83 62.8001L162.44 63.7501C162.092 63.53 161.715 63.3584 161.32 63.2401C160.92 63.1301 160.53 63.0701 160.15 63.0701C159.47 63.0701 158.97 63.1901 158.63 63.4401C158.29 63.6901 158.12 64.0001 158.12 64.3901C158.12 64.6801 158.22 64.9101 158.41 65.0901C158.6 65.2701 158.83 65.4101 159.12 65.5101C159.4 65.6101 159.78 65.7101 160.27 65.8301C160.9 65.9801 161.4 66.1301 161.78 66.2801C162.16 66.4301 162.49 66.6601 162.76 66.9701C163.03 67.2801 163.17 67.7001 163.17 68.2201C163.17 68.6601 163.05 69.0501 162.81 69.4201C162.57 69.7801 162.21 70.0701 161.72 70.2801C161.24 70.4901 160.64 70.6001 159.93 70.6001C159.32 70.6001 158.71 70.5001 158.13 70.3001ZM164.33 62.1601V63.2001H167.19V70.5001H168.37V63.2001H171.23V62.1601H164.33ZM178.56 69.1201C179.05 68.8401 179.43 68.4601 179.72 67.9701C180 67.4801 180.14 66.9401 180.14 66.3301C180.14 65.7301 180 65.1801 179.72 64.6901C179.445 64.2084 179.044 63.8108 178.56 63.5401C178.07 63.2601 177.52 63.1201 176.91 63.1201C176.3 63.1201 175.74 63.2601 175.25 63.5401C174.75 63.8201 174.37 64.2001 174.08 64.6901C173.8 65.1801 173.66 65.7201 173.66 66.3301C173.66 66.9301 173.8 67.4801 174.08 67.9701C174.36 68.4601 174.75 68.8401 175.25 69.1201C175.75 69.4001 176.3 69.5401 176.91 69.5401C177.52 69.5401 178.08 69.4001 178.56 69.1201ZM174.64 70.0401C173.96 69.6701 173.43 69.1601 173.05 68.5101C172.66 67.8601 172.47 67.1301 172.47 66.3301C172.47 65.5301 172.66 64.8001 173.05 64.1501C173.43 63.5001 173.96 62.9901 174.64 62.6201C175.32 62.2501 176.07 62.0701 176.92 62.0701C177.75 62.0701 178.51 62.2501 179.18 62.6201C179.86 62.9901 180.38 63.5001 180.76 64.1501C181.14 64.8001 181.33 65.5301 181.33 66.3401C181.33 67.1501 181.14 67.8801 180.76 68.5201C180.38 69.1701 179.85 69.6801 179.18 70.0501C178.5 70.4201 177.75 70.6001 176.92 70.6001C176.07 70.6001 175.31 70.4101 174.64 70.0401ZM185.37 70.0401C184.7 69.6701 184.17 69.1601 183.79 68.5101C183.41 67.8601 183.22 67.1401 183.22 66.3301C183.22 65.5201 183.41 64.7901 183.79 64.1401C184.17 63.4901 184.7 62.9801 185.38 62.6101C186.05 62.2401 186.81 62.0601 187.64 62.0601C188.29 62.0601 188.89 62.1701 189.43 62.3901C189.97 62.6101 190.43 62.9301 190.81 63.3601L190.04 64.1101C189.41 63.4501 188.63 63.1201 187.69 63.1201C187.07 63.1201 186.51 63.2601 186.01 63.5401C185.51 63.8201 185.12 64.2001 184.84 64.6901C184.56 65.1801 184.42 65.7201 184.42 66.3301C184.42 66.9301 184.56 67.4801 184.84 67.9701C185.12 68.4601 185.51 68.8401 186.01 69.1201C186.51 69.4001 187.07 69.5401 187.69 69.5401C188.62 69.5401 189.4 69.2001 190.04 68.5401L190.81 69.2901C190.43 69.7201 189.97 70.0401 189.42 70.2701C188.88 70.4901 188.28 70.6101 187.63 70.6101C186.79 70.6001 186.04 70.4101 185.37 70.0401ZM198.96 62.1601L194.44 66.8201V62.1601H193.25V70.5001H194.44V68.3401L195.96 66.8001L199.15 70.5001H200.55L196.76 65.9201L200.32 62.1601H198.96ZM208.53 62.1601V65.7501H203.74V62.1601H202.55V70.5001H203.74V66.7801H208.53V70.5001H209.72V62.1601H208.53ZM218.38 69.1201C218.87 68.8401 219.25 68.4601 219.54 67.9701C219.82 67.4801 219.96 66.9401 219.96 66.3301C219.96 65.7301 219.82 65.1801 219.54 64.6901C219.26 64.2001 218.87 63.8201 218.38 63.5401C217.89 63.2601 217.34 63.1201 216.73 63.1201C216.12 63.1201 215.56 63.2601 215.07 63.5401C214.57 63.8201 214.19 64.2001 213.9 64.6901C213.62 65.1801 213.48 65.7201 213.48 66.3301C213.48 66.9301 213.62 67.4801 213.9 67.9701C214.18 68.4601 214.57 68.8401 215.07 69.1201C215.57 69.4001 216.12 69.5401 216.73 69.5401C217.34 69.5401 217.89 69.4001 218.38 69.1201ZM214.45 70.0401C213.77 69.6701 213.24 69.1601 212.86 68.5101C212.47 67.8601 212.28 67.1301 212.28 66.3301C212.28 65.5301 212.47 64.8001 212.86 64.1501C213.24 63.5001 213.77 62.9901 214.45 62.6201C215.13 62.2501 215.88 62.0701 216.73 62.0701C217.56 62.0701 218.32 62.2501 218.99 62.6201C219.67 62.9901 220.19 63.5001 220.57 64.1501C220.95 64.8001 221.14 65.5301 221.14 66.3401C221.14 67.1501 220.95 67.8801 220.57 68.5201C220.19 69.1701 219.66 69.6801 218.99 70.0501C218.31 70.4201 217.56 70.6001 216.73 70.6001C215.89 70.6001 215.13 70.4101 214.45 70.0401ZM223.71 62.1601V70.5001H229.42V69.4601H224.9V62.1601H223.71ZM239.41 62.1601L235.98 68.0201L232.5 62.1601H231.53V70.5001H232.67V64.4601L235.68 69.4901H236.23L239.24 64.4301L239.26 70.5001H240.4L240.39 62.1601H239.41Z" fill="#1D1D1B"/>
</svg>
